<?xml version="1.0" encoding="UTF-8"?>
<svg width="86.082" height="24" version="1.1" viewBox="0 0 22.776 6.35" xmlns="http://www.w3.org/2000/svg" xmlns:cc="http://creativecommons.org/ns#" xmlns:dc="http://purl.org/dc/elements/1.1/" xmlns:rdf="http://www.w3.org/1999/02/22-rdf-syntax-ns#">
<metadata>
<rdf:RDF>
<cc:Work rdf:about="">
<dc:format>image/svg+xml</dc:format>
<dc:type rdf:resource="http://purl.org/dc/dcmitype/StillImage"/>
<dc:title/>
</cc:Work>
</rdf:RDF>
</metadata>
<g transform="translate(-101.57 -43.192)">
<g transform="matrix(.51886 0 0 .51886 84.59 55.839)" fill="#0a3728" stroke-width=".060062">
<path class="st0" d="m61.207-24.332c-6e-3 0.88892-0.01201 1.5256-6e-3 2.2884h-3.2914l2.9911 5.4056s0.32433 0.66669 0.40242 0.95499c0.06607 0.28229 0.10811 0.57059 0.13214 0.86489 0.02403 0.25827-0.01802 0.55257-0.1021 0.8769-0.0961 0.36638-0.25827 0.70873-0.46848 1.0211-0.1982 0.27628-0.69071 0.60663-0.69071 0.60663h-4.6248v-2.1622h3.4836s-2.9911-5.2915-3.1953-5.7539c-0.20421-0.46248-0.2883-0.63065-0.36037-0.90694-0.07808-0.2883-0.11412-0.58861-0.11412-0.88291 6e-3 -0.32434 0.07207-0.63666 0.18619-0.93697 0.12613-0.35437 0.33635-0.66669 0.61263-0.91895 0.28229-0.25827 0.83486-0.46848 0.83486-0.46848 1.3874-6e-3 2.865 0.01201 4.2103 0.01201z"/>
<path d="m47.627-24.32 6e-3 12.012 5.2794-6e-3c0.21022-0.09009 0.40842-0.20421 0.58861-0.33635 0.28229-0.23424 0.54056-0.49251 0.7808-0.76879 0.22223-0.25827 0.40242-0.54656 0.53455-0.85288 0.16217-0.33635 0.33635-0.85288 0.37839-1.2313 0.04204-0.39641 0.02402-0.79882-0.05406-1.1892-0.0961-0.42644-0.27628-0.82285-0.52855-1.1772-0.31833-0.44446-0.93697-0.75078-0.93697-0.75078s0.61263-0.46848 0.7808-0.75077c0.16217-0.27028 0.27628-0.57059 0.34235-0.88291 0.07808-0.3844 0.10811-0.7748 0.07808-1.1592-0.03003-0.47449-0.03604-1.2973-0.93697-2.1142-0.5766-0.4865-0.71474-0.56458-1.2613-0.78681zm2.6487 2.2884h1.4895s0.2943 0.33635 0.34836 0.52855c0.10811 0.1982 0.16817 0.60062 0.18019 0.81084-6e-3 0.27628-0.08409 0.54656-0.22223 0.78081-0.09009 0.13214-0.2883 0.39641-0.2883 0.39641l-1.5136-6e-3zm-6e-3 4.7449 1.5616 6e-3s0.36037 0.36638 0.45647 0.60062c0.1021 0.25226 0.10811 0.5766 0.1021 0.81084-6e-3 0.1922-0.04805 0.37839-0.11412 0.55858-0.05406 0.15016-0.13214 0.30031-0.22223 0.43245-0.0961 0.12613-0.1982 0.24025-0.30632 0.34836l-1.4715 6e-3z"/>
<path d="m41.506-12.295 0.32434-1.8619 2.3604-6e-3 0.33034 1.8619 2.5586 6e-3 -2.1562-12.024-3.7419-0.01201-2.2703 12.03zm1.4895-8.703 0.83486 4.7389-1.6577-0.01201z"/>
<path d="m32.725-24.326h2.6367v9.7961h3.5016v2.2283h-6.1383z"/>
<path class="st0" d="m61.771-21.179h2.5466v5.2915s-0.01802 0.2883 0.16217 0.82285c0.18019 0.53455 0.3844 0.73276 0.3844 0.73276h1.3033v-6.8471h2.5346v8.8351h-1.9941l-0.24025-0.62464s-0.30031 0.33034-0.5766 0.47449c-0.27628 0.14415-0.79882 0.15016-0.79882 0.15016l-1.976 0.01201s-0.63065-0.80483-0.81684-1.2072c-0.18619-0.40242-0.27028-0.70272-0.36638-1.1352s-0.14415-1.5496-0.14415-1.5496z"/>
<path class="st0" d="m76.528-12.331v-12.042l-2.5526 0.01802 6e-3 3.5497h-0.10811s0.01201-0.08409-0.25226-0.24625c-0.26427-0.16217-0.64867-0.12012-0.64867-0.12012l-1.7658-6e-3s-0.44446 0.39641-0.69672 0.76879c-0.25226 0.37238-0.69672 1.0991-0.81684 1.5976-0.0961 0.35437-0.15616 0.71474-0.1922 1.0751 0 0.13814-0.02402 0.46848-0.02402 0.76879 0 0.30031-0.01802 0.71474 0.03003 1.1532 0.05406 0.49852 0.15616 0.98502 0.31232 1.4655 0.15616 0.45647 0.40842 0.85889 0.62464 1.1952 0.21622 0.33635 0.72074 0.81084 0.72074 0.81084l1.7959 6e-3s0.49251-6e-3 0.75078-0.0961c0.25827-0.09009 0.30031-0.15616 0.40842-0.24625 0.08409-0.08409 0.15016-0.18019 0.1982-0.2883l0.27628 0.63666zm-2.5406-6.8471-0.01201 4.853-1.3634-6e-3s-0.24025-0.53455-0.33034-0.79882c-0.0961-0.26427-0.16217-0.54656-0.18619-0.82886-0.04204-0.42043-0.04805-0.84687-0.01201-1.2673 0.03003-0.36638 0.09009-0.73276 0.18619-1.0871 0.09009-0.2883 0.33635-0.86489 0.33635-0.86489z"/>
</g>
</g>
</svg>
