<svg width="24" height="24" version="1.1" viewBox="0 0 6.35 6.35" xmlns="http://www.w3.org/2000/svg"><g transform="translate(-136 -40)"><path d="m136 43.1v-2.87h1.17v1.83h3.84l0.0395-1.83 0.686 0.637v5.1h-5.73z" color="#000000" color-rendering="auto" dominant-baseline="auto" fill="#0a3728" fill-rule="evenodd" image-rendering="auto" shape-rendering="auto" solid-color="#000000" stop-color="#000000" style="font-feature-settings:normal;font-variant-alternates:normal;font-variant-caps:normal;font-variant-east-asian:normal;font-variant-ligatures:normal;font-variant-numeric:normal;font-variant-position:normal;font-variation-settings:normal;inline-size:0;isolation:auto;mix-blend-mode:normal;shape-margin:0;shape-padding:0;text-decoration-color:#000000;text-decoration-line:none;text-decoration-style:solid;text-indent:0;text-orientation:mixed;text-transform:none;white-space:normal"/><path d="m136 40v6.14h0.655v-3.65h4.82v3.65h0.655v-5.38l-0.374-0.377c-0.0892-0.09-0.175-0.172-0.243-0.233-0.0343-0.0307-0.064-0.0562-0.0911-0.0773-0.0135-0.0106-0.026-0.0196-0.0427-0.03-8e-3 -0.0052-0.0172-0.0116-0.0323-0.0185-8e-3 -0.0034-0.0167-0.0065-0.03-0.0104-7e-3 -0.0019-0.0135-0.0041-0.0231-0.0058-0.01-0.0017-0.0354-0.0035-0.0357-0.0035-3.4e-4 0-0.102 0.0286-0.103 0.0288-1.7e-4 1e-4 -0.0321 0.0229-0.0323 0.0231-1.7e-4 1.5e-4 -0.0153 0.0143-0.0208 0.0208-0.022 0.026-0.0281 0.0427-0.0334 0.0554-0.0107 0.0253-0.0123 0.038-0.015 0.0508-5e-3 0.0256-8e-3 0.047-0.0104 0.0738-5e-3 0.0537-0.0101 0.124-0.0138 0.209-7e-3 0.17-0.0115 0.399-0.0115 0.653v0.713h-3.45v-1.83h-0.329c-0.0344 0-0.0707-5.91e-4 -0.125 0.015-0.0539 0.0156-0.125 0.067-0.157 0.125-0.0641 0.115-0.0461 0.182-0.0461 0.291v0.0265h-0.257v-0.0265c0-0.108 0.019-0.175-0.045-0.291-0.032-0.0576-0.104-0.109-0.158-0.125-0.0539-0.0156-0.0901-0.015-0.125-0.015zm5.43 0.621c0.0153 0.0152 0.0259 0.0246 0.0415 0.0404l0.258 0.26v1.16h-0.309v-0.967c0-0.193 5e-3 -0.348 9e-3 -0.494zm-5.03 0.239h0.765v1.22h-0.765z" color="#000000" color-rendering="auto" dominant-baseline="auto" fill-opacity="0" image-rendering="auto" shape-rendering="auto" solid-color="#000000" stop-color="#000000" style="font-feature-settings:normal;font-variant-alternates:normal;font-variant-caps:normal;font-variant-east-asian:normal;font-variant-ligatures:normal;font-variant-numeric:normal;font-variant-position:normal;font-variation-settings:normal;inline-size:0;isolation:auto;mix-blend-mode:normal;shape-margin:0;shape-padding:0;text-decoration-color:#000000;text-decoration-line:none;text-decoration-style:solid;text-indent:0;text-orientation:mixed;text-transform:none;white-space:normal"/><g transform="matrix(.591 0 0 .591 26.8 46.6)" shape-rendering="auto"><path d="m188-10.8h5.07v2.41h-5.07zm4.64 0.0859h-1.46v2.23h1.46z" color="#000000" color-rendering="auto" dominant-baseline="auto" fill="#0a3728" fill-rule="evenodd" image-rendering="auto" solid-color="#000000" stop-color="#000000" style="font-feature-settings:normal;font-variant-alternates:normal;font-variant-caps:normal;font-variant-east-asian:normal;font-variant-ligatures:normal;font-variant-numeric:normal;font-variant-position:normal;font-variation-settings:normal;inline-size:0;isolation:auto;mix-blend-mode:normal;shape-margin:0;shape-padding:0;text-decoration-color:#000000;text-decoration-line:none;text-decoration-style:solid;text-indent:0;text-orientation:mixed;text-transform:none;white-space:normal"/><path d="m187-11.1v3.09h5.75v-3.09h-2.88zm0.682 0.682h2.5v1.72h-2.5v-0.863zm3.18 0.0859h0.779v1.55h-0.779v-0.777z" color="#000000" color-rendering="auto" dominant-baseline="auto" fill-opacity="0" image-rendering="auto" solid-color="#000000" stop-color="#000000" style="font-feature-settings:normal;font-variant-alternates:normal;font-variant-caps:normal;font-variant-east-asian:normal;font-variant-ligatures:normal;font-variant-numeric:normal;font-variant-position:normal;font-variation-settings:normal;inline-size:0;isolation:auto;mix-blend-mode:normal;shape-margin:0;shape-padding:0;text-decoration-color:#000000;text-decoration-line:none;text-decoration-style:solid;text-indent:0;text-orientation:mixed;text-transform:none;white-space:normal"/></g><path d="m136 40.2h1.16v0.504h-1.16z" fill="#0a3728" fill-rule="evenodd"/></g></svg>
