G04 #@! TF.GenerationSoftware,KiCad,Pcbnew,(5.1.5)-3*
G04 #@! TF.CreationDate,2020-12-21T13:18:25+01:00*
G04 #@! TF.ProjectId,epimetheus_paj7620,6570696d-6574-4686-9575-735f70616a37,rev?*
G04 #@! TF.SameCoordinates,Original*
G04 #@! TF.FileFunction,Legend,Top*
G04 #@! TF.FilePolarity,Positive*
%FSLAX46Y46*%
G04 Gerber Fmt 4.6, Leading zero omitted, Abs format (unit mm)*
G04 Created by KiCad (PCBNEW (5.1.5)-3) date 2020-12-21 13:18:25*
%MOMM*%
%LPD*%
G04 APERTURE LIST*
%ADD10C,0.100000*%
%ADD11C,0.120000*%
%ADD12C,0.150000*%
G04 APERTURE END LIST*
D10*
X162211047Y-23983904D02*
X162211047Y-23183904D01*
X162515809Y-23183904D01*
X162592000Y-23222000D01*
X162630095Y-23260095D01*
X162668190Y-23336285D01*
X162668190Y-23450571D01*
X162630095Y-23526761D01*
X162592000Y-23564857D01*
X162515809Y-23602952D01*
X162211047Y-23602952D01*
X162972952Y-23755333D02*
X163353904Y-23755333D01*
X162896761Y-23983904D02*
X163163428Y-23183904D01*
X163430095Y-23983904D01*
X163925333Y-23183904D02*
X163925333Y-23755333D01*
X163887238Y-23869619D01*
X163811047Y-23945809D01*
X163696761Y-23983904D01*
X163620571Y-23983904D01*
X164230095Y-23183904D02*
X164763428Y-23183904D01*
X164420571Y-23983904D01*
X165411047Y-23183904D02*
X165258666Y-23183904D01*
X165182476Y-23222000D01*
X165144380Y-23260095D01*
X165068190Y-23374380D01*
X165030095Y-23526761D01*
X165030095Y-23831523D01*
X165068190Y-23907714D01*
X165106285Y-23945809D01*
X165182476Y-23983904D01*
X165334857Y-23983904D01*
X165411047Y-23945809D01*
X165449142Y-23907714D01*
X165487238Y-23831523D01*
X165487238Y-23641047D01*
X165449142Y-23564857D01*
X165411047Y-23526761D01*
X165334857Y-23488666D01*
X165182476Y-23488666D01*
X165106285Y-23526761D01*
X165068190Y-23564857D01*
X165030095Y-23641047D01*
X165792000Y-23260095D02*
X165830095Y-23222000D01*
X165906285Y-23183904D01*
X166096761Y-23183904D01*
X166172952Y-23222000D01*
X166211047Y-23260095D01*
X166249142Y-23336285D01*
X166249142Y-23412476D01*
X166211047Y-23526761D01*
X165753904Y-23983904D01*
X166249142Y-23983904D01*
X166744380Y-23183904D02*
X166820571Y-23183904D01*
X166896761Y-23222000D01*
X166934857Y-23260095D01*
X166972952Y-23336285D01*
X167011047Y-23488666D01*
X167011047Y-23679142D01*
X166972952Y-23831523D01*
X166934857Y-23907714D01*
X166896761Y-23945809D01*
X166820571Y-23983904D01*
X166744380Y-23983904D01*
X166668190Y-23945809D01*
X166630095Y-23907714D01*
X166592000Y-23831523D01*
X166553904Y-23679142D01*
X166553904Y-23488666D01*
X166592000Y-23336285D01*
X166630095Y-23260095D01*
X166668190Y-23222000D01*
X166744380Y-23183904D01*
D11*
X162052000Y-27888000D02*
X162052000Y-34088000D01*
X173873000Y-34088000D02*
X173873000Y-27888000D01*
X162052000Y-27888000D02*
X164148000Y-27888000D01*
X165798000Y-27888000D02*
X167148000Y-27888000D01*
X168798000Y-27888000D02*
X171198000Y-27888000D01*
X172748000Y-27888000D02*
X173873000Y-27888000D01*
X172298000Y-34088000D02*
X162052000Y-34088000D01*
D12*
X174863238Y-26360380D02*
X174863238Y-25360380D01*
X175339428Y-26360380D02*
X175339428Y-25360380D01*
X175910857Y-26360380D01*
X175910857Y-25360380D01*
X176244190Y-25360380D02*
X176815619Y-25360380D01*
X176529904Y-26360380D02*
X176529904Y-25360380D01*
X174553714Y-28852761D02*
X174696571Y-28900380D01*
X174934666Y-28900380D01*
X175029904Y-28852761D01*
X175077523Y-28805142D01*
X175125142Y-28709904D01*
X175125142Y-28614666D01*
X175077523Y-28519428D01*
X175029904Y-28471809D01*
X174934666Y-28424190D01*
X174744190Y-28376571D01*
X174648952Y-28328952D01*
X174601333Y-28281333D01*
X174553714Y-28186095D01*
X174553714Y-28090857D01*
X174601333Y-27995619D01*
X174648952Y-27948000D01*
X174744190Y-27900380D01*
X174982285Y-27900380D01*
X175125142Y-27948000D01*
X175553714Y-28900380D02*
X175553714Y-27900380D01*
X175791809Y-27900380D01*
X175934666Y-27948000D01*
X176029904Y-28043238D01*
X176077523Y-28138476D01*
X176125142Y-28328952D01*
X176125142Y-28471809D01*
X176077523Y-28662285D01*
X176029904Y-28757523D01*
X175934666Y-28852761D01*
X175791809Y-28900380D01*
X175553714Y-28900380D01*
X176506095Y-28614666D02*
X176982285Y-28614666D01*
X176410857Y-28900380D02*
X176744190Y-27900380D01*
X177077523Y-28900380D01*
X174577523Y-31392761D02*
X174720380Y-31440380D01*
X174958476Y-31440380D01*
X175053714Y-31392761D01*
X175101333Y-31345142D01*
X175148952Y-31249904D01*
X175148952Y-31154666D01*
X175101333Y-31059428D01*
X175053714Y-31011809D01*
X174958476Y-30964190D01*
X174768000Y-30916571D01*
X174672761Y-30868952D01*
X174625142Y-30821333D01*
X174577523Y-30726095D01*
X174577523Y-30630857D01*
X174625142Y-30535619D01*
X174672761Y-30488000D01*
X174768000Y-30440380D01*
X175006095Y-30440380D01*
X175148952Y-30488000D01*
X176148952Y-31345142D02*
X176101333Y-31392761D01*
X175958476Y-31440380D01*
X175863238Y-31440380D01*
X175720380Y-31392761D01*
X175625142Y-31297523D01*
X175577523Y-31202285D01*
X175529904Y-31011809D01*
X175529904Y-30868952D01*
X175577523Y-30678476D01*
X175625142Y-30583238D01*
X175720380Y-30488000D01*
X175863238Y-30440380D01*
X175958476Y-30440380D01*
X176101333Y-30488000D01*
X176148952Y-30535619D01*
X177053714Y-31440380D02*
X176577523Y-31440380D01*
X176577523Y-30440380D01*
X175006095Y-33028000D02*
X174910857Y-32980380D01*
X174768000Y-32980380D01*
X174625142Y-33028000D01*
X174529904Y-33123238D01*
X174482285Y-33218476D01*
X174434666Y-33408952D01*
X174434666Y-33551809D01*
X174482285Y-33742285D01*
X174529904Y-33837523D01*
X174625142Y-33932761D01*
X174768000Y-33980380D01*
X174863238Y-33980380D01*
X175006095Y-33932761D01*
X175053714Y-33885142D01*
X175053714Y-33551809D01*
X174863238Y-33551809D01*
X175482285Y-33980380D02*
X175482285Y-32980380D01*
X176053714Y-33980380D01*
X176053714Y-32980380D01*
X176529904Y-33980380D02*
X176529904Y-32980380D01*
X176768000Y-32980380D01*
X176910857Y-33028000D01*
X177006095Y-33123238D01*
X177053714Y-33218476D01*
X177101333Y-33408952D01*
X177101333Y-33551809D01*
X177053714Y-33742285D01*
X177006095Y-33837523D01*
X176910857Y-33932761D01*
X176768000Y-33980380D01*
X176529904Y-33980380D01*
X174672761Y-35520380D02*
X175006095Y-36520380D01*
X175339428Y-35520380D01*
X175672761Y-36520380D02*
X175672761Y-35520380D01*
X176148952Y-36520380D02*
X176148952Y-35520380D01*
X176720380Y-36520380D01*
X176720380Y-35520380D01*
M02*
