G04 #@! TF.GenerationSoftware,KiCad,Pcbnew,(5.1.5)-3*
G04 #@! TF.CreationDate,2020-12-21T12:14:11+01:00*
G04 #@! TF.ProjectId,epimetheus_bme280_alt,6570696d-6574-4686-9575-735f626d6532,rev?*
G04 #@! TF.SameCoordinates,Original*
G04 #@! TF.FileFunction,Copper,L2,Bot*
G04 #@! TF.FilePolarity,Positive*
%FSLAX46Y46*%
G04 Gerber Fmt 4.6, Leading zero omitted, Abs format (unit mm)*
G04 Created by KiCad (PCBNEW (5.1.5)-3) date 2020-12-21 12:14:11*
%MOMM*%
%LPD*%
G04 APERTURE LIST*
%ADD10C,1.524000*%
%ADD11C,0.800000*%
%ADD12C,0.254000*%
G04 APERTURE END LIST*
D10*
X179070000Y-26670000D03*
X179070000Y-29210000D03*
X179070000Y-31750000D03*
X179070000Y-34290000D03*
D11*
X172720000Y-35560000D03*
D12*
G36*
X180442001Y-26406728D02*
G01*
X180413314Y-26262510D01*
X180308005Y-26008273D01*
X180155120Y-25779465D01*
X179960535Y-25584880D01*
X179731727Y-25431995D01*
X179477490Y-25326686D01*
X179207592Y-25273000D01*
X178932408Y-25273000D01*
X178662510Y-25326686D01*
X178408273Y-25431995D01*
X178179465Y-25584880D01*
X177984880Y-25779465D01*
X177831995Y-26008273D01*
X177726686Y-26262510D01*
X177673000Y-26532408D01*
X177673000Y-26807592D01*
X177726686Y-27077490D01*
X177831995Y-27331727D01*
X177984880Y-27560535D01*
X178179465Y-27755120D01*
X178408273Y-27908005D01*
X178485515Y-27940000D01*
X178408273Y-27971995D01*
X178179465Y-28124880D01*
X177984880Y-28319465D01*
X177831995Y-28548273D01*
X177726686Y-28802510D01*
X177673000Y-29072408D01*
X177673000Y-29347592D01*
X177726686Y-29617490D01*
X177831995Y-29871727D01*
X177984880Y-30100535D01*
X178179465Y-30295120D01*
X178408273Y-30448005D01*
X178479943Y-30477692D01*
X178466977Y-30482364D01*
X178351020Y-30544344D01*
X178284040Y-30784435D01*
X179070000Y-31570395D01*
X179855960Y-30784435D01*
X179788980Y-30544344D01*
X179653240Y-30480515D01*
X179731727Y-30448005D01*
X179960535Y-30295120D01*
X180155120Y-30100535D01*
X180308005Y-29871727D01*
X180413314Y-29617490D01*
X180442001Y-29473273D01*
X180442000Y-31479416D01*
X180430922Y-31405867D01*
X180337636Y-31146977D01*
X180275656Y-31031020D01*
X180035565Y-30964040D01*
X179249605Y-31750000D01*
X180035565Y-32535960D01*
X180275656Y-32468980D01*
X180392756Y-32219952D01*
X180442000Y-32021474D01*
X180442000Y-34026726D01*
X180413314Y-33882510D01*
X180308005Y-33628273D01*
X180155120Y-33399465D01*
X179960535Y-33204880D01*
X179731727Y-33051995D01*
X179660057Y-33022308D01*
X179673023Y-33017636D01*
X179788980Y-32955656D01*
X179855960Y-32715565D01*
X179070000Y-31929605D01*
X178284040Y-32715565D01*
X178351020Y-32955656D01*
X178486760Y-33019485D01*
X178408273Y-33051995D01*
X178179465Y-33204880D01*
X177984880Y-33399465D01*
X177831995Y-33628273D01*
X177726686Y-33882510D01*
X177673000Y-34152408D01*
X177673000Y-34427592D01*
X177726686Y-34697490D01*
X177831995Y-34951727D01*
X177984880Y-35180535D01*
X178179465Y-35375120D01*
X178408273Y-35528005D01*
X178662510Y-35633314D01*
X178932408Y-35687000D01*
X179207592Y-35687000D01*
X179477490Y-35633314D01*
X179731727Y-35528005D01*
X179960535Y-35375120D01*
X180155120Y-35180535D01*
X180308005Y-34951727D01*
X180413314Y-34697490D01*
X180442000Y-34553274D01*
X180442000Y-38202000D01*
X162458000Y-38202000D01*
X162458000Y-32031685D01*
X162490114Y-32063799D01*
X162716957Y-32215371D01*
X162969011Y-32319775D01*
X163236589Y-32373000D01*
X163509411Y-32373000D01*
X163776989Y-32319775D01*
X164029043Y-32215371D01*
X164255886Y-32063799D01*
X164448799Y-31870886D01*
X164600371Y-31644043D01*
X164704775Y-31391989D01*
X164758000Y-31124411D01*
X164758000Y-30851589D01*
X168988000Y-30851589D01*
X168988000Y-31124411D01*
X169041225Y-31391989D01*
X169145629Y-31644043D01*
X169297201Y-31870886D01*
X169490114Y-32063799D01*
X169716957Y-32215371D01*
X169969011Y-32319775D01*
X170236589Y-32373000D01*
X170509411Y-32373000D01*
X170776989Y-32319775D01*
X171029043Y-32215371D01*
X171255886Y-32063799D01*
X171448799Y-31870886D01*
X171481452Y-31822017D01*
X177668090Y-31822017D01*
X177709078Y-32094133D01*
X177802364Y-32353023D01*
X177864344Y-32468980D01*
X178104435Y-32535960D01*
X178890395Y-31750000D01*
X178104435Y-30964040D01*
X177864344Y-31031020D01*
X177747244Y-31280048D01*
X177680977Y-31547135D01*
X177668090Y-31822017D01*
X171481452Y-31822017D01*
X171600371Y-31644043D01*
X171704775Y-31391989D01*
X171758000Y-31124411D01*
X171758000Y-30851589D01*
X171704775Y-30584011D01*
X171600371Y-30331957D01*
X171448799Y-30105114D01*
X171255886Y-29912201D01*
X171029043Y-29760629D01*
X170776989Y-29656225D01*
X170509411Y-29603000D01*
X170236589Y-29603000D01*
X169969011Y-29656225D01*
X169716957Y-29760629D01*
X169490114Y-29912201D01*
X169297201Y-30105114D01*
X169145629Y-30331957D01*
X169041225Y-30584011D01*
X168988000Y-30851589D01*
X164758000Y-30851589D01*
X164704775Y-30584011D01*
X164600371Y-30331957D01*
X164448799Y-30105114D01*
X164255886Y-29912201D01*
X164029043Y-29760629D01*
X163776989Y-29656225D01*
X163509411Y-29603000D01*
X163236589Y-29603000D01*
X162969011Y-29656225D01*
X162716957Y-29760629D01*
X162490114Y-29912201D01*
X162458000Y-29944315D01*
X162458000Y-23520000D01*
X180442001Y-23520000D01*
X180442001Y-26406728D01*
G37*
X180442001Y-26406728D02*
X180413314Y-26262510D01*
X180308005Y-26008273D01*
X180155120Y-25779465D01*
X179960535Y-25584880D01*
X179731727Y-25431995D01*
X179477490Y-25326686D01*
X179207592Y-25273000D01*
X178932408Y-25273000D01*
X178662510Y-25326686D01*
X178408273Y-25431995D01*
X178179465Y-25584880D01*
X177984880Y-25779465D01*
X177831995Y-26008273D01*
X177726686Y-26262510D01*
X177673000Y-26532408D01*
X177673000Y-26807592D01*
X177726686Y-27077490D01*
X177831995Y-27331727D01*
X177984880Y-27560535D01*
X178179465Y-27755120D01*
X178408273Y-27908005D01*
X178485515Y-27940000D01*
X178408273Y-27971995D01*
X178179465Y-28124880D01*
X177984880Y-28319465D01*
X177831995Y-28548273D01*
X177726686Y-28802510D01*
X177673000Y-29072408D01*
X177673000Y-29347592D01*
X177726686Y-29617490D01*
X177831995Y-29871727D01*
X177984880Y-30100535D01*
X178179465Y-30295120D01*
X178408273Y-30448005D01*
X178479943Y-30477692D01*
X178466977Y-30482364D01*
X178351020Y-30544344D01*
X178284040Y-30784435D01*
X179070000Y-31570395D01*
X179855960Y-30784435D01*
X179788980Y-30544344D01*
X179653240Y-30480515D01*
X179731727Y-30448005D01*
X179960535Y-30295120D01*
X180155120Y-30100535D01*
X180308005Y-29871727D01*
X180413314Y-29617490D01*
X180442001Y-29473273D01*
X180442000Y-31479416D01*
X180430922Y-31405867D01*
X180337636Y-31146977D01*
X180275656Y-31031020D01*
X180035565Y-30964040D01*
X179249605Y-31750000D01*
X180035565Y-32535960D01*
X180275656Y-32468980D01*
X180392756Y-32219952D01*
X180442000Y-32021474D01*
X180442000Y-34026726D01*
X180413314Y-33882510D01*
X180308005Y-33628273D01*
X180155120Y-33399465D01*
X179960535Y-33204880D01*
X179731727Y-33051995D01*
X179660057Y-33022308D01*
X179673023Y-33017636D01*
X179788980Y-32955656D01*
X179855960Y-32715565D01*
X179070000Y-31929605D01*
X178284040Y-32715565D01*
X178351020Y-32955656D01*
X178486760Y-33019485D01*
X178408273Y-33051995D01*
X178179465Y-33204880D01*
X177984880Y-33399465D01*
X177831995Y-33628273D01*
X177726686Y-33882510D01*
X177673000Y-34152408D01*
X177673000Y-34427592D01*
X177726686Y-34697490D01*
X177831995Y-34951727D01*
X177984880Y-35180535D01*
X178179465Y-35375120D01*
X178408273Y-35528005D01*
X178662510Y-35633314D01*
X178932408Y-35687000D01*
X179207592Y-35687000D01*
X179477490Y-35633314D01*
X179731727Y-35528005D01*
X179960535Y-35375120D01*
X180155120Y-35180535D01*
X180308005Y-34951727D01*
X180413314Y-34697490D01*
X180442000Y-34553274D01*
X180442000Y-38202000D01*
X162458000Y-38202000D01*
X162458000Y-32031685D01*
X162490114Y-32063799D01*
X162716957Y-32215371D01*
X162969011Y-32319775D01*
X163236589Y-32373000D01*
X163509411Y-32373000D01*
X163776989Y-32319775D01*
X164029043Y-32215371D01*
X164255886Y-32063799D01*
X164448799Y-31870886D01*
X164600371Y-31644043D01*
X164704775Y-31391989D01*
X164758000Y-31124411D01*
X164758000Y-30851589D01*
X168988000Y-30851589D01*
X168988000Y-31124411D01*
X169041225Y-31391989D01*
X169145629Y-31644043D01*
X169297201Y-31870886D01*
X169490114Y-32063799D01*
X169716957Y-32215371D01*
X169969011Y-32319775D01*
X170236589Y-32373000D01*
X170509411Y-32373000D01*
X170776989Y-32319775D01*
X171029043Y-32215371D01*
X171255886Y-32063799D01*
X171448799Y-31870886D01*
X171481452Y-31822017D01*
X177668090Y-31822017D01*
X177709078Y-32094133D01*
X177802364Y-32353023D01*
X177864344Y-32468980D01*
X178104435Y-32535960D01*
X178890395Y-31750000D01*
X178104435Y-30964040D01*
X177864344Y-31031020D01*
X177747244Y-31280048D01*
X177680977Y-31547135D01*
X177668090Y-31822017D01*
X171481452Y-31822017D01*
X171600371Y-31644043D01*
X171704775Y-31391989D01*
X171758000Y-31124411D01*
X171758000Y-30851589D01*
X171704775Y-30584011D01*
X171600371Y-30331957D01*
X171448799Y-30105114D01*
X171255886Y-29912201D01*
X171029043Y-29760629D01*
X170776989Y-29656225D01*
X170509411Y-29603000D01*
X170236589Y-29603000D01*
X169969011Y-29656225D01*
X169716957Y-29760629D01*
X169490114Y-29912201D01*
X169297201Y-30105114D01*
X169145629Y-30331957D01*
X169041225Y-30584011D01*
X168988000Y-30851589D01*
X164758000Y-30851589D01*
X164704775Y-30584011D01*
X164600371Y-30331957D01*
X164448799Y-30105114D01*
X164255886Y-29912201D01*
X164029043Y-29760629D01*
X163776989Y-29656225D01*
X163509411Y-29603000D01*
X163236589Y-29603000D01*
X162969011Y-29656225D01*
X162716957Y-29760629D01*
X162490114Y-29912201D01*
X162458000Y-29944315D01*
X162458000Y-23520000D01*
X180442001Y-23520000D01*
X180442001Y-26406728D01*
M02*
