G04 #@! TF.GenerationSoftware,KiCad,Pcbnew,(5.1.5)-3*
G04 #@! TF.CreationDate,2020-12-21T12:20:19+01:00*
G04 #@! TF.ProjectId,epimetheus_bme280,6570696d-6574-4686-9575-735f626d6532,rev?*
G04 #@! TF.SameCoordinates,Original*
G04 #@! TF.FileFunction,Copper,L1,Top*
G04 #@! TF.FilePolarity,Positive*
%FSLAX46Y46*%
G04 Gerber Fmt 4.6, Leading zero omitted, Abs format (unit mm)*
G04 Created by KiCad (PCBNEW (5.1.5)-3) date 2020-12-21 12:20:19*
%MOMM*%
%LPD*%
G04 APERTURE LIST*
%ADD10O,1.700000X1.700000*%
%ADD11R,1.700000X1.700000*%
%ADD12C,1.524000*%
%ADD13C,0.100000*%
%ADD14C,0.800000*%
%ADD15C,0.250000*%
%ADD16C,0.254000*%
G04 APERTURE END LIST*
D10*
X170942000Y-35052000D03*
D11*
X170942000Y-37592000D03*
D12*
X179832000Y-24638000D03*
X179832000Y-27178000D03*
X179832000Y-29718000D03*
X179832000Y-32258000D03*
X179832000Y-34798000D03*
X179832000Y-37338000D03*
G04 #@! TA.AperFunction,SMDPad,CuDef*
D13*
G36*
X165302405Y-24817445D02*
G01*
X165331527Y-24821764D01*
X165360085Y-24828918D01*
X165387805Y-24838836D01*
X165414419Y-24851424D01*
X165439671Y-24866559D01*
X165463318Y-24884097D01*
X165485132Y-24903868D01*
X165504903Y-24925682D01*
X165522441Y-24949329D01*
X165537576Y-24974581D01*
X165550164Y-25001195D01*
X165560082Y-25028915D01*
X165567236Y-25057473D01*
X165571555Y-25086595D01*
X165573000Y-25116000D01*
X165573000Y-27716000D01*
X165571555Y-27745405D01*
X165567236Y-27774527D01*
X165560082Y-27803085D01*
X165550164Y-27830805D01*
X165537576Y-27857419D01*
X165522441Y-27882671D01*
X165504903Y-27906318D01*
X165485132Y-27928132D01*
X165463318Y-27947903D01*
X165439671Y-27965441D01*
X165414419Y-27980576D01*
X165387805Y-27993164D01*
X165360085Y-28003082D01*
X165331527Y-28010236D01*
X165302405Y-28014555D01*
X165273000Y-28016000D01*
X164673000Y-28016000D01*
X164643595Y-28014555D01*
X164614473Y-28010236D01*
X164585915Y-28003082D01*
X164558195Y-27993164D01*
X164531581Y-27980576D01*
X164506329Y-27965441D01*
X164482682Y-27947903D01*
X164460868Y-27928132D01*
X164441097Y-27906318D01*
X164423559Y-27882671D01*
X164408424Y-27857419D01*
X164395836Y-27830805D01*
X164385918Y-27803085D01*
X164378764Y-27774527D01*
X164374445Y-27745405D01*
X164373000Y-27716000D01*
X164373000Y-25116000D01*
X164374445Y-25086595D01*
X164378764Y-25057473D01*
X164385918Y-25028915D01*
X164395836Y-25001195D01*
X164408424Y-24974581D01*
X164423559Y-24949329D01*
X164441097Y-24925682D01*
X164460868Y-24903868D01*
X164482682Y-24884097D01*
X164506329Y-24866559D01*
X164531581Y-24851424D01*
X164558195Y-24838836D01*
X164585915Y-24828918D01*
X164614473Y-24821764D01*
X164643595Y-24817445D01*
X164673000Y-24816000D01*
X165273000Y-24816000D01*
X165302405Y-24817445D01*
G37*
G04 #@! TD.AperFunction*
G04 #@! TA.AperFunction,SMDPad,CuDef*
G36*
X168302405Y-24817445D02*
G01*
X168331527Y-24821764D01*
X168360085Y-24828918D01*
X168387805Y-24838836D01*
X168414419Y-24851424D01*
X168439671Y-24866559D01*
X168463318Y-24884097D01*
X168485132Y-24903868D01*
X168504903Y-24925682D01*
X168522441Y-24949329D01*
X168537576Y-24974581D01*
X168550164Y-25001195D01*
X168560082Y-25028915D01*
X168567236Y-25057473D01*
X168571555Y-25086595D01*
X168573000Y-25116000D01*
X168573000Y-27716000D01*
X168571555Y-27745405D01*
X168567236Y-27774527D01*
X168560082Y-27803085D01*
X168550164Y-27830805D01*
X168537576Y-27857419D01*
X168522441Y-27882671D01*
X168504903Y-27906318D01*
X168485132Y-27928132D01*
X168463318Y-27947903D01*
X168439671Y-27965441D01*
X168414419Y-27980576D01*
X168387805Y-27993164D01*
X168360085Y-28003082D01*
X168331527Y-28010236D01*
X168302405Y-28014555D01*
X168273000Y-28016000D01*
X167673000Y-28016000D01*
X167643595Y-28014555D01*
X167614473Y-28010236D01*
X167585915Y-28003082D01*
X167558195Y-27993164D01*
X167531581Y-27980576D01*
X167506329Y-27965441D01*
X167482682Y-27947903D01*
X167460868Y-27928132D01*
X167441097Y-27906318D01*
X167423559Y-27882671D01*
X167408424Y-27857419D01*
X167395836Y-27830805D01*
X167385918Y-27803085D01*
X167378764Y-27774527D01*
X167374445Y-27745405D01*
X167373000Y-27716000D01*
X167373000Y-25116000D01*
X167374445Y-25086595D01*
X167378764Y-25057473D01*
X167385918Y-25028915D01*
X167395836Y-25001195D01*
X167408424Y-24974581D01*
X167423559Y-24949329D01*
X167441097Y-24925682D01*
X167460868Y-24903868D01*
X167482682Y-24884097D01*
X167506329Y-24866559D01*
X167531581Y-24851424D01*
X167558195Y-24838836D01*
X167585915Y-24828918D01*
X167614473Y-24821764D01*
X167643595Y-24817445D01*
X167673000Y-24816000D01*
X168273000Y-24816000D01*
X168302405Y-24817445D01*
G37*
G04 #@! TD.AperFunction*
G04 #@! TA.AperFunction,SMDPad,CuDef*
G36*
X172287405Y-24817445D02*
G01*
X172316527Y-24821764D01*
X172345085Y-24828918D01*
X172372805Y-24838836D01*
X172399419Y-24851424D01*
X172424671Y-24866559D01*
X172448318Y-24884097D01*
X172470132Y-24903868D01*
X172489903Y-24925682D01*
X172507441Y-24949329D01*
X172522576Y-24974581D01*
X172535164Y-25001195D01*
X172545082Y-25028915D01*
X172552236Y-25057473D01*
X172556555Y-25086595D01*
X172558000Y-25116000D01*
X172558000Y-27716000D01*
X172556555Y-27745405D01*
X172552236Y-27774527D01*
X172545082Y-27803085D01*
X172535164Y-27830805D01*
X172522576Y-27857419D01*
X172507441Y-27882671D01*
X172489903Y-27906318D01*
X172470132Y-27928132D01*
X172448318Y-27947903D01*
X172424671Y-27965441D01*
X172399419Y-27980576D01*
X172372805Y-27993164D01*
X172345085Y-28003082D01*
X172316527Y-28010236D01*
X172287405Y-28014555D01*
X172258000Y-28016000D01*
X171658000Y-28016000D01*
X171628595Y-28014555D01*
X171599473Y-28010236D01*
X171570915Y-28003082D01*
X171543195Y-27993164D01*
X171516581Y-27980576D01*
X171491329Y-27965441D01*
X171467682Y-27947903D01*
X171445868Y-27928132D01*
X171426097Y-27906318D01*
X171408559Y-27882671D01*
X171393424Y-27857419D01*
X171380836Y-27830805D01*
X171370918Y-27803085D01*
X171363764Y-27774527D01*
X171359445Y-27745405D01*
X171358000Y-27716000D01*
X171358000Y-25116000D01*
X171359445Y-25086595D01*
X171363764Y-25057473D01*
X171370918Y-25028915D01*
X171380836Y-25001195D01*
X171393424Y-24974581D01*
X171408559Y-24949329D01*
X171426097Y-24925682D01*
X171445868Y-24903868D01*
X171467682Y-24884097D01*
X171491329Y-24866559D01*
X171516581Y-24851424D01*
X171543195Y-24838836D01*
X171570915Y-24828918D01*
X171599473Y-24821764D01*
X171628595Y-24817445D01*
X171658000Y-24816000D01*
X172258000Y-24816000D01*
X172287405Y-24817445D01*
G37*
G04 #@! TD.AperFunction*
G04 #@! TA.AperFunction,SMDPad,CuDef*
G36*
X173402405Y-33961445D02*
G01*
X173431527Y-33965764D01*
X173460085Y-33972918D01*
X173487805Y-33982836D01*
X173514419Y-33995424D01*
X173539671Y-34010559D01*
X173563318Y-34028097D01*
X173585132Y-34047868D01*
X173604903Y-34069682D01*
X173622441Y-34093329D01*
X173637576Y-34118581D01*
X173650164Y-34145195D01*
X173660082Y-34172915D01*
X173667236Y-34201473D01*
X173671555Y-34230595D01*
X173673000Y-34260000D01*
X173673000Y-36860000D01*
X173671555Y-36889405D01*
X173667236Y-36918527D01*
X173660082Y-36947085D01*
X173650164Y-36974805D01*
X173637576Y-37001419D01*
X173622441Y-37026671D01*
X173604903Y-37050318D01*
X173585132Y-37072132D01*
X173563318Y-37091903D01*
X173539671Y-37109441D01*
X173514419Y-37124576D01*
X173487805Y-37137164D01*
X173460085Y-37147082D01*
X173431527Y-37154236D01*
X173402405Y-37158555D01*
X173373000Y-37160000D01*
X172773000Y-37160000D01*
X172743595Y-37158555D01*
X172714473Y-37154236D01*
X172685915Y-37147082D01*
X172658195Y-37137164D01*
X172631581Y-37124576D01*
X172606329Y-37109441D01*
X172582682Y-37091903D01*
X172560868Y-37072132D01*
X172541097Y-37050318D01*
X172523559Y-37026671D01*
X172508424Y-37001419D01*
X172495836Y-36974805D01*
X172485918Y-36947085D01*
X172478764Y-36918527D01*
X172474445Y-36889405D01*
X172473000Y-36860000D01*
X172473000Y-34260000D01*
X172474445Y-34230595D01*
X172478764Y-34201473D01*
X172485918Y-34172915D01*
X172495836Y-34145195D01*
X172508424Y-34118581D01*
X172523559Y-34093329D01*
X172541097Y-34069682D01*
X172560868Y-34047868D01*
X172582682Y-34028097D01*
X172606329Y-34010559D01*
X172631581Y-33995424D01*
X172658195Y-33982836D01*
X172685915Y-33972918D01*
X172714473Y-33965764D01*
X172743595Y-33961445D01*
X172773000Y-33960000D01*
X173373000Y-33960000D01*
X173402405Y-33961445D01*
G37*
G04 #@! TD.AperFunction*
D14*
X173228000Y-34544000D03*
X173228000Y-32258000D03*
X170180000Y-28448000D03*
X167894000Y-30734000D03*
D15*
X172828001Y-31858001D02*
X173228000Y-32258000D01*
X170882999Y-29912999D02*
X172828001Y-31858001D01*
X168469999Y-29912999D02*
X170882999Y-29912999D01*
X164973000Y-26416000D02*
X168469999Y-29912999D01*
X178054000Y-30480000D02*
X179832000Y-32258000D01*
X168573000Y-26416000D02*
X171367000Y-23622000D01*
X172720000Y-23622000D02*
X178054000Y-28956000D01*
X167973000Y-26416000D02*
X168573000Y-26416000D01*
X171367000Y-23622000D02*
X172720000Y-23622000D01*
X178054000Y-28956000D02*
X178054000Y-30480000D01*
X170180000Y-28448000D02*
X171958000Y-28448000D01*
X171958000Y-26416000D02*
X171958000Y-28448000D01*
X179070001Y-36576001D02*
X179832000Y-37338000D01*
X171958000Y-29464000D02*
X179070001Y-36576001D01*
X171958000Y-26416000D02*
X171958000Y-29464000D01*
X167894000Y-32004000D02*
X170942000Y-35052000D01*
X167894000Y-30734000D02*
X167894000Y-32004000D01*
D16*
G36*
X168988000Y-30851589D02*
G01*
X168988000Y-31124411D01*
X169041225Y-31391989D01*
X169145629Y-31644043D01*
X169297201Y-31870886D01*
X169490114Y-32063799D01*
X169716957Y-32215371D01*
X169969011Y-32319775D01*
X170236589Y-32373000D01*
X170509411Y-32373000D01*
X170776989Y-32319775D01*
X171029043Y-32215371D01*
X171255886Y-32063799D01*
X171448799Y-31870886D01*
X171575886Y-31680687D01*
X172193000Y-32297802D01*
X172193000Y-32359939D01*
X172232774Y-32559898D01*
X172310795Y-32748256D01*
X172424063Y-32917774D01*
X172568226Y-33061937D01*
X172737744Y-33175205D01*
X172926102Y-33253226D01*
X173126061Y-33293000D01*
X173329939Y-33293000D01*
X173529898Y-33253226D01*
X173718256Y-33175205D01*
X173887774Y-33061937D01*
X174031937Y-32917774D01*
X174145205Y-32748256D01*
X174151722Y-32732523D01*
X178465628Y-37046430D01*
X178435000Y-37200408D01*
X178435000Y-37475592D01*
X178488686Y-37745490D01*
X178593995Y-37999727D01*
X178729150Y-38202000D01*
X172430072Y-38202000D01*
X172430072Y-37793844D01*
X172473000Y-37798072D01*
X172787250Y-37795000D01*
X172946000Y-37636250D01*
X172946000Y-35687000D01*
X173200000Y-35687000D01*
X173200000Y-37636250D01*
X173358750Y-37795000D01*
X173673000Y-37798072D01*
X173797482Y-37785812D01*
X173917180Y-37749502D01*
X174027494Y-37690537D01*
X174124185Y-37611185D01*
X174203537Y-37514494D01*
X174262502Y-37404180D01*
X174298812Y-37284482D01*
X174311072Y-37160000D01*
X174308000Y-35845750D01*
X174149250Y-35687000D01*
X173200000Y-35687000D01*
X172946000Y-35687000D01*
X172926000Y-35687000D01*
X172926000Y-35433000D01*
X172946000Y-35433000D01*
X172946000Y-33483750D01*
X173200000Y-33483750D01*
X173200000Y-35433000D01*
X174149250Y-35433000D01*
X174308000Y-35274250D01*
X174311072Y-33960000D01*
X174298812Y-33835518D01*
X174262502Y-33715820D01*
X174203537Y-33605506D01*
X174124185Y-33508815D01*
X174027494Y-33429463D01*
X173917180Y-33370498D01*
X173797482Y-33334188D01*
X173673000Y-33321928D01*
X173358750Y-33325000D01*
X173200000Y-33483750D01*
X172946000Y-33483750D01*
X172787250Y-33325000D01*
X172473000Y-33321928D01*
X172348518Y-33334188D01*
X172228820Y-33370498D01*
X172118506Y-33429463D01*
X172021815Y-33508815D01*
X171942463Y-33605506D01*
X171883498Y-33715820D01*
X171847188Y-33835518D01*
X171843925Y-33868653D01*
X171645411Y-33736010D01*
X171375158Y-33624068D01*
X171088260Y-33567000D01*
X170795740Y-33567000D01*
X170575592Y-33610790D01*
X168654000Y-31689199D01*
X168654000Y-31437711D01*
X168697937Y-31393774D01*
X168811205Y-31224256D01*
X168889226Y-31035898D01*
X168929000Y-30835939D01*
X168929000Y-30672999D01*
X169023524Y-30672999D01*
X168988000Y-30851589D01*
G37*
X168988000Y-30851589D02*
X168988000Y-31124411D01*
X169041225Y-31391989D01*
X169145629Y-31644043D01*
X169297201Y-31870886D01*
X169490114Y-32063799D01*
X169716957Y-32215371D01*
X169969011Y-32319775D01*
X170236589Y-32373000D01*
X170509411Y-32373000D01*
X170776989Y-32319775D01*
X171029043Y-32215371D01*
X171255886Y-32063799D01*
X171448799Y-31870886D01*
X171575886Y-31680687D01*
X172193000Y-32297802D01*
X172193000Y-32359939D01*
X172232774Y-32559898D01*
X172310795Y-32748256D01*
X172424063Y-32917774D01*
X172568226Y-33061937D01*
X172737744Y-33175205D01*
X172926102Y-33253226D01*
X173126061Y-33293000D01*
X173329939Y-33293000D01*
X173529898Y-33253226D01*
X173718256Y-33175205D01*
X173887774Y-33061937D01*
X174031937Y-32917774D01*
X174145205Y-32748256D01*
X174151722Y-32732523D01*
X178465628Y-37046430D01*
X178435000Y-37200408D01*
X178435000Y-37475592D01*
X178488686Y-37745490D01*
X178593995Y-37999727D01*
X178729150Y-38202000D01*
X172430072Y-38202000D01*
X172430072Y-37793844D01*
X172473000Y-37798072D01*
X172787250Y-37795000D01*
X172946000Y-37636250D01*
X172946000Y-35687000D01*
X173200000Y-35687000D01*
X173200000Y-37636250D01*
X173358750Y-37795000D01*
X173673000Y-37798072D01*
X173797482Y-37785812D01*
X173917180Y-37749502D01*
X174027494Y-37690537D01*
X174124185Y-37611185D01*
X174203537Y-37514494D01*
X174262502Y-37404180D01*
X174298812Y-37284482D01*
X174311072Y-37160000D01*
X174308000Y-35845750D01*
X174149250Y-35687000D01*
X173200000Y-35687000D01*
X172946000Y-35687000D01*
X172926000Y-35687000D01*
X172926000Y-35433000D01*
X172946000Y-35433000D01*
X172946000Y-33483750D01*
X173200000Y-33483750D01*
X173200000Y-35433000D01*
X174149250Y-35433000D01*
X174308000Y-35274250D01*
X174311072Y-33960000D01*
X174298812Y-33835518D01*
X174262502Y-33715820D01*
X174203537Y-33605506D01*
X174124185Y-33508815D01*
X174027494Y-33429463D01*
X173917180Y-33370498D01*
X173797482Y-33334188D01*
X173673000Y-33321928D01*
X173358750Y-33325000D01*
X173200000Y-33483750D01*
X172946000Y-33483750D01*
X172787250Y-33325000D01*
X172473000Y-33321928D01*
X172348518Y-33334188D01*
X172228820Y-33370498D01*
X172118506Y-33429463D01*
X172021815Y-33508815D01*
X171942463Y-33605506D01*
X171883498Y-33715820D01*
X171847188Y-33835518D01*
X171843925Y-33868653D01*
X171645411Y-33736010D01*
X171375158Y-33624068D01*
X171088260Y-33567000D01*
X170795740Y-33567000D01*
X170575592Y-33610790D01*
X168654000Y-31689199D01*
X168654000Y-31437711D01*
X168697937Y-31393774D01*
X168811205Y-31224256D01*
X168889226Y-31035898D01*
X168929000Y-30835939D01*
X168929000Y-30672999D01*
X169023524Y-30672999D01*
X168988000Y-30851589D01*
G36*
X177294000Y-29270802D02*
G01*
X177294001Y-30442668D01*
X177290324Y-30480000D01*
X177304998Y-30628985D01*
X177348454Y-30772246D01*
X177419026Y-30904276D01*
X177490201Y-30991002D01*
X177514000Y-31020001D01*
X177542998Y-31043799D01*
X178465628Y-31966430D01*
X178435000Y-32120408D01*
X178435000Y-32395592D01*
X178488686Y-32665490D01*
X178593995Y-32919727D01*
X178746880Y-33148535D01*
X178941465Y-33343120D01*
X179170273Y-33496005D01*
X179241943Y-33525692D01*
X179228977Y-33530364D01*
X179113020Y-33592344D01*
X179046040Y-33832435D01*
X179832000Y-34618395D01*
X179846143Y-34604253D01*
X180025748Y-34783858D01*
X180011605Y-34798000D01*
X180025748Y-34812143D01*
X179846143Y-34991748D01*
X179832000Y-34977605D01*
X179817858Y-34991748D01*
X179638253Y-34812143D01*
X179652395Y-34798000D01*
X178866435Y-34012040D01*
X178626344Y-34079020D01*
X178509244Y-34328048D01*
X178442977Y-34595135D01*
X178430481Y-34861679D01*
X172718000Y-29149199D01*
X172718000Y-28528672D01*
X172779165Y-28495978D01*
X172921317Y-28379317D01*
X173037978Y-28237165D01*
X173124666Y-28074985D01*
X173178047Y-27899009D01*
X173196072Y-27716000D01*
X173196072Y-25172873D01*
X177294000Y-29270802D01*
G37*
X177294000Y-29270802D02*
X177294001Y-30442668D01*
X177290324Y-30480000D01*
X177304998Y-30628985D01*
X177348454Y-30772246D01*
X177419026Y-30904276D01*
X177490201Y-30991002D01*
X177514000Y-31020001D01*
X177542998Y-31043799D01*
X178465628Y-31966430D01*
X178435000Y-32120408D01*
X178435000Y-32395592D01*
X178488686Y-32665490D01*
X178593995Y-32919727D01*
X178746880Y-33148535D01*
X178941465Y-33343120D01*
X179170273Y-33496005D01*
X179241943Y-33525692D01*
X179228977Y-33530364D01*
X179113020Y-33592344D01*
X179046040Y-33832435D01*
X179832000Y-34618395D01*
X179846143Y-34604253D01*
X180025748Y-34783858D01*
X180011605Y-34798000D01*
X180025748Y-34812143D01*
X179846143Y-34991748D01*
X179832000Y-34977605D01*
X179817858Y-34991748D01*
X179638253Y-34812143D01*
X179652395Y-34798000D01*
X178866435Y-34012040D01*
X178626344Y-34079020D01*
X178509244Y-34328048D01*
X178442977Y-34595135D01*
X178430481Y-34861679D01*
X172718000Y-29149199D01*
X172718000Y-28528672D01*
X172779165Y-28495978D01*
X172921317Y-28379317D01*
X173037978Y-28237165D01*
X173124666Y-28074985D01*
X173178047Y-27899009D01*
X173196072Y-27716000D01*
X173196072Y-25172873D01*
X177294000Y-29270802D01*
M02*
