G04 #@! TF.GenerationSoftware,KiCad,Pcbnew,(5.1.5)-3*
G04 #@! TF.CreationDate,2020-12-21T12:20:19+01:00*
G04 #@! TF.ProjectId,epimetheus_bme280,6570696d-6574-4686-9575-735f626d6532,rev?*
G04 #@! TF.SameCoordinates,Original*
G04 #@! TF.FileFunction,Legend,Top*
G04 #@! TF.FilePolarity,Positive*
%FSLAX46Y46*%
G04 Gerber Fmt 4.6, Leading zero omitted, Abs format (unit mm)*
G04 Created by KiCad (PCBNEW (5.1.5)-3) date 2020-12-21 12:20:19*
%MOMM*%
%LPD*%
G04 APERTURE LIST*
%ADD10C,0.150000*%
%ADD11C,0.120000*%
G04 APERTURE END LIST*
D10*
X162465047Y-23550571D02*
X162607904Y-23598190D01*
X162655523Y-23645809D01*
X162703142Y-23741047D01*
X162703142Y-23883904D01*
X162655523Y-23979142D01*
X162607904Y-24026761D01*
X162512666Y-24074380D01*
X162131714Y-24074380D01*
X162131714Y-23074380D01*
X162465047Y-23074380D01*
X162560285Y-23122000D01*
X162607904Y-23169619D01*
X162655523Y-23264857D01*
X162655523Y-23360095D01*
X162607904Y-23455333D01*
X162560285Y-23502952D01*
X162465047Y-23550571D01*
X162131714Y-23550571D01*
X163131714Y-24074380D02*
X163131714Y-23074380D01*
X163465047Y-23788666D01*
X163798380Y-23074380D01*
X163798380Y-24074380D01*
X164274571Y-23550571D02*
X164607904Y-23550571D01*
X164750761Y-24074380D02*
X164274571Y-24074380D01*
X164274571Y-23074380D01*
X164750761Y-23074380D01*
X165131714Y-23169619D02*
X165179333Y-23122000D01*
X165274571Y-23074380D01*
X165512666Y-23074380D01*
X165607904Y-23122000D01*
X165655523Y-23169619D01*
X165703142Y-23264857D01*
X165703142Y-23360095D01*
X165655523Y-23502952D01*
X165084095Y-24074380D01*
X165703142Y-24074380D01*
X166274571Y-23502952D02*
X166179333Y-23455333D01*
X166131714Y-23407714D01*
X166084095Y-23312476D01*
X166084095Y-23264857D01*
X166131714Y-23169619D01*
X166179333Y-23122000D01*
X166274571Y-23074380D01*
X166465047Y-23074380D01*
X166560285Y-23122000D01*
X166607904Y-23169619D01*
X166655523Y-23264857D01*
X166655523Y-23312476D01*
X166607904Y-23407714D01*
X166560285Y-23455333D01*
X166465047Y-23502952D01*
X166274571Y-23502952D01*
X166179333Y-23550571D01*
X166131714Y-23598190D01*
X166084095Y-23693428D01*
X166084095Y-23883904D01*
X166131714Y-23979142D01*
X166179333Y-24026761D01*
X166274571Y-24074380D01*
X166465047Y-24074380D01*
X166560285Y-24026761D01*
X166607904Y-23979142D01*
X166655523Y-23883904D01*
X166655523Y-23693428D01*
X166607904Y-23598190D01*
X166560285Y-23550571D01*
X166465047Y-23502952D01*
X167274571Y-23074380D02*
X167369809Y-23074380D01*
X167465047Y-23122000D01*
X167512666Y-23169619D01*
X167560285Y-23264857D01*
X167607904Y-23455333D01*
X167607904Y-23693428D01*
X167560285Y-23883904D01*
X167512666Y-23979142D01*
X167465047Y-24026761D01*
X167369809Y-24074380D01*
X167274571Y-24074380D01*
X167179333Y-24026761D01*
X167131714Y-23979142D01*
X167084095Y-23883904D01*
X167036476Y-23693428D01*
X167036476Y-23455333D01*
X167084095Y-23264857D01*
X167131714Y-23169619D01*
X167179333Y-23122000D01*
X167274571Y-23074380D01*
D11*
X180848000Y-38608000D02*
X180848000Y-23114000D01*
X168910000Y-38608000D02*
X180848000Y-38608000D01*
X168910000Y-23114000D02*
X168910000Y-38608000D01*
X180848000Y-23114000D02*
X168910000Y-23114000D01*
X162052000Y-27888000D02*
X162052000Y-34088000D01*
X173873000Y-34088000D02*
X173873000Y-27888000D01*
X162052000Y-27888000D02*
X164148000Y-27888000D01*
X165798000Y-27888000D02*
X167148000Y-27888000D01*
X168798000Y-27888000D02*
X171198000Y-27888000D01*
X172748000Y-27888000D02*
X173873000Y-27888000D01*
X172298000Y-34088000D02*
X162052000Y-34088000D01*
D10*
X175014095Y-25042761D02*
X175156952Y-25090380D01*
X175395047Y-25090380D01*
X175490285Y-25042761D01*
X175537904Y-24995142D01*
X175585523Y-24899904D01*
X175585523Y-24804666D01*
X175537904Y-24709428D01*
X175490285Y-24661809D01*
X175395047Y-24614190D01*
X175204571Y-24566571D01*
X175109333Y-24518952D01*
X175061714Y-24471333D01*
X175014095Y-24376095D01*
X175014095Y-24280857D01*
X175061714Y-24185619D01*
X175109333Y-24138000D01*
X175204571Y-24090380D01*
X175442666Y-24090380D01*
X175585523Y-24138000D01*
X176014095Y-25090380D02*
X176014095Y-24090380D01*
X176252190Y-24090380D01*
X176395047Y-24138000D01*
X176490285Y-24233238D01*
X176537904Y-24328476D01*
X176585523Y-24518952D01*
X176585523Y-24661809D01*
X176537904Y-24852285D01*
X176490285Y-24947523D01*
X176395047Y-25042761D01*
X176252190Y-25090380D01*
X176014095Y-25090380D01*
X177204571Y-24090380D02*
X177299809Y-24090380D01*
X177395047Y-24138000D01*
X177442666Y-24185619D01*
X177490285Y-24280857D01*
X177537904Y-24471333D01*
X177537904Y-24709428D01*
X177490285Y-24899904D01*
X177442666Y-24995142D01*
X177395047Y-25042761D01*
X177299809Y-25090380D01*
X177204571Y-25090380D01*
X177109333Y-25042761D01*
X177061714Y-24995142D01*
X177014095Y-24899904D01*
X176966476Y-24709428D01*
X176966476Y-24471333D01*
X177014095Y-24280857D01*
X177061714Y-24185619D01*
X177109333Y-24138000D01*
X177204571Y-24090380D01*
X175609333Y-27535142D02*
X175561714Y-27582761D01*
X175418857Y-27630380D01*
X175323619Y-27630380D01*
X175180761Y-27582761D01*
X175085523Y-27487523D01*
X175037904Y-27392285D01*
X174990285Y-27201809D01*
X174990285Y-27058952D01*
X175037904Y-26868476D01*
X175085523Y-26773238D01*
X175180761Y-26678000D01*
X175323619Y-26630380D01*
X175418857Y-26630380D01*
X175561714Y-26678000D01*
X175609333Y-26725619D01*
X175990285Y-27582761D02*
X176133142Y-27630380D01*
X176371238Y-27630380D01*
X176466476Y-27582761D01*
X176514095Y-27535142D01*
X176561714Y-27439904D01*
X176561714Y-27344666D01*
X176514095Y-27249428D01*
X176466476Y-27201809D01*
X176371238Y-27154190D01*
X176180761Y-27106571D01*
X176085523Y-27058952D01*
X176037904Y-27011333D01*
X175990285Y-26916095D01*
X175990285Y-26820857D01*
X176037904Y-26725619D01*
X176085523Y-26678000D01*
X176180761Y-26630380D01*
X176418857Y-26630380D01*
X176561714Y-26678000D01*
X177323619Y-27106571D02*
X177466476Y-27154190D01*
X177514095Y-27201809D01*
X177561714Y-27297047D01*
X177561714Y-27439904D01*
X177514095Y-27535142D01*
X177466476Y-27582761D01*
X177371238Y-27630380D01*
X176990285Y-27630380D01*
X176990285Y-26630380D01*
X177323619Y-26630380D01*
X177418857Y-26678000D01*
X177466476Y-26725619D01*
X177514095Y-26820857D01*
X177514095Y-26916095D01*
X177466476Y-27011333D01*
X177418857Y-27058952D01*
X177323619Y-27106571D01*
X176990285Y-27106571D01*
X175061714Y-30122761D02*
X175204571Y-30170380D01*
X175442666Y-30170380D01*
X175537904Y-30122761D01*
X175585523Y-30075142D01*
X175633142Y-29979904D01*
X175633142Y-29884666D01*
X175585523Y-29789428D01*
X175537904Y-29741809D01*
X175442666Y-29694190D01*
X175252190Y-29646571D01*
X175156952Y-29598952D01*
X175109333Y-29551333D01*
X175061714Y-29456095D01*
X175061714Y-29360857D01*
X175109333Y-29265619D01*
X175156952Y-29218000D01*
X175252190Y-29170380D01*
X175490285Y-29170380D01*
X175633142Y-29218000D01*
X176061714Y-30170380D02*
X176061714Y-29170380D01*
X176299809Y-29170380D01*
X176442666Y-29218000D01*
X176537904Y-29313238D01*
X176585523Y-29408476D01*
X176633142Y-29598952D01*
X176633142Y-29741809D01*
X176585523Y-29932285D01*
X176537904Y-30027523D01*
X176442666Y-30122761D01*
X176299809Y-30170380D01*
X176061714Y-30170380D01*
X177014095Y-29884666D02*
X177490285Y-29884666D01*
X176918857Y-30170380D02*
X177252190Y-29170380D01*
X177585523Y-30170380D01*
X175085523Y-32662761D02*
X175228380Y-32710380D01*
X175466476Y-32710380D01*
X175561714Y-32662761D01*
X175609333Y-32615142D01*
X175656952Y-32519904D01*
X175656952Y-32424666D01*
X175609333Y-32329428D01*
X175561714Y-32281809D01*
X175466476Y-32234190D01*
X175276000Y-32186571D01*
X175180761Y-32138952D01*
X175133142Y-32091333D01*
X175085523Y-31996095D01*
X175085523Y-31900857D01*
X175133142Y-31805619D01*
X175180761Y-31758000D01*
X175276000Y-31710380D01*
X175514095Y-31710380D01*
X175656952Y-31758000D01*
X176656952Y-32615142D02*
X176609333Y-32662761D01*
X176466476Y-32710380D01*
X176371238Y-32710380D01*
X176228380Y-32662761D01*
X176133142Y-32567523D01*
X176085523Y-32472285D01*
X176037904Y-32281809D01*
X176037904Y-32138952D01*
X176085523Y-31948476D01*
X176133142Y-31853238D01*
X176228380Y-31758000D01*
X176371238Y-31710380D01*
X176466476Y-31710380D01*
X176609333Y-31758000D01*
X176656952Y-31805619D01*
X177561714Y-32710380D02*
X177085523Y-32710380D01*
X177085523Y-31710380D01*
X175514095Y-34298000D02*
X175418857Y-34250380D01*
X175276000Y-34250380D01*
X175133142Y-34298000D01*
X175037904Y-34393238D01*
X174990285Y-34488476D01*
X174942666Y-34678952D01*
X174942666Y-34821809D01*
X174990285Y-35012285D01*
X175037904Y-35107523D01*
X175133142Y-35202761D01*
X175276000Y-35250380D01*
X175371238Y-35250380D01*
X175514095Y-35202761D01*
X175561714Y-35155142D01*
X175561714Y-34821809D01*
X175371238Y-34821809D01*
X175990285Y-35250380D02*
X175990285Y-34250380D01*
X176561714Y-35250380D01*
X176561714Y-34250380D01*
X177037904Y-35250380D02*
X177037904Y-34250380D01*
X177276000Y-34250380D01*
X177418857Y-34298000D01*
X177514095Y-34393238D01*
X177561714Y-34488476D01*
X177609333Y-34678952D01*
X177609333Y-34821809D01*
X177561714Y-35012285D01*
X177514095Y-35107523D01*
X177418857Y-35202761D01*
X177276000Y-35250380D01*
X177037904Y-35250380D01*
X174942666Y-36790380D02*
X175276000Y-37790380D01*
X175609333Y-36790380D01*
X176514095Y-37695142D02*
X176466476Y-37742761D01*
X176323619Y-37790380D01*
X176228380Y-37790380D01*
X176085523Y-37742761D01*
X175990285Y-37647523D01*
X175942666Y-37552285D01*
X175895047Y-37361809D01*
X175895047Y-37218952D01*
X175942666Y-37028476D01*
X175990285Y-36933238D01*
X176085523Y-36838000D01*
X176228380Y-36790380D01*
X176323619Y-36790380D01*
X176466476Y-36838000D01*
X176514095Y-36885619D01*
X177514095Y-37695142D02*
X177466476Y-37742761D01*
X177323619Y-37790380D01*
X177228380Y-37790380D01*
X177085523Y-37742761D01*
X176990285Y-37647523D01*
X176942666Y-37552285D01*
X176895047Y-37361809D01*
X176895047Y-37218952D01*
X176942666Y-37028476D01*
X176990285Y-36933238D01*
X177085523Y-36838000D01*
X177228380Y-36790380D01*
X177323619Y-36790380D01*
X177466476Y-36838000D01*
X177514095Y-36885619D01*
M02*
