G04 #@! TF.GenerationSoftware,KiCad,Pcbnew,(5.1.5)-3*
G04 #@! TF.CreationDate,2020-12-21T12:20:19+01:00*
G04 #@! TF.ProjectId,epimetheus_bme280,6570696d-6574-4686-9575-735f626d6532,rev?*
G04 #@! TF.SameCoordinates,Original*
G04 #@! TF.FileFunction,Legend,Bot*
G04 #@! TF.FilePolarity,Positive*
%FSLAX46Y46*%
G04 Gerber Fmt 4.6, Leading zero omitted, Abs format (unit mm)*
G04 Created by KiCad (PCBNEW (5.1.5)-3) date 2020-12-21 12:20:19*
%MOMM*%
%LPD*%
G04 APERTURE LIST*
%ADD10C,0.150000*%
%ADD11C,0.010000*%
G04 APERTURE END LIST*
D10*
X165234761Y-37552380D02*
X165139523Y-37552380D01*
X165044285Y-37600000D01*
X164996666Y-37647619D01*
X164949047Y-37742857D01*
X164901428Y-37933333D01*
X164901428Y-38171428D01*
X164949047Y-38361904D01*
X164996666Y-38457142D01*
X165044285Y-38504761D01*
X165139523Y-38552380D01*
X165234761Y-38552380D01*
X165330000Y-38504761D01*
X165377619Y-38457142D01*
X165425238Y-38361904D01*
X165472857Y-38171428D01*
X165472857Y-37933333D01*
X165425238Y-37742857D01*
X165377619Y-37647619D01*
X165330000Y-37600000D01*
X165234761Y-37552380D01*
X164568095Y-38552380D02*
X164044285Y-37885714D01*
X164568095Y-37885714D02*
X164044285Y-38552380D01*
X163758571Y-37552380D02*
X163091904Y-37552380D01*
X163520476Y-38552380D01*
X162806190Y-37552380D02*
X162139523Y-37552380D01*
X162568095Y-38552380D01*
X171838761Y-23328380D02*
X171743523Y-23328380D01*
X171648285Y-23376000D01*
X171600666Y-23423619D01*
X171553047Y-23518857D01*
X171505428Y-23709333D01*
X171505428Y-23947428D01*
X171553047Y-24137904D01*
X171600666Y-24233142D01*
X171648285Y-24280761D01*
X171743523Y-24328380D01*
X171838761Y-24328380D01*
X171934000Y-24280761D01*
X171981619Y-24233142D01*
X172029238Y-24137904D01*
X172076857Y-23947428D01*
X172076857Y-23709333D01*
X172029238Y-23518857D01*
X171981619Y-23423619D01*
X171934000Y-23376000D01*
X171838761Y-23328380D01*
X171172095Y-24328380D02*
X170648285Y-23661714D01*
X171172095Y-23661714D02*
X170648285Y-24328380D01*
X170362571Y-23328380D02*
X169695904Y-23328380D01*
X170124476Y-24328380D01*
X168886380Y-23328380D02*
X169076857Y-23328380D01*
X169172095Y-23376000D01*
X169219714Y-23423619D01*
X169314952Y-23566476D01*
X169362571Y-23756952D01*
X169362571Y-24137904D01*
X169314952Y-24233142D01*
X169267333Y-24280761D01*
X169172095Y-24328380D01*
X168981619Y-24328380D01*
X168886380Y-24280761D01*
X168838761Y-24233142D01*
X168791142Y-24137904D01*
X168791142Y-23899809D01*
X168838761Y-23804571D01*
X168886380Y-23756952D01*
X168981619Y-23709333D01*
X169172095Y-23709333D01*
X169267333Y-23756952D01*
X169314952Y-23804571D01*
X169362571Y-23899809D01*
X177894952Y-23804571D02*
X177752095Y-23852190D01*
X177704476Y-23899809D01*
X177656857Y-23995047D01*
X177656857Y-24137904D01*
X177704476Y-24233142D01*
X177752095Y-24280761D01*
X177847333Y-24328380D01*
X178228285Y-24328380D01*
X178228285Y-23328380D01*
X177894952Y-23328380D01*
X177799714Y-23376000D01*
X177752095Y-23423619D01*
X177704476Y-23518857D01*
X177704476Y-23614095D01*
X177752095Y-23709333D01*
X177799714Y-23756952D01*
X177894952Y-23804571D01*
X178228285Y-23804571D01*
X177228285Y-24328380D02*
X177228285Y-23328380D01*
X176894952Y-24042666D01*
X176561619Y-23328380D01*
X176561619Y-24328380D01*
X176085428Y-23804571D02*
X175752095Y-23804571D01*
X175609238Y-24328380D02*
X176085428Y-24328380D01*
X176085428Y-23328380D01*
X175609238Y-23328380D01*
X175228285Y-23423619D02*
X175180666Y-23376000D01*
X175085428Y-23328380D01*
X174847333Y-23328380D01*
X174752095Y-23376000D01*
X174704476Y-23423619D01*
X174656857Y-23518857D01*
X174656857Y-23614095D01*
X174704476Y-23756952D01*
X175275904Y-24328380D01*
X174656857Y-24328380D01*
X174085428Y-23756952D02*
X174180666Y-23709333D01*
X174228285Y-23661714D01*
X174275904Y-23566476D01*
X174275904Y-23518857D01*
X174228285Y-23423619D01*
X174180666Y-23376000D01*
X174085428Y-23328380D01*
X173894952Y-23328380D01*
X173799714Y-23376000D01*
X173752095Y-23423619D01*
X173704476Y-23518857D01*
X173704476Y-23566476D01*
X173752095Y-23661714D01*
X173799714Y-23709333D01*
X173894952Y-23756952D01*
X174085428Y-23756952D01*
X174180666Y-23804571D01*
X174228285Y-23852190D01*
X174275904Y-23947428D01*
X174275904Y-24137904D01*
X174228285Y-24233142D01*
X174180666Y-24280761D01*
X174085428Y-24328380D01*
X173894952Y-24328380D01*
X173799714Y-24280761D01*
X173752095Y-24233142D01*
X173704476Y-24137904D01*
X173704476Y-23947428D01*
X173752095Y-23852190D01*
X173799714Y-23804571D01*
X173894952Y-23756952D01*
X173085428Y-23328380D02*
X172990190Y-23328380D01*
X172894952Y-23376000D01*
X172847333Y-23423619D01*
X172799714Y-23518857D01*
X172752095Y-23709333D01*
X172752095Y-23947428D01*
X172799714Y-24137904D01*
X172847333Y-24233142D01*
X172894952Y-24280761D01*
X172990190Y-24328380D01*
X173085428Y-24328380D01*
X173180666Y-24280761D01*
X173228285Y-24233142D01*
X173275904Y-24137904D01*
X173323523Y-23947428D01*
X173323523Y-23709333D01*
X173275904Y-23518857D01*
X173228285Y-23423619D01*
X173180666Y-23376000D01*
X173085428Y-23328380D01*
D11*
G36*
X177387278Y-27085198D02*
G01*
X177368200Y-27101799D01*
X177352297Y-27120269D01*
X177340104Y-27144136D01*
X177331132Y-27179851D01*
X177324888Y-27233867D01*
X177320884Y-27312635D01*
X177318629Y-27422607D01*
X177317631Y-27570237D01*
X177317401Y-27761974D01*
X177317400Y-27770010D01*
X177317400Y-28387420D01*
X177206925Y-28465291D01*
X177094498Y-28571343D01*
X177022829Y-28695894D01*
X176989801Y-28830851D01*
X176993301Y-28968125D01*
X177031212Y-29099623D01*
X177101421Y-29217255D01*
X177201812Y-29312930D01*
X177330270Y-29378557D01*
X177452301Y-29404030D01*
X177548653Y-29401142D01*
X177645008Y-29381409D01*
X177656359Y-29377500D01*
X177786676Y-29305094D01*
X177884212Y-29202390D01*
X177948428Y-29078347D01*
X177978782Y-28941925D01*
X177974735Y-28802084D01*
X177935746Y-28667783D01*
X177861274Y-28547984D01*
X177750781Y-28451645D01*
X177713488Y-28430185D01*
X177639676Y-28391797D01*
X177656614Y-27788675D01*
X177661804Y-27598163D01*
X177665067Y-27451716D01*
X177666043Y-27342624D01*
X177664373Y-27264176D01*
X177659697Y-27209663D01*
X177651653Y-27172373D01*
X177639883Y-27145596D01*
X177624026Y-27122622D01*
X177620633Y-27118276D01*
X177549967Y-27063999D01*
X177466981Y-27052634D01*
X177387278Y-27085198D01*
G37*
X177387278Y-27085198D02*
X177368200Y-27101799D01*
X177352297Y-27120269D01*
X177340104Y-27144136D01*
X177331132Y-27179851D01*
X177324888Y-27233867D01*
X177320884Y-27312635D01*
X177318629Y-27422607D01*
X177317631Y-27570237D01*
X177317401Y-27761974D01*
X177317400Y-27770010D01*
X177317400Y-28387420D01*
X177206925Y-28465291D01*
X177094498Y-28571343D01*
X177022829Y-28695894D01*
X176989801Y-28830851D01*
X176993301Y-28968125D01*
X177031212Y-29099623D01*
X177101421Y-29217255D01*
X177201812Y-29312930D01*
X177330270Y-29378557D01*
X177452301Y-29404030D01*
X177548653Y-29401142D01*
X177645008Y-29381409D01*
X177656359Y-29377500D01*
X177786676Y-29305094D01*
X177884212Y-29202390D01*
X177948428Y-29078347D01*
X177978782Y-28941925D01*
X177974735Y-28802084D01*
X177935746Y-28667783D01*
X177861274Y-28547984D01*
X177750781Y-28451645D01*
X177713488Y-28430185D01*
X177639676Y-28391797D01*
X177656614Y-27788675D01*
X177661804Y-27598163D01*
X177665067Y-27451716D01*
X177666043Y-27342624D01*
X177664373Y-27264176D01*
X177659697Y-27209663D01*
X177651653Y-27172373D01*
X177639883Y-27145596D01*
X177624026Y-27122622D01*
X177620633Y-27118276D01*
X177549967Y-27063999D01*
X177466981Y-27052634D01*
X177387278Y-27085198D01*
G36*
X175907637Y-28461873D02*
G01*
X175867696Y-28507651D01*
X175847912Y-28591571D01*
X175844200Y-28676600D01*
X175849212Y-28762274D01*
X175861948Y-28832990D01*
X175870494Y-28856069D01*
X175916619Y-28895499D01*
X175982054Y-28902430D01*
X176046248Y-28875852D01*
X176058286Y-28865285D01*
X176087658Y-28802917D01*
X176098170Y-28693465D01*
X176098200Y-28685815D01*
X176091213Y-28569127D01*
X176067910Y-28495029D01*
X176024785Y-28456952D01*
X175971200Y-28448000D01*
X175907637Y-28461873D01*
G37*
X175907637Y-28461873D02*
X175867696Y-28507651D01*
X175847912Y-28591571D01*
X175844200Y-28676600D01*
X175849212Y-28762274D01*
X175861948Y-28832990D01*
X175870494Y-28856069D01*
X175916619Y-28895499D01*
X175982054Y-28902430D01*
X176046248Y-28875852D01*
X176058286Y-28865285D01*
X176087658Y-28802917D01*
X176098170Y-28693465D01*
X176098200Y-28685815D01*
X176091213Y-28569127D01*
X176067910Y-28495029D01*
X176024785Y-28456952D01*
X175971200Y-28448000D01*
X175907637Y-28461873D01*
G36*
X175035334Y-29174773D02*
G01*
X174997237Y-29205650D01*
X174971430Y-29261779D01*
X174957270Y-29347612D01*
X174955624Y-29443206D01*
X174967361Y-29528623D01*
X174981494Y-29567269D01*
X175026322Y-29604251D01*
X175092879Y-29616367D01*
X175157405Y-29601373D01*
X175178721Y-29585920D01*
X175198965Y-29538537D01*
X175208811Y-29459671D01*
X175208701Y-29367468D01*
X175199077Y-29280072D01*
X175180383Y-29215632D01*
X175169286Y-29199114D01*
X175103542Y-29162549D01*
X175035334Y-29174773D01*
G37*
X175035334Y-29174773D02*
X174997237Y-29205650D01*
X174971430Y-29261779D01*
X174957270Y-29347612D01*
X174955624Y-29443206D01*
X174967361Y-29528623D01*
X174981494Y-29567269D01*
X175026322Y-29604251D01*
X175092879Y-29616367D01*
X175157405Y-29601373D01*
X175178721Y-29585920D01*
X175198965Y-29538537D01*
X175208811Y-29459671D01*
X175208701Y-29367468D01*
X175199077Y-29280072D01*
X175180383Y-29215632D01*
X175169286Y-29199114D01*
X175103542Y-29162549D01*
X175035334Y-29174773D01*
G36*
X176488186Y-25443571D02*
G01*
X176398361Y-25496908D01*
X176341388Y-25577980D01*
X176319980Y-25673727D01*
X176336854Y-25771089D01*
X176394722Y-25857005D01*
X176401047Y-25862854D01*
X176495515Y-25920321D01*
X176595585Y-25927552D01*
X176688112Y-25893806D01*
X176765629Y-25828742D01*
X176804190Y-25746941D01*
X176807816Y-25665694D01*
X176725403Y-25665694D01*
X176713816Y-25738191D01*
X176666339Y-25801711D01*
X176631179Y-25824535D01*
X176575889Y-25849869D01*
X176538575Y-25850785D01*
X176495323Y-25824320D01*
X176469926Y-25804556D01*
X176415618Y-25736512D01*
X176403782Y-25662088D01*
X176429789Y-25593937D01*
X176489011Y-25544711D01*
X176571452Y-25527000D01*
X176651558Y-25546832D01*
X176703762Y-25597486D01*
X176725403Y-25665694D01*
X176807816Y-25665694D01*
X176808151Y-25658211D01*
X176781868Y-25572362D01*
X176729697Y-25499203D01*
X176655992Y-25448544D01*
X176565111Y-25430193D01*
X176488186Y-25443571D01*
G37*
X176488186Y-25443571D02*
X176398361Y-25496908D01*
X176341388Y-25577980D01*
X176319980Y-25673727D01*
X176336854Y-25771089D01*
X176394722Y-25857005D01*
X176401047Y-25862854D01*
X176495515Y-25920321D01*
X176595585Y-25927552D01*
X176688112Y-25893806D01*
X176765629Y-25828742D01*
X176804190Y-25746941D01*
X176807816Y-25665694D01*
X176725403Y-25665694D01*
X176713816Y-25738191D01*
X176666339Y-25801711D01*
X176631179Y-25824535D01*
X176575889Y-25849869D01*
X176538575Y-25850785D01*
X176495323Y-25824320D01*
X176469926Y-25804556D01*
X176415618Y-25736512D01*
X176403782Y-25662088D01*
X176429789Y-25593937D01*
X176489011Y-25544711D01*
X176571452Y-25527000D01*
X176651558Y-25546832D01*
X176703762Y-25597486D01*
X176725403Y-25665694D01*
X176807816Y-25665694D01*
X176808151Y-25658211D01*
X176781868Y-25572362D01*
X176729697Y-25499203D01*
X176655992Y-25448544D01*
X176565111Y-25430193D01*
X176488186Y-25443571D01*
G36*
X170438088Y-25724129D02*
G01*
X170383903Y-25874512D01*
X170336147Y-26008688D01*
X170297377Y-26119341D01*
X170270146Y-26199156D01*
X170257011Y-26240820D01*
X170256200Y-26244829D01*
X170277818Y-26259364D01*
X170314776Y-26263600D01*
X170351238Y-26255209D01*
X170380685Y-26222969D01*
X170411151Y-26156279D01*
X170425433Y-26117550D01*
X170477515Y-25971500D01*
X170934535Y-25956992D01*
X170990432Y-26110296D01*
X171024425Y-26195553D01*
X171053010Y-26242363D01*
X171084226Y-26261267D01*
X171107338Y-26263600D01*
X171145366Y-26260762D01*
X171156377Y-26243106D01*
X171144224Y-26196918D01*
X171134087Y-26168350D01*
X171109839Y-26101532D01*
X171074056Y-26003681D01*
X171030330Y-25884538D01*
X171016346Y-25846523D01*
X170891200Y-25846523D01*
X170867874Y-25851631D01*
X170806179Y-25855408D01*
X170718543Y-25857154D01*
X170701071Y-25857200D01*
X170510942Y-25857200D01*
X170557846Y-25736550D01*
X170594718Y-25637448D01*
X170633882Y-25525939D01*
X170649175Y-25480268D01*
X170676252Y-25410725D01*
X170700654Y-25370209D01*
X170713848Y-25365968D01*
X170728596Y-25395499D01*
X170754967Y-25459893D01*
X170788096Y-25545963D01*
X170823115Y-25640524D01*
X170855159Y-25730390D01*
X170879361Y-25802374D01*
X170890855Y-25843290D01*
X170891200Y-25846523D01*
X171016346Y-25846523D01*
X170982252Y-25753847D01*
X170933414Y-25621350D01*
X170887407Y-25496789D01*
X170847823Y-25389907D01*
X170818252Y-25310447D01*
X170802286Y-25268151D01*
X170801698Y-25266650D01*
X170760867Y-25230511D01*
X170702070Y-25222200D01*
X170619975Y-25222200D01*
X170438088Y-25724129D01*
G37*
X170438088Y-25724129D02*
X170383903Y-25874512D01*
X170336147Y-26008688D01*
X170297377Y-26119341D01*
X170270146Y-26199156D01*
X170257011Y-26240820D01*
X170256200Y-26244829D01*
X170277818Y-26259364D01*
X170314776Y-26263600D01*
X170351238Y-26255209D01*
X170380685Y-26222969D01*
X170411151Y-26156279D01*
X170425433Y-26117550D01*
X170477515Y-25971500D01*
X170934535Y-25956992D01*
X170990432Y-26110296D01*
X171024425Y-26195553D01*
X171053010Y-26242363D01*
X171084226Y-26261267D01*
X171107338Y-26263600D01*
X171145366Y-26260762D01*
X171156377Y-26243106D01*
X171144224Y-26196918D01*
X171134087Y-26168350D01*
X171109839Y-26101532D01*
X171074056Y-26003681D01*
X171030330Y-25884538D01*
X171016346Y-25846523D01*
X170891200Y-25846523D01*
X170867874Y-25851631D01*
X170806179Y-25855408D01*
X170718543Y-25857154D01*
X170701071Y-25857200D01*
X170510942Y-25857200D01*
X170557846Y-25736550D01*
X170594718Y-25637448D01*
X170633882Y-25525939D01*
X170649175Y-25480268D01*
X170676252Y-25410725D01*
X170700654Y-25370209D01*
X170713848Y-25365968D01*
X170728596Y-25395499D01*
X170754967Y-25459893D01*
X170788096Y-25545963D01*
X170823115Y-25640524D01*
X170855159Y-25730390D01*
X170879361Y-25802374D01*
X170890855Y-25843290D01*
X170891200Y-25846523D01*
X171016346Y-25846523D01*
X170982252Y-25753847D01*
X170933414Y-25621350D01*
X170887407Y-25496789D01*
X170847823Y-25389907D01*
X170818252Y-25310447D01*
X170802286Y-25268151D01*
X170801698Y-25266650D01*
X170760867Y-25230511D01*
X170702070Y-25222200D01*
X170619975Y-25222200D01*
X170438088Y-25724129D01*
G36*
X171658001Y-25227914D02*
G01*
X171492162Y-25245249D01*
X171370743Y-25277898D01*
X171288779Y-25329274D01*
X171241302Y-25402790D01*
X171223348Y-25501860D01*
X171222865Y-25527000D01*
X171241493Y-25659417D01*
X171296988Y-25757532D01*
X171390084Y-25821997D01*
X171521519Y-25853460D01*
X171596050Y-25857032D01*
X171754800Y-25857200D01*
X171754800Y-26060400D01*
X171755477Y-26161178D01*
X171759667Y-26221523D01*
X171770608Y-26251797D01*
X171791539Y-26262367D01*
X171818300Y-26263600D01*
X171881800Y-26263600D01*
X171881800Y-25755600D01*
X171754800Y-25755600D01*
X171618526Y-25755600D01*
X171512716Y-25747079D01*
X171437531Y-25718451D01*
X171415326Y-25702956D01*
X171364299Y-25633281D01*
X171346257Y-25541533D01*
X171363982Y-25446490D01*
X171374099Y-25424841D01*
X171420104Y-25383477D01*
X171501403Y-25349592D01*
X171602540Y-25328415D01*
X171672250Y-25323941D01*
X171754800Y-25323800D01*
X171754800Y-25755600D01*
X171881800Y-25755600D01*
X171881800Y-25215153D01*
X171658001Y-25227914D01*
G37*
X171658001Y-25227914D02*
X171492162Y-25245249D01*
X171370743Y-25277898D01*
X171288779Y-25329274D01*
X171241302Y-25402790D01*
X171223348Y-25501860D01*
X171222865Y-25527000D01*
X171241493Y-25659417D01*
X171296988Y-25757532D01*
X171390084Y-25821997D01*
X171521519Y-25853460D01*
X171596050Y-25857032D01*
X171754800Y-25857200D01*
X171754800Y-26060400D01*
X171755477Y-26161178D01*
X171759667Y-26221523D01*
X171770608Y-26251797D01*
X171791539Y-26262367D01*
X171818300Y-26263600D01*
X171881800Y-26263600D01*
X171881800Y-25755600D01*
X171754800Y-25755600D01*
X171618526Y-25755600D01*
X171512716Y-25747079D01*
X171437531Y-25718451D01*
X171415326Y-25702956D01*
X171364299Y-25633281D01*
X171346257Y-25541533D01*
X171363982Y-25446490D01*
X171374099Y-25424841D01*
X171420104Y-25383477D01*
X171501403Y-25349592D01*
X171602540Y-25328415D01*
X171672250Y-25323941D01*
X171754800Y-25323800D01*
X171754800Y-25755600D01*
X171881800Y-25755600D01*
X171881800Y-25215153D01*
X171658001Y-25227914D01*
G36*
X172700377Y-25199180D02*
G01*
X172681442Y-25213463D01*
X172672319Y-25250358D01*
X172669430Y-25320578D01*
X172669200Y-25386926D01*
X172669200Y-25577053D01*
X172586650Y-25526721D01*
X172501118Y-25492284D01*
X172403338Y-25478287D01*
X172313640Y-25485851D01*
X172260599Y-25508757D01*
X172220112Y-25548386D01*
X172191946Y-25600657D01*
X172174091Y-25674636D01*
X172164537Y-25779391D01*
X172161275Y-25923985D01*
X172161200Y-25957130D01*
X172161694Y-26086205D01*
X172164102Y-26172879D01*
X172169817Y-26225548D01*
X172180230Y-26252607D01*
X172196732Y-26262453D01*
X172212000Y-26263600D01*
X172235862Y-26259873D01*
X172250811Y-26242332D01*
X172258908Y-26201436D01*
X172262216Y-26127645D01*
X172262800Y-26028482D01*
X172268860Y-25849918D01*
X172288484Y-25718082D01*
X172323843Y-25630195D01*
X172377106Y-25583479D01*
X172450445Y-25575157D01*
X172546028Y-25602450D01*
X172582812Y-25618794D01*
X172669200Y-25659788D01*
X172669200Y-26263600D01*
X172796200Y-26263600D01*
X172796200Y-25196800D01*
X172732700Y-25196800D01*
X172700377Y-25199180D01*
G37*
X172700377Y-25199180D02*
X172681442Y-25213463D01*
X172672319Y-25250358D01*
X172669430Y-25320578D01*
X172669200Y-25386926D01*
X172669200Y-25577053D01*
X172586650Y-25526721D01*
X172501118Y-25492284D01*
X172403338Y-25478287D01*
X172313640Y-25485851D01*
X172260599Y-25508757D01*
X172220112Y-25548386D01*
X172191946Y-25600657D01*
X172174091Y-25674636D01*
X172164537Y-25779391D01*
X172161275Y-25923985D01*
X172161200Y-25957130D01*
X172161694Y-26086205D01*
X172164102Y-26172879D01*
X172169817Y-26225548D01*
X172180230Y-26252607D01*
X172196732Y-26262453D01*
X172212000Y-26263600D01*
X172235862Y-26259873D01*
X172250811Y-26242332D01*
X172258908Y-26201436D01*
X172262216Y-26127645D01*
X172262800Y-26028482D01*
X172268860Y-25849918D01*
X172288484Y-25718082D01*
X172323843Y-25630195D01*
X172377106Y-25583479D01*
X172450445Y-25575157D01*
X172546028Y-25602450D01*
X172582812Y-25618794D01*
X172669200Y-25659788D01*
X172669200Y-26263600D01*
X172796200Y-26263600D01*
X172796200Y-25196800D01*
X172732700Y-25196800D01*
X172700377Y-25199180D01*
G36*
X175272700Y-25453435D02*
G01*
X175131654Y-25515679D01*
X175016612Y-25614118D01*
X174955155Y-25704889D01*
X174924855Y-25771029D01*
X174925389Y-25807395D01*
X174962536Y-25828403D01*
X175009646Y-25840793D01*
X175061333Y-25844898D01*
X175085963Y-25816923D01*
X175091263Y-25799151D01*
X175118528Y-25745201D01*
X175168469Y-25682276D01*
X175184535Y-25665996D01*
X175230580Y-25626155D01*
X175275303Y-25603468D01*
X175335163Y-25593178D01*
X175426615Y-25590532D01*
X175445818Y-25590500D01*
X175589793Y-25601913D01*
X175697189Y-25639614D01*
X175777641Y-25708797D01*
X175833659Y-25799549D01*
X175865571Y-25898498D01*
X175885252Y-26027481D01*
X175891450Y-26166931D01*
X175882911Y-26297282D01*
X175869817Y-26364395D01*
X175812398Y-26488844D01*
X175719658Y-26589343D01*
X175602593Y-26658756D01*
X175472195Y-26689949D01*
X175376208Y-26684733D01*
X175274012Y-26644185D01*
X175176676Y-26569767D01*
X175101903Y-26476761D01*
X175078377Y-26427690D01*
X175052394Y-26370717D01*
X175021786Y-26351834D01*
X174982112Y-26356742D01*
X174917623Y-26375829D01*
X174894078Y-26401820D01*
X174903895Y-26450305D01*
X174918675Y-26487208D01*
X175002940Y-26627973D01*
X175120691Y-26732127D01*
X175267565Y-26796943D01*
X175439198Y-26819694D01*
X175450500Y-26819658D01*
X175546835Y-26815151D01*
X175633122Y-26805274D01*
X175674402Y-26796571D01*
X175798464Y-26734081D01*
X175903290Y-26631893D01*
X175985512Y-26498569D01*
X176041762Y-26342670D01*
X176068673Y-26172755D01*
X176062877Y-25997387D01*
X176037131Y-25874500D01*
X175966916Y-25717452D01*
X175860619Y-25590393D01*
X175725953Y-25497572D01*
X175570631Y-25443238D01*
X175402366Y-25431639D01*
X175272700Y-25453435D01*
G37*
X175272700Y-25453435D02*
X175131654Y-25515679D01*
X175016612Y-25614118D01*
X174955155Y-25704889D01*
X174924855Y-25771029D01*
X174925389Y-25807395D01*
X174962536Y-25828403D01*
X175009646Y-25840793D01*
X175061333Y-25844898D01*
X175085963Y-25816923D01*
X175091263Y-25799151D01*
X175118528Y-25745201D01*
X175168469Y-25682276D01*
X175184535Y-25665996D01*
X175230580Y-25626155D01*
X175275303Y-25603468D01*
X175335163Y-25593178D01*
X175426615Y-25590532D01*
X175445818Y-25590500D01*
X175589793Y-25601913D01*
X175697189Y-25639614D01*
X175777641Y-25708797D01*
X175833659Y-25799549D01*
X175865571Y-25898498D01*
X175885252Y-26027481D01*
X175891450Y-26166931D01*
X175882911Y-26297282D01*
X175869817Y-26364395D01*
X175812398Y-26488844D01*
X175719658Y-26589343D01*
X175602593Y-26658756D01*
X175472195Y-26689949D01*
X175376208Y-26684733D01*
X175274012Y-26644185D01*
X175176676Y-26569767D01*
X175101903Y-26476761D01*
X175078377Y-26427690D01*
X175052394Y-26370717D01*
X175021786Y-26351834D01*
X174982112Y-26356742D01*
X174917623Y-26375829D01*
X174894078Y-26401820D01*
X174903895Y-26450305D01*
X174918675Y-26487208D01*
X175002940Y-26627973D01*
X175120691Y-26732127D01*
X175267565Y-26796943D01*
X175439198Y-26819694D01*
X175450500Y-26819658D01*
X175546835Y-26815151D01*
X175633122Y-26805274D01*
X175674402Y-26796571D01*
X175798464Y-26734081D01*
X175903290Y-26631893D01*
X175985512Y-26498569D01*
X176041762Y-26342670D01*
X176068673Y-26172755D01*
X176062877Y-25997387D01*
X176037131Y-25874500D01*
X175966916Y-25717452D01*
X175860619Y-25590393D01*
X175725953Y-25497572D01*
X175570631Y-25443238D01*
X175402366Y-25431639D01*
X175272700Y-25453435D01*
G36*
X177367449Y-25418036D02*
G01*
X177229617Y-25472958D01*
X177116754Y-25557631D01*
X177078562Y-25594956D01*
X177046728Y-25628821D01*
X177020592Y-25664050D01*
X176999497Y-25705466D01*
X176982785Y-25757892D01*
X176969797Y-25826151D01*
X176959874Y-25915066D01*
X176952360Y-26029460D01*
X176946594Y-26174156D01*
X176941920Y-26353977D01*
X176937678Y-26573747D01*
X176933210Y-26838287D01*
X176931992Y-26911300D01*
X176927754Y-27147479D01*
X176923212Y-27370111D01*
X176918523Y-27573594D01*
X176913838Y-27752326D01*
X176909311Y-27900704D01*
X176905098Y-28013128D01*
X176901350Y-28083993D01*
X176899240Y-28105100D01*
X176882083Y-28158939D01*
X176846742Y-28244603D01*
X176798851Y-28349045D01*
X176758399Y-28431237D01*
X176700798Y-28548005D01*
X176663673Y-28634543D01*
X176642672Y-28704940D01*
X176633442Y-28773285D01*
X176631600Y-28841724D01*
X176653179Y-29055624D01*
X176714713Y-29258916D01*
X176811398Y-29443521D01*
X176938429Y-29601361D01*
X177091001Y-29724356D01*
X177186882Y-29775478D01*
X177312002Y-29813975D01*
X177459016Y-29833989D01*
X177606038Y-29834129D01*
X177731182Y-29813009D01*
X177739134Y-29810510D01*
X177914046Y-29727373D01*
X178065756Y-29603583D01*
X178190142Y-29445570D01*
X178283078Y-29259763D01*
X178340440Y-29052593D01*
X178357786Y-28850684D01*
X178104800Y-28850684D01*
X178104800Y-28851842D01*
X178084551Y-29043394D01*
X178026671Y-29217546D01*
X177935464Y-29366329D01*
X177815231Y-29481776D01*
X177740049Y-29527303D01*
X177599408Y-29579016D01*
X177462640Y-29586931D01*
X177339205Y-29561521D01*
X177202132Y-29495069D01*
X177083195Y-29387706D01*
X176988119Y-29247781D01*
X176922629Y-29083643D01*
X176892874Y-28910566D01*
X176889082Y-28833025D01*
X176892115Y-28771820D01*
X176905790Y-28713235D01*
X176933921Y-28643555D01*
X176980325Y-28549065D01*
X177008951Y-28493310D01*
X177063734Y-28379763D01*
X177109930Y-28270444D01*
X177141525Y-28180340D01*
X177151599Y-28137710D01*
X177155270Y-28089554D01*
X177159470Y-27996472D01*
X177164038Y-27864331D01*
X177168810Y-27699001D01*
X177173624Y-27506349D01*
X177178319Y-27292245D01*
X177182731Y-27062557D01*
X177185034Y-26928375D01*
X177203100Y-25827851D01*
X177297977Y-25740925D01*
X177399937Y-25672992D01*
X177502100Y-25653515D01*
X177599969Y-25683129D01*
X177619232Y-25695419D01*
X177649062Y-25717880D01*
X177673944Y-25742829D01*
X177694325Y-25774809D01*
X177710654Y-25818363D01*
X177723379Y-25878036D01*
X177732948Y-25958370D01*
X177739810Y-26063910D01*
X177744412Y-26199199D01*
X177747203Y-26368780D01*
X177748631Y-26577198D01*
X177749145Y-26828994D01*
X177749200Y-27012899D01*
X177749174Y-27289188D01*
X177749537Y-27519754D01*
X177750955Y-27709671D01*
X177754092Y-27864015D01*
X177759612Y-27987861D01*
X177768182Y-28086286D01*
X177780465Y-28164365D01*
X177797127Y-28227173D01*
X177818831Y-28279785D01*
X177846243Y-28327278D01*
X177880027Y-28374726D01*
X177920849Y-28427205D01*
X177937155Y-28448000D01*
X178013267Y-28548493D01*
X178062165Y-28624743D01*
X178089773Y-28691016D01*
X178102011Y-28761575D01*
X178104800Y-28850684D01*
X178357786Y-28850684D01*
X178358243Y-28845374D01*
X178349824Y-28711350D01*
X178321677Y-28593878D01*
X178268104Y-28478673D01*
X178183409Y-28351450D01*
X178137205Y-28291019D01*
X178015900Y-28136662D01*
X177990500Y-25793700D01*
X177927000Y-25681670D01*
X177867205Y-25595800D01*
X177793759Y-25515377D01*
X177769250Y-25493888D01*
X177648282Y-25427424D01*
X177510676Y-25402499D01*
X177367449Y-25418036D01*
G37*
X177367449Y-25418036D02*
X177229617Y-25472958D01*
X177116754Y-25557631D01*
X177078562Y-25594956D01*
X177046728Y-25628821D01*
X177020592Y-25664050D01*
X176999497Y-25705466D01*
X176982785Y-25757892D01*
X176969797Y-25826151D01*
X176959874Y-25915066D01*
X176952360Y-26029460D01*
X176946594Y-26174156D01*
X176941920Y-26353977D01*
X176937678Y-26573747D01*
X176933210Y-26838287D01*
X176931992Y-26911300D01*
X176927754Y-27147479D01*
X176923212Y-27370111D01*
X176918523Y-27573594D01*
X176913838Y-27752326D01*
X176909311Y-27900704D01*
X176905098Y-28013128D01*
X176901350Y-28083993D01*
X176899240Y-28105100D01*
X176882083Y-28158939D01*
X176846742Y-28244603D01*
X176798851Y-28349045D01*
X176758399Y-28431237D01*
X176700798Y-28548005D01*
X176663673Y-28634543D01*
X176642672Y-28704940D01*
X176633442Y-28773285D01*
X176631600Y-28841724D01*
X176653179Y-29055624D01*
X176714713Y-29258916D01*
X176811398Y-29443521D01*
X176938429Y-29601361D01*
X177091001Y-29724356D01*
X177186882Y-29775478D01*
X177312002Y-29813975D01*
X177459016Y-29833989D01*
X177606038Y-29834129D01*
X177731182Y-29813009D01*
X177739134Y-29810510D01*
X177914046Y-29727373D01*
X178065756Y-29603583D01*
X178190142Y-29445570D01*
X178283078Y-29259763D01*
X178340440Y-29052593D01*
X178357786Y-28850684D01*
X178104800Y-28850684D01*
X178104800Y-28851842D01*
X178084551Y-29043394D01*
X178026671Y-29217546D01*
X177935464Y-29366329D01*
X177815231Y-29481776D01*
X177740049Y-29527303D01*
X177599408Y-29579016D01*
X177462640Y-29586931D01*
X177339205Y-29561521D01*
X177202132Y-29495069D01*
X177083195Y-29387706D01*
X176988119Y-29247781D01*
X176922629Y-29083643D01*
X176892874Y-28910566D01*
X176889082Y-28833025D01*
X176892115Y-28771820D01*
X176905790Y-28713235D01*
X176933921Y-28643555D01*
X176980325Y-28549065D01*
X177008951Y-28493310D01*
X177063734Y-28379763D01*
X177109930Y-28270444D01*
X177141525Y-28180340D01*
X177151599Y-28137710D01*
X177155270Y-28089554D01*
X177159470Y-27996472D01*
X177164038Y-27864331D01*
X177168810Y-27699001D01*
X177173624Y-27506349D01*
X177178319Y-27292245D01*
X177182731Y-27062557D01*
X177185034Y-26928375D01*
X177203100Y-25827851D01*
X177297977Y-25740925D01*
X177399937Y-25672992D01*
X177502100Y-25653515D01*
X177599969Y-25683129D01*
X177619232Y-25695419D01*
X177649062Y-25717880D01*
X177673944Y-25742829D01*
X177694325Y-25774809D01*
X177710654Y-25818363D01*
X177723379Y-25878036D01*
X177732948Y-25958370D01*
X177739810Y-26063910D01*
X177744412Y-26199199D01*
X177747203Y-26368780D01*
X177748631Y-26577198D01*
X177749145Y-26828994D01*
X177749200Y-27012899D01*
X177749174Y-27289188D01*
X177749537Y-27519754D01*
X177750955Y-27709671D01*
X177754092Y-27864015D01*
X177759612Y-27987861D01*
X177768182Y-28086286D01*
X177780465Y-28164365D01*
X177797127Y-28227173D01*
X177818831Y-28279785D01*
X177846243Y-28327278D01*
X177880027Y-28374726D01*
X177920849Y-28427205D01*
X177937155Y-28448000D01*
X178013267Y-28548493D01*
X178062165Y-28624743D01*
X178089773Y-28691016D01*
X178102011Y-28761575D01*
X178104800Y-28850684D01*
X178357786Y-28850684D01*
X178358243Y-28845374D01*
X178349824Y-28711350D01*
X178321677Y-28593878D01*
X178268104Y-28478673D01*
X178183409Y-28351450D01*
X178137205Y-28291019D01*
X178015900Y-28136662D01*
X177990500Y-25793700D01*
X177927000Y-25681670D01*
X177867205Y-25595800D01*
X177793759Y-25515377D01*
X177769250Y-25493888D01*
X177648282Y-25427424D01*
X177510676Y-25402499D01*
X177367449Y-25418036D01*
G36*
X171559542Y-27743017D02*
G01*
X171528080Y-27762997D01*
X171526200Y-27772708D01*
X171523067Y-27805117D01*
X171514130Y-27882273D01*
X171500085Y-27998540D01*
X171481629Y-28148284D01*
X171459457Y-28325869D01*
X171434266Y-28525658D01*
X171406751Y-28742018D01*
X171399200Y-28801084D01*
X171371143Y-29021609D01*
X171345235Y-29227687D01*
X171322174Y-29413568D01*
X171302661Y-29573506D01*
X171287396Y-29701753D01*
X171277077Y-29792559D01*
X171272404Y-29840178D01*
X171272200Y-29844676D01*
X171274616Y-29864249D01*
X171286875Y-29878066D01*
X171316493Y-29887124D01*
X171370988Y-29892425D01*
X171457876Y-29894968D01*
X171584674Y-29895753D01*
X171656524Y-29895800D01*
X172040847Y-29895800D01*
X172028321Y-29813250D01*
X172022165Y-29770278D01*
X172009951Y-29682935D01*
X172003449Y-29636074D01*
X171796602Y-29636074D01*
X171786431Y-29656940D01*
X171749986Y-29665471D01*
X171676286Y-29667188D01*
X171652566Y-29667200D01*
X171572376Y-29663921D01*
X171517372Y-29655403D01*
X171500800Y-29645633D01*
X171503991Y-29614773D01*
X171512873Y-29541748D01*
X171526409Y-29434746D01*
X171543562Y-29301954D01*
X171563298Y-29151562D01*
X171564300Y-29143983D01*
X171584196Y-28991739D01*
X171601540Y-28855543D01*
X171615287Y-28743902D01*
X171624387Y-28665323D01*
X171627796Y-28628314D01*
X171627800Y-28627916D01*
X171634788Y-28603093D01*
X171640885Y-28605018D01*
X171648363Y-28633214D01*
X171661137Y-28703535D01*
X171677878Y-28807739D01*
X171697258Y-28937583D01*
X171716302Y-29072801D01*
X171737206Y-29223991D01*
X171756613Y-29361971D01*
X171773144Y-29477103D01*
X171785416Y-29559753D01*
X171791483Y-29597350D01*
X171796602Y-29636074D01*
X172003449Y-29636074D01*
X171992501Y-29557179D01*
X171970640Y-29398973D01*
X171945191Y-29214274D01*
X171916976Y-29009044D01*
X171886819Y-28789243D01*
X171879214Y-28733750D01*
X171742634Y-27736800D01*
X171634417Y-27736800D01*
X171559542Y-27743017D01*
G37*
X171559542Y-27743017D02*
X171528080Y-27762997D01*
X171526200Y-27772708D01*
X171523067Y-27805117D01*
X171514130Y-27882273D01*
X171500085Y-27998540D01*
X171481629Y-28148284D01*
X171459457Y-28325869D01*
X171434266Y-28525658D01*
X171406751Y-28742018D01*
X171399200Y-28801084D01*
X171371143Y-29021609D01*
X171345235Y-29227687D01*
X171322174Y-29413568D01*
X171302661Y-29573506D01*
X171287396Y-29701753D01*
X171277077Y-29792559D01*
X171272404Y-29840178D01*
X171272200Y-29844676D01*
X171274616Y-29864249D01*
X171286875Y-29878066D01*
X171316493Y-29887124D01*
X171370988Y-29892425D01*
X171457876Y-29894968D01*
X171584674Y-29895753D01*
X171656524Y-29895800D01*
X172040847Y-29895800D01*
X172028321Y-29813250D01*
X172022165Y-29770278D01*
X172009951Y-29682935D01*
X172003449Y-29636074D01*
X171796602Y-29636074D01*
X171786431Y-29656940D01*
X171749986Y-29665471D01*
X171676286Y-29667188D01*
X171652566Y-29667200D01*
X171572376Y-29663921D01*
X171517372Y-29655403D01*
X171500800Y-29645633D01*
X171503991Y-29614773D01*
X171512873Y-29541748D01*
X171526409Y-29434746D01*
X171543562Y-29301954D01*
X171563298Y-29151562D01*
X171564300Y-29143983D01*
X171584196Y-28991739D01*
X171601540Y-28855543D01*
X171615287Y-28743902D01*
X171624387Y-28665323D01*
X171627796Y-28628314D01*
X171627800Y-28627916D01*
X171634788Y-28603093D01*
X171640885Y-28605018D01*
X171648363Y-28633214D01*
X171661137Y-28703535D01*
X171677878Y-28807739D01*
X171697258Y-28937583D01*
X171716302Y-29072801D01*
X171737206Y-29223991D01*
X171756613Y-29361971D01*
X171773144Y-29477103D01*
X171785416Y-29559753D01*
X171791483Y-29597350D01*
X171796602Y-29636074D01*
X172003449Y-29636074D01*
X171992501Y-29557179D01*
X171970640Y-29398973D01*
X171945191Y-29214274D01*
X171916976Y-29009044D01*
X171886819Y-28789243D01*
X171879214Y-28733750D01*
X171742634Y-27736800D01*
X171634417Y-27736800D01*
X171559542Y-27743017D01*
G36*
X171424112Y-26778112D02*
G01*
X171262642Y-26805888D01*
X170948108Y-26907883D01*
X170659418Y-27053096D01*
X170398639Y-27239854D01*
X170167838Y-27466484D01*
X169969081Y-27731311D01*
X169840655Y-27957246D01*
X169723825Y-28246078D01*
X169651547Y-28551941D01*
X169624360Y-28866499D01*
X169642802Y-29181416D01*
X169707413Y-29488355D01*
X169735903Y-29577704D01*
X169794316Y-29714873D01*
X169862103Y-29808121D01*
X169945421Y-29864227D01*
X170014834Y-29884763D01*
X170133507Y-29889859D01*
X170236158Y-29853076D01*
X170323738Y-29782542D01*
X170380291Y-29707114D01*
X170406777Y-29618560D01*
X170403772Y-29508130D01*
X170371855Y-29367078D01*
X170354844Y-29311600D01*
X170318013Y-29146894D01*
X170300856Y-28956345D01*
X170303668Y-28760925D01*
X170326746Y-28581608D01*
X170343579Y-28512584D01*
X170441634Y-28258222D01*
X170577186Y-28031177D01*
X170745600Y-27835096D01*
X170942238Y-27673630D01*
X171162466Y-27550425D01*
X171401647Y-27469129D01*
X171655146Y-27433392D01*
X171716701Y-27432000D01*
X171969990Y-27456157D01*
X172207166Y-27526274D01*
X172423571Y-27638818D01*
X172614544Y-27790258D01*
X172775424Y-27977059D01*
X172901553Y-28195690D01*
X172972108Y-28383674D01*
X173009208Y-28563620D01*
X173023118Y-28762499D01*
X173014211Y-28962210D01*
X172982860Y-29144655D01*
X172954551Y-29235400D01*
X172900503Y-29376385D01*
X172862129Y-29478258D01*
X172837550Y-29549580D01*
X172824885Y-29598910D01*
X172822254Y-29634805D01*
X172827777Y-29665826D01*
X172839573Y-29700532D01*
X172847498Y-29722694D01*
X172909113Y-29829537D01*
X173001613Y-29904407D01*
X173113410Y-29943197D01*
X173232912Y-29941798D01*
X173344226Y-29898768D01*
X173409451Y-29838272D01*
X173472439Y-29743089D01*
X173489039Y-29710283D01*
X173609216Y-29400443D01*
X173680575Y-29084979D01*
X173703463Y-28768138D01*
X173678226Y-28454164D01*
X173605209Y-28147301D01*
X173484760Y-27851795D01*
X173317223Y-27571890D01*
X173314313Y-27567775D01*
X173141417Y-27363105D01*
X172929990Y-27177202D01*
X172691046Y-27017608D01*
X172435598Y-26891863D01*
X172220895Y-26819126D01*
X172043861Y-26784990D01*
X171839241Y-26766598D01*
X171626252Y-26764217D01*
X171424112Y-26778112D01*
G37*
X171424112Y-26778112D02*
X171262642Y-26805888D01*
X170948108Y-26907883D01*
X170659418Y-27053096D01*
X170398639Y-27239854D01*
X170167838Y-27466484D01*
X169969081Y-27731311D01*
X169840655Y-27957246D01*
X169723825Y-28246078D01*
X169651547Y-28551941D01*
X169624360Y-28866499D01*
X169642802Y-29181416D01*
X169707413Y-29488355D01*
X169735903Y-29577704D01*
X169794316Y-29714873D01*
X169862103Y-29808121D01*
X169945421Y-29864227D01*
X170014834Y-29884763D01*
X170133507Y-29889859D01*
X170236158Y-29853076D01*
X170323738Y-29782542D01*
X170380291Y-29707114D01*
X170406777Y-29618560D01*
X170403772Y-29508130D01*
X170371855Y-29367078D01*
X170354844Y-29311600D01*
X170318013Y-29146894D01*
X170300856Y-28956345D01*
X170303668Y-28760925D01*
X170326746Y-28581608D01*
X170343579Y-28512584D01*
X170441634Y-28258222D01*
X170577186Y-28031177D01*
X170745600Y-27835096D01*
X170942238Y-27673630D01*
X171162466Y-27550425D01*
X171401647Y-27469129D01*
X171655146Y-27433392D01*
X171716701Y-27432000D01*
X171969990Y-27456157D01*
X172207166Y-27526274D01*
X172423571Y-27638818D01*
X172614544Y-27790258D01*
X172775424Y-27977059D01*
X172901553Y-28195690D01*
X172972108Y-28383674D01*
X173009208Y-28563620D01*
X173023118Y-28762499D01*
X173014211Y-28962210D01*
X172982860Y-29144655D01*
X172954551Y-29235400D01*
X172900503Y-29376385D01*
X172862129Y-29478258D01*
X172837550Y-29549580D01*
X172824885Y-29598910D01*
X172822254Y-29634805D01*
X172827777Y-29665826D01*
X172839573Y-29700532D01*
X172847498Y-29722694D01*
X172909113Y-29829537D01*
X173001613Y-29904407D01*
X173113410Y-29943197D01*
X173232912Y-29941798D01*
X173344226Y-29898768D01*
X173409451Y-29838272D01*
X173472439Y-29743089D01*
X173489039Y-29710283D01*
X173609216Y-29400443D01*
X173680575Y-29084979D01*
X173703463Y-28768138D01*
X173678226Y-28454164D01*
X173605209Y-28147301D01*
X173484760Y-27851795D01*
X173317223Y-27571890D01*
X173314313Y-27567775D01*
X173141417Y-27363105D01*
X172929990Y-27177202D01*
X172691046Y-27017608D01*
X172435598Y-26891863D01*
X172220895Y-26819126D01*
X172043861Y-26784990D01*
X171839241Y-26766598D01*
X171626252Y-26764217D01*
X171424112Y-26778112D01*
G36*
X171691300Y-26303226D02*
G01*
X171527442Y-26304430D01*
X171402728Y-26307581D01*
X171305507Y-26313929D01*
X171224127Y-26324723D01*
X171146938Y-26341213D01*
X171062288Y-26364649D01*
X171030900Y-26374068D01*
X170714080Y-26487770D01*
X170431775Y-26628375D01*
X170171761Y-26802888D01*
X169945272Y-26996074D01*
X169701009Y-27258665D01*
X169495214Y-27549056D01*
X169329834Y-27861842D01*
X169206816Y-28191616D01*
X169128107Y-28532972D01*
X169095654Y-28880503D01*
X169111404Y-29228803D01*
X169119296Y-29289675D01*
X169151964Y-29484858D01*
X169190483Y-29658366D01*
X169232719Y-29802850D01*
X169276538Y-29910962D01*
X169317877Y-29973476D01*
X169366836Y-30013609D01*
X169408841Y-30016170D01*
X169463504Y-29981328D01*
X169471667Y-29974786D01*
X169530962Y-29926772D01*
X169474219Y-29765236D01*
X169402671Y-29508591D01*
X169357082Y-29228886D01*
X169338981Y-28943907D01*
X169349897Y-28671445D01*
X169368495Y-28535214D01*
X169446481Y-28226064D01*
X169567477Y-27921816D01*
X169725752Y-27632982D01*
X169915576Y-27370076D01*
X170122897Y-27151173D01*
X170389688Y-26938441D01*
X170672464Y-26770249D01*
X170966998Y-26645886D01*
X171269062Y-26564642D01*
X171574430Y-26525803D01*
X171878875Y-26528660D01*
X172178168Y-26572500D01*
X172468084Y-26656612D01*
X172744394Y-26780285D01*
X173002872Y-26942808D01*
X173239291Y-27143468D01*
X173449423Y-27381556D01*
X173629042Y-27656358D01*
X173678171Y-27749500D01*
X173785259Y-27994831D01*
X173857716Y-28238153D01*
X173898306Y-28493151D01*
X173909791Y-28773512D01*
X173907287Y-28884545D01*
X173888624Y-29144585D01*
X173851036Y-29372640D01*
X173790920Y-29585158D01*
X173709427Y-29788159D01*
X173661996Y-29900811D01*
X173639819Y-29978451D01*
X173642110Y-30029687D01*
X173668087Y-30063127D01*
X173683531Y-30072706D01*
X173759442Y-30097254D01*
X173818603Y-30076344D01*
X173849413Y-30041850D01*
X173888239Y-29971646D01*
X173934928Y-29864397D01*
X173984989Y-29732333D01*
X174033932Y-29587683D01*
X174077266Y-29442678D01*
X174096968Y-29367667D01*
X174135749Y-29148234D01*
X174153655Y-28900377D01*
X174150904Y-28641886D01*
X174127715Y-28390552D01*
X174084303Y-28164163D01*
X174082155Y-28155900D01*
X173966259Y-27809274D01*
X173809513Y-27491150D01*
X173614215Y-27203856D01*
X173382661Y-26949721D01*
X173117146Y-26731072D01*
X172819967Y-26550239D01*
X172493421Y-26409549D01*
X172300900Y-26349791D01*
X172219166Y-26330613D01*
X172131969Y-26317183D01*
X172028516Y-26308677D01*
X171898016Y-26304269D01*
X171729677Y-26303135D01*
X171691300Y-26303226D01*
G37*
X171691300Y-26303226D02*
X171527442Y-26304430D01*
X171402728Y-26307581D01*
X171305507Y-26313929D01*
X171224127Y-26324723D01*
X171146938Y-26341213D01*
X171062288Y-26364649D01*
X171030900Y-26374068D01*
X170714080Y-26487770D01*
X170431775Y-26628375D01*
X170171761Y-26802888D01*
X169945272Y-26996074D01*
X169701009Y-27258665D01*
X169495214Y-27549056D01*
X169329834Y-27861842D01*
X169206816Y-28191616D01*
X169128107Y-28532972D01*
X169095654Y-28880503D01*
X169111404Y-29228803D01*
X169119296Y-29289675D01*
X169151964Y-29484858D01*
X169190483Y-29658366D01*
X169232719Y-29802850D01*
X169276538Y-29910962D01*
X169317877Y-29973476D01*
X169366836Y-30013609D01*
X169408841Y-30016170D01*
X169463504Y-29981328D01*
X169471667Y-29974786D01*
X169530962Y-29926772D01*
X169474219Y-29765236D01*
X169402671Y-29508591D01*
X169357082Y-29228886D01*
X169338981Y-28943907D01*
X169349897Y-28671445D01*
X169368495Y-28535214D01*
X169446481Y-28226064D01*
X169567477Y-27921816D01*
X169725752Y-27632982D01*
X169915576Y-27370076D01*
X170122897Y-27151173D01*
X170389688Y-26938441D01*
X170672464Y-26770249D01*
X170966998Y-26645886D01*
X171269062Y-26564642D01*
X171574430Y-26525803D01*
X171878875Y-26528660D01*
X172178168Y-26572500D01*
X172468084Y-26656612D01*
X172744394Y-26780285D01*
X173002872Y-26942808D01*
X173239291Y-27143468D01*
X173449423Y-27381556D01*
X173629042Y-27656358D01*
X173678171Y-27749500D01*
X173785259Y-27994831D01*
X173857716Y-28238153D01*
X173898306Y-28493151D01*
X173909791Y-28773512D01*
X173907287Y-28884545D01*
X173888624Y-29144585D01*
X173851036Y-29372640D01*
X173790920Y-29585158D01*
X173709427Y-29788159D01*
X173661996Y-29900811D01*
X173639819Y-29978451D01*
X173642110Y-30029687D01*
X173668087Y-30063127D01*
X173683531Y-30072706D01*
X173759442Y-30097254D01*
X173818603Y-30076344D01*
X173849413Y-30041850D01*
X173888239Y-29971646D01*
X173934928Y-29864397D01*
X173984989Y-29732333D01*
X174033932Y-29587683D01*
X174077266Y-29442678D01*
X174096968Y-29367667D01*
X174135749Y-29148234D01*
X174153655Y-28900377D01*
X174150904Y-28641886D01*
X174127715Y-28390552D01*
X174084303Y-28164163D01*
X174082155Y-28155900D01*
X173966259Y-27809274D01*
X173809513Y-27491150D01*
X173614215Y-27203856D01*
X173382661Y-26949721D01*
X173117146Y-26731072D01*
X172819967Y-26550239D01*
X172493421Y-26409549D01*
X172300900Y-26349791D01*
X172219166Y-26330613D01*
X172131969Y-26317183D01*
X172028516Y-26308677D01*
X171898016Y-26304269D01*
X171729677Y-26303135D01*
X171691300Y-26303226D01*
G36*
X175481905Y-27227509D02*
G01*
X175437028Y-27241772D01*
X175342474Y-27280551D01*
X175277669Y-27325552D01*
X175222497Y-27392699D01*
X175197177Y-27431627D01*
X175143371Y-27531679D01*
X175080582Y-27671507D01*
X175012087Y-27841590D01*
X174941165Y-28032408D01*
X174871094Y-28234437D01*
X174805152Y-28438156D01*
X174746616Y-28634045D01*
X174698766Y-28812581D01*
X174664878Y-28964244D01*
X174659632Y-28992995D01*
X174639869Y-29124478D01*
X174632928Y-29228533D01*
X174638214Y-29326728D01*
X174648382Y-29400500D01*
X174704373Y-29618665D01*
X174795560Y-29811640D01*
X174917101Y-29975389D01*
X175064154Y-30105876D01*
X175231875Y-30199066D01*
X175415422Y-30250926D01*
X175609952Y-30257419D01*
X175668137Y-30250175D01*
X175851721Y-30195866D01*
X176019975Y-30097997D01*
X176167268Y-29962876D01*
X176287968Y-29796809D01*
X176307402Y-29754919D01*
X175971200Y-29754919D01*
X175949193Y-29764903D01*
X175899519Y-29768800D01*
X175878646Y-29766815D01*
X175858172Y-29757793D01*
X175835256Y-29737128D01*
X175807060Y-29700215D01*
X175770743Y-29642450D01*
X175723465Y-29559229D01*
X175672024Y-29463819D01*
X175379406Y-29463819D01*
X175343620Y-29585171D01*
X175272989Y-29682327D01*
X175237194Y-29710770D01*
X175155746Y-29755263D01*
X175082115Y-29765498D01*
X174994977Y-29743117D01*
X174966271Y-29731656D01*
X174889821Y-29681469D01*
X174833331Y-29597135D01*
X174827945Y-29585606D01*
X174787784Y-29451978D01*
X174785984Y-29323838D01*
X174818653Y-29209489D01*
X174881901Y-29117233D01*
X174971836Y-29055372D01*
X175084567Y-29032211D01*
X175087296Y-29032200D01*
X175194194Y-29044351D01*
X175269124Y-29086866D01*
X175326249Y-29168837D01*
X175337802Y-29192999D01*
X175378187Y-29329388D01*
X175379406Y-29463819D01*
X175672024Y-29463819D01*
X175662387Y-29445946D01*
X175584668Y-29297997D01*
X175487469Y-29110778D01*
X175455019Y-29048068D01*
X175364234Y-28872085D01*
X175281437Y-28710663D01*
X175209407Y-28569296D01*
X175150924Y-28453477D01*
X175108770Y-28368700D01*
X175085724Y-28320457D01*
X175082200Y-28311468D01*
X175104151Y-28300066D01*
X175152050Y-28295985D01*
X175172574Y-28298384D01*
X175193133Y-28308405D01*
X175216551Y-28330638D01*
X175245652Y-28369674D01*
X175283258Y-28430104D01*
X175332194Y-28516518D01*
X175395283Y-28633507D01*
X175475347Y-28785662D01*
X175575212Y-28977574D01*
X175596550Y-29018705D01*
X175687637Y-29194740D01*
X175770728Y-29356126D01*
X175843044Y-29497399D01*
X175901804Y-29613098D01*
X175944227Y-29697757D01*
X175967534Y-29745913D01*
X175971200Y-29754919D01*
X176307402Y-29754919D01*
X176376445Y-29606102D01*
X176426543Y-29400822D01*
X176437216Y-29280371D01*
X176435038Y-29150928D01*
X176418812Y-29006538D01*
X176387345Y-28841248D01*
X176348766Y-28686497D01*
X176272597Y-28686497D01*
X176251535Y-28801579D01*
X176248404Y-28813066D01*
X176196643Y-28927141D01*
X176115942Y-28999535D01*
X176005654Y-29030760D01*
X175971200Y-29032200D01*
X175877881Y-29023338D01*
X175810563Y-28991855D01*
X175786324Y-28971687D01*
X175719621Y-28878314D01*
X175681592Y-28758565D01*
X175673436Y-28628795D01*
X175696355Y-28505361D01*
X175745251Y-28412298D01*
X175831116Y-28338987D01*
X175932017Y-28307219D01*
X176036216Y-28315370D01*
X176131972Y-28361814D01*
X176207546Y-28444925D01*
X176225456Y-28478793D01*
X176264473Y-28587199D01*
X176272597Y-28686497D01*
X176348766Y-28686497D01*
X176339443Y-28649103D01*
X176273912Y-28424149D01*
X176189557Y-28160433D01*
X176159907Y-28071395D01*
X176082818Y-27848069D01*
X176015251Y-27668756D01*
X175954065Y-27528269D01*
X175896119Y-27421426D01*
X175838273Y-27343041D01*
X175777384Y-27287931D01*
X175710312Y-27250909D01*
X175650735Y-27231003D01*
X175563413Y-27216429D01*
X175481905Y-27227509D01*
G37*
X175481905Y-27227509D02*
X175437028Y-27241772D01*
X175342474Y-27280551D01*
X175277669Y-27325552D01*
X175222497Y-27392699D01*
X175197177Y-27431627D01*
X175143371Y-27531679D01*
X175080582Y-27671507D01*
X175012087Y-27841590D01*
X174941165Y-28032408D01*
X174871094Y-28234437D01*
X174805152Y-28438156D01*
X174746616Y-28634045D01*
X174698766Y-28812581D01*
X174664878Y-28964244D01*
X174659632Y-28992995D01*
X174639869Y-29124478D01*
X174632928Y-29228533D01*
X174638214Y-29326728D01*
X174648382Y-29400500D01*
X174704373Y-29618665D01*
X174795560Y-29811640D01*
X174917101Y-29975389D01*
X175064154Y-30105876D01*
X175231875Y-30199066D01*
X175415422Y-30250926D01*
X175609952Y-30257419D01*
X175668137Y-30250175D01*
X175851721Y-30195866D01*
X176019975Y-30097997D01*
X176167268Y-29962876D01*
X176287968Y-29796809D01*
X176307402Y-29754919D01*
X175971200Y-29754919D01*
X175949193Y-29764903D01*
X175899519Y-29768800D01*
X175878646Y-29766815D01*
X175858172Y-29757793D01*
X175835256Y-29737128D01*
X175807060Y-29700215D01*
X175770743Y-29642450D01*
X175723465Y-29559229D01*
X175672024Y-29463819D01*
X175379406Y-29463819D01*
X175343620Y-29585171D01*
X175272989Y-29682327D01*
X175237194Y-29710770D01*
X175155746Y-29755263D01*
X175082115Y-29765498D01*
X174994977Y-29743117D01*
X174966271Y-29731656D01*
X174889821Y-29681469D01*
X174833331Y-29597135D01*
X174827945Y-29585606D01*
X174787784Y-29451978D01*
X174785984Y-29323838D01*
X174818653Y-29209489D01*
X174881901Y-29117233D01*
X174971836Y-29055372D01*
X175084567Y-29032211D01*
X175087296Y-29032200D01*
X175194194Y-29044351D01*
X175269124Y-29086866D01*
X175326249Y-29168837D01*
X175337802Y-29192999D01*
X175378187Y-29329388D01*
X175379406Y-29463819D01*
X175672024Y-29463819D01*
X175662387Y-29445946D01*
X175584668Y-29297997D01*
X175487469Y-29110778D01*
X175455019Y-29048068D01*
X175364234Y-28872085D01*
X175281437Y-28710663D01*
X175209407Y-28569296D01*
X175150924Y-28453477D01*
X175108770Y-28368700D01*
X175085724Y-28320457D01*
X175082200Y-28311468D01*
X175104151Y-28300066D01*
X175152050Y-28295985D01*
X175172574Y-28298384D01*
X175193133Y-28308405D01*
X175216551Y-28330638D01*
X175245652Y-28369674D01*
X175283258Y-28430104D01*
X175332194Y-28516518D01*
X175395283Y-28633507D01*
X175475347Y-28785662D01*
X175575212Y-28977574D01*
X175596550Y-29018705D01*
X175687637Y-29194740D01*
X175770728Y-29356126D01*
X175843044Y-29497399D01*
X175901804Y-29613098D01*
X175944227Y-29697757D01*
X175967534Y-29745913D01*
X175971200Y-29754919D01*
X176307402Y-29754919D01*
X176376445Y-29606102D01*
X176426543Y-29400822D01*
X176437216Y-29280371D01*
X176435038Y-29150928D01*
X176418812Y-29006538D01*
X176387345Y-28841248D01*
X176348766Y-28686497D01*
X176272597Y-28686497D01*
X176251535Y-28801579D01*
X176248404Y-28813066D01*
X176196643Y-28927141D01*
X176115942Y-28999535D01*
X176005654Y-29030760D01*
X175971200Y-29032200D01*
X175877881Y-29023338D01*
X175810563Y-28991855D01*
X175786324Y-28971687D01*
X175719621Y-28878314D01*
X175681592Y-28758565D01*
X175673436Y-28628795D01*
X175696355Y-28505361D01*
X175745251Y-28412298D01*
X175831116Y-28338987D01*
X175932017Y-28307219D01*
X176036216Y-28315370D01*
X176131972Y-28361814D01*
X176207546Y-28444925D01*
X176225456Y-28478793D01*
X176264473Y-28587199D01*
X176272597Y-28686497D01*
X176348766Y-28686497D01*
X176339443Y-28649103D01*
X176273912Y-28424149D01*
X176189557Y-28160433D01*
X176159907Y-28071395D01*
X176082818Y-27848069D01*
X176015251Y-27668756D01*
X175954065Y-27528269D01*
X175896119Y-27421426D01*
X175838273Y-27343041D01*
X175777384Y-27287931D01*
X175710312Y-27250909D01*
X175650735Y-27231003D01*
X175563413Y-27216429D01*
X175481905Y-27227509D01*
M02*
