G04 #@! TF.GenerationSoftware,KiCad,Pcbnew,(5.1.5)-3*
G04 #@! TF.CreationDate,2020-12-21T13:16:17+01:00*
G04 #@! TF.ProjectId,epimetheus_si7021,6570696d-6574-4686-9575-735f73693730,rev?*
G04 #@! TF.SameCoordinates,Original*
G04 #@! TF.FileFunction,Legend,Top*
G04 #@! TF.FilePolarity,Positive*
%FSLAX46Y46*%
G04 Gerber Fmt 4.6, Leading zero omitted, Abs format (unit mm)*
G04 Created by KiCad (PCBNEW (5.1.5)-3) date 2020-12-21 13:16:17*
%MOMM*%
%LPD*%
G04 APERTURE LIST*
%ADD10C,0.150000*%
%ADD11C,0.120000*%
G04 APERTURE END LIST*
D10*
X162234857Y-36980761D02*
X162330095Y-37028380D01*
X162520571Y-37028380D01*
X162615809Y-36980761D01*
X162663428Y-36885523D01*
X162663428Y-36837904D01*
X162615809Y-36742666D01*
X162520571Y-36695047D01*
X162377714Y-36695047D01*
X162282476Y-36647428D01*
X162234857Y-36552190D01*
X162234857Y-36504571D01*
X162282476Y-36409333D01*
X162377714Y-36361714D01*
X162520571Y-36361714D01*
X162615809Y-36409333D01*
X163092000Y-37028380D02*
X163092000Y-36361714D01*
X163092000Y-36028380D02*
X163044380Y-36076000D01*
X163092000Y-36123619D01*
X163139619Y-36076000D01*
X163092000Y-36028380D01*
X163092000Y-36123619D01*
X163472952Y-36028380D02*
X164139619Y-36028380D01*
X163711047Y-37028380D01*
X164711047Y-36028380D02*
X164806285Y-36028380D01*
X164901523Y-36076000D01*
X164949142Y-36123619D01*
X164996761Y-36218857D01*
X165044380Y-36409333D01*
X165044380Y-36647428D01*
X164996761Y-36837904D01*
X164949142Y-36933142D01*
X164901523Y-36980761D01*
X164806285Y-37028380D01*
X164711047Y-37028380D01*
X164615809Y-36980761D01*
X164568190Y-36933142D01*
X164520571Y-36837904D01*
X164472952Y-36647428D01*
X164472952Y-36409333D01*
X164520571Y-36218857D01*
X164568190Y-36123619D01*
X164615809Y-36076000D01*
X164711047Y-36028380D01*
X165425333Y-36123619D02*
X165472952Y-36076000D01*
X165568190Y-36028380D01*
X165806285Y-36028380D01*
X165901523Y-36076000D01*
X165949142Y-36123619D01*
X165996761Y-36218857D01*
X165996761Y-36314095D01*
X165949142Y-36456952D01*
X165377714Y-37028380D01*
X165996761Y-37028380D01*
X166949142Y-37028380D02*
X166377714Y-37028380D01*
X166663428Y-37028380D02*
X166663428Y-36028380D01*
X166568190Y-36171238D01*
X166472952Y-36266476D01*
X166377714Y-36314095D01*
D11*
X162052000Y-27888000D02*
X162052000Y-34088000D01*
X173873000Y-34088000D02*
X173873000Y-27888000D01*
X162052000Y-27888000D02*
X164148000Y-27888000D01*
X165798000Y-27888000D02*
X167148000Y-27888000D01*
X168798000Y-27888000D02*
X171198000Y-27888000D01*
X172748000Y-27888000D02*
X173873000Y-27888000D01*
X172298000Y-34088000D02*
X162052000Y-34088000D01*
D10*
X174752095Y-26932000D02*
X174656857Y-26884380D01*
X174514000Y-26884380D01*
X174371142Y-26932000D01*
X174275904Y-27027238D01*
X174228285Y-27122476D01*
X174180666Y-27312952D01*
X174180666Y-27455809D01*
X174228285Y-27646285D01*
X174275904Y-27741523D01*
X174371142Y-27836761D01*
X174514000Y-27884380D01*
X174609238Y-27884380D01*
X174752095Y-27836761D01*
X174799714Y-27789142D01*
X174799714Y-27455809D01*
X174609238Y-27455809D01*
X175228285Y-27884380D02*
X175228285Y-26884380D01*
X175799714Y-27884380D01*
X175799714Y-26884380D01*
X176275904Y-27884380D02*
X176275904Y-26884380D01*
X176514000Y-26884380D01*
X176656857Y-26932000D01*
X176752095Y-27027238D01*
X176799714Y-27122476D01*
X176847333Y-27312952D01*
X176847333Y-27455809D01*
X176799714Y-27646285D01*
X176752095Y-27741523D01*
X176656857Y-27836761D01*
X176514000Y-27884380D01*
X176275904Y-27884380D01*
X174299714Y-30376761D02*
X174442571Y-30424380D01*
X174680666Y-30424380D01*
X174775904Y-30376761D01*
X174823523Y-30329142D01*
X174871142Y-30233904D01*
X174871142Y-30138666D01*
X174823523Y-30043428D01*
X174775904Y-29995809D01*
X174680666Y-29948190D01*
X174490190Y-29900571D01*
X174394952Y-29852952D01*
X174347333Y-29805333D01*
X174299714Y-29710095D01*
X174299714Y-29614857D01*
X174347333Y-29519619D01*
X174394952Y-29472000D01*
X174490190Y-29424380D01*
X174728285Y-29424380D01*
X174871142Y-29472000D01*
X175299714Y-30424380D02*
X175299714Y-29424380D01*
X175537809Y-29424380D01*
X175680666Y-29472000D01*
X175775904Y-29567238D01*
X175823523Y-29662476D01*
X175871142Y-29852952D01*
X175871142Y-29995809D01*
X175823523Y-30186285D01*
X175775904Y-30281523D01*
X175680666Y-30376761D01*
X175537809Y-30424380D01*
X175299714Y-30424380D01*
X176252095Y-30138666D02*
X176728285Y-30138666D01*
X176156857Y-30424380D02*
X176490190Y-29424380D01*
X176823523Y-30424380D01*
X174323523Y-32916761D02*
X174466380Y-32964380D01*
X174704476Y-32964380D01*
X174799714Y-32916761D01*
X174847333Y-32869142D01*
X174894952Y-32773904D01*
X174894952Y-32678666D01*
X174847333Y-32583428D01*
X174799714Y-32535809D01*
X174704476Y-32488190D01*
X174514000Y-32440571D01*
X174418761Y-32392952D01*
X174371142Y-32345333D01*
X174323523Y-32250095D01*
X174323523Y-32154857D01*
X174371142Y-32059619D01*
X174418761Y-32012000D01*
X174514000Y-31964380D01*
X174752095Y-31964380D01*
X174894952Y-32012000D01*
X175894952Y-32869142D02*
X175847333Y-32916761D01*
X175704476Y-32964380D01*
X175609238Y-32964380D01*
X175466380Y-32916761D01*
X175371142Y-32821523D01*
X175323523Y-32726285D01*
X175275904Y-32535809D01*
X175275904Y-32392952D01*
X175323523Y-32202476D01*
X175371142Y-32107238D01*
X175466380Y-32012000D01*
X175609238Y-31964380D01*
X175704476Y-31964380D01*
X175847333Y-32012000D01*
X175894952Y-32059619D01*
X176799714Y-32964380D02*
X176323523Y-32964380D01*
X176323523Y-31964380D01*
X174180666Y-34504380D02*
X174514000Y-35504380D01*
X174847333Y-34504380D01*
X175752095Y-35409142D02*
X175704476Y-35456761D01*
X175561619Y-35504380D01*
X175466380Y-35504380D01*
X175323523Y-35456761D01*
X175228285Y-35361523D01*
X175180666Y-35266285D01*
X175133047Y-35075809D01*
X175133047Y-34932952D01*
X175180666Y-34742476D01*
X175228285Y-34647238D01*
X175323523Y-34552000D01*
X175466380Y-34504380D01*
X175561619Y-34504380D01*
X175704476Y-34552000D01*
X175752095Y-34599619D01*
X176752095Y-35409142D02*
X176704476Y-35456761D01*
X176561619Y-35504380D01*
X176466380Y-35504380D01*
X176323523Y-35456761D01*
X176228285Y-35361523D01*
X176180666Y-35266285D01*
X176133047Y-35075809D01*
X176133047Y-34932952D01*
X176180666Y-34742476D01*
X176228285Y-34647238D01*
X176323523Y-34552000D01*
X176466380Y-34504380D01*
X176561619Y-34504380D01*
X176704476Y-34552000D01*
X176752095Y-34599619D01*
M02*
