G04 #@! TF.GenerationSoftware,KiCad,Pcbnew,(5.1.5)-3*
G04 #@! TF.CreationDate,2020-12-21T13:16:17+01:00*
G04 #@! TF.ProjectId,epimetheus_si7021,6570696d-6574-4686-9575-735f73693730,rev?*
G04 #@! TF.SameCoordinates,Original*
G04 #@! TF.FileFunction,Soldermask,Bot*
G04 #@! TF.FilePolarity,Negative*
%FSLAX46Y46*%
G04 Gerber Fmt 4.6, Leading zero omitted, Abs format (unit mm)*
G04 Created by KiCad (PCBNEW (5.1.5)-3) date 2020-12-21 13:16:17*
%MOMM*%
%LPD*%
G04 APERTURE LIST*
%ADD10C,0.100000*%
G04 APERTURE END LIST*
D10*
G36*
X179053142Y-34270242D02*
G01*
X179201101Y-34331529D01*
X179334255Y-34420499D01*
X179447501Y-34533745D01*
X179536471Y-34666899D01*
X179597758Y-34814858D01*
X179629000Y-34971925D01*
X179629000Y-35132075D01*
X179597758Y-35289142D01*
X179536471Y-35437101D01*
X179447501Y-35570255D01*
X179334255Y-35683501D01*
X179201101Y-35772471D01*
X179053142Y-35833758D01*
X178896075Y-35865000D01*
X178735925Y-35865000D01*
X178578858Y-35833758D01*
X178430899Y-35772471D01*
X178297745Y-35683501D01*
X178184499Y-35570255D01*
X178095529Y-35437101D01*
X178034242Y-35289142D01*
X178003000Y-35132075D01*
X178003000Y-34971925D01*
X178034242Y-34814858D01*
X178095529Y-34666899D01*
X178184499Y-34533745D01*
X178297745Y-34420499D01*
X178430899Y-34331529D01*
X178578858Y-34270242D01*
X178735925Y-34239000D01*
X178896075Y-34239000D01*
X179053142Y-34270242D01*
G37*
G36*
X179053142Y-31730242D02*
G01*
X179201101Y-31791529D01*
X179334255Y-31880499D01*
X179447501Y-31993745D01*
X179536471Y-32126899D01*
X179597758Y-32274858D01*
X179629000Y-32431925D01*
X179629000Y-32592075D01*
X179597758Y-32749142D01*
X179536471Y-32897101D01*
X179447501Y-33030255D01*
X179334255Y-33143501D01*
X179201101Y-33232471D01*
X179053142Y-33293758D01*
X178896075Y-33325000D01*
X178735925Y-33325000D01*
X178578858Y-33293758D01*
X178430899Y-33232471D01*
X178297745Y-33143501D01*
X178184499Y-33030255D01*
X178095529Y-32897101D01*
X178034242Y-32749142D01*
X178003000Y-32592075D01*
X178003000Y-32431925D01*
X178034242Y-32274858D01*
X178095529Y-32126899D01*
X178184499Y-31993745D01*
X178297745Y-31880499D01*
X178430899Y-31791529D01*
X178578858Y-31730242D01*
X178735925Y-31699000D01*
X178896075Y-31699000D01*
X179053142Y-31730242D01*
G37*
G36*
X170606642Y-30217781D02*
G01*
X170752414Y-30278162D01*
X170752416Y-30278163D01*
X170883608Y-30365822D01*
X170995178Y-30477392D01*
X171082837Y-30608584D01*
X171082838Y-30608586D01*
X171143219Y-30754358D01*
X171174000Y-30909107D01*
X171174000Y-31066893D01*
X171143219Y-31221642D01*
X171082838Y-31367414D01*
X171082837Y-31367416D01*
X170995178Y-31498608D01*
X170883608Y-31610178D01*
X170752416Y-31697837D01*
X170752415Y-31697838D01*
X170752414Y-31697838D01*
X170606642Y-31758219D01*
X170451893Y-31789000D01*
X170294107Y-31789000D01*
X170139358Y-31758219D01*
X169993586Y-31697838D01*
X169993585Y-31697838D01*
X169993584Y-31697837D01*
X169862392Y-31610178D01*
X169750822Y-31498608D01*
X169663163Y-31367416D01*
X169663162Y-31367414D01*
X169602781Y-31221642D01*
X169572000Y-31066893D01*
X169572000Y-30909107D01*
X169602781Y-30754358D01*
X169663162Y-30608586D01*
X169663163Y-30608584D01*
X169750822Y-30477392D01*
X169862392Y-30365822D01*
X169993584Y-30278163D01*
X169993586Y-30278162D01*
X170139358Y-30217781D01*
X170294107Y-30187000D01*
X170451893Y-30187000D01*
X170606642Y-30217781D01*
G37*
G36*
X163606642Y-30217781D02*
G01*
X163752414Y-30278162D01*
X163752416Y-30278163D01*
X163883608Y-30365822D01*
X163995178Y-30477392D01*
X164082837Y-30608584D01*
X164082838Y-30608586D01*
X164143219Y-30754358D01*
X164174000Y-30909107D01*
X164174000Y-31066893D01*
X164143219Y-31221642D01*
X164082838Y-31367414D01*
X164082837Y-31367416D01*
X163995178Y-31498608D01*
X163883608Y-31610178D01*
X163752416Y-31697837D01*
X163752415Y-31697838D01*
X163752414Y-31697838D01*
X163606642Y-31758219D01*
X163451893Y-31789000D01*
X163294107Y-31789000D01*
X163139358Y-31758219D01*
X162993586Y-31697838D01*
X162993585Y-31697838D01*
X162993584Y-31697837D01*
X162862392Y-31610178D01*
X162750822Y-31498608D01*
X162663163Y-31367416D01*
X162663162Y-31367414D01*
X162602781Y-31221642D01*
X162572000Y-31066893D01*
X162572000Y-30909107D01*
X162602781Y-30754358D01*
X162663162Y-30608586D01*
X162663163Y-30608584D01*
X162750822Y-30477392D01*
X162862392Y-30365822D01*
X162993584Y-30278163D01*
X162993586Y-30278162D01*
X163139358Y-30217781D01*
X163294107Y-30187000D01*
X163451893Y-30187000D01*
X163606642Y-30217781D01*
G37*
G36*
X179053142Y-29190242D02*
G01*
X179201101Y-29251529D01*
X179334255Y-29340499D01*
X179447501Y-29453745D01*
X179536471Y-29586899D01*
X179597758Y-29734858D01*
X179629000Y-29891925D01*
X179629000Y-30052075D01*
X179597758Y-30209142D01*
X179536471Y-30357101D01*
X179447501Y-30490255D01*
X179334255Y-30603501D01*
X179201101Y-30692471D01*
X179053142Y-30753758D01*
X178896075Y-30785000D01*
X178735925Y-30785000D01*
X178578858Y-30753758D01*
X178430899Y-30692471D01*
X178297745Y-30603501D01*
X178184499Y-30490255D01*
X178095529Y-30357101D01*
X178034242Y-30209142D01*
X178003000Y-30052075D01*
X178003000Y-29891925D01*
X178034242Y-29734858D01*
X178095529Y-29586899D01*
X178184499Y-29453745D01*
X178297745Y-29340499D01*
X178430899Y-29251529D01*
X178578858Y-29190242D01*
X178735925Y-29159000D01*
X178896075Y-29159000D01*
X179053142Y-29190242D01*
G37*
G36*
X179053142Y-26650242D02*
G01*
X179201101Y-26711529D01*
X179334255Y-26800499D01*
X179447501Y-26913745D01*
X179536471Y-27046899D01*
X179597758Y-27194858D01*
X179629000Y-27351925D01*
X179629000Y-27512075D01*
X179597758Y-27669142D01*
X179536471Y-27817101D01*
X179447501Y-27950255D01*
X179334255Y-28063501D01*
X179201101Y-28152471D01*
X179053142Y-28213758D01*
X178896075Y-28245000D01*
X178735925Y-28245000D01*
X178578858Y-28213758D01*
X178430899Y-28152471D01*
X178297745Y-28063501D01*
X178184499Y-27950255D01*
X178095529Y-27817101D01*
X178034242Y-27669142D01*
X178003000Y-27512075D01*
X178003000Y-27351925D01*
X178034242Y-27194858D01*
X178095529Y-27046899D01*
X178184499Y-26913745D01*
X178297745Y-26800499D01*
X178430899Y-26711529D01*
X178578858Y-26650242D01*
X178735925Y-26619000D01*
X178896075Y-26619000D01*
X179053142Y-26650242D01*
G37*
M02*
