G04 #@! TF.GenerationSoftware,KiCad,Pcbnew,(5.1.5)-3*
G04 #@! TF.CreationDate,2020-12-21T13:16:17+01:00*
G04 #@! TF.ProjectId,epimetheus_si7021,6570696d-6574-4686-9575-735f73693730,rev?*
G04 #@! TF.SameCoordinates,Original*
G04 #@! TF.FileFunction,Legend,Bot*
G04 #@! TF.FilePolarity,Positive*
%FSLAX46Y46*%
G04 Gerber Fmt 4.6, Leading zero omitted, Abs format (unit mm)*
G04 Created by KiCad (PCBNEW (5.1.5)-3) date 2020-12-21 13:16:17*
%MOMM*%
%LPD*%
G04 APERTURE LIST*
%ADD10C,0.150000*%
%ADD11C,0.010000*%
G04 APERTURE END LIST*
D10*
X177426761Y-26630380D02*
X177331523Y-26630380D01*
X177236285Y-26678000D01*
X177188666Y-26725619D01*
X177141047Y-26820857D01*
X177093428Y-27011333D01*
X177093428Y-27249428D01*
X177141047Y-27439904D01*
X177188666Y-27535142D01*
X177236285Y-27582761D01*
X177331523Y-27630380D01*
X177426761Y-27630380D01*
X177522000Y-27582761D01*
X177569619Y-27535142D01*
X177617238Y-27439904D01*
X177664857Y-27249428D01*
X177664857Y-27011333D01*
X177617238Y-26820857D01*
X177569619Y-26725619D01*
X177522000Y-26678000D01*
X177426761Y-26630380D01*
X176760095Y-27630380D02*
X176236285Y-26963714D01*
X176760095Y-26963714D02*
X176236285Y-27630380D01*
X175426761Y-26963714D02*
X175426761Y-27630380D01*
X175664857Y-26582761D02*
X175902952Y-27297047D01*
X175283904Y-27297047D01*
X174712476Y-26630380D02*
X174617238Y-26630380D01*
X174522000Y-26678000D01*
X174474380Y-26725619D01*
X174426761Y-26820857D01*
X174379142Y-27011333D01*
X174379142Y-27249428D01*
X174426761Y-27439904D01*
X174474380Y-27535142D01*
X174522000Y-27582761D01*
X174617238Y-27630380D01*
X174712476Y-27630380D01*
X174807714Y-27582761D01*
X174855333Y-27535142D01*
X174902952Y-27439904D01*
X174950571Y-27249428D01*
X174950571Y-27011333D01*
X174902952Y-26820857D01*
X174855333Y-26725619D01*
X174807714Y-26678000D01*
X174712476Y-26630380D01*
X179395142Y-26058761D02*
X179299904Y-26106380D01*
X179109428Y-26106380D01*
X179014190Y-26058761D01*
X178966571Y-25963523D01*
X178966571Y-25915904D01*
X179014190Y-25820666D01*
X179109428Y-25773047D01*
X179252285Y-25773047D01*
X179347523Y-25725428D01*
X179395142Y-25630190D01*
X179395142Y-25582571D01*
X179347523Y-25487333D01*
X179252285Y-25439714D01*
X179109428Y-25439714D01*
X179014190Y-25487333D01*
X178538000Y-26106380D02*
X178538000Y-25439714D01*
X178538000Y-25106380D02*
X178585619Y-25154000D01*
X178538000Y-25201619D01*
X178490380Y-25154000D01*
X178538000Y-25106380D01*
X178538000Y-25201619D01*
X178157047Y-25106380D02*
X177490380Y-25106380D01*
X177918952Y-26106380D01*
X176918952Y-25106380D02*
X176823714Y-25106380D01*
X176728476Y-25154000D01*
X176680857Y-25201619D01*
X176633238Y-25296857D01*
X176585619Y-25487333D01*
X176585619Y-25725428D01*
X176633238Y-25915904D01*
X176680857Y-26011142D01*
X176728476Y-26058761D01*
X176823714Y-26106380D01*
X176918952Y-26106380D01*
X177014190Y-26058761D01*
X177061809Y-26011142D01*
X177109428Y-25915904D01*
X177157047Y-25725428D01*
X177157047Y-25487333D01*
X177109428Y-25296857D01*
X177061809Y-25201619D01*
X177014190Y-25154000D01*
X176918952Y-25106380D01*
X176204666Y-25201619D02*
X176157047Y-25154000D01*
X176061809Y-25106380D01*
X175823714Y-25106380D01*
X175728476Y-25154000D01*
X175680857Y-25201619D01*
X175633238Y-25296857D01*
X175633238Y-25392095D01*
X175680857Y-25534952D01*
X176252285Y-26106380D01*
X175633238Y-26106380D01*
X174680857Y-26106380D02*
X175252285Y-26106380D01*
X174966571Y-26106380D02*
X174966571Y-25106380D01*
X175061809Y-25249238D01*
X175157047Y-25344476D01*
X175252285Y-25392095D01*
D11*
G36*
X172561278Y-26831198D02*
G01*
X172542200Y-26847799D01*
X172526297Y-26866269D01*
X172514104Y-26890136D01*
X172505132Y-26925851D01*
X172498888Y-26979867D01*
X172494884Y-27058635D01*
X172492629Y-27168607D01*
X172491631Y-27316237D01*
X172491401Y-27507974D01*
X172491400Y-27516010D01*
X172491400Y-28133420D01*
X172380925Y-28211291D01*
X172268498Y-28317343D01*
X172196829Y-28441894D01*
X172163801Y-28576851D01*
X172167301Y-28714125D01*
X172205212Y-28845623D01*
X172275421Y-28963255D01*
X172375812Y-29058930D01*
X172504270Y-29124557D01*
X172626301Y-29150030D01*
X172722653Y-29147142D01*
X172819008Y-29127409D01*
X172830359Y-29123500D01*
X172960676Y-29051094D01*
X173058212Y-28948390D01*
X173122428Y-28824347D01*
X173152782Y-28687925D01*
X173148735Y-28548084D01*
X173109746Y-28413783D01*
X173035274Y-28293984D01*
X172924781Y-28197645D01*
X172887488Y-28176185D01*
X172813676Y-28137797D01*
X172830614Y-27534675D01*
X172835804Y-27344163D01*
X172839067Y-27197716D01*
X172840043Y-27088624D01*
X172838373Y-27010176D01*
X172833697Y-26955663D01*
X172825653Y-26918373D01*
X172813883Y-26891596D01*
X172798026Y-26868622D01*
X172794633Y-26864276D01*
X172723967Y-26809999D01*
X172640981Y-26798634D01*
X172561278Y-26831198D01*
G37*
X172561278Y-26831198D02*
X172542200Y-26847799D01*
X172526297Y-26866269D01*
X172514104Y-26890136D01*
X172505132Y-26925851D01*
X172498888Y-26979867D01*
X172494884Y-27058635D01*
X172492629Y-27168607D01*
X172491631Y-27316237D01*
X172491401Y-27507974D01*
X172491400Y-27516010D01*
X172491400Y-28133420D01*
X172380925Y-28211291D01*
X172268498Y-28317343D01*
X172196829Y-28441894D01*
X172163801Y-28576851D01*
X172167301Y-28714125D01*
X172205212Y-28845623D01*
X172275421Y-28963255D01*
X172375812Y-29058930D01*
X172504270Y-29124557D01*
X172626301Y-29150030D01*
X172722653Y-29147142D01*
X172819008Y-29127409D01*
X172830359Y-29123500D01*
X172960676Y-29051094D01*
X173058212Y-28948390D01*
X173122428Y-28824347D01*
X173152782Y-28687925D01*
X173148735Y-28548084D01*
X173109746Y-28413783D01*
X173035274Y-28293984D01*
X172924781Y-28197645D01*
X172887488Y-28176185D01*
X172813676Y-28137797D01*
X172830614Y-27534675D01*
X172835804Y-27344163D01*
X172839067Y-27197716D01*
X172840043Y-27088624D01*
X172838373Y-27010176D01*
X172833697Y-26955663D01*
X172825653Y-26918373D01*
X172813883Y-26891596D01*
X172798026Y-26868622D01*
X172794633Y-26864276D01*
X172723967Y-26809999D01*
X172640981Y-26798634D01*
X172561278Y-26831198D01*
G36*
X171081637Y-28207873D02*
G01*
X171041696Y-28253651D01*
X171021912Y-28337571D01*
X171018200Y-28422600D01*
X171023212Y-28508274D01*
X171035948Y-28578990D01*
X171044494Y-28602069D01*
X171090619Y-28641499D01*
X171156054Y-28648430D01*
X171220248Y-28621852D01*
X171232286Y-28611285D01*
X171261658Y-28548917D01*
X171272170Y-28439465D01*
X171272200Y-28431815D01*
X171265213Y-28315127D01*
X171241910Y-28241029D01*
X171198785Y-28202952D01*
X171145200Y-28194000D01*
X171081637Y-28207873D01*
G37*
X171081637Y-28207873D02*
X171041696Y-28253651D01*
X171021912Y-28337571D01*
X171018200Y-28422600D01*
X171023212Y-28508274D01*
X171035948Y-28578990D01*
X171044494Y-28602069D01*
X171090619Y-28641499D01*
X171156054Y-28648430D01*
X171220248Y-28621852D01*
X171232286Y-28611285D01*
X171261658Y-28548917D01*
X171272170Y-28439465D01*
X171272200Y-28431815D01*
X171265213Y-28315127D01*
X171241910Y-28241029D01*
X171198785Y-28202952D01*
X171145200Y-28194000D01*
X171081637Y-28207873D01*
G36*
X170209334Y-28920773D02*
G01*
X170171237Y-28951650D01*
X170145430Y-29007779D01*
X170131270Y-29093612D01*
X170129624Y-29189206D01*
X170141361Y-29274623D01*
X170155494Y-29313269D01*
X170200322Y-29350251D01*
X170266879Y-29362367D01*
X170331405Y-29347373D01*
X170352721Y-29331920D01*
X170372965Y-29284537D01*
X170382811Y-29205671D01*
X170382701Y-29113468D01*
X170373077Y-29026072D01*
X170354383Y-28961632D01*
X170343286Y-28945114D01*
X170277542Y-28908549D01*
X170209334Y-28920773D01*
G37*
X170209334Y-28920773D02*
X170171237Y-28951650D01*
X170145430Y-29007779D01*
X170131270Y-29093612D01*
X170129624Y-29189206D01*
X170141361Y-29274623D01*
X170155494Y-29313269D01*
X170200322Y-29350251D01*
X170266879Y-29362367D01*
X170331405Y-29347373D01*
X170352721Y-29331920D01*
X170372965Y-29284537D01*
X170382811Y-29205671D01*
X170382701Y-29113468D01*
X170373077Y-29026072D01*
X170354383Y-28961632D01*
X170343286Y-28945114D01*
X170277542Y-28908549D01*
X170209334Y-28920773D01*
G36*
X171662186Y-25189571D02*
G01*
X171572361Y-25242908D01*
X171515388Y-25323980D01*
X171493980Y-25419727D01*
X171510854Y-25517089D01*
X171568722Y-25603005D01*
X171575047Y-25608854D01*
X171669515Y-25666321D01*
X171769585Y-25673552D01*
X171862112Y-25639806D01*
X171939629Y-25574742D01*
X171978190Y-25492941D01*
X171981816Y-25411694D01*
X171899403Y-25411694D01*
X171887816Y-25484191D01*
X171840339Y-25547711D01*
X171805179Y-25570535D01*
X171749889Y-25595869D01*
X171712575Y-25596785D01*
X171669323Y-25570320D01*
X171643926Y-25550556D01*
X171589618Y-25482512D01*
X171577782Y-25408088D01*
X171603789Y-25339937D01*
X171663011Y-25290711D01*
X171745452Y-25273000D01*
X171825558Y-25292832D01*
X171877762Y-25343486D01*
X171899403Y-25411694D01*
X171981816Y-25411694D01*
X171982151Y-25404211D01*
X171955868Y-25318362D01*
X171903697Y-25245203D01*
X171829992Y-25194544D01*
X171739111Y-25176193D01*
X171662186Y-25189571D01*
G37*
X171662186Y-25189571D02*
X171572361Y-25242908D01*
X171515388Y-25323980D01*
X171493980Y-25419727D01*
X171510854Y-25517089D01*
X171568722Y-25603005D01*
X171575047Y-25608854D01*
X171669515Y-25666321D01*
X171769585Y-25673552D01*
X171862112Y-25639806D01*
X171939629Y-25574742D01*
X171978190Y-25492941D01*
X171981816Y-25411694D01*
X171899403Y-25411694D01*
X171887816Y-25484191D01*
X171840339Y-25547711D01*
X171805179Y-25570535D01*
X171749889Y-25595869D01*
X171712575Y-25596785D01*
X171669323Y-25570320D01*
X171643926Y-25550556D01*
X171589618Y-25482512D01*
X171577782Y-25408088D01*
X171603789Y-25339937D01*
X171663011Y-25290711D01*
X171745452Y-25273000D01*
X171825558Y-25292832D01*
X171877762Y-25343486D01*
X171899403Y-25411694D01*
X171981816Y-25411694D01*
X171982151Y-25404211D01*
X171955868Y-25318362D01*
X171903697Y-25245203D01*
X171829992Y-25194544D01*
X171739111Y-25176193D01*
X171662186Y-25189571D01*
G36*
X170446700Y-25199435D02*
G01*
X170305654Y-25261679D01*
X170190612Y-25360118D01*
X170129155Y-25450889D01*
X170098855Y-25517029D01*
X170099389Y-25553395D01*
X170136536Y-25574403D01*
X170183646Y-25586793D01*
X170235333Y-25590898D01*
X170259963Y-25562923D01*
X170265263Y-25545151D01*
X170292528Y-25491201D01*
X170342469Y-25428276D01*
X170358535Y-25411996D01*
X170404580Y-25372155D01*
X170449303Y-25349468D01*
X170509163Y-25339178D01*
X170600615Y-25336532D01*
X170619818Y-25336500D01*
X170763793Y-25347913D01*
X170871189Y-25385614D01*
X170951641Y-25454797D01*
X171007659Y-25545549D01*
X171039571Y-25644498D01*
X171059252Y-25773481D01*
X171065450Y-25912931D01*
X171056911Y-26043282D01*
X171043817Y-26110395D01*
X170986398Y-26234844D01*
X170893658Y-26335343D01*
X170776593Y-26404756D01*
X170646195Y-26435949D01*
X170550208Y-26430733D01*
X170448012Y-26390185D01*
X170350676Y-26315767D01*
X170275903Y-26222761D01*
X170252377Y-26173690D01*
X170226394Y-26116717D01*
X170195786Y-26097834D01*
X170156112Y-26102742D01*
X170091623Y-26121829D01*
X170068078Y-26147820D01*
X170077895Y-26196305D01*
X170092675Y-26233208D01*
X170176940Y-26373973D01*
X170294691Y-26478127D01*
X170441565Y-26542943D01*
X170613198Y-26565694D01*
X170624500Y-26565658D01*
X170720835Y-26561151D01*
X170807122Y-26551274D01*
X170848402Y-26542571D01*
X170972464Y-26480081D01*
X171077290Y-26377893D01*
X171159512Y-26244569D01*
X171215762Y-26088670D01*
X171242673Y-25918755D01*
X171236877Y-25743387D01*
X171211131Y-25620500D01*
X171140916Y-25463452D01*
X171034619Y-25336393D01*
X170899953Y-25243572D01*
X170744631Y-25189238D01*
X170576366Y-25177639D01*
X170446700Y-25199435D01*
G37*
X170446700Y-25199435D02*
X170305654Y-25261679D01*
X170190612Y-25360118D01*
X170129155Y-25450889D01*
X170098855Y-25517029D01*
X170099389Y-25553395D01*
X170136536Y-25574403D01*
X170183646Y-25586793D01*
X170235333Y-25590898D01*
X170259963Y-25562923D01*
X170265263Y-25545151D01*
X170292528Y-25491201D01*
X170342469Y-25428276D01*
X170358535Y-25411996D01*
X170404580Y-25372155D01*
X170449303Y-25349468D01*
X170509163Y-25339178D01*
X170600615Y-25336532D01*
X170619818Y-25336500D01*
X170763793Y-25347913D01*
X170871189Y-25385614D01*
X170951641Y-25454797D01*
X171007659Y-25545549D01*
X171039571Y-25644498D01*
X171059252Y-25773481D01*
X171065450Y-25912931D01*
X171056911Y-26043282D01*
X171043817Y-26110395D01*
X170986398Y-26234844D01*
X170893658Y-26335343D01*
X170776593Y-26404756D01*
X170646195Y-26435949D01*
X170550208Y-26430733D01*
X170448012Y-26390185D01*
X170350676Y-26315767D01*
X170275903Y-26222761D01*
X170252377Y-26173690D01*
X170226394Y-26116717D01*
X170195786Y-26097834D01*
X170156112Y-26102742D01*
X170091623Y-26121829D01*
X170068078Y-26147820D01*
X170077895Y-26196305D01*
X170092675Y-26233208D01*
X170176940Y-26373973D01*
X170294691Y-26478127D01*
X170441565Y-26542943D01*
X170613198Y-26565694D01*
X170624500Y-26565658D01*
X170720835Y-26561151D01*
X170807122Y-26551274D01*
X170848402Y-26542571D01*
X170972464Y-26480081D01*
X171077290Y-26377893D01*
X171159512Y-26244569D01*
X171215762Y-26088670D01*
X171242673Y-25918755D01*
X171236877Y-25743387D01*
X171211131Y-25620500D01*
X171140916Y-25463452D01*
X171034619Y-25336393D01*
X170899953Y-25243572D01*
X170744631Y-25189238D01*
X170576366Y-25177639D01*
X170446700Y-25199435D01*
G36*
X172541449Y-25164036D02*
G01*
X172403617Y-25218958D01*
X172290754Y-25303631D01*
X172252562Y-25340956D01*
X172220728Y-25374821D01*
X172194592Y-25410050D01*
X172173497Y-25451466D01*
X172156785Y-25503892D01*
X172143797Y-25572151D01*
X172133874Y-25661066D01*
X172126360Y-25775460D01*
X172120594Y-25920156D01*
X172115920Y-26099977D01*
X172111678Y-26319747D01*
X172107210Y-26584287D01*
X172105992Y-26657300D01*
X172101754Y-26893479D01*
X172097212Y-27116111D01*
X172092523Y-27319594D01*
X172087838Y-27498326D01*
X172083311Y-27646704D01*
X172079098Y-27759128D01*
X172075350Y-27829993D01*
X172073240Y-27851100D01*
X172056083Y-27904939D01*
X172020742Y-27990603D01*
X171972851Y-28095045D01*
X171932399Y-28177237D01*
X171874798Y-28294005D01*
X171837673Y-28380543D01*
X171816672Y-28450940D01*
X171807442Y-28519285D01*
X171805600Y-28587724D01*
X171827179Y-28801624D01*
X171888713Y-29004916D01*
X171985398Y-29189521D01*
X172112429Y-29347361D01*
X172265001Y-29470356D01*
X172360882Y-29521478D01*
X172486002Y-29559975D01*
X172633016Y-29579989D01*
X172780038Y-29580129D01*
X172905182Y-29559009D01*
X172913134Y-29556510D01*
X173088046Y-29473373D01*
X173239756Y-29349583D01*
X173364142Y-29191570D01*
X173457078Y-29005763D01*
X173514440Y-28798593D01*
X173531786Y-28596684D01*
X173278800Y-28596684D01*
X173278800Y-28597842D01*
X173258551Y-28789394D01*
X173200671Y-28963546D01*
X173109464Y-29112329D01*
X172989231Y-29227776D01*
X172914049Y-29273303D01*
X172773408Y-29325016D01*
X172636640Y-29332931D01*
X172513205Y-29307521D01*
X172376132Y-29241069D01*
X172257195Y-29133706D01*
X172162119Y-28993781D01*
X172096629Y-28829643D01*
X172066874Y-28656566D01*
X172063082Y-28579025D01*
X172066115Y-28517820D01*
X172079790Y-28459235D01*
X172107921Y-28389555D01*
X172154325Y-28295065D01*
X172182951Y-28239310D01*
X172237734Y-28125763D01*
X172283930Y-28016444D01*
X172315525Y-27926340D01*
X172325599Y-27883710D01*
X172329270Y-27835554D01*
X172333470Y-27742472D01*
X172338038Y-27610331D01*
X172342810Y-27445001D01*
X172347624Y-27252349D01*
X172352319Y-27038245D01*
X172356731Y-26808557D01*
X172359034Y-26674375D01*
X172377100Y-25573851D01*
X172471977Y-25486925D01*
X172573937Y-25418992D01*
X172676100Y-25399515D01*
X172773969Y-25429129D01*
X172793232Y-25441419D01*
X172823062Y-25463880D01*
X172847944Y-25488829D01*
X172868325Y-25520809D01*
X172884654Y-25564363D01*
X172897379Y-25624036D01*
X172906948Y-25704370D01*
X172913810Y-25809910D01*
X172918412Y-25945199D01*
X172921203Y-26114780D01*
X172922631Y-26323198D01*
X172923145Y-26574994D01*
X172923200Y-26758899D01*
X172923174Y-27035188D01*
X172923537Y-27265754D01*
X172924955Y-27455671D01*
X172928092Y-27610015D01*
X172933612Y-27733861D01*
X172942182Y-27832286D01*
X172954465Y-27910365D01*
X172971127Y-27973173D01*
X172992831Y-28025785D01*
X173020243Y-28073278D01*
X173054027Y-28120726D01*
X173094849Y-28173205D01*
X173111155Y-28194000D01*
X173187267Y-28294493D01*
X173236165Y-28370743D01*
X173263773Y-28437016D01*
X173276011Y-28507575D01*
X173278800Y-28596684D01*
X173531786Y-28596684D01*
X173532243Y-28591374D01*
X173523824Y-28457350D01*
X173495677Y-28339878D01*
X173442104Y-28224673D01*
X173357409Y-28097450D01*
X173311205Y-28037019D01*
X173189900Y-27882662D01*
X173164500Y-25539700D01*
X173101000Y-25427670D01*
X173041205Y-25341800D01*
X172967759Y-25261377D01*
X172943250Y-25239888D01*
X172822282Y-25173424D01*
X172684676Y-25148499D01*
X172541449Y-25164036D01*
G37*
X172541449Y-25164036D02*
X172403617Y-25218958D01*
X172290754Y-25303631D01*
X172252562Y-25340956D01*
X172220728Y-25374821D01*
X172194592Y-25410050D01*
X172173497Y-25451466D01*
X172156785Y-25503892D01*
X172143797Y-25572151D01*
X172133874Y-25661066D01*
X172126360Y-25775460D01*
X172120594Y-25920156D01*
X172115920Y-26099977D01*
X172111678Y-26319747D01*
X172107210Y-26584287D01*
X172105992Y-26657300D01*
X172101754Y-26893479D01*
X172097212Y-27116111D01*
X172092523Y-27319594D01*
X172087838Y-27498326D01*
X172083311Y-27646704D01*
X172079098Y-27759128D01*
X172075350Y-27829993D01*
X172073240Y-27851100D01*
X172056083Y-27904939D01*
X172020742Y-27990603D01*
X171972851Y-28095045D01*
X171932399Y-28177237D01*
X171874798Y-28294005D01*
X171837673Y-28380543D01*
X171816672Y-28450940D01*
X171807442Y-28519285D01*
X171805600Y-28587724D01*
X171827179Y-28801624D01*
X171888713Y-29004916D01*
X171985398Y-29189521D01*
X172112429Y-29347361D01*
X172265001Y-29470356D01*
X172360882Y-29521478D01*
X172486002Y-29559975D01*
X172633016Y-29579989D01*
X172780038Y-29580129D01*
X172905182Y-29559009D01*
X172913134Y-29556510D01*
X173088046Y-29473373D01*
X173239756Y-29349583D01*
X173364142Y-29191570D01*
X173457078Y-29005763D01*
X173514440Y-28798593D01*
X173531786Y-28596684D01*
X173278800Y-28596684D01*
X173278800Y-28597842D01*
X173258551Y-28789394D01*
X173200671Y-28963546D01*
X173109464Y-29112329D01*
X172989231Y-29227776D01*
X172914049Y-29273303D01*
X172773408Y-29325016D01*
X172636640Y-29332931D01*
X172513205Y-29307521D01*
X172376132Y-29241069D01*
X172257195Y-29133706D01*
X172162119Y-28993781D01*
X172096629Y-28829643D01*
X172066874Y-28656566D01*
X172063082Y-28579025D01*
X172066115Y-28517820D01*
X172079790Y-28459235D01*
X172107921Y-28389555D01*
X172154325Y-28295065D01*
X172182951Y-28239310D01*
X172237734Y-28125763D01*
X172283930Y-28016444D01*
X172315525Y-27926340D01*
X172325599Y-27883710D01*
X172329270Y-27835554D01*
X172333470Y-27742472D01*
X172338038Y-27610331D01*
X172342810Y-27445001D01*
X172347624Y-27252349D01*
X172352319Y-27038245D01*
X172356731Y-26808557D01*
X172359034Y-26674375D01*
X172377100Y-25573851D01*
X172471977Y-25486925D01*
X172573937Y-25418992D01*
X172676100Y-25399515D01*
X172773969Y-25429129D01*
X172793232Y-25441419D01*
X172823062Y-25463880D01*
X172847944Y-25488829D01*
X172868325Y-25520809D01*
X172884654Y-25564363D01*
X172897379Y-25624036D01*
X172906948Y-25704370D01*
X172913810Y-25809910D01*
X172918412Y-25945199D01*
X172921203Y-26114780D01*
X172922631Y-26323198D01*
X172923145Y-26574994D01*
X172923200Y-26758899D01*
X172923174Y-27035188D01*
X172923537Y-27265754D01*
X172924955Y-27455671D01*
X172928092Y-27610015D01*
X172933612Y-27733861D01*
X172942182Y-27832286D01*
X172954465Y-27910365D01*
X172971127Y-27973173D01*
X172992831Y-28025785D01*
X173020243Y-28073278D01*
X173054027Y-28120726D01*
X173094849Y-28173205D01*
X173111155Y-28194000D01*
X173187267Y-28294493D01*
X173236165Y-28370743D01*
X173263773Y-28437016D01*
X173276011Y-28507575D01*
X173278800Y-28596684D01*
X173531786Y-28596684D01*
X173532243Y-28591374D01*
X173523824Y-28457350D01*
X173495677Y-28339878D01*
X173442104Y-28224673D01*
X173357409Y-28097450D01*
X173311205Y-28037019D01*
X173189900Y-27882662D01*
X173164500Y-25539700D01*
X173101000Y-25427670D01*
X173041205Y-25341800D01*
X172967759Y-25261377D01*
X172943250Y-25239888D01*
X172822282Y-25173424D01*
X172684676Y-25148499D01*
X172541449Y-25164036D01*
G36*
X170655905Y-26973509D02*
G01*
X170611028Y-26987772D01*
X170516474Y-27026551D01*
X170451669Y-27071552D01*
X170396497Y-27138699D01*
X170371177Y-27177627D01*
X170317371Y-27277679D01*
X170254582Y-27417507D01*
X170186087Y-27587590D01*
X170115165Y-27778408D01*
X170045094Y-27980437D01*
X169979152Y-28184156D01*
X169920616Y-28380045D01*
X169872766Y-28558581D01*
X169838878Y-28710244D01*
X169833632Y-28738995D01*
X169813869Y-28870478D01*
X169806928Y-28974533D01*
X169812214Y-29072728D01*
X169822382Y-29146500D01*
X169878373Y-29364665D01*
X169969560Y-29557640D01*
X170091101Y-29721389D01*
X170238154Y-29851876D01*
X170405875Y-29945066D01*
X170589422Y-29996926D01*
X170783952Y-30003419D01*
X170842137Y-29996175D01*
X171025721Y-29941866D01*
X171193975Y-29843997D01*
X171341268Y-29708876D01*
X171461968Y-29542809D01*
X171481402Y-29500919D01*
X171145200Y-29500919D01*
X171123193Y-29510903D01*
X171073519Y-29514800D01*
X171052646Y-29512815D01*
X171032172Y-29503793D01*
X171009256Y-29483128D01*
X170981060Y-29446215D01*
X170944743Y-29388450D01*
X170897465Y-29305229D01*
X170846024Y-29209819D01*
X170553406Y-29209819D01*
X170517620Y-29331171D01*
X170446989Y-29428327D01*
X170411194Y-29456770D01*
X170329746Y-29501263D01*
X170256115Y-29511498D01*
X170168977Y-29489117D01*
X170140271Y-29477656D01*
X170063821Y-29427469D01*
X170007331Y-29343135D01*
X170001945Y-29331606D01*
X169961784Y-29197978D01*
X169959984Y-29069838D01*
X169992653Y-28955489D01*
X170055901Y-28863233D01*
X170145836Y-28801372D01*
X170258567Y-28778211D01*
X170261296Y-28778200D01*
X170368194Y-28790351D01*
X170443124Y-28832866D01*
X170500249Y-28914837D01*
X170511802Y-28938999D01*
X170552187Y-29075388D01*
X170553406Y-29209819D01*
X170846024Y-29209819D01*
X170836387Y-29191946D01*
X170758668Y-29043997D01*
X170661469Y-28856778D01*
X170629019Y-28794068D01*
X170538234Y-28618085D01*
X170455437Y-28456663D01*
X170383407Y-28315296D01*
X170324924Y-28199477D01*
X170282770Y-28114700D01*
X170259724Y-28066457D01*
X170256200Y-28057468D01*
X170278151Y-28046066D01*
X170326050Y-28041985D01*
X170346574Y-28044384D01*
X170367133Y-28054405D01*
X170390551Y-28076638D01*
X170419652Y-28115674D01*
X170457258Y-28176104D01*
X170506194Y-28262518D01*
X170569283Y-28379507D01*
X170649347Y-28531662D01*
X170749212Y-28723574D01*
X170770550Y-28764705D01*
X170861637Y-28940740D01*
X170944728Y-29102126D01*
X171017044Y-29243399D01*
X171075804Y-29359098D01*
X171118227Y-29443757D01*
X171141534Y-29491913D01*
X171145200Y-29500919D01*
X171481402Y-29500919D01*
X171550445Y-29352102D01*
X171600543Y-29146822D01*
X171611216Y-29026371D01*
X171609038Y-28896928D01*
X171592812Y-28752538D01*
X171561345Y-28587248D01*
X171522766Y-28432497D01*
X171446597Y-28432497D01*
X171425535Y-28547579D01*
X171422404Y-28559066D01*
X171370643Y-28673141D01*
X171289942Y-28745535D01*
X171179654Y-28776760D01*
X171145200Y-28778200D01*
X171051881Y-28769338D01*
X170984563Y-28737855D01*
X170960324Y-28717687D01*
X170893621Y-28624314D01*
X170855592Y-28504565D01*
X170847436Y-28374795D01*
X170870355Y-28251361D01*
X170919251Y-28158298D01*
X171005116Y-28084987D01*
X171106017Y-28053219D01*
X171210216Y-28061370D01*
X171305972Y-28107814D01*
X171381546Y-28190925D01*
X171399456Y-28224793D01*
X171438473Y-28333199D01*
X171446597Y-28432497D01*
X171522766Y-28432497D01*
X171513443Y-28395103D01*
X171447912Y-28170149D01*
X171363557Y-27906433D01*
X171333907Y-27817395D01*
X171256818Y-27594069D01*
X171189251Y-27414756D01*
X171128065Y-27274269D01*
X171070119Y-27167426D01*
X171012273Y-27089041D01*
X170951384Y-27033931D01*
X170884312Y-26996909D01*
X170824735Y-26977003D01*
X170737413Y-26962429D01*
X170655905Y-26973509D01*
G37*
X170655905Y-26973509D02*
X170611028Y-26987772D01*
X170516474Y-27026551D01*
X170451669Y-27071552D01*
X170396497Y-27138699D01*
X170371177Y-27177627D01*
X170317371Y-27277679D01*
X170254582Y-27417507D01*
X170186087Y-27587590D01*
X170115165Y-27778408D01*
X170045094Y-27980437D01*
X169979152Y-28184156D01*
X169920616Y-28380045D01*
X169872766Y-28558581D01*
X169838878Y-28710244D01*
X169833632Y-28738995D01*
X169813869Y-28870478D01*
X169806928Y-28974533D01*
X169812214Y-29072728D01*
X169822382Y-29146500D01*
X169878373Y-29364665D01*
X169969560Y-29557640D01*
X170091101Y-29721389D01*
X170238154Y-29851876D01*
X170405875Y-29945066D01*
X170589422Y-29996926D01*
X170783952Y-30003419D01*
X170842137Y-29996175D01*
X171025721Y-29941866D01*
X171193975Y-29843997D01*
X171341268Y-29708876D01*
X171461968Y-29542809D01*
X171481402Y-29500919D01*
X171145200Y-29500919D01*
X171123193Y-29510903D01*
X171073519Y-29514800D01*
X171052646Y-29512815D01*
X171032172Y-29503793D01*
X171009256Y-29483128D01*
X170981060Y-29446215D01*
X170944743Y-29388450D01*
X170897465Y-29305229D01*
X170846024Y-29209819D01*
X170553406Y-29209819D01*
X170517620Y-29331171D01*
X170446989Y-29428327D01*
X170411194Y-29456770D01*
X170329746Y-29501263D01*
X170256115Y-29511498D01*
X170168977Y-29489117D01*
X170140271Y-29477656D01*
X170063821Y-29427469D01*
X170007331Y-29343135D01*
X170001945Y-29331606D01*
X169961784Y-29197978D01*
X169959984Y-29069838D01*
X169992653Y-28955489D01*
X170055901Y-28863233D01*
X170145836Y-28801372D01*
X170258567Y-28778211D01*
X170261296Y-28778200D01*
X170368194Y-28790351D01*
X170443124Y-28832866D01*
X170500249Y-28914837D01*
X170511802Y-28938999D01*
X170552187Y-29075388D01*
X170553406Y-29209819D01*
X170846024Y-29209819D01*
X170836387Y-29191946D01*
X170758668Y-29043997D01*
X170661469Y-28856778D01*
X170629019Y-28794068D01*
X170538234Y-28618085D01*
X170455437Y-28456663D01*
X170383407Y-28315296D01*
X170324924Y-28199477D01*
X170282770Y-28114700D01*
X170259724Y-28066457D01*
X170256200Y-28057468D01*
X170278151Y-28046066D01*
X170326050Y-28041985D01*
X170346574Y-28044384D01*
X170367133Y-28054405D01*
X170390551Y-28076638D01*
X170419652Y-28115674D01*
X170457258Y-28176104D01*
X170506194Y-28262518D01*
X170569283Y-28379507D01*
X170649347Y-28531662D01*
X170749212Y-28723574D01*
X170770550Y-28764705D01*
X170861637Y-28940740D01*
X170944728Y-29102126D01*
X171017044Y-29243399D01*
X171075804Y-29359098D01*
X171118227Y-29443757D01*
X171141534Y-29491913D01*
X171145200Y-29500919D01*
X171481402Y-29500919D01*
X171550445Y-29352102D01*
X171600543Y-29146822D01*
X171611216Y-29026371D01*
X171609038Y-28896928D01*
X171592812Y-28752538D01*
X171561345Y-28587248D01*
X171522766Y-28432497D01*
X171446597Y-28432497D01*
X171425535Y-28547579D01*
X171422404Y-28559066D01*
X171370643Y-28673141D01*
X171289942Y-28745535D01*
X171179654Y-28776760D01*
X171145200Y-28778200D01*
X171051881Y-28769338D01*
X170984563Y-28737855D01*
X170960324Y-28717687D01*
X170893621Y-28624314D01*
X170855592Y-28504565D01*
X170847436Y-28374795D01*
X170870355Y-28251361D01*
X170919251Y-28158298D01*
X171005116Y-28084987D01*
X171106017Y-28053219D01*
X171210216Y-28061370D01*
X171305972Y-28107814D01*
X171381546Y-28190925D01*
X171399456Y-28224793D01*
X171438473Y-28333199D01*
X171446597Y-28432497D01*
X171522766Y-28432497D01*
X171513443Y-28395103D01*
X171447912Y-28170149D01*
X171363557Y-27906433D01*
X171333907Y-27817395D01*
X171256818Y-27594069D01*
X171189251Y-27414756D01*
X171128065Y-27274269D01*
X171070119Y-27167426D01*
X171012273Y-27089041D01*
X170951384Y-27033931D01*
X170884312Y-26996909D01*
X170824735Y-26977003D01*
X170737413Y-26962429D01*
X170655905Y-26973509D01*
M02*
