G04 #@! TF.GenerationSoftware,KiCad,Pcbnew,(5.1.5)-3*
G04 #@! TF.CreationDate,2020-12-21T13:09:17+01:00*
G04 #@! TF.ProjectId,epimetheus_adxl345,6570696d-6574-4686-9575-735f6164786c,rev?*
G04 #@! TF.SameCoordinates,Original*
G04 #@! TF.FileFunction,Legend,Bot*
G04 #@! TF.FilePolarity,Positive*
%FSLAX46Y46*%
G04 Gerber Fmt 4.6, Leading zero omitted, Abs format (unit mm)*
G04 Created by KiCad (PCBNEW (5.1.5)-3) date 2020-12-21 13:09:17*
%MOMM*%
%LPD*%
G04 APERTURE LIST*
%ADD10C,0.150000*%
%ADD11C,0.010000*%
G04 APERTURE END LIST*
D10*
X166036380Y-23328380D02*
X165417333Y-23328380D01*
X165750666Y-23709333D01*
X165607809Y-23709333D01*
X165512571Y-23756952D01*
X165464952Y-23804571D01*
X165417333Y-23899809D01*
X165417333Y-24137904D01*
X165464952Y-24233142D01*
X165512571Y-24280761D01*
X165607809Y-24328380D01*
X165893523Y-24328380D01*
X165988761Y-24280761D01*
X166036380Y-24233142D01*
X165036380Y-24042666D02*
X164560190Y-24042666D01*
X165131619Y-24328380D02*
X164798285Y-23328380D01*
X164464952Y-24328380D01*
X164226857Y-23328380D02*
X163560190Y-24328380D01*
X163560190Y-23328380D02*
X164226857Y-24328380D01*
X163179238Y-24328380D02*
X163179238Y-23328380D01*
X162750666Y-24280761D02*
X162607809Y-24328380D01*
X162369714Y-24328380D01*
X162274476Y-24280761D01*
X162226857Y-24233142D01*
X162179238Y-24137904D01*
X162179238Y-24042666D01*
X162226857Y-23947428D01*
X162274476Y-23899809D01*
X162369714Y-23852190D01*
X162560190Y-23804571D01*
X162655428Y-23756952D01*
X162703047Y-23709333D01*
X162750666Y-23614095D01*
X162750666Y-23518857D01*
X162703047Y-23423619D01*
X162655428Y-23376000D01*
X162560190Y-23328380D01*
X162322095Y-23328380D01*
X162179238Y-23376000D01*
X168362380Y-37616000D02*
X168362380Y-37711238D01*
X168410000Y-37806476D01*
X168457619Y-37854095D01*
X168552857Y-37901714D01*
X168743333Y-37949333D01*
X168981428Y-37949333D01*
X169171904Y-37901714D01*
X169267142Y-37854095D01*
X169314761Y-37806476D01*
X169362380Y-37711238D01*
X169362380Y-37616000D01*
X169314761Y-37520761D01*
X169267142Y-37473142D01*
X169171904Y-37425523D01*
X168981428Y-37377904D01*
X168743333Y-37377904D01*
X168552857Y-37425523D01*
X168457619Y-37473142D01*
X168410000Y-37520761D01*
X168362380Y-37616000D01*
X168362380Y-38282666D02*
X169362380Y-38949333D01*
X168362380Y-38949333D02*
X169362380Y-38282666D01*
X169362380Y-39854095D02*
X169362380Y-39282666D01*
X169362380Y-39568380D02*
X168362380Y-39568380D01*
X168505238Y-39473142D01*
X168600476Y-39377904D01*
X168648095Y-39282666D01*
X169362380Y-40282666D02*
X168362380Y-40282666D01*
X168362380Y-40520761D01*
X168410000Y-40663619D01*
X168505238Y-40758857D01*
X168600476Y-40806476D01*
X168790952Y-40854095D01*
X168933809Y-40854095D01*
X169124285Y-40806476D01*
X169219523Y-40758857D01*
X169314761Y-40663619D01*
X169362380Y-40520761D01*
X169362380Y-40282666D01*
X174378761Y-22312380D02*
X174283523Y-22312380D01*
X174188285Y-22360000D01*
X174140666Y-22407619D01*
X174093047Y-22502857D01*
X174045428Y-22693333D01*
X174045428Y-22931428D01*
X174093047Y-23121904D01*
X174140666Y-23217142D01*
X174188285Y-23264761D01*
X174283523Y-23312380D01*
X174378761Y-23312380D01*
X174474000Y-23264761D01*
X174521619Y-23217142D01*
X174569238Y-23121904D01*
X174616857Y-22931428D01*
X174616857Y-22693333D01*
X174569238Y-22502857D01*
X174521619Y-22407619D01*
X174474000Y-22360000D01*
X174378761Y-22312380D01*
X173712095Y-23312380D02*
X173188285Y-22645714D01*
X173712095Y-22645714D02*
X173188285Y-23312380D01*
X172331142Y-22312380D02*
X172807333Y-22312380D01*
X172854952Y-22788571D01*
X172807333Y-22740952D01*
X172712095Y-22693333D01*
X172474000Y-22693333D01*
X172378761Y-22740952D01*
X172331142Y-22788571D01*
X172283523Y-22883809D01*
X172283523Y-23121904D01*
X172331142Y-23217142D01*
X172378761Y-23264761D01*
X172474000Y-23312380D01*
X172712095Y-23312380D01*
X172807333Y-23264761D01*
X172854952Y-23217142D01*
X171950190Y-22312380D02*
X171331142Y-22312380D01*
X171664476Y-22693333D01*
X171521619Y-22693333D01*
X171426380Y-22740952D01*
X171378761Y-22788571D01*
X171331142Y-22883809D01*
X171331142Y-23121904D01*
X171378761Y-23217142D01*
X171426380Y-23264761D01*
X171521619Y-23312380D01*
X171807333Y-23312380D01*
X171902571Y-23264761D01*
X171950190Y-23217142D01*
X177799619Y-21756666D02*
X177323428Y-21756666D01*
X177894857Y-22042380D02*
X177561523Y-21042380D01*
X177228190Y-22042380D01*
X176894857Y-22042380D02*
X176894857Y-21042380D01*
X176656761Y-21042380D01*
X176513904Y-21090000D01*
X176418666Y-21185238D01*
X176371047Y-21280476D01*
X176323428Y-21470952D01*
X176323428Y-21613809D01*
X176371047Y-21804285D01*
X176418666Y-21899523D01*
X176513904Y-21994761D01*
X176656761Y-22042380D01*
X176894857Y-22042380D01*
X175990095Y-21042380D02*
X175323428Y-22042380D01*
X175323428Y-21042380D02*
X175990095Y-22042380D01*
X174466285Y-22042380D02*
X174942476Y-22042380D01*
X174942476Y-21042380D01*
X174228190Y-21042380D02*
X173609142Y-21042380D01*
X173942476Y-21423333D01*
X173799619Y-21423333D01*
X173704380Y-21470952D01*
X173656761Y-21518571D01*
X173609142Y-21613809D01*
X173609142Y-21851904D01*
X173656761Y-21947142D01*
X173704380Y-21994761D01*
X173799619Y-22042380D01*
X174085333Y-22042380D01*
X174180571Y-21994761D01*
X174228190Y-21947142D01*
X172752000Y-21375714D02*
X172752000Y-22042380D01*
X172990095Y-20994761D02*
X173228190Y-21709047D01*
X172609142Y-21709047D01*
X171752000Y-21042380D02*
X172228190Y-21042380D01*
X172275809Y-21518571D01*
X172228190Y-21470952D01*
X172132952Y-21423333D01*
X171894857Y-21423333D01*
X171799619Y-21470952D01*
X171752000Y-21518571D01*
X171704380Y-21613809D01*
X171704380Y-21851904D01*
X171752000Y-21947142D01*
X171799619Y-21994761D01*
X171894857Y-22042380D01*
X172132952Y-22042380D01*
X172228190Y-21994761D01*
X172275809Y-21947142D01*
D11*
G36*
X167839561Y-21238883D02*
G01*
X167803321Y-21291895D01*
X167772673Y-21334055D01*
X167751563Y-21360085D01*
X167744588Y-21365883D01*
X167732462Y-21354219D01*
X167708046Y-21322746D01*
X167675287Y-21276741D01*
X167649616Y-21238883D01*
X167565099Y-21111883D01*
X167355138Y-21111883D01*
X167261538Y-21112917D01*
X167196868Y-21116002D01*
X167161440Y-21121117D01*
X167154598Y-21127125D01*
X167165529Y-21143546D01*
X167190709Y-21180747D01*
X167227500Y-21234854D01*
X167273267Y-21301991D01*
X167325373Y-21378283D01*
X167342244Y-21402958D01*
X167395157Y-21480746D01*
X167441824Y-21550161D01*
X167479768Y-21607451D01*
X167506512Y-21648865D01*
X167519581Y-21670653D01*
X167520470Y-21672887D01*
X167512261Y-21687328D01*
X167489287Y-21722511D01*
X167454028Y-21774775D01*
X167408965Y-21840457D01*
X167356579Y-21915897D01*
X167333706Y-21948589D01*
X167279049Y-22026943D01*
X167230705Y-22097021D01*
X167191153Y-22155164D01*
X167162873Y-22197711D01*
X167148346Y-22221004D01*
X167146941Y-22224133D01*
X167160977Y-22227176D01*
X167199491Y-22229186D01*
X167257092Y-22230031D01*
X167328389Y-22229580D01*
X167352382Y-22229157D01*
X167557823Y-22225000D01*
X167640000Y-22102250D01*
X167675888Y-22050168D01*
X167706237Y-22008942D01*
X167726969Y-21983960D01*
X167733285Y-21978986D01*
X167745682Y-21990433D01*
X167770313Y-22021732D01*
X167803202Y-22067627D01*
X167828910Y-22105471D01*
X167913427Y-22232471D01*
X168121242Y-22232471D01*
X168206448Y-22231899D01*
X168265237Y-22229966D01*
X168301053Y-22226344D01*
X168317343Y-22220708D01*
X168318247Y-22213794D01*
X168306948Y-22196284D01*
X168281522Y-22157977D01*
X168244609Y-22102813D01*
X168198846Y-22034731D01*
X168146871Y-21957672D01*
X168129670Y-21932220D01*
X167951904Y-21669322D01*
X168146389Y-21390602D01*
X168340875Y-21111883D01*
X167924077Y-21111883D01*
X167839561Y-21238883D01*
G37*
X167839561Y-21238883D02*
X167803321Y-21291895D01*
X167772673Y-21334055D01*
X167751563Y-21360085D01*
X167744588Y-21365883D01*
X167732462Y-21354219D01*
X167708046Y-21322746D01*
X167675287Y-21276741D01*
X167649616Y-21238883D01*
X167565099Y-21111883D01*
X167355138Y-21111883D01*
X167261538Y-21112917D01*
X167196868Y-21116002D01*
X167161440Y-21121117D01*
X167154598Y-21127125D01*
X167165529Y-21143546D01*
X167190709Y-21180747D01*
X167227500Y-21234854D01*
X167273267Y-21301991D01*
X167325373Y-21378283D01*
X167342244Y-21402958D01*
X167395157Y-21480746D01*
X167441824Y-21550161D01*
X167479768Y-21607451D01*
X167506512Y-21648865D01*
X167519581Y-21670653D01*
X167520470Y-21672887D01*
X167512261Y-21687328D01*
X167489287Y-21722511D01*
X167454028Y-21774775D01*
X167408965Y-21840457D01*
X167356579Y-21915897D01*
X167333706Y-21948589D01*
X167279049Y-22026943D01*
X167230705Y-22097021D01*
X167191153Y-22155164D01*
X167162873Y-22197711D01*
X167148346Y-22221004D01*
X167146941Y-22224133D01*
X167160977Y-22227176D01*
X167199491Y-22229186D01*
X167257092Y-22230031D01*
X167328389Y-22229580D01*
X167352382Y-22229157D01*
X167557823Y-22225000D01*
X167640000Y-22102250D01*
X167675888Y-22050168D01*
X167706237Y-22008942D01*
X167726969Y-21983960D01*
X167733285Y-21978986D01*
X167745682Y-21990433D01*
X167770313Y-22021732D01*
X167803202Y-22067627D01*
X167828910Y-22105471D01*
X167913427Y-22232471D01*
X168121242Y-22232471D01*
X168206448Y-22231899D01*
X168265237Y-22229966D01*
X168301053Y-22226344D01*
X168317343Y-22220708D01*
X168318247Y-22213794D01*
X168306948Y-22196284D01*
X168281522Y-22157977D01*
X168244609Y-22102813D01*
X168198846Y-22034731D01*
X168146871Y-21957672D01*
X168129670Y-21932220D01*
X167951904Y-21669322D01*
X168146389Y-21390602D01*
X168340875Y-21111883D01*
X167924077Y-21111883D01*
X167839561Y-21238883D01*
G36*
X163986350Y-25221545D02*
G01*
X163925637Y-25223845D01*
X163882778Y-25227283D01*
X163863031Y-25231534D01*
X163862372Y-25232858D01*
X163871270Y-25248425D01*
X163893697Y-25285867D01*
X163927493Y-25341626D01*
X163970495Y-25412145D01*
X164020541Y-25493869D01*
X164065323Y-25566754D01*
X164263294Y-25888500D01*
X164263294Y-26341294D01*
X164606941Y-26341294D01*
X164606941Y-25877733D01*
X164808647Y-25555516D01*
X164863404Y-25467807D01*
X164912512Y-25388691D01*
X164953857Y-25321611D01*
X164985326Y-25270010D01*
X165004804Y-25237332D01*
X165010353Y-25227003D01*
X164996328Y-25224687D01*
X164957917Y-25222766D01*
X164900614Y-25221413D01*
X164829915Y-25220802D01*
X164812382Y-25220784D01*
X164614412Y-25220861D01*
X164527268Y-25362725D01*
X164492038Y-25419476D01*
X164462813Y-25465422D01*
X164442902Y-25495433D01*
X164435727Y-25504589D01*
X164426798Y-25492584D01*
X164405943Y-25460029D01*
X164376420Y-25412112D01*
X164346625Y-25362647D01*
X164261921Y-25220706D01*
X164059657Y-25220706D01*
X163986350Y-25221545D01*
G37*
X163986350Y-25221545D02*
X163925637Y-25223845D01*
X163882778Y-25227283D01*
X163863031Y-25231534D01*
X163862372Y-25232858D01*
X163871270Y-25248425D01*
X163893697Y-25285867D01*
X163927493Y-25341626D01*
X163970495Y-25412145D01*
X164020541Y-25493869D01*
X164065323Y-25566754D01*
X164263294Y-25888500D01*
X164263294Y-26341294D01*
X164606941Y-26341294D01*
X164606941Y-25877733D01*
X164808647Y-25555516D01*
X164863404Y-25467807D01*
X164912512Y-25388691D01*
X164953857Y-25321611D01*
X164985326Y-25270010D01*
X165004804Y-25237332D01*
X165010353Y-25227003D01*
X164996328Y-25224687D01*
X164957917Y-25222766D01*
X164900614Y-25221413D01*
X164829915Y-25220802D01*
X164812382Y-25220784D01*
X164614412Y-25220861D01*
X164527268Y-25362725D01*
X164492038Y-25419476D01*
X164462813Y-25465422D01*
X164442902Y-25495433D01*
X164435727Y-25504589D01*
X164426798Y-25492584D01*
X164405943Y-25460029D01*
X164376420Y-25412112D01*
X164346625Y-25362647D01*
X164261921Y-25220706D01*
X164059657Y-25220706D01*
X163986350Y-25221545D01*
G36*
X167668132Y-22212302D02*
G01*
X167638002Y-22242769D01*
X167592274Y-22290694D01*
X167533158Y-22353714D01*
X167462868Y-22429467D01*
X167383615Y-22515591D01*
X167297610Y-22609723D01*
X167270943Y-22639039D01*
X167177270Y-22742095D01*
X167084622Y-22843974D01*
X166996154Y-22941213D01*
X166915018Y-23030347D01*
X166844369Y-23107911D01*
X166787360Y-23170440D01*
X166747146Y-23214470D01*
X166745776Y-23215967D01*
X166618275Y-23355287D01*
X166744402Y-23472984D01*
X166795552Y-23519615D01*
X166839504Y-23557643D01*
X166871328Y-23582933D01*
X166885651Y-23591399D01*
X166899087Y-23580904D01*
X166929889Y-23550845D01*
X166975489Y-23503919D01*
X167033316Y-23442823D01*
X167100802Y-23370253D01*
X167175378Y-23288908D01*
X167206886Y-23254219D01*
X167513000Y-22916320D01*
X167522242Y-23272896D01*
X167524052Y-23351608D01*
X167526104Y-23456458D01*
X167528343Y-23583701D01*
X167530713Y-23729594D01*
X167533155Y-23890392D01*
X167535614Y-24062352D01*
X167538033Y-24241730D01*
X167540356Y-24424783D01*
X167542525Y-24607766D01*
X167542806Y-24632510D01*
X167554127Y-25635550D01*
X167130152Y-25644450D01*
X167013401Y-25646778D01*
X166873660Y-25649362D01*
X166717817Y-25652086D01*
X166552764Y-25654837D01*
X166385389Y-25657497D01*
X166222582Y-25659952D01*
X166101059Y-25661680D01*
X165495941Y-25670011D01*
X165559778Y-25613447D01*
X165655590Y-25528137D01*
X165751633Y-25441862D01*
X165845322Y-25357012D01*
X165934069Y-25275978D01*
X166015291Y-25201151D01*
X166086400Y-25134923D01*
X166144811Y-25079682D01*
X166187939Y-25037821D01*
X166213197Y-25011730D01*
X166218867Y-25004059D01*
X166209409Y-24987777D01*
X166183401Y-24954808D01*
X166144922Y-24910085D01*
X166102209Y-24863010D01*
X165985129Y-24736903D01*
X165941628Y-24773507D01*
X165922063Y-24790706D01*
X165882746Y-24825899D01*
X165826023Y-24876965D01*
X165754240Y-24941784D01*
X165669744Y-25018235D01*
X165574879Y-25104197D01*
X165471992Y-25197549D01*
X165363430Y-25296171D01*
X165356911Y-25302097D01*
X164815695Y-25794083D01*
X164858923Y-25839836D01*
X164877549Y-25859986D01*
X164914062Y-25899884D01*
X164966284Y-25957134D01*
X165032035Y-26029343D01*
X165109136Y-26114116D01*
X165195409Y-26209057D01*
X165288673Y-26311773D01*
X165383242Y-26416000D01*
X165479713Y-26522211D01*
X165570140Y-26621475D01*
X165652531Y-26711629D01*
X165724897Y-26790508D01*
X165785247Y-26855949D01*
X165831590Y-26905786D01*
X165861937Y-26937856D01*
X165874296Y-26949995D01*
X165874372Y-26950030D01*
X165888799Y-26942094D01*
X165920514Y-26917812D01*
X165964756Y-26881006D01*
X166013995Y-26837971D01*
X166064971Y-26791905D01*
X166106621Y-26753201D01*
X166134502Y-26726061D01*
X166144188Y-26714824D01*
X166134661Y-26702339D01*
X166107398Y-26670567D01*
X166064844Y-26622260D01*
X166009445Y-26560166D01*
X165943647Y-26487038D01*
X165869897Y-26405624D01*
X165838556Y-26371177D01*
X165532314Y-26035000D01*
X166096833Y-26025901D01*
X166253955Y-26023563D01*
X166427841Y-26021309D01*
X166609831Y-26019230D01*
X166791268Y-26017417D01*
X166963491Y-26015959D01*
X167117842Y-26014948D01*
X167170834Y-26014696D01*
X167297117Y-26013905D01*
X167418845Y-26012642D01*
X167531509Y-26010989D01*
X167630600Y-26009031D01*
X167711606Y-26006853D01*
X167770020Y-26004538D01*
X167792807Y-26003079D01*
X167905300Y-25993570D01*
X167912967Y-25775227D01*
X167914175Y-25725379D01*
X167914953Y-25656167D01*
X167915295Y-25566755D01*
X167915193Y-25456307D01*
X167914639Y-25323987D01*
X167913627Y-25168959D01*
X167912149Y-24990387D01*
X167910199Y-24787435D01*
X167907768Y-24559267D01*
X167904849Y-24305047D01*
X167901435Y-24023939D01*
X167897520Y-23715107D01*
X167893095Y-23377715D01*
X167890311Y-23170015D01*
X167889581Y-23082236D01*
X167889815Y-23005716D01*
X167890926Y-22945072D01*
X167892829Y-22904922D01*
X167895437Y-22889882D01*
X167895530Y-22889867D01*
X167908384Y-22899555D01*
X167940562Y-22927003D01*
X167989343Y-22969795D01*
X168052006Y-23025521D01*
X168125829Y-23091765D01*
X168208090Y-23166114D01*
X168251661Y-23205690D01*
X168348378Y-23293569D01*
X168425490Y-23363166D01*
X168485446Y-23416363D01*
X168530691Y-23455046D01*
X168563673Y-23481097D01*
X168586838Y-23496401D01*
X168602633Y-23502842D01*
X168613506Y-23502304D01*
X168621903Y-23496671D01*
X168625216Y-23493307D01*
X168694962Y-23418079D01*
X168753174Y-23353636D01*
X168797519Y-23302655D01*
X168825668Y-23267816D01*
X168835294Y-23251916D01*
X168824588Y-23239774D01*
X168794153Y-23209980D01*
X168746509Y-23164827D01*
X168684179Y-23106610D01*
X168609684Y-23037620D01*
X168525546Y-22960152D01*
X168434287Y-22876500D01*
X168338429Y-22788955D01*
X168240493Y-22699813D01*
X168143001Y-22611365D01*
X168048475Y-22525907D01*
X167959436Y-22445730D01*
X167878407Y-22373128D01*
X167807909Y-22310396D01*
X167750464Y-22259825D01*
X167708594Y-22223710D01*
X167684820Y-22204344D01*
X167680452Y-22201655D01*
X167668132Y-22212302D01*
G37*
X167668132Y-22212302D02*
X167638002Y-22242769D01*
X167592274Y-22290694D01*
X167533158Y-22353714D01*
X167462868Y-22429467D01*
X167383615Y-22515591D01*
X167297610Y-22609723D01*
X167270943Y-22639039D01*
X167177270Y-22742095D01*
X167084622Y-22843974D01*
X166996154Y-22941213D01*
X166915018Y-23030347D01*
X166844369Y-23107911D01*
X166787360Y-23170440D01*
X166747146Y-23214470D01*
X166745776Y-23215967D01*
X166618275Y-23355287D01*
X166744402Y-23472984D01*
X166795552Y-23519615D01*
X166839504Y-23557643D01*
X166871328Y-23582933D01*
X166885651Y-23591399D01*
X166899087Y-23580904D01*
X166929889Y-23550845D01*
X166975489Y-23503919D01*
X167033316Y-23442823D01*
X167100802Y-23370253D01*
X167175378Y-23288908D01*
X167206886Y-23254219D01*
X167513000Y-22916320D01*
X167522242Y-23272896D01*
X167524052Y-23351608D01*
X167526104Y-23456458D01*
X167528343Y-23583701D01*
X167530713Y-23729594D01*
X167533155Y-23890392D01*
X167535614Y-24062352D01*
X167538033Y-24241730D01*
X167540356Y-24424783D01*
X167542525Y-24607766D01*
X167542806Y-24632510D01*
X167554127Y-25635550D01*
X167130152Y-25644450D01*
X167013401Y-25646778D01*
X166873660Y-25649362D01*
X166717817Y-25652086D01*
X166552764Y-25654837D01*
X166385389Y-25657497D01*
X166222582Y-25659952D01*
X166101059Y-25661680D01*
X165495941Y-25670011D01*
X165559778Y-25613447D01*
X165655590Y-25528137D01*
X165751633Y-25441862D01*
X165845322Y-25357012D01*
X165934069Y-25275978D01*
X166015291Y-25201151D01*
X166086400Y-25134923D01*
X166144811Y-25079682D01*
X166187939Y-25037821D01*
X166213197Y-25011730D01*
X166218867Y-25004059D01*
X166209409Y-24987777D01*
X166183401Y-24954808D01*
X166144922Y-24910085D01*
X166102209Y-24863010D01*
X165985129Y-24736903D01*
X165941628Y-24773507D01*
X165922063Y-24790706D01*
X165882746Y-24825899D01*
X165826023Y-24876965D01*
X165754240Y-24941784D01*
X165669744Y-25018235D01*
X165574879Y-25104197D01*
X165471992Y-25197549D01*
X165363430Y-25296171D01*
X165356911Y-25302097D01*
X164815695Y-25794083D01*
X164858923Y-25839836D01*
X164877549Y-25859986D01*
X164914062Y-25899884D01*
X164966284Y-25957134D01*
X165032035Y-26029343D01*
X165109136Y-26114116D01*
X165195409Y-26209057D01*
X165288673Y-26311773D01*
X165383242Y-26416000D01*
X165479713Y-26522211D01*
X165570140Y-26621475D01*
X165652531Y-26711629D01*
X165724897Y-26790508D01*
X165785247Y-26855949D01*
X165831590Y-26905786D01*
X165861937Y-26937856D01*
X165874296Y-26949995D01*
X165874372Y-26950030D01*
X165888799Y-26942094D01*
X165920514Y-26917812D01*
X165964756Y-26881006D01*
X166013995Y-26837971D01*
X166064971Y-26791905D01*
X166106621Y-26753201D01*
X166134502Y-26726061D01*
X166144188Y-26714824D01*
X166134661Y-26702339D01*
X166107398Y-26670567D01*
X166064844Y-26622260D01*
X166009445Y-26560166D01*
X165943647Y-26487038D01*
X165869897Y-26405624D01*
X165838556Y-26371177D01*
X165532314Y-26035000D01*
X166096833Y-26025901D01*
X166253955Y-26023563D01*
X166427841Y-26021309D01*
X166609831Y-26019230D01*
X166791268Y-26017417D01*
X166963491Y-26015959D01*
X167117842Y-26014948D01*
X167170834Y-26014696D01*
X167297117Y-26013905D01*
X167418845Y-26012642D01*
X167531509Y-26010989D01*
X167630600Y-26009031D01*
X167711606Y-26006853D01*
X167770020Y-26004538D01*
X167792807Y-26003079D01*
X167905300Y-25993570D01*
X167912967Y-25775227D01*
X167914175Y-25725379D01*
X167914953Y-25656167D01*
X167915295Y-25566755D01*
X167915193Y-25456307D01*
X167914639Y-25323987D01*
X167913627Y-25168959D01*
X167912149Y-24990387D01*
X167910199Y-24787435D01*
X167907768Y-24559267D01*
X167904849Y-24305047D01*
X167901435Y-24023939D01*
X167897520Y-23715107D01*
X167893095Y-23377715D01*
X167890311Y-23170015D01*
X167889581Y-23082236D01*
X167889815Y-23005716D01*
X167890926Y-22945072D01*
X167892829Y-22904922D01*
X167895437Y-22889882D01*
X167895530Y-22889867D01*
X167908384Y-22899555D01*
X167940562Y-22927003D01*
X167989343Y-22969795D01*
X168052006Y-23025521D01*
X168125829Y-23091765D01*
X168208090Y-23166114D01*
X168251661Y-23205690D01*
X168348378Y-23293569D01*
X168425490Y-23363166D01*
X168485446Y-23416363D01*
X168530691Y-23455046D01*
X168563673Y-23481097D01*
X168586838Y-23496401D01*
X168602633Y-23502842D01*
X168613506Y-23502304D01*
X168621903Y-23496671D01*
X168625216Y-23493307D01*
X168694962Y-23418079D01*
X168753174Y-23353636D01*
X168797519Y-23302655D01*
X168825668Y-23267816D01*
X168835294Y-23251916D01*
X168824588Y-23239774D01*
X168794153Y-23209980D01*
X168746509Y-23164827D01*
X168684179Y-23106610D01*
X168609684Y-23037620D01*
X168525546Y-22960152D01*
X168434287Y-22876500D01*
X168338429Y-22788955D01*
X168240493Y-22699813D01*
X168143001Y-22611365D01*
X168048475Y-22525907D01*
X167959436Y-22445730D01*
X167878407Y-22373128D01*
X167807909Y-22310396D01*
X167750464Y-22259825D01*
X167708594Y-22223710D01*
X167684820Y-22204344D01*
X167680452Y-22201655D01*
X167668132Y-22212302D01*
G36*
X167027412Y-26477458D02*
G01*
X167229533Y-26726876D01*
X167431655Y-26976294D01*
X167222063Y-26980440D01*
X167012470Y-26984585D01*
X167012470Y-27327412D01*
X167938823Y-27327412D01*
X167938823Y-27061584D01*
X167531379Y-26557942D01*
X167727631Y-26553773D01*
X167923882Y-26549604D01*
X167923882Y-26206824D01*
X167027412Y-26206824D01*
X167027412Y-26477458D01*
G37*
X167027412Y-26477458D02*
X167229533Y-26726876D01*
X167431655Y-26976294D01*
X167222063Y-26980440D01*
X167012470Y-26984585D01*
X167012470Y-27327412D01*
X167938823Y-27327412D01*
X167938823Y-27061584D01*
X167531379Y-26557942D01*
X167727631Y-26553773D01*
X167923882Y-26549604D01*
X167923882Y-26206824D01*
X167027412Y-26206824D01*
X167027412Y-26477458D01*
M02*
