G04 #@! TF.GenerationSoftware,KiCad,Pcbnew,(5.1.5)-3*
G04 #@! TF.CreationDate,2020-12-21T13:09:17+01:00*
G04 #@! TF.ProjectId,epimetheus_adxl345,6570696d-6574-4686-9575-735f6164786c,rev?*
G04 #@! TF.SameCoordinates,Original*
G04 #@! TF.FileFunction,Copper,L2,Bot*
G04 #@! TF.FilePolarity,Positive*
%FSLAX46Y46*%
G04 Gerber Fmt 4.6, Leading zero omitted, Abs format (unit mm)*
G04 Created by KiCad (PCBNEW (5.1.5)-3) date 2020-12-21 13:09:17*
%MOMM*%
%LPD*%
G04 APERTURE LIST*
%ADD10C,1.524000*%
%ADD11O,1.700000X1.700000*%
%ADD12R,1.700000X1.700000*%
%ADD13C,0.250000*%
%ADD14C,0.254000*%
G04 APERTURE END LIST*
D10*
X179324000Y-22352000D03*
X179324000Y-24892000D03*
X179324000Y-27432000D03*
X179324000Y-29972000D03*
X179324000Y-32512000D03*
X179324000Y-35052000D03*
X179324000Y-37592000D03*
X179324000Y-40132000D03*
D11*
X170942000Y-37592000D03*
D12*
X170942000Y-40132000D03*
D13*
X177292000Y-34882000D02*
X177292000Y-29464000D01*
X172042000Y-40132000D02*
X177292000Y-34882000D01*
X170942000Y-40132000D02*
X172042000Y-40132000D01*
X179324000Y-27432000D02*
X177292000Y-29464000D01*
D14*
G36*
X177980686Y-35459490D02*
G01*
X178085995Y-35713727D01*
X178238880Y-35942535D01*
X178433465Y-36137120D01*
X178662273Y-36290005D01*
X178739515Y-36322000D01*
X178662273Y-36353995D01*
X178433465Y-36506880D01*
X178238880Y-36701465D01*
X178085995Y-36930273D01*
X177980686Y-37184510D01*
X177927000Y-37454408D01*
X177927000Y-37729592D01*
X177980686Y-37999490D01*
X178085995Y-38253727D01*
X178238880Y-38482535D01*
X178433465Y-38677120D01*
X178662273Y-38830005D01*
X178733943Y-38859692D01*
X178720977Y-38864364D01*
X178605020Y-38926344D01*
X178538040Y-39166435D01*
X179324000Y-39952395D01*
X180109960Y-39166435D01*
X180042980Y-38926344D01*
X179907240Y-38862515D01*
X179985727Y-38830005D01*
X180214535Y-38677120D01*
X180409120Y-38482535D01*
X180442000Y-38433326D01*
X180442000Y-39388566D01*
X180289565Y-39346040D01*
X179503605Y-40132000D01*
X179517748Y-40146143D01*
X179338143Y-40325748D01*
X179324000Y-40311605D01*
X179309858Y-40325748D01*
X179130253Y-40146143D01*
X179144395Y-40132000D01*
X178358435Y-39346040D01*
X178118344Y-39413020D01*
X178001244Y-39662048D01*
X177934977Y-39929135D01*
X177922090Y-40204017D01*
X177963078Y-40476133D01*
X178056364Y-40735023D01*
X178118344Y-40850980D01*
X178358433Y-40917959D01*
X178280392Y-40996000D01*
X172428693Y-40996000D01*
X172430072Y-40982000D01*
X172430072Y-40786326D01*
X172466276Y-40766974D01*
X172582001Y-40672001D01*
X172605804Y-40642997D01*
X177803004Y-35445798D01*
X177832001Y-35422001D01*
X177926974Y-35306276D01*
X177943908Y-35274595D01*
X177980686Y-35459490D01*
G37*
X177980686Y-35459490D02*
X178085995Y-35713727D01*
X178238880Y-35942535D01*
X178433465Y-36137120D01*
X178662273Y-36290005D01*
X178739515Y-36322000D01*
X178662273Y-36353995D01*
X178433465Y-36506880D01*
X178238880Y-36701465D01*
X178085995Y-36930273D01*
X177980686Y-37184510D01*
X177927000Y-37454408D01*
X177927000Y-37729592D01*
X177980686Y-37999490D01*
X178085995Y-38253727D01*
X178238880Y-38482535D01*
X178433465Y-38677120D01*
X178662273Y-38830005D01*
X178733943Y-38859692D01*
X178720977Y-38864364D01*
X178605020Y-38926344D01*
X178538040Y-39166435D01*
X179324000Y-39952395D01*
X180109960Y-39166435D01*
X180042980Y-38926344D01*
X179907240Y-38862515D01*
X179985727Y-38830005D01*
X180214535Y-38677120D01*
X180409120Y-38482535D01*
X180442000Y-38433326D01*
X180442000Y-39388566D01*
X180289565Y-39346040D01*
X179503605Y-40132000D01*
X179517748Y-40146143D01*
X179338143Y-40325748D01*
X179324000Y-40311605D01*
X179309858Y-40325748D01*
X179130253Y-40146143D01*
X179144395Y-40132000D01*
X178358435Y-39346040D01*
X178118344Y-39413020D01*
X178001244Y-39662048D01*
X177934977Y-39929135D01*
X177922090Y-40204017D01*
X177963078Y-40476133D01*
X178056364Y-40735023D01*
X178118344Y-40850980D01*
X178358433Y-40917959D01*
X178280392Y-40996000D01*
X172428693Y-40996000D01*
X172430072Y-40982000D01*
X172430072Y-40786326D01*
X172466276Y-40766974D01*
X172582001Y-40672001D01*
X172605804Y-40642997D01*
X177803004Y-35445798D01*
X177832001Y-35422001D01*
X177926974Y-35306276D01*
X177943908Y-35274595D01*
X177980686Y-35459490D01*
M02*
