G04 #@! TF.GenerationSoftware,KiCad,Pcbnew,(5.1.5)-3*
G04 #@! TF.CreationDate,2020-12-21T13:09:17+01:00*
G04 #@! TF.ProjectId,epimetheus_adxl345,6570696d-6574-4686-9575-735f6164786c,rev?*
G04 #@! TF.SameCoordinates,Original*
G04 #@! TF.FileFunction,Copper,L1,Top*
G04 #@! TF.FilePolarity,Positive*
%FSLAX46Y46*%
G04 Gerber Fmt 4.6, Leading zero omitted, Abs format (unit mm)*
G04 Created by KiCad (PCBNEW (5.1.5)-3) date 2020-12-21 13:09:17*
%MOMM*%
%LPD*%
G04 APERTURE LIST*
%ADD10C,1.524000*%
%ADD11O,1.700000X1.700000*%
%ADD12R,1.700000X1.700000*%
%ADD13C,0.100000*%
%ADD14C,0.250000*%
%ADD15C,0.254000*%
G04 APERTURE END LIST*
D10*
X179324000Y-22352000D03*
X179324000Y-24892000D03*
X179324000Y-27432000D03*
X179324000Y-29972000D03*
X179324000Y-32512000D03*
X179324000Y-35052000D03*
X179324000Y-37592000D03*
X179324000Y-40132000D03*
D11*
X170942000Y-37592000D03*
D12*
X170942000Y-40132000D03*
G04 #@! TA.AperFunction,SMDPad,CuDef*
D13*
G36*
X165302405Y-24817445D02*
G01*
X165331527Y-24821764D01*
X165360085Y-24828918D01*
X165387805Y-24838836D01*
X165414419Y-24851424D01*
X165439671Y-24866559D01*
X165463318Y-24884097D01*
X165485132Y-24903868D01*
X165504903Y-24925682D01*
X165522441Y-24949329D01*
X165537576Y-24974581D01*
X165550164Y-25001195D01*
X165560082Y-25028915D01*
X165567236Y-25057473D01*
X165571555Y-25086595D01*
X165573000Y-25116000D01*
X165573000Y-27716000D01*
X165571555Y-27745405D01*
X165567236Y-27774527D01*
X165560082Y-27803085D01*
X165550164Y-27830805D01*
X165537576Y-27857419D01*
X165522441Y-27882671D01*
X165504903Y-27906318D01*
X165485132Y-27928132D01*
X165463318Y-27947903D01*
X165439671Y-27965441D01*
X165414419Y-27980576D01*
X165387805Y-27993164D01*
X165360085Y-28003082D01*
X165331527Y-28010236D01*
X165302405Y-28014555D01*
X165273000Y-28016000D01*
X164673000Y-28016000D01*
X164643595Y-28014555D01*
X164614473Y-28010236D01*
X164585915Y-28003082D01*
X164558195Y-27993164D01*
X164531581Y-27980576D01*
X164506329Y-27965441D01*
X164482682Y-27947903D01*
X164460868Y-27928132D01*
X164441097Y-27906318D01*
X164423559Y-27882671D01*
X164408424Y-27857419D01*
X164395836Y-27830805D01*
X164385918Y-27803085D01*
X164378764Y-27774527D01*
X164374445Y-27745405D01*
X164373000Y-27716000D01*
X164373000Y-25116000D01*
X164374445Y-25086595D01*
X164378764Y-25057473D01*
X164385918Y-25028915D01*
X164395836Y-25001195D01*
X164408424Y-24974581D01*
X164423559Y-24949329D01*
X164441097Y-24925682D01*
X164460868Y-24903868D01*
X164482682Y-24884097D01*
X164506329Y-24866559D01*
X164531581Y-24851424D01*
X164558195Y-24838836D01*
X164585915Y-24828918D01*
X164614473Y-24821764D01*
X164643595Y-24817445D01*
X164673000Y-24816000D01*
X165273000Y-24816000D01*
X165302405Y-24817445D01*
G37*
G04 #@! TD.AperFunction*
G04 #@! TA.AperFunction,SMDPad,CuDef*
G36*
X168302405Y-24817445D02*
G01*
X168331527Y-24821764D01*
X168360085Y-24828918D01*
X168387805Y-24838836D01*
X168414419Y-24851424D01*
X168439671Y-24866559D01*
X168463318Y-24884097D01*
X168485132Y-24903868D01*
X168504903Y-24925682D01*
X168522441Y-24949329D01*
X168537576Y-24974581D01*
X168550164Y-25001195D01*
X168560082Y-25028915D01*
X168567236Y-25057473D01*
X168571555Y-25086595D01*
X168573000Y-25116000D01*
X168573000Y-27716000D01*
X168571555Y-27745405D01*
X168567236Y-27774527D01*
X168560082Y-27803085D01*
X168550164Y-27830805D01*
X168537576Y-27857419D01*
X168522441Y-27882671D01*
X168504903Y-27906318D01*
X168485132Y-27928132D01*
X168463318Y-27947903D01*
X168439671Y-27965441D01*
X168414419Y-27980576D01*
X168387805Y-27993164D01*
X168360085Y-28003082D01*
X168331527Y-28010236D01*
X168302405Y-28014555D01*
X168273000Y-28016000D01*
X167673000Y-28016000D01*
X167643595Y-28014555D01*
X167614473Y-28010236D01*
X167585915Y-28003082D01*
X167558195Y-27993164D01*
X167531581Y-27980576D01*
X167506329Y-27965441D01*
X167482682Y-27947903D01*
X167460868Y-27928132D01*
X167441097Y-27906318D01*
X167423559Y-27882671D01*
X167408424Y-27857419D01*
X167395836Y-27830805D01*
X167385918Y-27803085D01*
X167378764Y-27774527D01*
X167374445Y-27745405D01*
X167373000Y-27716000D01*
X167373000Y-25116000D01*
X167374445Y-25086595D01*
X167378764Y-25057473D01*
X167385918Y-25028915D01*
X167395836Y-25001195D01*
X167408424Y-24974581D01*
X167423559Y-24949329D01*
X167441097Y-24925682D01*
X167460868Y-24903868D01*
X167482682Y-24884097D01*
X167506329Y-24866559D01*
X167531581Y-24851424D01*
X167558195Y-24838836D01*
X167585915Y-24828918D01*
X167614473Y-24821764D01*
X167643595Y-24817445D01*
X167673000Y-24816000D01*
X168273000Y-24816000D01*
X168302405Y-24817445D01*
G37*
G04 #@! TD.AperFunction*
G04 #@! TA.AperFunction,SMDPad,CuDef*
G36*
X172287405Y-24817445D02*
G01*
X172316527Y-24821764D01*
X172345085Y-24828918D01*
X172372805Y-24838836D01*
X172399419Y-24851424D01*
X172424671Y-24866559D01*
X172448318Y-24884097D01*
X172470132Y-24903868D01*
X172489903Y-24925682D01*
X172507441Y-24949329D01*
X172522576Y-24974581D01*
X172535164Y-25001195D01*
X172545082Y-25028915D01*
X172552236Y-25057473D01*
X172556555Y-25086595D01*
X172558000Y-25116000D01*
X172558000Y-27716000D01*
X172556555Y-27745405D01*
X172552236Y-27774527D01*
X172545082Y-27803085D01*
X172535164Y-27830805D01*
X172522576Y-27857419D01*
X172507441Y-27882671D01*
X172489903Y-27906318D01*
X172470132Y-27928132D01*
X172448318Y-27947903D01*
X172424671Y-27965441D01*
X172399419Y-27980576D01*
X172372805Y-27993164D01*
X172345085Y-28003082D01*
X172316527Y-28010236D01*
X172287405Y-28014555D01*
X172258000Y-28016000D01*
X171658000Y-28016000D01*
X171628595Y-28014555D01*
X171599473Y-28010236D01*
X171570915Y-28003082D01*
X171543195Y-27993164D01*
X171516581Y-27980576D01*
X171491329Y-27965441D01*
X171467682Y-27947903D01*
X171445868Y-27928132D01*
X171426097Y-27906318D01*
X171408559Y-27882671D01*
X171393424Y-27857419D01*
X171380836Y-27830805D01*
X171370918Y-27803085D01*
X171363764Y-27774527D01*
X171359445Y-27745405D01*
X171358000Y-27716000D01*
X171358000Y-25116000D01*
X171359445Y-25086595D01*
X171363764Y-25057473D01*
X171370918Y-25028915D01*
X171380836Y-25001195D01*
X171393424Y-24974581D01*
X171408559Y-24949329D01*
X171426097Y-24925682D01*
X171445868Y-24903868D01*
X171467682Y-24884097D01*
X171491329Y-24866559D01*
X171516581Y-24851424D01*
X171543195Y-24838836D01*
X171570915Y-24828918D01*
X171599473Y-24821764D01*
X171628595Y-24817445D01*
X171658000Y-24816000D01*
X172258000Y-24816000D01*
X172287405Y-24817445D01*
G37*
G04 #@! TD.AperFunction*
G04 #@! TA.AperFunction,SMDPad,CuDef*
G36*
X173402405Y-33961445D02*
G01*
X173431527Y-33965764D01*
X173460085Y-33972918D01*
X173487805Y-33982836D01*
X173514419Y-33995424D01*
X173539671Y-34010559D01*
X173563318Y-34028097D01*
X173585132Y-34047868D01*
X173604903Y-34069682D01*
X173622441Y-34093329D01*
X173637576Y-34118581D01*
X173650164Y-34145195D01*
X173660082Y-34172915D01*
X173667236Y-34201473D01*
X173671555Y-34230595D01*
X173673000Y-34260000D01*
X173673000Y-36860000D01*
X173671555Y-36889405D01*
X173667236Y-36918527D01*
X173660082Y-36947085D01*
X173650164Y-36974805D01*
X173637576Y-37001419D01*
X173622441Y-37026671D01*
X173604903Y-37050318D01*
X173585132Y-37072132D01*
X173563318Y-37091903D01*
X173539671Y-37109441D01*
X173514419Y-37124576D01*
X173487805Y-37137164D01*
X173460085Y-37147082D01*
X173431527Y-37154236D01*
X173402405Y-37158555D01*
X173373000Y-37160000D01*
X172773000Y-37160000D01*
X172743595Y-37158555D01*
X172714473Y-37154236D01*
X172685915Y-37147082D01*
X172658195Y-37137164D01*
X172631581Y-37124576D01*
X172606329Y-37109441D01*
X172582682Y-37091903D01*
X172560868Y-37072132D01*
X172541097Y-37050318D01*
X172523559Y-37026671D01*
X172508424Y-37001419D01*
X172495836Y-36974805D01*
X172485918Y-36947085D01*
X172478764Y-36918527D01*
X172474445Y-36889405D01*
X172473000Y-36860000D01*
X172473000Y-34260000D01*
X172474445Y-34230595D01*
X172478764Y-34201473D01*
X172485918Y-34172915D01*
X172495836Y-34145195D01*
X172508424Y-34118581D01*
X172523559Y-34093329D01*
X172541097Y-34069682D01*
X172560868Y-34047868D01*
X172582682Y-34028097D01*
X172606329Y-34010559D01*
X172631581Y-33995424D01*
X172658195Y-33982836D01*
X172685915Y-33972918D01*
X172714473Y-33965764D01*
X172743595Y-33961445D01*
X172773000Y-33960000D01*
X173373000Y-33960000D01*
X173402405Y-33961445D01*
G37*
G04 #@! TD.AperFunction*
D14*
X178246370Y-24892000D02*
X176976370Y-23622000D01*
X179324000Y-24892000D02*
X178246370Y-24892000D01*
X167767000Y-23622000D02*
X164973000Y-26416000D01*
X176976370Y-23622000D02*
X167767000Y-23622000D01*
X180014999Y-25979001D02*
X174569001Y-25979001D01*
X180411001Y-25582999D02*
X180014999Y-25979001D01*
X179324000Y-22352000D02*
X180411001Y-23439001D01*
X180411001Y-23439001D02*
X180411001Y-25582999D01*
X174569001Y-25979001D02*
X172720000Y-24130000D01*
X170259000Y-24130000D02*
X167973000Y-26416000D01*
X172720000Y-24130000D02*
X170259000Y-24130000D01*
X172558000Y-30826000D02*
X179324000Y-37592000D01*
X171958000Y-26416000D02*
X172558000Y-27016000D01*
X172558000Y-27016000D02*
X172558000Y-30826000D01*
X170092001Y-33291999D02*
X172558000Y-30826000D01*
X170092001Y-36742001D02*
X170092001Y-33291999D01*
X170942000Y-37592000D02*
X170092001Y-36742001D01*
D15*
G36*
X177957628Y-37300430D02*
G01*
X177927000Y-37454408D01*
X177927000Y-37729592D01*
X177980686Y-37999490D01*
X178085995Y-38253727D01*
X178238880Y-38482535D01*
X178433465Y-38677120D01*
X178662273Y-38830005D01*
X178733943Y-38859692D01*
X178720977Y-38864364D01*
X178605020Y-38926344D01*
X178538040Y-39166435D01*
X179324000Y-39952395D01*
X180109960Y-39166435D01*
X180042980Y-38926344D01*
X179907240Y-38862515D01*
X179985727Y-38830005D01*
X180214535Y-38677120D01*
X180409120Y-38482535D01*
X180442000Y-38433326D01*
X180442000Y-39388566D01*
X180289565Y-39346040D01*
X179503605Y-40132000D01*
X179517748Y-40146143D01*
X179338143Y-40325748D01*
X179324000Y-40311605D01*
X179309858Y-40325748D01*
X179130253Y-40146143D01*
X179144395Y-40132000D01*
X178358435Y-39346040D01*
X178118344Y-39413020D01*
X178001244Y-39662048D01*
X177934977Y-39929135D01*
X177922090Y-40204017D01*
X177963078Y-40476133D01*
X178056364Y-40735023D01*
X178118344Y-40850980D01*
X178358433Y-40917959D01*
X178280392Y-40996000D01*
X172428693Y-40996000D01*
X172430072Y-40982000D01*
X172430072Y-39282000D01*
X172417812Y-39157518D01*
X172381502Y-39037820D01*
X172322537Y-38927506D01*
X172243185Y-38830815D01*
X172146494Y-38751463D01*
X172036180Y-38692498D01*
X171963620Y-38670487D01*
X172095475Y-38538632D01*
X172257990Y-38295411D01*
X172369932Y-38025158D01*
X172416215Y-37792479D01*
X172473000Y-37798072D01*
X172787250Y-37795000D01*
X172946000Y-37636250D01*
X172946000Y-35687000D01*
X173200000Y-35687000D01*
X173200000Y-37636250D01*
X173358750Y-37795000D01*
X173673000Y-37798072D01*
X173797482Y-37785812D01*
X173917180Y-37749502D01*
X174027494Y-37690537D01*
X174124185Y-37611185D01*
X174203537Y-37514494D01*
X174262502Y-37404180D01*
X174298812Y-37284482D01*
X174311072Y-37160000D01*
X174308000Y-35845750D01*
X174149250Y-35687000D01*
X173200000Y-35687000D01*
X172946000Y-35687000D01*
X171996750Y-35687000D01*
X171838000Y-35845750D01*
X171836696Y-36403822D01*
X171645411Y-36276010D01*
X171375158Y-36164068D01*
X171088260Y-36107000D01*
X170852001Y-36107000D01*
X170852001Y-33960000D01*
X171834928Y-33960000D01*
X171838000Y-35274250D01*
X171996750Y-35433000D01*
X172946000Y-35433000D01*
X172946000Y-33483750D01*
X173200000Y-33483750D01*
X173200000Y-35433000D01*
X174149250Y-35433000D01*
X174308000Y-35274250D01*
X174311072Y-33960000D01*
X174298812Y-33835518D01*
X174262502Y-33715820D01*
X174203537Y-33605506D01*
X174124185Y-33508815D01*
X174027494Y-33429463D01*
X173917180Y-33370498D01*
X173797482Y-33334188D01*
X173673000Y-33321928D01*
X173358750Y-33325000D01*
X173200000Y-33483750D01*
X172946000Y-33483750D01*
X172787250Y-33325000D01*
X172473000Y-33321928D01*
X172348518Y-33334188D01*
X172228820Y-33370498D01*
X172118506Y-33429463D01*
X172021815Y-33508815D01*
X171942463Y-33605506D01*
X171883498Y-33715820D01*
X171847188Y-33835518D01*
X171834928Y-33960000D01*
X170852001Y-33960000D01*
X170852001Y-33606800D01*
X172558000Y-31900801D01*
X177957628Y-37300430D01*
G37*
X177957628Y-37300430D02*
X177927000Y-37454408D01*
X177927000Y-37729592D01*
X177980686Y-37999490D01*
X178085995Y-38253727D01*
X178238880Y-38482535D01*
X178433465Y-38677120D01*
X178662273Y-38830005D01*
X178733943Y-38859692D01*
X178720977Y-38864364D01*
X178605020Y-38926344D01*
X178538040Y-39166435D01*
X179324000Y-39952395D01*
X180109960Y-39166435D01*
X180042980Y-38926344D01*
X179907240Y-38862515D01*
X179985727Y-38830005D01*
X180214535Y-38677120D01*
X180409120Y-38482535D01*
X180442000Y-38433326D01*
X180442000Y-39388566D01*
X180289565Y-39346040D01*
X179503605Y-40132000D01*
X179517748Y-40146143D01*
X179338143Y-40325748D01*
X179324000Y-40311605D01*
X179309858Y-40325748D01*
X179130253Y-40146143D01*
X179144395Y-40132000D01*
X178358435Y-39346040D01*
X178118344Y-39413020D01*
X178001244Y-39662048D01*
X177934977Y-39929135D01*
X177922090Y-40204017D01*
X177963078Y-40476133D01*
X178056364Y-40735023D01*
X178118344Y-40850980D01*
X178358433Y-40917959D01*
X178280392Y-40996000D01*
X172428693Y-40996000D01*
X172430072Y-40982000D01*
X172430072Y-39282000D01*
X172417812Y-39157518D01*
X172381502Y-39037820D01*
X172322537Y-38927506D01*
X172243185Y-38830815D01*
X172146494Y-38751463D01*
X172036180Y-38692498D01*
X171963620Y-38670487D01*
X172095475Y-38538632D01*
X172257990Y-38295411D01*
X172369932Y-38025158D01*
X172416215Y-37792479D01*
X172473000Y-37798072D01*
X172787250Y-37795000D01*
X172946000Y-37636250D01*
X172946000Y-35687000D01*
X173200000Y-35687000D01*
X173200000Y-37636250D01*
X173358750Y-37795000D01*
X173673000Y-37798072D01*
X173797482Y-37785812D01*
X173917180Y-37749502D01*
X174027494Y-37690537D01*
X174124185Y-37611185D01*
X174203537Y-37514494D01*
X174262502Y-37404180D01*
X174298812Y-37284482D01*
X174311072Y-37160000D01*
X174308000Y-35845750D01*
X174149250Y-35687000D01*
X173200000Y-35687000D01*
X172946000Y-35687000D01*
X171996750Y-35687000D01*
X171838000Y-35845750D01*
X171836696Y-36403822D01*
X171645411Y-36276010D01*
X171375158Y-36164068D01*
X171088260Y-36107000D01*
X170852001Y-36107000D01*
X170852001Y-33960000D01*
X171834928Y-33960000D01*
X171838000Y-35274250D01*
X171996750Y-35433000D01*
X172946000Y-35433000D01*
X172946000Y-33483750D01*
X173200000Y-33483750D01*
X173200000Y-35433000D01*
X174149250Y-35433000D01*
X174308000Y-35274250D01*
X174311072Y-33960000D01*
X174298812Y-33835518D01*
X174262502Y-33715820D01*
X174203537Y-33605506D01*
X174124185Y-33508815D01*
X174027494Y-33429463D01*
X173917180Y-33370498D01*
X173797482Y-33334188D01*
X173673000Y-33321928D01*
X173358750Y-33325000D01*
X173200000Y-33483750D01*
X172946000Y-33483750D01*
X172787250Y-33325000D01*
X172473000Y-33321928D01*
X172348518Y-33334188D01*
X172228820Y-33370498D01*
X172118506Y-33429463D01*
X172021815Y-33508815D01*
X171942463Y-33605506D01*
X171883498Y-33715820D01*
X171847188Y-33835518D01*
X171834928Y-33960000D01*
X170852001Y-33960000D01*
X170852001Y-33606800D01*
X172558000Y-31900801D01*
X177957628Y-37300430D01*
M02*
