G04 #@! TF.GenerationSoftware,KiCad,Pcbnew,(5.1.5)-3*
G04 #@! TF.CreationDate,2020-12-21T11:55:10+01:00*
G04 #@! TF.ProjectId,epimetheus,6570696d-6574-4686-9575-732e6b696361,rev?*
G04 #@! TF.SameCoordinates,Original*
G04 #@! TF.FileFunction,Legend,Top*
G04 #@! TF.FilePolarity,Positive*
%FSLAX46Y46*%
G04 Gerber Fmt 4.6, Leading zero omitted, Abs format (unit mm)*
G04 Created by KiCad (PCBNEW (5.1.5)-3) date 2020-12-21 11:55:10*
%MOMM*%
%LPD*%
G04 APERTURE LIST*
%ADD10C,0.150000*%
%ADD11C,0.100000*%
%ADD12C,0.120000*%
%ADD13C,0.010000*%
G04 APERTURE END LIST*
D10*
X208541904Y-60714000D02*
X208446666Y-60666380D01*
X208303809Y-60666380D01*
X208160952Y-60714000D01*
X208065714Y-60809238D01*
X208018095Y-60904476D01*
X207970476Y-61094952D01*
X207970476Y-61237809D01*
X208018095Y-61428285D01*
X208065714Y-61523523D01*
X208160952Y-61618761D01*
X208303809Y-61666380D01*
X208399047Y-61666380D01*
X208541904Y-61618761D01*
X208589523Y-61571142D01*
X208589523Y-61237809D01*
X208399047Y-61237809D01*
X210693047Y-61285428D02*
X211454952Y-61285428D01*
X205359047Y-61285428D02*
X206120952Y-61285428D01*
X205740000Y-61666380D02*
X205740000Y-60904476D01*
D11*
X183904000Y-72643904D02*
X183856380Y-72739142D01*
X183856380Y-72882000D01*
X183904000Y-73024857D01*
X183999238Y-73120095D01*
X184094476Y-73167714D01*
X184284952Y-73215333D01*
X184427809Y-73215333D01*
X184618285Y-73167714D01*
X184713523Y-73120095D01*
X184808761Y-73024857D01*
X184856380Y-72882000D01*
X184856380Y-72786761D01*
X184808761Y-72643904D01*
X184761142Y-72596285D01*
X184427809Y-72596285D01*
X184427809Y-72786761D01*
X184856380Y-72167714D02*
X183856380Y-72167714D01*
X184856380Y-71596285D01*
X183856380Y-71596285D01*
X184856380Y-71120095D02*
X183856380Y-71120095D01*
X183856380Y-70882000D01*
X183904000Y-70739142D01*
X183999238Y-70643904D01*
X184094476Y-70596285D01*
X184284952Y-70548666D01*
X184427809Y-70548666D01*
X184618285Y-70596285D01*
X184713523Y-70643904D01*
X184808761Y-70739142D01*
X184856380Y-70882000D01*
X184856380Y-71120095D01*
X182268761Y-73072476D02*
X182316380Y-72929619D01*
X182316380Y-72691523D01*
X182268761Y-72596285D01*
X182221142Y-72548666D01*
X182125904Y-72501047D01*
X182030666Y-72501047D01*
X181935428Y-72548666D01*
X181887809Y-72596285D01*
X181840190Y-72691523D01*
X181792571Y-72882000D01*
X181744952Y-72977238D01*
X181697333Y-73024857D01*
X181602095Y-73072476D01*
X181506857Y-73072476D01*
X181411619Y-73024857D01*
X181364000Y-72977238D01*
X181316380Y-72882000D01*
X181316380Y-72643904D01*
X181364000Y-72501047D01*
X182221142Y-71501047D02*
X182268761Y-71548666D01*
X182316380Y-71691523D01*
X182316380Y-71786761D01*
X182268761Y-71929619D01*
X182173523Y-72024857D01*
X182078285Y-72072476D01*
X181887809Y-72120095D01*
X181744952Y-72120095D01*
X181554476Y-72072476D01*
X181459238Y-72024857D01*
X181364000Y-71929619D01*
X181316380Y-71786761D01*
X181316380Y-71691523D01*
X181364000Y-71548666D01*
X181411619Y-71501047D01*
X182316380Y-70596285D02*
X182316380Y-71072476D01*
X181316380Y-71072476D01*
X179728761Y-73096285D02*
X179776380Y-72953428D01*
X179776380Y-72715333D01*
X179728761Y-72620095D01*
X179681142Y-72572476D01*
X179585904Y-72524857D01*
X179490666Y-72524857D01*
X179395428Y-72572476D01*
X179347809Y-72620095D01*
X179300190Y-72715333D01*
X179252571Y-72905809D01*
X179204952Y-73001047D01*
X179157333Y-73048666D01*
X179062095Y-73096285D01*
X178966857Y-73096285D01*
X178871619Y-73048666D01*
X178824000Y-73001047D01*
X178776380Y-72905809D01*
X178776380Y-72667714D01*
X178824000Y-72524857D01*
X179776380Y-72096285D02*
X178776380Y-72096285D01*
X178776380Y-71858190D01*
X178824000Y-71715333D01*
X178919238Y-71620095D01*
X179014476Y-71572476D01*
X179204952Y-71524857D01*
X179347809Y-71524857D01*
X179538285Y-71572476D01*
X179633523Y-71620095D01*
X179728761Y-71715333D01*
X179776380Y-71858190D01*
X179776380Y-72096285D01*
X179490666Y-71143904D02*
X179490666Y-70667714D01*
X179776380Y-71239142D02*
X178776380Y-70905809D01*
X179776380Y-70572476D01*
X176236380Y-73215333D02*
X177236380Y-72882000D01*
X176236380Y-72548666D01*
X177141142Y-71643904D02*
X177188761Y-71691523D01*
X177236380Y-71834380D01*
X177236380Y-71929619D01*
X177188761Y-72072476D01*
X177093523Y-72167714D01*
X176998285Y-72215333D01*
X176807809Y-72262952D01*
X176664952Y-72262952D01*
X176474476Y-72215333D01*
X176379238Y-72167714D01*
X176284000Y-72072476D01*
X176236380Y-71929619D01*
X176236380Y-71834380D01*
X176284000Y-71691523D01*
X176331619Y-71643904D01*
X177141142Y-70643904D02*
X177188761Y-70691523D01*
X177236380Y-70834380D01*
X177236380Y-70929619D01*
X177188761Y-71072476D01*
X177093523Y-71167714D01*
X176998285Y-71215333D01*
X176807809Y-71262952D01*
X176664952Y-71262952D01*
X176474476Y-71215333D01*
X176379238Y-71167714D01*
X176284000Y-71072476D01*
X176236380Y-70929619D01*
X176236380Y-70834380D01*
X176284000Y-70691523D01*
X176331619Y-70643904D01*
D10*
X252166380Y-72595904D02*
X251166380Y-72595904D01*
X251166380Y-72357809D01*
X251214000Y-72214952D01*
X251309238Y-72119714D01*
X251404476Y-72072095D01*
X251594952Y-72024476D01*
X251737809Y-72024476D01*
X251928285Y-72072095D01*
X252023523Y-72119714D01*
X252118761Y-72214952D01*
X252166380Y-72357809D01*
X252166380Y-72595904D01*
X252118761Y-71643523D02*
X252166380Y-71500666D01*
X252166380Y-71262571D01*
X252118761Y-71167333D01*
X252071142Y-71119714D01*
X251975904Y-71072095D01*
X251880666Y-71072095D01*
X251785428Y-71119714D01*
X251737809Y-71167333D01*
X251690190Y-71262571D01*
X251642571Y-71453047D01*
X251594952Y-71548285D01*
X251547333Y-71595904D01*
X251452095Y-71643523D01*
X251356857Y-71643523D01*
X251261619Y-71595904D01*
X251214000Y-71548285D01*
X251166380Y-71453047D01*
X251166380Y-71214952D01*
X251214000Y-71072095D01*
X251166380Y-70738761D02*
X251166380Y-70119714D01*
X251547333Y-70453047D01*
X251547333Y-70310190D01*
X251594952Y-70214952D01*
X251642571Y-70167333D01*
X251737809Y-70119714D01*
X251975904Y-70119714D01*
X252071142Y-70167333D01*
X252118761Y-70214952D01*
X252166380Y-70310190D01*
X252166380Y-70595904D01*
X252118761Y-70691142D01*
X252071142Y-70738761D01*
X251261619Y-69738761D02*
X251214000Y-69691142D01*
X251166380Y-69595904D01*
X251166380Y-69357809D01*
X251214000Y-69262571D01*
X251261619Y-69214952D01*
X251356857Y-69167333D01*
X251452095Y-69167333D01*
X251594952Y-69214952D01*
X252166380Y-69786380D01*
X252166380Y-69167333D01*
X251166380Y-68834000D02*
X251166380Y-68214952D01*
X251547333Y-68548285D01*
X251547333Y-68405428D01*
X251594952Y-68310190D01*
X251642571Y-68262571D01*
X251737809Y-68214952D01*
X251975904Y-68214952D01*
X252071142Y-68262571D01*
X252118761Y-68310190D01*
X252166380Y-68405428D01*
X252166380Y-68691142D01*
X252118761Y-68786380D01*
X252071142Y-68834000D01*
X252166380Y-67262571D02*
X252166380Y-67834000D01*
X252166380Y-67548285D02*
X251166380Y-67548285D01*
X251309238Y-67643523D01*
X251404476Y-67738761D01*
X251452095Y-67834000D01*
X252166380Y-66072095D02*
X251166380Y-66072095D01*
X251166380Y-65691142D01*
X251214000Y-65595904D01*
X251261619Y-65548285D01*
X251356857Y-65500666D01*
X251499714Y-65500666D01*
X251594952Y-65548285D01*
X251642571Y-65595904D01*
X251690190Y-65691142D01*
X251690190Y-66072095D01*
X252166380Y-65072095D02*
X251499714Y-65072095D01*
X251166380Y-65072095D02*
X251214000Y-65119714D01*
X251261619Y-65072095D01*
X251214000Y-65024476D01*
X251166380Y-65072095D01*
X251261619Y-65072095D01*
X161901904Y-71778761D02*
X162044761Y-71826380D01*
X162282857Y-71826380D01*
X162378095Y-71778761D01*
X162425714Y-71731142D01*
X162473333Y-71635904D01*
X162473333Y-71540666D01*
X162425714Y-71445428D01*
X162378095Y-71397809D01*
X162282857Y-71350190D01*
X162092380Y-71302571D01*
X161997142Y-71254952D01*
X161949523Y-71207333D01*
X161901904Y-71112095D01*
X161901904Y-71016857D01*
X161949523Y-70921619D01*
X161997142Y-70874000D01*
X162092380Y-70826380D01*
X162330476Y-70826380D01*
X162473333Y-70874000D01*
X162901904Y-71826380D02*
X162901904Y-70826380D01*
X163140000Y-70826380D01*
X163282857Y-70874000D01*
X163378095Y-70969238D01*
X163425714Y-71064476D01*
X163473333Y-71254952D01*
X163473333Y-71397809D01*
X163425714Y-71588285D01*
X163378095Y-71683523D01*
X163282857Y-71778761D01*
X163140000Y-71826380D01*
X162901904Y-71826380D01*
X163854285Y-71540666D02*
X164330476Y-71540666D01*
X163759047Y-71826380D02*
X164092380Y-70826380D01*
X164425714Y-71826380D01*
X164759047Y-71731142D02*
X164806666Y-71778761D01*
X164759047Y-71826380D01*
X164711428Y-71778761D01*
X164759047Y-71731142D01*
X164759047Y-71826380D01*
X164759047Y-71207333D02*
X164806666Y-71254952D01*
X164759047Y-71302571D01*
X164711428Y-71254952D01*
X164759047Y-71207333D01*
X164759047Y-71302571D01*
X165949523Y-70921619D02*
X165997142Y-70874000D01*
X166092380Y-70826380D01*
X166330476Y-70826380D01*
X166425714Y-70874000D01*
X166473333Y-70921619D01*
X166520952Y-71016857D01*
X166520952Y-71112095D01*
X166473333Y-71254952D01*
X165901904Y-71826380D01*
X166520952Y-71826380D01*
X167473333Y-71826380D02*
X166901904Y-71826380D01*
X167187619Y-71826380D02*
X167187619Y-70826380D01*
X167092380Y-70969238D01*
X166997142Y-71064476D01*
X166901904Y-71112095D01*
X168616190Y-71778761D02*
X168759047Y-71826380D01*
X168997142Y-71826380D01*
X169092380Y-71778761D01*
X169140000Y-71731142D01*
X169187619Y-71635904D01*
X169187619Y-71540666D01*
X169140000Y-71445428D01*
X169092380Y-71397809D01*
X168997142Y-71350190D01*
X168806666Y-71302571D01*
X168711428Y-71254952D01*
X168663809Y-71207333D01*
X168616190Y-71112095D01*
X168616190Y-71016857D01*
X168663809Y-70921619D01*
X168711428Y-70874000D01*
X168806666Y-70826380D01*
X169044761Y-70826380D01*
X169187619Y-70874000D01*
X170187619Y-71731142D02*
X170140000Y-71778761D01*
X169997142Y-71826380D01*
X169901904Y-71826380D01*
X169759047Y-71778761D01*
X169663809Y-71683523D01*
X169616190Y-71588285D01*
X169568571Y-71397809D01*
X169568571Y-71254952D01*
X169616190Y-71064476D01*
X169663809Y-70969238D01*
X169759047Y-70874000D01*
X169901904Y-70826380D01*
X169997142Y-70826380D01*
X170140000Y-70874000D01*
X170187619Y-70921619D01*
X171092380Y-71826380D02*
X170616190Y-71826380D01*
X170616190Y-70826380D01*
X171425714Y-71731142D02*
X171473333Y-71778761D01*
X171425714Y-71826380D01*
X171378095Y-71778761D01*
X171425714Y-71731142D01*
X171425714Y-71826380D01*
X171425714Y-71207333D02*
X171473333Y-71254952D01*
X171425714Y-71302571D01*
X171378095Y-71254952D01*
X171425714Y-71207333D01*
X171425714Y-71302571D01*
X171854285Y-70921619D02*
X171901904Y-70874000D01*
X171997142Y-70826380D01*
X172235238Y-70826380D01*
X172330476Y-70874000D01*
X172378095Y-70921619D01*
X172425714Y-71016857D01*
X172425714Y-71112095D01*
X172378095Y-71254952D01*
X171806666Y-71826380D01*
X172425714Y-71826380D01*
X172806666Y-70921619D02*
X172854285Y-70874000D01*
X172949523Y-70826380D01*
X173187619Y-70826380D01*
X173282857Y-70874000D01*
X173330476Y-70921619D01*
X173378095Y-71016857D01*
X173378095Y-71112095D01*
X173330476Y-71254952D01*
X172759047Y-71826380D01*
X173378095Y-71826380D01*
X243125714Y-62523714D02*
X243363809Y-63190380D01*
X243601904Y-62523714D01*
X244506666Y-63190380D02*
X243935238Y-63190380D01*
X244220952Y-63190380D02*
X244220952Y-62190380D01*
X244125714Y-62333238D01*
X244030476Y-62428476D01*
X243935238Y-62476095D01*
X220870190Y-70905714D02*
X220870190Y-71715238D01*
X220822571Y-71810476D01*
X220774952Y-71858095D01*
X220679714Y-71905714D01*
X220536857Y-71905714D01*
X220441619Y-71858095D01*
X220870190Y-71524761D02*
X220774952Y-71572380D01*
X220584476Y-71572380D01*
X220489238Y-71524761D01*
X220441619Y-71477142D01*
X220394000Y-71381904D01*
X220394000Y-71096190D01*
X220441619Y-71000952D01*
X220489238Y-70953333D01*
X220584476Y-70905714D01*
X220774952Y-70905714D01*
X220870190Y-70953333D01*
X221346380Y-71572380D02*
X221346380Y-70905714D01*
X221346380Y-70572380D02*
X221298761Y-70620000D01*
X221346380Y-70667619D01*
X221394000Y-70620000D01*
X221346380Y-70572380D01*
X221346380Y-70667619D01*
X221679714Y-70905714D02*
X222060666Y-70905714D01*
X221822571Y-70572380D02*
X221822571Y-71429523D01*
X221870190Y-71524761D01*
X221965428Y-71572380D01*
X222060666Y-71572380D01*
X222394000Y-71572380D02*
X222394000Y-70572380D01*
X222822571Y-71572380D02*
X222822571Y-71048571D01*
X222774952Y-70953333D01*
X222679714Y-70905714D01*
X222536857Y-70905714D01*
X222441619Y-70953333D01*
X222394000Y-71000952D01*
X223727333Y-70905714D02*
X223727333Y-71572380D01*
X223298761Y-70905714D02*
X223298761Y-71429523D01*
X223346380Y-71524761D01*
X223441619Y-71572380D01*
X223584476Y-71572380D01*
X223679714Y-71524761D01*
X223727333Y-71477142D01*
X224203523Y-71572380D02*
X224203523Y-70572380D01*
X224203523Y-70953333D02*
X224298761Y-70905714D01*
X224489238Y-70905714D01*
X224584476Y-70953333D01*
X224632095Y-71000952D01*
X224679714Y-71096190D01*
X224679714Y-71381904D01*
X224632095Y-71477142D01*
X224584476Y-71524761D01*
X224489238Y-71572380D01*
X224298761Y-71572380D01*
X224203523Y-71524761D01*
X225108285Y-71477142D02*
X225155904Y-71524761D01*
X225108285Y-71572380D01*
X225060666Y-71524761D01*
X225108285Y-71477142D01*
X225108285Y-71572380D01*
X226013047Y-71524761D02*
X225917809Y-71572380D01*
X225727333Y-71572380D01*
X225632095Y-71524761D01*
X225584476Y-71477142D01*
X225536857Y-71381904D01*
X225536857Y-71096190D01*
X225584476Y-71000952D01*
X225632095Y-70953333D01*
X225727333Y-70905714D01*
X225917809Y-70905714D01*
X226013047Y-70953333D01*
X226584476Y-71572380D02*
X226489238Y-71524761D01*
X226441619Y-71477142D01*
X226394000Y-71381904D01*
X226394000Y-71096190D01*
X226441619Y-71000952D01*
X226489238Y-70953333D01*
X226584476Y-70905714D01*
X226727333Y-70905714D01*
X226822571Y-70953333D01*
X226870190Y-71000952D01*
X226917809Y-71096190D01*
X226917809Y-71381904D01*
X226870190Y-71477142D01*
X226822571Y-71524761D01*
X226727333Y-71572380D01*
X226584476Y-71572380D01*
X227346380Y-71572380D02*
X227346380Y-70905714D01*
X227346380Y-71000952D02*
X227394000Y-70953333D01*
X227489238Y-70905714D01*
X227632095Y-70905714D01*
X227727333Y-70953333D01*
X227774952Y-71048571D01*
X227774952Y-71572380D01*
X227774952Y-71048571D02*
X227822571Y-70953333D01*
X227917809Y-70905714D01*
X228060666Y-70905714D01*
X228155904Y-70953333D01*
X228203523Y-71048571D01*
X228203523Y-71572380D01*
X229394000Y-70524761D02*
X228536857Y-71810476D01*
X230155904Y-70905714D02*
X230155904Y-71572380D01*
X229727333Y-70905714D02*
X229727333Y-71429523D01*
X229774952Y-71524761D01*
X229870190Y-71572380D01*
X230013047Y-71572380D01*
X230108285Y-71524761D01*
X230155904Y-71477142D01*
X230584476Y-71524761D02*
X230679714Y-71572380D01*
X230870190Y-71572380D01*
X230965428Y-71524761D01*
X231013047Y-71429523D01*
X231013047Y-71381904D01*
X230965428Y-71286666D01*
X230870190Y-71239047D01*
X230727333Y-71239047D01*
X230632095Y-71191428D01*
X230584476Y-71096190D01*
X230584476Y-71048571D01*
X230632095Y-70953333D01*
X230727333Y-70905714D01*
X230870190Y-70905714D01*
X230965428Y-70953333D01*
X231441619Y-71572380D02*
X231441619Y-70905714D01*
X231441619Y-70572380D02*
X231394000Y-70620000D01*
X231441619Y-70667619D01*
X231489238Y-70620000D01*
X231441619Y-70572380D01*
X231441619Y-70667619D01*
X231917809Y-70905714D02*
X231917809Y-71572380D01*
X231917809Y-71000952D02*
X231965428Y-70953333D01*
X232060666Y-70905714D01*
X232203523Y-70905714D01*
X232298761Y-70953333D01*
X232346380Y-71048571D01*
X232346380Y-71572380D01*
X232822571Y-71572380D02*
X232822571Y-70905714D01*
X232822571Y-70572380D02*
X232774952Y-70620000D01*
X232822571Y-70667619D01*
X232870190Y-70620000D01*
X232822571Y-70572380D01*
X232822571Y-70667619D01*
X234013047Y-70524761D02*
X233155904Y-71810476D01*
X234727333Y-71524761D02*
X234632095Y-71572380D01*
X234441619Y-71572380D01*
X234346380Y-71524761D01*
X234298761Y-71429523D01*
X234298761Y-71048571D01*
X234346380Y-70953333D01*
X234441619Y-70905714D01*
X234632095Y-70905714D01*
X234727333Y-70953333D01*
X234774952Y-71048571D01*
X234774952Y-71143809D01*
X234298761Y-71239047D01*
X235203523Y-70905714D02*
X235203523Y-71905714D01*
X235203523Y-70953333D02*
X235298761Y-70905714D01*
X235489238Y-70905714D01*
X235584476Y-70953333D01*
X235632095Y-71000952D01*
X235679714Y-71096190D01*
X235679714Y-71381904D01*
X235632095Y-71477142D01*
X235584476Y-71524761D01*
X235489238Y-71572380D01*
X235298761Y-71572380D01*
X235203523Y-71524761D01*
X236108285Y-71572380D02*
X236108285Y-70905714D01*
X236108285Y-70572380D02*
X236060666Y-70620000D01*
X236108285Y-70667619D01*
X236155904Y-70620000D01*
X236108285Y-70572380D01*
X236108285Y-70667619D01*
X236584476Y-71572380D02*
X236584476Y-70905714D01*
X236584476Y-71000952D02*
X236632095Y-70953333D01*
X236727333Y-70905714D01*
X236870190Y-70905714D01*
X236965428Y-70953333D01*
X237013047Y-71048571D01*
X237013047Y-71572380D01*
X237013047Y-71048571D02*
X237060666Y-70953333D01*
X237155904Y-70905714D01*
X237298761Y-70905714D01*
X237394000Y-70953333D01*
X237441619Y-71048571D01*
X237441619Y-71572380D01*
X238298761Y-71524761D02*
X238203523Y-71572380D01*
X238013047Y-71572380D01*
X237917809Y-71524761D01*
X237870190Y-71429523D01*
X237870190Y-71048571D01*
X237917809Y-70953333D01*
X238013047Y-70905714D01*
X238203523Y-70905714D01*
X238298761Y-70953333D01*
X238346380Y-71048571D01*
X238346380Y-71143809D01*
X237870190Y-71239047D01*
X238632095Y-70905714D02*
X239013047Y-70905714D01*
X238774952Y-70572380D02*
X238774952Y-71429523D01*
X238822571Y-71524761D01*
X238917809Y-71572380D01*
X239013047Y-71572380D01*
X239346380Y-71572380D02*
X239346380Y-70572380D01*
X239774952Y-71572380D02*
X239774952Y-71048571D01*
X239727333Y-70953333D01*
X239632095Y-70905714D01*
X239489238Y-70905714D01*
X239394000Y-70953333D01*
X239346380Y-71000952D01*
X240632095Y-71524761D02*
X240536857Y-71572380D01*
X240346380Y-71572380D01*
X240251142Y-71524761D01*
X240203523Y-71429523D01*
X240203523Y-71048571D01*
X240251142Y-70953333D01*
X240346380Y-70905714D01*
X240536857Y-70905714D01*
X240632095Y-70953333D01*
X240679714Y-71048571D01*
X240679714Y-71143809D01*
X240203523Y-71239047D01*
X241536857Y-70905714D02*
X241536857Y-71572380D01*
X241108285Y-70905714D02*
X241108285Y-71429523D01*
X241155904Y-71524761D01*
X241251142Y-71572380D01*
X241394000Y-71572380D01*
X241489238Y-71524761D01*
X241536857Y-71477142D01*
X241965428Y-71524761D02*
X242060666Y-71572380D01*
X242251142Y-71572380D01*
X242346380Y-71524761D01*
X242394000Y-71429523D01*
X242394000Y-71381904D01*
X242346380Y-71286666D01*
X242251142Y-71239047D01*
X242108285Y-71239047D01*
X242013047Y-71191428D01*
X241965428Y-71096190D01*
X241965428Y-71048571D01*
X242013047Y-70953333D01*
X242108285Y-70905714D01*
X242251142Y-70905714D01*
X242346380Y-70953333D01*
X219020761Y-69794380D02*
X219020761Y-68794380D01*
X219401714Y-68794380D01*
X219496952Y-68842000D01*
X219544571Y-68889619D01*
X219592190Y-68984857D01*
X219592190Y-69127714D01*
X219544571Y-69222952D01*
X219496952Y-69270571D01*
X219401714Y-69318190D01*
X219020761Y-69318190D01*
X220163619Y-69794380D02*
X220068380Y-69746761D01*
X220020761Y-69651523D01*
X220020761Y-68794380D01*
X220973142Y-69127714D02*
X220973142Y-69794380D01*
X220544571Y-69127714D02*
X220544571Y-69651523D01*
X220592190Y-69746761D01*
X220687428Y-69794380D01*
X220830285Y-69794380D01*
X220925523Y-69746761D01*
X220973142Y-69699142D01*
X221877904Y-69127714D02*
X221877904Y-69937238D01*
X221830285Y-70032476D01*
X221782666Y-70080095D01*
X221687428Y-70127714D01*
X221544571Y-70127714D01*
X221449333Y-70080095D01*
X221877904Y-69746761D02*
X221782666Y-69794380D01*
X221592190Y-69794380D01*
X221496952Y-69746761D01*
X221449333Y-69699142D01*
X221401714Y-69603904D01*
X221401714Y-69318190D01*
X221449333Y-69222952D01*
X221496952Y-69175333D01*
X221592190Y-69127714D01*
X221782666Y-69127714D01*
X221877904Y-69175333D01*
X223925523Y-69794380D02*
X223877904Y-69794380D01*
X223782666Y-69746761D01*
X223639809Y-69603904D01*
X223401714Y-69318190D01*
X223306476Y-69175333D01*
X223258857Y-69032476D01*
X223258857Y-68937238D01*
X223306476Y-68842000D01*
X223401714Y-68794380D01*
X223449333Y-68794380D01*
X223544571Y-68842000D01*
X223592190Y-68937238D01*
X223592190Y-68984857D01*
X223544571Y-69080095D01*
X223496952Y-69127714D01*
X223211238Y-69318190D01*
X223163619Y-69365809D01*
X223116000Y-69461047D01*
X223116000Y-69603904D01*
X223163619Y-69699142D01*
X223211238Y-69746761D01*
X223306476Y-69794380D01*
X223449333Y-69794380D01*
X223544571Y-69746761D01*
X223592190Y-69699142D01*
X223735047Y-69508666D01*
X223782666Y-69365809D01*
X223782666Y-69270571D01*
X225116000Y-69794380D02*
X225116000Y-68794380D01*
X225496952Y-68794380D01*
X225592190Y-68842000D01*
X225639809Y-68889619D01*
X225687428Y-68984857D01*
X225687428Y-69127714D01*
X225639809Y-69222952D01*
X225592190Y-69270571D01*
X225496952Y-69318190D01*
X225116000Y-69318190D01*
X226258857Y-69794380D02*
X226163619Y-69746761D01*
X226116000Y-69651523D01*
X226116000Y-68794380D01*
X227068380Y-69794380D02*
X227068380Y-69270571D01*
X227020761Y-69175333D01*
X226925523Y-69127714D01*
X226735047Y-69127714D01*
X226639809Y-69175333D01*
X227068380Y-69746761D02*
X226973142Y-69794380D01*
X226735047Y-69794380D01*
X226639809Y-69746761D01*
X226592190Y-69651523D01*
X226592190Y-69556285D01*
X226639809Y-69461047D01*
X226735047Y-69413428D01*
X226973142Y-69413428D01*
X227068380Y-69365809D01*
X227449333Y-69127714D02*
X227687428Y-69794380D01*
X227925523Y-69127714D02*
X227687428Y-69794380D01*
X227592190Y-70032476D01*
X227544571Y-70080095D01*
X227449333Y-70127714D01*
X229020761Y-69746761D02*
X229163619Y-69794380D01*
X229401714Y-69794380D01*
X229496952Y-69746761D01*
X229544571Y-69699142D01*
X229592190Y-69603904D01*
X229592190Y-69508666D01*
X229544571Y-69413428D01*
X229496952Y-69365809D01*
X229401714Y-69318190D01*
X229211238Y-69270571D01*
X229116000Y-69222952D01*
X229068380Y-69175333D01*
X229020761Y-69080095D01*
X229020761Y-68984857D01*
X229068380Y-68889619D01*
X229116000Y-68842000D01*
X229211238Y-68794380D01*
X229449333Y-68794380D01*
X229592190Y-68842000D01*
X230401714Y-69746761D02*
X230306476Y-69794380D01*
X230116000Y-69794380D01*
X230020761Y-69746761D01*
X229973142Y-69651523D01*
X229973142Y-69270571D01*
X230020761Y-69175333D01*
X230116000Y-69127714D01*
X230306476Y-69127714D01*
X230401714Y-69175333D01*
X230449333Y-69270571D01*
X230449333Y-69365809D01*
X229973142Y-69461047D01*
X230877904Y-69127714D02*
X230877904Y-69794380D01*
X230877904Y-69222952D02*
X230925523Y-69175333D01*
X231020761Y-69127714D01*
X231163619Y-69127714D01*
X231258857Y-69175333D01*
X231306476Y-69270571D01*
X231306476Y-69794380D01*
X231735047Y-69746761D02*
X231830285Y-69794380D01*
X232020761Y-69794380D01*
X232116000Y-69746761D01*
X232163619Y-69651523D01*
X232163619Y-69603904D01*
X232116000Y-69508666D01*
X232020761Y-69461047D01*
X231877904Y-69461047D01*
X231782666Y-69413428D01*
X231735047Y-69318190D01*
X231735047Y-69270571D01*
X231782666Y-69175333D01*
X231877904Y-69127714D01*
X232020761Y-69127714D01*
X232116000Y-69175333D01*
X232735047Y-69794380D02*
X232639809Y-69746761D01*
X232592190Y-69699142D01*
X232544571Y-69603904D01*
X232544571Y-69318190D01*
X232592190Y-69222952D01*
X232639809Y-69175333D01*
X232735047Y-69127714D01*
X232877904Y-69127714D01*
X232973142Y-69175333D01*
X233020761Y-69222952D01*
X233068380Y-69318190D01*
X233068380Y-69603904D01*
X233020761Y-69699142D01*
X232973142Y-69746761D01*
X232877904Y-69794380D01*
X232735047Y-69794380D01*
X233496952Y-69794380D02*
X233496952Y-69127714D01*
X233496952Y-69318190D02*
X233544571Y-69222952D01*
X233592190Y-69175333D01*
X233687428Y-69127714D01*
X233782666Y-69127714D01*
X234068380Y-69746761D02*
X234163619Y-69794380D01*
X234354095Y-69794380D01*
X234449333Y-69746761D01*
X234496952Y-69651523D01*
X234496952Y-69603904D01*
X234449333Y-69508666D01*
X234354095Y-69461047D01*
X234211238Y-69461047D01*
X234116000Y-69413428D01*
X234068380Y-69318190D01*
X234068380Y-69270571D01*
X234116000Y-69175333D01*
X234211238Y-69127714D01*
X234354095Y-69127714D01*
X234449333Y-69175333D01*
X236163619Y-69794380D02*
X235687428Y-69794380D01*
X235687428Y-68794380D01*
X236639809Y-69794380D02*
X236544571Y-69746761D01*
X236496952Y-69699142D01*
X236449333Y-69603904D01*
X236449333Y-69318190D01*
X236496952Y-69222952D01*
X236544571Y-69175333D01*
X236639809Y-69127714D01*
X236782666Y-69127714D01*
X236877904Y-69175333D01*
X236925523Y-69222952D01*
X236973142Y-69318190D01*
X236973142Y-69603904D01*
X236925523Y-69699142D01*
X236877904Y-69746761D01*
X236782666Y-69794380D01*
X236639809Y-69794380D01*
X237830285Y-69127714D02*
X237830285Y-69937238D01*
X237782666Y-70032476D01*
X237735047Y-70080095D01*
X237639809Y-70127714D01*
X237496952Y-70127714D01*
X237401714Y-70080095D01*
X237830285Y-69746761D02*
X237735047Y-69794380D01*
X237544571Y-69794380D01*
X237449333Y-69746761D01*
X237401714Y-69699142D01*
X237354095Y-69603904D01*
X237354095Y-69318190D01*
X237401714Y-69222952D01*
X237449333Y-69175333D01*
X237544571Y-69127714D01*
X237735047Y-69127714D01*
X237830285Y-69175333D01*
X238735047Y-69127714D02*
X238735047Y-69937238D01*
X238687428Y-70032476D01*
X238639809Y-70080095D01*
X238544571Y-70127714D01*
X238401714Y-70127714D01*
X238306476Y-70080095D01*
X238735047Y-69746761D02*
X238639809Y-69794380D01*
X238449333Y-69794380D01*
X238354095Y-69746761D01*
X238306476Y-69699142D01*
X238258857Y-69603904D01*
X238258857Y-69318190D01*
X238306476Y-69222952D01*
X238354095Y-69175333D01*
X238449333Y-69127714D01*
X238639809Y-69127714D01*
X238735047Y-69175333D01*
X239592190Y-69746761D02*
X239496952Y-69794380D01*
X239306476Y-69794380D01*
X239211238Y-69746761D01*
X239163619Y-69651523D01*
X239163619Y-69270571D01*
X239211238Y-69175333D01*
X239306476Y-69127714D01*
X239496952Y-69127714D01*
X239592190Y-69175333D01*
X239639809Y-69270571D01*
X239639809Y-69365809D01*
X239163619Y-69461047D01*
X240068380Y-69794380D02*
X240068380Y-69127714D01*
X240068380Y-69318190D02*
X240115999Y-69222952D01*
X240163619Y-69175333D01*
X240258857Y-69127714D01*
X240354095Y-69127714D01*
D12*
X150876000Y-70104000D02*
X150876000Y-46228000D01*
X157226000Y-70104000D02*
X150876000Y-70104000D01*
X157226000Y-68326000D02*
X157226000Y-70104000D01*
X166878000Y-68326000D02*
X157226000Y-68326000D01*
X166878000Y-70104000D02*
X166878000Y-68326000D01*
X174244000Y-70104000D02*
X166878000Y-70104000D01*
X174244000Y-46228000D02*
X174244000Y-70104000D01*
X150876000Y-46228000D02*
X174244000Y-46228000D01*
X264474000Y-72704000D02*
X252476000Y-72694800D01*
X264474000Y-69977000D02*
X264474000Y-72704000D01*
X252476000Y-72694800D02*
X252476000Y-59880500D01*
X264474000Y-70104000D02*
X264474000Y-59884000D01*
X264474000Y-59884000D02*
X252476000Y-59880500D01*
X175454000Y-69088000D02*
X175454000Y-67758000D01*
X175454000Y-67758000D02*
X176784000Y-67758000D01*
X178054000Y-67758000D02*
X185734000Y-67758000D01*
X185734000Y-70418000D02*
X185734000Y-67758000D01*
X178054000Y-70418000D02*
X185734000Y-70418000D01*
X178054000Y-70418000D02*
X178054000Y-67758000D01*
X204410000Y-67056000D02*
X204410000Y-65726000D01*
X204410000Y-65726000D02*
X205740000Y-65726000D01*
X207010000Y-65726000D02*
X212150000Y-65726000D01*
X212150000Y-68386000D02*
X212150000Y-65726000D01*
X207010000Y-68386000D02*
X212150000Y-68386000D01*
X207010000Y-68386000D02*
X207010000Y-65726000D01*
X204410000Y-70612000D02*
X204410000Y-69282000D01*
X204410000Y-69282000D02*
X205740000Y-69282000D01*
X207010000Y-69282000D02*
X212150000Y-69282000D01*
X212150000Y-71942000D02*
X212150000Y-69282000D01*
X207010000Y-71942000D02*
X212150000Y-71942000D01*
X207010000Y-71942000D02*
X207010000Y-69282000D01*
X247448000Y-46482000D02*
X241248000Y-46482000D01*
X241248000Y-58303000D02*
X247448000Y-58303000D01*
X247448000Y-46482000D02*
X247448000Y-48578000D01*
X247448000Y-50228000D02*
X247448000Y-51578000D01*
X247448000Y-53228000D02*
X247448000Y-55628000D01*
X247448000Y-57178000D02*
X247448000Y-58303000D01*
X241248000Y-56728000D02*
X241248000Y-46482000D01*
X261418000Y-46482000D02*
X255218000Y-46482000D01*
X255218000Y-58303000D02*
X261418000Y-58303000D01*
X261418000Y-46482000D02*
X261418000Y-48578000D01*
X261418000Y-50228000D02*
X261418000Y-51578000D01*
X261418000Y-53228000D02*
X261418000Y-55628000D01*
X261418000Y-57178000D02*
X261418000Y-58303000D01*
X255218000Y-56728000D02*
X255218000Y-46482000D01*
X205538000Y-46482000D02*
X199338000Y-46482000D01*
X199338000Y-58303000D02*
X205538000Y-58303000D01*
X205538000Y-46482000D02*
X205538000Y-48578000D01*
X205538000Y-50228000D02*
X205538000Y-51578000D01*
X205538000Y-53228000D02*
X205538000Y-55628000D01*
X205538000Y-57178000D02*
X205538000Y-58303000D01*
X199338000Y-56728000D02*
X199338000Y-46482000D01*
X191568000Y-46482000D02*
X185368000Y-46482000D01*
X185368000Y-58303000D02*
X191568000Y-58303000D01*
X191568000Y-46482000D02*
X191568000Y-48578000D01*
X191568000Y-50228000D02*
X191568000Y-51578000D01*
X191568000Y-53228000D02*
X191568000Y-55628000D01*
X191568000Y-57178000D02*
X191568000Y-58303000D01*
X185368000Y-56728000D02*
X185368000Y-46482000D01*
X233478000Y-46482000D02*
X227278000Y-46482000D01*
X227278000Y-58303000D02*
X233478000Y-58303000D01*
X233478000Y-46482000D02*
X233478000Y-48578000D01*
X233478000Y-50228000D02*
X233478000Y-51578000D01*
X233478000Y-53228000D02*
X233478000Y-55628000D01*
X233478000Y-57178000D02*
X233478000Y-58303000D01*
X227278000Y-56728000D02*
X227278000Y-46482000D01*
X204410000Y-63500000D02*
X204410000Y-62170000D01*
X204410000Y-62170000D02*
X205740000Y-62170000D01*
X207010000Y-62170000D02*
X212150000Y-62170000D01*
X212150000Y-64830000D02*
X212150000Y-62170000D01*
X207010000Y-64830000D02*
X212150000Y-64830000D01*
X207010000Y-64830000D02*
X207010000Y-62170000D01*
X219508000Y-46482000D02*
X213308000Y-46482000D01*
X213308000Y-58303000D02*
X219508000Y-58303000D01*
X219508000Y-46482000D02*
X219508000Y-48578000D01*
X219508000Y-50228000D02*
X219508000Y-51578000D01*
X219508000Y-53228000D02*
X219508000Y-55628000D01*
X219508000Y-57178000D02*
X219508000Y-58303000D01*
X213308000Y-56728000D02*
X213308000Y-46482000D01*
D13*
G36*
X157980948Y-48256748D02*
G01*
X157947769Y-48382550D01*
X157734775Y-48550525D01*
X157349457Y-48752850D01*
X157226000Y-48808354D01*
X156782676Y-49004127D01*
X156334620Y-49204833D01*
X155974387Y-49368993D01*
X155956000Y-49377511D01*
X155448000Y-49613184D01*
X156000253Y-49857274D01*
X156265274Y-49968352D01*
X156484230Y-50029787D01*
X156699556Y-50034586D01*
X156953688Y-49975754D01*
X157289061Y-49846300D01*
X157748109Y-49639228D01*
X157980552Y-49530909D01*
X158641524Y-49253271D01*
X159191590Y-49101426D01*
X159676257Y-49071459D01*
X160141032Y-49159451D01*
X160528000Y-49311624D01*
X160935697Y-49529006D01*
X161173998Y-49734850D01*
X161271825Y-49961875D01*
X161271941Y-50153251D01*
X161241837Y-50275696D01*
X161162992Y-50385016D01*
X161005019Y-50501037D01*
X160737533Y-50643586D01*
X160330146Y-50832490D01*
X160020000Y-50970132D01*
X159504696Y-51196585D01*
X159144510Y-51351612D01*
X158908560Y-51445614D01*
X158765965Y-51488990D01*
X158685846Y-51492140D01*
X158637322Y-51465465D01*
X158614533Y-51443466D01*
X158548392Y-51266308D01*
X158648179Y-51107872D01*
X158724600Y-51070499D01*
X158891206Y-51005854D01*
X159192892Y-50879780D01*
X159579147Y-50713594D01*
X159816800Y-50609529D01*
X160299848Y-50380586D01*
X160597522Y-50193384D01*
X160719298Y-50032018D01*
X160674655Y-49880582D01*
X160473069Y-49723172D01*
X160377185Y-49669060D01*
X160005570Y-49520064D01*
X159610977Y-49475148D01*
X159158013Y-49539022D01*
X158611287Y-49716400D01*
X157988000Y-49987200D01*
X157540902Y-50188532D01*
X157143183Y-50352131D01*
X156840510Y-50460176D01*
X156685985Y-50495200D01*
X156467228Y-50456183D01*
X156149591Y-50353197D01*
X155779705Y-50207335D01*
X155404202Y-50039692D01*
X155069712Y-49871361D01*
X154822867Y-49723438D01*
X154710298Y-49617016D01*
X154708315Y-49600571D01*
X154810021Y-49494523D01*
X155050422Y-49346429D01*
X155378635Y-49187397D01*
X155397200Y-49179390D01*
X155822633Y-48993367D01*
X156329353Y-48766515D01*
X156814894Y-48544754D01*
X156861619Y-48523103D01*
X157243867Y-48357259D01*
X157569230Y-48237131D01*
X157784968Y-48181417D01*
X157826819Y-48180942D01*
X157980948Y-48256748D01*
G37*
X157980948Y-48256748D02*
X157947769Y-48382550D01*
X157734775Y-48550525D01*
X157349457Y-48752850D01*
X157226000Y-48808354D01*
X156782676Y-49004127D01*
X156334620Y-49204833D01*
X155974387Y-49368993D01*
X155956000Y-49377511D01*
X155448000Y-49613184D01*
X156000253Y-49857274D01*
X156265274Y-49968352D01*
X156484230Y-50029787D01*
X156699556Y-50034586D01*
X156953688Y-49975754D01*
X157289061Y-49846300D01*
X157748109Y-49639228D01*
X157980552Y-49530909D01*
X158641524Y-49253271D01*
X159191590Y-49101426D01*
X159676257Y-49071459D01*
X160141032Y-49159451D01*
X160528000Y-49311624D01*
X160935697Y-49529006D01*
X161173998Y-49734850D01*
X161271825Y-49961875D01*
X161271941Y-50153251D01*
X161241837Y-50275696D01*
X161162992Y-50385016D01*
X161005019Y-50501037D01*
X160737533Y-50643586D01*
X160330146Y-50832490D01*
X160020000Y-50970132D01*
X159504696Y-51196585D01*
X159144510Y-51351612D01*
X158908560Y-51445614D01*
X158765965Y-51488990D01*
X158685846Y-51492140D01*
X158637322Y-51465465D01*
X158614533Y-51443466D01*
X158548392Y-51266308D01*
X158648179Y-51107872D01*
X158724600Y-51070499D01*
X158891206Y-51005854D01*
X159192892Y-50879780D01*
X159579147Y-50713594D01*
X159816800Y-50609529D01*
X160299848Y-50380586D01*
X160597522Y-50193384D01*
X160719298Y-50032018D01*
X160674655Y-49880582D01*
X160473069Y-49723172D01*
X160377185Y-49669060D01*
X160005570Y-49520064D01*
X159610977Y-49475148D01*
X159158013Y-49539022D01*
X158611287Y-49716400D01*
X157988000Y-49987200D01*
X157540902Y-50188532D01*
X157143183Y-50352131D01*
X156840510Y-50460176D01*
X156685985Y-50495200D01*
X156467228Y-50456183D01*
X156149591Y-50353197D01*
X155779705Y-50207335D01*
X155404202Y-50039692D01*
X155069712Y-49871361D01*
X154822867Y-49723438D01*
X154710298Y-49617016D01*
X154708315Y-49600571D01*
X154810021Y-49494523D01*
X155050422Y-49346429D01*
X155378635Y-49187397D01*
X155397200Y-49179390D01*
X155822633Y-48993367D01*
X156329353Y-48766515D01*
X156814894Y-48544754D01*
X156861619Y-48523103D01*
X157243867Y-48357259D01*
X157569230Y-48237131D01*
X157784968Y-48181417D01*
X157826819Y-48180942D01*
X157980948Y-48256748D01*
G36*
X158363526Y-46876221D02*
G01*
X158646712Y-46983694D01*
X159056621Y-47147432D01*
X159563530Y-47354848D01*
X160137719Y-47593355D01*
X160749464Y-47850366D01*
X161369045Y-48113294D01*
X161966738Y-48369553D01*
X162512823Y-48606555D01*
X162977577Y-48811714D01*
X163331278Y-48972442D01*
X163544205Y-49076154D01*
X163591545Y-49105279D01*
X163612478Y-49223683D01*
X163482845Y-49326908D01*
X163253996Y-49376968D01*
X163223407Y-49377600D01*
X163075978Y-49360842D01*
X162865007Y-49305416D01*
X162570967Y-49203588D01*
X162174336Y-49047625D01*
X161655586Y-48829795D01*
X160995195Y-48542364D01*
X160173636Y-48177600D01*
X160020000Y-48108892D01*
X159395088Y-47832767D01*
X158921052Y-47636279D01*
X158565078Y-47512187D01*
X158294350Y-47453249D01*
X158076053Y-47452224D01*
X157877372Y-47501871D01*
X157673409Y-47591080D01*
X157500554Y-47671238D01*
X157170952Y-47820335D01*
X156713780Y-48025318D01*
X156158214Y-48273132D01*
X155533431Y-48550725D01*
X155041600Y-48768562D01*
X154401637Y-49052485D01*
X153825282Y-49309831D01*
X153337960Y-49529112D01*
X152965096Y-49698843D01*
X152732116Y-49807536D01*
X152663365Y-49842983D01*
X152728321Y-49900489D01*
X152937808Y-50015877D01*
X153249824Y-50166434D01*
X153323765Y-50200088D01*
X153757562Y-50395601D01*
X154201065Y-50595520D01*
X154533600Y-50745446D01*
X154800043Y-50863766D01*
X155208865Y-51043068D01*
X155715785Y-51264032D01*
X156276521Y-51507337D01*
X156645425Y-51666823D01*
X158249250Y-52359129D01*
X159744225Y-51712778D01*
X160569921Y-51354925D01*
X161275699Y-51046866D01*
X161928720Y-50759075D01*
X162596143Y-50462028D01*
X162966400Y-50296252D01*
X163552542Y-50037662D01*
X163983447Y-49858762D01*
X164286285Y-49749693D01*
X164488222Y-49700597D01*
X164609272Y-49700117D01*
X164669786Y-49724359D01*
X164716164Y-49787465D01*
X164750718Y-49914433D01*
X164775758Y-50130258D01*
X164793594Y-50459937D01*
X164806537Y-50928466D01*
X164816898Y-51560841D01*
X164822577Y-52007739D01*
X164831267Y-52777245D01*
X164832378Y-53370013D01*
X164819806Y-53812499D01*
X164787446Y-54131161D01*
X164729193Y-54352456D01*
X164638942Y-54502839D01*
X164510588Y-54608767D01*
X164338026Y-54696698D01*
X164187039Y-54761975D01*
X163834887Y-54915813D01*
X163436427Y-55093637D01*
X163302174Y-55154493D01*
X163022606Y-55277967D01*
X162827312Y-55356778D01*
X162775862Y-55372000D01*
X162666022Y-55410904D01*
X162421016Y-55513698D01*
X162090352Y-55659501D01*
X162033688Y-55685026D01*
X161635102Y-55863774D01*
X161257839Y-56030747D01*
X160985200Y-56149097D01*
X160691145Y-56274759D01*
X160446044Y-56380721D01*
X160426400Y-56389323D01*
X159717730Y-56693104D01*
X159162444Y-56912608D01*
X158733062Y-57056182D01*
X158402104Y-57132170D01*
X158142092Y-57148921D01*
X157988000Y-57129956D01*
X157665701Y-57037099D01*
X157195408Y-56865486D01*
X156610512Y-56627952D01*
X156057600Y-56388000D01*
X155848536Y-56297062D01*
X155538808Y-56164675D01*
X155346400Y-56083200D01*
X155048436Y-55957169D01*
X154804881Y-55852778D01*
X154558206Y-55744802D01*
X154250884Y-55608017D01*
X153825387Y-55417199D01*
X153739111Y-55378447D01*
X153399312Y-55228563D01*
X153137473Y-55118220D01*
X153003174Y-55068213D01*
X152996937Y-55067200D01*
X152883850Y-55028930D01*
X152648273Y-54930998D01*
X152470625Y-54852630D01*
X152166085Y-54713297D01*
X151946610Y-54588577D01*
X151798280Y-54443778D01*
X151707172Y-54244209D01*
X151659364Y-53955179D01*
X151640934Y-53541997D01*
X151637959Y-52969972D01*
X151638000Y-52777893D01*
X151641412Y-52162612D01*
X151653541Y-51720064D01*
X151677228Y-51419867D01*
X151715312Y-51231637D01*
X151770631Y-51124994D01*
X151794705Y-51101226D01*
X151931365Y-51022575D01*
X152030981Y-51058981D01*
X152098114Y-51228830D01*
X152137323Y-51550507D01*
X152153170Y-52042397D01*
X152152374Y-52543310D01*
X152153601Y-53179377D01*
X152173013Y-53633361D01*
X152212174Y-53925698D01*
X152269394Y-54072702D01*
X152406853Y-54169821D01*
X152704784Y-54327944D01*
X153134123Y-54534818D01*
X153665807Y-54778187D01*
X154270774Y-55045796D01*
X154919960Y-55325390D01*
X155584303Y-55604713D01*
X156234739Y-55871512D01*
X156842206Y-56113530D01*
X157377641Y-56318512D01*
X157811981Y-56474204D01*
X158116163Y-56568350D01*
X158242000Y-56591200D01*
X158424845Y-56551939D01*
X158760186Y-56442286D01*
X159218984Y-56274432D01*
X159772199Y-56060568D01*
X160390793Y-55812888D01*
X161045726Y-55543582D01*
X161707960Y-55264843D01*
X162348456Y-54988862D01*
X162938174Y-54727831D01*
X163448075Y-54493943D01*
X163849120Y-54299389D01*
X164112271Y-54156360D01*
X164203071Y-54088477D01*
X164246523Y-53937600D01*
X164282043Y-53634802D01*
X164309303Y-53218856D01*
X164327974Y-52728534D01*
X164337730Y-52202606D01*
X164338241Y-51679846D01*
X164329181Y-51199024D01*
X164310221Y-50798913D01*
X164281033Y-50518284D01*
X164241290Y-50395910D01*
X164234321Y-50393599D01*
X164099189Y-50432466D01*
X163815461Y-50538874D01*
X163420096Y-50697539D01*
X162950050Y-50893176D01*
X162442281Y-51110499D01*
X161933746Y-51334224D01*
X161645600Y-51464274D01*
X160781618Y-51852827D01*
X160014176Y-52186349D01*
X159360413Y-52457934D01*
X158837468Y-52660675D01*
X158462480Y-52787665D01*
X158252589Y-52831997D01*
X158251643Y-52832000D01*
X158047686Y-52794857D01*
X157699492Y-52681385D01*
X157199435Y-52488518D01*
X156539884Y-52213188D01*
X155713213Y-51852330D01*
X154832597Y-51457589D01*
X154620997Y-51364178D01*
X154270079Y-51211745D01*
X153827474Y-51020892D01*
X153340813Y-50812220D01*
X153308597Y-50798448D01*
X152695543Y-50532194D01*
X152248074Y-50325884D01*
X151942396Y-50165799D01*
X151754718Y-50038215D01*
X151661246Y-49929413D01*
X151637999Y-49834997D01*
X151649303Y-49774789D01*
X151699276Y-49711854D01*
X151812015Y-49633471D01*
X152011616Y-49526922D01*
X152322174Y-49379486D01*
X152767786Y-49178444D01*
X153372546Y-48911075D01*
X153466800Y-48869599D01*
X154120243Y-48582097D01*
X154617552Y-48363168D01*
X154988615Y-48199625D01*
X155263323Y-48078283D01*
X155471566Y-47985952D01*
X155643234Y-47909448D01*
X155651200Y-47905888D01*
X156446825Y-47552241D01*
X157074677Y-47277833D01*
X157551091Y-47075915D01*
X157892402Y-46939739D01*
X158114945Y-46862554D01*
X158235056Y-46837612D01*
X158236785Y-46837600D01*
X158363526Y-46876221D01*
G37*
X158363526Y-46876221D02*
X158646712Y-46983694D01*
X159056621Y-47147432D01*
X159563530Y-47354848D01*
X160137719Y-47593355D01*
X160749464Y-47850366D01*
X161369045Y-48113294D01*
X161966738Y-48369553D01*
X162512823Y-48606555D01*
X162977577Y-48811714D01*
X163331278Y-48972442D01*
X163544205Y-49076154D01*
X163591545Y-49105279D01*
X163612478Y-49223683D01*
X163482845Y-49326908D01*
X163253996Y-49376968D01*
X163223407Y-49377600D01*
X163075978Y-49360842D01*
X162865007Y-49305416D01*
X162570967Y-49203588D01*
X162174336Y-49047625D01*
X161655586Y-48829795D01*
X160995195Y-48542364D01*
X160173636Y-48177600D01*
X160020000Y-48108892D01*
X159395088Y-47832767D01*
X158921052Y-47636279D01*
X158565078Y-47512187D01*
X158294350Y-47453249D01*
X158076053Y-47452224D01*
X157877372Y-47501871D01*
X157673409Y-47591080D01*
X157500554Y-47671238D01*
X157170952Y-47820335D01*
X156713780Y-48025318D01*
X156158214Y-48273132D01*
X155533431Y-48550725D01*
X155041600Y-48768562D01*
X154401637Y-49052485D01*
X153825282Y-49309831D01*
X153337960Y-49529112D01*
X152965096Y-49698843D01*
X152732116Y-49807536D01*
X152663365Y-49842983D01*
X152728321Y-49900489D01*
X152937808Y-50015877D01*
X153249824Y-50166434D01*
X153323765Y-50200088D01*
X153757562Y-50395601D01*
X154201065Y-50595520D01*
X154533600Y-50745446D01*
X154800043Y-50863766D01*
X155208865Y-51043068D01*
X155715785Y-51264032D01*
X156276521Y-51507337D01*
X156645425Y-51666823D01*
X158249250Y-52359129D01*
X159744225Y-51712778D01*
X160569921Y-51354925D01*
X161275699Y-51046866D01*
X161928720Y-50759075D01*
X162596143Y-50462028D01*
X162966400Y-50296252D01*
X163552542Y-50037662D01*
X163983447Y-49858762D01*
X164286285Y-49749693D01*
X164488222Y-49700597D01*
X164609272Y-49700117D01*
X164669786Y-49724359D01*
X164716164Y-49787465D01*
X164750718Y-49914433D01*
X164775758Y-50130258D01*
X164793594Y-50459937D01*
X164806537Y-50928466D01*
X164816898Y-51560841D01*
X164822577Y-52007739D01*
X164831267Y-52777245D01*
X164832378Y-53370013D01*
X164819806Y-53812499D01*
X164787446Y-54131161D01*
X164729193Y-54352456D01*
X164638942Y-54502839D01*
X164510588Y-54608767D01*
X164338026Y-54696698D01*
X164187039Y-54761975D01*
X163834887Y-54915813D01*
X163436427Y-55093637D01*
X163302174Y-55154493D01*
X163022606Y-55277967D01*
X162827312Y-55356778D01*
X162775862Y-55372000D01*
X162666022Y-55410904D01*
X162421016Y-55513698D01*
X162090352Y-55659501D01*
X162033688Y-55685026D01*
X161635102Y-55863774D01*
X161257839Y-56030747D01*
X160985200Y-56149097D01*
X160691145Y-56274759D01*
X160446044Y-56380721D01*
X160426400Y-56389323D01*
X159717730Y-56693104D01*
X159162444Y-56912608D01*
X158733062Y-57056182D01*
X158402104Y-57132170D01*
X158142092Y-57148921D01*
X157988000Y-57129956D01*
X157665701Y-57037099D01*
X157195408Y-56865486D01*
X156610512Y-56627952D01*
X156057600Y-56388000D01*
X155848536Y-56297062D01*
X155538808Y-56164675D01*
X155346400Y-56083200D01*
X155048436Y-55957169D01*
X154804881Y-55852778D01*
X154558206Y-55744802D01*
X154250884Y-55608017D01*
X153825387Y-55417199D01*
X153739111Y-55378447D01*
X153399312Y-55228563D01*
X153137473Y-55118220D01*
X153003174Y-55068213D01*
X152996937Y-55067200D01*
X152883850Y-55028930D01*
X152648273Y-54930998D01*
X152470625Y-54852630D01*
X152166085Y-54713297D01*
X151946610Y-54588577D01*
X151798280Y-54443778D01*
X151707172Y-54244209D01*
X151659364Y-53955179D01*
X151640934Y-53541997D01*
X151637959Y-52969972D01*
X151638000Y-52777893D01*
X151641412Y-52162612D01*
X151653541Y-51720064D01*
X151677228Y-51419867D01*
X151715312Y-51231637D01*
X151770631Y-51124994D01*
X151794705Y-51101226D01*
X151931365Y-51022575D01*
X152030981Y-51058981D01*
X152098114Y-51228830D01*
X152137323Y-51550507D01*
X152153170Y-52042397D01*
X152152374Y-52543310D01*
X152153601Y-53179377D01*
X152173013Y-53633361D01*
X152212174Y-53925698D01*
X152269394Y-54072702D01*
X152406853Y-54169821D01*
X152704784Y-54327944D01*
X153134123Y-54534818D01*
X153665807Y-54778187D01*
X154270774Y-55045796D01*
X154919960Y-55325390D01*
X155584303Y-55604713D01*
X156234739Y-55871512D01*
X156842206Y-56113530D01*
X157377641Y-56318512D01*
X157811981Y-56474204D01*
X158116163Y-56568350D01*
X158242000Y-56591200D01*
X158424845Y-56551939D01*
X158760186Y-56442286D01*
X159218984Y-56274432D01*
X159772199Y-56060568D01*
X160390793Y-55812888D01*
X161045726Y-55543582D01*
X161707960Y-55264843D01*
X162348456Y-54988862D01*
X162938174Y-54727831D01*
X163448075Y-54493943D01*
X163849120Y-54299389D01*
X164112271Y-54156360D01*
X164203071Y-54088477D01*
X164246523Y-53937600D01*
X164282043Y-53634802D01*
X164309303Y-53218856D01*
X164327974Y-52728534D01*
X164337730Y-52202606D01*
X164338241Y-51679846D01*
X164329181Y-51199024D01*
X164310221Y-50798913D01*
X164281033Y-50518284D01*
X164241290Y-50395910D01*
X164234321Y-50393599D01*
X164099189Y-50432466D01*
X163815461Y-50538874D01*
X163420096Y-50697539D01*
X162950050Y-50893176D01*
X162442281Y-51110499D01*
X161933746Y-51334224D01*
X161645600Y-51464274D01*
X160781618Y-51852827D01*
X160014176Y-52186349D01*
X159360413Y-52457934D01*
X158837468Y-52660675D01*
X158462480Y-52787665D01*
X158252589Y-52831997D01*
X158251643Y-52832000D01*
X158047686Y-52794857D01*
X157699492Y-52681385D01*
X157199435Y-52488518D01*
X156539884Y-52213188D01*
X155713213Y-51852330D01*
X154832597Y-51457589D01*
X154620997Y-51364178D01*
X154270079Y-51211745D01*
X153827474Y-51020892D01*
X153340813Y-50812220D01*
X153308597Y-50798448D01*
X152695543Y-50532194D01*
X152248074Y-50325884D01*
X151942396Y-50165799D01*
X151754718Y-50038215D01*
X151661246Y-49929413D01*
X151637999Y-49834997D01*
X151649303Y-49774789D01*
X151699276Y-49711854D01*
X151812015Y-49633471D01*
X152011616Y-49526922D01*
X152322174Y-49379486D01*
X152767786Y-49178444D01*
X153372546Y-48911075D01*
X153466800Y-48869599D01*
X154120243Y-48582097D01*
X154617552Y-48363168D01*
X154988615Y-48199625D01*
X155263323Y-48078283D01*
X155471566Y-47985952D01*
X155643234Y-47909448D01*
X155651200Y-47905888D01*
X156446825Y-47552241D01*
X157074677Y-47277833D01*
X157551091Y-47075915D01*
X157892402Y-46939739D01*
X158114945Y-46862554D01*
X158235056Y-46837612D01*
X158236785Y-46837600D01*
X158363526Y-46876221D01*
G36*
X201968100Y-70217800D02*
G01*
X202061495Y-70310125D01*
X202125148Y-70379116D01*
X202169208Y-70443621D01*
X202196691Y-70510735D01*
X202210610Y-70587551D01*
X202214033Y-70669150D01*
X202203272Y-70786662D01*
X202171239Y-70891175D01*
X202118311Y-70981891D01*
X202044864Y-71058011D01*
X202022299Y-71075426D01*
X201969652Y-71113650D01*
X201968100Y-72072500D01*
X201390017Y-72072500D01*
X200609199Y-71812150D01*
X200474217Y-71767182D01*
X200346380Y-71724675D01*
X200227721Y-71685296D01*
X200120269Y-71649717D01*
X200026055Y-71618608D01*
X199947111Y-71592639D01*
X199885466Y-71572480D01*
X199843151Y-71558800D01*
X199822198Y-71552271D01*
X199820294Y-71551800D01*
X199816116Y-71563536D01*
X199811812Y-71594915D01*
X199808077Y-71640194D01*
X199806800Y-71662925D01*
X199791098Y-71775197D01*
X199755716Y-71871475D01*
X199700689Y-71951694D01*
X199626055Y-72015795D01*
X199589687Y-72037460D01*
X199568505Y-72047799D01*
X199546531Y-72055397D01*
X199519408Y-72060737D01*
X199482776Y-72064303D01*
X199432276Y-72066580D01*
X199363549Y-72068052D01*
X199307450Y-72068801D01*
X199218015Y-72069353D01*
X199149882Y-72068444D01*
X199098982Y-72065829D01*
X199061246Y-72061264D01*
X199032605Y-72054504D01*
X199024663Y-72051826D01*
X198966588Y-72021160D01*
X198907137Y-71973829D01*
X198853744Y-71916990D01*
X198813840Y-71857802D01*
X198805748Y-71840980D01*
X198792854Y-71806437D01*
X198783694Y-71768785D01*
X198779804Y-71740042D01*
X199047100Y-71740042D01*
X199086174Y-71772921D01*
X199103201Y-71786278D01*
X199120242Y-71795422D01*
X199142318Y-71801149D01*
X199174452Y-71804256D01*
X199221667Y-71805541D01*
X199288983Y-71805799D01*
X199293348Y-71805800D01*
X199461447Y-71805800D01*
X199498748Y-71766894D01*
X199536050Y-71727988D01*
X199536050Y-71316850D01*
X199291575Y-71313400D01*
X199047100Y-71309951D01*
X199047100Y-71740042D01*
X198779804Y-71740042D01*
X198777354Y-71721941D01*
X198772918Y-71659821D01*
X198770577Y-71607181D01*
X198764205Y-71440313D01*
X198641126Y-71435370D01*
X198578809Y-71431849D01*
X198532732Y-71425822D01*
X198493739Y-71415238D01*
X198452673Y-71398047D01*
X198433730Y-71388918D01*
X198336479Y-71327632D01*
X198256578Y-71249196D01*
X198195972Y-71156261D01*
X198156607Y-71051475D01*
X198145651Y-70996536D01*
X198140912Y-70948114D01*
X198137339Y-70880235D01*
X198134939Y-70798637D01*
X198133722Y-70709056D01*
X198133696Y-70617233D01*
X198134870Y-70528905D01*
X198137252Y-70449809D01*
X198140851Y-70385685D01*
X198144500Y-70350272D01*
X198412100Y-70350272D01*
X198412100Y-70665792D01*
X198412254Y-70764887D01*
X198412869Y-70841988D01*
X198414172Y-70900501D01*
X198416390Y-70943832D01*
X198419752Y-70975386D01*
X198424485Y-70998567D01*
X198430817Y-71016783D01*
X198436336Y-71028430D01*
X198472066Y-71082033D01*
X198517257Y-71127374D01*
X198563859Y-71156399D01*
X198564500Y-71156658D01*
X198586543Y-71160219D01*
X198631880Y-71163104D01*
X198698413Y-71165264D01*
X198784042Y-71166650D01*
X198886671Y-71167212D01*
X199002650Y-71166911D01*
X199409050Y-71164450D01*
X199409050Y-70173850D01*
X198583550Y-70173850D01*
X198534384Y-70204412D01*
X198497712Y-70234176D01*
X198461693Y-70274185D01*
X198448659Y-70292624D01*
X198412100Y-70350272D01*
X198144500Y-70350272D01*
X198144675Y-70348581D01*
X198172513Y-70240319D01*
X198207693Y-70170006D01*
X199554810Y-70170006D01*
X199558130Y-70671998D01*
X199561450Y-71173991D01*
X201441050Y-71805939D01*
X201568050Y-71802694D01*
X201695050Y-71799450D01*
X201695050Y-70677713D01*
X201841100Y-70677713D01*
X201841100Y-70870427D01*
X201874056Y-70839638D01*
X201903259Y-70806733D01*
X201925912Y-70772514D01*
X201938899Y-70731048D01*
X201944607Y-70677721D01*
X201942806Y-70623693D01*
X201933263Y-70580122D01*
X201930063Y-70572973D01*
X201909924Y-70541016D01*
X201885378Y-70511009D01*
X201862894Y-70490207D01*
X201851586Y-70485000D01*
X201847956Y-70496971D01*
X201844871Y-70529977D01*
X201842568Y-70579652D01*
X201841285Y-70641632D01*
X201841100Y-70677713D01*
X201695050Y-70677713D01*
X201695050Y-69538850D01*
X201446258Y-69531566D01*
X200605454Y-69813280D01*
X200462106Y-69861343D01*
X200323438Y-69907902D01*
X200191712Y-69952193D01*
X200069193Y-69993451D01*
X199958145Y-70030912D01*
X199860833Y-70063813D01*
X199779521Y-70091388D01*
X199716473Y-70112874D01*
X199673954Y-70127505D01*
X199659730Y-70132501D01*
X199554810Y-70170006D01*
X198207693Y-70170006D01*
X198221745Y-70141922D01*
X198289627Y-70056398D01*
X198373415Y-69986759D01*
X198470366Y-69936014D01*
X198540556Y-69914260D01*
X198567131Y-69911078D01*
X198616158Y-69908205D01*
X198684689Y-69905717D01*
X198769776Y-69903690D01*
X198868472Y-69902198D01*
X198977830Y-69901319D01*
X199054233Y-69901110D01*
X199182200Y-69900964D01*
X199288373Y-69900377D01*
X199376357Y-69898841D01*
X199449756Y-69895848D01*
X199512176Y-69890892D01*
X199567222Y-69883464D01*
X199618500Y-69873055D01*
X199669614Y-69859160D01*
X199724170Y-69841270D01*
X199785773Y-69818876D01*
X199858029Y-69791472D01*
X199872814Y-69785827D01*
X199917725Y-69769263D01*
X199983806Y-69745705D01*
X200068122Y-69716166D01*
X200167738Y-69681654D01*
X200279718Y-69643181D01*
X200401127Y-69601758D01*
X200529029Y-69558394D01*
X200660489Y-69514100D01*
X200723035Y-69493127D01*
X201402020Y-69265800D01*
X201968100Y-69265800D01*
X201968100Y-70217800D01*
G37*
X201968100Y-70217800D02*
X202061495Y-70310125D01*
X202125148Y-70379116D01*
X202169208Y-70443621D01*
X202196691Y-70510735D01*
X202210610Y-70587551D01*
X202214033Y-70669150D01*
X202203272Y-70786662D01*
X202171239Y-70891175D01*
X202118311Y-70981891D01*
X202044864Y-71058011D01*
X202022299Y-71075426D01*
X201969652Y-71113650D01*
X201968100Y-72072500D01*
X201390017Y-72072500D01*
X200609199Y-71812150D01*
X200474217Y-71767182D01*
X200346380Y-71724675D01*
X200227721Y-71685296D01*
X200120269Y-71649717D01*
X200026055Y-71618608D01*
X199947111Y-71592639D01*
X199885466Y-71572480D01*
X199843151Y-71558800D01*
X199822198Y-71552271D01*
X199820294Y-71551800D01*
X199816116Y-71563536D01*
X199811812Y-71594915D01*
X199808077Y-71640194D01*
X199806800Y-71662925D01*
X199791098Y-71775197D01*
X199755716Y-71871475D01*
X199700689Y-71951694D01*
X199626055Y-72015795D01*
X199589687Y-72037460D01*
X199568505Y-72047799D01*
X199546531Y-72055397D01*
X199519408Y-72060737D01*
X199482776Y-72064303D01*
X199432276Y-72066580D01*
X199363549Y-72068052D01*
X199307450Y-72068801D01*
X199218015Y-72069353D01*
X199149882Y-72068444D01*
X199098982Y-72065829D01*
X199061246Y-72061264D01*
X199032605Y-72054504D01*
X199024663Y-72051826D01*
X198966588Y-72021160D01*
X198907137Y-71973829D01*
X198853744Y-71916990D01*
X198813840Y-71857802D01*
X198805748Y-71840980D01*
X198792854Y-71806437D01*
X198783694Y-71768785D01*
X198779804Y-71740042D01*
X199047100Y-71740042D01*
X199086174Y-71772921D01*
X199103201Y-71786278D01*
X199120242Y-71795422D01*
X199142318Y-71801149D01*
X199174452Y-71804256D01*
X199221667Y-71805541D01*
X199288983Y-71805799D01*
X199293348Y-71805800D01*
X199461447Y-71805800D01*
X199498748Y-71766894D01*
X199536050Y-71727988D01*
X199536050Y-71316850D01*
X199291575Y-71313400D01*
X199047100Y-71309951D01*
X199047100Y-71740042D01*
X198779804Y-71740042D01*
X198777354Y-71721941D01*
X198772918Y-71659821D01*
X198770577Y-71607181D01*
X198764205Y-71440313D01*
X198641126Y-71435370D01*
X198578809Y-71431849D01*
X198532732Y-71425822D01*
X198493739Y-71415238D01*
X198452673Y-71398047D01*
X198433730Y-71388918D01*
X198336479Y-71327632D01*
X198256578Y-71249196D01*
X198195972Y-71156261D01*
X198156607Y-71051475D01*
X198145651Y-70996536D01*
X198140912Y-70948114D01*
X198137339Y-70880235D01*
X198134939Y-70798637D01*
X198133722Y-70709056D01*
X198133696Y-70617233D01*
X198134870Y-70528905D01*
X198137252Y-70449809D01*
X198140851Y-70385685D01*
X198144500Y-70350272D01*
X198412100Y-70350272D01*
X198412100Y-70665792D01*
X198412254Y-70764887D01*
X198412869Y-70841988D01*
X198414172Y-70900501D01*
X198416390Y-70943832D01*
X198419752Y-70975386D01*
X198424485Y-70998567D01*
X198430817Y-71016783D01*
X198436336Y-71028430D01*
X198472066Y-71082033D01*
X198517257Y-71127374D01*
X198563859Y-71156399D01*
X198564500Y-71156658D01*
X198586543Y-71160219D01*
X198631880Y-71163104D01*
X198698413Y-71165264D01*
X198784042Y-71166650D01*
X198886671Y-71167212D01*
X199002650Y-71166911D01*
X199409050Y-71164450D01*
X199409050Y-70173850D01*
X198583550Y-70173850D01*
X198534384Y-70204412D01*
X198497712Y-70234176D01*
X198461693Y-70274185D01*
X198448659Y-70292624D01*
X198412100Y-70350272D01*
X198144500Y-70350272D01*
X198144675Y-70348581D01*
X198172513Y-70240319D01*
X198207693Y-70170006D01*
X199554810Y-70170006D01*
X199558130Y-70671998D01*
X199561450Y-71173991D01*
X201441050Y-71805939D01*
X201568050Y-71802694D01*
X201695050Y-71799450D01*
X201695050Y-70677713D01*
X201841100Y-70677713D01*
X201841100Y-70870427D01*
X201874056Y-70839638D01*
X201903259Y-70806733D01*
X201925912Y-70772514D01*
X201938899Y-70731048D01*
X201944607Y-70677721D01*
X201942806Y-70623693D01*
X201933263Y-70580122D01*
X201930063Y-70572973D01*
X201909924Y-70541016D01*
X201885378Y-70511009D01*
X201862894Y-70490207D01*
X201851586Y-70485000D01*
X201847956Y-70496971D01*
X201844871Y-70529977D01*
X201842568Y-70579652D01*
X201841285Y-70641632D01*
X201841100Y-70677713D01*
X201695050Y-70677713D01*
X201695050Y-69538850D01*
X201446258Y-69531566D01*
X200605454Y-69813280D01*
X200462106Y-69861343D01*
X200323438Y-69907902D01*
X200191712Y-69952193D01*
X200069193Y-69993451D01*
X199958145Y-70030912D01*
X199860833Y-70063813D01*
X199779521Y-70091388D01*
X199716473Y-70112874D01*
X199673954Y-70127505D01*
X199659730Y-70132501D01*
X199554810Y-70170006D01*
X198207693Y-70170006D01*
X198221745Y-70141922D01*
X198289627Y-70056398D01*
X198373415Y-69986759D01*
X198470366Y-69936014D01*
X198540556Y-69914260D01*
X198567131Y-69911078D01*
X198616158Y-69908205D01*
X198684689Y-69905717D01*
X198769776Y-69903690D01*
X198868472Y-69902198D01*
X198977830Y-69901319D01*
X199054233Y-69901110D01*
X199182200Y-69900964D01*
X199288373Y-69900377D01*
X199376357Y-69898841D01*
X199449756Y-69895848D01*
X199512176Y-69890892D01*
X199567222Y-69883464D01*
X199618500Y-69873055D01*
X199669614Y-69859160D01*
X199724170Y-69841270D01*
X199785773Y-69818876D01*
X199858029Y-69791472D01*
X199872814Y-69785827D01*
X199917725Y-69769263D01*
X199983806Y-69745705D01*
X200068122Y-69716166D01*
X200167738Y-69681654D01*
X200279718Y-69643181D01*
X200401127Y-69601758D01*
X200529029Y-69558394D01*
X200660489Y-69514100D01*
X200723035Y-69493127D01*
X201402020Y-69265800D01*
X201968100Y-69265800D01*
X201968100Y-70217800D01*
G36*
X220313357Y-64766468D02*
G01*
X220335516Y-64830423D01*
X220352898Y-64950790D01*
X220369724Y-65140717D01*
X220372295Y-65173859D01*
X220393216Y-65378825D01*
X220420963Y-65515519D01*
X220459407Y-65600286D01*
X220478766Y-65623432D01*
X220543522Y-65741953D01*
X220548690Y-65884002D01*
X220494855Y-66013545D01*
X220472000Y-66040000D01*
X220350610Y-66110029D01*
X220212172Y-66116467D01*
X220089769Y-66059359D01*
X220069339Y-66039454D01*
X220004260Y-65915243D01*
X219997745Y-65774385D01*
X220048641Y-65650466D01*
X220083945Y-65613867D01*
X220128248Y-65569199D01*
X220155560Y-65509684D01*
X220169867Y-65415563D01*
X220175156Y-65267078D01*
X220175667Y-65159327D01*
X220178898Y-64966997D01*
X220190065Y-64844757D01*
X220211381Y-64778224D01*
X220237811Y-64755211D01*
X220282196Y-64745780D01*
X220313357Y-64766468D01*
G37*
X220313357Y-64766468D02*
X220335516Y-64830423D01*
X220352898Y-64950790D01*
X220369724Y-65140717D01*
X220372295Y-65173859D01*
X220393216Y-65378825D01*
X220420963Y-65515519D01*
X220459407Y-65600286D01*
X220478766Y-65623432D01*
X220543522Y-65741953D01*
X220548690Y-65884002D01*
X220494855Y-66013545D01*
X220472000Y-66040000D01*
X220350610Y-66110029D01*
X220212172Y-66116467D01*
X220089769Y-66059359D01*
X220069339Y-66039454D01*
X220004260Y-65915243D01*
X219997745Y-65774385D01*
X220048641Y-65650466D01*
X220083945Y-65613867D01*
X220128248Y-65569199D01*
X220155560Y-65509684D01*
X220169867Y-65415563D01*
X220175156Y-65267078D01*
X220175667Y-65159327D01*
X220178898Y-64966997D01*
X220190065Y-64844757D01*
X220211381Y-64778224D01*
X220237811Y-64755211D01*
X220282196Y-64745780D01*
X220313357Y-64766468D01*
G36*
X221728913Y-66035531D02*
G01*
X221742000Y-66124667D01*
X221723068Y-66225493D01*
X221678500Y-66251667D01*
X221628087Y-66213802D01*
X221615000Y-66124667D01*
X221633932Y-66023840D01*
X221678500Y-65997667D01*
X221728913Y-66035531D01*
G37*
X221728913Y-66035531D02*
X221742000Y-66124667D01*
X221723068Y-66225493D01*
X221678500Y-66251667D01*
X221628087Y-66213802D01*
X221615000Y-66124667D01*
X221633932Y-66023840D01*
X221678500Y-65997667D01*
X221728913Y-66035531D01*
G36*
X228149746Y-63640101D02*
G01*
X228204350Y-63699919D01*
X228219551Y-63798010D01*
X228196417Y-63898280D01*
X228140181Y-63962537D01*
X228042545Y-63978658D01*
X227987994Y-63951071D01*
X227932348Y-63869294D01*
X227935512Y-63772099D01*
X227984060Y-63685302D01*
X228064563Y-63634718D01*
X228149746Y-63640101D01*
G37*
X228149746Y-63640101D02*
X228204350Y-63699919D01*
X228219551Y-63798010D01*
X228196417Y-63898280D01*
X228140181Y-63962537D01*
X228042545Y-63978658D01*
X227987994Y-63951071D01*
X227932348Y-63869294D01*
X227935512Y-63772099D01*
X227984060Y-63685302D01*
X228064563Y-63634718D01*
X228149746Y-63640101D01*
G36*
X220897327Y-63840362D02*
G01*
X220930787Y-63918546D01*
X220917655Y-64022161D01*
X220859395Y-64078251D01*
X220779874Y-64073577D01*
X220727688Y-64031200D01*
X220693926Y-63952643D01*
X220733680Y-63952643D01*
X220743438Y-63992381D01*
X220789234Y-64040434D01*
X220844624Y-64022253D01*
X220884227Y-63948704D01*
X220887694Y-63930601D01*
X220875952Y-63854328D01*
X220837276Y-63838667D01*
X220757197Y-63871457D01*
X220733680Y-63952643D01*
X220693926Y-63952643D01*
X220686754Y-63935957D01*
X220713458Y-63856141D01*
X220797528Y-63818024D01*
X220811247Y-63817500D01*
X220897327Y-63840362D01*
G37*
X220897327Y-63840362D02*
X220930787Y-63918546D01*
X220917655Y-64022161D01*
X220859395Y-64078251D01*
X220779874Y-64073577D01*
X220727688Y-64031200D01*
X220693926Y-63952643D01*
X220733680Y-63952643D01*
X220743438Y-63992381D01*
X220789234Y-64040434D01*
X220844624Y-64022253D01*
X220884227Y-63948704D01*
X220887694Y-63930601D01*
X220875952Y-63854328D01*
X220837276Y-63838667D01*
X220757197Y-63871457D01*
X220733680Y-63952643D01*
X220693926Y-63952643D01*
X220686754Y-63935957D01*
X220713458Y-63856141D01*
X220797528Y-63818024D01*
X220811247Y-63817500D01*
X220897327Y-63840362D01*
G36*
X232429236Y-63606442D02*
G01*
X232481506Y-63645120D01*
X232485160Y-63650841D01*
X232520620Y-63695206D01*
X232560905Y-63669793D01*
X232577113Y-63650841D01*
X232635661Y-63609543D01*
X232710079Y-63586322D01*
X232769576Y-63586335D01*
X232783360Y-63614743D01*
X232782586Y-63616417D01*
X232753861Y-63674270D01*
X232710290Y-63761233D01*
X232678337Y-63845337D01*
X232690816Y-63916581D01*
X232746281Y-64004649D01*
X232839099Y-64135000D01*
X232732486Y-64135000D01*
X232636941Y-64110937D01*
X232588841Y-64068825D01*
X232553380Y-64024460D01*
X232513096Y-64049874D01*
X232496887Y-64068825D01*
X232434487Y-64112226D01*
X232355613Y-64135404D01*
X232295462Y-64131198D01*
X232283000Y-64112344D01*
X232303847Y-64064388D01*
X232352505Y-63983610D01*
X232397233Y-63894247D01*
X232387626Y-63813782D01*
X232364447Y-63762849D01*
X232318443Y-63670912D01*
X232291414Y-63616417D01*
X232302353Y-63586434D01*
X232358906Y-63584995D01*
X232429236Y-63606442D01*
G37*
X232429236Y-63606442D02*
X232481506Y-63645120D01*
X232485160Y-63650841D01*
X232520620Y-63695206D01*
X232560905Y-63669793D01*
X232577113Y-63650841D01*
X232635661Y-63609543D01*
X232710079Y-63586322D01*
X232769576Y-63586335D01*
X232783360Y-63614743D01*
X232782586Y-63616417D01*
X232753861Y-63674270D01*
X232710290Y-63761233D01*
X232678337Y-63845337D01*
X232690816Y-63916581D01*
X232746281Y-64004649D01*
X232839099Y-64135000D01*
X232732486Y-64135000D01*
X232636941Y-64110937D01*
X232588841Y-64068825D01*
X232553380Y-64024460D01*
X232513096Y-64049874D01*
X232496887Y-64068825D01*
X232434487Y-64112226D01*
X232355613Y-64135404D01*
X232295462Y-64131198D01*
X232283000Y-64112344D01*
X232303847Y-64064388D01*
X232352505Y-63983610D01*
X232397233Y-63894247D01*
X232387626Y-63813782D01*
X232364447Y-63762849D01*
X232318443Y-63670912D01*
X232291414Y-63616417D01*
X232302353Y-63586434D01*
X232358906Y-63584995D01*
X232429236Y-63606442D01*
G36*
X227684406Y-63609202D02*
G01*
X227728896Y-63696038D01*
X227730154Y-63701083D01*
X227811068Y-63892793D01*
X227946753Y-64075895D01*
X228111356Y-64215936D01*
X228120900Y-64221804D01*
X228221554Y-64282761D01*
X228286488Y-64322828D01*
X228296949Y-64329661D01*
X228299235Y-64374260D01*
X228275066Y-64447723D01*
X228241261Y-64506142D01*
X228225567Y-64516000D01*
X228172057Y-64494669D01*
X228090836Y-64446102D01*
X227836158Y-64235923D01*
X227647320Y-63993293D01*
X227533074Y-63729753D01*
X227525701Y-63701083D01*
X227514856Y-63617690D01*
X227550318Y-63587725D01*
X227599771Y-63584667D01*
X227684406Y-63609202D01*
G37*
X227684406Y-63609202D02*
X227728896Y-63696038D01*
X227730154Y-63701083D01*
X227811068Y-63892793D01*
X227946753Y-64075895D01*
X228111356Y-64215936D01*
X228120900Y-64221804D01*
X228221554Y-64282761D01*
X228286488Y-64322828D01*
X228296949Y-64329661D01*
X228299235Y-64374260D01*
X228275066Y-64447723D01*
X228241261Y-64506142D01*
X228225567Y-64516000D01*
X228172057Y-64494669D01*
X228090836Y-64446102D01*
X227836158Y-64235923D01*
X227647320Y-63993293D01*
X227533074Y-63729753D01*
X227525701Y-63701083D01*
X227514856Y-63617690D01*
X227550318Y-63587725D01*
X227599771Y-63584667D01*
X227684406Y-63609202D01*
G36*
X227533640Y-64005534D02*
G01*
X227565096Y-64057463D01*
X227608717Y-64139863D01*
X227686626Y-64247267D01*
X227719221Y-64286062D01*
X227801626Y-64404612D01*
X227826490Y-64494844D01*
X227798903Y-64544291D01*
X227723950Y-64540482D01*
X227635186Y-64492036D01*
X227563323Y-64418370D01*
X227483514Y-64304480D01*
X227414618Y-64181588D01*
X227375500Y-64080915D01*
X227372334Y-64056957D01*
X227407538Y-64015875D01*
X227455528Y-63996119D01*
X227533640Y-64005534D01*
G37*
X227533640Y-64005534D02*
X227565096Y-64057463D01*
X227608717Y-64139863D01*
X227686626Y-64247267D01*
X227719221Y-64286062D01*
X227801626Y-64404612D01*
X227826490Y-64494844D01*
X227798903Y-64544291D01*
X227723950Y-64540482D01*
X227635186Y-64492036D01*
X227563323Y-64418370D01*
X227483514Y-64304480D01*
X227414618Y-64181588D01*
X227375500Y-64080915D01*
X227372334Y-64056957D01*
X227407538Y-64015875D01*
X227455528Y-63996119D01*
X227533640Y-64005534D01*
G36*
X221607027Y-63820939D02*
G01*
X221696102Y-63880349D01*
X221754296Y-63952950D01*
X221757525Y-64017128D01*
X221757417Y-64017304D01*
X221716052Y-64028880D01*
X221666042Y-63973427D01*
X221575071Y-63903443D01*
X221450414Y-63880375D01*
X221329747Y-63906359D01*
X221270934Y-63951006D01*
X221233903Y-64036610D01*
X221213951Y-64162531D01*
X221212834Y-64198500D01*
X221226250Y-64327787D01*
X221259600Y-64428924D01*
X221270934Y-64445993D01*
X221364278Y-64502856D01*
X221487722Y-64515623D01*
X221603997Y-64485674D01*
X221667158Y-64431333D01*
X221720400Y-64365375D01*
X221752183Y-64346667D01*
X221783971Y-64373043D01*
X221761634Y-64438855D01*
X221699667Y-64516000D01*
X221589094Y-64576821D01*
X221441222Y-64598775D01*
X221296573Y-64576342D01*
X221286026Y-64572333D01*
X221219677Y-64510894D01*
X221157288Y-64399909D01*
X221115408Y-64273555D01*
X221107000Y-64202594D01*
X221143254Y-64020244D01*
X221244529Y-63885335D01*
X221399592Y-63809158D01*
X221511159Y-63796333D01*
X221607027Y-63820939D01*
G37*
X221607027Y-63820939D02*
X221696102Y-63880349D01*
X221754296Y-63952950D01*
X221757525Y-64017128D01*
X221757417Y-64017304D01*
X221716052Y-64028880D01*
X221666042Y-63973427D01*
X221575071Y-63903443D01*
X221450414Y-63880375D01*
X221329747Y-63906359D01*
X221270934Y-63951006D01*
X221233903Y-64036610D01*
X221213951Y-64162531D01*
X221212834Y-64198500D01*
X221226250Y-64327787D01*
X221259600Y-64428924D01*
X221270934Y-64445993D01*
X221364278Y-64502856D01*
X221487722Y-64515623D01*
X221603997Y-64485674D01*
X221667158Y-64431333D01*
X221720400Y-64365375D01*
X221752183Y-64346667D01*
X221783971Y-64373043D01*
X221761634Y-64438855D01*
X221699667Y-64516000D01*
X221589094Y-64576821D01*
X221441222Y-64598775D01*
X221296573Y-64576342D01*
X221286026Y-64572333D01*
X221219677Y-64510894D01*
X221157288Y-64399909D01*
X221115408Y-64273555D01*
X221107000Y-64202594D01*
X221143254Y-64020244D01*
X221244529Y-63885335D01*
X221399592Y-63809158D01*
X221511159Y-63796333D01*
X221607027Y-63820939D01*
G36*
X221220913Y-65612197D02*
G01*
X221234000Y-65701333D01*
X221215068Y-65802159D01*
X221170500Y-65828333D01*
X221120087Y-65790469D01*
X221107000Y-65701333D01*
X221125932Y-65600507D01*
X221170500Y-65574333D01*
X221220913Y-65612197D01*
G37*
X221220913Y-65612197D02*
X221234000Y-65701333D01*
X221215068Y-65802159D01*
X221170500Y-65828333D01*
X221120087Y-65790469D01*
X221107000Y-65701333D01*
X221125932Y-65600507D01*
X221170500Y-65574333D01*
X221220913Y-65612197D01*
G36*
X224002699Y-65639461D02*
G01*
X224027460Y-65766953D01*
X224050559Y-65867800D01*
X224054277Y-65881250D01*
X224051182Y-65937022D01*
X223984778Y-65955046D01*
X223967353Y-65955333D01*
X223886756Y-65937708D01*
X223859309Y-65902417D01*
X223871189Y-65832074D01*
X223900415Y-65716238D01*
X223916418Y-65660628D01*
X223972884Y-65471756D01*
X224002699Y-65639461D01*
G37*
X224002699Y-65639461D02*
X224027460Y-65766953D01*
X224050559Y-65867800D01*
X224054277Y-65881250D01*
X224051182Y-65937022D01*
X223984778Y-65955046D01*
X223967353Y-65955333D01*
X223886756Y-65937708D01*
X223859309Y-65902417D01*
X223871189Y-65832074D01*
X223900415Y-65716238D01*
X223916418Y-65660628D01*
X223972884Y-65471756D01*
X224002699Y-65639461D01*
G36*
X234434857Y-65666243D02*
G01*
X234442000Y-65679143D01*
X234422036Y-65724854D01*
X234372551Y-65812872D01*
X234357492Y-65837893D01*
X234300412Y-65962149D01*
X234273197Y-66081616D01*
X234272825Y-66092917D01*
X234256527Y-66181064D01*
X234198276Y-66209066D01*
X234188000Y-66209333D01*
X234127057Y-66190394D01*
X234104665Y-66118897D01*
X234103334Y-66076747D01*
X234080472Y-65950894D01*
X234024504Y-65817347D01*
X234015214Y-65801580D01*
X233961588Y-65710251D01*
X233952572Y-65669641D01*
X233986948Y-65659274D01*
X234006747Y-65659000D01*
X234101484Y-65684624D01*
X234137200Y-65709800D01*
X234194807Y-65738802D01*
X234238800Y-65709800D01*
X234301672Y-65674674D01*
X234379744Y-65658236D01*
X234434857Y-65666243D01*
G37*
X234434857Y-65666243D02*
X234442000Y-65679143D01*
X234422036Y-65724854D01*
X234372551Y-65812872D01*
X234357492Y-65837893D01*
X234300412Y-65962149D01*
X234273197Y-66081616D01*
X234272825Y-66092917D01*
X234256527Y-66181064D01*
X234198276Y-66209066D01*
X234188000Y-66209333D01*
X234127057Y-66190394D01*
X234104665Y-66118897D01*
X234103334Y-66076747D01*
X234080472Y-65950894D01*
X234024504Y-65817347D01*
X234015214Y-65801580D01*
X233961588Y-65710251D01*
X233952572Y-65669641D01*
X233986948Y-65659274D01*
X234006747Y-65659000D01*
X234101484Y-65684624D01*
X234137200Y-65709800D01*
X234194807Y-65738802D01*
X234238800Y-65709800D01*
X234301672Y-65674674D01*
X234379744Y-65658236D01*
X234434857Y-65666243D01*
G36*
X224886409Y-65962956D02*
G01*
X224839315Y-66068563D01*
X224832334Y-66082333D01*
X224763523Y-66200476D01*
X224708509Y-66245386D01*
X224654001Y-66224045D01*
X224623771Y-66191907D01*
X224605159Y-66143064D01*
X224641413Y-66086579D01*
X224717833Y-66022574D01*
X224830353Y-65942407D01*
X224884984Y-65921719D01*
X224886409Y-65962956D01*
G37*
X224886409Y-65962956D02*
X224839315Y-66068563D01*
X224832334Y-66082333D01*
X224763523Y-66200476D01*
X224708509Y-66245386D01*
X224654001Y-66224045D01*
X224623771Y-66191907D01*
X224605159Y-66143064D01*
X224641413Y-66086579D01*
X224717833Y-66022574D01*
X224830353Y-65942407D01*
X224884984Y-65921719D01*
X224886409Y-65962956D01*
G36*
X223048370Y-65937117D02*
G01*
X223148640Y-66011277D01*
X223173721Y-66031889D01*
X223259050Y-66106642D01*
X223286052Y-66152710D01*
X223262540Y-66194259D01*
X223234711Y-66220505D01*
X223185199Y-66258117D01*
X223148101Y-66251450D01*
X223105828Y-66188445D01*
X223062957Y-66102755D01*
X223009246Y-65980478D01*
X223003145Y-65926058D01*
X223048370Y-65937117D01*
G37*
X223048370Y-65937117D02*
X223148640Y-66011277D01*
X223173721Y-66031889D01*
X223259050Y-66106642D01*
X223286052Y-66152710D01*
X223262540Y-66194259D01*
X223234711Y-66220505D01*
X223185199Y-66258117D01*
X223148101Y-66251450D01*
X223105828Y-66188445D01*
X223062957Y-66102755D01*
X223009246Y-65980478D01*
X223003145Y-65926058D01*
X223048370Y-65937117D01*
G36*
X220422914Y-63828098D02*
G01*
X220511261Y-63907876D01*
X220544506Y-63956521D01*
X220568147Y-64013979D01*
X220583798Y-64094692D01*
X220593075Y-64213102D01*
X220597591Y-64383648D01*
X220598960Y-64620774D01*
X220599000Y-64692729D01*
X220600179Y-64954577D01*
X220604768Y-65147431D01*
X220614346Y-65286942D01*
X220630492Y-65388764D01*
X220654785Y-65468548D01*
X220683667Y-65532000D01*
X220758340Y-65753825D01*
X220750247Y-65962737D01*
X220705679Y-66080698D01*
X220583751Y-66242536D01*
X220426919Y-66343808D01*
X220253231Y-66379343D01*
X220080740Y-66343971D01*
X219985746Y-66286892D01*
X219842631Y-66126279D01*
X219769756Y-65935694D01*
X219769929Y-65864898D01*
X219909953Y-65864898D01*
X219959221Y-66030276D01*
X220077001Y-66165074D01*
X220201920Y-66237455D01*
X220316435Y-66237135D01*
X220443353Y-66162916D01*
X220465640Y-66144689D01*
X220584137Y-66004807D01*
X220623519Y-65846226D01*
X220585400Y-65660197D01*
X220564454Y-65609498D01*
X220531382Y-65520747D01*
X220506649Y-65413242D01*
X220488436Y-65271584D01*
X220474922Y-65080374D01*
X220464290Y-64824211D01*
X220461581Y-64738720D01*
X220450745Y-64451030D01*
X220436248Y-64237900D01*
X220415353Y-64089229D01*
X220385320Y-63994915D01*
X220343413Y-63944856D01*
X220286892Y-63928951D01*
X220242871Y-63931874D01*
X220211070Y-63940167D01*
X220187483Y-63962495D01*
X220170406Y-64010669D01*
X220158137Y-64096494D01*
X220148974Y-64231782D01*
X220141213Y-64428339D01*
X220133334Y-64691603D01*
X220124041Y-64972894D01*
X220113521Y-65181466D01*
X220100474Y-65329270D01*
X220083601Y-65428255D01*
X220061600Y-65490369D01*
X220043523Y-65517103D01*
X219937810Y-65689138D01*
X219909953Y-65864898D01*
X219769929Y-65864898D01*
X219770250Y-65733880D01*
X219847245Y-65539580D01*
X219858167Y-65522906D01*
X219898309Y-65459944D01*
X219926769Y-65398052D01*
X219945550Y-65321760D01*
X219956656Y-65215595D01*
X219962092Y-65064085D01*
X219963863Y-64851758D01*
X219964000Y-64705963D01*
X219966797Y-64404512D01*
X219977632Y-64177357D01*
X220000173Y-64014243D01*
X220038086Y-63904912D01*
X220095041Y-63839108D01*
X220174703Y-63806573D01*
X220280740Y-63797050D01*
X220289011Y-63796981D01*
X220422914Y-63828098D01*
G37*
X220422914Y-63828098D02*
X220511261Y-63907876D01*
X220544506Y-63956521D01*
X220568147Y-64013979D01*
X220583798Y-64094692D01*
X220593075Y-64213102D01*
X220597591Y-64383648D01*
X220598960Y-64620774D01*
X220599000Y-64692729D01*
X220600179Y-64954577D01*
X220604768Y-65147431D01*
X220614346Y-65286942D01*
X220630492Y-65388764D01*
X220654785Y-65468548D01*
X220683667Y-65532000D01*
X220758340Y-65753825D01*
X220750247Y-65962737D01*
X220705679Y-66080698D01*
X220583751Y-66242536D01*
X220426919Y-66343808D01*
X220253231Y-66379343D01*
X220080740Y-66343971D01*
X219985746Y-66286892D01*
X219842631Y-66126279D01*
X219769756Y-65935694D01*
X219769929Y-65864898D01*
X219909953Y-65864898D01*
X219959221Y-66030276D01*
X220077001Y-66165074D01*
X220201920Y-66237455D01*
X220316435Y-66237135D01*
X220443353Y-66162916D01*
X220465640Y-66144689D01*
X220584137Y-66004807D01*
X220623519Y-65846226D01*
X220585400Y-65660197D01*
X220564454Y-65609498D01*
X220531382Y-65520747D01*
X220506649Y-65413242D01*
X220488436Y-65271584D01*
X220474922Y-65080374D01*
X220464290Y-64824211D01*
X220461581Y-64738720D01*
X220450745Y-64451030D01*
X220436248Y-64237900D01*
X220415353Y-64089229D01*
X220385320Y-63994915D01*
X220343413Y-63944856D01*
X220286892Y-63928951D01*
X220242871Y-63931874D01*
X220211070Y-63940167D01*
X220187483Y-63962495D01*
X220170406Y-64010669D01*
X220158137Y-64096494D01*
X220148974Y-64231782D01*
X220141213Y-64428339D01*
X220133334Y-64691603D01*
X220124041Y-64972894D01*
X220113521Y-65181466D01*
X220100474Y-65329270D01*
X220083601Y-65428255D01*
X220061600Y-65490369D01*
X220043523Y-65517103D01*
X219937810Y-65689138D01*
X219909953Y-65864898D01*
X219769929Y-65864898D01*
X219770250Y-65733880D01*
X219847245Y-65539580D01*
X219858167Y-65522906D01*
X219898309Y-65459944D01*
X219926769Y-65398052D01*
X219945550Y-65321760D01*
X219956656Y-65215595D01*
X219962092Y-65064085D01*
X219963863Y-64851758D01*
X219964000Y-64705963D01*
X219966797Y-64404512D01*
X219977632Y-64177357D01*
X220000173Y-64014243D01*
X220038086Y-63904912D01*
X220095041Y-63839108D01*
X220174703Y-63806573D01*
X220280740Y-63797050D01*
X220289011Y-63796981D01*
X220422914Y-63828098D01*
G36*
X232825342Y-64412129D02*
G01*
X232952761Y-64549511D01*
X233026666Y-64642119D01*
X233055323Y-64703067D01*
X233047002Y-64745472D01*
X233040791Y-64753905D01*
X233001447Y-64782832D01*
X232950831Y-64767318D01*
X232869586Y-64699091D01*
X232835330Y-64666116D01*
X232741898Y-64580186D01*
X232672391Y-64525865D01*
X232651632Y-64516000D01*
X232641515Y-64555970D01*
X232632856Y-64666434D01*
X232626284Y-64833225D01*
X232622424Y-65042175D01*
X232621667Y-65193333D01*
X232621667Y-65870667D01*
X233655295Y-65870667D01*
X233475094Y-65687055D01*
X233377450Y-65582978D01*
X233333678Y-65518582D01*
X233335351Y-65476216D01*
X233361153Y-65448451D01*
X233401885Y-65429126D01*
X233454019Y-65442971D01*
X233532017Y-65498493D01*
X233650343Y-65604200D01*
X233691290Y-65642647D01*
X233812144Y-65758178D01*
X233906794Y-65851309D01*
X233960220Y-65907154D01*
X233966571Y-65915462D01*
X233945656Y-65955222D01*
X233881549Y-66037588D01*
X233790300Y-66144678D01*
X233687961Y-66258610D01*
X233590583Y-66361504D01*
X233514217Y-66435477D01*
X233475365Y-66462685D01*
X233418529Y-66442041D01*
X233389634Y-66425583D01*
X233368416Y-66389679D01*
X233396431Y-66327580D01*
X233480503Y-66224912D01*
X233489810Y-66214565D01*
X233647519Y-66040000D01*
X232452334Y-66040000D01*
X232452334Y-64456484D01*
X232284887Y-64619991D01*
X232185178Y-64711944D01*
X232121725Y-64750258D01*
X232073872Y-64743983D01*
X232046330Y-64724482D01*
X232018464Y-64691818D01*
X232021595Y-64652401D01*
X232064442Y-64593358D01*
X232155721Y-64501816D01*
X232266694Y-64399073D01*
X232558167Y-64132680D01*
X232825342Y-64412129D01*
G37*
X232825342Y-64412129D02*
X232952761Y-64549511D01*
X233026666Y-64642119D01*
X233055323Y-64703067D01*
X233047002Y-64745472D01*
X233040791Y-64753905D01*
X233001447Y-64782832D01*
X232950831Y-64767318D01*
X232869586Y-64699091D01*
X232835330Y-64666116D01*
X232741898Y-64580186D01*
X232672391Y-64525865D01*
X232651632Y-64516000D01*
X232641515Y-64555970D01*
X232632856Y-64666434D01*
X232626284Y-64833225D01*
X232622424Y-65042175D01*
X232621667Y-65193333D01*
X232621667Y-65870667D01*
X233655295Y-65870667D01*
X233475094Y-65687055D01*
X233377450Y-65582978D01*
X233333678Y-65518582D01*
X233335351Y-65476216D01*
X233361153Y-65448451D01*
X233401885Y-65429126D01*
X233454019Y-65442971D01*
X233532017Y-65498493D01*
X233650343Y-65604200D01*
X233691290Y-65642647D01*
X233812144Y-65758178D01*
X233906794Y-65851309D01*
X233960220Y-65907154D01*
X233966571Y-65915462D01*
X233945656Y-65955222D01*
X233881549Y-66037588D01*
X233790300Y-66144678D01*
X233687961Y-66258610D01*
X233590583Y-66361504D01*
X233514217Y-66435477D01*
X233475365Y-66462685D01*
X233418529Y-66442041D01*
X233389634Y-66425583D01*
X233368416Y-66389679D01*
X233396431Y-66327580D01*
X233480503Y-66224912D01*
X233489810Y-66214565D01*
X233647519Y-66040000D01*
X232452334Y-66040000D01*
X232452334Y-64456484D01*
X232284887Y-64619991D01*
X232185178Y-64711944D01*
X232121725Y-64750258D01*
X232073872Y-64743983D01*
X232046330Y-64724482D01*
X232018464Y-64691818D01*
X232021595Y-64652401D01*
X232064442Y-64593358D01*
X232155721Y-64501816D01*
X232266694Y-64399073D01*
X232558167Y-64132680D01*
X232825342Y-64412129D01*
G36*
X227241731Y-64375710D02*
G01*
X227307564Y-64429930D01*
X227373261Y-64560650D01*
X227369051Y-64712274D01*
X227319727Y-64822450D01*
X227281383Y-64897033D01*
X227285844Y-64968767D01*
X227322276Y-65055476D01*
X227382901Y-65151664D01*
X227461285Y-65189099D01*
X227528341Y-65193333D01*
X227627962Y-65204584D01*
X227665990Y-65246351D01*
X227668667Y-65273553D01*
X227632068Y-65331155D01*
X227542225Y-65368902D01*
X227429068Y-65382768D01*
X227322527Y-65368723D01*
X227257082Y-65328948D01*
X227228377Y-65297032D01*
X227206358Y-65293189D01*
X227185517Y-65329677D01*
X227160344Y-65418755D01*
X227125333Y-65572682D01*
X227104368Y-65668826D01*
X227074367Y-65819093D01*
X227064213Y-65931240D01*
X227075887Y-66038941D01*
X227111369Y-66175875D01*
X227139683Y-66269151D01*
X227187123Y-66430696D01*
X227208050Y-66529515D01*
X227204200Y-66582692D01*
X227177311Y-66607317D01*
X227174191Y-66608575D01*
X227114699Y-66625768D01*
X227071387Y-66613541D01*
X227033640Y-66558061D01*
X226990840Y-66445497D01*
X226949000Y-66315167D01*
X226899434Y-66166263D01*
X226856891Y-66054868D01*
X226828948Y-66000387D01*
X226825130Y-65997934D01*
X226790100Y-66031040D01*
X226736370Y-66111720D01*
X226728719Y-66124934D01*
X226651090Y-66220189D01*
X226550002Y-66251285D01*
X226532927Y-66251667D01*
X226395968Y-66260581D01*
X226276959Y-66278125D01*
X226185737Y-66289355D01*
X226150240Y-66261004D01*
X226144667Y-66193458D01*
X226151867Y-66124907D01*
X226188685Y-66092476D01*
X226277947Y-66082814D01*
X226334636Y-66082333D01*
X226457033Y-66075404D01*
X226534060Y-66041050D01*
X226601894Y-65958921D01*
X226629199Y-65916645D01*
X226694148Y-65786101D01*
X226757999Y-65613014D01*
X226800254Y-65461562D01*
X226836722Y-65305986D01*
X226868271Y-65177052D01*
X226887952Y-65103096D01*
X226881183Y-65034066D01*
X226820163Y-65007122D01*
X226725904Y-65025563D01*
X226652872Y-65066187D01*
X226556448Y-65130269D01*
X226501929Y-65143676D01*
X226463852Y-65107021D01*
X226443613Y-65071215D01*
X226428235Y-65013660D01*
X226461625Y-64959545D01*
X226556857Y-64888239D01*
X226561537Y-64885135D01*
X226717974Y-64807921D01*
X226835580Y-64800522D01*
X226908348Y-64807992D01*
X226940650Y-64778749D01*
X226948815Y-64691770D01*
X226949000Y-64654496D01*
X226974824Y-64501276D01*
X227042259Y-64397452D01*
X227136247Y-64352454D01*
X227241731Y-64375710D01*
G37*
X227241731Y-64375710D02*
X227307564Y-64429930D01*
X227373261Y-64560650D01*
X227369051Y-64712274D01*
X227319727Y-64822450D01*
X227281383Y-64897033D01*
X227285844Y-64968767D01*
X227322276Y-65055476D01*
X227382901Y-65151664D01*
X227461285Y-65189099D01*
X227528341Y-65193333D01*
X227627962Y-65204584D01*
X227665990Y-65246351D01*
X227668667Y-65273553D01*
X227632068Y-65331155D01*
X227542225Y-65368902D01*
X227429068Y-65382768D01*
X227322527Y-65368723D01*
X227257082Y-65328948D01*
X227228377Y-65297032D01*
X227206358Y-65293189D01*
X227185517Y-65329677D01*
X227160344Y-65418755D01*
X227125333Y-65572682D01*
X227104368Y-65668826D01*
X227074367Y-65819093D01*
X227064213Y-65931240D01*
X227075887Y-66038941D01*
X227111369Y-66175875D01*
X227139683Y-66269151D01*
X227187123Y-66430696D01*
X227208050Y-66529515D01*
X227204200Y-66582692D01*
X227177311Y-66607317D01*
X227174191Y-66608575D01*
X227114699Y-66625768D01*
X227071387Y-66613541D01*
X227033640Y-66558061D01*
X226990840Y-66445497D01*
X226949000Y-66315167D01*
X226899434Y-66166263D01*
X226856891Y-66054868D01*
X226828948Y-66000387D01*
X226825130Y-65997934D01*
X226790100Y-66031040D01*
X226736370Y-66111720D01*
X226728719Y-66124934D01*
X226651090Y-66220189D01*
X226550002Y-66251285D01*
X226532927Y-66251667D01*
X226395968Y-66260581D01*
X226276959Y-66278125D01*
X226185737Y-66289355D01*
X226150240Y-66261004D01*
X226144667Y-66193458D01*
X226151867Y-66124907D01*
X226188685Y-66092476D01*
X226277947Y-66082814D01*
X226334636Y-66082333D01*
X226457033Y-66075404D01*
X226534060Y-66041050D01*
X226601894Y-65958921D01*
X226629199Y-65916645D01*
X226694148Y-65786101D01*
X226757999Y-65613014D01*
X226800254Y-65461562D01*
X226836722Y-65305986D01*
X226868271Y-65177052D01*
X226887952Y-65103096D01*
X226881183Y-65034066D01*
X226820163Y-65007122D01*
X226725904Y-65025563D01*
X226652872Y-65066187D01*
X226556448Y-65130269D01*
X226501929Y-65143676D01*
X226463852Y-65107021D01*
X226443613Y-65071215D01*
X226428235Y-65013660D01*
X226461625Y-64959545D01*
X226556857Y-64888239D01*
X226561537Y-64885135D01*
X226717974Y-64807921D01*
X226835580Y-64800522D01*
X226908348Y-64807992D01*
X226940650Y-64778749D01*
X226948815Y-64691770D01*
X226949000Y-64654496D01*
X226974824Y-64501276D01*
X227042259Y-64397452D01*
X227136247Y-64352454D01*
X227241731Y-64375710D01*
G36*
X221516478Y-64897869D02*
G01*
X221595712Y-64978559D01*
X221682181Y-65125245D01*
X221768340Y-65320554D01*
X221846644Y-65547115D01*
X221909548Y-65787557D01*
X221915909Y-65817512D01*
X221943155Y-65973256D01*
X221945110Y-66086639D01*
X221919789Y-66196694D01*
X221892813Y-66271797D01*
X221785436Y-66457311D01*
X221637639Y-66578256D01*
X221463460Y-66629195D01*
X221276940Y-66604689D01*
X221167112Y-66552839D01*
X221017479Y-66414144D01*
X220967168Y-66306847D01*
X221207595Y-66306847D01*
X221209434Y-66335683D01*
X221246374Y-66300168D01*
X221311926Y-66204272D01*
X221346165Y-66147087D01*
X221511823Y-66147087D01*
X221547176Y-66253762D01*
X221619925Y-66323603D01*
X221713605Y-66341355D01*
X221811749Y-66291761D01*
X221818200Y-66285533D01*
X221860660Y-66193847D01*
X221863897Y-66074542D01*
X221827911Y-65975031D01*
X221818200Y-65963800D01*
X221718724Y-65913264D01*
X221613859Y-65928522D01*
X221537227Y-66003148D01*
X221530334Y-66018833D01*
X221511823Y-66147087D01*
X221346165Y-66147087D01*
X221396432Y-66063135D01*
X221479437Y-65912349D01*
X221574833Y-65724048D01*
X221635262Y-65585982D01*
X221657412Y-65506411D01*
X221648770Y-65489931D01*
X221608662Y-65525655D01*
X221541743Y-65622358D01*
X221457810Y-65764676D01*
X221378767Y-65913265D01*
X221297261Y-66080963D01*
X221238221Y-66217104D01*
X221207595Y-66306847D01*
X220967168Y-66306847D01*
X220927441Y-66222125D01*
X220900108Y-65986530D01*
X220922683Y-65786835D01*
X220950033Y-65650086D01*
X221005306Y-65781543D01*
X221066706Y-65879516D01*
X221151998Y-65912453D01*
X221169364Y-65913000D01*
X221275018Y-65877475D01*
X221338496Y-65786933D01*
X221347905Y-65665419D01*
X221326370Y-65595500D01*
X221252518Y-65513924D01*
X221151927Y-65489288D01*
X221057179Y-65525010D01*
X221023855Y-65563750D01*
X220995931Y-65600871D01*
X220995722Y-65567258D01*
X221006146Y-65517544D01*
X221070658Y-65298277D01*
X221154501Y-65106827D01*
X221246874Y-64965562D01*
X221295131Y-64919036D01*
X221380315Y-64865091D01*
X221446831Y-64863754D01*
X221516478Y-64897869D01*
G37*
X221516478Y-64897869D02*
X221595712Y-64978559D01*
X221682181Y-65125245D01*
X221768340Y-65320554D01*
X221846644Y-65547115D01*
X221909548Y-65787557D01*
X221915909Y-65817512D01*
X221943155Y-65973256D01*
X221945110Y-66086639D01*
X221919789Y-66196694D01*
X221892813Y-66271797D01*
X221785436Y-66457311D01*
X221637639Y-66578256D01*
X221463460Y-66629195D01*
X221276940Y-66604689D01*
X221167112Y-66552839D01*
X221017479Y-66414144D01*
X220967168Y-66306847D01*
X221207595Y-66306847D01*
X221209434Y-66335683D01*
X221246374Y-66300168D01*
X221311926Y-66204272D01*
X221346165Y-66147087D01*
X221511823Y-66147087D01*
X221547176Y-66253762D01*
X221619925Y-66323603D01*
X221713605Y-66341355D01*
X221811749Y-66291761D01*
X221818200Y-66285533D01*
X221860660Y-66193847D01*
X221863897Y-66074542D01*
X221827911Y-65975031D01*
X221818200Y-65963800D01*
X221718724Y-65913264D01*
X221613859Y-65928522D01*
X221537227Y-66003148D01*
X221530334Y-66018833D01*
X221511823Y-66147087D01*
X221346165Y-66147087D01*
X221396432Y-66063135D01*
X221479437Y-65912349D01*
X221574833Y-65724048D01*
X221635262Y-65585982D01*
X221657412Y-65506411D01*
X221648770Y-65489931D01*
X221608662Y-65525655D01*
X221541743Y-65622358D01*
X221457810Y-65764676D01*
X221378767Y-65913265D01*
X221297261Y-66080963D01*
X221238221Y-66217104D01*
X221207595Y-66306847D01*
X220967168Y-66306847D01*
X220927441Y-66222125D01*
X220900108Y-65986530D01*
X220922683Y-65786835D01*
X220950033Y-65650086D01*
X221005306Y-65781543D01*
X221066706Y-65879516D01*
X221151998Y-65912453D01*
X221169364Y-65913000D01*
X221275018Y-65877475D01*
X221338496Y-65786933D01*
X221347905Y-65665419D01*
X221326370Y-65595500D01*
X221252518Y-65513924D01*
X221151927Y-65489288D01*
X221057179Y-65525010D01*
X221023855Y-65563750D01*
X220995931Y-65600871D01*
X220995722Y-65567258D01*
X221006146Y-65517544D01*
X221070658Y-65298277D01*
X221154501Y-65106827D01*
X221246874Y-64965562D01*
X221295131Y-64919036D01*
X221380315Y-64865091D01*
X221446831Y-64863754D01*
X221516478Y-64897869D01*
G36*
X232791784Y-66129540D02*
G01*
X232855440Y-66149190D01*
X232875201Y-66191165D01*
X232875667Y-66203624D01*
X232850461Y-66291743D01*
X232791000Y-66390218D01*
X232724051Y-66484018D01*
X232716859Y-66531177D01*
X232771481Y-66547008D01*
X232812167Y-66548000D01*
X232897286Y-66570080D01*
X232918000Y-66611500D01*
X232897097Y-66649794D01*
X232823749Y-66669510D01*
X232685167Y-66675000D01*
X232549695Y-66670896D01*
X232479158Y-66654219D01*
X232454038Y-66618423D01*
X232452334Y-66596894D01*
X232482062Y-66510681D01*
X232537000Y-66442167D01*
X232600047Y-66373150D01*
X232621667Y-66329772D01*
X232586154Y-66300691D01*
X232537000Y-66294000D01*
X232466248Y-66264066D01*
X232452334Y-66209333D01*
X232463478Y-66158550D01*
X232510779Y-66133222D01*
X232615042Y-66125029D01*
X232664000Y-66124667D01*
X232791784Y-66129540D01*
G37*
X232791784Y-66129540D02*
X232855440Y-66149190D01*
X232875201Y-66191165D01*
X232875667Y-66203624D01*
X232850461Y-66291743D01*
X232791000Y-66390218D01*
X232724051Y-66484018D01*
X232716859Y-66531177D01*
X232771481Y-66547008D01*
X232812167Y-66548000D01*
X232897286Y-66570080D01*
X232918000Y-66611500D01*
X232897097Y-66649794D01*
X232823749Y-66669510D01*
X232685167Y-66675000D01*
X232549695Y-66670896D01*
X232479158Y-66654219D01*
X232454038Y-66618423D01*
X232452334Y-66596894D01*
X232482062Y-66510681D01*
X232537000Y-66442167D01*
X232600047Y-66373150D01*
X232621667Y-66329772D01*
X232586154Y-66300691D01*
X232537000Y-66294000D01*
X232466248Y-66264066D01*
X232452334Y-66209333D01*
X232463478Y-66158550D01*
X232510779Y-66133222D01*
X232615042Y-66125029D01*
X232664000Y-66124667D01*
X232791784Y-66129540D01*
G36*
X236930385Y-65833169D02*
G01*
X237027649Y-65882257D01*
X237212181Y-66048183D01*
X237326313Y-66244958D01*
X237363000Y-66448427D01*
X237363000Y-66632667D01*
X237026488Y-66632667D01*
X236858045Y-66631297D01*
X236751050Y-66622087D01*
X236682286Y-66597384D01*
X236628533Y-66549534D01*
X236576963Y-66484500D01*
X236502836Y-66394565D01*
X236448809Y-66341997D01*
X236437226Y-66336376D01*
X236403382Y-66370127D01*
X236344573Y-66456974D01*
X236296813Y-66537460D01*
X236220366Y-66667955D01*
X236150818Y-66778965D01*
X236122152Y-66820645D01*
X236079891Y-66868668D01*
X236047024Y-66861589D01*
X236003041Y-66790114D01*
X235987030Y-66759403D01*
X235912882Y-66616015D01*
X235834004Y-66769764D01*
X235776208Y-66871957D01*
X235729391Y-66937156D01*
X235720562Y-66944875D01*
X235689954Y-66919405D01*
X235642140Y-66832250D01*
X235587160Y-66701891D01*
X235584047Y-66693618D01*
X235529430Y-66557714D01*
X235482941Y-66460034D01*
X235454359Y-66421050D01*
X235453797Y-66421000D01*
X235424151Y-66456945D01*
X235376033Y-66550211D01*
X235331000Y-66653833D01*
X235263831Y-66802895D01*
X235212817Y-66874553D01*
X235173198Y-66873441D01*
X235149265Y-66830742D01*
X235108170Y-66798669D01*
X235009032Y-66787681D01*
X234873625Y-66793204D01*
X234729480Y-66800367D01*
X234645302Y-66791439D01*
X234596980Y-66760320D01*
X234568263Y-66715955D01*
X234531333Y-66572557D01*
X234540153Y-66393568D01*
X234589685Y-66211140D01*
X234670636Y-66062907D01*
X234824971Y-65903378D01*
X234999081Y-65815707D01*
X235213794Y-65790819D01*
X235287640Y-65794122D01*
X235525991Y-65841012D01*
X235708654Y-65947263D01*
X235846407Y-66119790D01*
X235872892Y-66169614D01*
X235925840Y-66271243D01*
X235956207Y-66304498D01*
X235977037Y-66277814D01*
X235988109Y-66244110D01*
X236054840Y-66119450D01*
X236169740Y-65986644D01*
X236305304Y-65875520D01*
X236355481Y-65845720D01*
X236531730Y-65793034D01*
X236736218Y-65789549D01*
X236930385Y-65833169D01*
G37*
X236930385Y-65833169D02*
X237027649Y-65882257D01*
X237212181Y-66048183D01*
X237326313Y-66244958D01*
X237363000Y-66448427D01*
X237363000Y-66632667D01*
X237026488Y-66632667D01*
X236858045Y-66631297D01*
X236751050Y-66622087D01*
X236682286Y-66597384D01*
X236628533Y-66549534D01*
X236576963Y-66484500D01*
X236502836Y-66394565D01*
X236448809Y-66341997D01*
X236437226Y-66336376D01*
X236403382Y-66370127D01*
X236344573Y-66456974D01*
X236296813Y-66537460D01*
X236220366Y-66667955D01*
X236150818Y-66778965D01*
X236122152Y-66820645D01*
X236079891Y-66868668D01*
X236047024Y-66861589D01*
X236003041Y-66790114D01*
X235987030Y-66759403D01*
X235912882Y-66616015D01*
X235834004Y-66769764D01*
X235776208Y-66871957D01*
X235729391Y-66937156D01*
X235720562Y-66944875D01*
X235689954Y-66919405D01*
X235642140Y-66832250D01*
X235587160Y-66701891D01*
X235584047Y-66693618D01*
X235529430Y-66557714D01*
X235482941Y-66460034D01*
X235454359Y-66421050D01*
X235453797Y-66421000D01*
X235424151Y-66456945D01*
X235376033Y-66550211D01*
X235331000Y-66653833D01*
X235263831Y-66802895D01*
X235212817Y-66874553D01*
X235173198Y-66873441D01*
X235149265Y-66830742D01*
X235108170Y-66798669D01*
X235009032Y-66787681D01*
X234873625Y-66793204D01*
X234729480Y-66800367D01*
X234645302Y-66791439D01*
X234596980Y-66760320D01*
X234568263Y-66715955D01*
X234531333Y-66572557D01*
X234540153Y-66393568D01*
X234589685Y-66211140D01*
X234670636Y-66062907D01*
X234824971Y-65903378D01*
X234999081Y-65815707D01*
X235213794Y-65790819D01*
X235287640Y-65794122D01*
X235525991Y-65841012D01*
X235708654Y-65947263D01*
X235846407Y-66119790D01*
X235872892Y-66169614D01*
X235925840Y-66271243D01*
X235956207Y-66304498D01*
X235977037Y-66277814D01*
X235988109Y-66244110D01*
X236054840Y-66119450D01*
X236169740Y-65986644D01*
X236305304Y-65875520D01*
X236355481Y-65845720D01*
X236531730Y-65793034D01*
X236736218Y-65789549D01*
X236930385Y-65833169D01*
G36*
X225050144Y-66814267D02*
G01*
X225192167Y-66849978D01*
X225361500Y-66897484D01*
X225171000Y-66954933D01*
X225032734Y-66994932D01*
X224956770Y-67006690D01*
X224924450Y-66986748D01*
X224917117Y-66931646D01*
X224917000Y-66907833D01*
X224926159Y-66838710D01*
X224964905Y-66808706D01*
X225050144Y-66814267D01*
G37*
X225050144Y-66814267D02*
X225192167Y-66849978D01*
X225361500Y-66897484D01*
X225171000Y-66954933D01*
X225032734Y-66994932D01*
X224956770Y-67006690D01*
X224924450Y-66986748D01*
X224917117Y-66931646D01*
X224917000Y-66907833D01*
X224926159Y-66838710D01*
X224964905Y-66808706D01*
X225050144Y-66814267D01*
G36*
X222953692Y-66835667D02*
G01*
X222968869Y-66877980D01*
X222969667Y-66912333D01*
X222956171Y-66979988D01*
X222905959Y-67007369D01*
X222804440Y-66996923D01*
X222673334Y-66962042D01*
X222590795Y-66934938D01*
X222567216Y-66914173D01*
X222609711Y-66892911D01*
X222725393Y-66864316D01*
X222789750Y-66850165D01*
X222901534Y-66829003D01*
X222953692Y-66835667D01*
G37*
X222953692Y-66835667D02*
X222968869Y-66877980D01*
X222969667Y-66912333D01*
X222956171Y-66979988D01*
X222905959Y-67007369D01*
X222804440Y-66996923D01*
X222673334Y-66962042D01*
X222590795Y-66934938D01*
X222567216Y-66914173D01*
X222609711Y-66892911D01*
X222725393Y-66864316D01*
X222789750Y-66850165D01*
X222901534Y-66829003D01*
X222953692Y-66835667D01*
G36*
X230116848Y-66443087D02*
G01*
X230124000Y-66461878D01*
X230129425Y-66519582D01*
X230143931Y-66641067D01*
X230164864Y-66806264D01*
X230189572Y-66995104D01*
X230215400Y-67187518D01*
X230239696Y-67363437D01*
X230259806Y-67502794D01*
X230271117Y-67574583D01*
X230278738Y-67641027D01*
X230259316Y-67675677D01*
X230193861Y-67688884D01*
X230063382Y-67691000D01*
X229823830Y-67691000D01*
X229846106Y-67553417D01*
X229859171Y-67468750D01*
X229972716Y-67468750D01*
X229974095Y-67542572D01*
X230032090Y-67563928D01*
X230038527Y-67564000D01*
X230092563Y-67551769D01*
X230116113Y-67500309D01*
X230119084Y-67387474D01*
X230118992Y-67384083D01*
X230108285Y-67234928D01*
X230088307Y-67097778D01*
X230083821Y-67077167D01*
X230065330Y-67009609D01*
X230051642Y-67004372D01*
X230037006Y-67069466D01*
X230023019Y-67161833D01*
X230000933Y-67306405D01*
X229980144Y-67429764D01*
X229972716Y-67468750D01*
X229859171Y-67468750D01*
X229865783Y-67425908D01*
X229890574Y-67256769D01*
X229917762Y-67065651D01*
X229944630Y-66872209D01*
X229968460Y-66696097D01*
X229986535Y-66556969D01*
X229996138Y-66474477D01*
X229997000Y-66462052D01*
X230031308Y-66425625D01*
X230060500Y-66421000D01*
X230116848Y-66443087D01*
G37*
X230116848Y-66443087D02*
X230124000Y-66461878D01*
X230129425Y-66519582D01*
X230143931Y-66641067D01*
X230164864Y-66806264D01*
X230189572Y-66995104D01*
X230215400Y-67187518D01*
X230239696Y-67363437D01*
X230259806Y-67502794D01*
X230271117Y-67574583D01*
X230278738Y-67641027D01*
X230259316Y-67675677D01*
X230193861Y-67688884D01*
X230063382Y-67691000D01*
X229823830Y-67691000D01*
X229846106Y-67553417D01*
X229859171Y-67468750D01*
X229972716Y-67468750D01*
X229974095Y-67542572D01*
X230032090Y-67563928D01*
X230038527Y-67564000D01*
X230092563Y-67551769D01*
X230116113Y-67500309D01*
X230119084Y-67387474D01*
X230118992Y-67384083D01*
X230108285Y-67234928D01*
X230088307Y-67097778D01*
X230083821Y-67077167D01*
X230065330Y-67009609D01*
X230051642Y-67004372D01*
X230037006Y-67069466D01*
X230023019Y-67161833D01*
X230000933Y-67306405D01*
X229980144Y-67429764D01*
X229972716Y-67468750D01*
X229859171Y-67468750D01*
X229865783Y-67425908D01*
X229890574Y-67256769D01*
X229917762Y-67065651D01*
X229944630Y-66872209D01*
X229968460Y-66696097D01*
X229986535Y-66556969D01*
X229996138Y-66474477D01*
X229997000Y-66462052D01*
X230031308Y-66425625D01*
X230060500Y-66421000D01*
X230116848Y-66443087D01*
G36*
X230346381Y-65902302D02*
G01*
X230612814Y-66018498D01*
X230849859Y-66194924D01*
X231044160Y-66426344D01*
X231144200Y-66610512D01*
X231205230Y-66797474D01*
X231234330Y-66995612D01*
X231234625Y-67191621D01*
X231209242Y-67372198D01*
X231161306Y-67524038D01*
X231093944Y-67633836D01*
X231010283Y-67688290D01*
X230913447Y-67674094D01*
X230896584Y-67664336D01*
X230859932Y-67628460D01*
X230839383Y-67566780D01*
X230832149Y-67460629D01*
X230835443Y-67291338D01*
X230836551Y-67262385D01*
X230839001Y-67035835D01*
X230820678Y-66867805D01*
X230774478Y-66733262D01*
X230693297Y-66607170D01*
X230628552Y-66529373D01*
X230455768Y-66368050D01*
X230272641Y-66277679D01*
X230052916Y-66246053D01*
X230018167Y-66245619D01*
X229761238Y-66280456D01*
X229551579Y-66385453D01*
X229388101Y-66561343D01*
X229300521Y-66727135D01*
X229242497Y-66943477D01*
X229252357Y-67168318D01*
X229306141Y-67361492D01*
X229346557Y-67482675D01*
X229355764Y-67554780D01*
X229333097Y-67607693D01*
X229299789Y-67647242D01*
X229210869Y-67719796D01*
X229122231Y-67720047D01*
X229056301Y-67688290D01*
X228996049Y-67615582D01*
X228938530Y-67482676D01*
X228891043Y-67313920D01*
X228860888Y-67133660D01*
X228854000Y-67013524D01*
X228894656Y-66713272D01*
X229010902Y-66435972D01*
X229194162Y-66195422D01*
X229435854Y-66005423D01*
X229504331Y-65967475D01*
X229778783Y-65871553D01*
X230063918Y-65851574D01*
X230346381Y-65902302D01*
G37*
X230346381Y-65902302D02*
X230612814Y-66018498D01*
X230849859Y-66194924D01*
X231044160Y-66426344D01*
X231144200Y-66610512D01*
X231205230Y-66797474D01*
X231234330Y-66995612D01*
X231234625Y-67191621D01*
X231209242Y-67372198D01*
X231161306Y-67524038D01*
X231093944Y-67633836D01*
X231010283Y-67688290D01*
X230913447Y-67674094D01*
X230896584Y-67664336D01*
X230859932Y-67628460D01*
X230839383Y-67566780D01*
X230832149Y-67460629D01*
X230835443Y-67291338D01*
X230836551Y-67262385D01*
X230839001Y-67035835D01*
X230820678Y-66867805D01*
X230774478Y-66733262D01*
X230693297Y-66607170D01*
X230628552Y-66529373D01*
X230455768Y-66368050D01*
X230272641Y-66277679D01*
X230052916Y-66246053D01*
X230018167Y-66245619D01*
X229761238Y-66280456D01*
X229551579Y-66385453D01*
X229388101Y-66561343D01*
X229300521Y-66727135D01*
X229242497Y-66943477D01*
X229252357Y-67168318D01*
X229306141Y-67361492D01*
X229346557Y-67482675D01*
X229355764Y-67554780D01*
X229333097Y-67607693D01*
X229299789Y-67647242D01*
X229210869Y-67719796D01*
X229122231Y-67720047D01*
X229056301Y-67688290D01*
X228996049Y-67615582D01*
X228938530Y-67482676D01*
X228891043Y-67313920D01*
X228860888Y-67133660D01*
X228854000Y-67013524D01*
X228894656Y-66713272D01*
X229010902Y-66435972D01*
X229194162Y-66195422D01*
X229435854Y-66005423D01*
X229504331Y-65967475D01*
X229778783Y-65871553D01*
X230063918Y-65851574D01*
X230346381Y-65902302D01*
G36*
X230457504Y-65642502D02*
G01*
X230775012Y-65774149D01*
X231048537Y-65973383D01*
X231271259Y-66234475D01*
X231436357Y-66551696D01*
X231503351Y-66760424D01*
X231539536Y-66961757D01*
X231550991Y-67169494D01*
X231540033Y-67366812D01*
X231508978Y-67536889D01*
X231460145Y-67662903D01*
X231395849Y-67728031D01*
X231369352Y-67733333D01*
X231321297Y-67710738D01*
X231329129Y-67659250D01*
X231411591Y-67336899D01*
X231416016Y-67010674D01*
X231347394Y-66693258D01*
X231210720Y-66397338D01*
X231010986Y-66135599D01*
X230753185Y-65920725D01*
X230612766Y-65839219D01*
X230319259Y-65733966D01*
X230015861Y-65704052D01*
X229716113Y-65744297D01*
X229433553Y-65849524D01*
X229181719Y-66014553D01*
X228974152Y-66234205D01*
X228824390Y-66503302D01*
X228815322Y-66526782D01*
X228753474Y-66767445D01*
X228729807Y-67035028D01*
X228745039Y-67294982D01*
X228795082Y-67500500D01*
X228848267Y-67653505D01*
X228865770Y-67745868D01*
X228849376Y-67792876D01*
X228830467Y-67803649D01*
X228786197Y-67779452D01*
X228728362Y-67699731D01*
X228707085Y-67660039D01*
X228651135Y-67484857D01*
X228617084Y-67229937D01*
X228610186Y-67119500D01*
X228614447Y-66799102D01*
X228666242Y-66532256D01*
X228773278Y-66297800D01*
X228943260Y-66074570D01*
X229019947Y-65994280D01*
X229262798Y-65788138D01*
X229513115Y-65656279D01*
X229791014Y-65591086D01*
X230102834Y-65584169D01*
X230457504Y-65642502D01*
G37*
X230457504Y-65642502D02*
X230775012Y-65774149D01*
X231048537Y-65973383D01*
X231271259Y-66234475D01*
X231436357Y-66551696D01*
X231503351Y-66760424D01*
X231539536Y-66961757D01*
X231550991Y-67169494D01*
X231540033Y-67366812D01*
X231508978Y-67536889D01*
X231460145Y-67662903D01*
X231395849Y-67728031D01*
X231369352Y-67733333D01*
X231321297Y-67710738D01*
X231329129Y-67659250D01*
X231411591Y-67336899D01*
X231416016Y-67010674D01*
X231347394Y-66693258D01*
X231210720Y-66397338D01*
X231010986Y-66135599D01*
X230753185Y-65920725D01*
X230612766Y-65839219D01*
X230319259Y-65733966D01*
X230015861Y-65704052D01*
X229716113Y-65744297D01*
X229433553Y-65849524D01*
X229181719Y-66014553D01*
X228974152Y-66234205D01*
X228824390Y-66503302D01*
X228815322Y-66526782D01*
X228753474Y-66767445D01*
X228729807Y-67035028D01*
X228745039Y-67294982D01*
X228795082Y-67500500D01*
X228848267Y-67653505D01*
X228865770Y-67745868D01*
X228849376Y-67792876D01*
X228830467Y-67803649D01*
X228786197Y-67779452D01*
X228728362Y-67699731D01*
X228707085Y-67660039D01*
X228651135Y-67484857D01*
X228617084Y-67229937D01*
X228610186Y-67119500D01*
X228614447Y-66799102D01*
X228666242Y-66532256D01*
X228773278Y-66297800D01*
X228943260Y-66074570D01*
X229019947Y-65994280D01*
X229262798Y-65788138D01*
X229513115Y-65656279D01*
X229791014Y-65591086D01*
X230102834Y-65584169D01*
X230457504Y-65642502D01*
G36*
X224226362Y-66034830D02*
G01*
X224447484Y-66133647D01*
X224624949Y-66283272D01*
X224755841Y-66471236D01*
X224837242Y-66685068D01*
X224866234Y-66912299D01*
X224839901Y-67140457D01*
X224755326Y-67357073D01*
X224609591Y-67549676D01*
X224399779Y-67705797D01*
X224367671Y-67722750D01*
X224149082Y-67794840D01*
X223902153Y-67816075D01*
X223664424Y-67785159D01*
X223562636Y-67750564D01*
X223369312Y-67637600D01*
X223220050Y-67477723D01*
X223112644Y-67288833D01*
X223028264Y-67020791D01*
X223027803Y-66757394D01*
X223110522Y-66504436D01*
X223237243Y-66312081D01*
X223432055Y-66138236D01*
X223673151Y-66034254D01*
X223962482Y-65999296D01*
X223964500Y-65999293D01*
X224226362Y-66034830D01*
G37*
X224226362Y-66034830D02*
X224447484Y-66133647D01*
X224624949Y-66283272D01*
X224755841Y-66471236D01*
X224837242Y-66685068D01*
X224866234Y-66912299D01*
X224839901Y-67140457D01*
X224755326Y-67357073D01*
X224609591Y-67549676D01*
X224399779Y-67705797D01*
X224367671Y-67722750D01*
X224149082Y-67794840D01*
X223902153Y-67816075D01*
X223664424Y-67785159D01*
X223562636Y-67750564D01*
X223369312Y-67637600D01*
X223220050Y-67477723D01*
X223112644Y-67288833D01*
X223028264Y-67020791D01*
X223027803Y-66757394D01*
X223110522Y-66504436D01*
X223237243Y-66312081D01*
X223432055Y-66138236D01*
X223673151Y-66034254D01*
X223962482Y-65999296D01*
X223964500Y-65999293D01*
X224226362Y-66034830D01*
G36*
X236554095Y-66583777D02*
G01*
X236613788Y-66651119D01*
X236671441Y-66691069D01*
X236750589Y-66710732D01*
X236874766Y-66717213D01*
X236997747Y-66717715D01*
X237330994Y-66717333D01*
X237269716Y-66812583D01*
X237209596Y-66875163D01*
X237095939Y-66968517D01*
X236946897Y-67078372D01*
X236830635Y-67157841D01*
X236636176Y-67295997D01*
X236435186Y-67454349D01*
X236259913Y-67606944D01*
X236197452Y-67667399D01*
X235942071Y-67926950D01*
X235740444Y-67705355D01*
X235620275Y-67589081D01*
X235452875Y-67447820D01*
X235262774Y-67301517D01*
X235117409Y-67198690D01*
X234954200Y-67085564D01*
X234820420Y-66987661D01*
X234729784Y-66915383D01*
X234696004Y-66879136D01*
X234696000Y-66878976D01*
X234733838Y-66858263D01*
X234829513Y-66845882D01*
X234885413Y-66844333D01*
X235008603Y-66851342D01*
X235080258Y-66883470D01*
X235133086Y-66957375D01*
X235142535Y-66975267D01*
X235190623Y-67058063D01*
X235221377Y-67092451D01*
X235223793Y-67091684D01*
X235245941Y-67048123D01*
X235290566Y-66948485D01*
X235344262Y-66823167D01*
X235451180Y-66569167D01*
X235539915Y-66780833D01*
X235596795Y-66916612D01*
X235644441Y-67030522D01*
X235662196Y-67073069D01*
X235687327Y-67111857D01*
X235719870Y-67097961D01*
X235772992Y-67021981D01*
X235802457Y-66972938D01*
X235909172Y-66792238D01*
X235994524Y-66927043D01*
X236079877Y-67061848D01*
X236261784Y-66755653D01*
X236443691Y-66449459D01*
X236554095Y-66583777D01*
G37*
X236554095Y-66583777D02*
X236613788Y-66651119D01*
X236671441Y-66691069D01*
X236750589Y-66710732D01*
X236874766Y-66717213D01*
X236997747Y-66717715D01*
X237330994Y-66717333D01*
X237269716Y-66812583D01*
X237209596Y-66875163D01*
X237095939Y-66968517D01*
X236946897Y-67078372D01*
X236830635Y-67157841D01*
X236636176Y-67295997D01*
X236435186Y-67454349D01*
X236259913Y-67606944D01*
X236197452Y-67667399D01*
X235942071Y-67926950D01*
X235740444Y-67705355D01*
X235620275Y-67589081D01*
X235452875Y-67447820D01*
X235262774Y-67301517D01*
X235117409Y-67198690D01*
X234954200Y-67085564D01*
X234820420Y-66987661D01*
X234729784Y-66915383D01*
X234696004Y-66879136D01*
X234696000Y-66878976D01*
X234733838Y-66858263D01*
X234829513Y-66845882D01*
X234885413Y-66844333D01*
X235008603Y-66851342D01*
X235080258Y-66883470D01*
X235133086Y-66957375D01*
X235142535Y-66975267D01*
X235190623Y-67058063D01*
X235221377Y-67092451D01*
X235223793Y-67091684D01*
X235245941Y-67048123D01*
X235290566Y-66948485D01*
X235344262Y-66823167D01*
X235451180Y-66569167D01*
X235539915Y-66780833D01*
X235596795Y-66916612D01*
X235644441Y-67030522D01*
X235662196Y-67073069D01*
X235687327Y-67111857D01*
X235719870Y-67097961D01*
X235772992Y-67021981D01*
X235802457Y-66972938D01*
X235909172Y-66792238D01*
X235994524Y-66927043D01*
X236079877Y-67061848D01*
X236261784Y-66755653D01*
X236443691Y-66449459D01*
X236554095Y-66583777D01*
G36*
X224764653Y-67568551D02*
G01*
X224793214Y-67615304D01*
X224839335Y-67703302D01*
X224889671Y-67805309D01*
X224930877Y-67894093D01*
X224949610Y-67942420D01*
X224949108Y-67945000D01*
X224910777Y-67922782D01*
X224827435Y-67866527D01*
X224778914Y-67832405D01*
X224684466Y-67759158D01*
X224627872Y-67703596D01*
X224620667Y-67689422D01*
X224646976Y-67643212D01*
X224702797Y-67592277D01*
X224753471Y-67565710D01*
X224764653Y-67568551D01*
G37*
X224764653Y-67568551D02*
X224793214Y-67615304D01*
X224839335Y-67703302D01*
X224889671Y-67805309D01*
X224930877Y-67894093D01*
X224949610Y-67942420D01*
X224949108Y-67945000D01*
X224910777Y-67922782D01*
X224827435Y-67866527D01*
X224778914Y-67832405D01*
X224684466Y-67759158D01*
X224627872Y-67703596D01*
X224620667Y-67689422D01*
X224646976Y-67643212D01*
X224702797Y-67592277D01*
X224753471Y-67565710D01*
X224764653Y-67568551D01*
G36*
X223230395Y-67599190D02*
G01*
X223270271Y-67631365D01*
X223314083Y-67677933D01*
X223312916Y-67717432D01*
X223257853Y-67771496D01*
X223191348Y-67822869D01*
X223091873Y-67894148D01*
X223020868Y-67937668D01*
X223004397Y-67943822D01*
X223006743Y-67911616D01*
X223043509Y-67827574D01*
X223083319Y-67752318D01*
X223148054Y-67641897D01*
X223191107Y-67594719D01*
X223230395Y-67599190D01*
G37*
X223230395Y-67599190D02*
X223270271Y-67631365D01*
X223314083Y-67677933D01*
X223312916Y-67717432D01*
X223257853Y-67771496D01*
X223191348Y-67822869D01*
X223091873Y-67894148D01*
X223020868Y-67937668D01*
X223004397Y-67943822D01*
X223006743Y-67911616D01*
X223043509Y-67827574D01*
X223083319Y-67752318D01*
X223148054Y-67641897D01*
X223191107Y-67594719D01*
X223230395Y-67599190D01*
G36*
X224008931Y-67904075D02*
G01*
X224037477Y-67918950D01*
X224042612Y-67963268D01*
X224024933Y-68053005D01*
X223985038Y-68204138D01*
X223969756Y-68260415D01*
X223945755Y-68275040D01*
X223933761Y-68260092D01*
X223909983Y-68194399D01*
X223883548Y-68084535D01*
X223878965Y-68061094D01*
X223864211Y-67958041D01*
X223880437Y-67913318D01*
X223939434Y-67902792D01*
X223956376Y-67902667D01*
X224008931Y-67904075D01*
G37*
X224008931Y-67904075D02*
X224037477Y-67918950D01*
X224042612Y-67963268D01*
X224024933Y-68053005D01*
X223985038Y-68204138D01*
X223969756Y-68260415D01*
X223945755Y-68275040D01*
X223933761Y-68260092D01*
X223909983Y-68194399D01*
X223883548Y-68084535D01*
X223878965Y-68061094D01*
X223864211Y-67958041D01*
X223880437Y-67913318D01*
X223939434Y-67902792D01*
X223956376Y-67902667D01*
X224008931Y-67904075D01*
G36*
X230563499Y-67898187D02*
G01*
X230620309Y-68000350D01*
X230681529Y-68149726D01*
X230684016Y-68156667D01*
X230730409Y-68298393D01*
X230756859Y-68403196D01*
X230758667Y-68451732D01*
X230756006Y-68453000D01*
X230717801Y-68418164D01*
X230695500Y-68368333D01*
X230650632Y-68306854D01*
X230554200Y-68284474D01*
X230519351Y-68283667D01*
X230408814Y-68296928D01*
X230356238Y-68344490D01*
X230347933Y-68368333D01*
X230314580Y-68436957D01*
X230288760Y-68453000D01*
X230284200Y-68417048D01*
X230306676Y-68322291D01*
X230351387Y-68188381D01*
X230357197Y-68172793D01*
X230361966Y-68159928D01*
X230427898Y-68159928D01*
X230433931Y-68219474D01*
X230489598Y-68239966D01*
X230529020Y-68241333D01*
X230605739Y-68230547D01*
X230618079Y-68182916D01*
X230608565Y-68146083D01*
X230562549Y-68016607D01*
X230524841Y-67966287D01*
X230489482Y-67990825D01*
X230465644Y-68043006D01*
X230427898Y-68159928D01*
X230361966Y-68159928D01*
X230409211Y-68032494D01*
X230446886Y-67926844D01*
X230462588Y-67877296D01*
X230462667Y-67876460D01*
X230496863Y-67861752D01*
X230520530Y-67860333D01*
X230563499Y-67898187D01*
G37*
X230563499Y-67898187D02*
X230620309Y-68000350D01*
X230681529Y-68149726D01*
X230684016Y-68156667D01*
X230730409Y-68298393D01*
X230756859Y-68403196D01*
X230758667Y-68451732D01*
X230756006Y-68453000D01*
X230717801Y-68418164D01*
X230695500Y-68368333D01*
X230650632Y-68306854D01*
X230554200Y-68284474D01*
X230519351Y-68283667D01*
X230408814Y-68296928D01*
X230356238Y-68344490D01*
X230347933Y-68368333D01*
X230314580Y-68436957D01*
X230288760Y-68453000D01*
X230284200Y-68417048D01*
X230306676Y-68322291D01*
X230351387Y-68188381D01*
X230357197Y-68172793D01*
X230361966Y-68159928D01*
X230427898Y-68159928D01*
X230433931Y-68219474D01*
X230489598Y-68239966D01*
X230529020Y-68241333D01*
X230605739Y-68230547D01*
X230618079Y-68182916D01*
X230608565Y-68146083D01*
X230562549Y-68016607D01*
X230524841Y-67966287D01*
X230489482Y-67990825D01*
X230465644Y-68043006D01*
X230427898Y-68159928D01*
X230361966Y-68159928D01*
X230409211Y-68032494D01*
X230446886Y-67926844D01*
X230462588Y-67877296D01*
X230462667Y-67876460D01*
X230496863Y-67861752D01*
X230520530Y-67860333D01*
X230563499Y-67898187D01*
G36*
X230007584Y-67868482D02*
G01*
X230124681Y-67884456D01*
X230181501Y-67919130D01*
X230201333Y-67979080D01*
X230184012Y-68102398D01*
X230102525Y-68180606D01*
X230012983Y-68199000D01*
X229940779Y-68213794D01*
X229914481Y-68274876D01*
X229912334Y-68326000D01*
X229900071Y-68415171D01*
X229870527Y-68452990D01*
X229870000Y-68453000D01*
X229848330Y-68413816D01*
X229833340Y-68308665D01*
X229827668Y-68156153D01*
X229827667Y-68154232D01*
X229827667Y-68029667D01*
X229912334Y-68029667D01*
X229926450Y-68123677D01*
X229976883Y-68155923D01*
X229991817Y-68156667D01*
X230085351Y-68125920D01*
X230124000Y-68093167D01*
X230147029Y-68014311D01*
X230105151Y-67942786D01*
X230016129Y-67904195D01*
X229991817Y-67902667D01*
X229932980Y-67925222D01*
X229912799Y-68005805D01*
X229912334Y-68029667D01*
X229827667Y-68029667D01*
X229827667Y-67855465D01*
X230007584Y-67868482D01*
G37*
X230007584Y-67868482D02*
X230124681Y-67884456D01*
X230181501Y-67919130D01*
X230201333Y-67979080D01*
X230184012Y-68102398D01*
X230102525Y-68180606D01*
X230012983Y-68199000D01*
X229940779Y-68213794D01*
X229914481Y-68274876D01*
X229912334Y-68326000D01*
X229900071Y-68415171D01*
X229870527Y-68452990D01*
X229870000Y-68453000D01*
X229848330Y-68413816D01*
X229833340Y-68308665D01*
X229827668Y-68156153D01*
X229827667Y-68154232D01*
X229827667Y-68029667D01*
X229912334Y-68029667D01*
X229926450Y-68123677D01*
X229976883Y-68155923D01*
X229991817Y-68156667D01*
X230085351Y-68125920D01*
X230124000Y-68093167D01*
X230147029Y-68014311D01*
X230105151Y-67942786D01*
X230016129Y-67904195D01*
X229991817Y-67902667D01*
X229932980Y-67925222D01*
X229912799Y-68005805D01*
X229912334Y-68029667D01*
X229827667Y-68029667D01*
X229827667Y-67855465D01*
X230007584Y-67868482D01*
G36*
X229351975Y-67854091D02*
G01*
X229362000Y-67919492D01*
X229374070Y-67989272D01*
X229427060Y-68014348D01*
X229499584Y-68014742D01*
X229637167Y-68008500D01*
X229641640Y-68241333D01*
X229642705Y-68353401D01*
X229639701Y-68382702D01*
X229632213Y-68331055D01*
X229628784Y-68297547D01*
X229593552Y-68146745D01*
X229533998Y-68058520D01*
X229465912Y-68034677D01*
X229405086Y-68077024D01*
X229367311Y-68187367D01*
X229362000Y-68267029D01*
X229353400Y-68379058D01*
X229331695Y-68445307D01*
X229319667Y-68453000D01*
X229298336Y-68413604D01*
X229283469Y-68306961D01*
X229277373Y-68150389D01*
X229277334Y-68135500D01*
X229282586Y-67975520D01*
X229296805Y-67864013D01*
X229317682Y-67818297D01*
X229319667Y-67818000D01*
X229351975Y-67854091D01*
G37*
X229351975Y-67854091D02*
X229362000Y-67919492D01*
X229374070Y-67989272D01*
X229427060Y-68014348D01*
X229499584Y-68014742D01*
X229637167Y-68008500D01*
X229641640Y-68241333D01*
X229642705Y-68353401D01*
X229639701Y-68382702D01*
X229632213Y-68331055D01*
X229628784Y-68297547D01*
X229593552Y-68146745D01*
X229533998Y-68058520D01*
X229465912Y-68034677D01*
X229405086Y-68077024D01*
X229367311Y-68187367D01*
X229362000Y-68267029D01*
X229353400Y-68379058D01*
X229331695Y-68445307D01*
X229319667Y-68453000D01*
X229298336Y-68413604D01*
X229283469Y-68306961D01*
X229277373Y-68150389D01*
X229277334Y-68135500D01*
X229282586Y-67975520D01*
X229296805Y-67864013D01*
X229317682Y-67818297D01*
X229319667Y-67818000D01*
X229351975Y-67854091D01*
G36*
X216311861Y-59182588D02*
G01*
X216583165Y-59184241D01*
X216811784Y-59186798D01*
X216986109Y-59190095D01*
X217094528Y-59193970D01*
X217126207Y-59197672D01*
X217092140Y-59227018D01*
X217002734Y-59289060D01*
X216877182Y-59370492D01*
X216874396Y-59372251D01*
X216667195Y-59510131D01*
X216517398Y-59633664D01*
X216404389Y-59767302D01*
X216307551Y-59935498D01*
X216206268Y-60162706D01*
X216204612Y-60166682D01*
X216131819Y-60347888D01*
X216074100Y-60503564D01*
X216038811Y-60613158D01*
X216031379Y-60650584D01*
X216012363Y-60729836D01*
X215964736Y-60846911D01*
X215943793Y-60889931D01*
X215878636Y-61081270D01*
X215856207Y-61278645D01*
X215862706Y-61415292D01*
X215894881Y-61504679D01*
X215971747Y-61585869D01*
X216028117Y-61631830D01*
X216143237Y-61710192D01*
X216214656Y-61730829D01*
X216228867Y-61721322D01*
X216281321Y-61670945D01*
X216379626Y-61598784D01*
X216427064Y-61567748D01*
X216550573Y-61469123D01*
X216613166Y-61356108D01*
X216626089Y-61302696D01*
X216695097Y-61137986D01*
X216802266Y-61011234D01*
X216885503Y-60924710D01*
X216927100Y-60859592D01*
X216927376Y-60843287D01*
X216948860Y-60803676D01*
X217027710Y-60742608D01*
X217081781Y-60709852D01*
X217186881Y-60640211D01*
X217249713Y-60578164D01*
X217257586Y-60558104D01*
X217297743Y-60495880D01*
X217407738Y-60459100D01*
X217507052Y-60452000D01*
X217607926Y-60431328D01*
X217745370Y-60378400D01*
X217831988Y-60335520D01*
X217964854Y-60269282D01*
X218054329Y-60245554D01*
X218129961Y-60258355D01*
X218157218Y-60269713D01*
X218252298Y-60296692D01*
X218405838Y-60323258D01*
X218588820Y-60344643D01*
X218638873Y-60348861D01*
X218819699Y-60361012D01*
X218930223Y-60361999D01*
X218987260Y-60349723D01*
X219007624Y-60322084D01*
X219009310Y-60302600D01*
X218989591Y-60252442D01*
X218965517Y-60254931D01*
X218925072Y-60253540D01*
X218921724Y-60239269D01*
X218956371Y-60187844D01*
X218976465Y-60178063D01*
X219001190Y-60132570D01*
X218981704Y-60048930D01*
X218932341Y-59954143D01*
X218867433Y-59875208D01*
X218801315Y-59839124D01*
X218796415Y-59838897D01*
X218700678Y-59807068D01*
X218655144Y-59768602D01*
X218589624Y-59708152D01*
X218476451Y-59620030D01*
X218354178Y-59533065D01*
X218214551Y-59432580D01*
X218094280Y-59336639D01*
X218028126Y-59274911D01*
X217944701Y-59182000D01*
X219447241Y-59182000D01*
X219447123Y-63145276D01*
X218490583Y-63145276D01*
X218152238Y-63144662D01*
X217891398Y-63140935D01*
X217697984Y-63131267D01*
X217561915Y-63112832D01*
X217473110Y-63082803D01*
X217421490Y-63038351D01*
X217396974Y-62976652D01*
X217389482Y-62894876D01*
X217388965Y-62836313D01*
X217398864Y-62706779D01*
X217434273Y-62640407D01*
X217469625Y-62621957D01*
X217556343Y-62572505D01*
X217648544Y-62491765D01*
X217746803Y-62387173D01*
X217986875Y-62497081D01*
X218153359Y-62563169D01*
X218320694Y-62613798D01*
X218406019Y-62631008D01*
X218503231Y-62643951D01*
X218553235Y-62638092D01*
X218562660Y-62595899D01*
X218538137Y-62499846D01*
X218500906Y-62380137D01*
X218503377Y-62304690D01*
X218577099Y-62247153D01*
X218591170Y-62240509D01*
X218674610Y-62183550D01*
X218687608Y-62107887D01*
X218683938Y-62090905D01*
X218678744Y-62030668D01*
X218715160Y-61995699D01*
X218812806Y-61972011D01*
X218861480Y-61964335D01*
X219063197Y-61934085D01*
X219036638Y-61773301D01*
X219004660Y-61612774D01*
X218965239Y-61453351D01*
X218920400Y-61294186D01*
X218761309Y-61375295D01*
X218652943Y-61421139D01*
X218576891Y-61436445D01*
X218564967Y-61433382D01*
X218540565Y-61451149D01*
X218538600Y-61511439D01*
X218530402Y-61596382D01*
X218490099Y-61614688D01*
X218433078Y-61573317D01*
X218374721Y-61479227D01*
X218354353Y-61428107D01*
X218320320Y-61312522D01*
X218312717Y-61262173D01*
X218571379Y-61262173D01*
X218593276Y-61284069D01*
X218615172Y-61262173D01*
X218593276Y-61240276D01*
X218571379Y-61262173D01*
X218312717Y-61262173D01*
X218308726Y-61235746D01*
X218312231Y-61222068D01*
X218363119Y-61203658D01*
X218476103Y-61175942D01*
X218627025Y-61144828D01*
X218631502Y-61143977D01*
X218929144Y-61087515D01*
X218899317Y-60846395D01*
X218870436Y-60671898D01*
X218829397Y-60558085D01*
X218768699Y-60505880D01*
X218680843Y-60516210D01*
X218558331Y-60590002D01*
X218393663Y-60728180D01*
X218179340Y-60931671D01*
X218175110Y-60935811D01*
X217997859Y-61103967D01*
X217848277Y-61235268D01*
X217736547Y-61321353D01*
X217672854Y-61353857D01*
X217666848Y-61353220D01*
X217618562Y-61367053D01*
X217607931Y-61422749D01*
X217580817Y-61505232D01*
X217515305Y-61595839D01*
X217435139Y-61669935D01*
X217364063Y-61702887D01*
X217342310Y-61698335D01*
X217266283Y-61668057D01*
X217224906Y-61657598D01*
X217114486Y-61627033D01*
X217071465Y-61611602D01*
X217010732Y-61602795D01*
X217001095Y-61649446D01*
X217042306Y-61758551D01*
X217064557Y-61804527D01*
X217124944Y-61898566D01*
X217187576Y-61923421D01*
X217223014Y-61916142D01*
X217288361Y-61909334D01*
X217292146Y-61947318D01*
X217239936Y-61987858D01*
X217128246Y-62022877D01*
X217057051Y-62035286D01*
X216886578Y-62068480D01*
X216693817Y-62120935D01*
X216600689Y-62152124D01*
X216359827Y-62240332D01*
X216286120Y-62539528D01*
X216236505Y-62713923D01*
X216179638Y-62834830D01*
X216096619Y-62935569D01*
X216023361Y-63002830D01*
X215834310Y-63166936D01*
X215363534Y-63167054D01*
X214892758Y-63167173D01*
X214892758Y-59182000D01*
X216009483Y-59182000D01*
X216311861Y-59182588D01*
G37*
X216311861Y-59182588D02*
X216583165Y-59184241D01*
X216811784Y-59186798D01*
X216986109Y-59190095D01*
X217094528Y-59193970D01*
X217126207Y-59197672D01*
X217092140Y-59227018D01*
X217002734Y-59289060D01*
X216877182Y-59370492D01*
X216874396Y-59372251D01*
X216667195Y-59510131D01*
X216517398Y-59633664D01*
X216404389Y-59767302D01*
X216307551Y-59935498D01*
X216206268Y-60162706D01*
X216204612Y-60166682D01*
X216131819Y-60347888D01*
X216074100Y-60503564D01*
X216038811Y-60613158D01*
X216031379Y-60650584D01*
X216012363Y-60729836D01*
X215964736Y-60846911D01*
X215943793Y-60889931D01*
X215878636Y-61081270D01*
X215856207Y-61278645D01*
X215862706Y-61415292D01*
X215894881Y-61504679D01*
X215971747Y-61585869D01*
X216028117Y-61631830D01*
X216143237Y-61710192D01*
X216214656Y-61730829D01*
X216228867Y-61721322D01*
X216281321Y-61670945D01*
X216379626Y-61598784D01*
X216427064Y-61567748D01*
X216550573Y-61469123D01*
X216613166Y-61356108D01*
X216626089Y-61302696D01*
X216695097Y-61137986D01*
X216802266Y-61011234D01*
X216885503Y-60924710D01*
X216927100Y-60859592D01*
X216927376Y-60843287D01*
X216948860Y-60803676D01*
X217027710Y-60742608D01*
X217081781Y-60709852D01*
X217186881Y-60640211D01*
X217249713Y-60578164D01*
X217257586Y-60558104D01*
X217297743Y-60495880D01*
X217407738Y-60459100D01*
X217507052Y-60452000D01*
X217607926Y-60431328D01*
X217745370Y-60378400D01*
X217831988Y-60335520D01*
X217964854Y-60269282D01*
X218054329Y-60245554D01*
X218129961Y-60258355D01*
X218157218Y-60269713D01*
X218252298Y-60296692D01*
X218405838Y-60323258D01*
X218588820Y-60344643D01*
X218638873Y-60348861D01*
X218819699Y-60361012D01*
X218930223Y-60361999D01*
X218987260Y-60349723D01*
X219007624Y-60322084D01*
X219009310Y-60302600D01*
X218989591Y-60252442D01*
X218965517Y-60254931D01*
X218925072Y-60253540D01*
X218921724Y-60239269D01*
X218956371Y-60187844D01*
X218976465Y-60178063D01*
X219001190Y-60132570D01*
X218981704Y-60048930D01*
X218932341Y-59954143D01*
X218867433Y-59875208D01*
X218801315Y-59839124D01*
X218796415Y-59838897D01*
X218700678Y-59807068D01*
X218655144Y-59768602D01*
X218589624Y-59708152D01*
X218476451Y-59620030D01*
X218354178Y-59533065D01*
X218214551Y-59432580D01*
X218094280Y-59336639D01*
X218028126Y-59274911D01*
X217944701Y-59182000D01*
X219447241Y-59182000D01*
X219447123Y-63145276D01*
X218490583Y-63145276D01*
X218152238Y-63144662D01*
X217891398Y-63140935D01*
X217697984Y-63131267D01*
X217561915Y-63112832D01*
X217473110Y-63082803D01*
X217421490Y-63038351D01*
X217396974Y-62976652D01*
X217389482Y-62894876D01*
X217388965Y-62836313D01*
X217398864Y-62706779D01*
X217434273Y-62640407D01*
X217469625Y-62621957D01*
X217556343Y-62572505D01*
X217648544Y-62491765D01*
X217746803Y-62387173D01*
X217986875Y-62497081D01*
X218153359Y-62563169D01*
X218320694Y-62613798D01*
X218406019Y-62631008D01*
X218503231Y-62643951D01*
X218553235Y-62638092D01*
X218562660Y-62595899D01*
X218538137Y-62499846D01*
X218500906Y-62380137D01*
X218503377Y-62304690D01*
X218577099Y-62247153D01*
X218591170Y-62240509D01*
X218674610Y-62183550D01*
X218687608Y-62107887D01*
X218683938Y-62090905D01*
X218678744Y-62030668D01*
X218715160Y-61995699D01*
X218812806Y-61972011D01*
X218861480Y-61964335D01*
X219063197Y-61934085D01*
X219036638Y-61773301D01*
X219004660Y-61612774D01*
X218965239Y-61453351D01*
X218920400Y-61294186D01*
X218761309Y-61375295D01*
X218652943Y-61421139D01*
X218576891Y-61436445D01*
X218564967Y-61433382D01*
X218540565Y-61451149D01*
X218538600Y-61511439D01*
X218530402Y-61596382D01*
X218490099Y-61614688D01*
X218433078Y-61573317D01*
X218374721Y-61479227D01*
X218354353Y-61428107D01*
X218320320Y-61312522D01*
X218312717Y-61262173D01*
X218571379Y-61262173D01*
X218593276Y-61284069D01*
X218615172Y-61262173D01*
X218593276Y-61240276D01*
X218571379Y-61262173D01*
X218312717Y-61262173D01*
X218308726Y-61235746D01*
X218312231Y-61222068D01*
X218363119Y-61203658D01*
X218476103Y-61175942D01*
X218627025Y-61144828D01*
X218631502Y-61143977D01*
X218929144Y-61087515D01*
X218899317Y-60846395D01*
X218870436Y-60671898D01*
X218829397Y-60558085D01*
X218768699Y-60505880D01*
X218680843Y-60516210D01*
X218558331Y-60590002D01*
X218393663Y-60728180D01*
X218179340Y-60931671D01*
X218175110Y-60935811D01*
X217997859Y-61103967D01*
X217848277Y-61235268D01*
X217736547Y-61321353D01*
X217672854Y-61353857D01*
X217666848Y-61353220D01*
X217618562Y-61367053D01*
X217607931Y-61422749D01*
X217580817Y-61505232D01*
X217515305Y-61595839D01*
X217435139Y-61669935D01*
X217364063Y-61702887D01*
X217342310Y-61698335D01*
X217266283Y-61668057D01*
X217224906Y-61657598D01*
X217114486Y-61627033D01*
X217071465Y-61611602D01*
X217010732Y-61602795D01*
X217001095Y-61649446D01*
X217042306Y-61758551D01*
X217064557Y-61804527D01*
X217124944Y-61898566D01*
X217187576Y-61923421D01*
X217223014Y-61916142D01*
X217288361Y-61909334D01*
X217292146Y-61947318D01*
X217239936Y-61987858D01*
X217128246Y-62022877D01*
X217057051Y-62035286D01*
X216886578Y-62068480D01*
X216693817Y-62120935D01*
X216600689Y-62152124D01*
X216359827Y-62240332D01*
X216286120Y-62539528D01*
X216236505Y-62713923D01*
X216179638Y-62834830D01*
X216096619Y-62935569D01*
X216023361Y-63002830D01*
X215834310Y-63166936D01*
X215363534Y-63167054D01*
X214892758Y-63167173D01*
X214892758Y-59182000D01*
X216009483Y-59182000D01*
X216311861Y-59182588D01*
G36*
X246428776Y-60497107D02*
G01*
X246709564Y-60500813D01*
X246948323Y-60506556D01*
X247133769Y-60513984D01*
X247254621Y-60522743D01*
X247299594Y-60532479D01*
X247299655Y-60532858D01*
X247281631Y-60593917D01*
X247237557Y-60694221D01*
X247230758Y-60708030D01*
X247161861Y-60846138D01*
X245285172Y-60846138D01*
X245285172Y-61503035D01*
X247474827Y-61503035D01*
X247474827Y-61700651D01*
X247466941Y-61794014D01*
X247439680Y-61903730D01*
X247387643Y-62043835D01*
X247305425Y-62228362D01*
X247187626Y-62471347D01*
X247146105Y-62554616D01*
X246817383Y-63210966D01*
X245082429Y-63210966D01*
X245008628Y-63056204D01*
X244961514Y-62952675D01*
X244936206Y-62887849D01*
X244934827Y-62881032D01*
X244976394Y-62874718D01*
X245092190Y-62869199D01*
X245268861Y-62864796D01*
X245493051Y-62861832D01*
X245751405Y-62860632D01*
X245778809Y-62860621D01*
X246622791Y-62860621D01*
X246851740Y-62400267D01*
X246941368Y-62218334D01*
X247014542Y-62066536D01*
X247063546Y-61961106D01*
X247080689Y-61918543D01*
X247038871Y-61912645D01*
X246921312Y-61907370D01*
X246739858Y-61902955D01*
X246506353Y-61899636D01*
X246232643Y-61897648D01*
X246007758Y-61897173D01*
X244934827Y-61897173D01*
X244934827Y-60495793D01*
X246117241Y-60495793D01*
X246428776Y-60497107D01*
G37*
X246428776Y-60497107D02*
X246709564Y-60500813D01*
X246948323Y-60506556D01*
X247133769Y-60513984D01*
X247254621Y-60522743D01*
X247299594Y-60532479D01*
X247299655Y-60532858D01*
X247281631Y-60593917D01*
X247237557Y-60694221D01*
X247230758Y-60708030D01*
X247161861Y-60846138D01*
X245285172Y-60846138D01*
X245285172Y-61503035D01*
X247474827Y-61503035D01*
X247474827Y-61700651D01*
X247466941Y-61794014D01*
X247439680Y-61903730D01*
X247387643Y-62043835D01*
X247305425Y-62228362D01*
X247187626Y-62471347D01*
X247146105Y-62554616D01*
X246817383Y-63210966D01*
X245082429Y-63210966D01*
X245008628Y-63056204D01*
X244961514Y-62952675D01*
X244936206Y-62887849D01*
X244934827Y-62881032D01*
X244976394Y-62874718D01*
X245092190Y-62869199D01*
X245268861Y-62864796D01*
X245493051Y-62861832D01*
X245751405Y-62860632D01*
X245778809Y-62860621D01*
X246622791Y-62860621D01*
X246851740Y-62400267D01*
X246941368Y-62218334D01*
X247014542Y-62066536D01*
X247063546Y-61961106D01*
X247080689Y-61918543D01*
X247038871Y-61912645D01*
X246921312Y-61907370D01*
X246739858Y-61902955D01*
X246506353Y-61899636D01*
X246232643Y-61897648D01*
X246007758Y-61897173D01*
X244934827Y-61897173D01*
X244934827Y-60495793D01*
X246117241Y-60495793D01*
X246428776Y-60497107D01*
G36*
X242295359Y-60499843D02*
G01*
X242449671Y-60509396D01*
X242525315Y-60528055D01*
X242526655Y-60557488D01*
X242458056Y-60599362D01*
X242395767Y-60626783D01*
X242263448Y-60681592D01*
X242263448Y-61616345D01*
X242264428Y-61938587D01*
X242267936Y-62185824D01*
X242274822Y-62370618D01*
X242285938Y-62505532D01*
X242302134Y-62603131D01*
X242324262Y-62675978D01*
X242337249Y-62705859D01*
X242411049Y-62860621D01*
X243750634Y-62860621D01*
X243839110Y-62687193D01*
X243869047Y-62621643D01*
X243891404Y-62549726D01*
X243907270Y-62458074D01*
X243917733Y-62333319D01*
X243923880Y-62162095D01*
X243926801Y-61931033D01*
X243927583Y-61626766D01*
X243927586Y-61600476D01*
X243927586Y-60687188D01*
X243599138Y-60517690D01*
X243850948Y-60504556D01*
X244051584Y-60499329D01*
X244268579Y-60501256D01*
X244354569Y-60504556D01*
X244606379Y-60517690D01*
X244277931Y-60687188D01*
X244277931Y-62552620D01*
X243952173Y-63210966D01*
X242220633Y-63210966D01*
X242044971Y-62861593D01*
X241869310Y-62512220D01*
X241869310Y-60673058D01*
X241540862Y-60499664D01*
X242058015Y-60497729D01*
X242295359Y-60499843D01*
G37*
X242295359Y-60499843D02*
X242449671Y-60509396D01*
X242525315Y-60528055D01*
X242526655Y-60557488D01*
X242458056Y-60599362D01*
X242395767Y-60626783D01*
X242263448Y-60681592D01*
X242263448Y-61616345D01*
X242264428Y-61938587D01*
X242267936Y-62185824D01*
X242274822Y-62370618D01*
X242285938Y-62505532D01*
X242302134Y-62603131D01*
X242324262Y-62675978D01*
X242337249Y-62705859D01*
X242411049Y-62860621D01*
X243750634Y-62860621D01*
X243839110Y-62687193D01*
X243869047Y-62621643D01*
X243891404Y-62549726D01*
X243907270Y-62458074D01*
X243917733Y-62333319D01*
X243923880Y-62162095D01*
X243926801Y-61931033D01*
X243927583Y-61626766D01*
X243927586Y-61600476D01*
X243927586Y-60687188D01*
X243599138Y-60517690D01*
X243850948Y-60504556D01*
X244051584Y-60499329D01*
X244268579Y-60501256D01*
X244354569Y-60504556D01*
X244606379Y-60517690D01*
X244277931Y-60687188D01*
X244277931Y-62552620D01*
X243952173Y-63210966D01*
X242220633Y-63210966D01*
X242044971Y-62861593D01*
X241869310Y-62512220D01*
X241869310Y-60673058D01*
X241540862Y-60499664D01*
X242058015Y-60497729D01*
X242295359Y-60499843D01*
G36*
X240005782Y-60498215D02*
G01*
X240410249Y-60500923D01*
X240730505Y-60505893D01*
X240968224Y-60513171D01*
X241125082Y-60522800D01*
X241202751Y-60534822D01*
X241212414Y-60541761D01*
X241193682Y-60609820D01*
X241148330Y-60711615D01*
X241145599Y-60716934D01*
X241078785Y-60846138D01*
X240160255Y-60846138D01*
X239820021Y-60848233D01*
X239555115Y-60854411D01*
X239368809Y-60864513D01*
X239264379Y-60878382D01*
X239241724Y-60890661D01*
X239260395Y-60945206D01*
X239311221Y-61060723D01*
X239386423Y-61220230D01*
X239477496Y-61405299D01*
X239713268Y-61875416D01*
X239479741Y-62335173D01*
X239388061Y-62517954D01*
X239312893Y-62672158D01*
X239262205Y-62781140D01*
X239243969Y-62827776D01*
X239285035Y-62837214D01*
X239401363Y-62845591D01*
X239580629Y-62852497D01*
X239810513Y-62857519D01*
X240078690Y-62860246D01*
X240227069Y-62860621D01*
X240597437Y-62862629D01*
X240880622Y-62868665D01*
X241076936Y-62878742D01*
X241186692Y-62892875D01*
X241212414Y-62906589D01*
X241193682Y-62974648D01*
X241148330Y-63076442D01*
X241145599Y-63081761D01*
X241078785Y-63210966D01*
X239470513Y-63208165D01*
X239053837Y-63207248D01*
X238717259Y-63205846D01*
X238453291Y-63203582D01*
X238254446Y-63200081D01*
X238113236Y-63194967D01*
X238022174Y-63187863D01*
X237973771Y-63178393D01*
X237960539Y-63166181D01*
X237974991Y-63150851D01*
X238004569Y-63134530D01*
X238146896Y-63063696D01*
X238146896Y-61897173D01*
X236482758Y-61897173D01*
X236482758Y-63033701D01*
X236646983Y-63120398D01*
X236811207Y-63207095D01*
X235803965Y-63207095D01*
X235968189Y-63120398D01*
X236132414Y-63033701D01*
X236132414Y-60687188D01*
X235968189Y-60602439D01*
X235803965Y-60517690D01*
X236055776Y-60504556D01*
X236256412Y-60499329D01*
X236473407Y-60501256D01*
X236559396Y-60504556D01*
X236811207Y-60517690D01*
X236646983Y-60614747D01*
X236482758Y-60711805D01*
X236482758Y-61503035D01*
X238146896Y-61503035D01*
X238146896Y-60687188D01*
X238541034Y-60687188D01*
X238541034Y-63032996D01*
X238661465Y-63098331D01*
X238771837Y-63151719D01*
X238827042Y-63149736D01*
X238845894Y-63083896D01*
X238847586Y-63014379D01*
X238871100Y-62891202D01*
X238939668Y-62702513D01*
X239050335Y-62456056D01*
X239098515Y-62357483D01*
X239349444Y-61853379D01*
X239098515Y-61349276D01*
X238974839Y-61086690D01*
X238891230Y-60877639D01*
X238850898Y-60730516D01*
X238847586Y-60693088D01*
X238847586Y-60541003D01*
X238694310Y-60614096D01*
X238541034Y-60687188D01*
X238146896Y-60687188D01*
X238146896Y-60673058D01*
X237818448Y-60499664D01*
X239515431Y-60497729D01*
X240005782Y-60498215D01*
G37*
X240005782Y-60498215D02*
X240410249Y-60500923D01*
X240730505Y-60505893D01*
X240968224Y-60513171D01*
X241125082Y-60522800D01*
X241202751Y-60534822D01*
X241212414Y-60541761D01*
X241193682Y-60609820D01*
X241148330Y-60711615D01*
X241145599Y-60716934D01*
X241078785Y-60846138D01*
X240160255Y-60846138D01*
X239820021Y-60848233D01*
X239555115Y-60854411D01*
X239368809Y-60864513D01*
X239264379Y-60878382D01*
X239241724Y-60890661D01*
X239260395Y-60945206D01*
X239311221Y-61060723D01*
X239386423Y-61220230D01*
X239477496Y-61405299D01*
X239713268Y-61875416D01*
X239479741Y-62335173D01*
X239388061Y-62517954D01*
X239312893Y-62672158D01*
X239262205Y-62781140D01*
X239243969Y-62827776D01*
X239285035Y-62837214D01*
X239401363Y-62845591D01*
X239580629Y-62852497D01*
X239810513Y-62857519D01*
X240078690Y-62860246D01*
X240227069Y-62860621D01*
X240597437Y-62862629D01*
X240880622Y-62868665D01*
X241076936Y-62878742D01*
X241186692Y-62892875D01*
X241212414Y-62906589D01*
X241193682Y-62974648D01*
X241148330Y-63076442D01*
X241145599Y-63081761D01*
X241078785Y-63210966D01*
X239470513Y-63208165D01*
X239053837Y-63207248D01*
X238717259Y-63205846D01*
X238453291Y-63203582D01*
X238254446Y-63200081D01*
X238113236Y-63194967D01*
X238022174Y-63187863D01*
X237973771Y-63178393D01*
X237960539Y-63166181D01*
X237974991Y-63150851D01*
X238004569Y-63134530D01*
X238146896Y-63063696D01*
X238146896Y-61897173D01*
X236482758Y-61897173D01*
X236482758Y-63033701D01*
X236646983Y-63120398D01*
X236811207Y-63207095D01*
X235803965Y-63207095D01*
X235968189Y-63120398D01*
X236132414Y-63033701D01*
X236132414Y-60687188D01*
X235968189Y-60602439D01*
X235803965Y-60517690D01*
X236055776Y-60504556D01*
X236256412Y-60499329D01*
X236473407Y-60501256D01*
X236559396Y-60504556D01*
X236811207Y-60517690D01*
X236646983Y-60614747D01*
X236482758Y-60711805D01*
X236482758Y-61503035D01*
X238146896Y-61503035D01*
X238146896Y-60687188D01*
X238541034Y-60687188D01*
X238541034Y-63032996D01*
X238661465Y-63098331D01*
X238771837Y-63151719D01*
X238827042Y-63149736D01*
X238845894Y-63083896D01*
X238847586Y-63014379D01*
X238871100Y-62891202D01*
X238939668Y-62702513D01*
X239050335Y-62456056D01*
X239098515Y-62357483D01*
X239349444Y-61853379D01*
X239098515Y-61349276D01*
X238974839Y-61086690D01*
X238891230Y-60877639D01*
X238850898Y-60730516D01*
X238847586Y-60693088D01*
X238847586Y-60541003D01*
X238694310Y-60614096D01*
X238541034Y-60687188D01*
X238146896Y-60687188D01*
X238146896Y-60673058D01*
X237818448Y-60499664D01*
X239515431Y-60497729D01*
X240005782Y-60498215D01*
G36*
X235475517Y-60846138D02*
G01*
X234468276Y-60846138D01*
X234468276Y-63033701D01*
X234796724Y-63207095D01*
X233789483Y-63207095D01*
X234117931Y-63033701D01*
X234117931Y-60846138D01*
X233110689Y-60846138D01*
X233110689Y-60495793D01*
X235475517Y-60495793D01*
X235475517Y-60846138D01*
G37*
X235475517Y-60846138D02*
X234468276Y-60846138D01*
X234468276Y-63033701D01*
X234796724Y-63207095D01*
X233789483Y-63207095D01*
X234117931Y-63033701D01*
X234117931Y-60846138D01*
X233110689Y-60846138D01*
X233110689Y-60495793D01*
X235475517Y-60495793D01*
X235475517Y-60846138D01*
G36*
X231889465Y-60497107D02*
G01*
X232170253Y-60500813D01*
X232409012Y-60506556D01*
X232594459Y-60513984D01*
X232715310Y-60522743D01*
X232760283Y-60532479D01*
X232760345Y-60532858D01*
X232742321Y-60593917D01*
X232698247Y-60694221D01*
X232691447Y-60708030D01*
X232622550Y-60846138D01*
X231706103Y-60846138D01*
X231385001Y-60847341D01*
X231142880Y-60851293D01*
X230971162Y-60858507D01*
X230861271Y-60869498D01*
X230804628Y-60884777D01*
X230791900Y-60900879D01*
X230811717Y-60959689D01*
X230863911Y-61078577D01*
X230940411Y-61239932D01*
X231027672Y-61415379D01*
X231261199Y-61875136D01*
X231025427Y-62345253D01*
X230934077Y-62529178D01*
X230859210Y-62683299D01*
X230808509Y-62791560D01*
X230789657Y-62837905D01*
X230789655Y-62837995D01*
X230831387Y-62844498D01*
X230948345Y-62850270D01*
X231128167Y-62855028D01*
X231358494Y-62858487D01*
X231626965Y-62860364D01*
X231775000Y-62860621D01*
X232145368Y-62862629D01*
X232428553Y-62868665D01*
X232624867Y-62878742D01*
X232734623Y-62892875D01*
X232760345Y-62906589D01*
X232741613Y-62974648D01*
X232696261Y-63076442D01*
X232693530Y-63081761D01*
X232626716Y-63210966D01*
X230395517Y-63210966D01*
X230395517Y-63036276D01*
X230412127Y-62917282D01*
X230464822Y-62755945D01*
X230557904Y-62540631D01*
X230646446Y-62357483D01*
X230897375Y-61853379D01*
X230646446Y-61349276D01*
X230523451Y-61090622D01*
X230443765Y-60893852D01*
X230403089Y-60747335D01*
X230395517Y-60670483D01*
X230395517Y-60495793D01*
X231577931Y-60495793D01*
X231889465Y-60497107D01*
G37*
X231889465Y-60497107D02*
X232170253Y-60500813D01*
X232409012Y-60506556D01*
X232594459Y-60513984D01*
X232715310Y-60522743D01*
X232760283Y-60532479D01*
X232760345Y-60532858D01*
X232742321Y-60593917D01*
X232698247Y-60694221D01*
X232691447Y-60708030D01*
X232622550Y-60846138D01*
X231706103Y-60846138D01*
X231385001Y-60847341D01*
X231142880Y-60851293D01*
X230971162Y-60858507D01*
X230861271Y-60869498D01*
X230804628Y-60884777D01*
X230791900Y-60900879D01*
X230811717Y-60959689D01*
X230863911Y-61078577D01*
X230940411Y-61239932D01*
X231027672Y-61415379D01*
X231261199Y-61875136D01*
X231025427Y-62345253D01*
X230934077Y-62529178D01*
X230859210Y-62683299D01*
X230808509Y-62791560D01*
X230789657Y-62837905D01*
X230789655Y-62837995D01*
X230831387Y-62844498D01*
X230948345Y-62850270D01*
X231128167Y-62855028D01*
X231358494Y-62858487D01*
X231626965Y-62860364D01*
X231775000Y-62860621D01*
X232145368Y-62862629D01*
X232428553Y-62868665D01*
X232624867Y-62878742D01*
X232734623Y-62892875D01*
X232760345Y-62906589D01*
X232741613Y-62974648D01*
X232696261Y-63076442D01*
X232693530Y-63081761D01*
X232626716Y-63210966D01*
X230395517Y-63210966D01*
X230395517Y-63036276D01*
X230412127Y-62917282D01*
X230464822Y-62755945D01*
X230557904Y-62540631D01*
X230646446Y-62357483D01*
X230897375Y-61853379D01*
X230646446Y-61349276D01*
X230523451Y-61090622D01*
X230443765Y-60893852D01*
X230403089Y-60747335D01*
X230395517Y-60670483D01*
X230395517Y-60495793D01*
X231577931Y-60495793D01*
X231889465Y-60497107D01*
G36*
X228211103Y-61161811D02*
G01*
X228544792Y-61831283D01*
X228879222Y-61163538D01*
X229213651Y-60495793D01*
X229738621Y-60495793D01*
X229738621Y-63033701D01*
X230067069Y-63207095D01*
X229059827Y-63207095D01*
X229224052Y-63120398D01*
X229388276Y-63033701D01*
X229385972Y-61972764D01*
X229383669Y-60911828D01*
X228730807Y-62203724D01*
X228357719Y-62203724D01*
X228043450Y-61579673D01*
X227729181Y-60955621D01*
X227726659Y-62009658D01*
X227724138Y-63063696D01*
X227866465Y-63134530D01*
X227925163Y-63165394D01*
X227945878Y-63185671D01*
X227917959Y-63197584D01*
X227830756Y-63203355D01*
X227673619Y-63205208D01*
X227527069Y-63205364D01*
X227318210Y-63204866D01*
X227186278Y-63201899D01*
X227120609Y-63194251D01*
X227110546Y-63179712D01*
X227145426Y-63156070D01*
X227187023Y-63134838D01*
X227328701Y-63064311D01*
X227340299Y-61791000D01*
X227351896Y-60517690D01*
X227877414Y-60492340D01*
X228211103Y-61161811D01*
G37*
X228211103Y-61161811D02*
X228544792Y-61831283D01*
X228879222Y-61163538D01*
X229213651Y-60495793D01*
X229738621Y-60495793D01*
X229738621Y-63033701D01*
X230067069Y-63207095D01*
X229059827Y-63207095D01*
X229224052Y-63120398D01*
X229388276Y-63033701D01*
X229385972Y-61972764D01*
X229383669Y-60911828D01*
X228730807Y-62203724D01*
X228357719Y-62203724D01*
X228043450Y-61579673D01*
X227729181Y-60955621D01*
X227726659Y-62009658D01*
X227724138Y-63063696D01*
X227866465Y-63134530D01*
X227925163Y-63165394D01*
X227945878Y-63185671D01*
X227917959Y-63197584D01*
X227830756Y-63203355D01*
X227673619Y-63205208D01*
X227527069Y-63205364D01*
X227318210Y-63204866D01*
X227186278Y-63201899D01*
X227120609Y-63194251D01*
X227110546Y-63179712D01*
X227145426Y-63156070D01*
X227187023Y-63134838D01*
X227328701Y-63064311D01*
X227340299Y-61791000D01*
X227351896Y-60517690D01*
X227877414Y-60492340D01*
X228211103Y-61161811D01*
G36*
X226357200Y-60501256D02*
G01*
X226443189Y-60504556D01*
X226695000Y-60517690D01*
X226366552Y-60687188D01*
X226366552Y-63033701D01*
X226695000Y-63207095D01*
X225687758Y-63207095D01*
X225851983Y-63120398D01*
X226016207Y-63033701D01*
X226016207Y-60711805D01*
X225851983Y-60614747D01*
X225687758Y-60517690D01*
X225939569Y-60504556D01*
X226140205Y-60499329D01*
X226357200Y-60501256D01*
G37*
X226357200Y-60501256D02*
X226443189Y-60504556D01*
X226695000Y-60517690D01*
X226366552Y-60687188D01*
X226366552Y-63033701D01*
X226695000Y-63207095D01*
X225687758Y-63207095D01*
X225851983Y-63120398D01*
X226016207Y-63033701D01*
X226016207Y-60711805D01*
X225851983Y-60614747D01*
X225687758Y-60517690D01*
X225939569Y-60504556D01*
X226140205Y-60499329D01*
X226357200Y-60501256D01*
G36*
X225179427Y-60836770D02*
G01*
X225350867Y-61177746D01*
X224987069Y-61875276D01*
X224144052Y-61887170D01*
X223301034Y-61899064D01*
X223301034Y-63033701D01*
X223465258Y-63120398D01*
X223629483Y-63207095D01*
X222622241Y-63207095D01*
X222950689Y-63033701D01*
X222950689Y-60846138D01*
X223301034Y-60846138D01*
X223301034Y-61503035D01*
X224835210Y-61503035D01*
X224907552Y-61351332D01*
X224949949Y-61249367D01*
X224954841Y-61170045D01*
X224921268Y-61070539D01*
X224900192Y-61022884D01*
X224820491Y-60846138D01*
X223301034Y-60846138D01*
X222950689Y-60846138D01*
X222950689Y-60495793D01*
X225007988Y-60495793D01*
X225179427Y-60836770D01*
G37*
X225179427Y-60836770D02*
X225350867Y-61177746D01*
X224987069Y-61875276D01*
X224144052Y-61887170D01*
X223301034Y-61899064D01*
X223301034Y-63033701D01*
X223465258Y-63120398D01*
X223629483Y-63207095D01*
X222622241Y-63207095D01*
X222950689Y-63033701D01*
X222950689Y-60846138D01*
X223301034Y-60846138D01*
X223301034Y-61503035D01*
X224835210Y-61503035D01*
X224907552Y-61351332D01*
X224949949Y-61249367D01*
X224954841Y-61170045D01*
X224921268Y-61070539D01*
X224900192Y-61022884D01*
X224820491Y-60846138D01*
X223301034Y-60846138D01*
X222950689Y-60846138D01*
X222950689Y-60495793D01*
X225007988Y-60495793D01*
X225179427Y-60836770D01*
G36*
X221422916Y-60496517D02*
G01*
X221703706Y-60498557D01*
X221942466Y-60501720D01*
X222127913Y-60505811D01*
X222248762Y-60510634D01*
X222293732Y-60515996D01*
X222293793Y-60516204D01*
X222276687Y-60565105D01*
X222234186Y-60661231D01*
X222219992Y-60691376D01*
X222146192Y-60846138D01*
X220279791Y-60846138D01*
X220530480Y-61349759D01*
X220781168Y-61853379D01*
X220530480Y-62357000D01*
X220279791Y-62860621D01*
X221286792Y-62860621D01*
X221573240Y-62861467D01*
X221827997Y-62863841D01*
X222038838Y-62867494D01*
X222193536Y-62872179D01*
X222279864Y-62877649D01*
X222293793Y-62881032D01*
X222276687Y-62929933D01*
X222234186Y-63026059D01*
X222219992Y-63056204D01*
X222146192Y-63210966D01*
X219928965Y-63210966D01*
X219928965Y-63035064D01*
X219945251Y-62915789D01*
X219997177Y-62756400D01*
X220089345Y-62544428D01*
X220175062Y-62368459D01*
X220421159Y-61877756D01*
X220175062Y-61383361D01*
X220061188Y-61145966D01*
X219986344Y-60966472D01*
X219944422Y-60827725D01*
X219929310Y-60712567D01*
X219928965Y-60692380D01*
X219928965Y-60495793D01*
X221111379Y-60495793D01*
X221422916Y-60496517D01*
G37*
X221422916Y-60496517D02*
X221703706Y-60498557D01*
X221942466Y-60501720D01*
X222127913Y-60505811D01*
X222248762Y-60510634D01*
X222293732Y-60515996D01*
X222293793Y-60516204D01*
X222276687Y-60565105D01*
X222234186Y-60661231D01*
X222219992Y-60691376D01*
X222146192Y-60846138D01*
X220279791Y-60846138D01*
X220530480Y-61349759D01*
X220781168Y-61853379D01*
X220530480Y-62357000D01*
X220279791Y-62860621D01*
X221286792Y-62860621D01*
X221573240Y-62861467D01*
X221827997Y-62863841D01*
X222038838Y-62867494D01*
X222193536Y-62872179D01*
X222279864Y-62877649D01*
X222293793Y-62881032D01*
X222276687Y-62929933D01*
X222234186Y-63026059D01*
X222219992Y-63056204D01*
X222146192Y-63210966D01*
X219928965Y-63210966D01*
X219928965Y-63035064D01*
X219945251Y-62915789D01*
X219997177Y-62756400D01*
X220089345Y-62544428D01*
X220175062Y-62368459D01*
X220421159Y-61877756D01*
X220175062Y-61383361D01*
X220061188Y-61145966D01*
X219986344Y-60966472D01*
X219944422Y-60827725D01*
X219929310Y-60712567D01*
X219928965Y-60692380D01*
X219928965Y-60495793D01*
X221111379Y-60495793D01*
X221422916Y-60496517D01*
G36*
X219272069Y-64427758D02*
G01*
X219009909Y-64431448D01*
X218861894Y-64430388D01*
X218775031Y-64415275D01*
X218722980Y-64376125D01*
X218681461Y-64306951D01*
X218623290Y-64109719D01*
X218624725Y-64056548D01*
X218864285Y-64056548D01*
X218885687Y-64168594D01*
X218936346Y-64244905D01*
X218986330Y-64262000D01*
X219026197Y-64241572D01*
X219046900Y-64168949D01*
X219053091Y-64027125D01*
X219053103Y-64017927D01*
X219049063Y-63877595D01*
X219033054Y-63806382D01*
X218999242Y-63786035D01*
X218979615Y-63788013D01*
X218910850Y-63838057D01*
X218872540Y-63936969D01*
X218864285Y-64056548D01*
X218624725Y-64056548D01*
X218629090Y-63894877D01*
X218681986Y-63734308D01*
X218748453Y-63641945D01*
X218840907Y-63607811D01*
X218900952Y-63605104D01*
X219002936Y-63598251D01*
X219044761Y-63559788D01*
X219053086Y-63462861D01*
X219053103Y-63451828D01*
X219061283Y-63348174D01*
X219098093Y-63305739D01*
X219162586Y-63298552D01*
X219272069Y-63298552D01*
X219272069Y-64427758D01*
G37*
X219272069Y-64427758D02*
X219009909Y-64431448D01*
X218861894Y-64430388D01*
X218775031Y-64415275D01*
X218722980Y-64376125D01*
X218681461Y-64306951D01*
X218623290Y-64109719D01*
X218624725Y-64056548D01*
X218864285Y-64056548D01*
X218885687Y-64168594D01*
X218936346Y-64244905D01*
X218986330Y-64262000D01*
X219026197Y-64241572D01*
X219046900Y-64168949D01*
X219053091Y-64027125D01*
X219053103Y-64017927D01*
X219049063Y-63877595D01*
X219033054Y-63806382D01*
X218999242Y-63786035D01*
X218979615Y-63788013D01*
X218910850Y-63838057D01*
X218872540Y-63936969D01*
X218864285Y-64056548D01*
X218624725Y-64056548D01*
X218629090Y-63894877D01*
X218681986Y-63734308D01*
X218748453Y-63641945D01*
X218840907Y-63607811D01*
X218900952Y-63605104D01*
X219002936Y-63598251D01*
X219044761Y-63559788D01*
X219053086Y-63462861D01*
X219053103Y-63451828D01*
X219061283Y-63348174D01*
X219098093Y-63305739D01*
X219162586Y-63298552D01*
X219272069Y-63298552D01*
X219272069Y-64427758D01*
G36*
X218469142Y-63608063D02*
G01*
X218501187Y-63627966D01*
X218518660Y-63681346D01*
X218525980Y-63784739D01*
X218527567Y-63954678D01*
X218527586Y-64014677D01*
X218527586Y-64424251D01*
X218249178Y-64428995D01*
X218095534Y-64428651D01*
X218005433Y-64415926D01*
X217954957Y-64383169D01*
X217920730Y-64323912D01*
X217895068Y-64224216D01*
X217877019Y-64071256D01*
X217870689Y-63909595D01*
X217872326Y-63750100D01*
X217881824Y-63659037D01*
X217906069Y-63617258D01*
X217951947Y-63605614D01*
X217980172Y-63605104D01*
X218044001Y-63611796D01*
X218076643Y-63646473D01*
X218088585Y-63731036D01*
X218090253Y-63835017D01*
X218099024Y-64045620D01*
X218126158Y-64180004D01*
X218174852Y-64248217D01*
X218226142Y-64262000D01*
X218268450Y-64252870D01*
X218293284Y-64213516D01*
X218305151Y-64125991D01*
X218308558Y-63972346D01*
X218308621Y-63933552D01*
X218309985Y-63766489D01*
X218318178Y-63668561D01*
X218339350Y-63621318D01*
X218379649Y-63606311D01*
X218418103Y-63605104D01*
X218469142Y-63608063D01*
G37*
X218469142Y-63608063D02*
X218501187Y-63627966D01*
X218518660Y-63681346D01*
X218525980Y-63784739D01*
X218527567Y-63954678D01*
X218527586Y-64014677D01*
X218527586Y-64424251D01*
X218249178Y-64428995D01*
X218095534Y-64428651D01*
X218005433Y-64415926D01*
X217954957Y-64383169D01*
X217920730Y-64323912D01*
X217895068Y-64224216D01*
X217877019Y-64071256D01*
X217870689Y-63909595D01*
X217872326Y-63750100D01*
X217881824Y-63659037D01*
X217906069Y-63617258D01*
X217951947Y-63605614D01*
X217980172Y-63605104D01*
X218044001Y-63611796D01*
X218076643Y-63646473D01*
X218088585Y-63731036D01*
X218090253Y-63835017D01*
X218099024Y-64045620D01*
X218126158Y-64180004D01*
X218174852Y-64248217D01*
X218226142Y-64262000D01*
X218268450Y-64252870D01*
X218293284Y-64213516D01*
X218305151Y-64125991D01*
X218308558Y-63972346D01*
X218308621Y-63933552D01*
X218309985Y-63766489D01*
X218318178Y-63668561D01*
X218339350Y-63621318D01*
X218379649Y-63606311D01*
X218418103Y-63605104D01*
X218469142Y-63608063D01*
G36*
X217699556Y-63302456D02*
G01*
X217761529Y-63322089D01*
X217781627Y-63369334D01*
X217783103Y-63408035D01*
X217768963Y-63486279D01*
X217708856Y-63514903D01*
X217651724Y-63517517D01*
X217559417Y-63525232D01*
X217520353Y-63543814D01*
X217520345Y-63544107D01*
X217539960Y-63592581D01*
X217591915Y-63696958D01*
X217665877Y-63836658D01*
X217683386Y-63868827D01*
X217766674Y-64028518D01*
X217809881Y-64137122D01*
X217819537Y-64217703D01*
X217802951Y-64291116D01*
X217770491Y-64362165D01*
X217720048Y-64401299D01*
X217626540Y-64420215D01*
X217508531Y-64428410D01*
X217366593Y-64432868D01*
X217291245Y-64422983D01*
X217261864Y-64392455D01*
X217257586Y-64351772D01*
X217273929Y-64290087D01*
X217338745Y-64265122D01*
X217410862Y-64262000D01*
X217512158Y-64250042D01*
X217562808Y-64220637D01*
X217564138Y-64214374D01*
X217543980Y-64154794D01*
X217490957Y-64042957D01*
X217416242Y-63902316D01*
X217410862Y-63892666D01*
X217302755Y-63672247D01*
X217258984Y-63507709D01*
X217280911Y-63394061D01*
X217369896Y-63326310D01*
X217527302Y-63299465D01*
X217572896Y-63298552D01*
X217699556Y-63302456D01*
G37*
X217699556Y-63302456D02*
X217761529Y-63322089D01*
X217781627Y-63369334D01*
X217783103Y-63408035D01*
X217768963Y-63486279D01*
X217708856Y-63514903D01*
X217651724Y-63517517D01*
X217559417Y-63525232D01*
X217520353Y-63543814D01*
X217520345Y-63544107D01*
X217539960Y-63592581D01*
X217591915Y-63696958D01*
X217665877Y-63836658D01*
X217683386Y-63868827D01*
X217766674Y-64028518D01*
X217809881Y-64137122D01*
X217819537Y-64217703D01*
X217802951Y-64291116D01*
X217770491Y-64362165D01*
X217720048Y-64401299D01*
X217626540Y-64420215D01*
X217508531Y-64428410D01*
X217366593Y-64432868D01*
X217291245Y-64422983D01*
X217261864Y-64392455D01*
X217257586Y-64351772D01*
X217273929Y-64290087D01*
X217338745Y-64265122D01*
X217410862Y-64262000D01*
X217512158Y-64250042D01*
X217562808Y-64220637D01*
X217564138Y-64214374D01*
X217543980Y-64154794D01*
X217490957Y-64042957D01*
X217416242Y-63902316D01*
X217410862Y-63892666D01*
X217302755Y-63672247D01*
X217258984Y-63507709D01*
X217280911Y-63394061D01*
X217369896Y-63326310D01*
X217527302Y-63299465D01*
X217572896Y-63298552D01*
X217699556Y-63302456D01*
G36*
X216036092Y-63254759D02*
G01*
X216115294Y-63257211D01*
X216174058Y-63272946D01*
X216218448Y-63314531D01*
X216254527Y-63394532D01*
X216288357Y-63525516D01*
X216326002Y-63720049D01*
X216363578Y-63933552D01*
X216447414Y-64415276D01*
X216459204Y-64108724D01*
X216775862Y-64108724D01*
X216790994Y-64193658D01*
X216844568Y-64211197D01*
X216852500Y-64209870D01*
X216915561Y-64160280D01*
X216929138Y-64108724D01*
X216895918Y-64031244D01*
X216852500Y-64007578D01*
X216794414Y-64019277D01*
X216775994Y-64096754D01*
X216775862Y-64108724D01*
X216459204Y-64108724D01*
X216469310Y-63845966D01*
X216477731Y-63627000D01*
X216775862Y-63627000D01*
X216800543Y-63708436D01*
X216854501Y-63738602D01*
X216907606Y-63705979D01*
X216919037Y-63681742D01*
X216921763Y-63586860D01*
X216871644Y-63525230D01*
X216836866Y-63517517D01*
X216789166Y-63555557D01*
X216775862Y-63627000D01*
X216477731Y-63627000D01*
X216491207Y-63276655D01*
X216742828Y-63263527D01*
X216894926Y-63260967D01*
X216992462Y-63278864D01*
X217067655Y-63325828D01*
X217104121Y-63360071D01*
X217197356Y-63501390D01*
X217203597Y-63651183D01*
X217170994Y-63734626D01*
X217154923Y-63832523D01*
X217197248Y-63953018D01*
X217240483Y-64066933D01*
X217232817Y-64165335D01*
X217211433Y-64223905D01*
X217149921Y-64337378D01*
X217065853Y-64412223D01*
X216942100Y-64455259D01*
X216761529Y-64473304D01*
X216581707Y-64474586D01*
X216393864Y-64469880D01*
X216276069Y-64459505D01*
X216210806Y-64439722D01*
X216180556Y-64406793D01*
X216173925Y-64387556D01*
X216120921Y-64321197D01*
X216035249Y-64306386D01*
X215954415Y-64342258D01*
X215921896Y-64393379D01*
X215901134Y-64434387D01*
X215858823Y-64460197D01*
X215777549Y-64474257D01*
X215639899Y-64480017D01*
X215479640Y-64480966D01*
X215265672Y-64476942D01*
X215128460Y-64463952D01*
X215057503Y-64440622D01*
X215043244Y-64423795D01*
X215035778Y-64359912D01*
X215031449Y-64227499D01*
X215030561Y-64045565D01*
X215033414Y-63833121D01*
X215033670Y-63821640D01*
X215046034Y-63276655D01*
X215308793Y-63276655D01*
X215321178Y-63742968D01*
X215333562Y-64209281D01*
X215675544Y-64241895D01*
X215725083Y-63956344D01*
X215729601Y-63930497D01*
X215994099Y-63930497D01*
X216003361Y-64016889D01*
X216044482Y-64043035D01*
X216081453Y-64011343D01*
X216085169Y-63909609D01*
X216081985Y-63878810D01*
X216066558Y-63780934D01*
X216049301Y-63761826D01*
X216028167Y-63802173D01*
X215994099Y-63930497D01*
X215729601Y-63930497D01*
X215770575Y-63696116D01*
X215806160Y-63509780D01*
X215837306Y-63385000D01*
X215869480Y-63309442D01*
X215908150Y-63270771D01*
X215958785Y-63256653D01*
X216026852Y-63254752D01*
X216036092Y-63254759D01*
G37*
X216036092Y-63254759D02*
X216115294Y-63257211D01*
X216174058Y-63272946D01*
X216218448Y-63314531D01*
X216254527Y-63394532D01*
X216288357Y-63525516D01*
X216326002Y-63720049D01*
X216363578Y-63933552D01*
X216447414Y-64415276D01*
X216459204Y-64108724D01*
X216775862Y-64108724D01*
X216790994Y-64193658D01*
X216844568Y-64211197D01*
X216852500Y-64209870D01*
X216915561Y-64160280D01*
X216929138Y-64108724D01*
X216895918Y-64031244D01*
X216852500Y-64007578D01*
X216794414Y-64019277D01*
X216775994Y-64096754D01*
X216775862Y-64108724D01*
X216459204Y-64108724D01*
X216469310Y-63845966D01*
X216477731Y-63627000D01*
X216775862Y-63627000D01*
X216800543Y-63708436D01*
X216854501Y-63738602D01*
X216907606Y-63705979D01*
X216919037Y-63681742D01*
X216921763Y-63586860D01*
X216871644Y-63525230D01*
X216836866Y-63517517D01*
X216789166Y-63555557D01*
X216775862Y-63627000D01*
X216477731Y-63627000D01*
X216491207Y-63276655D01*
X216742828Y-63263527D01*
X216894926Y-63260967D01*
X216992462Y-63278864D01*
X217067655Y-63325828D01*
X217104121Y-63360071D01*
X217197356Y-63501390D01*
X217203597Y-63651183D01*
X217170994Y-63734626D01*
X217154923Y-63832523D01*
X217197248Y-63953018D01*
X217240483Y-64066933D01*
X217232817Y-64165335D01*
X217211433Y-64223905D01*
X217149921Y-64337378D01*
X217065853Y-64412223D01*
X216942100Y-64455259D01*
X216761529Y-64473304D01*
X216581707Y-64474586D01*
X216393864Y-64469880D01*
X216276069Y-64459505D01*
X216210806Y-64439722D01*
X216180556Y-64406793D01*
X216173925Y-64387556D01*
X216120921Y-64321197D01*
X216035249Y-64306386D01*
X215954415Y-64342258D01*
X215921896Y-64393379D01*
X215901134Y-64434387D01*
X215858823Y-64460197D01*
X215777549Y-64474257D01*
X215639899Y-64480017D01*
X215479640Y-64480966D01*
X215265672Y-64476942D01*
X215128460Y-64463952D01*
X215057503Y-64440622D01*
X215043244Y-64423795D01*
X215035778Y-64359912D01*
X215031449Y-64227499D01*
X215030561Y-64045565D01*
X215033414Y-63833121D01*
X215033670Y-63821640D01*
X215046034Y-63276655D01*
X215308793Y-63276655D01*
X215321178Y-63742968D01*
X215333562Y-64209281D01*
X215675544Y-64241895D01*
X215725083Y-63956344D01*
X215729601Y-63930497D01*
X215994099Y-63930497D01*
X216003361Y-64016889D01*
X216044482Y-64043035D01*
X216081453Y-64011343D01*
X216085169Y-63909609D01*
X216081985Y-63878810D01*
X216066558Y-63780934D01*
X216049301Y-63761826D01*
X216028167Y-63802173D01*
X215994099Y-63930497D01*
X215729601Y-63930497D01*
X215770575Y-63696116D01*
X215806160Y-63509780D01*
X215837306Y-63385000D01*
X215869480Y-63309442D01*
X215908150Y-63270771D01*
X215958785Y-63256653D01*
X216026852Y-63254752D01*
X216036092Y-63254759D01*
G36*
X255984797Y-64997215D02*
G01*
X256031964Y-65313066D01*
X256032000Y-65325625D01*
X256057330Y-65766368D01*
X256110837Y-66148437D01*
X256135897Y-66439595D01*
X256024875Y-66594170D01*
X255888587Y-66657737D01*
X255569380Y-66843599D01*
X255345566Y-67041425D01*
X255107990Y-67235713D01*
X254890419Y-67311020D01*
X254768630Y-67246404D01*
X254762000Y-67202683D01*
X254846931Y-67046022D01*
X255016943Y-66864645D01*
X255400653Y-66361076D01*
X255618089Y-65736901D01*
X255651000Y-65385487D01*
X255685045Y-65039653D01*
X255796781Y-64902878D01*
X255841500Y-64897000D01*
X255984797Y-64997215D01*
G37*
X255984797Y-64997215D02*
X256031964Y-65313066D01*
X256032000Y-65325625D01*
X256057330Y-65766368D01*
X256110837Y-66148437D01*
X256135897Y-66439595D01*
X256024875Y-66594170D01*
X255888587Y-66657737D01*
X255569380Y-66843599D01*
X255345566Y-67041425D01*
X255107990Y-67235713D01*
X254890419Y-67311020D01*
X254768630Y-67246404D01*
X254762000Y-67202683D01*
X254846931Y-67046022D01*
X255016943Y-66864645D01*
X255400653Y-66361076D01*
X255618089Y-65736901D01*
X255651000Y-65385487D01*
X255685045Y-65039653D01*
X255796781Y-64902878D01*
X255841500Y-64897000D01*
X255984797Y-64997215D01*
G36*
X256422054Y-62614734D02*
G01*
X256837904Y-62632758D01*
X257110752Y-62675303D01*
X257296080Y-62752599D01*
X257449371Y-62874876D01*
X257498272Y-62922727D01*
X257719699Y-63242207D01*
X257810000Y-63571144D01*
X257890873Y-63890192D01*
X258089625Y-64237384D01*
X258130668Y-64288927D01*
X258345245Y-64589137D01*
X258594199Y-65002793D01*
X258840763Y-65459480D01*
X259048173Y-65888788D01*
X259179661Y-66220304D01*
X259207000Y-66350248D01*
X259143580Y-66585463D01*
X258978827Y-66961075D01*
X258750997Y-67405281D01*
X258498346Y-67846275D01*
X258259133Y-68212251D01*
X258126099Y-68379009D01*
X257913321Y-68674971D01*
X257811490Y-68947105D01*
X257810000Y-68973316D01*
X257724073Y-69233381D01*
X257515511Y-69520648D01*
X257498272Y-69538272D01*
X257340049Y-69678886D01*
X257165794Y-69769442D01*
X256918286Y-69820857D01*
X256540300Y-69844048D01*
X255974613Y-69849934D01*
X255864399Y-69850000D01*
X255243596Y-69843318D01*
X254818862Y-69817302D01*
X254532478Y-69762996D01*
X254326724Y-69671446D01*
X254217377Y-69594452D01*
X253956671Y-69293647D01*
X253811087Y-68968227D01*
X253684870Y-68640063D01*
X253527126Y-68430025D01*
X253360293Y-68223164D01*
X253152983Y-67875264D01*
X253028530Y-67627500D01*
X252782771Y-66843162D01*
X252759099Y-66364434D01*
X253619000Y-66364434D01*
X253735961Y-66996609D01*
X254055648Y-67550912D01*
X254531263Y-67996959D01*
X255116011Y-68304363D01*
X255763095Y-68442741D01*
X256425718Y-68381706D01*
X256626982Y-68317540D01*
X257207131Y-67978782D01*
X257625717Y-67495403D01*
X257878163Y-66917221D01*
X257959888Y-66294052D01*
X257866315Y-65675714D01*
X257592864Y-65112024D01*
X257134957Y-64652799D01*
X256973271Y-64549839D01*
X256369616Y-64321574D01*
X255702127Y-64254720D01*
X255062806Y-64349318D01*
X254622031Y-64548775D01*
X254233351Y-64917348D01*
X253900120Y-65426791D01*
X253678421Y-65975582D01*
X253619000Y-66364434D01*
X252759099Y-66364434D01*
X252742862Y-66036084D01*
X252901587Y-65265989D01*
X253251729Y-64592603D01*
X253419855Y-64389000D01*
X253645434Y-64041098D01*
X253794116Y-63625069D01*
X253799967Y-63594748D01*
X253900425Y-63203085D01*
X254066560Y-62929439D01*
X254339371Y-62753723D01*
X254759854Y-62655848D01*
X255369008Y-62615728D01*
X255807720Y-62610999D01*
X256422054Y-62614734D01*
G37*
X256422054Y-62614734D02*
X256837904Y-62632758D01*
X257110752Y-62675303D01*
X257296080Y-62752599D01*
X257449371Y-62874876D01*
X257498272Y-62922727D01*
X257719699Y-63242207D01*
X257810000Y-63571144D01*
X257890873Y-63890192D01*
X258089625Y-64237384D01*
X258130668Y-64288927D01*
X258345245Y-64589137D01*
X258594199Y-65002793D01*
X258840763Y-65459480D01*
X259048173Y-65888788D01*
X259179661Y-66220304D01*
X259207000Y-66350248D01*
X259143580Y-66585463D01*
X258978827Y-66961075D01*
X258750997Y-67405281D01*
X258498346Y-67846275D01*
X258259133Y-68212251D01*
X258126099Y-68379009D01*
X257913321Y-68674971D01*
X257811490Y-68947105D01*
X257810000Y-68973316D01*
X257724073Y-69233381D01*
X257515511Y-69520648D01*
X257498272Y-69538272D01*
X257340049Y-69678886D01*
X257165794Y-69769442D01*
X256918286Y-69820857D01*
X256540300Y-69844048D01*
X255974613Y-69849934D01*
X255864399Y-69850000D01*
X255243596Y-69843318D01*
X254818862Y-69817302D01*
X254532478Y-69762996D01*
X254326724Y-69671446D01*
X254217377Y-69594452D01*
X253956671Y-69293647D01*
X253811087Y-68968227D01*
X253684870Y-68640063D01*
X253527126Y-68430025D01*
X253360293Y-68223164D01*
X253152983Y-67875264D01*
X253028530Y-67627500D01*
X252782771Y-66843162D01*
X252759099Y-66364434D01*
X253619000Y-66364434D01*
X253735961Y-66996609D01*
X254055648Y-67550912D01*
X254531263Y-67996959D01*
X255116011Y-68304363D01*
X255763095Y-68442741D01*
X256425718Y-68381706D01*
X256626982Y-68317540D01*
X257207131Y-67978782D01*
X257625717Y-67495403D01*
X257878163Y-66917221D01*
X257959888Y-66294052D01*
X257866315Y-65675714D01*
X257592864Y-65112024D01*
X257134957Y-64652799D01*
X256973271Y-64549839D01*
X256369616Y-64321574D01*
X255702127Y-64254720D01*
X255062806Y-64349318D01*
X254622031Y-64548775D01*
X254233351Y-64917348D01*
X253900120Y-65426791D01*
X253678421Y-65975582D01*
X253619000Y-66364434D01*
X252759099Y-66364434D01*
X252742862Y-66036084D01*
X252901587Y-65265989D01*
X253251729Y-64592603D01*
X253419855Y-64389000D01*
X253645434Y-64041098D01*
X253794116Y-63625069D01*
X253799967Y-63594748D01*
X253900425Y-63203085D01*
X254066560Y-62929439D01*
X254339371Y-62753723D01*
X254759854Y-62655848D01*
X255369008Y-62615728D01*
X255807720Y-62610999D01*
X256422054Y-62614734D01*
D12*
X176784000Y-51586000D02*
X176784000Y-53546000D01*
X176784000Y-64746000D02*
X176784000Y-62786000D01*
X175064000Y-53546000D02*
X175064000Y-62786000D01*
X178504000Y-53546000D02*
X175064000Y-53546000D01*
X178504000Y-62786000D02*
X178504000Y-53546000D01*
X175064000Y-62786000D02*
X178504000Y-62786000D01*
X180594000Y-64746000D02*
X180594000Y-62786000D01*
X180594000Y-51586000D02*
X180594000Y-53546000D01*
X182314000Y-62786000D02*
X182314000Y-53546000D01*
X178874000Y-62786000D02*
X182314000Y-62786000D01*
X178874000Y-53546000D02*
X178874000Y-62786000D01*
X182314000Y-53546000D02*
X178874000Y-53546000D01*
X199384000Y-65532000D02*
G75*
G03X199384000Y-65532000I-6100000J0D01*
G01*
D10*
X160790095Y-68794380D02*
X160790095Y-69603904D01*
X160837714Y-69699142D01*
X160885333Y-69746761D01*
X160980571Y-69794380D01*
X161171047Y-69794380D01*
X161266285Y-69746761D01*
X161313904Y-69699142D01*
X161361523Y-69603904D01*
X161361523Y-68794380D01*
X161790095Y-69746761D02*
X161932952Y-69794380D01*
X162171047Y-69794380D01*
X162266285Y-69746761D01*
X162313904Y-69699142D01*
X162361523Y-69603904D01*
X162361523Y-69508666D01*
X162313904Y-69413428D01*
X162266285Y-69365809D01*
X162171047Y-69318190D01*
X161980571Y-69270571D01*
X161885333Y-69222952D01*
X161837714Y-69175333D01*
X161790095Y-69080095D01*
X161790095Y-68984857D01*
X161837714Y-68889619D01*
X161885333Y-68842000D01*
X161980571Y-68794380D01*
X162218666Y-68794380D01*
X162361523Y-68842000D01*
X163123428Y-69270571D02*
X163266285Y-69318190D01*
X163313904Y-69365809D01*
X163361523Y-69461047D01*
X163361523Y-69603904D01*
X163313904Y-69699142D01*
X163266285Y-69746761D01*
X163171047Y-69794380D01*
X162790095Y-69794380D01*
X162790095Y-68794380D01*
X163123428Y-68794380D01*
X163218666Y-68842000D01*
X163266285Y-68889619D01*
X163313904Y-68984857D01*
X163313904Y-69080095D01*
X163266285Y-69175333D01*
X163218666Y-69222952D01*
X163123428Y-69270571D01*
X162790095Y-69270571D01*
D11*
X171913619Y-65386000D02*
X171837428Y-65347904D01*
X171723142Y-65347904D01*
X171608857Y-65386000D01*
X171532666Y-65462190D01*
X171494571Y-65538380D01*
X171456476Y-65690761D01*
X171456476Y-65805047D01*
X171494571Y-65957428D01*
X171532666Y-66033619D01*
X171608857Y-66109809D01*
X171723142Y-66147904D01*
X171799333Y-66147904D01*
X171913619Y-66109809D01*
X171951714Y-66071714D01*
X171951714Y-65805047D01*
X171799333Y-65805047D01*
X172218380Y-65347904D02*
X172713619Y-65347904D01*
X172446952Y-65652666D01*
X172561238Y-65652666D01*
X172637428Y-65690761D01*
X172675523Y-65728857D01*
X172713619Y-65805047D01*
X172713619Y-65995523D01*
X172675523Y-66071714D01*
X172637428Y-66109809D01*
X172561238Y-66147904D01*
X172332666Y-66147904D01*
X172256476Y-66109809D01*
X172218380Y-66071714D01*
X172980285Y-65347904D02*
X173475523Y-65347904D01*
X173208857Y-65652666D01*
X173323142Y-65652666D01*
X173399333Y-65690761D01*
X173437428Y-65728857D01*
X173475523Y-65805047D01*
X173475523Y-65995523D01*
X173437428Y-66071714D01*
X173399333Y-66109809D01*
X173323142Y-66147904D01*
X173094571Y-66147904D01*
X173018380Y-66109809D01*
X172980285Y-66071714D01*
X171913619Y-62846000D02*
X171837428Y-62807904D01*
X171723142Y-62807904D01*
X171608857Y-62846000D01*
X171532666Y-62922190D01*
X171494571Y-62998380D01*
X171456476Y-63150761D01*
X171456476Y-63265047D01*
X171494571Y-63417428D01*
X171532666Y-63493619D01*
X171608857Y-63569809D01*
X171723142Y-63607904D01*
X171799333Y-63607904D01*
X171913619Y-63569809D01*
X171951714Y-63531714D01*
X171951714Y-63265047D01*
X171799333Y-63265047D01*
X172256476Y-62884095D02*
X172294571Y-62846000D01*
X172370761Y-62807904D01*
X172561238Y-62807904D01*
X172637428Y-62846000D01*
X172675523Y-62884095D01*
X172713619Y-62960285D01*
X172713619Y-63036476D01*
X172675523Y-63150761D01*
X172218380Y-63607904D01*
X172713619Y-63607904D01*
X172980285Y-62807904D02*
X173475523Y-62807904D01*
X173208857Y-63112666D01*
X173323142Y-63112666D01*
X173399333Y-63150761D01*
X173437428Y-63188857D01*
X173475523Y-63265047D01*
X173475523Y-63455523D01*
X173437428Y-63531714D01*
X173399333Y-63569809D01*
X173323142Y-63607904D01*
X173094571Y-63607904D01*
X173018380Y-63569809D01*
X172980285Y-63531714D01*
X171913619Y-60306000D02*
X171837428Y-60267904D01*
X171723142Y-60267904D01*
X171608857Y-60306000D01*
X171532666Y-60382190D01*
X171494571Y-60458380D01*
X171456476Y-60610761D01*
X171456476Y-60725047D01*
X171494571Y-60877428D01*
X171532666Y-60953619D01*
X171608857Y-61029809D01*
X171723142Y-61067904D01*
X171799333Y-61067904D01*
X171913619Y-61029809D01*
X171951714Y-60991714D01*
X171951714Y-60725047D01*
X171799333Y-60725047D01*
X172713619Y-61067904D02*
X172256476Y-61067904D01*
X172485047Y-61067904D02*
X172485047Y-60267904D01*
X172408857Y-60382190D01*
X172332666Y-60458380D01*
X172256476Y-60496476D01*
X173094571Y-61067904D02*
X173246952Y-61067904D01*
X173323142Y-61029809D01*
X173361238Y-60991714D01*
X173437428Y-60877428D01*
X173475523Y-60725047D01*
X173475523Y-60420285D01*
X173437428Y-60344095D01*
X173399333Y-60306000D01*
X173323142Y-60267904D01*
X173170761Y-60267904D01*
X173094571Y-60306000D01*
X173056476Y-60344095D01*
X173018380Y-60420285D01*
X173018380Y-60610761D01*
X173056476Y-60686952D01*
X173094571Y-60725047D01*
X173170761Y-60763142D01*
X173323142Y-60763142D01*
X173399333Y-60725047D01*
X173437428Y-60686952D01*
X173475523Y-60610761D01*
X171913619Y-57766000D02*
X171837428Y-57727904D01*
X171723142Y-57727904D01*
X171608857Y-57766000D01*
X171532666Y-57842190D01*
X171494571Y-57918380D01*
X171456476Y-58070761D01*
X171456476Y-58185047D01*
X171494571Y-58337428D01*
X171532666Y-58413619D01*
X171608857Y-58489809D01*
X171723142Y-58527904D01*
X171799333Y-58527904D01*
X171913619Y-58489809D01*
X171951714Y-58451714D01*
X171951714Y-58185047D01*
X171799333Y-58185047D01*
X172256476Y-57804095D02*
X172294571Y-57766000D01*
X172370761Y-57727904D01*
X172561238Y-57727904D01*
X172637428Y-57766000D01*
X172675523Y-57804095D01*
X172713619Y-57880285D01*
X172713619Y-57956476D01*
X172675523Y-58070761D01*
X172218380Y-58527904D01*
X172713619Y-58527904D01*
X173018380Y-57804095D02*
X173056476Y-57766000D01*
X173132666Y-57727904D01*
X173323142Y-57727904D01*
X173399333Y-57766000D01*
X173437428Y-57804095D01*
X173475523Y-57880285D01*
X173475523Y-57956476D01*
X173437428Y-58070761D01*
X172980285Y-58527904D01*
X173475523Y-58527904D01*
X171539047Y-55187904D02*
X172034285Y-55187904D01*
X171767619Y-55492666D01*
X171881904Y-55492666D01*
X171958095Y-55530761D01*
X171996190Y-55568857D01*
X172034285Y-55645047D01*
X172034285Y-55835523D01*
X171996190Y-55911714D01*
X171958095Y-55949809D01*
X171881904Y-55987904D01*
X171653333Y-55987904D01*
X171577142Y-55949809D01*
X171539047Y-55911714D01*
X172377142Y-55911714D02*
X172415238Y-55949809D01*
X172377142Y-55987904D01*
X172339047Y-55949809D01*
X172377142Y-55911714D01*
X172377142Y-55987904D01*
X172681904Y-55187904D02*
X173177142Y-55187904D01*
X172910476Y-55492666D01*
X173024761Y-55492666D01*
X173100952Y-55530761D01*
X173139047Y-55568857D01*
X173177142Y-55645047D01*
X173177142Y-55835523D01*
X173139047Y-55911714D01*
X173100952Y-55949809D01*
X173024761Y-55987904D01*
X172796190Y-55987904D01*
X172720000Y-55949809D01*
X172681904Y-55911714D01*
X173405714Y-55187904D02*
X173672380Y-55987904D01*
X173939047Y-55187904D01*
X151536476Y-65386000D02*
X151460285Y-65347904D01*
X151346000Y-65347904D01*
X151231714Y-65386000D01*
X151155523Y-65462190D01*
X151117428Y-65538380D01*
X151079333Y-65690761D01*
X151079333Y-65805047D01*
X151117428Y-65957428D01*
X151155523Y-66033619D01*
X151231714Y-66109809D01*
X151346000Y-66147904D01*
X151422190Y-66147904D01*
X151536476Y-66109809D01*
X151574571Y-66071714D01*
X151574571Y-65805047D01*
X151422190Y-65805047D01*
X151917428Y-66147904D02*
X151917428Y-65347904D01*
X152374571Y-66147904D01*
X152374571Y-65347904D01*
X152755523Y-66147904D02*
X152755523Y-65347904D01*
X152946000Y-65347904D01*
X153060285Y-65386000D01*
X153136476Y-65462190D01*
X153174571Y-65538380D01*
X153212666Y-65690761D01*
X153212666Y-65805047D01*
X153174571Y-65957428D01*
X153136476Y-66033619D01*
X153060285Y-66109809D01*
X152946000Y-66147904D01*
X152755523Y-66147904D01*
X152247619Y-62807904D02*
X151866666Y-62807904D01*
X151828571Y-63188857D01*
X151866666Y-63150761D01*
X151942857Y-63112666D01*
X152133333Y-63112666D01*
X152209523Y-63150761D01*
X152247619Y-63188857D01*
X152285714Y-63265047D01*
X152285714Y-63455523D01*
X152247619Y-63531714D01*
X152209523Y-63569809D01*
X152133333Y-63607904D01*
X151942857Y-63607904D01*
X151866666Y-63569809D01*
X151828571Y-63531714D01*
X152514285Y-62807904D02*
X152780952Y-63607904D01*
X153047619Y-62807904D01*
X151593619Y-60306000D02*
X151517428Y-60267904D01*
X151403142Y-60267904D01*
X151288857Y-60306000D01*
X151212666Y-60382190D01*
X151174571Y-60458380D01*
X151136476Y-60610761D01*
X151136476Y-60725047D01*
X151174571Y-60877428D01*
X151212666Y-60953619D01*
X151288857Y-61029809D01*
X151403142Y-61067904D01*
X151479333Y-61067904D01*
X151593619Y-61029809D01*
X151631714Y-60991714D01*
X151631714Y-60725047D01*
X151479333Y-60725047D01*
X151936476Y-60344095D02*
X151974571Y-60306000D01*
X152050761Y-60267904D01*
X152241238Y-60267904D01*
X152317428Y-60306000D01*
X152355523Y-60344095D01*
X152393619Y-60420285D01*
X152393619Y-60496476D01*
X152355523Y-60610761D01*
X151898380Y-61067904D01*
X152393619Y-61067904D01*
X153117428Y-60267904D02*
X152736476Y-60267904D01*
X152698380Y-60648857D01*
X152736476Y-60610761D01*
X152812666Y-60572666D01*
X153003142Y-60572666D01*
X153079333Y-60610761D01*
X153117428Y-60648857D01*
X153155523Y-60725047D01*
X153155523Y-60915523D01*
X153117428Y-60991714D01*
X153079333Y-61029809D01*
X153003142Y-61067904D01*
X152812666Y-61067904D01*
X152736476Y-61029809D01*
X152698380Y-60991714D01*
X151593619Y-57766000D02*
X151517428Y-57727904D01*
X151403142Y-57727904D01*
X151288857Y-57766000D01*
X151212666Y-57842190D01*
X151174571Y-57918380D01*
X151136476Y-58070761D01*
X151136476Y-58185047D01*
X151174571Y-58337428D01*
X151212666Y-58413619D01*
X151288857Y-58489809D01*
X151403142Y-58527904D01*
X151479333Y-58527904D01*
X151593619Y-58489809D01*
X151631714Y-58451714D01*
X151631714Y-58185047D01*
X151479333Y-58185047D01*
X151936476Y-57804095D02*
X151974571Y-57766000D01*
X152050761Y-57727904D01*
X152241238Y-57727904D01*
X152317428Y-57766000D01*
X152355523Y-57804095D01*
X152393619Y-57880285D01*
X152393619Y-57956476D01*
X152355523Y-58070761D01*
X151898380Y-58527904D01*
X152393619Y-58527904D01*
X153155523Y-58527904D02*
X152698380Y-58527904D01*
X152926952Y-58527904D02*
X152926952Y-57727904D01*
X152850761Y-57842190D01*
X152774571Y-57918380D01*
X152698380Y-57956476D01*
D10*
X259540523Y-66698761D02*
X259683380Y-66746380D01*
X259921476Y-66746380D01*
X260016714Y-66698761D01*
X260064333Y-66651142D01*
X260111952Y-66555904D01*
X260111952Y-66460666D01*
X260064333Y-66365428D01*
X260016714Y-66317809D01*
X259921476Y-66270190D01*
X259731000Y-66222571D01*
X259635761Y-66174952D01*
X259588142Y-66127333D01*
X259540523Y-66032095D01*
X259540523Y-65936857D01*
X259588142Y-65841619D01*
X259635761Y-65794000D01*
X259731000Y-65746380D01*
X259969095Y-65746380D01*
X260111952Y-65794000D01*
X261111952Y-66651142D02*
X261064333Y-66698761D01*
X260921476Y-66746380D01*
X260826238Y-66746380D01*
X260683380Y-66698761D01*
X260588142Y-66603523D01*
X260540523Y-66508285D01*
X260492904Y-66317809D01*
X260492904Y-66174952D01*
X260540523Y-65984476D01*
X260588142Y-65889238D01*
X260683380Y-65794000D01*
X260826238Y-65746380D01*
X260921476Y-65746380D01*
X261064333Y-65794000D01*
X261111952Y-65841619D01*
X262016714Y-66746380D02*
X261540523Y-66746380D01*
X261540523Y-65746380D01*
X259643714Y-64158761D02*
X259786571Y-64206380D01*
X260024666Y-64206380D01*
X260119904Y-64158761D01*
X260167523Y-64111142D01*
X260215142Y-64015904D01*
X260215142Y-63920666D01*
X260167523Y-63825428D01*
X260119904Y-63777809D01*
X260024666Y-63730190D01*
X259834190Y-63682571D01*
X259738952Y-63634952D01*
X259691333Y-63587333D01*
X259643714Y-63492095D01*
X259643714Y-63396857D01*
X259691333Y-63301619D01*
X259738952Y-63254000D01*
X259834190Y-63206380D01*
X260072285Y-63206380D01*
X260215142Y-63254000D01*
X260643714Y-64206380D02*
X260643714Y-63206380D01*
X260881809Y-63206380D01*
X261024666Y-63254000D01*
X261119904Y-63349238D01*
X261167523Y-63444476D01*
X261215142Y-63634952D01*
X261215142Y-63777809D01*
X261167523Y-63968285D01*
X261119904Y-64063523D01*
X261024666Y-64158761D01*
X260881809Y-64206380D01*
X260643714Y-64206380D01*
X261596095Y-63920666D02*
X262072285Y-63920666D01*
X261500857Y-64206380D02*
X261834190Y-63206380D01*
X262167523Y-64206380D01*
X260326285Y-69286380D02*
X260326285Y-68286380D01*
X260897714Y-69286380D01*
X260897714Y-68286380D01*
X261945333Y-69191142D02*
X261897714Y-69238761D01*
X261754857Y-69286380D01*
X261659619Y-69286380D01*
X261516761Y-69238761D01*
X261421523Y-69143523D01*
X261373904Y-69048285D01*
X261326285Y-68857809D01*
X261326285Y-68714952D01*
X261373904Y-68524476D01*
X261421523Y-68429238D01*
X261516761Y-68334000D01*
X261659619Y-68286380D01*
X261754857Y-68286380D01*
X261897714Y-68334000D01*
X261945333Y-68381619D01*
X259000809Y-60539380D02*
X259619857Y-60539380D01*
X259286523Y-60920333D01*
X259429380Y-60920333D01*
X259524619Y-60967952D01*
X259572238Y-61015571D01*
X259619857Y-61110809D01*
X259619857Y-61348904D01*
X259572238Y-61444142D01*
X259524619Y-61491761D01*
X259429380Y-61539380D01*
X259143666Y-61539380D01*
X259048428Y-61491761D01*
X259000809Y-61444142D01*
X260048428Y-61444142D02*
X260096047Y-61491761D01*
X260048428Y-61539380D01*
X260000809Y-61491761D01*
X260048428Y-61444142D01*
X260048428Y-61539380D01*
X260429380Y-60539380D02*
X261048428Y-60539380D01*
X260715095Y-60920333D01*
X260857952Y-60920333D01*
X260953190Y-60967952D01*
X261000809Y-61015571D01*
X261048428Y-61110809D01*
X261048428Y-61348904D01*
X261000809Y-61444142D01*
X260953190Y-61491761D01*
X260857952Y-61539380D01*
X260572238Y-61539380D01*
X260477000Y-61491761D01*
X260429380Y-61444142D01*
X261334142Y-60539380D02*
X261667476Y-61539380D01*
X262000809Y-60539380D01*
X259969095Y-70874000D02*
X259873857Y-70826380D01*
X259731000Y-70826380D01*
X259588142Y-70874000D01*
X259492904Y-70969238D01*
X259445285Y-71064476D01*
X259397666Y-71254952D01*
X259397666Y-71397809D01*
X259445285Y-71588285D01*
X259492904Y-71683523D01*
X259588142Y-71778761D01*
X259731000Y-71826380D01*
X259826238Y-71826380D01*
X259969095Y-71778761D01*
X260016714Y-71731142D01*
X260016714Y-71397809D01*
X259826238Y-71397809D01*
X260445285Y-71826380D02*
X260445285Y-70826380D01*
X261016714Y-71826380D01*
X261016714Y-70826380D01*
X261492904Y-71826380D02*
X261492904Y-70826380D01*
X261731000Y-70826380D01*
X261873857Y-70874000D01*
X261969095Y-70969238D01*
X262016714Y-71064476D01*
X262064333Y-71254952D01*
X262064333Y-71397809D01*
X262016714Y-71588285D01*
X261969095Y-71683523D01*
X261873857Y-71778761D01*
X261731000Y-71826380D01*
X261492904Y-71826380D01*
X213090000Y-67746476D02*
X213042380Y-67841714D01*
X213042380Y-67984571D01*
X213090000Y-68127428D01*
X213185238Y-68222666D01*
X213280476Y-68270285D01*
X213470952Y-68317904D01*
X213613809Y-68317904D01*
X213804285Y-68270285D01*
X213899523Y-68222666D01*
X213994761Y-68127428D01*
X214042380Y-67984571D01*
X214042380Y-67889333D01*
X213994761Y-67746476D01*
X213947142Y-67698857D01*
X213613809Y-67698857D01*
X213613809Y-67889333D01*
X213042380Y-67365523D02*
X213042380Y-66746476D01*
X213423333Y-67079809D01*
X213423333Y-66936952D01*
X213470952Y-66841714D01*
X213518571Y-66794095D01*
X213613809Y-66746476D01*
X213851904Y-66746476D01*
X213947142Y-66794095D01*
X213994761Y-66841714D01*
X214042380Y-66936952D01*
X214042380Y-67222666D01*
X213994761Y-67317904D01*
X213947142Y-67365523D01*
X213042380Y-66413142D02*
X213042380Y-65794095D01*
X213423333Y-66127428D01*
X213423333Y-65984571D01*
X213470952Y-65889333D01*
X213518571Y-65841714D01*
X213613809Y-65794095D01*
X213851904Y-65794095D01*
X213947142Y-65841714D01*
X213994761Y-65889333D01*
X214042380Y-65984571D01*
X214042380Y-66270285D01*
X213994761Y-66365523D01*
X213947142Y-66413142D01*
X213090000Y-71302476D02*
X213042380Y-71397714D01*
X213042380Y-71540571D01*
X213090000Y-71683428D01*
X213185238Y-71778666D01*
X213280476Y-71826285D01*
X213470952Y-71873904D01*
X213613809Y-71873904D01*
X213804285Y-71826285D01*
X213899523Y-71778666D01*
X213994761Y-71683428D01*
X214042380Y-71540571D01*
X214042380Y-71445333D01*
X213994761Y-71302476D01*
X213947142Y-71254857D01*
X213613809Y-71254857D01*
X213613809Y-71445333D01*
X213137619Y-70873904D02*
X213090000Y-70826285D01*
X213042380Y-70731047D01*
X213042380Y-70492952D01*
X213090000Y-70397714D01*
X213137619Y-70350095D01*
X213232857Y-70302476D01*
X213328095Y-70302476D01*
X213470952Y-70350095D01*
X214042380Y-70921523D01*
X214042380Y-70302476D01*
X213042380Y-69969142D02*
X213042380Y-69350095D01*
X213423333Y-69683428D01*
X213423333Y-69540571D01*
X213470952Y-69445333D01*
X213518571Y-69397714D01*
X213613809Y-69350095D01*
X213851904Y-69350095D01*
X213947142Y-69397714D01*
X213994761Y-69445333D01*
X214042380Y-69540571D01*
X214042380Y-69826285D01*
X213994761Y-69921523D01*
X213947142Y-69969142D01*
X213090000Y-64190476D02*
X213042380Y-64285714D01*
X213042380Y-64428571D01*
X213090000Y-64571428D01*
X213185238Y-64666666D01*
X213280476Y-64714285D01*
X213470952Y-64761904D01*
X213613809Y-64761904D01*
X213804285Y-64714285D01*
X213899523Y-64666666D01*
X213994761Y-64571428D01*
X214042380Y-64428571D01*
X214042380Y-64333333D01*
X213994761Y-64190476D01*
X213947142Y-64142857D01*
X213613809Y-64142857D01*
X213613809Y-64333333D01*
X213137619Y-63761904D02*
X213090000Y-63714285D01*
X213042380Y-63619047D01*
X213042380Y-63380952D01*
X213090000Y-63285714D01*
X213137619Y-63238095D01*
X213232857Y-63190476D01*
X213328095Y-63190476D01*
X213470952Y-63238095D01*
X214042380Y-63809523D01*
X214042380Y-63190476D01*
X213042380Y-62285714D02*
X213042380Y-62761904D01*
X213518571Y-62809523D01*
X213470952Y-62761904D01*
X213423333Y-62666666D01*
X213423333Y-62428571D01*
X213470952Y-62333333D01*
X213518571Y-62285714D01*
X213613809Y-62238095D01*
X213851904Y-62238095D01*
X213947142Y-62285714D01*
X213994761Y-62333333D01*
X214042380Y-62428571D01*
X214042380Y-62666666D01*
X213994761Y-62761904D01*
X213947142Y-62809523D01*
X177316000Y-48045714D02*
X177316000Y-48712380D01*
X177077904Y-47664761D02*
X176839809Y-48379047D01*
X177458857Y-48379047D01*
X177839809Y-48617142D02*
X177887428Y-48664761D01*
X177839809Y-48712380D01*
X177792190Y-48664761D01*
X177839809Y-48617142D01*
X177839809Y-48712380D01*
X178220761Y-47712380D02*
X178887428Y-47712380D01*
X178458857Y-48712380D01*
X179268380Y-48712380D02*
X179268380Y-47712380D01*
X179363619Y-48331428D02*
X179649333Y-48712380D01*
X179649333Y-48045714D02*
X179268380Y-48426666D01*
X180030285Y-48712380D02*
X180268380Y-48712380D01*
X180268380Y-48521904D01*
X180173142Y-48474285D01*
X180077904Y-48379047D01*
X180030285Y-48236190D01*
X180030285Y-47998095D01*
X180077904Y-47855238D01*
X180173142Y-47760000D01*
X180316000Y-47712380D01*
X180506476Y-47712380D01*
X180649333Y-47760000D01*
X180744571Y-47855238D01*
X180792190Y-47998095D01*
X180792190Y-48236190D01*
X180744571Y-48379047D01*
X180649333Y-48474285D01*
X180554095Y-48521904D01*
X180554095Y-48712380D01*
X180792190Y-48712380D01*
X191365428Y-68254571D02*
X191508285Y-68302190D01*
X191555904Y-68349809D01*
X191603523Y-68445047D01*
X191603523Y-68587904D01*
X191555904Y-68683142D01*
X191508285Y-68730761D01*
X191413047Y-68778380D01*
X191032095Y-68778380D01*
X191032095Y-67778380D01*
X191365428Y-67778380D01*
X191460666Y-67826000D01*
X191508285Y-67873619D01*
X191555904Y-67968857D01*
X191555904Y-68064095D01*
X191508285Y-68159333D01*
X191460666Y-68206952D01*
X191365428Y-68254571D01*
X191032095Y-68254571D01*
X192460666Y-68111714D02*
X192460666Y-68778380D01*
X192032095Y-68111714D02*
X192032095Y-68635523D01*
X192079714Y-68730761D01*
X192174952Y-68778380D01*
X192317809Y-68778380D01*
X192413047Y-68730761D01*
X192460666Y-68683142D01*
X192841619Y-68111714D02*
X193365428Y-68111714D01*
X192841619Y-68778380D01*
X193365428Y-68778380D01*
X193651142Y-68111714D02*
X194174952Y-68111714D01*
X193651142Y-68778380D01*
X194174952Y-68778380D01*
X194936857Y-68730761D02*
X194841619Y-68778380D01*
X194651142Y-68778380D01*
X194555904Y-68730761D01*
X194508285Y-68635523D01*
X194508285Y-68254571D01*
X194555904Y-68159333D01*
X194651142Y-68111714D01*
X194841619Y-68111714D01*
X194936857Y-68159333D01*
X194984476Y-68254571D01*
X194984476Y-68349809D01*
X194508285Y-68445047D01*
X195413047Y-68778380D02*
X195413047Y-68111714D01*
X195413047Y-68302190D02*
X195460666Y-68206952D01*
X195508285Y-68159333D01*
X195603523Y-68111714D01*
X195698761Y-68111714D01*
X188783523Y-62492000D02*
X188688285Y-62444380D01*
X188545428Y-62444380D01*
X188402571Y-62492000D01*
X188307333Y-62587238D01*
X188259714Y-62682476D01*
X188212095Y-62872952D01*
X188212095Y-63015809D01*
X188259714Y-63206285D01*
X188307333Y-63301523D01*
X188402571Y-63396761D01*
X188545428Y-63444380D01*
X188640666Y-63444380D01*
X188783523Y-63396761D01*
X188831142Y-63349142D01*
X188831142Y-63015809D01*
X188640666Y-63015809D01*
X189783523Y-63444380D02*
X189212095Y-63444380D01*
X189497809Y-63444380D02*
X189497809Y-62444380D01*
X189402571Y-62587238D01*
X189307333Y-62682476D01*
X189212095Y-62730095D01*
X190259714Y-63444380D02*
X190450190Y-63444380D01*
X190545428Y-63396761D01*
X190593047Y-63349142D01*
X190688285Y-63206285D01*
X190735904Y-63015809D01*
X190735904Y-62634857D01*
X190688285Y-62539619D01*
X190640666Y-62492000D01*
X190545428Y-62444380D01*
X190354952Y-62444380D01*
X190259714Y-62492000D01*
X190212095Y-62539619D01*
X190164476Y-62634857D01*
X190164476Y-62872952D01*
X190212095Y-62968190D01*
X190259714Y-63015809D01*
X190354952Y-63063428D01*
X190545428Y-63063428D01*
X190640666Y-63015809D01*
X190688285Y-62968190D01*
X190735904Y-62872952D01*
M02*
