G04 #@! TF.GenerationSoftware,KiCad,Pcbnew,(5.1.5)-3*
G04 #@! TF.CreationDate,2020-12-21T11:55:10+01:00*
G04 #@! TF.ProjectId,epimetheus,6570696d-6574-4686-9575-732e6b696361,rev?*
G04 #@! TF.SameCoordinates,Original*
G04 #@! TF.FileFunction,Soldermask,Bot*
G04 #@! TF.FilePolarity,Negative*
%FSLAX46Y46*%
G04 Gerber Fmt 4.6, Leading zero omitted, Abs format (unit mm)*
G04 Created by KiCad (PCBNEW (5.1.5)-3) date 2020-12-21 11:55:10*
%MOMM*%
%LPD*%
G04 APERTURE LIST*
%ADD10C,0.100000*%
G04 APERTURE END LIST*
D10*
G36*
X264045000Y-72275000D02*
G01*
X262243000Y-72275000D01*
X262243000Y-70473000D01*
X264045000Y-70473000D01*
X264045000Y-72275000D01*
G37*
G36*
X210933512Y-69715927D02*
G01*
X211082812Y-69745624D01*
X211246784Y-69813544D01*
X211394354Y-69912147D01*
X211519853Y-70037646D01*
X211618456Y-70185216D01*
X211686376Y-70349188D01*
X211721000Y-70523259D01*
X211721000Y-70700741D01*
X211686376Y-70874812D01*
X211618456Y-71038784D01*
X211519853Y-71186354D01*
X211394354Y-71311853D01*
X211246784Y-71410456D01*
X211082812Y-71478376D01*
X210933512Y-71508073D01*
X210908742Y-71513000D01*
X210731258Y-71513000D01*
X210706488Y-71508073D01*
X210557188Y-71478376D01*
X210393216Y-71410456D01*
X210245646Y-71311853D01*
X210120147Y-71186354D01*
X210021544Y-71038784D01*
X209953624Y-70874812D01*
X209919000Y-70700741D01*
X209919000Y-70523259D01*
X209953624Y-70349188D01*
X210021544Y-70185216D01*
X210120147Y-70037646D01*
X210245646Y-69912147D01*
X210393216Y-69813544D01*
X210557188Y-69745624D01*
X210706488Y-69715927D01*
X210731258Y-69711000D01*
X210908742Y-69711000D01*
X210933512Y-69715927D01*
G37*
G36*
X206641000Y-71513000D02*
G01*
X204839000Y-71513000D01*
X204839000Y-69711000D01*
X206641000Y-69711000D01*
X206641000Y-71513000D01*
G37*
G36*
X208393512Y-69715927D02*
G01*
X208542812Y-69745624D01*
X208706784Y-69813544D01*
X208854354Y-69912147D01*
X208979853Y-70037646D01*
X209078456Y-70185216D01*
X209146376Y-70349188D01*
X209181000Y-70523259D01*
X209181000Y-70700741D01*
X209146376Y-70874812D01*
X209078456Y-71038784D01*
X208979853Y-71186354D01*
X208854354Y-71311853D01*
X208706784Y-71410456D01*
X208542812Y-71478376D01*
X208393512Y-71508073D01*
X208368742Y-71513000D01*
X208191258Y-71513000D01*
X208166488Y-71508073D01*
X208017188Y-71478376D01*
X207853216Y-71410456D01*
X207705646Y-71311853D01*
X207580147Y-71186354D01*
X207481544Y-71038784D01*
X207413624Y-70874812D01*
X207379000Y-70700741D01*
X207379000Y-70523259D01*
X207413624Y-70349188D01*
X207481544Y-70185216D01*
X207580147Y-70037646D01*
X207705646Y-69912147D01*
X207853216Y-69813544D01*
X208017188Y-69745624D01*
X208166488Y-69715927D01*
X208191258Y-69711000D01*
X208368742Y-69711000D01*
X208393512Y-69715927D01*
G37*
G36*
X177685000Y-69989000D02*
G01*
X175883000Y-69989000D01*
X175883000Y-68187000D01*
X177685000Y-68187000D01*
X177685000Y-69989000D01*
G37*
G36*
X184517512Y-68191927D02*
G01*
X184666812Y-68221624D01*
X184830784Y-68289544D01*
X184978354Y-68388147D01*
X185103853Y-68513646D01*
X185202456Y-68661216D01*
X185270376Y-68825188D01*
X185305000Y-68999259D01*
X185305000Y-69176741D01*
X185270376Y-69350812D01*
X185202456Y-69514784D01*
X185103853Y-69662354D01*
X184978354Y-69787853D01*
X184830784Y-69886456D01*
X184666812Y-69954376D01*
X184517512Y-69984073D01*
X184492742Y-69989000D01*
X184315258Y-69989000D01*
X184290488Y-69984073D01*
X184141188Y-69954376D01*
X183977216Y-69886456D01*
X183829646Y-69787853D01*
X183704147Y-69662354D01*
X183605544Y-69514784D01*
X183537624Y-69350812D01*
X183503000Y-69176741D01*
X183503000Y-68999259D01*
X183537624Y-68825188D01*
X183605544Y-68661216D01*
X183704147Y-68513646D01*
X183829646Y-68388147D01*
X183977216Y-68289544D01*
X184141188Y-68221624D01*
X184290488Y-68191927D01*
X184315258Y-68187000D01*
X184492742Y-68187000D01*
X184517512Y-68191927D01*
G37*
G36*
X181977512Y-68191927D02*
G01*
X182126812Y-68221624D01*
X182290784Y-68289544D01*
X182438354Y-68388147D01*
X182563853Y-68513646D01*
X182662456Y-68661216D01*
X182730376Y-68825188D01*
X182765000Y-68999259D01*
X182765000Y-69176741D01*
X182730376Y-69350812D01*
X182662456Y-69514784D01*
X182563853Y-69662354D01*
X182438354Y-69787853D01*
X182290784Y-69886456D01*
X182126812Y-69954376D01*
X181977512Y-69984073D01*
X181952742Y-69989000D01*
X181775258Y-69989000D01*
X181750488Y-69984073D01*
X181601188Y-69954376D01*
X181437216Y-69886456D01*
X181289646Y-69787853D01*
X181164147Y-69662354D01*
X181065544Y-69514784D01*
X180997624Y-69350812D01*
X180963000Y-69176741D01*
X180963000Y-68999259D01*
X180997624Y-68825188D01*
X181065544Y-68661216D01*
X181164147Y-68513646D01*
X181289646Y-68388147D01*
X181437216Y-68289544D01*
X181601188Y-68221624D01*
X181750488Y-68191927D01*
X181775258Y-68187000D01*
X181952742Y-68187000D01*
X181977512Y-68191927D01*
G37*
G36*
X179437512Y-68191927D02*
G01*
X179586812Y-68221624D01*
X179750784Y-68289544D01*
X179898354Y-68388147D01*
X180023853Y-68513646D01*
X180122456Y-68661216D01*
X180190376Y-68825188D01*
X180225000Y-68999259D01*
X180225000Y-69176741D01*
X180190376Y-69350812D01*
X180122456Y-69514784D01*
X180023853Y-69662354D01*
X179898354Y-69787853D01*
X179750784Y-69886456D01*
X179586812Y-69954376D01*
X179437512Y-69984073D01*
X179412742Y-69989000D01*
X179235258Y-69989000D01*
X179210488Y-69984073D01*
X179061188Y-69954376D01*
X178897216Y-69886456D01*
X178749646Y-69787853D01*
X178624147Y-69662354D01*
X178525544Y-69514784D01*
X178457624Y-69350812D01*
X178423000Y-69176741D01*
X178423000Y-68999259D01*
X178457624Y-68825188D01*
X178525544Y-68661216D01*
X178624147Y-68513646D01*
X178749646Y-68388147D01*
X178897216Y-68289544D01*
X179061188Y-68221624D01*
X179210488Y-68191927D01*
X179235258Y-68187000D01*
X179412742Y-68187000D01*
X179437512Y-68191927D01*
G37*
G36*
X263257512Y-67937927D02*
G01*
X263406812Y-67967624D01*
X263570784Y-68035544D01*
X263718354Y-68134147D01*
X263843853Y-68259646D01*
X263942456Y-68407216D01*
X264010376Y-68571188D01*
X264045000Y-68745259D01*
X264045000Y-68922741D01*
X264010376Y-69096812D01*
X263942456Y-69260784D01*
X263843853Y-69408354D01*
X263718354Y-69533853D01*
X263570784Y-69632456D01*
X263406812Y-69700376D01*
X263257512Y-69730073D01*
X263232742Y-69735000D01*
X263055258Y-69735000D01*
X263030488Y-69730073D01*
X262881188Y-69700376D01*
X262717216Y-69632456D01*
X262569646Y-69533853D01*
X262444147Y-69408354D01*
X262345544Y-69260784D01*
X262277624Y-69096812D01*
X262243000Y-68922741D01*
X262243000Y-68745259D01*
X262277624Y-68571188D01*
X262345544Y-68407216D01*
X262444147Y-68259646D01*
X262569646Y-68134147D01*
X262717216Y-68035544D01*
X262881188Y-67967624D01*
X263030488Y-67937927D01*
X263055258Y-67933000D01*
X263232742Y-67933000D01*
X263257512Y-67937927D01*
G37*
G36*
X210933512Y-66159927D02*
G01*
X211082812Y-66189624D01*
X211246784Y-66257544D01*
X211394354Y-66356147D01*
X211519853Y-66481646D01*
X211618456Y-66629216D01*
X211686376Y-66793188D01*
X211721000Y-66967259D01*
X211721000Y-67144741D01*
X211686376Y-67318812D01*
X211618456Y-67482784D01*
X211519853Y-67630354D01*
X211394354Y-67755853D01*
X211246784Y-67854456D01*
X211082812Y-67922376D01*
X210933512Y-67952073D01*
X210908742Y-67957000D01*
X210731258Y-67957000D01*
X210706488Y-67952073D01*
X210557188Y-67922376D01*
X210393216Y-67854456D01*
X210245646Y-67755853D01*
X210120147Y-67630354D01*
X210021544Y-67482784D01*
X209953624Y-67318812D01*
X209919000Y-67144741D01*
X209919000Y-66967259D01*
X209953624Y-66793188D01*
X210021544Y-66629216D01*
X210120147Y-66481646D01*
X210245646Y-66356147D01*
X210393216Y-66257544D01*
X210557188Y-66189624D01*
X210706488Y-66159927D01*
X210731258Y-66155000D01*
X210908742Y-66155000D01*
X210933512Y-66159927D01*
G37*
G36*
X208393512Y-66159927D02*
G01*
X208542812Y-66189624D01*
X208706784Y-66257544D01*
X208854354Y-66356147D01*
X208979853Y-66481646D01*
X209078456Y-66629216D01*
X209146376Y-66793188D01*
X209181000Y-66967259D01*
X209181000Y-67144741D01*
X209146376Y-67318812D01*
X209078456Y-67482784D01*
X208979853Y-67630354D01*
X208854354Y-67755853D01*
X208706784Y-67854456D01*
X208542812Y-67922376D01*
X208393512Y-67952073D01*
X208368742Y-67957000D01*
X208191258Y-67957000D01*
X208166488Y-67952073D01*
X208017188Y-67922376D01*
X207853216Y-67854456D01*
X207705646Y-67755853D01*
X207580147Y-67630354D01*
X207481544Y-67482784D01*
X207413624Y-67318812D01*
X207379000Y-67144741D01*
X207379000Y-66967259D01*
X207413624Y-66793188D01*
X207481544Y-66629216D01*
X207580147Y-66481646D01*
X207705646Y-66356147D01*
X207853216Y-66257544D01*
X208017188Y-66189624D01*
X208166488Y-66159927D01*
X208191258Y-66155000D01*
X208368742Y-66155000D01*
X208393512Y-66159927D01*
G37*
G36*
X206641000Y-67957000D02*
G01*
X204839000Y-67957000D01*
X204839000Y-66155000D01*
X206641000Y-66155000D01*
X206641000Y-67957000D01*
G37*
G36*
X263257512Y-65397927D02*
G01*
X263406812Y-65427624D01*
X263570784Y-65495544D01*
X263718354Y-65594147D01*
X263843853Y-65719646D01*
X263942456Y-65867216D01*
X264010376Y-66031188D01*
X264038206Y-66171101D01*
X264044347Y-66201973D01*
X264045000Y-66205259D01*
X264045000Y-66382741D01*
X264010376Y-66556812D01*
X263942456Y-66720784D01*
X263843853Y-66868354D01*
X263718354Y-66993853D01*
X263570784Y-67092456D01*
X263406812Y-67160376D01*
X263257512Y-67190073D01*
X263232742Y-67195000D01*
X263055258Y-67195000D01*
X263030488Y-67190073D01*
X262881188Y-67160376D01*
X262717216Y-67092456D01*
X262569646Y-66993853D01*
X262444147Y-66868354D01*
X262345544Y-66720784D01*
X262277624Y-66556812D01*
X262243000Y-66382741D01*
X262243000Y-66205259D01*
X262243654Y-66201973D01*
X262249794Y-66171101D01*
X262277624Y-66031188D01*
X262345544Y-65867216D01*
X262444147Y-65719646D01*
X262569646Y-65594147D01*
X262717216Y-65495544D01*
X262881188Y-65427624D01*
X263030488Y-65397927D01*
X263055258Y-65393000D01*
X263232742Y-65393000D01*
X263257512Y-65397927D01*
G37*
G36*
X180842228Y-64967703D02*
G01*
X180997100Y-65031853D01*
X181136481Y-65124985D01*
X181255015Y-65243519D01*
X181348147Y-65382900D01*
X181412297Y-65537772D01*
X181445000Y-65702184D01*
X181445000Y-65869816D01*
X181412297Y-66034228D01*
X181348147Y-66189100D01*
X181255015Y-66328481D01*
X181136481Y-66447015D01*
X180997100Y-66540147D01*
X180842228Y-66604297D01*
X180677816Y-66637000D01*
X180510184Y-66637000D01*
X180345772Y-66604297D01*
X180190900Y-66540147D01*
X180051519Y-66447015D01*
X179932985Y-66328481D01*
X179839853Y-66189100D01*
X179775703Y-66034228D01*
X179743000Y-65869816D01*
X179743000Y-65702184D01*
X179775703Y-65537772D01*
X179839853Y-65382900D01*
X179932985Y-65243519D01*
X180051519Y-65124985D01*
X180190900Y-65031853D01*
X180345772Y-64967703D01*
X180510184Y-64935000D01*
X180677816Y-64935000D01*
X180842228Y-64967703D01*
G37*
G36*
X177032228Y-64967703D02*
G01*
X177187100Y-65031853D01*
X177326481Y-65124985D01*
X177445015Y-65243519D01*
X177538147Y-65382900D01*
X177602297Y-65537772D01*
X177635000Y-65702184D01*
X177635000Y-65869816D01*
X177602297Y-66034228D01*
X177538147Y-66189100D01*
X177445015Y-66328481D01*
X177326481Y-66447015D01*
X177187100Y-66540147D01*
X177032228Y-66604297D01*
X176867816Y-66637000D01*
X176700184Y-66637000D01*
X176535772Y-66604297D01*
X176380900Y-66540147D01*
X176241519Y-66447015D01*
X176122985Y-66328481D01*
X176029853Y-66189100D01*
X175965703Y-66034228D01*
X175933000Y-65869816D01*
X175933000Y-65702184D01*
X175965703Y-65537772D01*
X176029853Y-65382900D01*
X176122985Y-65243519D01*
X176241519Y-65124985D01*
X176380900Y-65031853D01*
X176535772Y-64967703D01*
X176700184Y-64935000D01*
X176867816Y-64935000D01*
X177032228Y-64967703D01*
G37*
G36*
X170163142Y-65004242D02*
G01*
X170311101Y-65065529D01*
X170444255Y-65154499D01*
X170557501Y-65267745D01*
X170646471Y-65400899D01*
X170707758Y-65548858D01*
X170739000Y-65705925D01*
X170739000Y-65866075D01*
X170707758Y-66023142D01*
X170646471Y-66171101D01*
X170557501Y-66304255D01*
X170444255Y-66417501D01*
X170311101Y-66506471D01*
X170163142Y-66567758D01*
X170006075Y-66599000D01*
X169845925Y-66599000D01*
X169688858Y-66567758D01*
X169540899Y-66506471D01*
X169407745Y-66417501D01*
X169294499Y-66304255D01*
X169205529Y-66171101D01*
X169144242Y-66023142D01*
X169113000Y-65866075D01*
X169113000Y-65705925D01*
X169144242Y-65548858D01*
X169205529Y-65400899D01*
X169294499Y-65267745D01*
X169407745Y-65154499D01*
X169540899Y-65065529D01*
X169688858Y-65004242D01*
X169845925Y-64973000D01*
X170006075Y-64973000D01*
X170163142Y-65004242D01*
G37*
G36*
X154923142Y-65004242D02*
G01*
X155071101Y-65065529D01*
X155204255Y-65154499D01*
X155317501Y-65267745D01*
X155406471Y-65400899D01*
X155467758Y-65548858D01*
X155499000Y-65705925D01*
X155499000Y-65866075D01*
X155467758Y-66023142D01*
X155406471Y-66171101D01*
X155317501Y-66304255D01*
X155204255Y-66417501D01*
X155071101Y-66506471D01*
X154923142Y-66567758D01*
X154766075Y-66599000D01*
X154605925Y-66599000D01*
X154448858Y-66567758D01*
X154300899Y-66506471D01*
X154167745Y-66417501D01*
X154054499Y-66304255D01*
X153965529Y-66171101D01*
X153904242Y-66023142D01*
X153873000Y-65866075D01*
X153873000Y-65705925D01*
X153904242Y-65548858D01*
X153965529Y-65400899D01*
X154054499Y-65267745D01*
X154167745Y-65154499D01*
X154300899Y-65065529D01*
X154448858Y-65004242D01*
X154605925Y-64973000D01*
X154766075Y-64973000D01*
X154923142Y-65004242D01*
G37*
G36*
X197390564Y-64521389D02*
G01*
X197581833Y-64600615D01*
X197581835Y-64600616D01*
X197753973Y-64715635D01*
X197900365Y-64862027D01*
X198013839Y-65031852D01*
X198015385Y-65034167D01*
X198094611Y-65225436D01*
X198135000Y-65428484D01*
X198135000Y-65635516D01*
X198094611Y-65838564D01*
X198082742Y-65867218D01*
X198015384Y-66029835D01*
X197900365Y-66201973D01*
X197753973Y-66348365D01*
X197581835Y-66463384D01*
X197581834Y-66463385D01*
X197581833Y-66463385D01*
X197390564Y-66542611D01*
X197187516Y-66583000D01*
X196980484Y-66583000D01*
X196777436Y-66542611D01*
X196586167Y-66463385D01*
X196586166Y-66463385D01*
X196586165Y-66463384D01*
X196414027Y-66348365D01*
X196267635Y-66201973D01*
X196152616Y-66029835D01*
X196085258Y-65867218D01*
X196073389Y-65838564D01*
X196033000Y-65635516D01*
X196033000Y-65428484D01*
X196073389Y-65225436D01*
X196152615Y-65034167D01*
X196154162Y-65031852D01*
X196267635Y-64862027D01*
X196414027Y-64715635D01*
X196586165Y-64600616D01*
X196586167Y-64600615D01*
X196777436Y-64521389D01*
X196980484Y-64481000D01*
X197187516Y-64481000D01*
X197390564Y-64521389D01*
G37*
G36*
X190535000Y-66583000D02*
G01*
X188433000Y-66583000D01*
X188433000Y-64481000D01*
X190535000Y-64481000D01*
X190535000Y-66583000D01*
G37*
G36*
X263257512Y-62857927D02*
G01*
X263406812Y-62887624D01*
X263570784Y-62955544D01*
X263718354Y-63054147D01*
X263843853Y-63179646D01*
X263942456Y-63327216D01*
X264010376Y-63491188D01*
X264045000Y-63665259D01*
X264045000Y-63842741D01*
X264010376Y-64016812D01*
X263942456Y-64180784D01*
X263843853Y-64328354D01*
X263718354Y-64453853D01*
X263570784Y-64552456D01*
X263406812Y-64620376D01*
X263257512Y-64650073D01*
X263232742Y-64655000D01*
X263055258Y-64655000D01*
X263030488Y-64650073D01*
X262881188Y-64620376D01*
X262717216Y-64552456D01*
X262569646Y-64453853D01*
X262444147Y-64328354D01*
X262345544Y-64180784D01*
X262277624Y-64016812D01*
X262243000Y-63842741D01*
X262243000Y-63665259D01*
X262277624Y-63491188D01*
X262345544Y-63327216D01*
X262444147Y-63179646D01*
X262569646Y-63054147D01*
X262717216Y-62955544D01*
X262881188Y-62887624D01*
X263030488Y-62857927D01*
X263055258Y-62853000D01*
X263232742Y-62853000D01*
X263257512Y-62857927D01*
G37*
G36*
X210933512Y-62603927D02*
G01*
X211082812Y-62633624D01*
X211246784Y-62701544D01*
X211394354Y-62800147D01*
X211519853Y-62925646D01*
X211618456Y-63073216D01*
X211686376Y-63237188D01*
X211721000Y-63411259D01*
X211721000Y-63588741D01*
X211686376Y-63762812D01*
X211618456Y-63926784D01*
X211519853Y-64074354D01*
X211394354Y-64199853D01*
X211246784Y-64298456D01*
X211082812Y-64366376D01*
X210933512Y-64396073D01*
X210908742Y-64401000D01*
X210731258Y-64401000D01*
X210706488Y-64396073D01*
X210557188Y-64366376D01*
X210393216Y-64298456D01*
X210245646Y-64199853D01*
X210120147Y-64074354D01*
X210021544Y-63926784D01*
X209953624Y-63762812D01*
X209919000Y-63588741D01*
X209919000Y-63411259D01*
X209953624Y-63237188D01*
X210021544Y-63073216D01*
X210120147Y-62925646D01*
X210245646Y-62800147D01*
X210393216Y-62701544D01*
X210557188Y-62633624D01*
X210706488Y-62603927D01*
X210731258Y-62599000D01*
X210908742Y-62599000D01*
X210933512Y-62603927D01*
G37*
G36*
X206641000Y-64401000D02*
G01*
X204839000Y-64401000D01*
X204839000Y-62599000D01*
X206641000Y-62599000D01*
X206641000Y-64401000D01*
G37*
G36*
X208393512Y-62603927D02*
G01*
X208542812Y-62633624D01*
X208706784Y-62701544D01*
X208854354Y-62800147D01*
X208979853Y-62925646D01*
X209078456Y-63073216D01*
X209146376Y-63237188D01*
X209181000Y-63411259D01*
X209181000Y-63588741D01*
X209146376Y-63762812D01*
X209078456Y-63926784D01*
X208979853Y-64074354D01*
X208854354Y-64199853D01*
X208706784Y-64298456D01*
X208542812Y-64366376D01*
X208393512Y-64396073D01*
X208368742Y-64401000D01*
X208191258Y-64401000D01*
X208166488Y-64396073D01*
X208017188Y-64366376D01*
X207853216Y-64298456D01*
X207705646Y-64199853D01*
X207580147Y-64074354D01*
X207481544Y-63926784D01*
X207413624Y-63762812D01*
X207379000Y-63588741D01*
X207379000Y-63411259D01*
X207413624Y-63237188D01*
X207481544Y-63073216D01*
X207580147Y-62925646D01*
X207705646Y-62800147D01*
X207853216Y-62701544D01*
X208017188Y-62633624D01*
X208166488Y-62603927D01*
X208191258Y-62599000D01*
X208368742Y-62599000D01*
X208393512Y-62603927D01*
G37*
G36*
X170163142Y-62464242D02*
G01*
X170311101Y-62525529D01*
X170444255Y-62614499D01*
X170557501Y-62727745D01*
X170646471Y-62860899D01*
X170707758Y-63008858D01*
X170739000Y-63165925D01*
X170739000Y-63326075D01*
X170707758Y-63483142D01*
X170646471Y-63631101D01*
X170557501Y-63764255D01*
X170444255Y-63877501D01*
X170311101Y-63966471D01*
X170163142Y-64027758D01*
X170006075Y-64059000D01*
X169845925Y-64059000D01*
X169688858Y-64027758D01*
X169540899Y-63966471D01*
X169407745Y-63877501D01*
X169294499Y-63764255D01*
X169205529Y-63631101D01*
X169144242Y-63483142D01*
X169113000Y-63326075D01*
X169113000Y-63165925D01*
X169144242Y-63008858D01*
X169205529Y-62860899D01*
X169294499Y-62727745D01*
X169407745Y-62614499D01*
X169540899Y-62525529D01*
X169688858Y-62464242D01*
X169845925Y-62433000D01*
X170006075Y-62433000D01*
X170163142Y-62464242D01*
G37*
G36*
X154923142Y-62464242D02*
G01*
X155071101Y-62525529D01*
X155204255Y-62614499D01*
X155317501Y-62727745D01*
X155406471Y-62860899D01*
X155467758Y-63008858D01*
X155499000Y-63165925D01*
X155499000Y-63326075D01*
X155467758Y-63483142D01*
X155406471Y-63631101D01*
X155317501Y-63764255D01*
X155204255Y-63877501D01*
X155071101Y-63966471D01*
X154923142Y-64027758D01*
X154766075Y-64059000D01*
X154605925Y-64059000D01*
X154448858Y-64027758D01*
X154300899Y-63966471D01*
X154167745Y-63877501D01*
X154054499Y-63764255D01*
X153965529Y-63631101D01*
X153904242Y-63483142D01*
X153873000Y-63326075D01*
X153873000Y-63165925D01*
X153904242Y-63008858D01*
X153965529Y-62860899D01*
X154054499Y-62727745D01*
X154167745Y-62614499D01*
X154300899Y-62525529D01*
X154448858Y-62464242D01*
X154605925Y-62433000D01*
X154766075Y-62433000D01*
X154923142Y-62464242D01*
G37*
G36*
X263257512Y-60317927D02*
G01*
X263406812Y-60347624D01*
X263570784Y-60415544D01*
X263718354Y-60514147D01*
X263843853Y-60639646D01*
X263942456Y-60787216D01*
X264010376Y-60951188D01*
X264045000Y-61125259D01*
X264045000Y-61302741D01*
X264010376Y-61476812D01*
X263942456Y-61640784D01*
X263843853Y-61788354D01*
X263718354Y-61913853D01*
X263570784Y-62012456D01*
X263406812Y-62080376D01*
X263257512Y-62110073D01*
X263232742Y-62115000D01*
X263055258Y-62115000D01*
X263030488Y-62110073D01*
X262881188Y-62080376D01*
X262717216Y-62012456D01*
X262569646Y-61913853D01*
X262444147Y-61788354D01*
X262345544Y-61640784D01*
X262277624Y-61476812D01*
X262243000Y-61302741D01*
X262243000Y-61125259D01*
X262277624Y-60951188D01*
X262345544Y-60787216D01*
X262444147Y-60639646D01*
X262569646Y-60514147D01*
X262717216Y-60415544D01*
X262881188Y-60347624D01*
X263030488Y-60317927D01*
X263055258Y-60313000D01*
X263232742Y-60313000D01*
X263257512Y-60317927D01*
G37*
G36*
X170163142Y-59924242D02*
G01*
X170311101Y-59985529D01*
X170444255Y-60074499D01*
X170557501Y-60187745D01*
X170646471Y-60320899D01*
X170707758Y-60468858D01*
X170739000Y-60625925D01*
X170739000Y-60786075D01*
X170707758Y-60943142D01*
X170646471Y-61091101D01*
X170557501Y-61224255D01*
X170444255Y-61337501D01*
X170311101Y-61426471D01*
X170163142Y-61487758D01*
X170006075Y-61519000D01*
X169845925Y-61519000D01*
X169688858Y-61487758D01*
X169540899Y-61426471D01*
X169407745Y-61337501D01*
X169294499Y-61224255D01*
X169205529Y-61091101D01*
X169144242Y-60943142D01*
X169113000Y-60786075D01*
X169113000Y-60625925D01*
X169144242Y-60468858D01*
X169205529Y-60320899D01*
X169294499Y-60187745D01*
X169407745Y-60074499D01*
X169540899Y-59985529D01*
X169688858Y-59924242D01*
X169845925Y-59893000D01*
X170006075Y-59893000D01*
X170163142Y-59924242D01*
G37*
G36*
X154923142Y-59924242D02*
G01*
X155071101Y-59985529D01*
X155204255Y-60074499D01*
X155317501Y-60187745D01*
X155406471Y-60320899D01*
X155467758Y-60468858D01*
X155499000Y-60625925D01*
X155499000Y-60786075D01*
X155467758Y-60943142D01*
X155406471Y-61091101D01*
X155317501Y-61224255D01*
X155204255Y-61337501D01*
X155071101Y-61426471D01*
X154923142Y-61487758D01*
X154766075Y-61519000D01*
X154605925Y-61519000D01*
X154448858Y-61487758D01*
X154300899Y-61426471D01*
X154167745Y-61337501D01*
X154054499Y-61224255D01*
X153965529Y-61091101D01*
X153904242Y-60943142D01*
X153873000Y-60786075D01*
X153873000Y-60625925D01*
X153904242Y-60468858D01*
X153965529Y-60320899D01*
X154054499Y-60187745D01*
X154167745Y-60074499D01*
X154300899Y-59985529D01*
X154448858Y-59924242D01*
X154605925Y-59893000D01*
X154766075Y-59893000D01*
X154923142Y-59924242D01*
G37*
G36*
X170163142Y-57384242D02*
G01*
X170311101Y-57445529D01*
X170444255Y-57534499D01*
X170557501Y-57647745D01*
X170646471Y-57780899D01*
X170707758Y-57928858D01*
X170739000Y-58085925D01*
X170739000Y-58246075D01*
X170707758Y-58403142D01*
X170646471Y-58551101D01*
X170557501Y-58684255D01*
X170444255Y-58797501D01*
X170311101Y-58886471D01*
X170163142Y-58947758D01*
X170006075Y-58979000D01*
X169845925Y-58979000D01*
X169688858Y-58947758D01*
X169540899Y-58886471D01*
X169407745Y-58797501D01*
X169294499Y-58684255D01*
X169205529Y-58551101D01*
X169144242Y-58403142D01*
X169113000Y-58246075D01*
X169113000Y-58085925D01*
X169144242Y-57928858D01*
X169205529Y-57780899D01*
X169294499Y-57647745D01*
X169407745Y-57534499D01*
X169540899Y-57445529D01*
X169688858Y-57384242D01*
X169845925Y-57353000D01*
X170006075Y-57353000D01*
X170163142Y-57384242D01*
G37*
G36*
X154923142Y-57384242D02*
G01*
X155071101Y-57445529D01*
X155204255Y-57534499D01*
X155317501Y-57647745D01*
X155406471Y-57780899D01*
X155467758Y-57928858D01*
X155499000Y-58085925D01*
X155499000Y-58246075D01*
X155467758Y-58403142D01*
X155406471Y-58551101D01*
X155317501Y-58684255D01*
X155204255Y-58797501D01*
X155071101Y-58886471D01*
X154923142Y-58947758D01*
X154766075Y-58979000D01*
X154605925Y-58979000D01*
X154448858Y-58947758D01*
X154300899Y-58886471D01*
X154167745Y-58797501D01*
X154054499Y-58684255D01*
X153965529Y-58551101D01*
X153904242Y-58403142D01*
X153873000Y-58246075D01*
X153873000Y-58085925D01*
X153904242Y-57928858D01*
X153965529Y-57780899D01*
X154054499Y-57647745D01*
X154167745Y-57534499D01*
X154300899Y-57445529D01*
X154448858Y-57384242D01*
X154605925Y-57353000D01*
X154766075Y-57353000D01*
X154923142Y-57384242D01*
G37*
G36*
X170163142Y-54844242D02*
G01*
X170311101Y-54905529D01*
X170444255Y-54994499D01*
X170557501Y-55107745D01*
X170646471Y-55240899D01*
X170707758Y-55388858D01*
X170739000Y-55545925D01*
X170739000Y-55706075D01*
X170707758Y-55863142D01*
X170646471Y-56011101D01*
X170557501Y-56144255D01*
X170444255Y-56257501D01*
X170311101Y-56346471D01*
X170163142Y-56407758D01*
X170006075Y-56439000D01*
X169845925Y-56439000D01*
X169688858Y-56407758D01*
X169540899Y-56346471D01*
X169407745Y-56257501D01*
X169294499Y-56144255D01*
X169205529Y-56011101D01*
X169144242Y-55863142D01*
X169113000Y-55706075D01*
X169113000Y-55545925D01*
X169144242Y-55388858D01*
X169205529Y-55240899D01*
X169294499Y-55107745D01*
X169407745Y-54994499D01*
X169540899Y-54905529D01*
X169688858Y-54844242D01*
X169845925Y-54813000D01*
X170006075Y-54813000D01*
X170163142Y-54844242D01*
G37*
G36*
X216641642Y-54032781D02*
G01*
X216787414Y-54093162D01*
X216787416Y-54093163D01*
X216918608Y-54180822D01*
X217030178Y-54292392D01*
X217117837Y-54423584D01*
X217117838Y-54423586D01*
X217178219Y-54569358D01*
X217209000Y-54724107D01*
X217209000Y-54881893D01*
X217178219Y-55036642D01*
X217148767Y-55107745D01*
X217117837Y-55182416D01*
X217030178Y-55313608D01*
X216918608Y-55425178D01*
X216787416Y-55512837D01*
X216787415Y-55512838D01*
X216787414Y-55512838D01*
X216641642Y-55573219D01*
X216486893Y-55604000D01*
X216329107Y-55604000D01*
X216174358Y-55573219D01*
X216028586Y-55512838D01*
X216028585Y-55512838D01*
X216028584Y-55512837D01*
X215897392Y-55425178D01*
X215785822Y-55313608D01*
X215698163Y-55182416D01*
X215667233Y-55107745D01*
X215637781Y-55036642D01*
X215607000Y-54881893D01*
X215607000Y-54724107D01*
X215637781Y-54569358D01*
X215698162Y-54423586D01*
X215698163Y-54423584D01*
X215785822Y-54292392D01*
X215897392Y-54180822D01*
X216028584Y-54093163D01*
X216028586Y-54093162D01*
X216174358Y-54032781D01*
X216329107Y-54002000D01*
X216486893Y-54002000D01*
X216641642Y-54032781D01*
G37*
G36*
X258551642Y-54032781D02*
G01*
X258697414Y-54093162D01*
X258697416Y-54093163D01*
X258828608Y-54180822D01*
X258940178Y-54292392D01*
X259027837Y-54423584D01*
X259027838Y-54423586D01*
X259088219Y-54569358D01*
X259119000Y-54724107D01*
X259119000Y-54881893D01*
X259088219Y-55036642D01*
X259058767Y-55107745D01*
X259027837Y-55182416D01*
X258940178Y-55313608D01*
X258828608Y-55425178D01*
X258697416Y-55512837D01*
X258697415Y-55512838D01*
X258697414Y-55512838D01*
X258551642Y-55573219D01*
X258396893Y-55604000D01*
X258239107Y-55604000D01*
X258084358Y-55573219D01*
X257938586Y-55512838D01*
X257938585Y-55512838D01*
X257938584Y-55512837D01*
X257807392Y-55425178D01*
X257695822Y-55313608D01*
X257608163Y-55182416D01*
X257577233Y-55107745D01*
X257547781Y-55036642D01*
X257517000Y-54881893D01*
X257517000Y-54724107D01*
X257547781Y-54569358D01*
X257608162Y-54423586D01*
X257608163Y-54423584D01*
X257695822Y-54292392D01*
X257807392Y-54180822D01*
X257938584Y-54093163D01*
X257938586Y-54093162D01*
X258084358Y-54032781D01*
X258239107Y-54002000D01*
X258396893Y-54002000D01*
X258551642Y-54032781D01*
G37*
G36*
X202671642Y-54032781D02*
G01*
X202817414Y-54093162D01*
X202817416Y-54093163D01*
X202948608Y-54180822D01*
X203060178Y-54292392D01*
X203147837Y-54423584D01*
X203147838Y-54423586D01*
X203208219Y-54569358D01*
X203239000Y-54724107D01*
X203239000Y-54881893D01*
X203208219Y-55036642D01*
X203178767Y-55107745D01*
X203147837Y-55182416D01*
X203060178Y-55313608D01*
X202948608Y-55425178D01*
X202817416Y-55512837D01*
X202817415Y-55512838D01*
X202817414Y-55512838D01*
X202671642Y-55573219D01*
X202516893Y-55604000D01*
X202359107Y-55604000D01*
X202204358Y-55573219D01*
X202058586Y-55512838D01*
X202058585Y-55512838D01*
X202058584Y-55512837D01*
X201927392Y-55425178D01*
X201815822Y-55313608D01*
X201728163Y-55182416D01*
X201697233Y-55107745D01*
X201667781Y-55036642D01*
X201637000Y-54881893D01*
X201637000Y-54724107D01*
X201667781Y-54569358D01*
X201728162Y-54423586D01*
X201728163Y-54423584D01*
X201815822Y-54292392D01*
X201927392Y-54180822D01*
X202058584Y-54093163D01*
X202058586Y-54093162D01*
X202204358Y-54032781D01*
X202359107Y-54002000D01*
X202516893Y-54002000D01*
X202671642Y-54032781D01*
G37*
G36*
X188701642Y-54032781D02*
G01*
X188847414Y-54093162D01*
X188847416Y-54093163D01*
X188978608Y-54180822D01*
X189090178Y-54292392D01*
X189177837Y-54423584D01*
X189177838Y-54423586D01*
X189238219Y-54569358D01*
X189269000Y-54724107D01*
X189269000Y-54881893D01*
X189238219Y-55036642D01*
X189208767Y-55107745D01*
X189177837Y-55182416D01*
X189090178Y-55313608D01*
X188978608Y-55425178D01*
X188847416Y-55512837D01*
X188847415Y-55512838D01*
X188847414Y-55512838D01*
X188701642Y-55573219D01*
X188546893Y-55604000D01*
X188389107Y-55604000D01*
X188234358Y-55573219D01*
X188088586Y-55512838D01*
X188088585Y-55512838D01*
X188088584Y-55512837D01*
X187957392Y-55425178D01*
X187845822Y-55313608D01*
X187758163Y-55182416D01*
X187727233Y-55107745D01*
X187697781Y-55036642D01*
X187667000Y-54881893D01*
X187667000Y-54724107D01*
X187697781Y-54569358D01*
X187758162Y-54423586D01*
X187758163Y-54423584D01*
X187845822Y-54292392D01*
X187957392Y-54180822D01*
X188088584Y-54093163D01*
X188088586Y-54093162D01*
X188234358Y-54032781D01*
X188389107Y-54002000D01*
X188546893Y-54002000D01*
X188701642Y-54032781D01*
G37*
G36*
X230611642Y-54032781D02*
G01*
X230757414Y-54093162D01*
X230757416Y-54093163D01*
X230888608Y-54180822D01*
X231000178Y-54292392D01*
X231087837Y-54423584D01*
X231087838Y-54423586D01*
X231148219Y-54569358D01*
X231179000Y-54724107D01*
X231179000Y-54881893D01*
X231148219Y-55036642D01*
X231118767Y-55107745D01*
X231087837Y-55182416D01*
X231000178Y-55313608D01*
X230888608Y-55425178D01*
X230757416Y-55512837D01*
X230757415Y-55512838D01*
X230757414Y-55512838D01*
X230611642Y-55573219D01*
X230456893Y-55604000D01*
X230299107Y-55604000D01*
X230144358Y-55573219D01*
X229998586Y-55512838D01*
X229998585Y-55512838D01*
X229998584Y-55512837D01*
X229867392Y-55425178D01*
X229755822Y-55313608D01*
X229668163Y-55182416D01*
X229637233Y-55107745D01*
X229607781Y-55036642D01*
X229577000Y-54881893D01*
X229577000Y-54724107D01*
X229607781Y-54569358D01*
X229668162Y-54423586D01*
X229668163Y-54423584D01*
X229755822Y-54292392D01*
X229867392Y-54180822D01*
X229998584Y-54093163D01*
X229998586Y-54093162D01*
X230144358Y-54032781D01*
X230299107Y-54002000D01*
X230456893Y-54002000D01*
X230611642Y-54032781D01*
G37*
G36*
X244581642Y-54032781D02*
G01*
X244727414Y-54093162D01*
X244727416Y-54093163D01*
X244858608Y-54180822D01*
X244970178Y-54292392D01*
X245057837Y-54423584D01*
X245057838Y-54423586D01*
X245118219Y-54569358D01*
X245149000Y-54724107D01*
X245149000Y-54881893D01*
X245118219Y-55036642D01*
X245088767Y-55107745D01*
X245057837Y-55182416D01*
X244970178Y-55313608D01*
X244858608Y-55425178D01*
X244727416Y-55512837D01*
X244727415Y-55512838D01*
X244727414Y-55512838D01*
X244581642Y-55573219D01*
X244426893Y-55604000D01*
X244269107Y-55604000D01*
X244114358Y-55573219D01*
X243968586Y-55512838D01*
X243968585Y-55512838D01*
X243968584Y-55512837D01*
X243837392Y-55425178D01*
X243725822Y-55313608D01*
X243638163Y-55182416D01*
X243607233Y-55107745D01*
X243577781Y-55036642D01*
X243547000Y-54881893D01*
X243547000Y-54724107D01*
X243577781Y-54569358D01*
X243638162Y-54423586D01*
X243638163Y-54423584D01*
X243725822Y-54292392D01*
X243837392Y-54180822D01*
X243968584Y-54093163D01*
X243968586Y-54093162D01*
X244114358Y-54032781D01*
X244269107Y-54002000D01*
X244426893Y-54002000D01*
X244581642Y-54032781D01*
G37*
G36*
X180842228Y-49727703D02*
G01*
X180997100Y-49791853D01*
X181136481Y-49884985D01*
X181255015Y-50003519D01*
X181348147Y-50142900D01*
X181412297Y-50297772D01*
X181445000Y-50462184D01*
X181445000Y-50629816D01*
X181412297Y-50794228D01*
X181348147Y-50949100D01*
X181255015Y-51088481D01*
X181136481Y-51207015D01*
X180997100Y-51300147D01*
X180842228Y-51364297D01*
X180677816Y-51397000D01*
X180510184Y-51397000D01*
X180345772Y-51364297D01*
X180190900Y-51300147D01*
X180051519Y-51207015D01*
X179932985Y-51088481D01*
X179839853Y-50949100D01*
X179775703Y-50794228D01*
X179743000Y-50629816D01*
X179743000Y-50462184D01*
X179775703Y-50297772D01*
X179839853Y-50142900D01*
X179932985Y-50003519D01*
X180051519Y-49884985D01*
X180190900Y-49791853D01*
X180345772Y-49727703D01*
X180510184Y-49695000D01*
X180677816Y-49695000D01*
X180842228Y-49727703D01*
G37*
G36*
X177032228Y-49727703D02*
G01*
X177187100Y-49791853D01*
X177326481Y-49884985D01*
X177445015Y-50003519D01*
X177538147Y-50142900D01*
X177602297Y-50297772D01*
X177635000Y-50462184D01*
X177635000Y-50629816D01*
X177602297Y-50794228D01*
X177538147Y-50949100D01*
X177445015Y-51088481D01*
X177326481Y-51207015D01*
X177187100Y-51300147D01*
X177032228Y-51364297D01*
X176867816Y-51397000D01*
X176700184Y-51397000D01*
X176535772Y-51364297D01*
X176380900Y-51300147D01*
X176241519Y-51207015D01*
X176122985Y-51088481D01*
X176029853Y-50949100D01*
X175965703Y-50794228D01*
X175933000Y-50629816D01*
X175933000Y-50462184D01*
X175965703Y-50297772D01*
X176029853Y-50142900D01*
X176122985Y-50003519D01*
X176241519Y-49884985D01*
X176380900Y-49791853D01*
X176535772Y-49727703D01*
X176700184Y-49695000D01*
X176867816Y-49695000D01*
X177032228Y-49727703D01*
G37*
G36*
X230611642Y-47032781D02*
G01*
X230757414Y-47093162D01*
X230757416Y-47093163D01*
X230888608Y-47180822D01*
X231000178Y-47292392D01*
X231087837Y-47423584D01*
X231087838Y-47423586D01*
X231148219Y-47569358D01*
X231179000Y-47724107D01*
X231179000Y-47881893D01*
X231148219Y-48036642D01*
X231087838Y-48182414D01*
X231087837Y-48182416D01*
X231000178Y-48313608D01*
X230888608Y-48425178D01*
X230757416Y-48512837D01*
X230757415Y-48512838D01*
X230757414Y-48512838D01*
X230611642Y-48573219D01*
X230456893Y-48604000D01*
X230299107Y-48604000D01*
X230144358Y-48573219D01*
X229998586Y-48512838D01*
X229998585Y-48512838D01*
X229998584Y-48512837D01*
X229867392Y-48425178D01*
X229755822Y-48313608D01*
X229668163Y-48182416D01*
X229668162Y-48182414D01*
X229607781Y-48036642D01*
X229577000Y-47881893D01*
X229577000Y-47724107D01*
X229607781Y-47569358D01*
X229668162Y-47423586D01*
X229668163Y-47423584D01*
X229755822Y-47292392D01*
X229867392Y-47180822D01*
X229998584Y-47093163D01*
X229998586Y-47093162D01*
X230144358Y-47032781D01*
X230299107Y-47002000D01*
X230456893Y-47002000D01*
X230611642Y-47032781D01*
G37*
G36*
X202671642Y-47032781D02*
G01*
X202817414Y-47093162D01*
X202817416Y-47093163D01*
X202948608Y-47180822D01*
X203060178Y-47292392D01*
X203147837Y-47423584D01*
X203147838Y-47423586D01*
X203208219Y-47569358D01*
X203239000Y-47724107D01*
X203239000Y-47881893D01*
X203208219Y-48036642D01*
X203147838Y-48182414D01*
X203147837Y-48182416D01*
X203060178Y-48313608D01*
X202948608Y-48425178D01*
X202817416Y-48512837D01*
X202817415Y-48512838D01*
X202817414Y-48512838D01*
X202671642Y-48573219D01*
X202516893Y-48604000D01*
X202359107Y-48604000D01*
X202204358Y-48573219D01*
X202058586Y-48512838D01*
X202058585Y-48512838D01*
X202058584Y-48512837D01*
X201927392Y-48425178D01*
X201815822Y-48313608D01*
X201728163Y-48182416D01*
X201728162Y-48182414D01*
X201667781Y-48036642D01*
X201637000Y-47881893D01*
X201637000Y-47724107D01*
X201667781Y-47569358D01*
X201728162Y-47423586D01*
X201728163Y-47423584D01*
X201815822Y-47292392D01*
X201927392Y-47180822D01*
X202058584Y-47093163D01*
X202058586Y-47093162D01*
X202204358Y-47032781D01*
X202359107Y-47002000D01*
X202516893Y-47002000D01*
X202671642Y-47032781D01*
G37*
G36*
X216641642Y-47032781D02*
G01*
X216787414Y-47093162D01*
X216787416Y-47093163D01*
X216918608Y-47180822D01*
X217030178Y-47292392D01*
X217117837Y-47423584D01*
X217117838Y-47423586D01*
X217178219Y-47569358D01*
X217209000Y-47724107D01*
X217209000Y-47881893D01*
X217178219Y-48036642D01*
X217117838Y-48182414D01*
X217117837Y-48182416D01*
X217030178Y-48313608D01*
X216918608Y-48425178D01*
X216787416Y-48512837D01*
X216787415Y-48512838D01*
X216787414Y-48512838D01*
X216641642Y-48573219D01*
X216486893Y-48604000D01*
X216329107Y-48604000D01*
X216174358Y-48573219D01*
X216028586Y-48512838D01*
X216028585Y-48512838D01*
X216028584Y-48512837D01*
X215897392Y-48425178D01*
X215785822Y-48313608D01*
X215698163Y-48182416D01*
X215698162Y-48182414D01*
X215637781Y-48036642D01*
X215607000Y-47881893D01*
X215607000Y-47724107D01*
X215637781Y-47569358D01*
X215698162Y-47423586D01*
X215698163Y-47423584D01*
X215785822Y-47292392D01*
X215897392Y-47180822D01*
X216028584Y-47093163D01*
X216028586Y-47093162D01*
X216174358Y-47032781D01*
X216329107Y-47002000D01*
X216486893Y-47002000D01*
X216641642Y-47032781D01*
G37*
G36*
X188701642Y-47032781D02*
G01*
X188847414Y-47093162D01*
X188847416Y-47093163D01*
X188978608Y-47180822D01*
X189090178Y-47292392D01*
X189177837Y-47423584D01*
X189177838Y-47423586D01*
X189238219Y-47569358D01*
X189269000Y-47724107D01*
X189269000Y-47881893D01*
X189238219Y-48036642D01*
X189177838Y-48182414D01*
X189177837Y-48182416D01*
X189090178Y-48313608D01*
X188978608Y-48425178D01*
X188847416Y-48512837D01*
X188847415Y-48512838D01*
X188847414Y-48512838D01*
X188701642Y-48573219D01*
X188546893Y-48604000D01*
X188389107Y-48604000D01*
X188234358Y-48573219D01*
X188088586Y-48512838D01*
X188088585Y-48512838D01*
X188088584Y-48512837D01*
X187957392Y-48425178D01*
X187845822Y-48313608D01*
X187758163Y-48182416D01*
X187758162Y-48182414D01*
X187697781Y-48036642D01*
X187667000Y-47881893D01*
X187667000Y-47724107D01*
X187697781Y-47569358D01*
X187758162Y-47423586D01*
X187758163Y-47423584D01*
X187845822Y-47292392D01*
X187957392Y-47180822D01*
X188088584Y-47093163D01*
X188088586Y-47093162D01*
X188234358Y-47032781D01*
X188389107Y-47002000D01*
X188546893Y-47002000D01*
X188701642Y-47032781D01*
G37*
G36*
X244581642Y-47032781D02*
G01*
X244727414Y-47093162D01*
X244727416Y-47093163D01*
X244858608Y-47180822D01*
X244970178Y-47292392D01*
X245057837Y-47423584D01*
X245057838Y-47423586D01*
X245118219Y-47569358D01*
X245149000Y-47724107D01*
X245149000Y-47881893D01*
X245118219Y-48036642D01*
X245057838Y-48182414D01*
X245057837Y-48182416D01*
X244970178Y-48313608D01*
X244858608Y-48425178D01*
X244727416Y-48512837D01*
X244727415Y-48512838D01*
X244727414Y-48512838D01*
X244581642Y-48573219D01*
X244426893Y-48604000D01*
X244269107Y-48604000D01*
X244114358Y-48573219D01*
X243968586Y-48512838D01*
X243968585Y-48512838D01*
X243968584Y-48512837D01*
X243837392Y-48425178D01*
X243725822Y-48313608D01*
X243638163Y-48182416D01*
X243638162Y-48182414D01*
X243577781Y-48036642D01*
X243547000Y-47881893D01*
X243547000Y-47724107D01*
X243577781Y-47569358D01*
X243638162Y-47423586D01*
X243638163Y-47423584D01*
X243725822Y-47292392D01*
X243837392Y-47180822D01*
X243968584Y-47093163D01*
X243968586Y-47093162D01*
X244114358Y-47032781D01*
X244269107Y-47002000D01*
X244426893Y-47002000D01*
X244581642Y-47032781D01*
G37*
G36*
X258551642Y-47032781D02*
G01*
X258697414Y-47093162D01*
X258697416Y-47093163D01*
X258828608Y-47180822D01*
X258940178Y-47292392D01*
X259027837Y-47423584D01*
X259027838Y-47423586D01*
X259088219Y-47569358D01*
X259119000Y-47724107D01*
X259119000Y-47881893D01*
X259088219Y-48036642D01*
X259027838Y-48182414D01*
X259027837Y-48182416D01*
X258940178Y-48313608D01*
X258828608Y-48425178D01*
X258697416Y-48512837D01*
X258697415Y-48512838D01*
X258697414Y-48512838D01*
X258551642Y-48573219D01*
X258396893Y-48604000D01*
X258239107Y-48604000D01*
X258084358Y-48573219D01*
X257938586Y-48512838D01*
X257938585Y-48512838D01*
X257938584Y-48512837D01*
X257807392Y-48425178D01*
X257695822Y-48313608D01*
X257608163Y-48182416D01*
X257608162Y-48182414D01*
X257547781Y-48036642D01*
X257517000Y-47881893D01*
X257517000Y-47724107D01*
X257547781Y-47569358D01*
X257608162Y-47423586D01*
X257608163Y-47423584D01*
X257695822Y-47292392D01*
X257807392Y-47180822D01*
X257938584Y-47093163D01*
X257938586Y-47093162D01*
X258084358Y-47032781D01*
X258239107Y-47002000D01*
X258396893Y-47002000D01*
X258551642Y-47032781D01*
G37*
M02*
