M48
; DRILL file {KiCad (5.1.5)-3} date 21/12/2020 11:55:13
; FORMAT={-:-/ absolute / inch / decimal}
; #@! TF.CreationDate,2020-12-21T11:55:13+01:00
; #@! TF.GenerationSoftware,Kicad,Pcbnew,(5.1.5)-3
; #@! TF.FileFunction,Plated,1,2,PTH
FMAT,2
INCH
T1C0.0157
T2C0.0300
T3C0.0315
T4C0.0394
%
G90
G05
T1
X7.23Y-2.62
X7.3792Y-2.0939
X10.3632Y-2.0041
T2
X6.09Y-2.29
X6.09Y-2.39
X6.09Y-2.49
X6.09Y-2.59
X6.69Y-2.19
X6.69Y-2.29
X6.69Y-2.39
X6.69Y-2.49
X6.69Y-2.59
T3
X6.96Y-1.99
X6.96Y-2.59
X7.11Y-1.99
X7.11Y-2.59
T4
X8.1Y-2.78
X8.2Y-2.78
X8.3Y-2.78
X8.1Y-2.64
X8.2Y-2.64
X8.3Y-2.64
X8.1Y-2.5
X8.2Y-2.5
X8.3Y-2.5
X10.36Y-2.41
X10.36Y-2.51
X10.36Y-2.61
X10.36Y-2.71
X10.36Y-2.81
X6.96Y-2.72
X7.06Y-2.72
X7.16Y-2.72
X7.26Y-2.72
X7.46Y-2.58
X7.7592Y-2.58
T0
M30
