G04 #@! TF.GenerationSoftware,KiCad,Pcbnew,(5.1.5)-3*
G04 #@! TF.CreationDate,2020-12-21T11:55:10+01:00*
G04 #@! TF.ProjectId,epimetheus,6570696d-6574-4686-9575-732e6b696361,rev?*
G04 #@! TF.SameCoordinates,Original*
G04 #@! TF.FileFunction,Copper,L1,Top*
G04 #@! TF.FilePolarity,Positive*
%FSLAX46Y46*%
G04 Gerber Fmt 4.6, Leading zero omitted, Abs format (unit mm)*
G04 Created by KiCad (PCBNEW (5.1.5)-3) date 2020-12-21 11:55:10*
%MOMM*%
%LPD*%
G04 APERTURE LIST*
%ADD10C,1.524000*%
%ADD11O,1.700000X1.700000*%
%ADD12R,1.700000X1.700000*%
%ADD13C,0.100000*%
%ADD14O,1.600000X1.600000*%
%ADD15C,1.600000*%
%ADD16C,2.000000*%
%ADD17R,2.000000X2.000000*%
%ADD18C,0.800000*%
%ADD19C,0.250000*%
%ADD20C,0.254000*%
G04 APERTURE END LIST*
D10*
X154686000Y-58166000D03*
X154686000Y-60706000D03*
X154686000Y-63246000D03*
X154686000Y-65786000D03*
X169926000Y-65786000D03*
X169926000Y-63246000D03*
X169926000Y-60706000D03*
X169926000Y-58166000D03*
X169926000Y-55626000D03*
D11*
X263144000Y-61214000D03*
X263144000Y-63754000D03*
X263144000Y-66294000D03*
X263144000Y-68834000D03*
D12*
X263144000Y-71374000D03*
D11*
X184404000Y-69088000D03*
X181864000Y-69088000D03*
X179324000Y-69088000D03*
D12*
X176784000Y-69088000D03*
D11*
X210820000Y-67056000D03*
X208280000Y-67056000D03*
D12*
X205740000Y-67056000D03*
D11*
X210820000Y-70612000D03*
X208280000Y-70612000D03*
D12*
X205740000Y-70612000D03*
G04 #@! TA.AperFunction,SMDPad,CuDef*
D13*
G36*
X250249405Y-48804445D02*
G01*
X250278527Y-48808764D01*
X250307085Y-48815918D01*
X250334805Y-48825836D01*
X250361419Y-48838424D01*
X250386671Y-48853559D01*
X250410318Y-48871097D01*
X250432132Y-48890868D01*
X250451903Y-48912682D01*
X250469441Y-48936329D01*
X250484576Y-48961581D01*
X250497164Y-48988195D01*
X250507082Y-49015915D01*
X250514236Y-49044473D01*
X250518555Y-49073595D01*
X250520000Y-49103000D01*
X250520000Y-49703000D01*
X250518555Y-49732405D01*
X250514236Y-49761527D01*
X250507082Y-49790085D01*
X250497164Y-49817805D01*
X250484576Y-49844419D01*
X250469441Y-49869671D01*
X250451903Y-49893318D01*
X250432132Y-49915132D01*
X250410318Y-49934903D01*
X250386671Y-49952441D01*
X250361419Y-49967576D01*
X250334805Y-49980164D01*
X250307085Y-49990082D01*
X250278527Y-49997236D01*
X250249405Y-50001555D01*
X250220000Y-50003000D01*
X247620000Y-50003000D01*
X247590595Y-50001555D01*
X247561473Y-49997236D01*
X247532915Y-49990082D01*
X247505195Y-49980164D01*
X247478581Y-49967576D01*
X247453329Y-49952441D01*
X247429682Y-49934903D01*
X247407868Y-49915132D01*
X247388097Y-49893318D01*
X247370559Y-49869671D01*
X247355424Y-49844419D01*
X247342836Y-49817805D01*
X247332918Y-49790085D01*
X247325764Y-49761527D01*
X247321445Y-49732405D01*
X247320000Y-49703000D01*
X247320000Y-49103000D01*
X247321445Y-49073595D01*
X247325764Y-49044473D01*
X247332918Y-49015915D01*
X247342836Y-48988195D01*
X247355424Y-48961581D01*
X247370559Y-48936329D01*
X247388097Y-48912682D01*
X247407868Y-48890868D01*
X247429682Y-48871097D01*
X247453329Y-48853559D01*
X247478581Y-48838424D01*
X247505195Y-48825836D01*
X247532915Y-48815918D01*
X247561473Y-48808764D01*
X247590595Y-48804445D01*
X247620000Y-48803000D01*
X250220000Y-48803000D01*
X250249405Y-48804445D01*
G37*
G04 #@! TD.AperFunction*
G04 #@! TA.AperFunction,SMDPad,CuDef*
G36*
X250249405Y-51804445D02*
G01*
X250278527Y-51808764D01*
X250307085Y-51815918D01*
X250334805Y-51825836D01*
X250361419Y-51838424D01*
X250386671Y-51853559D01*
X250410318Y-51871097D01*
X250432132Y-51890868D01*
X250451903Y-51912682D01*
X250469441Y-51936329D01*
X250484576Y-51961581D01*
X250497164Y-51988195D01*
X250507082Y-52015915D01*
X250514236Y-52044473D01*
X250518555Y-52073595D01*
X250520000Y-52103000D01*
X250520000Y-52703000D01*
X250518555Y-52732405D01*
X250514236Y-52761527D01*
X250507082Y-52790085D01*
X250497164Y-52817805D01*
X250484576Y-52844419D01*
X250469441Y-52869671D01*
X250451903Y-52893318D01*
X250432132Y-52915132D01*
X250410318Y-52934903D01*
X250386671Y-52952441D01*
X250361419Y-52967576D01*
X250334805Y-52980164D01*
X250307085Y-52990082D01*
X250278527Y-52997236D01*
X250249405Y-53001555D01*
X250220000Y-53003000D01*
X247620000Y-53003000D01*
X247590595Y-53001555D01*
X247561473Y-52997236D01*
X247532915Y-52990082D01*
X247505195Y-52980164D01*
X247478581Y-52967576D01*
X247453329Y-52952441D01*
X247429682Y-52934903D01*
X247407868Y-52915132D01*
X247388097Y-52893318D01*
X247370559Y-52869671D01*
X247355424Y-52844419D01*
X247342836Y-52817805D01*
X247332918Y-52790085D01*
X247325764Y-52761527D01*
X247321445Y-52732405D01*
X247320000Y-52703000D01*
X247320000Y-52103000D01*
X247321445Y-52073595D01*
X247325764Y-52044473D01*
X247332918Y-52015915D01*
X247342836Y-51988195D01*
X247355424Y-51961581D01*
X247370559Y-51936329D01*
X247388097Y-51912682D01*
X247407868Y-51890868D01*
X247429682Y-51871097D01*
X247453329Y-51853559D01*
X247478581Y-51838424D01*
X247505195Y-51825836D01*
X247532915Y-51815918D01*
X247561473Y-51808764D01*
X247590595Y-51804445D01*
X247620000Y-51803000D01*
X250220000Y-51803000D01*
X250249405Y-51804445D01*
G37*
G04 #@! TD.AperFunction*
G04 #@! TA.AperFunction,SMDPad,CuDef*
G36*
X250249405Y-55789445D02*
G01*
X250278527Y-55793764D01*
X250307085Y-55800918D01*
X250334805Y-55810836D01*
X250361419Y-55823424D01*
X250386671Y-55838559D01*
X250410318Y-55856097D01*
X250432132Y-55875868D01*
X250451903Y-55897682D01*
X250469441Y-55921329D01*
X250484576Y-55946581D01*
X250497164Y-55973195D01*
X250507082Y-56000915D01*
X250514236Y-56029473D01*
X250518555Y-56058595D01*
X250520000Y-56088000D01*
X250520000Y-56688000D01*
X250518555Y-56717405D01*
X250514236Y-56746527D01*
X250507082Y-56775085D01*
X250497164Y-56802805D01*
X250484576Y-56829419D01*
X250469441Y-56854671D01*
X250451903Y-56878318D01*
X250432132Y-56900132D01*
X250410318Y-56919903D01*
X250386671Y-56937441D01*
X250361419Y-56952576D01*
X250334805Y-56965164D01*
X250307085Y-56975082D01*
X250278527Y-56982236D01*
X250249405Y-56986555D01*
X250220000Y-56988000D01*
X247620000Y-56988000D01*
X247590595Y-56986555D01*
X247561473Y-56982236D01*
X247532915Y-56975082D01*
X247505195Y-56965164D01*
X247478581Y-56952576D01*
X247453329Y-56937441D01*
X247429682Y-56919903D01*
X247407868Y-56900132D01*
X247388097Y-56878318D01*
X247370559Y-56854671D01*
X247355424Y-56829419D01*
X247342836Y-56802805D01*
X247332918Y-56775085D01*
X247325764Y-56746527D01*
X247321445Y-56717405D01*
X247320000Y-56688000D01*
X247320000Y-56088000D01*
X247321445Y-56058595D01*
X247325764Y-56029473D01*
X247332918Y-56000915D01*
X247342836Y-55973195D01*
X247355424Y-55946581D01*
X247370559Y-55921329D01*
X247388097Y-55897682D01*
X247407868Y-55875868D01*
X247429682Y-55856097D01*
X247453329Y-55838559D01*
X247478581Y-55823424D01*
X247505195Y-55810836D01*
X247532915Y-55800918D01*
X247561473Y-55793764D01*
X247590595Y-55789445D01*
X247620000Y-55788000D01*
X250220000Y-55788000D01*
X250249405Y-55789445D01*
G37*
G04 #@! TD.AperFunction*
G04 #@! TA.AperFunction,SMDPad,CuDef*
G36*
X241105405Y-56904445D02*
G01*
X241134527Y-56908764D01*
X241163085Y-56915918D01*
X241190805Y-56925836D01*
X241217419Y-56938424D01*
X241242671Y-56953559D01*
X241266318Y-56971097D01*
X241288132Y-56990868D01*
X241307903Y-57012682D01*
X241325441Y-57036329D01*
X241340576Y-57061581D01*
X241353164Y-57088195D01*
X241363082Y-57115915D01*
X241370236Y-57144473D01*
X241374555Y-57173595D01*
X241376000Y-57203000D01*
X241376000Y-57803000D01*
X241374555Y-57832405D01*
X241370236Y-57861527D01*
X241363082Y-57890085D01*
X241353164Y-57917805D01*
X241340576Y-57944419D01*
X241325441Y-57969671D01*
X241307903Y-57993318D01*
X241288132Y-58015132D01*
X241266318Y-58034903D01*
X241242671Y-58052441D01*
X241217419Y-58067576D01*
X241190805Y-58080164D01*
X241163085Y-58090082D01*
X241134527Y-58097236D01*
X241105405Y-58101555D01*
X241076000Y-58103000D01*
X238476000Y-58103000D01*
X238446595Y-58101555D01*
X238417473Y-58097236D01*
X238388915Y-58090082D01*
X238361195Y-58080164D01*
X238334581Y-58067576D01*
X238309329Y-58052441D01*
X238285682Y-58034903D01*
X238263868Y-58015132D01*
X238244097Y-57993318D01*
X238226559Y-57969671D01*
X238211424Y-57944419D01*
X238198836Y-57917805D01*
X238188918Y-57890085D01*
X238181764Y-57861527D01*
X238177445Y-57832405D01*
X238176000Y-57803000D01*
X238176000Y-57203000D01*
X238177445Y-57173595D01*
X238181764Y-57144473D01*
X238188918Y-57115915D01*
X238198836Y-57088195D01*
X238211424Y-57061581D01*
X238226559Y-57036329D01*
X238244097Y-57012682D01*
X238263868Y-56990868D01*
X238285682Y-56971097D01*
X238309329Y-56953559D01*
X238334581Y-56938424D01*
X238361195Y-56925836D01*
X238388915Y-56915918D01*
X238417473Y-56908764D01*
X238446595Y-56904445D01*
X238476000Y-56903000D01*
X241076000Y-56903000D01*
X241105405Y-56904445D01*
G37*
G04 #@! TD.AperFunction*
G04 #@! TA.AperFunction,SMDPad,CuDef*
G36*
X264219405Y-48804445D02*
G01*
X264248527Y-48808764D01*
X264277085Y-48815918D01*
X264304805Y-48825836D01*
X264331419Y-48838424D01*
X264356671Y-48853559D01*
X264380318Y-48871097D01*
X264402132Y-48890868D01*
X264421903Y-48912682D01*
X264439441Y-48936329D01*
X264454576Y-48961581D01*
X264467164Y-48988195D01*
X264477082Y-49015915D01*
X264484236Y-49044473D01*
X264488555Y-49073595D01*
X264490000Y-49103000D01*
X264490000Y-49703000D01*
X264488555Y-49732405D01*
X264484236Y-49761527D01*
X264477082Y-49790085D01*
X264467164Y-49817805D01*
X264454576Y-49844419D01*
X264439441Y-49869671D01*
X264421903Y-49893318D01*
X264402132Y-49915132D01*
X264380318Y-49934903D01*
X264356671Y-49952441D01*
X264331419Y-49967576D01*
X264304805Y-49980164D01*
X264277085Y-49990082D01*
X264248527Y-49997236D01*
X264219405Y-50001555D01*
X264190000Y-50003000D01*
X261590000Y-50003000D01*
X261560595Y-50001555D01*
X261531473Y-49997236D01*
X261502915Y-49990082D01*
X261475195Y-49980164D01*
X261448581Y-49967576D01*
X261423329Y-49952441D01*
X261399682Y-49934903D01*
X261377868Y-49915132D01*
X261358097Y-49893318D01*
X261340559Y-49869671D01*
X261325424Y-49844419D01*
X261312836Y-49817805D01*
X261302918Y-49790085D01*
X261295764Y-49761527D01*
X261291445Y-49732405D01*
X261290000Y-49703000D01*
X261290000Y-49103000D01*
X261291445Y-49073595D01*
X261295764Y-49044473D01*
X261302918Y-49015915D01*
X261312836Y-48988195D01*
X261325424Y-48961581D01*
X261340559Y-48936329D01*
X261358097Y-48912682D01*
X261377868Y-48890868D01*
X261399682Y-48871097D01*
X261423329Y-48853559D01*
X261448581Y-48838424D01*
X261475195Y-48825836D01*
X261502915Y-48815918D01*
X261531473Y-48808764D01*
X261560595Y-48804445D01*
X261590000Y-48803000D01*
X264190000Y-48803000D01*
X264219405Y-48804445D01*
G37*
G04 #@! TD.AperFunction*
G04 #@! TA.AperFunction,SMDPad,CuDef*
G36*
X264219405Y-51804445D02*
G01*
X264248527Y-51808764D01*
X264277085Y-51815918D01*
X264304805Y-51825836D01*
X264331419Y-51838424D01*
X264356671Y-51853559D01*
X264380318Y-51871097D01*
X264402132Y-51890868D01*
X264421903Y-51912682D01*
X264439441Y-51936329D01*
X264454576Y-51961581D01*
X264467164Y-51988195D01*
X264477082Y-52015915D01*
X264484236Y-52044473D01*
X264488555Y-52073595D01*
X264490000Y-52103000D01*
X264490000Y-52703000D01*
X264488555Y-52732405D01*
X264484236Y-52761527D01*
X264477082Y-52790085D01*
X264467164Y-52817805D01*
X264454576Y-52844419D01*
X264439441Y-52869671D01*
X264421903Y-52893318D01*
X264402132Y-52915132D01*
X264380318Y-52934903D01*
X264356671Y-52952441D01*
X264331419Y-52967576D01*
X264304805Y-52980164D01*
X264277085Y-52990082D01*
X264248527Y-52997236D01*
X264219405Y-53001555D01*
X264190000Y-53003000D01*
X261590000Y-53003000D01*
X261560595Y-53001555D01*
X261531473Y-52997236D01*
X261502915Y-52990082D01*
X261475195Y-52980164D01*
X261448581Y-52967576D01*
X261423329Y-52952441D01*
X261399682Y-52934903D01*
X261377868Y-52915132D01*
X261358097Y-52893318D01*
X261340559Y-52869671D01*
X261325424Y-52844419D01*
X261312836Y-52817805D01*
X261302918Y-52790085D01*
X261295764Y-52761527D01*
X261291445Y-52732405D01*
X261290000Y-52703000D01*
X261290000Y-52103000D01*
X261291445Y-52073595D01*
X261295764Y-52044473D01*
X261302918Y-52015915D01*
X261312836Y-51988195D01*
X261325424Y-51961581D01*
X261340559Y-51936329D01*
X261358097Y-51912682D01*
X261377868Y-51890868D01*
X261399682Y-51871097D01*
X261423329Y-51853559D01*
X261448581Y-51838424D01*
X261475195Y-51825836D01*
X261502915Y-51815918D01*
X261531473Y-51808764D01*
X261560595Y-51804445D01*
X261590000Y-51803000D01*
X264190000Y-51803000D01*
X264219405Y-51804445D01*
G37*
G04 #@! TD.AperFunction*
G04 #@! TA.AperFunction,SMDPad,CuDef*
G36*
X264219405Y-55789445D02*
G01*
X264248527Y-55793764D01*
X264277085Y-55800918D01*
X264304805Y-55810836D01*
X264331419Y-55823424D01*
X264356671Y-55838559D01*
X264380318Y-55856097D01*
X264402132Y-55875868D01*
X264421903Y-55897682D01*
X264439441Y-55921329D01*
X264454576Y-55946581D01*
X264467164Y-55973195D01*
X264477082Y-56000915D01*
X264484236Y-56029473D01*
X264488555Y-56058595D01*
X264490000Y-56088000D01*
X264490000Y-56688000D01*
X264488555Y-56717405D01*
X264484236Y-56746527D01*
X264477082Y-56775085D01*
X264467164Y-56802805D01*
X264454576Y-56829419D01*
X264439441Y-56854671D01*
X264421903Y-56878318D01*
X264402132Y-56900132D01*
X264380318Y-56919903D01*
X264356671Y-56937441D01*
X264331419Y-56952576D01*
X264304805Y-56965164D01*
X264277085Y-56975082D01*
X264248527Y-56982236D01*
X264219405Y-56986555D01*
X264190000Y-56988000D01*
X261590000Y-56988000D01*
X261560595Y-56986555D01*
X261531473Y-56982236D01*
X261502915Y-56975082D01*
X261475195Y-56965164D01*
X261448581Y-56952576D01*
X261423329Y-56937441D01*
X261399682Y-56919903D01*
X261377868Y-56900132D01*
X261358097Y-56878318D01*
X261340559Y-56854671D01*
X261325424Y-56829419D01*
X261312836Y-56802805D01*
X261302918Y-56775085D01*
X261295764Y-56746527D01*
X261291445Y-56717405D01*
X261290000Y-56688000D01*
X261290000Y-56088000D01*
X261291445Y-56058595D01*
X261295764Y-56029473D01*
X261302918Y-56000915D01*
X261312836Y-55973195D01*
X261325424Y-55946581D01*
X261340559Y-55921329D01*
X261358097Y-55897682D01*
X261377868Y-55875868D01*
X261399682Y-55856097D01*
X261423329Y-55838559D01*
X261448581Y-55823424D01*
X261475195Y-55810836D01*
X261502915Y-55800918D01*
X261531473Y-55793764D01*
X261560595Y-55789445D01*
X261590000Y-55788000D01*
X264190000Y-55788000D01*
X264219405Y-55789445D01*
G37*
G04 #@! TD.AperFunction*
G04 #@! TA.AperFunction,SMDPad,CuDef*
G36*
X255075405Y-56904445D02*
G01*
X255104527Y-56908764D01*
X255133085Y-56915918D01*
X255160805Y-56925836D01*
X255187419Y-56938424D01*
X255212671Y-56953559D01*
X255236318Y-56971097D01*
X255258132Y-56990868D01*
X255277903Y-57012682D01*
X255295441Y-57036329D01*
X255310576Y-57061581D01*
X255323164Y-57088195D01*
X255333082Y-57115915D01*
X255340236Y-57144473D01*
X255344555Y-57173595D01*
X255346000Y-57203000D01*
X255346000Y-57803000D01*
X255344555Y-57832405D01*
X255340236Y-57861527D01*
X255333082Y-57890085D01*
X255323164Y-57917805D01*
X255310576Y-57944419D01*
X255295441Y-57969671D01*
X255277903Y-57993318D01*
X255258132Y-58015132D01*
X255236318Y-58034903D01*
X255212671Y-58052441D01*
X255187419Y-58067576D01*
X255160805Y-58080164D01*
X255133085Y-58090082D01*
X255104527Y-58097236D01*
X255075405Y-58101555D01*
X255046000Y-58103000D01*
X252446000Y-58103000D01*
X252416595Y-58101555D01*
X252387473Y-58097236D01*
X252358915Y-58090082D01*
X252331195Y-58080164D01*
X252304581Y-58067576D01*
X252279329Y-58052441D01*
X252255682Y-58034903D01*
X252233868Y-58015132D01*
X252214097Y-57993318D01*
X252196559Y-57969671D01*
X252181424Y-57944419D01*
X252168836Y-57917805D01*
X252158918Y-57890085D01*
X252151764Y-57861527D01*
X252147445Y-57832405D01*
X252146000Y-57803000D01*
X252146000Y-57203000D01*
X252147445Y-57173595D01*
X252151764Y-57144473D01*
X252158918Y-57115915D01*
X252168836Y-57088195D01*
X252181424Y-57061581D01*
X252196559Y-57036329D01*
X252214097Y-57012682D01*
X252233868Y-56990868D01*
X252255682Y-56971097D01*
X252279329Y-56953559D01*
X252304581Y-56938424D01*
X252331195Y-56925836D01*
X252358915Y-56915918D01*
X252387473Y-56908764D01*
X252416595Y-56904445D01*
X252446000Y-56903000D01*
X255046000Y-56903000D01*
X255075405Y-56904445D01*
G37*
G04 #@! TD.AperFunction*
G04 #@! TA.AperFunction,SMDPad,CuDef*
G36*
X208339405Y-48804445D02*
G01*
X208368527Y-48808764D01*
X208397085Y-48815918D01*
X208424805Y-48825836D01*
X208451419Y-48838424D01*
X208476671Y-48853559D01*
X208500318Y-48871097D01*
X208522132Y-48890868D01*
X208541903Y-48912682D01*
X208559441Y-48936329D01*
X208574576Y-48961581D01*
X208587164Y-48988195D01*
X208597082Y-49015915D01*
X208604236Y-49044473D01*
X208608555Y-49073595D01*
X208610000Y-49103000D01*
X208610000Y-49703000D01*
X208608555Y-49732405D01*
X208604236Y-49761527D01*
X208597082Y-49790085D01*
X208587164Y-49817805D01*
X208574576Y-49844419D01*
X208559441Y-49869671D01*
X208541903Y-49893318D01*
X208522132Y-49915132D01*
X208500318Y-49934903D01*
X208476671Y-49952441D01*
X208451419Y-49967576D01*
X208424805Y-49980164D01*
X208397085Y-49990082D01*
X208368527Y-49997236D01*
X208339405Y-50001555D01*
X208310000Y-50003000D01*
X205710000Y-50003000D01*
X205680595Y-50001555D01*
X205651473Y-49997236D01*
X205622915Y-49990082D01*
X205595195Y-49980164D01*
X205568581Y-49967576D01*
X205543329Y-49952441D01*
X205519682Y-49934903D01*
X205497868Y-49915132D01*
X205478097Y-49893318D01*
X205460559Y-49869671D01*
X205445424Y-49844419D01*
X205432836Y-49817805D01*
X205422918Y-49790085D01*
X205415764Y-49761527D01*
X205411445Y-49732405D01*
X205410000Y-49703000D01*
X205410000Y-49103000D01*
X205411445Y-49073595D01*
X205415764Y-49044473D01*
X205422918Y-49015915D01*
X205432836Y-48988195D01*
X205445424Y-48961581D01*
X205460559Y-48936329D01*
X205478097Y-48912682D01*
X205497868Y-48890868D01*
X205519682Y-48871097D01*
X205543329Y-48853559D01*
X205568581Y-48838424D01*
X205595195Y-48825836D01*
X205622915Y-48815918D01*
X205651473Y-48808764D01*
X205680595Y-48804445D01*
X205710000Y-48803000D01*
X208310000Y-48803000D01*
X208339405Y-48804445D01*
G37*
G04 #@! TD.AperFunction*
G04 #@! TA.AperFunction,SMDPad,CuDef*
G36*
X208339405Y-51804445D02*
G01*
X208368527Y-51808764D01*
X208397085Y-51815918D01*
X208424805Y-51825836D01*
X208451419Y-51838424D01*
X208476671Y-51853559D01*
X208500318Y-51871097D01*
X208522132Y-51890868D01*
X208541903Y-51912682D01*
X208559441Y-51936329D01*
X208574576Y-51961581D01*
X208587164Y-51988195D01*
X208597082Y-52015915D01*
X208604236Y-52044473D01*
X208608555Y-52073595D01*
X208610000Y-52103000D01*
X208610000Y-52703000D01*
X208608555Y-52732405D01*
X208604236Y-52761527D01*
X208597082Y-52790085D01*
X208587164Y-52817805D01*
X208574576Y-52844419D01*
X208559441Y-52869671D01*
X208541903Y-52893318D01*
X208522132Y-52915132D01*
X208500318Y-52934903D01*
X208476671Y-52952441D01*
X208451419Y-52967576D01*
X208424805Y-52980164D01*
X208397085Y-52990082D01*
X208368527Y-52997236D01*
X208339405Y-53001555D01*
X208310000Y-53003000D01*
X205710000Y-53003000D01*
X205680595Y-53001555D01*
X205651473Y-52997236D01*
X205622915Y-52990082D01*
X205595195Y-52980164D01*
X205568581Y-52967576D01*
X205543329Y-52952441D01*
X205519682Y-52934903D01*
X205497868Y-52915132D01*
X205478097Y-52893318D01*
X205460559Y-52869671D01*
X205445424Y-52844419D01*
X205432836Y-52817805D01*
X205422918Y-52790085D01*
X205415764Y-52761527D01*
X205411445Y-52732405D01*
X205410000Y-52703000D01*
X205410000Y-52103000D01*
X205411445Y-52073595D01*
X205415764Y-52044473D01*
X205422918Y-52015915D01*
X205432836Y-51988195D01*
X205445424Y-51961581D01*
X205460559Y-51936329D01*
X205478097Y-51912682D01*
X205497868Y-51890868D01*
X205519682Y-51871097D01*
X205543329Y-51853559D01*
X205568581Y-51838424D01*
X205595195Y-51825836D01*
X205622915Y-51815918D01*
X205651473Y-51808764D01*
X205680595Y-51804445D01*
X205710000Y-51803000D01*
X208310000Y-51803000D01*
X208339405Y-51804445D01*
G37*
G04 #@! TD.AperFunction*
G04 #@! TA.AperFunction,SMDPad,CuDef*
G36*
X208339405Y-55789445D02*
G01*
X208368527Y-55793764D01*
X208397085Y-55800918D01*
X208424805Y-55810836D01*
X208451419Y-55823424D01*
X208476671Y-55838559D01*
X208500318Y-55856097D01*
X208522132Y-55875868D01*
X208541903Y-55897682D01*
X208559441Y-55921329D01*
X208574576Y-55946581D01*
X208587164Y-55973195D01*
X208597082Y-56000915D01*
X208604236Y-56029473D01*
X208608555Y-56058595D01*
X208610000Y-56088000D01*
X208610000Y-56688000D01*
X208608555Y-56717405D01*
X208604236Y-56746527D01*
X208597082Y-56775085D01*
X208587164Y-56802805D01*
X208574576Y-56829419D01*
X208559441Y-56854671D01*
X208541903Y-56878318D01*
X208522132Y-56900132D01*
X208500318Y-56919903D01*
X208476671Y-56937441D01*
X208451419Y-56952576D01*
X208424805Y-56965164D01*
X208397085Y-56975082D01*
X208368527Y-56982236D01*
X208339405Y-56986555D01*
X208310000Y-56988000D01*
X205710000Y-56988000D01*
X205680595Y-56986555D01*
X205651473Y-56982236D01*
X205622915Y-56975082D01*
X205595195Y-56965164D01*
X205568581Y-56952576D01*
X205543329Y-56937441D01*
X205519682Y-56919903D01*
X205497868Y-56900132D01*
X205478097Y-56878318D01*
X205460559Y-56854671D01*
X205445424Y-56829419D01*
X205432836Y-56802805D01*
X205422918Y-56775085D01*
X205415764Y-56746527D01*
X205411445Y-56717405D01*
X205410000Y-56688000D01*
X205410000Y-56088000D01*
X205411445Y-56058595D01*
X205415764Y-56029473D01*
X205422918Y-56000915D01*
X205432836Y-55973195D01*
X205445424Y-55946581D01*
X205460559Y-55921329D01*
X205478097Y-55897682D01*
X205497868Y-55875868D01*
X205519682Y-55856097D01*
X205543329Y-55838559D01*
X205568581Y-55823424D01*
X205595195Y-55810836D01*
X205622915Y-55800918D01*
X205651473Y-55793764D01*
X205680595Y-55789445D01*
X205710000Y-55788000D01*
X208310000Y-55788000D01*
X208339405Y-55789445D01*
G37*
G04 #@! TD.AperFunction*
G04 #@! TA.AperFunction,SMDPad,CuDef*
G36*
X199195405Y-56904445D02*
G01*
X199224527Y-56908764D01*
X199253085Y-56915918D01*
X199280805Y-56925836D01*
X199307419Y-56938424D01*
X199332671Y-56953559D01*
X199356318Y-56971097D01*
X199378132Y-56990868D01*
X199397903Y-57012682D01*
X199415441Y-57036329D01*
X199430576Y-57061581D01*
X199443164Y-57088195D01*
X199453082Y-57115915D01*
X199460236Y-57144473D01*
X199464555Y-57173595D01*
X199466000Y-57203000D01*
X199466000Y-57803000D01*
X199464555Y-57832405D01*
X199460236Y-57861527D01*
X199453082Y-57890085D01*
X199443164Y-57917805D01*
X199430576Y-57944419D01*
X199415441Y-57969671D01*
X199397903Y-57993318D01*
X199378132Y-58015132D01*
X199356318Y-58034903D01*
X199332671Y-58052441D01*
X199307419Y-58067576D01*
X199280805Y-58080164D01*
X199253085Y-58090082D01*
X199224527Y-58097236D01*
X199195405Y-58101555D01*
X199166000Y-58103000D01*
X196566000Y-58103000D01*
X196536595Y-58101555D01*
X196507473Y-58097236D01*
X196478915Y-58090082D01*
X196451195Y-58080164D01*
X196424581Y-58067576D01*
X196399329Y-58052441D01*
X196375682Y-58034903D01*
X196353868Y-58015132D01*
X196334097Y-57993318D01*
X196316559Y-57969671D01*
X196301424Y-57944419D01*
X196288836Y-57917805D01*
X196278918Y-57890085D01*
X196271764Y-57861527D01*
X196267445Y-57832405D01*
X196266000Y-57803000D01*
X196266000Y-57203000D01*
X196267445Y-57173595D01*
X196271764Y-57144473D01*
X196278918Y-57115915D01*
X196288836Y-57088195D01*
X196301424Y-57061581D01*
X196316559Y-57036329D01*
X196334097Y-57012682D01*
X196353868Y-56990868D01*
X196375682Y-56971097D01*
X196399329Y-56953559D01*
X196424581Y-56938424D01*
X196451195Y-56925836D01*
X196478915Y-56915918D01*
X196507473Y-56908764D01*
X196536595Y-56904445D01*
X196566000Y-56903000D01*
X199166000Y-56903000D01*
X199195405Y-56904445D01*
G37*
G04 #@! TD.AperFunction*
G04 #@! TA.AperFunction,SMDPad,CuDef*
G36*
X194369405Y-48804445D02*
G01*
X194398527Y-48808764D01*
X194427085Y-48815918D01*
X194454805Y-48825836D01*
X194481419Y-48838424D01*
X194506671Y-48853559D01*
X194530318Y-48871097D01*
X194552132Y-48890868D01*
X194571903Y-48912682D01*
X194589441Y-48936329D01*
X194604576Y-48961581D01*
X194617164Y-48988195D01*
X194627082Y-49015915D01*
X194634236Y-49044473D01*
X194638555Y-49073595D01*
X194640000Y-49103000D01*
X194640000Y-49703000D01*
X194638555Y-49732405D01*
X194634236Y-49761527D01*
X194627082Y-49790085D01*
X194617164Y-49817805D01*
X194604576Y-49844419D01*
X194589441Y-49869671D01*
X194571903Y-49893318D01*
X194552132Y-49915132D01*
X194530318Y-49934903D01*
X194506671Y-49952441D01*
X194481419Y-49967576D01*
X194454805Y-49980164D01*
X194427085Y-49990082D01*
X194398527Y-49997236D01*
X194369405Y-50001555D01*
X194340000Y-50003000D01*
X191740000Y-50003000D01*
X191710595Y-50001555D01*
X191681473Y-49997236D01*
X191652915Y-49990082D01*
X191625195Y-49980164D01*
X191598581Y-49967576D01*
X191573329Y-49952441D01*
X191549682Y-49934903D01*
X191527868Y-49915132D01*
X191508097Y-49893318D01*
X191490559Y-49869671D01*
X191475424Y-49844419D01*
X191462836Y-49817805D01*
X191452918Y-49790085D01*
X191445764Y-49761527D01*
X191441445Y-49732405D01*
X191440000Y-49703000D01*
X191440000Y-49103000D01*
X191441445Y-49073595D01*
X191445764Y-49044473D01*
X191452918Y-49015915D01*
X191462836Y-48988195D01*
X191475424Y-48961581D01*
X191490559Y-48936329D01*
X191508097Y-48912682D01*
X191527868Y-48890868D01*
X191549682Y-48871097D01*
X191573329Y-48853559D01*
X191598581Y-48838424D01*
X191625195Y-48825836D01*
X191652915Y-48815918D01*
X191681473Y-48808764D01*
X191710595Y-48804445D01*
X191740000Y-48803000D01*
X194340000Y-48803000D01*
X194369405Y-48804445D01*
G37*
G04 #@! TD.AperFunction*
G04 #@! TA.AperFunction,SMDPad,CuDef*
G36*
X194369405Y-51804445D02*
G01*
X194398527Y-51808764D01*
X194427085Y-51815918D01*
X194454805Y-51825836D01*
X194481419Y-51838424D01*
X194506671Y-51853559D01*
X194530318Y-51871097D01*
X194552132Y-51890868D01*
X194571903Y-51912682D01*
X194589441Y-51936329D01*
X194604576Y-51961581D01*
X194617164Y-51988195D01*
X194627082Y-52015915D01*
X194634236Y-52044473D01*
X194638555Y-52073595D01*
X194640000Y-52103000D01*
X194640000Y-52703000D01*
X194638555Y-52732405D01*
X194634236Y-52761527D01*
X194627082Y-52790085D01*
X194617164Y-52817805D01*
X194604576Y-52844419D01*
X194589441Y-52869671D01*
X194571903Y-52893318D01*
X194552132Y-52915132D01*
X194530318Y-52934903D01*
X194506671Y-52952441D01*
X194481419Y-52967576D01*
X194454805Y-52980164D01*
X194427085Y-52990082D01*
X194398527Y-52997236D01*
X194369405Y-53001555D01*
X194340000Y-53003000D01*
X191740000Y-53003000D01*
X191710595Y-53001555D01*
X191681473Y-52997236D01*
X191652915Y-52990082D01*
X191625195Y-52980164D01*
X191598581Y-52967576D01*
X191573329Y-52952441D01*
X191549682Y-52934903D01*
X191527868Y-52915132D01*
X191508097Y-52893318D01*
X191490559Y-52869671D01*
X191475424Y-52844419D01*
X191462836Y-52817805D01*
X191452918Y-52790085D01*
X191445764Y-52761527D01*
X191441445Y-52732405D01*
X191440000Y-52703000D01*
X191440000Y-52103000D01*
X191441445Y-52073595D01*
X191445764Y-52044473D01*
X191452918Y-52015915D01*
X191462836Y-51988195D01*
X191475424Y-51961581D01*
X191490559Y-51936329D01*
X191508097Y-51912682D01*
X191527868Y-51890868D01*
X191549682Y-51871097D01*
X191573329Y-51853559D01*
X191598581Y-51838424D01*
X191625195Y-51825836D01*
X191652915Y-51815918D01*
X191681473Y-51808764D01*
X191710595Y-51804445D01*
X191740000Y-51803000D01*
X194340000Y-51803000D01*
X194369405Y-51804445D01*
G37*
G04 #@! TD.AperFunction*
G04 #@! TA.AperFunction,SMDPad,CuDef*
G36*
X194369405Y-55789445D02*
G01*
X194398527Y-55793764D01*
X194427085Y-55800918D01*
X194454805Y-55810836D01*
X194481419Y-55823424D01*
X194506671Y-55838559D01*
X194530318Y-55856097D01*
X194552132Y-55875868D01*
X194571903Y-55897682D01*
X194589441Y-55921329D01*
X194604576Y-55946581D01*
X194617164Y-55973195D01*
X194627082Y-56000915D01*
X194634236Y-56029473D01*
X194638555Y-56058595D01*
X194640000Y-56088000D01*
X194640000Y-56688000D01*
X194638555Y-56717405D01*
X194634236Y-56746527D01*
X194627082Y-56775085D01*
X194617164Y-56802805D01*
X194604576Y-56829419D01*
X194589441Y-56854671D01*
X194571903Y-56878318D01*
X194552132Y-56900132D01*
X194530318Y-56919903D01*
X194506671Y-56937441D01*
X194481419Y-56952576D01*
X194454805Y-56965164D01*
X194427085Y-56975082D01*
X194398527Y-56982236D01*
X194369405Y-56986555D01*
X194340000Y-56988000D01*
X191740000Y-56988000D01*
X191710595Y-56986555D01*
X191681473Y-56982236D01*
X191652915Y-56975082D01*
X191625195Y-56965164D01*
X191598581Y-56952576D01*
X191573329Y-56937441D01*
X191549682Y-56919903D01*
X191527868Y-56900132D01*
X191508097Y-56878318D01*
X191490559Y-56854671D01*
X191475424Y-56829419D01*
X191462836Y-56802805D01*
X191452918Y-56775085D01*
X191445764Y-56746527D01*
X191441445Y-56717405D01*
X191440000Y-56688000D01*
X191440000Y-56088000D01*
X191441445Y-56058595D01*
X191445764Y-56029473D01*
X191452918Y-56000915D01*
X191462836Y-55973195D01*
X191475424Y-55946581D01*
X191490559Y-55921329D01*
X191508097Y-55897682D01*
X191527868Y-55875868D01*
X191549682Y-55856097D01*
X191573329Y-55838559D01*
X191598581Y-55823424D01*
X191625195Y-55810836D01*
X191652915Y-55800918D01*
X191681473Y-55793764D01*
X191710595Y-55789445D01*
X191740000Y-55788000D01*
X194340000Y-55788000D01*
X194369405Y-55789445D01*
G37*
G04 #@! TD.AperFunction*
G04 #@! TA.AperFunction,SMDPad,CuDef*
G36*
X185225405Y-56904445D02*
G01*
X185254527Y-56908764D01*
X185283085Y-56915918D01*
X185310805Y-56925836D01*
X185337419Y-56938424D01*
X185362671Y-56953559D01*
X185386318Y-56971097D01*
X185408132Y-56990868D01*
X185427903Y-57012682D01*
X185445441Y-57036329D01*
X185460576Y-57061581D01*
X185473164Y-57088195D01*
X185483082Y-57115915D01*
X185490236Y-57144473D01*
X185494555Y-57173595D01*
X185496000Y-57203000D01*
X185496000Y-57803000D01*
X185494555Y-57832405D01*
X185490236Y-57861527D01*
X185483082Y-57890085D01*
X185473164Y-57917805D01*
X185460576Y-57944419D01*
X185445441Y-57969671D01*
X185427903Y-57993318D01*
X185408132Y-58015132D01*
X185386318Y-58034903D01*
X185362671Y-58052441D01*
X185337419Y-58067576D01*
X185310805Y-58080164D01*
X185283085Y-58090082D01*
X185254527Y-58097236D01*
X185225405Y-58101555D01*
X185196000Y-58103000D01*
X182596000Y-58103000D01*
X182566595Y-58101555D01*
X182537473Y-58097236D01*
X182508915Y-58090082D01*
X182481195Y-58080164D01*
X182454581Y-58067576D01*
X182429329Y-58052441D01*
X182405682Y-58034903D01*
X182383868Y-58015132D01*
X182364097Y-57993318D01*
X182346559Y-57969671D01*
X182331424Y-57944419D01*
X182318836Y-57917805D01*
X182308918Y-57890085D01*
X182301764Y-57861527D01*
X182297445Y-57832405D01*
X182296000Y-57803000D01*
X182296000Y-57203000D01*
X182297445Y-57173595D01*
X182301764Y-57144473D01*
X182308918Y-57115915D01*
X182318836Y-57088195D01*
X182331424Y-57061581D01*
X182346559Y-57036329D01*
X182364097Y-57012682D01*
X182383868Y-56990868D01*
X182405682Y-56971097D01*
X182429329Y-56953559D01*
X182454581Y-56938424D01*
X182481195Y-56925836D01*
X182508915Y-56915918D01*
X182537473Y-56908764D01*
X182566595Y-56904445D01*
X182596000Y-56903000D01*
X185196000Y-56903000D01*
X185225405Y-56904445D01*
G37*
G04 #@! TD.AperFunction*
G04 #@! TA.AperFunction,SMDPad,CuDef*
G36*
X236279405Y-48804445D02*
G01*
X236308527Y-48808764D01*
X236337085Y-48815918D01*
X236364805Y-48825836D01*
X236391419Y-48838424D01*
X236416671Y-48853559D01*
X236440318Y-48871097D01*
X236462132Y-48890868D01*
X236481903Y-48912682D01*
X236499441Y-48936329D01*
X236514576Y-48961581D01*
X236527164Y-48988195D01*
X236537082Y-49015915D01*
X236544236Y-49044473D01*
X236548555Y-49073595D01*
X236550000Y-49103000D01*
X236550000Y-49703000D01*
X236548555Y-49732405D01*
X236544236Y-49761527D01*
X236537082Y-49790085D01*
X236527164Y-49817805D01*
X236514576Y-49844419D01*
X236499441Y-49869671D01*
X236481903Y-49893318D01*
X236462132Y-49915132D01*
X236440318Y-49934903D01*
X236416671Y-49952441D01*
X236391419Y-49967576D01*
X236364805Y-49980164D01*
X236337085Y-49990082D01*
X236308527Y-49997236D01*
X236279405Y-50001555D01*
X236250000Y-50003000D01*
X233650000Y-50003000D01*
X233620595Y-50001555D01*
X233591473Y-49997236D01*
X233562915Y-49990082D01*
X233535195Y-49980164D01*
X233508581Y-49967576D01*
X233483329Y-49952441D01*
X233459682Y-49934903D01*
X233437868Y-49915132D01*
X233418097Y-49893318D01*
X233400559Y-49869671D01*
X233385424Y-49844419D01*
X233372836Y-49817805D01*
X233362918Y-49790085D01*
X233355764Y-49761527D01*
X233351445Y-49732405D01*
X233350000Y-49703000D01*
X233350000Y-49103000D01*
X233351445Y-49073595D01*
X233355764Y-49044473D01*
X233362918Y-49015915D01*
X233372836Y-48988195D01*
X233385424Y-48961581D01*
X233400559Y-48936329D01*
X233418097Y-48912682D01*
X233437868Y-48890868D01*
X233459682Y-48871097D01*
X233483329Y-48853559D01*
X233508581Y-48838424D01*
X233535195Y-48825836D01*
X233562915Y-48815918D01*
X233591473Y-48808764D01*
X233620595Y-48804445D01*
X233650000Y-48803000D01*
X236250000Y-48803000D01*
X236279405Y-48804445D01*
G37*
G04 #@! TD.AperFunction*
G04 #@! TA.AperFunction,SMDPad,CuDef*
G36*
X236279405Y-51804445D02*
G01*
X236308527Y-51808764D01*
X236337085Y-51815918D01*
X236364805Y-51825836D01*
X236391419Y-51838424D01*
X236416671Y-51853559D01*
X236440318Y-51871097D01*
X236462132Y-51890868D01*
X236481903Y-51912682D01*
X236499441Y-51936329D01*
X236514576Y-51961581D01*
X236527164Y-51988195D01*
X236537082Y-52015915D01*
X236544236Y-52044473D01*
X236548555Y-52073595D01*
X236550000Y-52103000D01*
X236550000Y-52703000D01*
X236548555Y-52732405D01*
X236544236Y-52761527D01*
X236537082Y-52790085D01*
X236527164Y-52817805D01*
X236514576Y-52844419D01*
X236499441Y-52869671D01*
X236481903Y-52893318D01*
X236462132Y-52915132D01*
X236440318Y-52934903D01*
X236416671Y-52952441D01*
X236391419Y-52967576D01*
X236364805Y-52980164D01*
X236337085Y-52990082D01*
X236308527Y-52997236D01*
X236279405Y-53001555D01*
X236250000Y-53003000D01*
X233650000Y-53003000D01*
X233620595Y-53001555D01*
X233591473Y-52997236D01*
X233562915Y-52990082D01*
X233535195Y-52980164D01*
X233508581Y-52967576D01*
X233483329Y-52952441D01*
X233459682Y-52934903D01*
X233437868Y-52915132D01*
X233418097Y-52893318D01*
X233400559Y-52869671D01*
X233385424Y-52844419D01*
X233372836Y-52817805D01*
X233362918Y-52790085D01*
X233355764Y-52761527D01*
X233351445Y-52732405D01*
X233350000Y-52703000D01*
X233350000Y-52103000D01*
X233351445Y-52073595D01*
X233355764Y-52044473D01*
X233362918Y-52015915D01*
X233372836Y-51988195D01*
X233385424Y-51961581D01*
X233400559Y-51936329D01*
X233418097Y-51912682D01*
X233437868Y-51890868D01*
X233459682Y-51871097D01*
X233483329Y-51853559D01*
X233508581Y-51838424D01*
X233535195Y-51825836D01*
X233562915Y-51815918D01*
X233591473Y-51808764D01*
X233620595Y-51804445D01*
X233650000Y-51803000D01*
X236250000Y-51803000D01*
X236279405Y-51804445D01*
G37*
G04 #@! TD.AperFunction*
G04 #@! TA.AperFunction,SMDPad,CuDef*
G36*
X236279405Y-55789445D02*
G01*
X236308527Y-55793764D01*
X236337085Y-55800918D01*
X236364805Y-55810836D01*
X236391419Y-55823424D01*
X236416671Y-55838559D01*
X236440318Y-55856097D01*
X236462132Y-55875868D01*
X236481903Y-55897682D01*
X236499441Y-55921329D01*
X236514576Y-55946581D01*
X236527164Y-55973195D01*
X236537082Y-56000915D01*
X236544236Y-56029473D01*
X236548555Y-56058595D01*
X236550000Y-56088000D01*
X236550000Y-56688000D01*
X236548555Y-56717405D01*
X236544236Y-56746527D01*
X236537082Y-56775085D01*
X236527164Y-56802805D01*
X236514576Y-56829419D01*
X236499441Y-56854671D01*
X236481903Y-56878318D01*
X236462132Y-56900132D01*
X236440318Y-56919903D01*
X236416671Y-56937441D01*
X236391419Y-56952576D01*
X236364805Y-56965164D01*
X236337085Y-56975082D01*
X236308527Y-56982236D01*
X236279405Y-56986555D01*
X236250000Y-56988000D01*
X233650000Y-56988000D01*
X233620595Y-56986555D01*
X233591473Y-56982236D01*
X233562915Y-56975082D01*
X233535195Y-56965164D01*
X233508581Y-56952576D01*
X233483329Y-56937441D01*
X233459682Y-56919903D01*
X233437868Y-56900132D01*
X233418097Y-56878318D01*
X233400559Y-56854671D01*
X233385424Y-56829419D01*
X233372836Y-56802805D01*
X233362918Y-56775085D01*
X233355764Y-56746527D01*
X233351445Y-56717405D01*
X233350000Y-56688000D01*
X233350000Y-56088000D01*
X233351445Y-56058595D01*
X233355764Y-56029473D01*
X233362918Y-56000915D01*
X233372836Y-55973195D01*
X233385424Y-55946581D01*
X233400559Y-55921329D01*
X233418097Y-55897682D01*
X233437868Y-55875868D01*
X233459682Y-55856097D01*
X233483329Y-55838559D01*
X233508581Y-55823424D01*
X233535195Y-55810836D01*
X233562915Y-55800918D01*
X233591473Y-55793764D01*
X233620595Y-55789445D01*
X233650000Y-55788000D01*
X236250000Y-55788000D01*
X236279405Y-55789445D01*
G37*
G04 #@! TD.AperFunction*
G04 #@! TA.AperFunction,SMDPad,CuDef*
G36*
X227135405Y-56904445D02*
G01*
X227164527Y-56908764D01*
X227193085Y-56915918D01*
X227220805Y-56925836D01*
X227247419Y-56938424D01*
X227272671Y-56953559D01*
X227296318Y-56971097D01*
X227318132Y-56990868D01*
X227337903Y-57012682D01*
X227355441Y-57036329D01*
X227370576Y-57061581D01*
X227383164Y-57088195D01*
X227393082Y-57115915D01*
X227400236Y-57144473D01*
X227404555Y-57173595D01*
X227406000Y-57203000D01*
X227406000Y-57803000D01*
X227404555Y-57832405D01*
X227400236Y-57861527D01*
X227393082Y-57890085D01*
X227383164Y-57917805D01*
X227370576Y-57944419D01*
X227355441Y-57969671D01*
X227337903Y-57993318D01*
X227318132Y-58015132D01*
X227296318Y-58034903D01*
X227272671Y-58052441D01*
X227247419Y-58067576D01*
X227220805Y-58080164D01*
X227193085Y-58090082D01*
X227164527Y-58097236D01*
X227135405Y-58101555D01*
X227106000Y-58103000D01*
X224506000Y-58103000D01*
X224476595Y-58101555D01*
X224447473Y-58097236D01*
X224418915Y-58090082D01*
X224391195Y-58080164D01*
X224364581Y-58067576D01*
X224339329Y-58052441D01*
X224315682Y-58034903D01*
X224293868Y-58015132D01*
X224274097Y-57993318D01*
X224256559Y-57969671D01*
X224241424Y-57944419D01*
X224228836Y-57917805D01*
X224218918Y-57890085D01*
X224211764Y-57861527D01*
X224207445Y-57832405D01*
X224206000Y-57803000D01*
X224206000Y-57203000D01*
X224207445Y-57173595D01*
X224211764Y-57144473D01*
X224218918Y-57115915D01*
X224228836Y-57088195D01*
X224241424Y-57061581D01*
X224256559Y-57036329D01*
X224274097Y-57012682D01*
X224293868Y-56990868D01*
X224315682Y-56971097D01*
X224339329Y-56953559D01*
X224364581Y-56938424D01*
X224391195Y-56925836D01*
X224418915Y-56915918D01*
X224447473Y-56908764D01*
X224476595Y-56904445D01*
X224506000Y-56903000D01*
X227106000Y-56903000D01*
X227135405Y-56904445D01*
G37*
G04 #@! TD.AperFunction*
D11*
X210820000Y-63500000D03*
X208280000Y-63500000D03*
D12*
X205740000Y-63500000D03*
G04 #@! TA.AperFunction,SMDPad,CuDef*
D13*
G36*
X222309405Y-48804445D02*
G01*
X222338527Y-48808764D01*
X222367085Y-48815918D01*
X222394805Y-48825836D01*
X222421419Y-48838424D01*
X222446671Y-48853559D01*
X222470318Y-48871097D01*
X222492132Y-48890868D01*
X222511903Y-48912682D01*
X222529441Y-48936329D01*
X222544576Y-48961581D01*
X222557164Y-48988195D01*
X222567082Y-49015915D01*
X222574236Y-49044473D01*
X222578555Y-49073595D01*
X222580000Y-49103000D01*
X222580000Y-49703000D01*
X222578555Y-49732405D01*
X222574236Y-49761527D01*
X222567082Y-49790085D01*
X222557164Y-49817805D01*
X222544576Y-49844419D01*
X222529441Y-49869671D01*
X222511903Y-49893318D01*
X222492132Y-49915132D01*
X222470318Y-49934903D01*
X222446671Y-49952441D01*
X222421419Y-49967576D01*
X222394805Y-49980164D01*
X222367085Y-49990082D01*
X222338527Y-49997236D01*
X222309405Y-50001555D01*
X222280000Y-50003000D01*
X219680000Y-50003000D01*
X219650595Y-50001555D01*
X219621473Y-49997236D01*
X219592915Y-49990082D01*
X219565195Y-49980164D01*
X219538581Y-49967576D01*
X219513329Y-49952441D01*
X219489682Y-49934903D01*
X219467868Y-49915132D01*
X219448097Y-49893318D01*
X219430559Y-49869671D01*
X219415424Y-49844419D01*
X219402836Y-49817805D01*
X219392918Y-49790085D01*
X219385764Y-49761527D01*
X219381445Y-49732405D01*
X219380000Y-49703000D01*
X219380000Y-49103000D01*
X219381445Y-49073595D01*
X219385764Y-49044473D01*
X219392918Y-49015915D01*
X219402836Y-48988195D01*
X219415424Y-48961581D01*
X219430559Y-48936329D01*
X219448097Y-48912682D01*
X219467868Y-48890868D01*
X219489682Y-48871097D01*
X219513329Y-48853559D01*
X219538581Y-48838424D01*
X219565195Y-48825836D01*
X219592915Y-48815918D01*
X219621473Y-48808764D01*
X219650595Y-48804445D01*
X219680000Y-48803000D01*
X222280000Y-48803000D01*
X222309405Y-48804445D01*
G37*
G04 #@! TD.AperFunction*
G04 #@! TA.AperFunction,SMDPad,CuDef*
G36*
X222309405Y-51804445D02*
G01*
X222338527Y-51808764D01*
X222367085Y-51815918D01*
X222394805Y-51825836D01*
X222421419Y-51838424D01*
X222446671Y-51853559D01*
X222470318Y-51871097D01*
X222492132Y-51890868D01*
X222511903Y-51912682D01*
X222529441Y-51936329D01*
X222544576Y-51961581D01*
X222557164Y-51988195D01*
X222567082Y-52015915D01*
X222574236Y-52044473D01*
X222578555Y-52073595D01*
X222580000Y-52103000D01*
X222580000Y-52703000D01*
X222578555Y-52732405D01*
X222574236Y-52761527D01*
X222567082Y-52790085D01*
X222557164Y-52817805D01*
X222544576Y-52844419D01*
X222529441Y-52869671D01*
X222511903Y-52893318D01*
X222492132Y-52915132D01*
X222470318Y-52934903D01*
X222446671Y-52952441D01*
X222421419Y-52967576D01*
X222394805Y-52980164D01*
X222367085Y-52990082D01*
X222338527Y-52997236D01*
X222309405Y-53001555D01*
X222280000Y-53003000D01*
X219680000Y-53003000D01*
X219650595Y-53001555D01*
X219621473Y-52997236D01*
X219592915Y-52990082D01*
X219565195Y-52980164D01*
X219538581Y-52967576D01*
X219513329Y-52952441D01*
X219489682Y-52934903D01*
X219467868Y-52915132D01*
X219448097Y-52893318D01*
X219430559Y-52869671D01*
X219415424Y-52844419D01*
X219402836Y-52817805D01*
X219392918Y-52790085D01*
X219385764Y-52761527D01*
X219381445Y-52732405D01*
X219380000Y-52703000D01*
X219380000Y-52103000D01*
X219381445Y-52073595D01*
X219385764Y-52044473D01*
X219392918Y-52015915D01*
X219402836Y-51988195D01*
X219415424Y-51961581D01*
X219430559Y-51936329D01*
X219448097Y-51912682D01*
X219467868Y-51890868D01*
X219489682Y-51871097D01*
X219513329Y-51853559D01*
X219538581Y-51838424D01*
X219565195Y-51825836D01*
X219592915Y-51815918D01*
X219621473Y-51808764D01*
X219650595Y-51804445D01*
X219680000Y-51803000D01*
X222280000Y-51803000D01*
X222309405Y-51804445D01*
G37*
G04 #@! TD.AperFunction*
G04 #@! TA.AperFunction,SMDPad,CuDef*
G36*
X222309405Y-55789445D02*
G01*
X222338527Y-55793764D01*
X222367085Y-55800918D01*
X222394805Y-55810836D01*
X222421419Y-55823424D01*
X222446671Y-55838559D01*
X222470318Y-55856097D01*
X222492132Y-55875868D01*
X222511903Y-55897682D01*
X222529441Y-55921329D01*
X222544576Y-55946581D01*
X222557164Y-55973195D01*
X222567082Y-56000915D01*
X222574236Y-56029473D01*
X222578555Y-56058595D01*
X222580000Y-56088000D01*
X222580000Y-56688000D01*
X222578555Y-56717405D01*
X222574236Y-56746527D01*
X222567082Y-56775085D01*
X222557164Y-56802805D01*
X222544576Y-56829419D01*
X222529441Y-56854671D01*
X222511903Y-56878318D01*
X222492132Y-56900132D01*
X222470318Y-56919903D01*
X222446671Y-56937441D01*
X222421419Y-56952576D01*
X222394805Y-56965164D01*
X222367085Y-56975082D01*
X222338527Y-56982236D01*
X222309405Y-56986555D01*
X222280000Y-56988000D01*
X219680000Y-56988000D01*
X219650595Y-56986555D01*
X219621473Y-56982236D01*
X219592915Y-56975082D01*
X219565195Y-56965164D01*
X219538581Y-56952576D01*
X219513329Y-56937441D01*
X219489682Y-56919903D01*
X219467868Y-56900132D01*
X219448097Y-56878318D01*
X219430559Y-56854671D01*
X219415424Y-56829419D01*
X219402836Y-56802805D01*
X219392918Y-56775085D01*
X219385764Y-56746527D01*
X219381445Y-56717405D01*
X219380000Y-56688000D01*
X219380000Y-56088000D01*
X219381445Y-56058595D01*
X219385764Y-56029473D01*
X219392918Y-56000915D01*
X219402836Y-55973195D01*
X219415424Y-55946581D01*
X219430559Y-55921329D01*
X219448097Y-55897682D01*
X219467868Y-55875868D01*
X219489682Y-55856097D01*
X219513329Y-55838559D01*
X219538581Y-55823424D01*
X219565195Y-55810836D01*
X219592915Y-55800918D01*
X219621473Y-55793764D01*
X219650595Y-55789445D01*
X219680000Y-55788000D01*
X222280000Y-55788000D01*
X222309405Y-55789445D01*
G37*
G04 #@! TD.AperFunction*
G04 #@! TA.AperFunction,SMDPad,CuDef*
G36*
X213165405Y-56904445D02*
G01*
X213194527Y-56908764D01*
X213223085Y-56915918D01*
X213250805Y-56925836D01*
X213277419Y-56938424D01*
X213302671Y-56953559D01*
X213326318Y-56971097D01*
X213348132Y-56990868D01*
X213367903Y-57012682D01*
X213385441Y-57036329D01*
X213400576Y-57061581D01*
X213413164Y-57088195D01*
X213423082Y-57115915D01*
X213430236Y-57144473D01*
X213434555Y-57173595D01*
X213436000Y-57203000D01*
X213436000Y-57803000D01*
X213434555Y-57832405D01*
X213430236Y-57861527D01*
X213423082Y-57890085D01*
X213413164Y-57917805D01*
X213400576Y-57944419D01*
X213385441Y-57969671D01*
X213367903Y-57993318D01*
X213348132Y-58015132D01*
X213326318Y-58034903D01*
X213302671Y-58052441D01*
X213277419Y-58067576D01*
X213250805Y-58080164D01*
X213223085Y-58090082D01*
X213194527Y-58097236D01*
X213165405Y-58101555D01*
X213136000Y-58103000D01*
X210536000Y-58103000D01*
X210506595Y-58101555D01*
X210477473Y-58097236D01*
X210448915Y-58090082D01*
X210421195Y-58080164D01*
X210394581Y-58067576D01*
X210369329Y-58052441D01*
X210345682Y-58034903D01*
X210323868Y-58015132D01*
X210304097Y-57993318D01*
X210286559Y-57969671D01*
X210271424Y-57944419D01*
X210258836Y-57917805D01*
X210248918Y-57890085D01*
X210241764Y-57861527D01*
X210237445Y-57832405D01*
X210236000Y-57803000D01*
X210236000Y-57203000D01*
X210237445Y-57173595D01*
X210241764Y-57144473D01*
X210248918Y-57115915D01*
X210258836Y-57088195D01*
X210271424Y-57061581D01*
X210286559Y-57036329D01*
X210304097Y-57012682D01*
X210323868Y-56990868D01*
X210345682Y-56971097D01*
X210369329Y-56953559D01*
X210394581Y-56938424D01*
X210421195Y-56925836D01*
X210448915Y-56915918D01*
X210477473Y-56908764D01*
X210506595Y-56904445D01*
X210536000Y-56903000D01*
X213136000Y-56903000D01*
X213165405Y-56904445D01*
G37*
G04 #@! TD.AperFunction*
D14*
X176784000Y-50546000D03*
D15*
X176784000Y-65786000D03*
D14*
X180594000Y-65786000D03*
D15*
X180594000Y-50546000D03*
D16*
X197084000Y-65532000D03*
D17*
X189484000Y-65532000D03*
D18*
X183642000Y-66548000D03*
X263225400Y-50903000D03*
X187431000Y-53184500D03*
D19*
X183242001Y-58156999D02*
X183896000Y-57503000D01*
X183242001Y-66148001D02*
X183242001Y-58156999D01*
X183642000Y-66548000D02*
X183242001Y-66148001D01*
X262890000Y-49403000D02*
X262890000Y-50567600D01*
X262890000Y-50567600D02*
X263225400Y-50903000D01*
X248920000Y-49403000D02*
X262890000Y-49403000D01*
X234950000Y-49403000D02*
X248920000Y-49403000D01*
X220980000Y-49403000D02*
X234950000Y-49403000D01*
X193040000Y-49403000D02*
X207010000Y-49403000D01*
X220980000Y-49403000D02*
X207010000Y-49403000D01*
X154686000Y-58166000D02*
X155448000Y-58166000D01*
X173100500Y-59417800D02*
X166859800Y-59417800D01*
X180594000Y-65786000D02*
X179468700Y-65786000D01*
X179468700Y-65786000D02*
X173100500Y-59417800D01*
X166859800Y-59417800D02*
X165608000Y-58166000D01*
X155448000Y-58166000D02*
X165608000Y-58166000D01*
X190490400Y-51952600D02*
X193040000Y-49403000D01*
X175162600Y-51952600D02*
X190490400Y-51952600D01*
X173267200Y-53848000D02*
X175162600Y-51952600D01*
X165608000Y-57912000D02*
X169672000Y-53848000D01*
X165608000Y-58166000D02*
X165608000Y-57912000D01*
X169672000Y-53848000D02*
X173267200Y-53848000D01*
X169926000Y-58166000D02*
X175689000Y-52403000D01*
X175689000Y-52403000D02*
X193040000Y-52403000D01*
X262890000Y-52403000D02*
X264828600Y-54341600D01*
X264828600Y-54341600D02*
X264828600Y-63801400D01*
X248920000Y-52403000D02*
X262890000Y-52403000D01*
X234950000Y-52403000D02*
X248920000Y-52403000D01*
X207010000Y-52403000D02*
X193040000Y-52403000D01*
X220980000Y-52403000D02*
X207010000Y-52403000D01*
X234950000Y-52403000D02*
X220980000Y-52403000D01*
X264825990Y-65814091D02*
X264825990Y-63801400D01*
X263144000Y-66294000D02*
X264346081Y-66294000D01*
X264346081Y-66294000D02*
X264825990Y-65814091D01*
X187431000Y-53184500D02*
X189836500Y-53184500D01*
X189836500Y-53184500D02*
X193040000Y-56388000D01*
X248920000Y-56388000D02*
X262890000Y-56388000D01*
X234950000Y-56388000D02*
X248920000Y-56388000D01*
X207010000Y-56388000D02*
X193040000Y-56388000D01*
X220980000Y-56388000D02*
X207010000Y-56388000D01*
X176784000Y-50546000D02*
X180594000Y-50546000D01*
X220980000Y-56388000D02*
X234950000Y-56388000D01*
X263144000Y-56642000D02*
X262890000Y-56388000D01*
X263144000Y-61214000D02*
X263144000Y-56642000D01*
X189484000Y-65532000D02*
X188158700Y-65532000D01*
X188234000Y-65532000D02*
X186456000Y-67310000D01*
X189484000Y-65532000D02*
X188234000Y-65532000D01*
X176530000Y-67310000D02*
X169926000Y-60706000D01*
X186456000Y-67310000D02*
X176530000Y-67310000D01*
X174440010Y-67760010D02*
X201479990Y-67760010D01*
X169926000Y-63246000D02*
X174440010Y-67760010D01*
X201479990Y-67760010D02*
X203962000Y-65278000D01*
X206502000Y-65278000D02*
X208280000Y-63500000D01*
X203962000Y-65278000D02*
X206502000Y-65278000D01*
X169926000Y-65786000D02*
X177038000Y-72898000D01*
X205994000Y-72898000D02*
X208280000Y-70612000D01*
X177038000Y-72898000D02*
X205994000Y-72898000D01*
X207104999Y-68231001D02*
X208280000Y-67056000D01*
X189832999Y-68231001D02*
X207104999Y-68231001D01*
X177800998Y-72390000D02*
X185674000Y-72390000D01*
X154686000Y-60706000D02*
X155763630Y-60706000D01*
X155763630Y-60706000D02*
X159756629Y-64698999D01*
X171704000Y-65786000D02*
X171704000Y-66293002D01*
X171704000Y-66293002D02*
X177800998Y-72390000D01*
X159756629Y-64698999D02*
X170616999Y-64698999D01*
X185674000Y-72390000D02*
X189832999Y-68231001D01*
X170616999Y-64698999D02*
X171704000Y-65786000D01*
D20*
G36*
X186396000Y-53286439D02*
G01*
X186435774Y-53486398D01*
X186513795Y-53674756D01*
X186627063Y-53844274D01*
X186771226Y-53988437D01*
X186940744Y-54101705D01*
X187129102Y-54179726D01*
X187219599Y-54197727D01*
X187136225Y-54399011D01*
X187083000Y-54666589D01*
X187083000Y-54939411D01*
X187136225Y-55206989D01*
X187240629Y-55459043D01*
X187392201Y-55685886D01*
X187585114Y-55878799D01*
X187811957Y-56030371D01*
X188064011Y-56134775D01*
X188331589Y-56188000D01*
X188604411Y-56188000D01*
X188871989Y-56134775D01*
X189124043Y-56030371D01*
X189350886Y-55878799D01*
X189543799Y-55685886D01*
X189695371Y-55459043D01*
X189799775Y-55206989D01*
X189853000Y-54939411D01*
X189853000Y-54666589D01*
X189799775Y-54399011D01*
X189695371Y-54146957D01*
X189637407Y-54060208D01*
X191042966Y-55465767D01*
X190960022Y-55566835D01*
X190873334Y-55729015D01*
X190819953Y-55904991D01*
X190801928Y-56088000D01*
X190801928Y-56688000D01*
X190819953Y-56871009D01*
X190873334Y-57046985D01*
X190960022Y-57209165D01*
X191076683Y-57351317D01*
X191218835Y-57467978D01*
X191381015Y-57554666D01*
X191556991Y-57608047D01*
X191740000Y-57626072D01*
X194340000Y-57626072D01*
X194523009Y-57608047D01*
X194698985Y-57554666D01*
X194861165Y-57467978D01*
X195003317Y-57351317D01*
X195119978Y-57209165D01*
X195152672Y-57148000D01*
X195630323Y-57148000D01*
X195631000Y-57217250D01*
X195789750Y-57376000D01*
X197739000Y-57376000D01*
X197739000Y-57356000D01*
X197993000Y-57356000D01*
X197993000Y-57376000D01*
X199942250Y-57376000D01*
X200101000Y-57217250D01*
X200101677Y-57148000D01*
X204897328Y-57148000D01*
X204930022Y-57209165D01*
X205046683Y-57351317D01*
X205188835Y-57467978D01*
X205351015Y-57554666D01*
X205526991Y-57608047D01*
X205710000Y-57626072D01*
X208310000Y-57626072D01*
X208493009Y-57608047D01*
X208668985Y-57554666D01*
X208831165Y-57467978D01*
X208973317Y-57351317D01*
X209089978Y-57209165D01*
X209122672Y-57148000D01*
X209600323Y-57148000D01*
X209601000Y-57217250D01*
X209759750Y-57376000D01*
X211709000Y-57376000D01*
X211709000Y-57356000D01*
X211963000Y-57356000D01*
X211963000Y-57376000D01*
X213912250Y-57376000D01*
X214071000Y-57217250D01*
X214071677Y-57148000D01*
X218867328Y-57148000D01*
X218900022Y-57209165D01*
X219016683Y-57351317D01*
X219158835Y-57467978D01*
X219321015Y-57554666D01*
X219496991Y-57608047D01*
X219680000Y-57626072D01*
X222280000Y-57626072D01*
X222463009Y-57608047D01*
X222638985Y-57554666D01*
X222801165Y-57467978D01*
X222943317Y-57351317D01*
X223059978Y-57209165D01*
X223092672Y-57148000D01*
X223570323Y-57148000D01*
X223571000Y-57217250D01*
X223729750Y-57376000D01*
X225679000Y-57376000D01*
X225679000Y-57356000D01*
X225933000Y-57356000D01*
X225933000Y-57376000D01*
X227882250Y-57376000D01*
X228041000Y-57217250D01*
X228041677Y-57148000D01*
X232837328Y-57148000D01*
X232870022Y-57209165D01*
X232986683Y-57351317D01*
X233128835Y-57467978D01*
X233291015Y-57554666D01*
X233466991Y-57608047D01*
X233650000Y-57626072D01*
X236250000Y-57626072D01*
X236433009Y-57608047D01*
X236608985Y-57554666D01*
X236771165Y-57467978D01*
X236913317Y-57351317D01*
X237029978Y-57209165D01*
X237062672Y-57148000D01*
X237540323Y-57148000D01*
X237541000Y-57217250D01*
X237699750Y-57376000D01*
X239649000Y-57376000D01*
X239649000Y-57356000D01*
X239903000Y-57356000D01*
X239903000Y-57376000D01*
X241852250Y-57376000D01*
X242011000Y-57217250D01*
X242011677Y-57148000D01*
X246807328Y-57148000D01*
X246840022Y-57209165D01*
X246956683Y-57351317D01*
X247098835Y-57467978D01*
X247261015Y-57554666D01*
X247436991Y-57608047D01*
X247620000Y-57626072D01*
X250220000Y-57626072D01*
X250403009Y-57608047D01*
X250578985Y-57554666D01*
X250741165Y-57467978D01*
X250883317Y-57351317D01*
X250999978Y-57209165D01*
X251032672Y-57148000D01*
X251510323Y-57148000D01*
X251511000Y-57217250D01*
X251669750Y-57376000D01*
X253619000Y-57376000D01*
X253619000Y-57356000D01*
X253873000Y-57356000D01*
X253873000Y-57376000D01*
X255822250Y-57376000D01*
X255981000Y-57217250D01*
X255981677Y-57148000D01*
X260777328Y-57148000D01*
X260810022Y-57209165D01*
X260926683Y-57351317D01*
X261068835Y-57467978D01*
X261231015Y-57554666D01*
X261406991Y-57608047D01*
X261590000Y-57626072D01*
X262384001Y-57626072D01*
X262384000Y-59935821D01*
X262197368Y-60060525D01*
X261990525Y-60267368D01*
X261828010Y-60510589D01*
X261716068Y-60780842D01*
X261659000Y-61067740D01*
X261659000Y-61360260D01*
X261716068Y-61647158D01*
X261828010Y-61917411D01*
X261990525Y-62160632D01*
X262197368Y-62367475D01*
X262371760Y-62484000D01*
X262197368Y-62600525D01*
X261990525Y-62807368D01*
X261828010Y-63050589D01*
X261716068Y-63320842D01*
X261659000Y-63607740D01*
X261659000Y-63900260D01*
X261716068Y-64187158D01*
X261828010Y-64457411D01*
X261990525Y-64700632D01*
X262197368Y-64907475D01*
X262371760Y-65024000D01*
X262197368Y-65140525D01*
X261990525Y-65347368D01*
X261828010Y-65590589D01*
X261716068Y-65860842D01*
X261659000Y-66147740D01*
X261659000Y-66440260D01*
X261716068Y-66727158D01*
X261828010Y-66997411D01*
X261990525Y-67240632D01*
X262197368Y-67447475D01*
X262371760Y-67564000D01*
X262197368Y-67680525D01*
X261990525Y-67887368D01*
X261828010Y-68130589D01*
X261716068Y-68400842D01*
X261659000Y-68687740D01*
X261659000Y-68980260D01*
X261716068Y-69267158D01*
X261828010Y-69537411D01*
X261990525Y-69780632D01*
X262122380Y-69912487D01*
X262049820Y-69934498D01*
X261939506Y-69993463D01*
X261842815Y-70072815D01*
X261763463Y-70169506D01*
X261704498Y-70279820D01*
X261668188Y-70399518D01*
X261655928Y-70524000D01*
X261659000Y-71088250D01*
X261817750Y-71247000D01*
X263017000Y-71247000D01*
X263017000Y-71227000D01*
X263271000Y-71227000D01*
X263271000Y-71247000D01*
X263291000Y-71247000D01*
X263291000Y-71501000D01*
X263271000Y-71501000D01*
X263271000Y-72700250D01*
X263429750Y-72859000D01*
X263994000Y-72862072D01*
X264118482Y-72849812D01*
X264238180Y-72813502D01*
X264348494Y-72754537D01*
X264445185Y-72675185D01*
X264516001Y-72588895D01*
X264516001Y-72611709D01*
X264506115Y-72712531D01*
X264486211Y-72778458D01*
X264453885Y-72839255D01*
X264410362Y-72892618D01*
X264357300Y-72936515D01*
X264296727Y-72969266D01*
X264230947Y-72989628D01*
X264132269Y-73000000D01*
X206966801Y-73000000D01*
X207742801Y-72224000D01*
X261655928Y-72224000D01*
X261668188Y-72348482D01*
X261704498Y-72468180D01*
X261763463Y-72578494D01*
X261842815Y-72675185D01*
X261939506Y-72754537D01*
X262049820Y-72813502D01*
X262169518Y-72849812D01*
X262294000Y-72862072D01*
X262858250Y-72859000D01*
X263017000Y-72700250D01*
X263017000Y-71501000D01*
X261817750Y-71501000D01*
X261659000Y-71659750D01*
X261655928Y-72224000D01*
X207742801Y-72224000D01*
X207913592Y-72053210D01*
X208133740Y-72097000D01*
X208426260Y-72097000D01*
X208713158Y-72039932D01*
X208983411Y-71927990D01*
X209226632Y-71765475D01*
X209433475Y-71558632D01*
X209555195Y-71376466D01*
X209624822Y-71493355D01*
X209819731Y-71709588D01*
X210053080Y-71883641D01*
X210315901Y-72008825D01*
X210463110Y-72053476D01*
X210693000Y-71932155D01*
X210693000Y-70739000D01*
X210947000Y-70739000D01*
X210947000Y-71932155D01*
X211176890Y-72053476D01*
X211324099Y-72008825D01*
X211586920Y-71883641D01*
X211820269Y-71709588D01*
X212015178Y-71493355D01*
X212164157Y-71243252D01*
X212261481Y-70968891D01*
X212140814Y-70739000D01*
X210947000Y-70739000D01*
X210693000Y-70739000D01*
X210673000Y-70739000D01*
X210673000Y-70485000D01*
X210693000Y-70485000D01*
X210693000Y-69291845D01*
X210947000Y-69291845D01*
X210947000Y-70485000D01*
X212140814Y-70485000D01*
X212261481Y-70255109D01*
X212164157Y-69980748D01*
X212015178Y-69730645D01*
X211820269Y-69514412D01*
X211586920Y-69340359D01*
X211324099Y-69215175D01*
X211176890Y-69170524D01*
X210947000Y-69291845D01*
X210693000Y-69291845D01*
X210463110Y-69170524D01*
X210315901Y-69215175D01*
X210053080Y-69340359D01*
X209819731Y-69514412D01*
X209624822Y-69730645D01*
X209555195Y-69847534D01*
X209433475Y-69665368D01*
X209226632Y-69458525D01*
X208983411Y-69296010D01*
X208713158Y-69184068D01*
X208426260Y-69127000D01*
X208133740Y-69127000D01*
X207846842Y-69184068D01*
X207576589Y-69296010D01*
X207333368Y-69458525D01*
X207201513Y-69590380D01*
X207179502Y-69517820D01*
X207120537Y-69407506D01*
X207041185Y-69310815D01*
X206944494Y-69231463D01*
X206834180Y-69172498D01*
X206714482Y-69136188D01*
X206590000Y-69123928D01*
X204890000Y-69123928D01*
X204765518Y-69136188D01*
X204645820Y-69172498D01*
X204535506Y-69231463D01*
X204438815Y-69310815D01*
X204359463Y-69407506D01*
X204300498Y-69517820D01*
X204264188Y-69637518D01*
X204251928Y-69762000D01*
X204251928Y-71462000D01*
X204264188Y-71586482D01*
X204300498Y-71706180D01*
X204359463Y-71816494D01*
X204438815Y-71913185D01*
X204535506Y-71992537D01*
X204645820Y-72051502D01*
X204765518Y-72087812D01*
X204890000Y-72100072D01*
X205717127Y-72100072D01*
X205679199Y-72138000D01*
X187000801Y-72138000D01*
X190147801Y-68991001D01*
X207067677Y-68991001D01*
X207104999Y-68994677D01*
X207142321Y-68991001D01*
X207142332Y-68991001D01*
X207253985Y-68980004D01*
X207397246Y-68936547D01*
X207529275Y-68865975D01*
X207645000Y-68771002D01*
X207668803Y-68741998D01*
X207913592Y-68497209D01*
X208133740Y-68541000D01*
X208426260Y-68541000D01*
X208713158Y-68483932D01*
X208983411Y-68371990D01*
X209226632Y-68209475D01*
X209433475Y-68002632D01*
X209555195Y-67820466D01*
X209624822Y-67937355D01*
X209819731Y-68153588D01*
X210053080Y-68327641D01*
X210315901Y-68452825D01*
X210463110Y-68497476D01*
X210693000Y-68376155D01*
X210693000Y-67183000D01*
X210947000Y-67183000D01*
X210947000Y-68376155D01*
X211176890Y-68497476D01*
X211324099Y-68452825D01*
X211586920Y-68327641D01*
X211820269Y-68153588D01*
X212015178Y-67937355D01*
X212164157Y-67687252D01*
X212261481Y-67412891D01*
X212140814Y-67183000D01*
X210947000Y-67183000D01*
X210693000Y-67183000D01*
X210673000Y-67183000D01*
X210673000Y-66929000D01*
X210693000Y-66929000D01*
X210693000Y-65735845D01*
X210947000Y-65735845D01*
X210947000Y-66929000D01*
X212140814Y-66929000D01*
X212261481Y-66699109D01*
X212164157Y-66424748D01*
X212015178Y-66174645D01*
X211820269Y-65958412D01*
X211586920Y-65784359D01*
X211324099Y-65659175D01*
X211176890Y-65614524D01*
X210947000Y-65735845D01*
X210693000Y-65735845D01*
X210463110Y-65614524D01*
X210315901Y-65659175D01*
X210053080Y-65784359D01*
X209819731Y-65958412D01*
X209624822Y-66174645D01*
X209555195Y-66291534D01*
X209433475Y-66109368D01*
X209226632Y-65902525D01*
X208983411Y-65740010D01*
X208713158Y-65628068D01*
X208426260Y-65571000D01*
X208133740Y-65571000D01*
X207846842Y-65628068D01*
X207576589Y-65740010D01*
X207333368Y-65902525D01*
X207201513Y-66034380D01*
X207179502Y-65961820D01*
X207120537Y-65851506D01*
X207067690Y-65787111D01*
X207913592Y-64941210D01*
X208133740Y-64985000D01*
X208426260Y-64985000D01*
X208713158Y-64927932D01*
X208983411Y-64815990D01*
X209226632Y-64653475D01*
X209433475Y-64446632D01*
X209555195Y-64264466D01*
X209624822Y-64381355D01*
X209819731Y-64597588D01*
X210053080Y-64771641D01*
X210315901Y-64896825D01*
X210463110Y-64941476D01*
X210693000Y-64820155D01*
X210693000Y-63627000D01*
X210947000Y-63627000D01*
X210947000Y-64820155D01*
X211176890Y-64941476D01*
X211324099Y-64896825D01*
X211586920Y-64771641D01*
X211820269Y-64597588D01*
X212015178Y-64381355D01*
X212164157Y-64131252D01*
X212261481Y-63856891D01*
X212140814Y-63627000D01*
X210947000Y-63627000D01*
X210693000Y-63627000D01*
X210673000Y-63627000D01*
X210673000Y-63373000D01*
X210693000Y-63373000D01*
X210693000Y-62179845D01*
X210947000Y-62179845D01*
X210947000Y-63373000D01*
X212140814Y-63373000D01*
X212261481Y-63143109D01*
X212164157Y-62868748D01*
X212015178Y-62618645D01*
X211820269Y-62402412D01*
X211586920Y-62228359D01*
X211324099Y-62103175D01*
X211176890Y-62058524D01*
X210947000Y-62179845D01*
X210693000Y-62179845D01*
X210463110Y-62058524D01*
X210315901Y-62103175D01*
X210053080Y-62228359D01*
X209819731Y-62402412D01*
X209624822Y-62618645D01*
X209555195Y-62735534D01*
X209433475Y-62553368D01*
X209226632Y-62346525D01*
X208983411Y-62184010D01*
X208713158Y-62072068D01*
X208426260Y-62015000D01*
X208133740Y-62015000D01*
X207846842Y-62072068D01*
X207576589Y-62184010D01*
X207333368Y-62346525D01*
X207201513Y-62478380D01*
X207179502Y-62405820D01*
X207120537Y-62295506D01*
X207041185Y-62198815D01*
X206944494Y-62119463D01*
X206834180Y-62060498D01*
X206714482Y-62024188D01*
X206590000Y-62011928D01*
X204890000Y-62011928D01*
X204765518Y-62024188D01*
X204645820Y-62060498D01*
X204535506Y-62119463D01*
X204438815Y-62198815D01*
X204359463Y-62295506D01*
X204300498Y-62405820D01*
X204264188Y-62525518D01*
X204251928Y-62650000D01*
X204251928Y-64350000D01*
X204264188Y-64474482D01*
X204277389Y-64518000D01*
X203999322Y-64518000D01*
X203961999Y-64514324D01*
X203924676Y-64518000D01*
X203924667Y-64518000D01*
X203813014Y-64528997D01*
X203669753Y-64572454D01*
X203537724Y-64643026D01*
X203421999Y-64737999D01*
X203398201Y-64766997D01*
X201165189Y-67000010D01*
X197816458Y-67000010D01*
X197944044Y-66931814D01*
X198039808Y-66667413D01*
X197084000Y-65711605D01*
X196128192Y-66667413D01*
X196223956Y-66931814D01*
X196364140Y-67000010D01*
X190914684Y-67000010D01*
X190935185Y-66983185D01*
X191014537Y-66886494D01*
X191073502Y-66776180D01*
X191109812Y-66656482D01*
X191122072Y-66532000D01*
X191122072Y-65594595D01*
X195442282Y-65594595D01*
X195486039Y-65913675D01*
X195591205Y-66218088D01*
X195684186Y-66392044D01*
X195948587Y-66487808D01*
X196904395Y-65532000D01*
X197263605Y-65532000D01*
X198219413Y-66487808D01*
X198483814Y-66392044D01*
X198624704Y-66102429D01*
X198706384Y-65790892D01*
X198725718Y-65469405D01*
X198681961Y-65150325D01*
X198576795Y-64845912D01*
X198483814Y-64671956D01*
X198219413Y-64576192D01*
X197263605Y-65532000D01*
X196904395Y-65532000D01*
X195948587Y-64576192D01*
X195684186Y-64671956D01*
X195543296Y-64961571D01*
X195461616Y-65273108D01*
X195442282Y-65594595D01*
X191122072Y-65594595D01*
X191122072Y-64532000D01*
X191109812Y-64407518D01*
X191106497Y-64396587D01*
X196128192Y-64396587D01*
X197084000Y-65352395D01*
X198039808Y-64396587D01*
X197944044Y-64132186D01*
X197654429Y-63991296D01*
X197342892Y-63909616D01*
X197021405Y-63890282D01*
X196702325Y-63934039D01*
X196397912Y-64039205D01*
X196223956Y-64132186D01*
X196128192Y-64396587D01*
X191106497Y-64396587D01*
X191073502Y-64287820D01*
X191014537Y-64177506D01*
X190935185Y-64080815D01*
X190838494Y-64001463D01*
X190728180Y-63942498D01*
X190608482Y-63906188D01*
X190484000Y-63893928D01*
X188484000Y-63893928D01*
X188359518Y-63906188D01*
X188239820Y-63942498D01*
X188129506Y-64001463D01*
X188032815Y-64080815D01*
X187953463Y-64177506D01*
X187894498Y-64287820D01*
X187858188Y-64407518D01*
X187845928Y-64532000D01*
X187845928Y-64837425D01*
X187734424Y-64897026D01*
X187618699Y-64991999D01*
X187523726Y-65107724D01*
X187455116Y-65236082D01*
X186141199Y-66550000D01*
X181809371Y-66550000D01*
X181865680Y-66465727D01*
X181973853Y-66204574D01*
X182029000Y-65927335D01*
X182029000Y-65644665D01*
X181973853Y-65367426D01*
X181865680Y-65106273D01*
X181708637Y-64871241D01*
X181508759Y-64671363D01*
X181273727Y-64514320D01*
X181012574Y-64406147D01*
X180735335Y-64351000D01*
X180452665Y-64351000D01*
X180175426Y-64406147D01*
X179914273Y-64514320D01*
X179679241Y-64671363D01*
X179554053Y-64796551D01*
X173664304Y-58906803D01*
X173640501Y-58877799D01*
X173524776Y-58782826D01*
X173392747Y-58712254D01*
X173249486Y-58668797D01*
X173137833Y-58657800D01*
X173137822Y-58657800D01*
X173100500Y-58654124D01*
X173063178Y-58657800D01*
X171234391Y-58657800D01*
X171269314Y-58573490D01*
X171323000Y-58303592D01*
X171323000Y-58103000D01*
X181657928Y-58103000D01*
X181670188Y-58227482D01*
X181706498Y-58347180D01*
X181765463Y-58457494D01*
X181844815Y-58554185D01*
X181941506Y-58633537D01*
X182051820Y-58692502D01*
X182171518Y-58728812D01*
X182296000Y-58741072D01*
X183610250Y-58738000D01*
X183769000Y-58579250D01*
X183769000Y-57630000D01*
X184023000Y-57630000D01*
X184023000Y-58579250D01*
X184181750Y-58738000D01*
X185496000Y-58741072D01*
X185620482Y-58728812D01*
X185740180Y-58692502D01*
X185850494Y-58633537D01*
X185947185Y-58554185D01*
X186026537Y-58457494D01*
X186085502Y-58347180D01*
X186121812Y-58227482D01*
X186134072Y-58103000D01*
X195627928Y-58103000D01*
X195640188Y-58227482D01*
X195676498Y-58347180D01*
X195735463Y-58457494D01*
X195814815Y-58554185D01*
X195911506Y-58633537D01*
X196021820Y-58692502D01*
X196141518Y-58728812D01*
X196266000Y-58741072D01*
X197580250Y-58738000D01*
X197739000Y-58579250D01*
X197739000Y-57630000D01*
X197993000Y-57630000D01*
X197993000Y-58579250D01*
X198151750Y-58738000D01*
X199466000Y-58741072D01*
X199590482Y-58728812D01*
X199710180Y-58692502D01*
X199820494Y-58633537D01*
X199917185Y-58554185D01*
X199996537Y-58457494D01*
X200055502Y-58347180D01*
X200091812Y-58227482D01*
X200104072Y-58103000D01*
X209597928Y-58103000D01*
X209610188Y-58227482D01*
X209646498Y-58347180D01*
X209705463Y-58457494D01*
X209784815Y-58554185D01*
X209881506Y-58633537D01*
X209991820Y-58692502D01*
X210111518Y-58728812D01*
X210236000Y-58741072D01*
X211550250Y-58738000D01*
X211709000Y-58579250D01*
X211709000Y-57630000D01*
X211963000Y-57630000D01*
X211963000Y-58579250D01*
X212121750Y-58738000D01*
X213436000Y-58741072D01*
X213560482Y-58728812D01*
X213680180Y-58692502D01*
X213790494Y-58633537D01*
X213887185Y-58554185D01*
X213966537Y-58457494D01*
X214025502Y-58347180D01*
X214061812Y-58227482D01*
X214074072Y-58103000D01*
X223567928Y-58103000D01*
X223580188Y-58227482D01*
X223616498Y-58347180D01*
X223675463Y-58457494D01*
X223754815Y-58554185D01*
X223851506Y-58633537D01*
X223961820Y-58692502D01*
X224081518Y-58728812D01*
X224206000Y-58741072D01*
X225520250Y-58738000D01*
X225679000Y-58579250D01*
X225679000Y-57630000D01*
X225933000Y-57630000D01*
X225933000Y-58579250D01*
X226091750Y-58738000D01*
X227406000Y-58741072D01*
X227530482Y-58728812D01*
X227650180Y-58692502D01*
X227760494Y-58633537D01*
X227857185Y-58554185D01*
X227936537Y-58457494D01*
X227995502Y-58347180D01*
X228031812Y-58227482D01*
X228044072Y-58103000D01*
X237537928Y-58103000D01*
X237550188Y-58227482D01*
X237586498Y-58347180D01*
X237645463Y-58457494D01*
X237724815Y-58554185D01*
X237821506Y-58633537D01*
X237931820Y-58692502D01*
X238051518Y-58728812D01*
X238176000Y-58741072D01*
X239490250Y-58738000D01*
X239649000Y-58579250D01*
X239649000Y-57630000D01*
X239903000Y-57630000D01*
X239903000Y-58579250D01*
X240061750Y-58738000D01*
X241376000Y-58741072D01*
X241500482Y-58728812D01*
X241620180Y-58692502D01*
X241730494Y-58633537D01*
X241827185Y-58554185D01*
X241906537Y-58457494D01*
X241965502Y-58347180D01*
X242001812Y-58227482D01*
X242014072Y-58103000D01*
X251507928Y-58103000D01*
X251520188Y-58227482D01*
X251556498Y-58347180D01*
X251615463Y-58457494D01*
X251694815Y-58554185D01*
X251791506Y-58633537D01*
X251901820Y-58692502D01*
X252021518Y-58728812D01*
X252146000Y-58741072D01*
X253460250Y-58738000D01*
X253619000Y-58579250D01*
X253619000Y-57630000D01*
X253873000Y-57630000D01*
X253873000Y-58579250D01*
X254031750Y-58738000D01*
X255346000Y-58741072D01*
X255470482Y-58728812D01*
X255590180Y-58692502D01*
X255700494Y-58633537D01*
X255797185Y-58554185D01*
X255876537Y-58457494D01*
X255935502Y-58347180D01*
X255971812Y-58227482D01*
X255984072Y-58103000D01*
X255981000Y-57788750D01*
X255822250Y-57630000D01*
X253873000Y-57630000D01*
X253619000Y-57630000D01*
X251669750Y-57630000D01*
X251511000Y-57788750D01*
X251507928Y-58103000D01*
X242014072Y-58103000D01*
X242011000Y-57788750D01*
X241852250Y-57630000D01*
X239903000Y-57630000D01*
X239649000Y-57630000D01*
X237699750Y-57630000D01*
X237541000Y-57788750D01*
X237537928Y-58103000D01*
X228044072Y-58103000D01*
X228041000Y-57788750D01*
X227882250Y-57630000D01*
X225933000Y-57630000D01*
X225679000Y-57630000D01*
X223729750Y-57630000D01*
X223571000Y-57788750D01*
X223567928Y-58103000D01*
X214074072Y-58103000D01*
X214071000Y-57788750D01*
X213912250Y-57630000D01*
X211963000Y-57630000D01*
X211709000Y-57630000D01*
X209759750Y-57630000D01*
X209601000Y-57788750D01*
X209597928Y-58103000D01*
X200104072Y-58103000D01*
X200101000Y-57788750D01*
X199942250Y-57630000D01*
X197993000Y-57630000D01*
X197739000Y-57630000D01*
X195789750Y-57630000D01*
X195631000Y-57788750D01*
X195627928Y-58103000D01*
X186134072Y-58103000D01*
X186131000Y-57788750D01*
X185972250Y-57630000D01*
X184023000Y-57630000D01*
X183769000Y-57630000D01*
X181819750Y-57630000D01*
X181661000Y-57788750D01*
X181657928Y-58103000D01*
X171323000Y-58103000D01*
X171323000Y-58028408D01*
X171292372Y-57874429D01*
X172263801Y-56903000D01*
X181657928Y-56903000D01*
X181661000Y-57217250D01*
X181819750Y-57376000D01*
X183769000Y-57376000D01*
X183769000Y-56426750D01*
X184023000Y-56426750D01*
X184023000Y-57376000D01*
X185972250Y-57376000D01*
X186131000Y-57217250D01*
X186134072Y-56903000D01*
X186121812Y-56778518D01*
X186085502Y-56658820D01*
X186026537Y-56548506D01*
X185947185Y-56451815D01*
X185850494Y-56372463D01*
X185740180Y-56313498D01*
X185620482Y-56277188D01*
X185496000Y-56264928D01*
X184181750Y-56268000D01*
X184023000Y-56426750D01*
X183769000Y-56426750D01*
X183610250Y-56268000D01*
X182296000Y-56264928D01*
X182171518Y-56277188D01*
X182051820Y-56313498D01*
X181941506Y-56372463D01*
X181844815Y-56451815D01*
X181765463Y-56548506D01*
X181706498Y-56658820D01*
X181670188Y-56778518D01*
X181657928Y-56903000D01*
X172263801Y-56903000D01*
X176003802Y-53163000D01*
X186396000Y-53163000D01*
X186396000Y-53286439D01*
G37*
X186396000Y-53286439D02*
X186435774Y-53486398D01*
X186513795Y-53674756D01*
X186627063Y-53844274D01*
X186771226Y-53988437D01*
X186940744Y-54101705D01*
X187129102Y-54179726D01*
X187219599Y-54197727D01*
X187136225Y-54399011D01*
X187083000Y-54666589D01*
X187083000Y-54939411D01*
X187136225Y-55206989D01*
X187240629Y-55459043D01*
X187392201Y-55685886D01*
X187585114Y-55878799D01*
X187811957Y-56030371D01*
X188064011Y-56134775D01*
X188331589Y-56188000D01*
X188604411Y-56188000D01*
X188871989Y-56134775D01*
X189124043Y-56030371D01*
X189350886Y-55878799D01*
X189543799Y-55685886D01*
X189695371Y-55459043D01*
X189799775Y-55206989D01*
X189853000Y-54939411D01*
X189853000Y-54666589D01*
X189799775Y-54399011D01*
X189695371Y-54146957D01*
X189637407Y-54060208D01*
X191042966Y-55465767D01*
X190960022Y-55566835D01*
X190873334Y-55729015D01*
X190819953Y-55904991D01*
X190801928Y-56088000D01*
X190801928Y-56688000D01*
X190819953Y-56871009D01*
X190873334Y-57046985D01*
X190960022Y-57209165D01*
X191076683Y-57351317D01*
X191218835Y-57467978D01*
X191381015Y-57554666D01*
X191556991Y-57608047D01*
X191740000Y-57626072D01*
X194340000Y-57626072D01*
X194523009Y-57608047D01*
X194698985Y-57554666D01*
X194861165Y-57467978D01*
X195003317Y-57351317D01*
X195119978Y-57209165D01*
X195152672Y-57148000D01*
X195630323Y-57148000D01*
X195631000Y-57217250D01*
X195789750Y-57376000D01*
X197739000Y-57376000D01*
X197739000Y-57356000D01*
X197993000Y-57356000D01*
X197993000Y-57376000D01*
X199942250Y-57376000D01*
X200101000Y-57217250D01*
X200101677Y-57148000D01*
X204897328Y-57148000D01*
X204930022Y-57209165D01*
X205046683Y-57351317D01*
X205188835Y-57467978D01*
X205351015Y-57554666D01*
X205526991Y-57608047D01*
X205710000Y-57626072D01*
X208310000Y-57626072D01*
X208493009Y-57608047D01*
X208668985Y-57554666D01*
X208831165Y-57467978D01*
X208973317Y-57351317D01*
X209089978Y-57209165D01*
X209122672Y-57148000D01*
X209600323Y-57148000D01*
X209601000Y-57217250D01*
X209759750Y-57376000D01*
X211709000Y-57376000D01*
X211709000Y-57356000D01*
X211963000Y-57356000D01*
X211963000Y-57376000D01*
X213912250Y-57376000D01*
X214071000Y-57217250D01*
X214071677Y-57148000D01*
X218867328Y-57148000D01*
X218900022Y-57209165D01*
X219016683Y-57351317D01*
X219158835Y-57467978D01*
X219321015Y-57554666D01*
X219496991Y-57608047D01*
X219680000Y-57626072D01*
X222280000Y-57626072D01*
X222463009Y-57608047D01*
X222638985Y-57554666D01*
X222801165Y-57467978D01*
X222943317Y-57351317D01*
X223059978Y-57209165D01*
X223092672Y-57148000D01*
X223570323Y-57148000D01*
X223571000Y-57217250D01*
X223729750Y-57376000D01*
X225679000Y-57376000D01*
X225679000Y-57356000D01*
X225933000Y-57356000D01*
X225933000Y-57376000D01*
X227882250Y-57376000D01*
X228041000Y-57217250D01*
X228041677Y-57148000D01*
X232837328Y-57148000D01*
X232870022Y-57209165D01*
X232986683Y-57351317D01*
X233128835Y-57467978D01*
X233291015Y-57554666D01*
X233466991Y-57608047D01*
X233650000Y-57626072D01*
X236250000Y-57626072D01*
X236433009Y-57608047D01*
X236608985Y-57554666D01*
X236771165Y-57467978D01*
X236913317Y-57351317D01*
X237029978Y-57209165D01*
X237062672Y-57148000D01*
X237540323Y-57148000D01*
X237541000Y-57217250D01*
X237699750Y-57376000D01*
X239649000Y-57376000D01*
X239649000Y-57356000D01*
X239903000Y-57356000D01*
X239903000Y-57376000D01*
X241852250Y-57376000D01*
X242011000Y-57217250D01*
X242011677Y-57148000D01*
X246807328Y-57148000D01*
X246840022Y-57209165D01*
X246956683Y-57351317D01*
X247098835Y-57467978D01*
X247261015Y-57554666D01*
X247436991Y-57608047D01*
X247620000Y-57626072D01*
X250220000Y-57626072D01*
X250403009Y-57608047D01*
X250578985Y-57554666D01*
X250741165Y-57467978D01*
X250883317Y-57351317D01*
X250999978Y-57209165D01*
X251032672Y-57148000D01*
X251510323Y-57148000D01*
X251511000Y-57217250D01*
X251669750Y-57376000D01*
X253619000Y-57376000D01*
X253619000Y-57356000D01*
X253873000Y-57356000D01*
X253873000Y-57376000D01*
X255822250Y-57376000D01*
X255981000Y-57217250D01*
X255981677Y-57148000D01*
X260777328Y-57148000D01*
X260810022Y-57209165D01*
X260926683Y-57351317D01*
X261068835Y-57467978D01*
X261231015Y-57554666D01*
X261406991Y-57608047D01*
X261590000Y-57626072D01*
X262384001Y-57626072D01*
X262384000Y-59935821D01*
X262197368Y-60060525D01*
X261990525Y-60267368D01*
X261828010Y-60510589D01*
X261716068Y-60780842D01*
X261659000Y-61067740D01*
X261659000Y-61360260D01*
X261716068Y-61647158D01*
X261828010Y-61917411D01*
X261990525Y-62160632D01*
X262197368Y-62367475D01*
X262371760Y-62484000D01*
X262197368Y-62600525D01*
X261990525Y-62807368D01*
X261828010Y-63050589D01*
X261716068Y-63320842D01*
X261659000Y-63607740D01*
X261659000Y-63900260D01*
X261716068Y-64187158D01*
X261828010Y-64457411D01*
X261990525Y-64700632D01*
X262197368Y-64907475D01*
X262371760Y-65024000D01*
X262197368Y-65140525D01*
X261990525Y-65347368D01*
X261828010Y-65590589D01*
X261716068Y-65860842D01*
X261659000Y-66147740D01*
X261659000Y-66440260D01*
X261716068Y-66727158D01*
X261828010Y-66997411D01*
X261990525Y-67240632D01*
X262197368Y-67447475D01*
X262371760Y-67564000D01*
X262197368Y-67680525D01*
X261990525Y-67887368D01*
X261828010Y-68130589D01*
X261716068Y-68400842D01*
X261659000Y-68687740D01*
X261659000Y-68980260D01*
X261716068Y-69267158D01*
X261828010Y-69537411D01*
X261990525Y-69780632D01*
X262122380Y-69912487D01*
X262049820Y-69934498D01*
X261939506Y-69993463D01*
X261842815Y-70072815D01*
X261763463Y-70169506D01*
X261704498Y-70279820D01*
X261668188Y-70399518D01*
X261655928Y-70524000D01*
X261659000Y-71088250D01*
X261817750Y-71247000D01*
X263017000Y-71247000D01*
X263017000Y-71227000D01*
X263271000Y-71227000D01*
X263271000Y-71247000D01*
X263291000Y-71247000D01*
X263291000Y-71501000D01*
X263271000Y-71501000D01*
X263271000Y-72700250D01*
X263429750Y-72859000D01*
X263994000Y-72862072D01*
X264118482Y-72849812D01*
X264238180Y-72813502D01*
X264348494Y-72754537D01*
X264445185Y-72675185D01*
X264516001Y-72588895D01*
X264516001Y-72611709D01*
X264506115Y-72712531D01*
X264486211Y-72778458D01*
X264453885Y-72839255D01*
X264410362Y-72892618D01*
X264357300Y-72936515D01*
X264296727Y-72969266D01*
X264230947Y-72989628D01*
X264132269Y-73000000D01*
X206966801Y-73000000D01*
X207742801Y-72224000D01*
X261655928Y-72224000D01*
X261668188Y-72348482D01*
X261704498Y-72468180D01*
X261763463Y-72578494D01*
X261842815Y-72675185D01*
X261939506Y-72754537D01*
X262049820Y-72813502D01*
X262169518Y-72849812D01*
X262294000Y-72862072D01*
X262858250Y-72859000D01*
X263017000Y-72700250D01*
X263017000Y-71501000D01*
X261817750Y-71501000D01*
X261659000Y-71659750D01*
X261655928Y-72224000D01*
X207742801Y-72224000D01*
X207913592Y-72053210D01*
X208133740Y-72097000D01*
X208426260Y-72097000D01*
X208713158Y-72039932D01*
X208983411Y-71927990D01*
X209226632Y-71765475D01*
X209433475Y-71558632D01*
X209555195Y-71376466D01*
X209624822Y-71493355D01*
X209819731Y-71709588D01*
X210053080Y-71883641D01*
X210315901Y-72008825D01*
X210463110Y-72053476D01*
X210693000Y-71932155D01*
X210693000Y-70739000D01*
X210947000Y-70739000D01*
X210947000Y-71932155D01*
X211176890Y-72053476D01*
X211324099Y-72008825D01*
X211586920Y-71883641D01*
X211820269Y-71709588D01*
X212015178Y-71493355D01*
X212164157Y-71243252D01*
X212261481Y-70968891D01*
X212140814Y-70739000D01*
X210947000Y-70739000D01*
X210693000Y-70739000D01*
X210673000Y-70739000D01*
X210673000Y-70485000D01*
X210693000Y-70485000D01*
X210693000Y-69291845D01*
X210947000Y-69291845D01*
X210947000Y-70485000D01*
X212140814Y-70485000D01*
X212261481Y-70255109D01*
X212164157Y-69980748D01*
X212015178Y-69730645D01*
X211820269Y-69514412D01*
X211586920Y-69340359D01*
X211324099Y-69215175D01*
X211176890Y-69170524D01*
X210947000Y-69291845D01*
X210693000Y-69291845D01*
X210463110Y-69170524D01*
X210315901Y-69215175D01*
X210053080Y-69340359D01*
X209819731Y-69514412D01*
X209624822Y-69730645D01*
X209555195Y-69847534D01*
X209433475Y-69665368D01*
X209226632Y-69458525D01*
X208983411Y-69296010D01*
X208713158Y-69184068D01*
X208426260Y-69127000D01*
X208133740Y-69127000D01*
X207846842Y-69184068D01*
X207576589Y-69296010D01*
X207333368Y-69458525D01*
X207201513Y-69590380D01*
X207179502Y-69517820D01*
X207120537Y-69407506D01*
X207041185Y-69310815D01*
X206944494Y-69231463D01*
X206834180Y-69172498D01*
X206714482Y-69136188D01*
X206590000Y-69123928D01*
X204890000Y-69123928D01*
X204765518Y-69136188D01*
X204645820Y-69172498D01*
X204535506Y-69231463D01*
X204438815Y-69310815D01*
X204359463Y-69407506D01*
X204300498Y-69517820D01*
X204264188Y-69637518D01*
X204251928Y-69762000D01*
X204251928Y-71462000D01*
X204264188Y-71586482D01*
X204300498Y-71706180D01*
X204359463Y-71816494D01*
X204438815Y-71913185D01*
X204535506Y-71992537D01*
X204645820Y-72051502D01*
X204765518Y-72087812D01*
X204890000Y-72100072D01*
X205717127Y-72100072D01*
X205679199Y-72138000D01*
X187000801Y-72138000D01*
X190147801Y-68991001D01*
X207067677Y-68991001D01*
X207104999Y-68994677D01*
X207142321Y-68991001D01*
X207142332Y-68991001D01*
X207253985Y-68980004D01*
X207397246Y-68936547D01*
X207529275Y-68865975D01*
X207645000Y-68771002D01*
X207668803Y-68741998D01*
X207913592Y-68497209D01*
X208133740Y-68541000D01*
X208426260Y-68541000D01*
X208713158Y-68483932D01*
X208983411Y-68371990D01*
X209226632Y-68209475D01*
X209433475Y-68002632D01*
X209555195Y-67820466D01*
X209624822Y-67937355D01*
X209819731Y-68153588D01*
X210053080Y-68327641D01*
X210315901Y-68452825D01*
X210463110Y-68497476D01*
X210693000Y-68376155D01*
X210693000Y-67183000D01*
X210947000Y-67183000D01*
X210947000Y-68376155D01*
X211176890Y-68497476D01*
X211324099Y-68452825D01*
X211586920Y-68327641D01*
X211820269Y-68153588D01*
X212015178Y-67937355D01*
X212164157Y-67687252D01*
X212261481Y-67412891D01*
X212140814Y-67183000D01*
X210947000Y-67183000D01*
X210693000Y-67183000D01*
X210673000Y-67183000D01*
X210673000Y-66929000D01*
X210693000Y-66929000D01*
X210693000Y-65735845D01*
X210947000Y-65735845D01*
X210947000Y-66929000D01*
X212140814Y-66929000D01*
X212261481Y-66699109D01*
X212164157Y-66424748D01*
X212015178Y-66174645D01*
X211820269Y-65958412D01*
X211586920Y-65784359D01*
X211324099Y-65659175D01*
X211176890Y-65614524D01*
X210947000Y-65735845D01*
X210693000Y-65735845D01*
X210463110Y-65614524D01*
X210315901Y-65659175D01*
X210053080Y-65784359D01*
X209819731Y-65958412D01*
X209624822Y-66174645D01*
X209555195Y-66291534D01*
X209433475Y-66109368D01*
X209226632Y-65902525D01*
X208983411Y-65740010D01*
X208713158Y-65628068D01*
X208426260Y-65571000D01*
X208133740Y-65571000D01*
X207846842Y-65628068D01*
X207576589Y-65740010D01*
X207333368Y-65902525D01*
X207201513Y-66034380D01*
X207179502Y-65961820D01*
X207120537Y-65851506D01*
X207067690Y-65787111D01*
X207913592Y-64941210D01*
X208133740Y-64985000D01*
X208426260Y-64985000D01*
X208713158Y-64927932D01*
X208983411Y-64815990D01*
X209226632Y-64653475D01*
X209433475Y-64446632D01*
X209555195Y-64264466D01*
X209624822Y-64381355D01*
X209819731Y-64597588D01*
X210053080Y-64771641D01*
X210315901Y-64896825D01*
X210463110Y-64941476D01*
X210693000Y-64820155D01*
X210693000Y-63627000D01*
X210947000Y-63627000D01*
X210947000Y-64820155D01*
X211176890Y-64941476D01*
X211324099Y-64896825D01*
X211586920Y-64771641D01*
X211820269Y-64597588D01*
X212015178Y-64381355D01*
X212164157Y-64131252D01*
X212261481Y-63856891D01*
X212140814Y-63627000D01*
X210947000Y-63627000D01*
X210693000Y-63627000D01*
X210673000Y-63627000D01*
X210673000Y-63373000D01*
X210693000Y-63373000D01*
X210693000Y-62179845D01*
X210947000Y-62179845D01*
X210947000Y-63373000D01*
X212140814Y-63373000D01*
X212261481Y-63143109D01*
X212164157Y-62868748D01*
X212015178Y-62618645D01*
X211820269Y-62402412D01*
X211586920Y-62228359D01*
X211324099Y-62103175D01*
X211176890Y-62058524D01*
X210947000Y-62179845D01*
X210693000Y-62179845D01*
X210463110Y-62058524D01*
X210315901Y-62103175D01*
X210053080Y-62228359D01*
X209819731Y-62402412D01*
X209624822Y-62618645D01*
X209555195Y-62735534D01*
X209433475Y-62553368D01*
X209226632Y-62346525D01*
X208983411Y-62184010D01*
X208713158Y-62072068D01*
X208426260Y-62015000D01*
X208133740Y-62015000D01*
X207846842Y-62072068D01*
X207576589Y-62184010D01*
X207333368Y-62346525D01*
X207201513Y-62478380D01*
X207179502Y-62405820D01*
X207120537Y-62295506D01*
X207041185Y-62198815D01*
X206944494Y-62119463D01*
X206834180Y-62060498D01*
X206714482Y-62024188D01*
X206590000Y-62011928D01*
X204890000Y-62011928D01*
X204765518Y-62024188D01*
X204645820Y-62060498D01*
X204535506Y-62119463D01*
X204438815Y-62198815D01*
X204359463Y-62295506D01*
X204300498Y-62405820D01*
X204264188Y-62525518D01*
X204251928Y-62650000D01*
X204251928Y-64350000D01*
X204264188Y-64474482D01*
X204277389Y-64518000D01*
X203999322Y-64518000D01*
X203961999Y-64514324D01*
X203924676Y-64518000D01*
X203924667Y-64518000D01*
X203813014Y-64528997D01*
X203669753Y-64572454D01*
X203537724Y-64643026D01*
X203421999Y-64737999D01*
X203398201Y-64766997D01*
X201165189Y-67000010D01*
X197816458Y-67000010D01*
X197944044Y-66931814D01*
X198039808Y-66667413D01*
X197084000Y-65711605D01*
X196128192Y-66667413D01*
X196223956Y-66931814D01*
X196364140Y-67000010D01*
X190914684Y-67000010D01*
X190935185Y-66983185D01*
X191014537Y-66886494D01*
X191073502Y-66776180D01*
X191109812Y-66656482D01*
X191122072Y-66532000D01*
X191122072Y-65594595D01*
X195442282Y-65594595D01*
X195486039Y-65913675D01*
X195591205Y-66218088D01*
X195684186Y-66392044D01*
X195948587Y-66487808D01*
X196904395Y-65532000D01*
X197263605Y-65532000D01*
X198219413Y-66487808D01*
X198483814Y-66392044D01*
X198624704Y-66102429D01*
X198706384Y-65790892D01*
X198725718Y-65469405D01*
X198681961Y-65150325D01*
X198576795Y-64845912D01*
X198483814Y-64671956D01*
X198219413Y-64576192D01*
X197263605Y-65532000D01*
X196904395Y-65532000D01*
X195948587Y-64576192D01*
X195684186Y-64671956D01*
X195543296Y-64961571D01*
X195461616Y-65273108D01*
X195442282Y-65594595D01*
X191122072Y-65594595D01*
X191122072Y-64532000D01*
X191109812Y-64407518D01*
X191106497Y-64396587D01*
X196128192Y-64396587D01*
X197084000Y-65352395D01*
X198039808Y-64396587D01*
X197944044Y-64132186D01*
X197654429Y-63991296D01*
X197342892Y-63909616D01*
X197021405Y-63890282D01*
X196702325Y-63934039D01*
X196397912Y-64039205D01*
X196223956Y-64132186D01*
X196128192Y-64396587D01*
X191106497Y-64396587D01*
X191073502Y-64287820D01*
X191014537Y-64177506D01*
X190935185Y-64080815D01*
X190838494Y-64001463D01*
X190728180Y-63942498D01*
X190608482Y-63906188D01*
X190484000Y-63893928D01*
X188484000Y-63893928D01*
X188359518Y-63906188D01*
X188239820Y-63942498D01*
X188129506Y-64001463D01*
X188032815Y-64080815D01*
X187953463Y-64177506D01*
X187894498Y-64287820D01*
X187858188Y-64407518D01*
X187845928Y-64532000D01*
X187845928Y-64837425D01*
X187734424Y-64897026D01*
X187618699Y-64991999D01*
X187523726Y-65107724D01*
X187455116Y-65236082D01*
X186141199Y-66550000D01*
X181809371Y-66550000D01*
X181865680Y-66465727D01*
X181973853Y-66204574D01*
X182029000Y-65927335D01*
X182029000Y-65644665D01*
X181973853Y-65367426D01*
X181865680Y-65106273D01*
X181708637Y-64871241D01*
X181508759Y-64671363D01*
X181273727Y-64514320D01*
X181012574Y-64406147D01*
X180735335Y-64351000D01*
X180452665Y-64351000D01*
X180175426Y-64406147D01*
X179914273Y-64514320D01*
X179679241Y-64671363D01*
X179554053Y-64796551D01*
X173664304Y-58906803D01*
X173640501Y-58877799D01*
X173524776Y-58782826D01*
X173392747Y-58712254D01*
X173249486Y-58668797D01*
X173137833Y-58657800D01*
X173137822Y-58657800D01*
X173100500Y-58654124D01*
X173063178Y-58657800D01*
X171234391Y-58657800D01*
X171269314Y-58573490D01*
X171323000Y-58303592D01*
X171323000Y-58103000D01*
X181657928Y-58103000D01*
X181670188Y-58227482D01*
X181706498Y-58347180D01*
X181765463Y-58457494D01*
X181844815Y-58554185D01*
X181941506Y-58633537D01*
X182051820Y-58692502D01*
X182171518Y-58728812D01*
X182296000Y-58741072D01*
X183610250Y-58738000D01*
X183769000Y-58579250D01*
X183769000Y-57630000D01*
X184023000Y-57630000D01*
X184023000Y-58579250D01*
X184181750Y-58738000D01*
X185496000Y-58741072D01*
X185620482Y-58728812D01*
X185740180Y-58692502D01*
X185850494Y-58633537D01*
X185947185Y-58554185D01*
X186026537Y-58457494D01*
X186085502Y-58347180D01*
X186121812Y-58227482D01*
X186134072Y-58103000D01*
X195627928Y-58103000D01*
X195640188Y-58227482D01*
X195676498Y-58347180D01*
X195735463Y-58457494D01*
X195814815Y-58554185D01*
X195911506Y-58633537D01*
X196021820Y-58692502D01*
X196141518Y-58728812D01*
X196266000Y-58741072D01*
X197580250Y-58738000D01*
X197739000Y-58579250D01*
X197739000Y-57630000D01*
X197993000Y-57630000D01*
X197993000Y-58579250D01*
X198151750Y-58738000D01*
X199466000Y-58741072D01*
X199590482Y-58728812D01*
X199710180Y-58692502D01*
X199820494Y-58633537D01*
X199917185Y-58554185D01*
X199996537Y-58457494D01*
X200055502Y-58347180D01*
X200091812Y-58227482D01*
X200104072Y-58103000D01*
X209597928Y-58103000D01*
X209610188Y-58227482D01*
X209646498Y-58347180D01*
X209705463Y-58457494D01*
X209784815Y-58554185D01*
X209881506Y-58633537D01*
X209991820Y-58692502D01*
X210111518Y-58728812D01*
X210236000Y-58741072D01*
X211550250Y-58738000D01*
X211709000Y-58579250D01*
X211709000Y-57630000D01*
X211963000Y-57630000D01*
X211963000Y-58579250D01*
X212121750Y-58738000D01*
X213436000Y-58741072D01*
X213560482Y-58728812D01*
X213680180Y-58692502D01*
X213790494Y-58633537D01*
X213887185Y-58554185D01*
X213966537Y-58457494D01*
X214025502Y-58347180D01*
X214061812Y-58227482D01*
X214074072Y-58103000D01*
X223567928Y-58103000D01*
X223580188Y-58227482D01*
X223616498Y-58347180D01*
X223675463Y-58457494D01*
X223754815Y-58554185D01*
X223851506Y-58633537D01*
X223961820Y-58692502D01*
X224081518Y-58728812D01*
X224206000Y-58741072D01*
X225520250Y-58738000D01*
X225679000Y-58579250D01*
X225679000Y-57630000D01*
X225933000Y-57630000D01*
X225933000Y-58579250D01*
X226091750Y-58738000D01*
X227406000Y-58741072D01*
X227530482Y-58728812D01*
X227650180Y-58692502D01*
X227760494Y-58633537D01*
X227857185Y-58554185D01*
X227936537Y-58457494D01*
X227995502Y-58347180D01*
X228031812Y-58227482D01*
X228044072Y-58103000D01*
X237537928Y-58103000D01*
X237550188Y-58227482D01*
X237586498Y-58347180D01*
X237645463Y-58457494D01*
X237724815Y-58554185D01*
X237821506Y-58633537D01*
X237931820Y-58692502D01*
X238051518Y-58728812D01*
X238176000Y-58741072D01*
X239490250Y-58738000D01*
X239649000Y-58579250D01*
X239649000Y-57630000D01*
X239903000Y-57630000D01*
X239903000Y-58579250D01*
X240061750Y-58738000D01*
X241376000Y-58741072D01*
X241500482Y-58728812D01*
X241620180Y-58692502D01*
X241730494Y-58633537D01*
X241827185Y-58554185D01*
X241906537Y-58457494D01*
X241965502Y-58347180D01*
X242001812Y-58227482D01*
X242014072Y-58103000D01*
X251507928Y-58103000D01*
X251520188Y-58227482D01*
X251556498Y-58347180D01*
X251615463Y-58457494D01*
X251694815Y-58554185D01*
X251791506Y-58633537D01*
X251901820Y-58692502D01*
X252021518Y-58728812D01*
X252146000Y-58741072D01*
X253460250Y-58738000D01*
X253619000Y-58579250D01*
X253619000Y-57630000D01*
X253873000Y-57630000D01*
X253873000Y-58579250D01*
X254031750Y-58738000D01*
X255346000Y-58741072D01*
X255470482Y-58728812D01*
X255590180Y-58692502D01*
X255700494Y-58633537D01*
X255797185Y-58554185D01*
X255876537Y-58457494D01*
X255935502Y-58347180D01*
X255971812Y-58227482D01*
X255984072Y-58103000D01*
X255981000Y-57788750D01*
X255822250Y-57630000D01*
X253873000Y-57630000D01*
X253619000Y-57630000D01*
X251669750Y-57630000D01*
X251511000Y-57788750D01*
X251507928Y-58103000D01*
X242014072Y-58103000D01*
X242011000Y-57788750D01*
X241852250Y-57630000D01*
X239903000Y-57630000D01*
X239649000Y-57630000D01*
X237699750Y-57630000D01*
X237541000Y-57788750D01*
X237537928Y-58103000D01*
X228044072Y-58103000D01*
X228041000Y-57788750D01*
X227882250Y-57630000D01*
X225933000Y-57630000D01*
X225679000Y-57630000D01*
X223729750Y-57630000D01*
X223571000Y-57788750D01*
X223567928Y-58103000D01*
X214074072Y-58103000D01*
X214071000Y-57788750D01*
X213912250Y-57630000D01*
X211963000Y-57630000D01*
X211709000Y-57630000D01*
X209759750Y-57630000D01*
X209601000Y-57788750D01*
X209597928Y-58103000D01*
X200104072Y-58103000D01*
X200101000Y-57788750D01*
X199942250Y-57630000D01*
X197993000Y-57630000D01*
X197739000Y-57630000D01*
X195789750Y-57630000D01*
X195631000Y-57788750D01*
X195627928Y-58103000D01*
X186134072Y-58103000D01*
X186131000Y-57788750D01*
X185972250Y-57630000D01*
X184023000Y-57630000D01*
X183769000Y-57630000D01*
X181819750Y-57630000D01*
X181661000Y-57788750D01*
X181657928Y-58103000D01*
X171323000Y-58103000D01*
X171323000Y-58028408D01*
X171292372Y-57874429D01*
X172263801Y-56903000D01*
X181657928Y-56903000D01*
X181661000Y-57217250D01*
X181819750Y-57376000D01*
X183769000Y-57376000D01*
X183769000Y-56426750D01*
X184023000Y-56426750D01*
X184023000Y-57376000D01*
X185972250Y-57376000D01*
X186131000Y-57217250D01*
X186134072Y-56903000D01*
X186121812Y-56778518D01*
X186085502Y-56658820D01*
X186026537Y-56548506D01*
X185947185Y-56451815D01*
X185850494Y-56372463D01*
X185740180Y-56313498D01*
X185620482Y-56277188D01*
X185496000Y-56264928D01*
X184181750Y-56268000D01*
X184023000Y-56426750D01*
X183769000Y-56426750D01*
X183610250Y-56268000D01*
X182296000Y-56264928D01*
X182171518Y-56277188D01*
X182051820Y-56313498D01*
X181941506Y-56372463D01*
X181844815Y-56451815D01*
X181765463Y-56548506D01*
X181706498Y-56658820D01*
X181670188Y-56778518D01*
X181657928Y-56903000D01*
X172263801Y-56903000D01*
X176003802Y-53163000D01*
X186396000Y-53163000D01*
X186396000Y-53286439D01*
G36*
X187585114Y-46727201D02*
G01*
X187392201Y-46920114D01*
X187240629Y-47146957D01*
X187136225Y-47399011D01*
X187083000Y-47666589D01*
X187083000Y-47939411D01*
X187136225Y-48206989D01*
X187240629Y-48459043D01*
X187392201Y-48685886D01*
X187585114Y-48878799D01*
X187811957Y-49030371D01*
X188064011Y-49134775D01*
X188331589Y-49188000D01*
X188604411Y-49188000D01*
X188871989Y-49134775D01*
X189124043Y-49030371D01*
X189350886Y-48878799D01*
X189543799Y-48685886D01*
X189695371Y-48459043D01*
X189799775Y-48206989D01*
X189853000Y-47939411D01*
X189853000Y-47666589D01*
X189799775Y-47399011D01*
X189695371Y-47146957D01*
X189543799Y-46920114D01*
X189350886Y-46727201D01*
X189211401Y-46634000D01*
X201694599Y-46634000D01*
X201555114Y-46727201D01*
X201362201Y-46920114D01*
X201210629Y-47146957D01*
X201106225Y-47399011D01*
X201053000Y-47666589D01*
X201053000Y-47939411D01*
X201106225Y-48206989D01*
X201210629Y-48459043D01*
X201333545Y-48643000D01*
X195152672Y-48643000D01*
X195119978Y-48581835D01*
X195003317Y-48439683D01*
X194861165Y-48323022D01*
X194698985Y-48236334D01*
X194523009Y-48182953D01*
X194340000Y-48164928D01*
X191740000Y-48164928D01*
X191556991Y-48182953D01*
X191381015Y-48236334D01*
X191218835Y-48323022D01*
X191076683Y-48439683D01*
X190960022Y-48581835D01*
X190873334Y-48744015D01*
X190819953Y-48919991D01*
X190801928Y-49103000D01*
X190801928Y-49703000D01*
X190819953Y-49886009D01*
X190873334Y-50061985D01*
X190960022Y-50224165D01*
X191042966Y-50325233D01*
X190175599Y-51192600D01*
X181879402Y-51192600D01*
X181973853Y-50964574D01*
X182029000Y-50687335D01*
X182029000Y-50404665D01*
X181973853Y-50127426D01*
X181865680Y-49866273D01*
X181708637Y-49631241D01*
X181508759Y-49431363D01*
X181273727Y-49274320D01*
X181012574Y-49166147D01*
X180735335Y-49111000D01*
X180452665Y-49111000D01*
X180175426Y-49166147D01*
X179914273Y-49274320D01*
X179679241Y-49431363D01*
X179479363Y-49631241D01*
X179375957Y-49786000D01*
X178002043Y-49786000D01*
X177898637Y-49631241D01*
X177698759Y-49431363D01*
X177463727Y-49274320D01*
X177202574Y-49166147D01*
X176925335Y-49111000D01*
X176642665Y-49111000D01*
X176365426Y-49166147D01*
X176104273Y-49274320D01*
X175869241Y-49431363D01*
X175669363Y-49631241D01*
X175512320Y-49866273D01*
X175404147Y-50127426D01*
X175349000Y-50404665D01*
X175349000Y-50687335D01*
X175404147Y-50964574D01*
X175498598Y-51192600D01*
X175199922Y-51192600D01*
X175162599Y-51188924D01*
X175125276Y-51192600D01*
X175125267Y-51192600D01*
X175013614Y-51203597D01*
X174870353Y-51247054D01*
X174738324Y-51317626D01*
X174738322Y-51317627D01*
X174738323Y-51317627D01*
X174651596Y-51388801D01*
X174651592Y-51388805D01*
X174622599Y-51412599D01*
X174598805Y-51441592D01*
X172952399Y-53088000D01*
X169709323Y-53088000D01*
X169672000Y-53084324D01*
X169634677Y-53088000D01*
X169634667Y-53088000D01*
X169523014Y-53098997D01*
X169379753Y-53142454D01*
X169247723Y-53213026D01*
X169164083Y-53281668D01*
X169131999Y-53307999D01*
X169108201Y-53336997D01*
X165097002Y-57348197D01*
X165067999Y-57371999D01*
X165040095Y-57406000D01*
X155858341Y-57406000D01*
X155771120Y-57275465D01*
X155576535Y-57080880D01*
X155347727Y-56927995D01*
X155093490Y-56822686D01*
X154823592Y-56769000D01*
X154548408Y-56769000D01*
X154278510Y-56822686D01*
X154024273Y-56927995D01*
X153795465Y-57080880D01*
X153600880Y-57275465D01*
X153447995Y-57504273D01*
X153342686Y-57758510D01*
X153289000Y-58028408D01*
X153289000Y-58303592D01*
X153342686Y-58573490D01*
X153447995Y-58827727D01*
X153600880Y-59056535D01*
X153795465Y-59251120D01*
X154024273Y-59404005D01*
X154101515Y-59436000D01*
X154024273Y-59467995D01*
X153795465Y-59620880D01*
X153600880Y-59815465D01*
X153447995Y-60044273D01*
X153342686Y-60298510D01*
X153289000Y-60568408D01*
X153289000Y-60843592D01*
X153342686Y-61113490D01*
X153447995Y-61367727D01*
X153600880Y-61596535D01*
X153795465Y-61791120D01*
X154024273Y-61944005D01*
X154101515Y-61976000D01*
X154024273Y-62007995D01*
X153795465Y-62160880D01*
X153600880Y-62355465D01*
X153447995Y-62584273D01*
X153342686Y-62838510D01*
X153289000Y-63108408D01*
X153289000Y-63383592D01*
X153342686Y-63653490D01*
X153447995Y-63907727D01*
X153600880Y-64136535D01*
X153795465Y-64331120D01*
X154024273Y-64484005D01*
X154095943Y-64513692D01*
X154082977Y-64518364D01*
X153967020Y-64580344D01*
X153900040Y-64820435D01*
X154686000Y-65606395D01*
X155471960Y-64820435D01*
X155404980Y-64580344D01*
X155269240Y-64516515D01*
X155347727Y-64484005D01*
X155576535Y-64331120D01*
X155771120Y-64136535D01*
X155924005Y-63907727D01*
X156029314Y-63653490D01*
X156083000Y-63383592D01*
X156083000Y-63108408D01*
X156029314Y-62838510D01*
X155924005Y-62584273D01*
X155771120Y-62355465D01*
X155576535Y-62160880D01*
X155347727Y-62007995D01*
X155270485Y-61976000D01*
X155347727Y-61944005D01*
X155576535Y-61791120D01*
X155675242Y-61692413D01*
X159192829Y-65210001D01*
X159216628Y-65239000D01*
X159332353Y-65333973D01*
X159464382Y-65404545D01*
X159607643Y-65448002D01*
X159719296Y-65458999D01*
X159719305Y-65458999D01*
X159756628Y-65462675D01*
X159793951Y-65458999D01*
X168566676Y-65458999D01*
X168529000Y-65648408D01*
X168529000Y-65923592D01*
X168582686Y-66193490D01*
X168687995Y-66447727D01*
X168840880Y-66676535D01*
X169035465Y-66871120D01*
X169264273Y-67024005D01*
X169518510Y-67129314D01*
X169788408Y-67183000D01*
X170063592Y-67183000D01*
X170217571Y-67152372D01*
X176065198Y-73000000D01*
X150654281Y-73000000D01*
X150553469Y-72990115D01*
X150487542Y-72970211D01*
X150426745Y-72937885D01*
X150373382Y-72894362D01*
X150329485Y-72841300D01*
X150296734Y-72780727D01*
X150276372Y-72714947D01*
X150266000Y-72616269D01*
X150266000Y-66751565D01*
X153900040Y-66751565D01*
X153967020Y-66991656D01*
X154216048Y-67108756D01*
X154483135Y-67175023D01*
X154758017Y-67187910D01*
X155030133Y-67146922D01*
X155289023Y-67053636D01*
X155404980Y-66991656D01*
X155471960Y-66751565D01*
X154686000Y-65965605D01*
X153900040Y-66751565D01*
X150266000Y-66751565D01*
X150266000Y-65858017D01*
X153284090Y-65858017D01*
X153325078Y-66130133D01*
X153418364Y-66389023D01*
X153480344Y-66504980D01*
X153720435Y-66571960D01*
X154506395Y-65786000D01*
X154865605Y-65786000D01*
X155651565Y-66571960D01*
X155891656Y-66504980D01*
X156008756Y-66255952D01*
X156075023Y-65988865D01*
X156087910Y-65713983D01*
X156046922Y-65441867D01*
X155953636Y-65182977D01*
X155891656Y-65067020D01*
X155651565Y-65000040D01*
X154865605Y-65786000D01*
X154506395Y-65786000D01*
X153720435Y-65000040D01*
X153480344Y-65067020D01*
X153363244Y-65316048D01*
X153296977Y-65583135D01*
X153284090Y-65858017D01*
X150266000Y-65858017D01*
X150266000Y-47022281D01*
X150275885Y-46921467D01*
X150295789Y-46855543D01*
X150328115Y-46794745D01*
X150371639Y-46741381D01*
X150424696Y-46697488D01*
X150485271Y-46664734D01*
X150551053Y-46644372D01*
X150649730Y-46634000D01*
X187724599Y-46634000D01*
X187585114Y-46727201D01*
G37*
X187585114Y-46727201D02*
X187392201Y-46920114D01*
X187240629Y-47146957D01*
X187136225Y-47399011D01*
X187083000Y-47666589D01*
X187083000Y-47939411D01*
X187136225Y-48206989D01*
X187240629Y-48459043D01*
X187392201Y-48685886D01*
X187585114Y-48878799D01*
X187811957Y-49030371D01*
X188064011Y-49134775D01*
X188331589Y-49188000D01*
X188604411Y-49188000D01*
X188871989Y-49134775D01*
X189124043Y-49030371D01*
X189350886Y-48878799D01*
X189543799Y-48685886D01*
X189695371Y-48459043D01*
X189799775Y-48206989D01*
X189853000Y-47939411D01*
X189853000Y-47666589D01*
X189799775Y-47399011D01*
X189695371Y-47146957D01*
X189543799Y-46920114D01*
X189350886Y-46727201D01*
X189211401Y-46634000D01*
X201694599Y-46634000D01*
X201555114Y-46727201D01*
X201362201Y-46920114D01*
X201210629Y-47146957D01*
X201106225Y-47399011D01*
X201053000Y-47666589D01*
X201053000Y-47939411D01*
X201106225Y-48206989D01*
X201210629Y-48459043D01*
X201333545Y-48643000D01*
X195152672Y-48643000D01*
X195119978Y-48581835D01*
X195003317Y-48439683D01*
X194861165Y-48323022D01*
X194698985Y-48236334D01*
X194523009Y-48182953D01*
X194340000Y-48164928D01*
X191740000Y-48164928D01*
X191556991Y-48182953D01*
X191381015Y-48236334D01*
X191218835Y-48323022D01*
X191076683Y-48439683D01*
X190960022Y-48581835D01*
X190873334Y-48744015D01*
X190819953Y-48919991D01*
X190801928Y-49103000D01*
X190801928Y-49703000D01*
X190819953Y-49886009D01*
X190873334Y-50061985D01*
X190960022Y-50224165D01*
X191042966Y-50325233D01*
X190175599Y-51192600D01*
X181879402Y-51192600D01*
X181973853Y-50964574D01*
X182029000Y-50687335D01*
X182029000Y-50404665D01*
X181973853Y-50127426D01*
X181865680Y-49866273D01*
X181708637Y-49631241D01*
X181508759Y-49431363D01*
X181273727Y-49274320D01*
X181012574Y-49166147D01*
X180735335Y-49111000D01*
X180452665Y-49111000D01*
X180175426Y-49166147D01*
X179914273Y-49274320D01*
X179679241Y-49431363D01*
X179479363Y-49631241D01*
X179375957Y-49786000D01*
X178002043Y-49786000D01*
X177898637Y-49631241D01*
X177698759Y-49431363D01*
X177463727Y-49274320D01*
X177202574Y-49166147D01*
X176925335Y-49111000D01*
X176642665Y-49111000D01*
X176365426Y-49166147D01*
X176104273Y-49274320D01*
X175869241Y-49431363D01*
X175669363Y-49631241D01*
X175512320Y-49866273D01*
X175404147Y-50127426D01*
X175349000Y-50404665D01*
X175349000Y-50687335D01*
X175404147Y-50964574D01*
X175498598Y-51192600D01*
X175199922Y-51192600D01*
X175162599Y-51188924D01*
X175125276Y-51192600D01*
X175125267Y-51192600D01*
X175013614Y-51203597D01*
X174870353Y-51247054D01*
X174738324Y-51317626D01*
X174738322Y-51317627D01*
X174738323Y-51317627D01*
X174651596Y-51388801D01*
X174651592Y-51388805D01*
X174622599Y-51412599D01*
X174598805Y-51441592D01*
X172952399Y-53088000D01*
X169709323Y-53088000D01*
X169672000Y-53084324D01*
X169634677Y-53088000D01*
X169634667Y-53088000D01*
X169523014Y-53098997D01*
X169379753Y-53142454D01*
X169247723Y-53213026D01*
X169164083Y-53281668D01*
X169131999Y-53307999D01*
X169108201Y-53336997D01*
X165097002Y-57348197D01*
X165067999Y-57371999D01*
X165040095Y-57406000D01*
X155858341Y-57406000D01*
X155771120Y-57275465D01*
X155576535Y-57080880D01*
X155347727Y-56927995D01*
X155093490Y-56822686D01*
X154823592Y-56769000D01*
X154548408Y-56769000D01*
X154278510Y-56822686D01*
X154024273Y-56927995D01*
X153795465Y-57080880D01*
X153600880Y-57275465D01*
X153447995Y-57504273D01*
X153342686Y-57758510D01*
X153289000Y-58028408D01*
X153289000Y-58303592D01*
X153342686Y-58573490D01*
X153447995Y-58827727D01*
X153600880Y-59056535D01*
X153795465Y-59251120D01*
X154024273Y-59404005D01*
X154101515Y-59436000D01*
X154024273Y-59467995D01*
X153795465Y-59620880D01*
X153600880Y-59815465D01*
X153447995Y-60044273D01*
X153342686Y-60298510D01*
X153289000Y-60568408D01*
X153289000Y-60843592D01*
X153342686Y-61113490D01*
X153447995Y-61367727D01*
X153600880Y-61596535D01*
X153795465Y-61791120D01*
X154024273Y-61944005D01*
X154101515Y-61976000D01*
X154024273Y-62007995D01*
X153795465Y-62160880D01*
X153600880Y-62355465D01*
X153447995Y-62584273D01*
X153342686Y-62838510D01*
X153289000Y-63108408D01*
X153289000Y-63383592D01*
X153342686Y-63653490D01*
X153447995Y-63907727D01*
X153600880Y-64136535D01*
X153795465Y-64331120D01*
X154024273Y-64484005D01*
X154095943Y-64513692D01*
X154082977Y-64518364D01*
X153967020Y-64580344D01*
X153900040Y-64820435D01*
X154686000Y-65606395D01*
X155471960Y-64820435D01*
X155404980Y-64580344D01*
X155269240Y-64516515D01*
X155347727Y-64484005D01*
X155576535Y-64331120D01*
X155771120Y-64136535D01*
X155924005Y-63907727D01*
X156029314Y-63653490D01*
X156083000Y-63383592D01*
X156083000Y-63108408D01*
X156029314Y-62838510D01*
X155924005Y-62584273D01*
X155771120Y-62355465D01*
X155576535Y-62160880D01*
X155347727Y-62007995D01*
X155270485Y-61976000D01*
X155347727Y-61944005D01*
X155576535Y-61791120D01*
X155675242Y-61692413D01*
X159192829Y-65210001D01*
X159216628Y-65239000D01*
X159332353Y-65333973D01*
X159464382Y-65404545D01*
X159607643Y-65448002D01*
X159719296Y-65458999D01*
X159719305Y-65458999D01*
X159756628Y-65462675D01*
X159793951Y-65458999D01*
X168566676Y-65458999D01*
X168529000Y-65648408D01*
X168529000Y-65923592D01*
X168582686Y-66193490D01*
X168687995Y-66447727D01*
X168840880Y-66676535D01*
X169035465Y-66871120D01*
X169264273Y-67024005D01*
X169518510Y-67129314D01*
X169788408Y-67183000D01*
X170063592Y-67183000D01*
X170217571Y-67152372D01*
X176065198Y-73000000D01*
X150654281Y-73000000D01*
X150553469Y-72990115D01*
X150487542Y-72970211D01*
X150426745Y-72937885D01*
X150373382Y-72894362D01*
X150329485Y-72841300D01*
X150296734Y-72780727D01*
X150276372Y-72714947D01*
X150266000Y-72616269D01*
X150266000Y-66751565D01*
X153900040Y-66751565D01*
X153967020Y-66991656D01*
X154216048Y-67108756D01*
X154483135Y-67175023D01*
X154758017Y-67187910D01*
X155030133Y-67146922D01*
X155289023Y-67053636D01*
X155404980Y-66991656D01*
X155471960Y-66751565D01*
X154686000Y-65965605D01*
X153900040Y-66751565D01*
X150266000Y-66751565D01*
X150266000Y-65858017D01*
X153284090Y-65858017D01*
X153325078Y-66130133D01*
X153418364Y-66389023D01*
X153480344Y-66504980D01*
X153720435Y-66571960D01*
X154506395Y-65786000D01*
X154865605Y-65786000D01*
X155651565Y-66571960D01*
X155891656Y-66504980D01*
X156008756Y-66255952D01*
X156075023Y-65988865D01*
X156087910Y-65713983D01*
X156046922Y-65441867D01*
X155953636Y-65182977D01*
X155891656Y-65067020D01*
X155651565Y-65000040D01*
X154865605Y-65786000D01*
X154506395Y-65786000D01*
X153720435Y-65000040D01*
X153480344Y-65067020D01*
X153363244Y-65316048D01*
X153296977Y-65583135D01*
X153284090Y-65858017D01*
X150266000Y-65858017D01*
X150266000Y-47022281D01*
X150275885Y-46921467D01*
X150295789Y-46855543D01*
X150328115Y-46794745D01*
X150371639Y-46741381D01*
X150424696Y-46697488D01*
X150485271Y-46664734D01*
X150551053Y-46644372D01*
X150649730Y-46634000D01*
X187724599Y-46634000D01*
X187585114Y-46727201D01*
G36*
X185359199Y-71630000D02*
G01*
X178115800Y-71630000D01*
X177061872Y-70576072D01*
X177634000Y-70576072D01*
X177758482Y-70563812D01*
X177878180Y-70527502D01*
X177988494Y-70468537D01*
X178085185Y-70389185D01*
X178164537Y-70292494D01*
X178223502Y-70182180D01*
X178245513Y-70109620D01*
X178377368Y-70241475D01*
X178620589Y-70403990D01*
X178890842Y-70515932D01*
X179177740Y-70573000D01*
X179470260Y-70573000D01*
X179757158Y-70515932D01*
X180027411Y-70403990D01*
X180270632Y-70241475D01*
X180477475Y-70034632D01*
X180594000Y-69860240D01*
X180710525Y-70034632D01*
X180917368Y-70241475D01*
X181160589Y-70403990D01*
X181430842Y-70515932D01*
X181717740Y-70573000D01*
X182010260Y-70573000D01*
X182297158Y-70515932D01*
X182567411Y-70403990D01*
X182810632Y-70241475D01*
X183017475Y-70034632D01*
X183139195Y-69852466D01*
X183208822Y-69969355D01*
X183403731Y-70185588D01*
X183637080Y-70359641D01*
X183899901Y-70484825D01*
X184047110Y-70529476D01*
X184277000Y-70408155D01*
X184277000Y-69215000D01*
X184531000Y-69215000D01*
X184531000Y-70408155D01*
X184760890Y-70529476D01*
X184908099Y-70484825D01*
X185170920Y-70359641D01*
X185404269Y-70185588D01*
X185599178Y-69969355D01*
X185748157Y-69719252D01*
X185845481Y-69444891D01*
X185724814Y-69215000D01*
X184531000Y-69215000D01*
X184277000Y-69215000D01*
X184257000Y-69215000D01*
X184257000Y-68961000D01*
X184277000Y-68961000D01*
X184277000Y-68941000D01*
X184531000Y-68941000D01*
X184531000Y-68961000D01*
X185724814Y-68961000D01*
X185845481Y-68731109D01*
X185770598Y-68520010D01*
X188469188Y-68520010D01*
X185359199Y-71630000D01*
G37*
X185359199Y-71630000D02*
X178115800Y-71630000D01*
X177061872Y-70576072D01*
X177634000Y-70576072D01*
X177758482Y-70563812D01*
X177878180Y-70527502D01*
X177988494Y-70468537D01*
X178085185Y-70389185D01*
X178164537Y-70292494D01*
X178223502Y-70182180D01*
X178245513Y-70109620D01*
X178377368Y-70241475D01*
X178620589Y-70403990D01*
X178890842Y-70515932D01*
X179177740Y-70573000D01*
X179470260Y-70573000D01*
X179757158Y-70515932D01*
X180027411Y-70403990D01*
X180270632Y-70241475D01*
X180477475Y-70034632D01*
X180594000Y-69860240D01*
X180710525Y-70034632D01*
X180917368Y-70241475D01*
X181160589Y-70403990D01*
X181430842Y-70515932D01*
X181717740Y-70573000D01*
X182010260Y-70573000D01*
X182297158Y-70515932D01*
X182567411Y-70403990D01*
X182810632Y-70241475D01*
X183017475Y-70034632D01*
X183139195Y-69852466D01*
X183208822Y-69969355D01*
X183403731Y-70185588D01*
X183637080Y-70359641D01*
X183899901Y-70484825D01*
X184047110Y-70529476D01*
X184277000Y-70408155D01*
X184277000Y-69215000D01*
X184531000Y-69215000D01*
X184531000Y-70408155D01*
X184760890Y-70529476D01*
X184908099Y-70484825D01*
X185170920Y-70359641D01*
X185404269Y-70185588D01*
X185599178Y-69969355D01*
X185748157Y-69719252D01*
X185845481Y-69444891D01*
X185724814Y-69215000D01*
X184531000Y-69215000D01*
X184277000Y-69215000D01*
X184257000Y-69215000D01*
X184257000Y-68961000D01*
X184277000Y-68961000D01*
X184277000Y-68941000D01*
X184531000Y-68941000D01*
X184531000Y-68961000D01*
X185724814Y-68961000D01*
X185845481Y-68731109D01*
X185770598Y-68520010D01*
X188469188Y-68520010D01*
X185359199Y-71630000D01*
M02*
