G04 #@! TF.GenerationSoftware,KiCad,Pcbnew,(5.1.5)-3*
G04 #@! TF.CreationDate,2020-12-21T11:55:10+01:00*
G04 #@! TF.ProjectId,epimetheus,6570696d-6574-4686-9575-732e6b696361,rev?*
G04 #@! TF.SameCoordinates,Original*
G04 #@! TF.FileFunction,Paste,Top*
G04 #@! TF.FilePolarity,Positive*
%FSLAX46Y46*%
G04 Gerber Fmt 4.6, Leading zero omitted, Abs format (unit mm)*
G04 Created by KiCad (PCBNEW (5.1.5)-3) date 2020-12-21 11:55:10*
%MOMM*%
%LPD*%
G04 APERTURE LIST*
%ADD10C,0.100000*%
G04 APERTURE END LIST*
D10*
G36*
X250249405Y-48804445D02*
G01*
X250278527Y-48808764D01*
X250307085Y-48815918D01*
X250334805Y-48825836D01*
X250361419Y-48838424D01*
X250386671Y-48853559D01*
X250410318Y-48871097D01*
X250432132Y-48890868D01*
X250451903Y-48912682D01*
X250469441Y-48936329D01*
X250484576Y-48961581D01*
X250497164Y-48988195D01*
X250507082Y-49015915D01*
X250514236Y-49044473D01*
X250518555Y-49073595D01*
X250520000Y-49103000D01*
X250520000Y-49703000D01*
X250518555Y-49732405D01*
X250514236Y-49761527D01*
X250507082Y-49790085D01*
X250497164Y-49817805D01*
X250484576Y-49844419D01*
X250469441Y-49869671D01*
X250451903Y-49893318D01*
X250432132Y-49915132D01*
X250410318Y-49934903D01*
X250386671Y-49952441D01*
X250361419Y-49967576D01*
X250334805Y-49980164D01*
X250307085Y-49990082D01*
X250278527Y-49997236D01*
X250249405Y-50001555D01*
X250220000Y-50003000D01*
X247620000Y-50003000D01*
X247590595Y-50001555D01*
X247561473Y-49997236D01*
X247532915Y-49990082D01*
X247505195Y-49980164D01*
X247478581Y-49967576D01*
X247453329Y-49952441D01*
X247429682Y-49934903D01*
X247407868Y-49915132D01*
X247388097Y-49893318D01*
X247370559Y-49869671D01*
X247355424Y-49844419D01*
X247342836Y-49817805D01*
X247332918Y-49790085D01*
X247325764Y-49761527D01*
X247321445Y-49732405D01*
X247320000Y-49703000D01*
X247320000Y-49103000D01*
X247321445Y-49073595D01*
X247325764Y-49044473D01*
X247332918Y-49015915D01*
X247342836Y-48988195D01*
X247355424Y-48961581D01*
X247370559Y-48936329D01*
X247388097Y-48912682D01*
X247407868Y-48890868D01*
X247429682Y-48871097D01*
X247453329Y-48853559D01*
X247478581Y-48838424D01*
X247505195Y-48825836D01*
X247532915Y-48815918D01*
X247561473Y-48808764D01*
X247590595Y-48804445D01*
X247620000Y-48803000D01*
X250220000Y-48803000D01*
X250249405Y-48804445D01*
G37*
G36*
X250249405Y-51804445D02*
G01*
X250278527Y-51808764D01*
X250307085Y-51815918D01*
X250334805Y-51825836D01*
X250361419Y-51838424D01*
X250386671Y-51853559D01*
X250410318Y-51871097D01*
X250432132Y-51890868D01*
X250451903Y-51912682D01*
X250469441Y-51936329D01*
X250484576Y-51961581D01*
X250497164Y-51988195D01*
X250507082Y-52015915D01*
X250514236Y-52044473D01*
X250518555Y-52073595D01*
X250520000Y-52103000D01*
X250520000Y-52703000D01*
X250518555Y-52732405D01*
X250514236Y-52761527D01*
X250507082Y-52790085D01*
X250497164Y-52817805D01*
X250484576Y-52844419D01*
X250469441Y-52869671D01*
X250451903Y-52893318D01*
X250432132Y-52915132D01*
X250410318Y-52934903D01*
X250386671Y-52952441D01*
X250361419Y-52967576D01*
X250334805Y-52980164D01*
X250307085Y-52990082D01*
X250278527Y-52997236D01*
X250249405Y-53001555D01*
X250220000Y-53003000D01*
X247620000Y-53003000D01*
X247590595Y-53001555D01*
X247561473Y-52997236D01*
X247532915Y-52990082D01*
X247505195Y-52980164D01*
X247478581Y-52967576D01*
X247453329Y-52952441D01*
X247429682Y-52934903D01*
X247407868Y-52915132D01*
X247388097Y-52893318D01*
X247370559Y-52869671D01*
X247355424Y-52844419D01*
X247342836Y-52817805D01*
X247332918Y-52790085D01*
X247325764Y-52761527D01*
X247321445Y-52732405D01*
X247320000Y-52703000D01*
X247320000Y-52103000D01*
X247321445Y-52073595D01*
X247325764Y-52044473D01*
X247332918Y-52015915D01*
X247342836Y-51988195D01*
X247355424Y-51961581D01*
X247370559Y-51936329D01*
X247388097Y-51912682D01*
X247407868Y-51890868D01*
X247429682Y-51871097D01*
X247453329Y-51853559D01*
X247478581Y-51838424D01*
X247505195Y-51825836D01*
X247532915Y-51815918D01*
X247561473Y-51808764D01*
X247590595Y-51804445D01*
X247620000Y-51803000D01*
X250220000Y-51803000D01*
X250249405Y-51804445D01*
G37*
G36*
X250249405Y-55789445D02*
G01*
X250278527Y-55793764D01*
X250307085Y-55800918D01*
X250334805Y-55810836D01*
X250361419Y-55823424D01*
X250386671Y-55838559D01*
X250410318Y-55856097D01*
X250432132Y-55875868D01*
X250451903Y-55897682D01*
X250469441Y-55921329D01*
X250484576Y-55946581D01*
X250497164Y-55973195D01*
X250507082Y-56000915D01*
X250514236Y-56029473D01*
X250518555Y-56058595D01*
X250520000Y-56088000D01*
X250520000Y-56688000D01*
X250518555Y-56717405D01*
X250514236Y-56746527D01*
X250507082Y-56775085D01*
X250497164Y-56802805D01*
X250484576Y-56829419D01*
X250469441Y-56854671D01*
X250451903Y-56878318D01*
X250432132Y-56900132D01*
X250410318Y-56919903D01*
X250386671Y-56937441D01*
X250361419Y-56952576D01*
X250334805Y-56965164D01*
X250307085Y-56975082D01*
X250278527Y-56982236D01*
X250249405Y-56986555D01*
X250220000Y-56988000D01*
X247620000Y-56988000D01*
X247590595Y-56986555D01*
X247561473Y-56982236D01*
X247532915Y-56975082D01*
X247505195Y-56965164D01*
X247478581Y-56952576D01*
X247453329Y-56937441D01*
X247429682Y-56919903D01*
X247407868Y-56900132D01*
X247388097Y-56878318D01*
X247370559Y-56854671D01*
X247355424Y-56829419D01*
X247342836Y-56802805D01*
X247332918Y-56775085D01*
X247325764Y-56746527D01*
X247321445Y-56717405D01*
X247320000Y-56688000D01*
X247320000Y-56088000D01*
X247321445Y-56058595D01*
X247325764Y-56029473D01*
X247332918Y-56000915D01*
X247342836Y-55973195D01*
X247355424Y-55946581D01*
X247370559Y-55921329D01*
X247388097Y-55897682D01*
X247407868Y-55875868D01*
X247429682Y-55856097D01*
X247453329Y-55838559D01*
X247478581Y-55823424D01*
X247505195Y-55810836D01*
X247532915Y-55800918D01*
X247561473Y-55793764D01*
X247590595Y-55789445D01*
X247620000Y-55788000D01*
X250220000Y-55788000D01*
X250249405Y-55789445D01*
G37*
G36*
X241105405Y-56904445D02*
G01*
X241134527Y-56908764D01*
X241163085Y-56915918D01*
X241190805Y-56925836D01*
X241217419Y-56938424D01*
X241242671Y-56953559D01*
X241266318Y-56971097D01*
X241288132Y-56990868D01*
X241307903Y-57012682D01*
X241325441Y-57036329D01*
X241340576Y-57061581D01*
X241353164Y-57088195D01*
X241363082Y-57115915D01*
X241370236Y-57144473D01*
X241374555Y-57173595D01*
X241376000Y-57203000D01*
X241376000Y-57803000D01*
X241374555Y-57832405D01*
X241370236Y-57861527D01*
X241363082Y-57890085D01*
X241353164Y-57917805D01*
X241340576Y-57944419D01*
X241325441Y-57969671D01*
X241307903Y-57993318D01*
X241288132Y-58015132D01*
X241266318Y-58034903D01*
X241242671Y-58052441D01*
X241217419Y-58067576D01*
X241190805Y-58080164D01*
X241163085Y-58090082D01*
X241134527Y-58097236D01*
X241105405Y-58101555D01*
X241076000Y-58103000D01*
X238476000Y-58103000D01*
X238446595Y-58101555D01*
X238417473Y-58097236D01*
X238388915Y-58090082D01*
X238361195Y-58080164D01*
X238334581Y-58067576D01*
X238309329Y-58052441D01*
X238285682Y-58034903D01*
X238263868Y-58015132D01*
X238244097Y-57993318D01*
X238226559Y-57969671D01*
X238211424Y-57944419D01*
X238198836Y-57917805D01*
X238188918Y-57890085D01*
X238181764Y-57861527D01*
X238177445Y-57832405D01*
X238176000Y-57803000D01*
X238176000Y-57203000D01*
X238177445Y-57173595D01*
X238181764Y-57144473D01*
X238188918Y-57115915D01*
X238198836Y-57088195D01*
X238211424Y-57061581D01*
X238226559Y-57036329D01*
X238244097Y-57012682D01*
X238263868Y-56990868D01*
X238285682Y-56971097D01*
X238309329Y-56953559D01*
X238334581Y-56938424D01*
X238361195Y-56925836D01*
X238388915Y-56915918D01*
X238417473Y-56908764D01*
X238446595Y-56904445D01*
X238476000Y-56903000D01*
X241076000Y-56903000D01*
X241105405Y-56904445D01*
G37*
G36*
X264219405Y-48804445D02*
G01*
X264248527Y-48808764D01*
X264277085Y-48815918D01*
X264304805Y-48825836D01*
X264331419Y-48838424D01*
X264356671Y-48853559D01*
X264380318Y-48871097D01*
X264402132Y-48890868D01*
X264421903Y-48912682D01*
X264439441Y-48936329D01*
X264454576Y-48961581D01*
X264467164Y-48988195D01*
X264477082Y-49015915D01*
X264484236Y-49044473D01*
X264488555Y-49073595D01*
X264490000Y-49103000D01*
X264490000Y-49703000D01*
X264488555Y-49732405D01*
X264484236Y-49761527D01*
X264477082Y-49790085D01*
X264467164Y-49817805D01*
X264454576Y-49844419D01*
X264439441Y-49869671D01*
X264421903Y-49893318D01*
X264402132Y-49915132D01*
X264380318Y-49934903D01*
X264356671Y-49952441D01*
X264331419Y-49967576D01*
X264304805Y-49980164D01*
X264277085Y-49990082D01*
X264248527Y-49997236D01*
X264219405Y-50001555D01*
X264190000Y-50003000D01*
X261590000Y-50003000D01*
X261560595Y-50001555D01*
X261531473Y-49997236D01*
X261502915Y-49990082D01*
X261475195Y-49980164D01*
X261448581Y-49967576D01*
X261423329Y-49952441D01*
X261399682Y-49934903D01*
X261377868Y-49915132D01*
X261358097Y-49893318D01*
X261340559Y-49869671D01*
X261325424Y-49844419D01*
X261312836Y-49817805D01*
X261302918Y-49790085D01*
X261295764Y-49761527D01*
X261291445Y-49732405D01*
X261290000Y-49703000D01*
X261290000Y-49103000D01*
X261291445Y-49073595D01*
X261295764Y-49044473D01*
X261302918Y-49015915D01*
X261312836Y-48988195D01*
X261325424Y-48961581D01*
X261340559Y-48936329D01*
X261358097Y-48912682D01*
X261377868Y-48890868D01*
X261399682Y-48871097D01*
X261423329Y-48853559D01*
X261448581Y-48838424D01*
X261475195Y-48825836D01*
X261502915Y-48815918D01*
X261531473Y-48808764D01*
X261560595Y-48804445D01*
X261590000Y-48803000D01*
X264190000Y-48803000D01*
X264219405Y-48804445D01*
G37*
G36*
X264219405Y-51804445D02*
G01*
X264248527Y-51808764D01*
X264277085Y-51815918D01*
X264304805Y-51825836D01*
X264331419Y-51838424D01*
X264356671Y-51853559D01*
X264380318Y-51871097D01*
X264402132Y-51890868D01*
X264421903Y-51912682D01*
X264439441Y-51936329D01*
X264454576Y-51961581D01*
X264467164Y-51988195D01*
X264477082Y-52015915D01*
X264484236Y-52044473D01*
X264488555Y-52073595D01*
X264490000Y-52103000D01*
X264490000Y-52703000D01*
X264488555Y-52732405D01*
X264484236Y-52761527D01*
X264477082Y-52790085D01*
X264467164Y-52817805D01*
X264454576Y-52844419D01*
X264439441Y-52869671D01*
X264421903Y-52893318D01*
X264402132Y-52915132D01*
X264380318Y-52934903D01*
X264356671Y-52952441D01*
X264331419Y-52967576D01*
X264304805Y-52980164D01*
X264277085Y-52990082D01*
X264248527Y-52997236D01*
X264219405Y-53001555D01*
X264190000Y-53003000D01*
X261590000Y-53003000D01*
X261560595Y-53001555D01*
X261531473Y-52997236D01*
X261502915Y-52990082D01*
X261475195Y-52980164D01*
X261448581Y-52967576D01*
X261423329Y-52952441D01*
X261399682Y-52934903D01*
X261377868Y-52915132D01*
X261358097Y-52893318D01*
X261340559Y-52869671D01*
X261325424Y-52844419D01*
X261312836Y-52817805D01*
X261302918Y-52790085D01*
X261295764Y-52761527D01*
X261291445Y-52732405D01*
X261290000Y-52703000D01*
X261290000Y-52103000D01*
X261291445Y-52073595D01*
X261295764Y-52044473D01*
X261302918Y-52015915D01*
X261312836Y-51988195D01*
X261325424Y-51961581D01*
X261340559Y-51936329D01*
X261358097Y-51912682D01*
X261377868Y-51890868D01*
X261399682Y-51871097D01*
X261423329Y-51853559D01*
X261448581Y-51838424D01*
X261475195Y-51825836D01*
X261502915Y-51815918D01*
X261531473Y-51808764D01*
X261560595Y-51804445D01*
X261590000Y-51803000D01*
X264190000Y-51803000D01*
X264219405Y-51804445D01*
G37*
G36*
X264219405Y-55789445D02*
G01*
X264248527Y-55793764D01*
X264277085Y-55800918D01*
X264304805Y-55810836D01*
X264331419Y-55823424D01*
X264356671Y-55838559D01*
X264380318Y-55856097D01*
X264402132Y-55875868D01*
X264421903Y-55897682D01*
X264439441Y-55921329D01*
X264454576Y-55946581D01*
X264467164Y-55973195D01*
X264477082Y-56000915D01*
X264484236Y-56029473D01*
X264488555Y-56058595D01*
X264490000Y-56088000D01*
X264490000Y-56688000D01*
X264488555Y-56717405D01*
X264484236Y-56746527D01*
X264477082Y-56775085D01*
X264467164Y-56802805D01*
X264454576Y-56829419D01*
X264439441Y-56854671D01*
X264421903Y-56878318D01*
X264402132Y-56900132D01*
X264380318Y-56919903D01*
X264356671Y-56937441D01*
X264331419Y-56952576D01*
X264304805Y-56965164D01*
X264277085Y-56975082D01*
X264248527Y-56982236D01*
X264219405Y-56986555D01*
X264190000Y-56988000D01*
X261590000Y-56988000D01*
X261560595Y-56986555D01*
X261531473Y-56982236D01*
X261502915Y-56975082D01*
X261475195Y-56965164D01*
X261448581Y-56952576D01*
X261423329Y-56937441D01*
X261399682Y-56919903D01*
X261377868Y-56900132D01*
X261358097Y-56878318D01*
X261340559Y-56854671D01*
X261325424Y-56829419D01*
X261312836Y-56802805D01*
X261302918Y-56775085D01*
X261295764Y-56746527D01*
X261291445Y-56717405D01*
X261290000Y-56688000D01*
X261290000Y-56088000D01*
X261291445Y-56058595D01*
X261295764Y-56029473D01*
X261302918Y-56000915D01*
X261312836Y-55973195D01*
X261325424Y-55946581D01*
X261340559Y-55921329D01*
X261358097Y-55897682D01*
X261377868Y-55875868D01*
X261399682Y-55856097D01*
X261423329Y-55838559D01*
X261448581Y-55823424D01*
X261475195Y-55810836D01*
X261502915Y-55800918D01*
X261531473Y-55793764D01*
X261560595Y-55789445D01*
X261590000Y-55788000D01*
X264190000Y-55788000D01*
X264219405Y-55789445D01*
G37*
G36*
X255075405Y-56904445D02*
G01*
X255104527Y-56908764D01*
X255133085Y-56915918D01*
X255160805Y-56925836D01*
X255187419Y-56938424D01*
X255212671Y-56953559D01*
X255236318Y-56971097D01*
X255258132Y-56990868D01*
X255277903Y-57012682D01*
X255295441Y-57036329D01*
X255310576Y-57061581D01*
X255323164Y-57088195D01*
X255333082Y-57115915D01*
X255340236Y-57144473D01*
X255344555Y-57173595D01*
X255346000Y-57203000D01*
X255346000Y-57803000D01*
X255344555Y-57832405D01*
X255340236Y-57861527D01*
X255333082Y-57890085D01*
X255323164Y-57917805D01*
X255310576Y-57944419D01*
X255295441Y-57969671D01*
X255277903Y-57993318D01*
X255258132Y-58015132D01*
X255236318Y-58034903D01*
X255212671Y-58052441D01*
X255187419Y-58067576D01*
X255160805Y-58080164D01*
X255133085Y-58090082D01*
X255104527Y-58097236D01*
X255075405Y-58101555D01*
X255046000Y-58103000D01*
X252446000Y-58103000D01*
X252416595Y-58101555D01*
X252387473Y-58097236D01*
X252358915Y-58090082D01*
X252331195Y-58080164D01*
X252304581Y-58067576D01*
X252279329Y-58052441D01*
X252255682Y-58034903D01*
X252233868Y-58015132D01*
X252214097Y-57993318D01*
X252196559Y-57969671D01*
X252181424Y-57944419D01*
X252168836Y-57917805D01*
X252158918Y-57890085D01*
X252151764Y-57861527D01*
X252147445Y-57832405D01*
X252146000Y-57803000D01*
X252146000Y-57203000D01*
X252147445Y-57173595D01*
X252151764Y-57144473D01*
X252158918Y-57115915D01*
X252168836Y-57088195D01*
X252181424Y-57061581D01*
X252196559Y-57036329D01*
X252214097Y-57012682D01*
X252233868Y-56990868D01*
X252255682Y-56971097D01*
X252279329Y-56953559D01*
X252304581Y-56938424D01*
X252331195Y-56925836D01*
X252358915Y-56915918D01*
X252387473Y-56908764D01*
X252416595Y-56904445D01*
X252446000Y-56903000D01*
X255046000Y-56903000D01*
X255075405Y-56904445D01*
G37*
G36*
X208339405Y-48804445D02*
G01*
X208368527Y-48808764D01*
X208397085Y-48815918D01*
X208424805Y-48825836D01*
X208451419Y-48838424D01*
X208476671Y-48853559D01*
X208500318Y-48871097D01*
X208522132Y-48890868D01*
X208541903Y-48912682D01*
X208559441Y-48936329D01*
X208574576Y-48961581D01*
X208587164Y-48988195D01*
X208597082Y-49015915D01*
X208604236Y-49044473D01*
X208608555Y-49073595D01*
X208610000Y-49103000D01*
X208610000Y-49703000D01*
X208608555Y-49732405D01*
X208604236Y-49761527D01*
X208597082Y-49790085D01*
X208587164Y-49817805D01*
X208574576Y-49844419D01*
X208559441Y-49869671D01*
X208541903Y-49893318D01*
X208522132Y-49915132D01*
X208500318Y-49934903D01*
X208476671Y-49952441D01*
X208451419Y-49967576D01*
X208424805Y-49980164D01*
X208397085Y-49990082D01*
X208368527Y-49997236D01*
X208339405Y-50001555D01*
X208310000Y-50003000D01*
X205710000Y-50003000D01*
X205680595Y-50001555D01*
X205651473Y-49997236D01*
X205622915Y-49990082D01*
X205595195Y-49980164D01*
X205568581Y-49967576D01*
X205543329Y-49952441D01*
X205519682Y-49934903D01*
X205497868Y-49915132D01*
X205478097Y-49893318D01*
X205460559Y-49869671D01*
X205445424Y-49844419D01*
X205432836Y-49817805D01*
X205422918Y-49790085D01*
X205415764Y-49761527D01*
X205411445Y-49732405D01*
X205410000Y-49703000D01*
X205410000Y-49103000D01*
X205411445Y-49073595D01*
X205415764Y-49044473D01*
X205422918Y-49015915D01*
X205432836Y-48988195D01*
X205445424Y-48961581D01*
X205460559Y-48936329D01*
X205478097Y-48912682D01*
X205497868Y-48890868D01*
X205519682Y-48871097D01*
X205543329Y-48853559D01*
X205568581Y-48838424D01*
X205595195Y-48825836D01*
X205622915Y-48815918D01*
X205651473Y-48808764D01*
X205680595Y-48804445D01*
X205710000Y-48803000D01*
X208310000Y-48803000D01*
X208339405Y-48804445D01*
G37*
G36*
X208339405Y-51804445D02*
G01*
X208368527Y-51808764D01*
X208397085Y-51815918D01*
X208424805Y-51825836D01*
X208451419Y-51838424D01*
X208476671Y-51853559D01*
X208500318Y-51871097D01*
X208522132Y-51890868D01*
X208541903Y-51912682D01*
X208559441Y-51936329D01*
X208574576Y-51961581D01*
X208587164Y-51988195D01*
X208597082Y-52015915D01*
X208604236Y-52044473D01*
X208608555Y-52073595D01*
X208610000Y-52103000D01*
X208610000Y-52703000D01*
X208608555Y-52732405D01*
X208604236Y-52761527D01*
X208597082Y-52790085D01*
X208587164Y-52817805D01*
X208574576Y-52844419D01*
X208559441Y-52869671D01*
X208541903Y-52893318D01*
X208522132Y-52915132D01*
X208500318Y-52934903D01*
X208476671Y-52952441D01*
X208451419Y-52967576D01*
X208424805Y-52980164D01*
X208397085Y-52990082D01*
X208368527Y-52997236D01*
X208339405Y-53001555D01*
X208310000Y-53003000D01*
X205710000Y-53003000D01*
X205680595Y-53001555D01*
X205651473Y-52997236D01*
X205622915Y-52990082D01*
X205595195Y-52980164D01*
X205568581Y-52967576D01*
X205543329Y-52952441D01*
X205519682Y-52934903D01*
X205497868Y-52915132D01*
X205478097Y-52893318D01*
X205460559Y-52869671D01*
X205445424Y-52844419D01*
X205432836Y-52817805D01*
X205422918Y-52790085D01*
X205415764Y-52761527D01*
X205411445Y-52732405D01*
X205410000Y-52703000D01*
X205410000Y-52103000D01*
X205411445Y-52073595D01*
X205415764Y-52044473D01*
X205422918Y-52015915D01*
X205432836Y-51988195D01*
X205445424Y-51961581D01*
X205460559Y-51936329D01*
X205478097Y-51912682D01*
X205497868Y-51890868D01*
X205519682Y-51871097D01*
X205543329Y-51853559D01*
X205568581Y-51838424D01*
X205595195Y-51825836D01*
X205622915Y-51815918D01*
X205651473Y-51808764D01*
X205680595Y-51804445D01*
X205710000Y-51803000D01*
X208310000Y-51803000D01*
X208339405Y-51804445D01*
G37*
G36*
X208339405Y-55789445D02*
G01*
X208368527Y-55793764D01*
X208397085Y-55800918D01*
X208424805Y-55810836D01*
X208451419Y-55823424D01*
X208476671Y-55838559D01*
X208500318Y-55856097D01*
X208522132Y-55875868D01*
X208541903Y-55897682D01*
X208559441Y-55921329D01*
X208574576Y-55946581D01*
X208587164Y-55973195D01*
X208597082Y-56000915D01*
X208604236Y-56029473D01*
X208608555Y-56058595D01*
X208610000Y-56088000D01*
X208610000Y-56688000D01*
X208608555Y-56717405D01*
X208604236Y-56746527D01*
X208597082Y-56775085D01*
X208587164Y-56802805D01*
X208574576Y-56829419D01*
X208559441Y-56854671D01*
X208541903Y-56878318D01*
X208522132Y-56900132D01*
X208500318Y-56919903D01*
X208476671Y-56937441D01*
X208451419Y-56952576D01*
X208424805Y-56965164D01*
X208397085Y-56975082D01*
X208368527Y-56982236D01*
X208339405Y-56986555D01*
X208310000Y-56988000D01*
X205710000Y-56988000D01*
X205680595Y-56986555D01*
X205651473Y-56982236D01*
X205622915Y-56975082D01*
X205595195Y-56965164D01*
X205568581Y-56952576D01*
X205543329Y-56937441D01*
X205519682Y-56919903D01*
X205497868Y-56900132D01*
X205478097Y-56878318D01*
X205460559Y-56854671D01*
X205445424Y-56829419D01*
X205432836Y-56802805D01*
X205422918Y-56775085D01*
X205415764Y-56746527D01*
X205411445Y-56717405D01*
X205410000Y-56688000D01*
X205410000Y-56088000D01*
X205411445Y-56058595D01*
X205415764Y-56029473D01*
X205422918Y-56000915D01*
X205432836Y-55973195D01*
X205445424Y-55946581D01*
X205460559Y-55921329D01*
X205478097Y-55897682D01*
X205497868Y-55875868D01*
X205519682Y-55856097D01*
X205543329Y-55838559D01*
X205568581Y-55823424D01*
X205595195Y-55810836D01*
X205622915Y-55800918D01*
X205651473Y-55793764D01*
X205680595Y-55789445D01*
X205710000Y-55788000D01*
X208310000Y-55788000D01*
X208339405Y-55789445D01*
G37*
G36*
X199195405Y-56904445D02*
G01*
X199224527Y-56908764D01*
X199253085Y-56915918D01*
X199280805Y-56925836D01*
X199307419Y-56938424D01*
X199332671Y-56953559D01*
X199356318Y-56971097D01*
X199378132Y-56990868D01*
X199397903Y-57012682D01*
X199415441Y-57036329D01*
X199430576Y-57061581D01*
X199443164Y-57088195D01*
X199453082Y-57115915D01*
X199460236Y-57144473D01*
X199464555Y-57173595D01*
X199466000Y-57203000D01*
X199466000Y-57803000D01*
X199464555Y-57832405D01*
X199460236Y-57861527D01*
X199453082Y-57890085D01*
X199443164Y-57917805D01*
X199430576Y-57944419D01*
X199415441Y-57969671D01*
X199397903Y-57993318D01*
X199378132Y-58015132D01*
X199356318Y-58034903D01*
X199332671Y-58052441D01*
X199307419Y-58067576D01*
X199280805Y-58080164D01*
X199253085Y-58090082D01*
X199224527Y-58097236D01*
X199195405Y-58101555D01*
X199166000Y-58103000D01*
X196566000Y-58103000D01*
X196536595Y-58101555D01*
X196507473Y-58097236D01*
X196478915Y-58090082D01*
X196451195Y-58080164D01*
X196424581Y-58067576D01*
X196399329Y-58052441D01*
X196375682Y-58034903D01*
X196353868Y-58015132D01*
X196334097Y-57993318D01*
X196316559Y-57969671D01*
X196301424Y-57944419D01*
X196288836Y-57917805D01*
X196278918Y-57890085D01*
X196271764Y-57861527D01*
X196267445Y-57832405D01*
X196266000Y-57803000D01*
X196266000Y-57203000D01*
X196267445Y-57173595D01*
X196271764Y-57144473D01*
X196278918Y-57115915D01*
X196288836Y-57088195D01*
X196301424Y-57061581D01*
X196316559Y-57036329D01*
X196334097Y-57012682D01*
X196353868Y-56990868D01*
X196375682Y-56971097D01*
X196399329Y-56953559D01*
X196424581Y-56938424D01*
X196451195Y-56925836D01*
X196478915Y-56915918D01*
X196507473Y-56908764D01*
X196536595Y-56904445D01*
X196566000Y-56903000D01*
X199166000Y-56903000D01*
X199195405Y-56904445D01*
G37*
G36*
X194369405Y-48804445D02*
G01*
X194398527Y-48808764D01*
X194427085Y-48815918D01*
X194454805Y-48825836D01*
X194481419Y-48838424D01*
X194506671Y-48853559D01*
X194530318Y-48871097D01*
X194552132Y-48890868D01*
X194571903Y-48912682D01*
X194589441Y-48936329D01*
X194604576Y-48961581D01*
X194617164Y-48988195D01*
X194627082Y-49015915D01*
X194634236Y-49044473D01*
X194638555Y-49073595D01*
X194640000Y-49103000D01*
X194640000Y-49703000D01*
X194638555Y-49732405D01*
X194634236Y-49761527D01*
X194627082Y-49790085D01*
X194617164Y-49817805D01*
X194604576Y-49844419D01*
X194589441Y-49869671D01*
X194571903Y-49893318D01*
X194552132Y-49915132D01*
X194530318Y-49934903D01*
X194506671Y-49952441D01*
X194481419Y-49967576D01*
X194454805Y-49980164D01*
X194427085Y-49990082D01*
X194398527Y-49997236D01*
X194369405Y-50001555D01*
X194340000Y-50003000D01*
X191740000Y-50003000D01*
X191710595Y-50001555D01*
X191681473Y-49997236D01*
X191652915Y-49990082D01*
X191625195Y-49980164D01*
X191598581Y-49967576D01*
X191573329Y-49952441D01*
X191549682Y-49934903D01*
X191527868Y-49915132D01*
X191508097Y-49893318D01*
X191490559Y-49869671D01*
X191475424Y-49844419D01*
X191462836Y-49817805D01*
X191452918Y-49790085D01*
X191445764Y-49761527D01*
X191441445Y-49732405D01*
X191440000Y-49703000D01*
X191440000Y-49103000D01*
X191441445Y-49073595D01*
X191445764Y-49044473D01*
X191452918Y-49015915D01*
X191462836Y-48988195D01*
X191475424Y-48961581D01*
X191490559Y-48936329D01*
X191508097Y-48912682D01*
X191527868Y-48890868D01*
X191549682Y-48871097D01*
X191573329Y-48853559D01*
X191598581Y-48838424D01*
X191625195Y-48825836D01*
X191652915Y-48815918D01*
X191681473Y-48808764D01*
X191710595Y-48804445D01*
X191740000Y-48803000D01*
X194340000Y-48803000D01*
X194369405Y-48804445D01*
G37*
G36*
X194369405Y-51804445D02*
G01*
X194398527Y-51808764D01*
X194427085Y-51815918D01*
X194454805Y-51825836D01*
X194481419Y-51838424D01*
X194506671Y-51853559D01*
X194530318Y-51871097D01*
X194552132Y-51890868D01*
X194571903Y-51912682D01*
X194589441Y-51936329D01*
X194604576Y-51961581D01*
X194617164Y-51988195D01*
X194627082Y-52015915D01*
X194634236Y-52044473D01*
X194638555Y-52073595D01*
X194640000Y-52103000D01*
X194640000Y-52703000D01*
X194638555Y-52732405D01*
X194634236Y-52761527D01*
X194627082Y-52790085D01*
X194617164Y-52817805D01*
X194604576Y-52844419D01*
X194589441Y-52869671D01*
X194571903Y-52893318D01*
X194552132Y-52915132D01*
X194530318Y-52934903D01*
X194506671Y-52952441D01*
X194481419Y-52967576D01*
X194454805Y-52980164D01*
X194427085Y-52990082D01*
X194398527Y-52997236D01*
X194369405Y-53001555D01*
X194340000Y-53003000D01*
X191740000Y-53003000D01*
X191710595Y-53001555D01*
X191681473Y-52997236D01*
X191652915Y-52990082D01*
X191625195Y-52980164D01*
X191598581Y-52967576D01*
X191573329Y-52952441D01*
X191549682Y-52934903D01*
X191527868Y-52915132D01*
X191508097Y-52893318D01*
X191490559Y-52869671D01*
X191475424Y-52844419D01*
X191462836Y-52817805D01*
X191452918Y-52790085D01*
X191445764Y-52761527D01*
X191441445Y-52732405D01*
X191440000Y-52703000D01*
X191440000Y-52103000D01*
X191441445Y-52073595D01*
X191445764Y-52044473D01*
X191452918Y-52015915D01*
X191462836Y-51988195D01*
X191475424Y-51961581D01*
X191490559Y-51936329D01*
X191508097Y-51912682D01*
X191527868Y-51890868D01*
X191549682Y-51871097D01*
X191573329Y-51853559D01*
X191598581Y-51838424D01*
X191625195Y-51825836D01*
X191652915Y-51815918D01*
X191681473Y-51808764D01*
X191710595Y-51804445D01*
X191740000Y-51803000D01*
X194340000Y-51803000D01*
X194369405Y-51804445D01*
G37*
G36*
X194369405Y-55789445D02*
G01*
X194398527Y-55793764D01*
X194427085Y-55800918D01*
X194454805Y-55810836D01*
X194481419Y-55823424D01*
X194506671Y-55838559D01*
X194530318Y-55856097D01*
X194552132Y-55875868D01*
X194571903Y-55897682D01*
X194589441Y-55921329D01*
X194604576Y-55946581D01*
X194617164Y-55973195D01*
X194627082Y-56000915D01*
X194634236Y-56029473D01*
X194638555Y-56058595D01*
X194640000Y-56088000D01*
X194640000Y-56688000D01*
X194638555Y-56717405D01*
X194634236Y-56746527D01*
X194627082Y-56775085D01*
X194617164Y-56802805D01*
X194604576Y-56829419D01*
X194589441Y-56854671D01*
X194571903Y-56878318D01*
X194552132Y-56900132D01*
X194530318Y-56919903D01*
X194506671Y-56937441D01*
X194481419Y-56952576D01*
X194454805Y-56965164D01*
X194427085Y-56975082D01*
X194398527Y-56982236D01*
X194369405Y-56986555D01*
X194340000Y-56988000D01*
X191740000Y-56988000D01*
X191710595Y-56986555D01*
X191681473Y-56982236D01*
X191652915Y-56975082D01*
X191625195Y-56965164D01*
X191598581Y-56952576D01*
X191573329Y-56937441D01*
X191549682Y-56919903D01*
X191527868Y-56900132D01*
X191508097Y-56878318D01*
X191490559Y-56854671D01*
X191475424Y-56829419D01*
X191462836Y-56802805D01*
X191452918Y-56775085D01*
X191445764Y-56746527D01*
X191441445Y-56717405D01*
X191440000Y-56688000D01*
X191440000Y-56088000D01*
X191441445Y-56058595D01*
X191445764Y-56029473D01*
X191452918Y-56000915D01*
X191462836Y-55973195D01*
X191475424Y-55946581D01*
X191490559Y-55921329D01*
X191508097Y-55897682D01*
X191527868Y-55875868D01*
X191549682Y-55856097D01*
X191573329Y-55838559D01*
X191598581Y-55823424D01*
X191625195Y-55810836D01*
X191652915Y-55800918D01*
X191681473Y-55793764D01*
X191710595Y-55789445D01*
X191740000Y-55788000D01*
X194340000Y-55788000D01*
X194369405Y-55789445D01*
G37*
G36*
X185225405Y-56904445D02*
G01*
X185254527Y-56908764D01*
X185283085Y-56915918D01*
X185310805Y-56925836D01*
X185337419Y-56938424D01*
X185362671Y-56953559D01*
X185386318Y-56971097D01*
X185408132Y-56990868D01*
X185427903Y-57012682D01*
X185445441Y-57036329D01*
X185460576Y-57061581D01*
X185473164Y-57088195D01*
X185483082Y-57115915D01*
X185490236Y-57144473D01*
X185494555Y-57173595D01*
X185496000Y-57203000D01*
X185496000Y-57803000D01*
X185494555Y-57832405D01*
X185490236Y-57861527D01*
X185483082Y-57890085D01*
X185473164Y-57917805D01*
X185460576Y-57944419D01*
X185445441Y-57969671D01*
X185427903Y-57993318D01*
X185408132Y-58015132D01*
X185386318Y-58034903D01*
X185362671Y-58052441D01*
X185337419Y-58067576D01*
X185310805Y-58080164D01*
X185283085Y-58090082D01*
X185254527Y-58097236D01*
X185225405Y-58101555D01*
X185196000Y-58103000D01*
X182596000Y-58103000D01*
X182566595Y-58101555D01*
X182537473Y-58097236D01*
X182508915Y-58090082D01*
X182481195Y-58080164D01*
X182454581Y-58067576D01*
X182429329Y-58052441D01*
X182405682Y-58034903D01*
X182383868Y-58015132D01*
X182364097Y-57993318D01*
X182346559Y-57969671D01*
X182331424Y-57944419D01*
X182318836Y-57917805D01*
X182308918Y-57890085D01*
X182301764Y-57861527D01*
X182297445Y-57832405D01*
X182296000Y-57803000D01*
X182296000Y-57203000D01*
X182297445Y-57173595D01*
X182301764Y-57144473D01*
X182308918Y-57115915D01*
X182318836Y-57088195D01*
X182331424Y-57061581D01*
X182346559Y-57036329D01*
X182364097Y-57012682D01*
X182383868Y-56990868D01*
X182405682Y-56971097D01*
X182429329Y-56953559D01*
X182454581Y-56938424D01*
X182481195Y-56925836D01*
X182508915Y-56915918D01*
X182537473Y-56908764D01*
X182566595Y-56904445D01*
X182596000Y-56903000D01*
X185196000Y-56903000D01*
X185225405Y-56904445D01*
G37*
G36*
X236279405Y-48804445D02*
G01*
X236308527Y-48808764D01*
X236337085Y-48815918D01*
X236364805Y-48825836D01*
X236391419Y-48838424D01*
X236416671Y-48853559D01*
X236440318Y-48871097D01*
X236462132Y-48890868D01*
X236481903Y-48912682D01*
X236499441Y-48936329D01*
X236514576Y-48961581D01*
X236527164Y-48988195D01*
X236537082Y-49015915D01*
X236544236Y-49044473D01*
X236548555Y-49073595D01*
X236550000Y-49103000D01*
X236550000Y-49703000D01*
X236548555Y-49732405D01*
X236544236Y-49761527D01*
X236537082Y-49790085D01*
X236527164Y-49817805D01*
X236514576Y-49844419D01*
X236499441Y-49869671D01*
X236481903Y-49893318D01*
X236462132Y-49915132D01*
X236440318Y-49934903D01*
X236416671Y-49952441D01*
X236391419Y-49967576D01*
X236364805Y-49980164D01*
X236337085Y-49990082D01*
X236308527Y-49997236D01*
X236279405Y-50001555D01*
X236250000Y-50003000D01*
X233650000Y-50003000D01*
X233620595Y-50001555D01*
X233591473Y-49997236D01*
X233562915Y-49990082D01*
X233535195Y-49980164D01*
X233508581Y-49967576D01*
X233483329Y-49952441D01*
X233459682Y-49934903D01*
X233437868Y-49915132D01*
X233418097Y-49893318D01*
X233400559Y-49869671D01*
X233385424Y-49844419D01*
X233372836Y-49817805D01*
X233362918Y-49790085D01*
X233355764Y-49761527D01*
X233351445Y-49732405D01*
X233350000Y-49703000D01*
X233350000Y-49103000D01*
X233351445Y-49073595D01*
X233355764Y-49044473D01*
X233362918Y-49015915D01*
X233372836Y-48988195D01*
X233385424Y-48961581D01*
X233400559Y-48936329D01*
X233418097Y-48912682D01*
X233437868Y-48890868D01*
X233459682Y-48871097D01*
X233483329Y-48853559D01*
X233508581Y-48838424D01*
X233535195Y-48825836D01*
X233562915Y-48815918D01*
X233591473Y-48808764D01*
X233620595Y-48804445D01*
X233650000Y-48803000D01*
X236250000Y-48803000D01*
X236279405Y-48804445D01*
G37*
G36*
X236279405Y-51804445D02*
G01*
X236308527Y-51808764D01*
X236337085Y-51815918D01*
X236364805Y-51825836D01*
X236391419Y-51838424D01*
X236416671Y-51853559D01*
X236440318Y-51871097D01*
X236462132Y-51890868D01*
X236481903Y-51912682D01*
X236499441Y-51936329D01*
X236514576Y-51961581D01*
X236527164Y-51988195D01*
X236537082Y-52015915D01*
X236544236Y-52044473D01*
X236548555Y-52073595D01*
X236550000Y-52103000D01*
X236550000Y-52703000D01*
X236548555Y-52732405D01*
X236544236Y-52761527D01*
X236537082Y-52790085D01*
X236527164Y-52817805D01*
X236514576Y-52844419D01*
X236499441Y-52869671D01*
X236481903Y-52893318D01*
X236462132Y-52915132D01*
X236440318Y-52934903D01*
X236416671Y-52952441D01*
X236391419Y-52967576D01*
X236364805Y-52980164D01*
X236337085Y-52990082D01*
X236308527Y-52997236D01*
X236279405Y-53001555D01*
X236250000Y-53003000D01*
X233650000Y-53003000D01*
X233620595Y-53001555D01*
X233591473Y-52997236D01*
X233562915Y-52990082D01*
X233535195Y-52980164D01*
X233508581Y-52967576D01*
X233483329Y-52952441D01*
X233459682Y-52934903D01*
X233437868Y-52915132D01*
X233418097Y-52893318D01*
X233400559Y-52869671D01*
X233385424Y-52844419D01*
X233372836Y-52817805D01*
X233362918Y-52790085D01*
X233355764Y-52761527D01*
X233351445Y-52732405D01*
X233350000Y-52703000D01*
X233350000Y-52103000D01*
X233351445Y-52073595D01*
X233355764Y-52044473D01*
X233362918Y-52015915D01*
X233372836Y-51988195D01*
X233385424Y-51961581D01*
X233400559Y-51936329D01*
X233418097Y-51912682D01*
X233437868Y-51890868D01*
X233459682Y-51871097D01*
X233483329Y-51853559D01*
X233508581Y-51838424D01*
X233535195Y-51825836D01*
X233562915Y-51815918D01*
X233591473Y-51808764D01*
X233620595Y-51804445D01*
X233650000Y-51803000D01*
X236250000Y-51803000D01*
X236279405Y-51804445D01*
G37*
G36*
X236279405Y-55789445D02*
G01*
X236308527Y-55793764D01*
X236337085Y-55800918D01*
X236364805Y-55810836D01*
X236391419Y-55823424D01*
X236416671Y-55838559D01*
X236440318Y-55856097D01*
X236462132Y-55875868D01*
X236481903Y-55897682D01*
X236499441Y-55921329D01*
X236514576Y-55946581D01*
X236527164Y-55973195D01*
X236537082Y-56000915D01*
X236544236Y-56029473D01*
X236548555Y-56058595D01*
X236550000Y-56088000D01*
X236550000Y-56688000D01*
X236548555Y-56717405D01*
X236544236Y-56746527D01*
X236537082Y-56775085D01*
X236527164Y-56802805D01*
X236514576Y-56829419D01*
X236499441Y-56854671D01*
X236481903Y-56878318D01*
X236462132Y-56900132D01*
X236440318Y-56919903D01*
X236416671Y-56937441D01*
X236391419Y-56952576D01*
X236364805Y-56965164D01*
X236337085Y-56975082D01*
X236308527Y-56982236D01*
X236279405Y-56986555D01*
X236250000Y-56988000D01*
X233650000Y-56988000D01*
X233620595Y-56986555D01*
X233591473Y-56982236D01*
X233562915Y-56975082D01*
X233535195Y-56965164D01*
X233508581Y-56952576D01*
X233483329Y-56937441D01*
X233459682Y-56919903D01*
X233437868Y-56900132D01*
X233418097Y-56878318D01*
X233400559Y-56854671D01*
X233385424Y-56829419D01*
X233372836Y-56802805D01*
X233362918Y-56775085D01*
X233355764Y-56746527D01*
X233351445Y-56717405D01*
X233350000Y-56688000D01*
X233350000Y-56088000D01*
X233351445Y-56058595D01*
X233355764Y-56029473D01*
X233362918Y-56000915D01*
X233372836Y-55973195D01*
X233385424Y-55946581D01*
X233400559Y-55921329D01*
X233418097Y-55897682D01*
X233437868Y-55875868D01*
X233459682Y-55856097D01*
X233483329Y-55838559D01*
X233508581Y-55823424D01*
X233535195Y-55810836D01*
X233562915Y-55800918D01*
X233591473Y-55793764D01*
X233620595Y-55789445D01*
X233650000Y-55788000D01*
X236250000Y-55788000D01*
X236279405Y-55789445D01*
G37*
G36*
X227135405Y-56904445D02*
G01*
X227164527Y-56908764D01*
X227193085Y-56915918D01*
X227220805Y-56925836D01*
X227247419Y-56938424D01*
X227272671Y-56953559D01*
X227296318Y-56971097D01*
X227318132Y-56990868D01*
X227337903Y-57012682D01*
X227355441Y-57036329D01*
X227370576Y-57061581D01*
X227383164Y-57088195D01*
X227393082Y-57115915D01*
X227400236Y-57144473D01*
X227404555Y-57173595D01*
X227406000Y-57203000D01*
X227406000Y-57803000D01*
X227404555Y-57832405D01*
X227400236Y-57861527D01*
X227393082Y-57890085D01*
X227383164Y-57917805D01*
X227370576Y-57944419D01*
X227355441Y-57969671D01*
X227337903Y-57993318D01*
X227318132Y-58015132D01*
X227296318Y-58034903D01*
X227272671Y-58052441D01*
X227247419Y-58067576D01*
X227220805Y-58080164D01*
X227193085Y-58090082D01*
X227164527Y-58097236D01*
X227135405Y-58101555D01*
X227106000Y-58103000D01*
X224506000Y-58103000D01*
X224476595Y-58101555D01*
X224447473Y-58097236D01*
X224418915Y-58090082D01*
X224391195Y-58080164D01*
X224364581Y-58067576D01*
X224339329Y-58052441D01*
X224315682Y-58034903D01*
X224293868Y-58015132D01*
X224274097Y-57993318D01*
X224256559Y-57969671D01*
X224241424Y-57944419D01*
X224228836Y-57917805D01*
X224218918Y-57890085D01*
X224211764Y-57861527D01*
X224207445Y-57832405D01*
X224206000Y-57803000D01*
X224206000Y-57203000D01*
X224207445Y-57173595D01*
X224211764Y-57144473D01*
X224218918Y-57115915D01*
X224228836Y-57088195D01*
X224241424Y-57061581D01*
X224256559Y-57036329D01*
X224274097Y-57012682D01*
X224293868Y-56990868D01*
X224315682Y-56971097D01*
X224339329Y-56953559D01*
X224364581Y-56938424D01*
X224391195Y-56925836D01*
X224418915Y-56915918D01*
X224447473Y-56908764D01*
X224476595Y-56904445D01*
X224506000Y-56903000D01*
X227106000Y-56903000D01*
X227135405Y-56904445D01*
G37*
G36*
X222309405Y-48804445D02*
G01*
X222338527Y-48808764D01*
X222367085Y-48815918D01*
X222394805Y-48825836D01*
X222421419Y-48838424D01*
X222446671Y-48853559D01*
X222470318Y-48871097D01*
X222492132Y-48890868D01*
X222511903Y-48912682D01*
X222529441Y-48936329D01*
X222544576Y-48961581D01*
X222557164Y-48988195D01*
X222567082Y-49015915D01*
X222574236Y-49044473D01*
X222578555Y-49073595D01*
X222580000Y-49103000D01*
X222580000Y-49703000D01*
X222578555Y-49732405D01*
X222574236Y-49761527D01*
X222567082Y-49790085D01*
X222557164Y-49817805D01*
X222544576Y-49844419D01*
X222529441Y-49869671D01*
X222511903Y-49893318D01*
X222492132Y-49915132D01*
X222470318Y-49934903D01*
X222446671Y-49952441D01*
X222421419Y-49967576D01*
X222394805Y-49980164D01*
X222367085Y-49990082D01*
X222338527Y-49997236D01*
X222309405Y-50001555D01*
X222280000Y-50003000D01*
X219680000Y-50003000D01*
X219650595Y-50001555D01*
X219621473Y-49997236D01*
X219592915Y-49990082D01*
X219565195Y-49980164D01*
X219538581Y-49967576D01*
X219513329Y-49952441D01*
X219489682Y-49934903D01*
X219467868Y-49915132D01*
X219448097Y-49893318D01*
X219430559Y-49869671D01*
X219415424Y-49844419D01*
X219402836Y-49817805D01*
X219392918Y-49790085D01*
X219385764Y-49761527D01*
X219381445Y-49732405D01*
X219380000Y-49703000D01*
X219380000Y-49103000D01*
X219381445Y-49073595D01*
X219385764Y-49044473D01*
X219392918Y-49015915D01*
X219402836Y-48988195D01*
X219415424Y-48961581D01*
X219430559Y-48936329D01*
X219448097Y-48912682D01*
X219467868Y-48890868D01*
X219489682Y-48871097D01*
X219513329Y-48853559D01*
X219538581Y-48838424D01*
X219565195Y-48825836D01*
X219592915Y-48815918D01*
X219621473Y-48808764D01*
X219650595Y-48804445D01*
X219680000Y-48803000D01*
X222280000Y-48803000D01*
X222309405Y-48804445D01*
G37*
G36*
X222309405Y-51804445D02*
G01*
X222338527Y-51808764D01*
X222367085Y-51815918D01*
X222394805Y-51825836D01*
X222421419Y-51838424D01*
X222446671Y-51853559D01*
X222470318Y-51871097D01*
X222492132Y-51890868D01*
X222511903Y-51912682D01*
X222529441Y-51936329D01*
X222544576Y-51961581D01*
X222557164Y-51988195D01*
X222567082Y-52015915D01*
X222574236Y-52044473D01*
X222578555Y-52073595D01*
X222580000Y-52103000D01*
X222580000Y-52703000D01*
X222578555Y-52732405D01*
X222574236Y-52761527D01*
X222567082Y-52790085D01*
X222557164Y-52817805D01*
X222544576Y-52844419D01*
X222529441Y-52869671D01*
X222511903Y-52893318D01*
X222492132Y-52915132D01*
X222470318Y-52934903D01*
X222446671Y-52952441D01*
X222421419Y-52967576D01*
X222394805Y-52980164D01*
X222367085Y-52990082D01*
X222338527Y-52997236D01*
X222309405Y-53001555D01*
X222280000Y-53003000D01*
X219680000Y-53003000D01*
X219650595Y-53001555D01*
X219621473Y-52997236D01*
X219592915Y-52990082D01*
X219565195Y-52980164D01*
X219538581Y-52967576D01*
X219513329Y-52952441D01*
X219489682Y-52934903D01*
X219467868Y-52915132D01*
X219448097Y-52893318D01*
X219430559Y-52869671D01*
X219415424Y-52844419D01*
X219402836Y-52817805D01*
X219392918Y-52790085D01*
X219385764Y-52761527D01*
X219381445Y-52732405D01*
X219380000Y-52703000D01*
X219380000Y-52103000D01*
X219381445Y-52073595D01*
X219385764Y-52044473D01*
X219392918Y-52015915D01*
X219402836Y-51988195D01*
X219415424Y-51961581D01*
X219430559Y-51936329D01*
X219448097Y-51912682D01*
X219467868Y-51890868D01*
X219489682Y-51871097D01*
X219513329Y-51853559D01*
X219538581Y-51838424D01*
X219565195Y-51825836D01*
X219592915Y-51815918D01*
X219621473Y-51808764D01*
X219650595Y-51804445D01*
X219680000Y-51803000D01*
X222280000Y-51803000D01*
X222309405Y-51804445D01*
G37*
G36*
X222309405Y-55789445D02*
G01*
X222338527Y-55793764D01*
X222367085Y-55800918D01*
X222394805Y-55810836D01*
X222421419Y-55823424D01*
X222446671Y-55838559D01*
X222470318Y-55856097D01*
X222492132Y-55875868D01*
X222511903Y-55897682D01*
X222529441Y-55921329D01*
X222544576Y-55946581D01*
X222557164Y-55973195D01*
X222567082Y-56000915D01*
X222574236Y-56029473D01*
X222578555Y-56058595D01*
X222580000Y-56088000D01*
X222580000Y-56688000D01*
X222578555Y-56717405D01*
X222574236Y-56746527D01*
X222567082Y-56775085D01*
X222557164Y-56802805D01*
X222544576Y-56829419D01*
X222529441Y-56854671D01*
X222511903Y-56878318D01*
X222492132Y-56900132D01*
X222470318Y-56919903D01*
X222446671Y-56937441D01*
X222421419Y-56952576D01*
X222394805Y-56965164D01*
X222367085Y-56975082D01*
X222338527Y-56982236D01*
X222309405Y-56986555D01*
X222280000Y-56988000D01*
X219680000Y-56988000D01*
X219650595Y-56986555D01*
X219621473Y-56982236D01*
X219592915Y-56975082D01*
X219565195Y-56965164D01*
X219538581Y-56952576D01*
X219513329Y-56937441D01*
X219489682Y-56919903D01*
X219467868Y-56900132D01*
X219448097Y-56878318D01*
X219430559Y-56854671D01*
X219415424Y-56829419D01*
X219402836Y-56802805D01*
X219392918Y-56775085D01*
X219385764Y-56746527D01*
X219381445Y-56717405D01*
X219380000Y-56688000D01*
X219380000Y-56088000D01*
X219381445Y-56058595D01*
X219385764Y-56029473D01*
X219392918Y-56000915D01*
X219402836Y-55973195D01*
X219415424Y-55946581D01*
X219430559Y-55921329D01*
X219448097Y-55897682D01*
X219467868Y-55875868D01*
X219489682Y-55856097D01*
X219513329Y-55838559D01*
X219538581Y-55823424D01*
X219565195Y-55810836D01*
X219592915Y-55800918D01*
X219621473Y-55793764D01*
X219650595Y-55789445D01*
X219680000Y-55788000D01*
X222280000Y-55788000D01*
X222309405Y-55789445D01*
G37*
G36*
X213165405Y-56904445D02*
G01*
X213194527Y-56908764D01*
X213223085Y-56915918D01*
X213250805Y-56925836D01*
X213277419Y-56938424D01*
X213302671Y-56953559D01*
X213326318Y-56971097D01*
X213348132Y-56990868D01*
X213367903Y-57012682D01*
X213385441Y-57036329D01*
X213400576Y-57061581D01*
X213413164Y-57088195D01*
X213423082Y-57115915D01*
X213430236Y-57144473D01*
X213434555Y-57173595D01*
X213436000Y-57203000D01*
X213436000Y-57803000D01*
X213434555Y-57832405D01*
X213430236Y-57861527D01*
X213423082Y-57890085D01*
X213413164Y-57917805D01*
X213400576Y-57944419D01*
X213385441Y-57969671D01*
X213367903Y-57993318D01*
X213348132Y-58015132D01*
X213326318Y-58034903D01*
X213302671Y-58052441D01*
X213277419Y-58067576D01*
X213250805Y-58080164D01*
X213223085Y-58090082D01*
X213194527Y-58097236D01*
X213165405Y-58101555D01*
X213136000Y-58103000D01*
X210536000Y-58103000D01*
X210506595Y-58101555D01*
X210477473Y-58097236D01*
X210448915Y-58090082D01*
X210421195Y-58080164D01*
X210394581Y-58067576D01*
X210369329Y-58052441D01*
X210345682Y-58034903D01*
X210323868Y-58015132D01*
X210304097Y-57993318D01*
X210286559Y-57969671D01*
X210271424Y-57944419D01*
X210258836Y-57917805D01*
X210248918Y-57890085D01*
X210241764Y-57861527D01*
X210237445Y-57832405D01*
X210236000Y-57803000D01*
X210236000Y-57203000D01*
X210237445Y-57173595D01*
X210241764Y-57144473D01*
X210248918Y-57115915D01*
X210258836Y-57088195D01*
X210271424Y-57061581D01*
X210286559Y-57036329D01*
X210304097Y-57012682D01*
X210323868Y-56990868D01*
X210345682Y-56971097D01*
X210369329Y-56953559D01*
X210394581Y-56938424D01*
X210421195Y-56925836D01*
X210448915Y-56915918D01*
X210477473Y-56908764D01*
X210506595Y-56904445D01*
X210536000Y-56903000D01*
X213136000Y-56903000D01*
X213165405Y-56904445D01*
G37*
M02*
