G04 #@! TF.GenerationSoftware,KiCad,Pcbnew,(5.1.5)-3*
G04 #@! TF.CreationDate,2020-12-21T13:20:02+01:00*
G04 #@! TF.ProjectId,epimetheus_mlx90614,6570696d-6574-4686-9575-735f6d6c7839,rev?*
G04 #@! TF.SameCoordinates,Original*
G04 #@! TF.FileFunction,Soldermask,Top*
G04 #@! TF.FilePolarity,Negative*
%FSLAX46Y46*%
G04 Gerber Fmt 4.6, Leading zero omitted, Abs format (unit mm)*
G04 Created by KiCad (PCBNEW (5.1.5)-3) date 2020-12-21 13:20:02*
%MOMM*%
%LPD*%
G04 APERTURE LIST*
%ADD10C,0.100000*%
G04 APERTURE END LIST*
D10*
G36*
X173512192Y-33914646D02*
G01*
X173561414Y-33929578D01*
X173606778Y-33953826D01*
X173646542Y-33986458D01*
X173679174Y-34026222D01*
X173703422Y-34071586D01*
X173718354Y-34120808D01*
X173724000Y-34178140D01*
X173724000Y-36941860D01*
X173718354Y-36999192D01*
X173703422Y-37048414D01*
X173679174Y-37093778D01*
X173646542Y-37133542D01*
X173606778Y-37166174D01*
X173561414Y-37190422D01*
X173512192Y-37205354D01*
X173454860Y-37211000D01*
X172691140Y-37211000D01*
X172633808Y-37205354D01*
X172584586Y-37190422D01*
X172539222Y-37166174D01*
X172499458Y-37133542D01*
X172466826Y-37093778D01*
X172442578Y-37048414D01*
X172427646Y-36999192D01*
X172422000Y-36941860D01*
X172422000Y-34178140D01*
X172427646Y-34120808D01*
X172442578Y-34071586D01*
X172466826Y-34026222D01*
X172499458Y-33986458D01*
X172539222Y-33953826D01*
X172584586Y-33929578D01*
X172633808Y-33914646D01*
X172691140Y-33909000D01*
X173454860Y-33909000D01*
X173512192Y-33914646D01*
G37*
G36*
X179561142Y-34270242D02*
G01*
X179709101Y-34331529D01*
X179842255Y-34420499D01*
X179955501Y-34533745D01*
X180044471Y-34666899D01*
X180105758Y-34814858D01*
X180137000Y-34971925D01*
X180137000Y-35132075D01*
X180105758Y-35289142D01*
X180044471Y-35437101D01*
X179955501Y-35570255D01*
X179842255Y-35683501D01*
X179709101Y-35772471D01*
X179561142Y-35833758D01*
X179404075Y-35865000D01*
X179243925Y-35865000D01*
X179086858Y-35833758D01*
X178938899Y-35772471D01*
X178805745Y-35683501D01*
X178692499Y-35570255D01*
X178603529Y-35437101D01*
X178542242Y-35289142D01*
X178511000Y-35132075D01*
X178511000Y-34971925D01*
X178542242Y-34814858D01*
X178603529Y-34666899D01*
X178692499Y-34533745D01*
X178805745Y-34420499D01*
X178938899Y-34331529D01*
X179086858Y-34270242D01*
X179243925Y-34239000D01*
X179404075Y-34239000D01*
X179561142Y-34270242D01*
G37*
G36*
X179561142Y-31730242D02*
G01*
X179709101Y-31791529D01*
X179842255Y-31880499D01*
X179955501Y-31993745D01*
X180044471Y-32126899D01*
X180105758Y-32274858D01*
X180137000Y-32431925D01*
X180137000Y-32592075D01*
X180105758Y-32749142D01*
X180044471Y-32897101D01*
X179955501Y-33030255D01*
X179842255Y-33143501D01*
X179709101Y-33232471D01*
X179561142Y-33293758D01*
X179404075Y-33325000D01*
X179243925Y-33325000D01*
X179086858Y-33293758D01*
X178938899Y-33232471D01*
X178805745Y-33143501D01*
X178692499Y-33030255D01*
X178603529Y-32897101D01*
X178542242Y-32749142D01*
X178511000Y-32592075D01*
X178511000Y-32431925D01*
X178542242Y-32274858D01*
X178603529Y-32126899D01*
X178692499Y-31993745D01*
X178805745Y-31880499D01*
X178938899Y-31791529D01*
X179086858Y-31730242D01*
X179243925Y-31699000D01*
X179404075Y-31699000D01*
X179561142Y-31730242D01*
G37*
G36*
X163606642Y-30217781D02*
G01*
X163752414Y-30278162D01*
X163752416Y-30278163D01*
X163883608Y-30365822D01*
X163995178Y-30477392D01*
X164082837Y-30608584D01*
X164082838Y-30608586D01*
X164143219Y-30754358D01*
X164174000Y-30909107D01*
X164174000Y-31066893D01*
X164143219Y-31221642D01*
X164082838Y-31367414D01*
X164082837Y-31367416D01*
X163995178Y-31498608D01*
X163883608Y-31610178D01*
X163752416Y-31697837D01*
X163752415Y-31697838D01*
X163752414Y-31697838D01*
X163606642Y-31758219D01*
X163451893Y-31789000D01*
X163294107Y-31789000D01*
X163139358Y-31758219D01*
X162993586Y-31697838D01*
X162993585Y-31697838D01*
X162993584Y-31697837D01*
X162862392Y-31610178D01*
X162750822Y-31498608D01*
X162663163Y-31367416D01*
X162663162Y-31367414D01*
X162602781Y-31221642D01*
X162572000Y-31066893D01*
X162572000Y-30909107D01*
X162602781Y-30754358D01*
X162663162Y-30608586D01*
X162663163Y-30608584D01*
X162750822Y-30477392D01*
X162862392Y-30365822D01*
X162993584Y-30278163D01*
X162993586Y-30278162D01*
X163139358Y-30217781D01*
X163294107Y-30187000D01*
X163451893Y-30187000D01*
X163606642Y-30217781D01*
G37*
G36*
X170606642Y-30217781D02*
G01*
X170752414Y-30278162D01*
X170752416Y-30278163D01*
X170883608Y-30365822D01*
X170995178Y-30477392D01*
X171082837Y-30608584D01*
X171082838Y-30608586D01*
X171143219Y-30754358D01*
X171174000Y-30909107D01*
X171174000Y-31066893D01*
X171143219Y-31221642D01*
X171082838Y-31367414D01*
X171082837Y-31367416D01*
X170995178Y-31498608D01*
X170883608Y-31610178D01*
X170752416Y-31697837D01*
X170752415Y-31697838D01*
X170752414Y-31697838D01*
X170606642Y-31758219D01*
X170451893Y-31789000D01*
X170294107Y-31789000D01*
X170139358Y-31758219D01*
X169993586Y-31697838D01*
X169993585Y-31697838D01*
X169993584Y-31697837D01*
X169862392Y-31610178D01*
X169750822Y-31498608D01*
X169663163Y-31367416D01*
X169663162Y-31367414D01*
X169602781Y-31221642D01*
X169572000Y-31066893D01*
X169572000Y-30909107D01*
X169602781Y-30754358D01*
X169663162Y-30608586D01*
X169663163Y-30608584D01*
X169750822Y-30477392D01*
X169862392Y-30365822D01*
X169993584Y-30278163D01*
X169993586Y-30278162D01*
X170139358Y-30217781D01*
X170294107Y-30187000D01*
X170451893Y-30187000D01*
X170606642Y-30217781D01*
G37*
G36*
X179561142Y-29190242D02*
G01*
X179709101Y-29251529D01*
X179842255Y-29340499D01*
X179955501Y-29453745D01*
X180044471Y-29586899D01*
X180105758Y-29734858D01*
X180137000Y-29891925D01*
X180137000Y-30052075D01*
X180105758Y-30209142D01*
X180044471Y-30357101D01*
X179955501Y-30490255D01*
X179842255Y-30603501D01*
X179709101Y-30692471D01*
X179561142Y-30753758D01*
X179404075Y-30785000D01*
X179243925Y-30785000D01*
X179086858Y-30753758D01*
X178938899Y-30692471D01*
X178805745Y-30603501D01*
X178692499Y-30490255D01*
X178603529Y-30357101D01*
X178542242Y-30209142D01*
X178511000Y-30052075D01*
X178511000Y-29891925D01*
X178542242Y-29734858D01*
X178603529Y-29586899D01*
X178692499Y-29453745D01*
X178805745Y-29340499D01*
X178938899Y-29251529D01*
X179086858Y-29190242D01*
X179243925Y-29159000D01*
X179404075Y-29159000D01*
X179561142Y-29190242D01*
G37*
G36*
X179561142Y-26650242D02*
G01*
X179709101Y-26711529D01*
X179842255Y-26800499D01*
X179955501Y-26913745D01*
X180044471Y-27046899D01*
X180105758Y-27194858D01*
X180137000Y-27351925D01*
X180137000Y-27512075D01*
X180105758Y-27669142D01*
X180044471Y-27817101D01*
X179955501Y-27950255D01*
X179842255Y-28063501D01*
X179709101Y-28152471D01*
X179561142Y-28213758D01*
X179404075Y-28245000D01*
X179243925Y-28245000D01*
X179086858Y-28213758D01*
X178938899Y-28152471D01*
X178805745Y-28063501D01*
X178692499Y-27950255D01*
X178603529Y-27817101D01*
X178542242Y-27669142D01*
X178511000Y-27512075D01*
X178511000Y-27351925D01*
X178542242Y-27194858D01*
X178603529Y-27046899D01*
X178692499Y-26913745D01*
X178805745Y-26800499D01*
X178938899Y-26711529D01*
X179086858Y-26650242D01*
X179243925Y-26619000D01*
X179404075Y-26619000D01*
X179561142Y-26650242D01*
G37*
G36*
X172397192Y-24770646D02*
G01*
X172446414Y-24785578D01*
X172491778Y-24809826D01*
X172531542Y-24842458D01*
X172564174Y-24882222D01*
X172588422Y-24927586D01*
X172603354Y-24976808D01*
X172609000Y-25034140D01*
X172609000Y-27797860D01*
X172603354Y-27855192D01*
X172588422Y-27904414D01*
X172564174Y-27949778D01*
X172531542Y-27989542D01*
X172491778Y-28022174D01*
X172446414Y-28046422D01*
X172397192Y-28061354D01*
X172339860Y-28067000D01*
X171576140Y-28067000D01*
X171518808Y-28061354D01*
X171469586Y-28046422D01*
X171424222Y-28022174D01*
X171384458Y-27989542D01*
X171351826Y-27949778D01*
X171327578Y-27904414D01*
X171312646Y-27855192D01*
X171307000Y-27797860D01*
X171307000Y-25034140D01*
X171312646Y-24976808D01*
X171327578Y-24927586D01*
X171351826Y-24882222D01*
X171384458Y-24842458D01*
X171424222Y-24809826D01*
X171469586Y-24785578D01*
X171518808Y-24770646D01*
X171576140Y-24765000D01*
X172339860Y-24765000D01*
X172397192Y-24770646D01*
G37*
G36*
X168412192Y-24770646D02*
G01*
X168461414Y-24785578D01*
X168506778Y-24809826D01*
X168546542Y-24842458D01*
X168579174Y-24882222D01*
X168603422Y-24927586D01*
X168618354Y-24976808D01*
X168624000Y-25034140D01*
X168624000Y-27797860D01*
X168618354Y-27855192D01*
X168603422Y-27904414D01*
X168579174Y-27949778D01*
X168546542Y-27989542D01*
X168506778Y-28022174D01*
X168461414Y-28046422D01*
X168412192Y-28061354D01*
X168354860Y-28067000D01*
X167591140Y-28067000D01*
X167533808Y-28061354D01*
X167484586Y-28046422D01*
X167439222Y-28022174D01*
X167399458Y-27989542D01*
X167366826Y-27949778D01*
X167342578Y-27904414D01*
X167327646Y-27855192D01*
X167322000Y-27797860D01*
X167322000Y-25034140D01*
X167327646Y-24976808D01*
X167342578Y-24927586D01*
X167366826Y-24882222D01*
X167399458Y-24842458D01*
X167439222Y-24809826D01*
X167484586Y-24785578D01*
X167533808Y-24770646D01*
X167591140Y-24765000D01*
X168354860Y-24765000D01*
X168412192Y-24770646D01*
G37*
G36*
X165412192Y-24770646D02*
G01*
X165461414Y-24785578D01*
X165506778Y-24809826D01*
X165546542Y-24842458D01*
X165579174Y-24882222D01*
X165603422Y-24927586D01*
X165618354Y-24976808D01*
X165624000Y-25034140D01*
X165624000Y-27797860D01*
X165618354Y-27855192D01*
X165603422Y-27904414D01*
X165579174Y-27949778D01*
X165546542Y-27989542D01*
X165506778Y-28022174D01*
X165461414Y-28046422D01*
X165412192Y-28061354D01*
X165354860Y-28067000D01*
X164591140Y-28067000D01*
X164533808Y-28061354D01*
X164484586Y-28046422D01*
X164439222Y-28022174D01*
X164399458Y-27989542D01*
X164366826Y-27949778D01*
X164342578Y-27904414D01*
X164327646Y-27855192D01*
X164322000Y-27797860D01*
X164322000Y-25034140D01*
X164327646Y-24976808D01*
X164342578Y-24927586D01*
X164366826Y-24882222D01*
X164399458Y-24842458D01*
X164439222Y-24809826D01*
X164484586Y-24785578D01*
X164533808Y-24770646D01*
X164591140Y-24765000D01*
X165354860Y-24765000D01*
X165412192Y-24770646D01*
G37*
M02*
