G04 #@! TF.GenerationSoftware,KiCad,Pcbnew,(5.1.5)-3*
G04 #@! TF.CreationDate,2020-12-21T12:43:05+01:00*
G04 #@! TF.ProjectId,epimetheus_vl53l0x,6570696d-6574-4686-9575-735f766c3533,rev?*
G04 #@! TF.SameCoordinates,Original*
G04 #@! TF.FileFunction,Copper,L2,Bot*
G04 #@! TF.FilePolarity,Positive*
%FSLAX46Y46*%
G04 Gerber Fmt 4.6, Leading zero omitted, Abs format (unit mm)*
G04 Created by KiCad (PCBNEW (5.1.5)-3) date 2020-12-21 12:43:05*
%MOMM*%
%LPD*%
G04 APERTURE LIST*
%ADD10C,1.524000*%
%ADD11R,1.700000X1.700000*%
%ADD12C,0.800000*%
%ADD13C,0.250000*%
%ADD14C,0.254000*%
G04 APERTURE END LIST*
D10*
X179070000Y-25146000D03*
X179070000Y-27686000D03*
X179070000Y-30226000D03*
X179070000Y-32766000D03*
X179070000Y-35306000D03*
X179070000Y-37846000D03*
D11*
X170942000Y-43180000D03*
D12*
X177038000Y-28485000D03*
D13*
X179070000Y-37846000D02*
X177038000Y-35814000D01*
X177038000Y-35814000D02*
X177038000Y-28702000D01*
X177038000Y-28702000D02*
X177038000Y-28485000D01*
X170942000Y-33274000D02*
X170942000Y-43180000D01*
X179070000Y-25146000D02*
X170942000Y-33274000D01*
D14*
G36*
X180442000Y-35035415D02*
G01*
X180430922Y-34961867D01*
X180337636Y-34702977D01*
X180275656Y-34587020D01*
X180035565Y-34520040D01*
X179249605Y-35306000D01*
X180035565Y-36091960D01*
X180275656Y-36024980D01*
X180392756Y-35775952D01*
X180442000Y-35577474D01*
X180442000Y-37582726D01*
X180413314Y-37438510D01*
X180308005Y-37184273D01*
X180155120Y-36955465D01*
X179960535Y-36760880D01*
X179731727Y-36607995D01*
X179660057Y-36578308D01*
X179673023Y-36573636D01*
X179788980Y-36511656D01*
X179855960Y-36271565D01*
X179070000Y-35485605D01*
X179055858Y-35499748D01*
X178876253Y-35320143D01*
X178890395Y-35306000D01*
X178104435Y-34520040D01*
X177864344Y-34587020D01*
X177798000Y-34728109D01*
X177798000Y-33345656D01*
X177831995Y-33427727D01*
X177984880Y-33656535D01*
X178179465Y-33851120D01*
X178408273Y-34004005D01*
X178479943Y-34033692D01*
X178466977Y-34038364D01*
X178351020Y-34100344D01*
X178284040Y-34340435D01*
X179070000Y-35126395D01*
X179855960Y-34340435D01*
X179788980Y-34100344D01*
X179653240Y-34036515D01*
X179731727Y-34004005D01*
X179960535Y-33851120D01*
X180155120Y-33656535D01*
X180308005Y-33427727D01*
X180413314Y-33173490D01*
X180442000Y-33029273D01*
X180442000Y-35035415D01*
G37*
X180442000Y-35035415D02*
X180430922Y-34961867D01*
X180337636Y-34702977D01*
X180275656Y-34587020D01*
X180035565Y-34520040D01*
X179249605Y-35306000D01*
X180035565Y-36091960D01*
X180275656Y-36024980D01*
X180392756Y-35775952D01*
X180442000Y-35577474D01*
X180442000Y-37582726D01*
X180413314Y-37438510D01*
X180308005Y-37184273D01*
X180155120Y-36955465D01*
X179960535Y-36760880D01*
X179731727Y-36607995D01*
X179660057Y-36578308D01*
X179673023Y-36573636D01*
X179788980Y-36511656D01*
X179855960Y-36271565D01*
X179070000Y-35485605D01*
X179055858Y-35499748D01*
X178876253Y-35320143D01*
X178890395Y-35306000D01*
X178104435Y-34520040D01*
X177864344Y-34587020D01*
X177798000Y-34728109D01*
X177798000Y-33345656D01*
X177831995Y-33427727D01*
X177984880Y-33656535D01*
X178179465Y-33851120D01*
X178408273Y-34004005D01*
X178479943Y-34033692D01*
X178466977Y-34038364D01*
X178351020Y-34100344D01*
X178284040Y-34340435D01*
X179070000Y-35126395D01*
X179855960Y-34340435D01*
X179788980Y-34100344D01*
X179653240Y-34036515D01*
X179731727Y-34004005D01*
X179960535Y-33851120D01*
X180155120Y-33656535D01*
X180308005Y-33427727D01*
X180413314Y-33173490D01*
X180442000Y-33029273D01*
X180442000Y-35035415D01*
M02*
