G04 #@! TF.GenerationSoftware,KiCad,Pcbnew,(5.1.5)-3*
G04 #@! TF.CreationDate,2020-12-21T12:43:05+01:00*
G04 #@! TF.ProjectId,epimetheus_vl53l0x,6570696d-6574-4686-9575-735f766c3533,rev?*
G04 #@! TF.SameCoordinates,Original*
G04 #@! TF.FileFunction,Soldermask,Top*
G04 #@! TF.FilePolarity,Negative*
%FSLAX46Y46*%
G04 Gerber Fmt 4.6, Leading zero omitted, Abs format (unit mm)*
G04 Created by KiCad (PCBNEW (5.1.5)-3) date 2020-12-21 12:43:05*
%MOMM*%
%LPD*%
G04 APERTURE LIST*
%ADD10C,0.100000*%
G04 APERTURE END LIST*
D10*
G36*
X171843000Y-44081000D02*
G01*
X170041000Y-44081000D01*
X170041000Y-42279000D01*
X171843000Y-42279000D01*
X171843000Y-44081000D01*
G37*
G36*
X179307142Y-37064242D02*
G01*
X179455101Y-37125529D01*
X179588255Y-37214499D01*
X179701501Y-37327745D01*
X179790471Y-37460899D01*
X179851758Y-37608858D01*
X179883000Y-37765925D01*
X179883000Y-37926075D01*
X179851758Y-38083142D01*
X179790471Y-38231101D01*
X179701501Y-38364255D01*
X179588255Y-38477501D01*
X179455101Y-38566471D01*
X179307142Y-38627758D01*
X179150075Y-38659000D01*
X178989925Y-38659000D01*
X178832858Y-38627758D01*
X178684899Y-38566471D01*
X178551745Y-38477501D01*
X178438499Y-38364255D01*
X178349529Y-38231101D01*
X178288242Y-38083142D01*
X178257000Y-37926075D01*
X178257000Y-37765925D01*
X178288242Y-37608858D01*
X178349529Y-37460899D01*
X178438499Y-37327745D01*
X178551745Y-37214499D01*
X178684899Y-37125529D01*
X178832858Y-37064242D01*
X178989925Y-37033000D01*
X179150075Y-37033000D01*
X179307142Y-37064242D01*
G37*
G36*
X173512192Y-33914646D02*
G01*
X173561414Y-33929578D01*
X173606778Y-33953826D01*
X173646542Y-33986458D01*
X173679174Y-34026222D01*
X173703422Y-34071586D01*
X173718354Y-34120808D01*
X173724000Y-34178140D01*
X173724000Y-36941860D01*
X173718354Y-36999192D01*
X173703422Y-37048414D01*
X173679174Y-37093778D01*
X173646542Y-37133542D01*
X173606778Y-37166174D01*
X173561414Y-37190422D01*
X173512192Y-37205354D01*
X173454860Y-37211000D01*
X172691140Y-37211000D01*
X172633808Y-37205354D01*
X172584586Y-37190422D01*
X172539222Y-37166174D01*
X172499458Y-37133542D01*
X172466826Y-37093778D01*
X172442578Y-37048414D01*
X172427646Y-36999192D01*
X172422000Y-36941860D01*
X172422000Y-34178140D01*
X172427646Y-34120808D01*
X172442578Y-34071586D01*
X172466826Y-34026222D01*
X172499458Y-33986458D01*
X172539222Y-33953826D01*
X172584586Y-33929578D01*
X172633808Y-33914646D01*
X172691140Y-33909000D01*
X173454860Y-33909000D01*
X173512192Y-33914646D01*
G37*
G36*
X179307142Y-34524242D02*
G01*
X179455101Y-34585529D01*
X179588255Y-34674499D01*
X179701501Y-34787745D01*
X179790471Y-34920899D01*
X179851758Y-35068858D01*
X179883000Y-35225925D01*
X179883000Y-35386075D01*
X179851758Y-35543142D01*
X179790471Y-35691101D01*
X179701501Y-35824255D01*
X179588255Y-35937501D01*
X179455101Y-36026471D01*
X179307142Y-36087758D01*
X179150075Y-36119000D01*
X178989925Y-36119000D01*
X178832858Y-36087758D01*
X178684899Y-36026471D01*
X178551745Y-35937501D01*
X178438499Y-35824255D01*
X178349529Y-35691101D01*
X178288242Y-35543142D01*
X178257000Y-35386075D01*
X178257000Y-35225925D01*
X178288242Y-35068858D01*
X178349529Y-34920899D01*
X178438499Y-34787745D01*
X178551745Y-34674499D01*
X178684899Y-34585529D01*
X178832858Y-34524242D01*
X178989925Y-34493000D01*
X179150075Y-34493000D01*
X179307142Y-34524242D01*
G37*
G36*
X179307142Y-31984242D02*
G01*
X179455101Y-32045529D01*
X179588255Y-32134499D01*
X179701501Y-32247745D01*
X179790471Y-32380899D01*
X179851758Y-32528858D01*
X179883000Y-32685925D01*
X179883000Y-32846075D01*
X179851758Y-33003142D01*
X179790471Y-33151101D01*
X179701501Y-33284255D01*
X179588255Y-33397501D01*
X179455101Y-33486471D01*
X179307142Y-33547758D01*
X179150075Y-33579000D01*
X178989925Y-33579000D01*
X178832858Y-33547758D01*
X178684899Y-33486471D01*
X178551745Y-33397501D01*
X178438499Y-33284255D01*
X178349529Y-33151101D01*
X178288242Y-33003142D01*
X178257000Y-32846075D01*
X178257000Y-32685925D01*
X178288242Y-32528858D01*
X178349529Y-32380899D01*
X178438499Y-32247745D01*
X178551745Y-32134499D01*
X178684899Y-32045529D01*
X178832858Y-31984242D01*
X178989925Y-31953000D01*
X179150075Y-31953000D01*
X179307142Y-31984242D01*
G37*
G36*
X163606642Y-30217781D02*
G01*
X163752414Y-30278162D01*
X163752416Y-30278163D01*
X163883608Y-30365822D01*
X163995178Y-30477392D01*
X164082837Y-30608584D01*
X164082838Y-30608586D01*
X164143219Y-30754358D01*
X164174000Y-30909107D01*
X164174000Y-31066893D01*
X164143219Y-31221642D01*
X164082838Y-31367414D01*
X164082837Y-31367416D01*
X163995178Y-31498608D01*
X163883608Y-31610178D01*
X163752416Y-31697837D01*
X163752415Y-31697838D01*
X163752414Y-31697838D01*
X163606642Y-31758219D01*
X163451893Y-31789000D01*
X163294107Y-31789000D01*
X163139358Y-31758219D01*
X162993586Y-31697838D01*
X162993585Y-31697838D01*
X162993584Y-31697837D01*
X162862392Y-31610178D01*
X162750822Y-31498608D01*
X162663163Y-31367416D01*
X162663162Y-31367414D01*
X162602781Y-31221642D01*
X162572000Y-31066893D01*
X162572000Y-30909107D01*
X162602781Y-30754358D01*
X162663162Y-30608586D01*
X162663163Y-30608584D01*
X162750822Y-30477392D01*
X162862392Y-30365822D01*
X162993584Y-30278163D01*
X162993586Y-30278162D01*
X163139358Y-30217781D01*
X163294107Y-30187000D01*
X163451893Y-30187000D01*
X163606642Y-30217781D01*
G37*
G36*
X170606642Y-30217781D02*
G01*
X170752414Y-30278162D01*
X170752416Y-30278163D01*
X170883608Y-30365822D01*
X170995178Y-30477392D01*
X171082837Y-30608584D01*
X171082838Y-30608586D01*
X171143219Y-30754358D01*
X171174000Y-30909107D01*
X171174000Y-31066893D01*
X171143219Y-31221642D01*
X171082838Y-31367414D01*
X171082837Y-31367416D01*
X170995178Y-31498608D01*
X170883608Y-31610178D01*
X170752416Y-31697837D01*
X170752415Y-31697838D01*
X170752414Y-31697838D01*
X170606642Y-31758219D01*
X170451893Y-31789000D01*
X170294107Y-31789000D01*
X170139358Y-31758219D01*
X169993586Y-31697838D01*
X169993585Y-31697838D01*
X169993584Y-31697837D01*
X169862392Y-31610178D01*
X169750822Y-31498608D01*
X169663163Y-31367416D01*
X169663162Y-31367414D01*
X169602781Y-31221642D01*
X169572000Y-31066893D01*
X169572000Y-30909107D01*
X169602781Y-30754358D01*
X169663162Y-30608586D01*
X169663163Y-30608584D01*
X169750822Y-30477392D01*
X169862392Y-30365822D01*
X169993584Y-30278163D01*
X169993586Y-30278162D01*
X170139358Y-30217781D01*
X170294107Y-30187000D01*
X170451893Y-30187000D01*
X170606642Y-30217781D01*
G37*
G36*
X179307142Y-29444242D02*
G01*
X179455101Y-29505529D01*
X179588255Y-29594499D01*
X179701501Y-29707745D01*
X179790471Y-29840899D01*
X179851758Y-29988858D01*
X179883000Y-30145925D01*
X179883000Y-30306075D01*
X179851758Y-30463142D01*
X179790471Y-30611101D01*
X179701501Y-30744255D01*
X179588255Y-30857501D01*
X179455101Y-30946471D01*
X179307142Y-31007758D01*
X179150075Y-31039000D01*
X178989925Y-31039000D01*
X178832858Y-31007758D01*
X178684899Y-30946471D01*
X178551745Y-30857501D01*
X178438499Y-30744255D01*
X178349529Y-30611101D01*
X178288242Y-30463142D01*
X178257000Y-30306075D01*
X178257000Y-30145925D01*
X178288242Y-29988858D01*
X178349529Y-29840899D01*
X178438499Y-29707745D01*
X178551745Y-29594499D01*
X178684899Y-29505529D01*
X178832858Y-29444242D01*
X178989925Y-29413000D01*
X179150075Y-29413000D01*
X179307142Y-29444242D01*
G37*
G36*
X179307142Y-26904242D02*
G01*
X179455101Y-26965529D01*
X179588255Y-27054499D01*
X179701501Y-27167745D01*
X179790471Y-27300899D01*
X179851758Y-27448858D01*
X179883000Y-27605925D01*
X179883000Y-27766075D01*
X179851758Y-27923142D01*
X179790471Y-28071101D01*
X179701501Y-28204255D01*
X179588255Y-28317501D01*
X179455101Y-28406471D01*
X179307142Y-28467758D01*
X179150075Y-28499000D01*
X178989925Y-28499000D01*
X178832858Y-28467758D01*
X178684899Y-28406471D01*
X178551745Y-28317501D01*
X178438499Y-28204255D01*
X178349529Y-28071101D01*
X178288242Y-27923142D01*
X178257000Y-27766075D01*
X178257000Y-27605925D01*
X178288242Y-27448858D01*
X178349529Y-27300899D01*
X178438499Y-27167745D01*
X178551745Y-27054499D01*
X178684899Y-26965529D01*
X178832858Y-26904242D01*
X178989925Y-26873000D01*
X179150075Y-26873000D01*
X179307142Y-26904242D01*
G37*
G36*
X165412192Y-24770646D02*
G01*
X165461414Y-24785578D01*
X165506778Y-24809826D01*
X165546542Y-24842458D01*
X165579174Y-24882222D01*
X165603422Y-24927586D01*
X165618354Y-24976808D01*
X165624000Y-25034140D01*
X165624000Y-27797860D01*
X165618354Y-27855192D01*
X165603422Y-27904414D01*
X165579174Y-27949778D01*
X165546542Y-27989542D01*
X165506778Y-28022174D01*
X165461414Y-28046422D01*
X165412192Y-28061354D01*
X165354860Y-28067000D01*
X164591140Y-28067000D01*
X164533808Y-28061354D01*
X164484586Y-28046422D01*
X164439222Y-28022174D01*
X164399458Y-27989542D01*
X164366826Y-27949778D01*
X164342578Y-27904414D01*
X164327646Y-27855192D01*
X164322000Y-27797860D01*
X164322000Y-25034140D01*
X164327646Y-24976808D01*
X164342578Y-24927586D01*
X164366826Y-24882222D01*
X164399458Y-24842458D01*
X164439222Y-24809826D01*
X164484586Y-24785578D01*
X164533808Y-24770646D01*
X164591140Y-24765000D01*
X165354860Y-24765000D01*
X165412192Y-24770646D01*
G37*
G36*
X168412192Y-24770646D02*
G01*
X168461414Y-24785578D01*
X168506778Y-24809826D01*
X168546542Y-24842458D01*
X168579174Y-24882222D01*
X168603422Y-24927586D01*
X168618354Y-24976808D01*
X168624000Y-25034140D01*
X168624000Y-27797860D01*
X168618354Y-27855192D01*
X168603422Y-27904414D01*
X168579174Y-27949778D01*
X168546542Y-27989542D01*
X168506778Y-28022174D01*
X168461414Y-28046422D01*
X168412192Y-28061354D01*
X168354860Y-28067000D01*
X167591140Y-28067000D01*
X167533808Y-28061354D01*
X167484586Y-28046422D01*
X167439222Y-28022174D01*
X167399458Y-27989542D01*
X167366826Y-27949778D01*
X167342578Y-27904414D01*
X167327646Y-27855192D01*
X167322000Y-27797860D01*
X167322000Y-25034140D01*
X167327646Y-24976808D01*
X167342578Y-24927586D01*
X167366826Y-24882222D01*
X167399458Y-24842458D01*
X167439222Y-24809826D01*
X167484586Y-24785578D01*
X167533808Y-24770646D01*
X167591140Y-24765000D01*
X168354860Y-24765000D01*
X168412192Y-24770646D01*
G37*
G36*
X172397192Y-24770646D02*
G01*
X172446414Y-24785578D01*
X172491778Y-24809826D01*
X172531542Y-24842458D01*
X172564174Y-24882222D01*
X172588422Y-24927586D01*
X172603354Y-24976808D01*
X172609000Y-25034140D01*
X172609000Y-27797860D01*
X172603354Y-27855192D01*
X172588422Y-27904414D01*
X172564174Y-27949778D01*
X172531542Y-27989542D01*
X172491778Y-28022174D01*
X172446414Y-28046422D01*
X172397192Y-28061354D01*
X172339860Y-28067000D01*
X171576140Y-28067000D01*
X171518808Y-28061354D01*
X171469586Y-28046422D01*
X171424222Y-28022174D01*
X171384458Y-27989542D01*
X171351826Y-27949778D01*
X171327578Y-27904414D01*
X171312646Y-27855192D01*
X171307000Y-27797860D01*
X171307000Y-25034140D01*
X171312646Y-24976808D01*
X171327578Y-24927586D01*
X171351826Y-24882222D01*
X171384458Y-24842458D01*
X171424222Y-24809826D01*
X171469586Y-24785578D01*
X171518808Y-24770646D01*
X171576140Y-24765000D01*
X172339860Y-24765000D01*
X172397192Y-24770646D01*
G37*
G36*
X179307142Y-24364242D02*
G01*
X179455101Y-24425529D01*
X179588255Y-24514499D01*
X179701501Y-24627745D01*
X179790471Y-24760899D01*
X179851758Y-24908858D01*
X179883000Y-25065925D01*
X179883000Y-25226075D01*
X179851758Y-25383142D01*
X179790471Y-25531101D01*
X179701501Y-25664255D01*
X179588255Y-25777501D01*
X179455101Y-25866471D01*
X179307142Y-25927758D01*
X179150075Y-25959000D01*
X178989925Y-25959000D01*
X178832858Y-25927758D01*
X178684899Y-25866471D01*
X178551745Y-25777501D01*
X178438499Y-25664255D01*
X178349529Y-25531101D01*
X178288242Y-25383142D01*
X178257000Y-25226075D01*
X178257000Y-25065925D01*
X178288242Y-24908858D01*
X178349529Y-24760899D01*
X178438499Y-24627745D01*
X178551745Y-24514499D01*
X178684899Y-24425529D01*
X178832858Y-24364242D01*
X178989925Y-24333000D01*
X179150075Y-24333000D01*
X179307142Y-24364242D01*
G37*
M02*
