G04 #@! TF.GenerationSoftware,KiCad,Pcbnew,(5.1.5)-3*
G04 #@! TF.CreationDate,2020-12-21T12:28:59+01:00*
G04 #@! TF.ProjectId,epimetheus_bme680,6570696d-6574-4686-9575-735f626d6536,rev?*
G04 #@! TF.SameCoordinates,Original*
G04 #@! TF.FileFunction,Legend,Top*
G04 #@! TF.FilePolarity,Positive*
%FSLAX46Y46*%
G04 Gerber Fmt 4.6, Leading zero omitted, Abs format (unit mm)*
G04 Created by KiCad (PCBNEW (5.1.5)-3) date 2020-12-21 12:28:59*
%MOMM*%
%LPD*%
G04 APERTURE LIST*
%ADD10C,0.150000*%
%ADD11C,0.120000*%
G04 APERTURE END LIST*
D10*
X162211047Y-22280571D02*
X162353904Y-22328190D01*
X162401523Y-22375809D01*
X162449142Y-22471047D01*
X162449142Y-22613904D01*
X162401523Y-22709142D01*
X162353904Y-22756761D01*
X162258666Y-22804380D01*
X161877714Y-22804380D01*
X161877714Y-21804380D01*
X162211047Y-21804380D01*
X162306285Y-21852000D01*
X162353904Y-21899619D01*
X162401523Y-21994857D01*
X162401523Y-22090095D01*
X162353904Y-22185333D01*
X162306285Y-22232952D01*
X162211047Y-22280571D01*
X161877714Y-22280571D01*
X162877714Y-22804380D02*
X162877714Y-21804380D01*
X163211047Y-22518666D01*
X163544380Y-21804380D01*
X163544380Y-22804380D01*
X164020571Y-22280571D02*
X164353904Y-22280571D01*
X164496761Y-22804380D02*
X164020571Y-22804380D01*
X164020571Y-21804380D01*
X164496761Y-21804380D01*
X165353904Y-21804380D02*
X165163428Y-21804380D01*
X165068190Y-21852000D01*
X165020571Y-21899619D01*
X164925333Y-22042476D01*
X164877714Y-22232952D01*
X164877714Y-22613904D01*
X164925333Y-22709142D01*
X164972952Y-22756761D01*
X165068190Y-22804380D01*
X165258666Y-22804380D01*
X165353904Y-22756761D01*
X165401523Y-22709142D01*
X165449142Y-22613904D01*
X165449142Y-22375809D01*
X165401523Y-22280571D01*
X165353904Y-22232952D01*
X165258666Y-22185333D01*
X165068190Y-22185333D01*
X164972952Y-22232952D01*
X164925333Y-22280571D01*
X164877714Y-22375809D01*
X166020571Y-22232952D02*
X165925333Y-22185333D01*
X165877714Y-22137714D01*
X165830095Y-22042476D01*
X165830095Y-21994857D01*
X165877714Y-21899619D01*
X165925333Y-21852000D01*
X166020571Y-21804380D01*
X166211047Y-21804380D01*
X166306285Y-21852000D01*
X166353904Y-21899619D01*
X166401523Y-21994857D01*
X166401523Y-22042476D01*
X166353904Y-22137714D01*
X166306285Y-22185333D01*
X166211047Y-22232952D01*
X166020571Y-22232952D01*
X165925333Y-22280571D01*
X165877714Y-22328190D01*
X165830095Y-22423428D01*
X165830095Y-22613904D01*
X165877714Y-22709142D01*
X165925333Y-22756761D01*
X166020571Y-22804380D01*
X166211047Y-22804380D01*
X166306285Y-22756761D01*
X166353904Y-22709142D01*
X166401523Y-22613904D01*
X166401523Y-22423428D01*
X166353904Y-22328190D01*
X166306285Y-22280571D01*
X166211047Y-22232952D01*
X167020571Y-21804380D02*
X167115809Y-21804380D01*
X167211047Y-21852000D01*
X167258666Y-21899619D01*
X167306285Y-21994857D01*
X167353904Y-22185333D01*
X167353904Y-22423428D01*
X167306285Y-22613904D01*
X167258666Y-22709142D01*
X167211047Y-22756761D01*
X167115809Y-22804380D01*
X167020571Y-22804380D01*
X166925333Y-22756761D01*
X166877714Y-22709142D01*
X166830095Y-22613904D01*
X166782476Y-22423428D01*
X166782476Y-22185333D01*
X166830095Y-21994857D01*
X166877714Y-21899619D01*
X166925333Y-21852000D01*
X167020571Y-21804380D01*
D11*
X162052000Y-27888000D02*
X162052000Y-34088000D01*
X173873000Y-34088000D02*
X173873000Y-27888000D01*
X162052000Y-27888000D02*
X164148000Y-27888000D01*
X165798000Y-27888000D02*
X167148000Y-27888000D01*
X168798000Y-27888000D02*
X171198000Y-27888000D01*
X172748000Y-27888000D02*
X173873000Y-27888000D01*
X172298000Y-34088000D02*
X162052000Y-34088000D01*
D10*
X176363333Y-24487142D02*
X176315714Y-24534761D01*
X176172857Y-24582380D01*
X176077619Y-24582380D01*
X175934761Y-24534761D01*
X175839523Y-24439523D01*
X175791904Y-24344285D01*
X175744285Y-24153809D01*
X175744285Y-24010952D01*
X175791904Y-23820476D01*
X175839523Y-23725238D01*
X175934761Y-23630000D01*
X176077619Y-23582380D01*
X176172857Y-23582380D01*
X176315714Y-23630000D01*
X176363333Y-23677619D01*
X176744285Y-24534761D02*
X176887142Y-24582380D01*
X177125238Y-24582380D01*
X177220476Y-24534761D01*
X177268095Y-24487142D01*
X177315714Y-24391904D01*
X177315714Y-24296666D01*
X177268095Y-24201428D01*
X177220476Y-24153809D01*
X177125238Y-24106190D01*
X176934761Y-24058571D01*
X176839523Y-24010952D01*
X176791904Y-23963333D01*
X176744285Y-23868095D01*
X176744285Y-23772857D01*
X176791904Y-23677619D01*
X176839523Y-23630000D01*
X176934761Y-23582380D01*
X177172857Y-23582380D01*
X177315714Y-23630000D01*
X174760095Y-27074761D02*
X174902952Y-27122380D01*
X175141047Y-27122380D01*
X175236285Y-27074761D01*
X175283904Y-27027142D01*
X175331523Y-26931904D01*
X175331523Y-26836666D01*
X175283904Y-26741428D01*
X175236285Y-26693809D01*
X175141047Y-26646190D01*
X174950571Y-26598571D01*
X174855333Y-26550952D01*
X174807714Y-26503333D01*
X174760095Y-26408095D01*
X174760095Y-26312857D01*
X174807714Y-26217619D01*
X174855333Y-26170000D01*
X174950571Y-26122380D01*
X175188666Y-26122380D01*
X175331523Y-26170000D01*
X175760095Y-27122380D02*
X175760095Y-26122380D01*
X175998190Y-26122380D01*
X176141047Y-26170000D01*
X176236285Y-26265238D01*
X176283904Y-26360476D01*
X176331523Y-26550952D01*
X176331523Y-26693809D01*
X176283904Y-26884285D01*
X176236285Y-26979523D01*
X176141047Y-27074761D01*
X175998190Y-27122380D01*
X175760095Y-27122380D01*
X176950571Y-26122380D02*
X177045809Y-26122380D01*
X177141047Y-26170000D01*
X177188666Y-26217619D01*
X177236285Y-26312857D01*
X177283904Y-26503333D01*
X177283904Y-26741428D01*
X177236285Y-26931904D01*
X177188666Y-27027142D01*
X177141047Y-27074761D01*
X177045809Y-27122380D01*
X176950571Y-27122380D01*
X176855333Y-27074761D01*
X176807714Y-27027142D01*
X176760095Y-26931904D01*
X176712476Y-26741428D01*
X176712476Y-26503333D01*
X176760095Y-26312857D01*
X176807714Y-26217619D01*
X176855333Y-26170000D01*
X176950571Y-26122380D01*
X174807714Y-29614761D02*
X174950571Y-29662380D01*
X175188666Y-29662380D01*
X175283904Y-29614761D01*
X175331523Y-29567142D01*
X175379142Y-29471904D01*
X175379142Y-29376666D01*
X175331523Y-29281428D01*
X175283904Y-29233809D01*
X175188666Y-29186190D01*
X174998190Y-29138571D01*
X174902952Y-29090952D01*
X174855333Y-29043333D01*
X174807714Y-28948095D01*
X174807714Y-28852857D01*
X174855333Y-28757619D01*
X174902952Y-28710000D01*
X174998190Y-28662380D01*
X175236285Y-28662380D01*
X175379142Y-28710000D01*
X175807714Y-29662380D02*
X175807714Y-28662380D01*
X176045809Y-28662380D01*
X176188666Y-28710000D01*
X176283904Y-28805238D01*
X176331523Y-28900476D01*
X176379142Y-29090952D01*
X176379142Y-29233809D01*
X176331523Y-29424285D01*
X176283904Y-29519523D01*
X176188666Y-29614761D01*
X176045809Y-29662380D01*
X175807714Y-29662380D01*
X176760095Y-29376666D02*
X177236285Y-29376666D01*
X176664857Y-29662380D02*
X176998190Y-28662380D01*
X177331523Y-29662380D01*
X174831523Y-32154761D02*
X174974380Y-32202380D01*
X175212476Y-32202380D01*
X175307714Y-32154761D01*
X175355333Y-32107142D01*
X175402952Y-32011904D01*
X175402952Y-31916666D01*
X175355333Y-31821428D01*
X175307714Y-31773809D01*
X175212476Y-31726190D01*
X175022000Y-31678571D01*
X174926761Y-31630952D01*
X174879142Y-31583333D01*
X174831523Y-31488095D01*
X174831523Y-31392857D01*
X174879142Y-31297619D01*
X174926761Y-31250000D01*
X175022000Y-31202380D01*
X175260095Y-31202380D01*
X175402952Y-31250000D01*
X176402952Y-32107142D02*
X176355333Y-32154761D01*
X176212476Y-32202380D01*
X176117238Y-32202380D01*
X175974380Y-32154761D01*
X175879142Y-32059523D01*
X175831523Y-31964285D01*
X175783904Y-31773809D01*
X175783904Y-31630952D01*
X175831523Y-31440476D01*
X175879142Y-31345238D01*
X175974380Y-31250000D01*
X176117238Y-31202380D01*
X176212476Y-31202380D01*
X176355333Y-31250000D01*
X176402952Y-31297619D01*
X177307714Y-32202380D02*
X176831523Y-32202380D01*
X176831523Y-31202380D01*
X175260095Y-33790000D02*
X175164857Y-33742380D01*
X175022000Y-33742380D01*
X174879142Y-33790000D01*
X174783904Y-33885238D01*
X174736285Y-33980476D01*
X174688666Y-34170952D01*
X174688666Y-34313809D01*
X174736285Y-34504285D01*
X174783904Y-34599523D01*
X174879142Y-34694761D01*
X175022000Y-34742380D01*
X175117238Y-34742380D01*
X175260095Y-34694761D01*
X175307714Y-34647142D01*
X175307714Y-34313809D01*
X175117238Y-34313809D01*
X175736285Y-34742380D02*
X175736285Y-33742380D01*
X176307714Y-34742380D01*
X176307714Y-33742380D01*
X176783904Y-34742380D02*
X176783904Y-33742380D01*
X177022000Y-33742380D01*
X177164857Y-33790000D01*
X177260095Y-33885238D01*
X177307714Y-33980476D01*
X177355333Y-34170952D01*
X177355333Y-34313809D01*
X177307714Y-34504285D01*
X177260095Y-34599523D01*
X177164857Y-34694761D01*
X177022000Y-34742380D01*
X176783904Y-34742380D01*
X174688666Y-36282380D02*
X175022000Y-37282380D01*
X175355333Y-36282380D01*
X176260095Y-37187142D02*
X176212476Y-37234761D01*
X176069619Y-37282380D01*
X175974380Y-37282380D01*
X175831523Y-37234761D01*
X175736285Y-37139523D01*
X175688666Y-37044285D01*
X175641047Y-36853809D01*
X175641047Y-36710952D01*
X175688666Y-36520476D01*
X175736285Y-36425238D01*
X175831523Y-36330000D01*
X175974380Y-36282380D01*
X176069619Y-36282380D01*
X176212476Y-36330000D01*
X176260095Y-36377619D01*
X177260095Y-37187142D02*
X177212476Y-37234761D01*
X177069619Y-37282380D01*
X176974380Y-37282380D01*
X176831523Y-37234761D01*
X176736285Y-37139523D01*
X176688666Y-37044285D01*
X176641047Y-36853809D01*
X176641047Y-36710952D01*
X176688666Y-36520476D01*
X176736285Y-36425238D01*
X176831523Y-36330000D01*
X176974380Y-36282380D01*
X177069619Y-36282380D01*
X177212476Y-36330000D01*
X177260095Y-36377619D01*
M02*
