G04 #@! TF.GenerationSoftware,KiCad,Pcbnew,(5.1.5)-3*
G04 #@! TF.CreationDate,2020-12-21T12:28:59+01:00*
G04 #@! TF.ProjectId,epimetheus_bme680,6570696d-6574-4686-9575-735f626d6536,rev?*
G04 #@! TF.SameCoordinates,Original*
G04 #@! TF.FileFunction,Copper,L2,Bot*
G04 #@! TF.FilePolarity,Positive*
%FSLAX46Y46*%
G04 Gerber Fmt 4.6, Leading zero omitted, Abs format (unit mm)*
G04 Created by KiCad (PCBNEW (5.1.5)-3) date 2020-12-21 12:28:59*
%MOMM*%
%LPD*%
G04 APERTURE LIST*
%ADD10C,1.524000*%
%ADD11O,1.700000X1.700000*%
%ADD12R,1.700000X1.700000*%
%ADD13C,0.800000*%
%ADD14C,0.250000*%
%ADD15C,0.254000*%
G04 APERTURE END LIST*
D10*
X179070000Y-24130000D03*
X179070000Y-26670000D03*
X179070000Y-29210000D03*
X179070000Y-31750000D03*
X179070000Y-34290000D03*
X179070000Y-36830000D03*
D11*
X170942000Y-35306000D03*
D12*
X170942000Y-37846000D03*
D13*
X173482000Y-25146000D03*
D14*
X179070000Y-36830000D02*
X173482000Y-31242000D01*
X173482000Y-31242000D02*
X173482000Y-25146000D01*
X169297999Y-37301999D02*
X169842000Y-37846000D01*
X169297999Y-28256999D02*
X169297999Y-37301999D01*
X173133999Y-24420999D02*
X169297999Y-28256999D01*
X176820999Y-24420999D02*
X173133999Y-24420999D01*
X169842000Y-37846000D02*
X170942000Y-37846000D01*
X179070000Y-26670000D02*
X176820999Y-24420999D01*
D15*
G36*
X172722000Y-31204677D02*
G01*
X172718324Y-31242000D01*
X172722000Y-31279322D01*
X172722000Y-31279332D01*
X172732997Y-31390985D01*
X172776454Y-31534246D01*
X172847026Y-31666276D01*
X172886871Y-31714826D01*
X172941999Y-31782001D01*
X172971003Y-31805804D01*
X177703628Y-36538431D01*
X177673000Y-36692408D01*
X177673000Y-36967592D01*
X177726686Y-37237490D01*
X177831995Y-37491727D01*
X177984880Y-37720535D01*
X178179465Y-37915120D01*
X178408273Y-38068005D01*
X178662510Y-38173314D01*
X178806724Y-38202000D01*
X172430072Y-38202000D01*
X172430072Y-36996000D01*
X172417812Y-36871518D01*
X172381502Y-36751820D01*
X172322537Y-36641506D01*
X172243185Y-36544815D01*
X172146494Y-36465463D01*
X172036180Y-36406498D01*
X171955534Y-36382034D01*
X172039588Y-36306269D01*
X172213641Y-36072920D01*
X172338825Y-35810099D01*
X172383476Y-35662890D01*
X172262155Y-35433000D01*
X171069000Y-35433000D01*
X171069000Y-35453000D01*
X170815000Y-35453000D01*
X170815000Y-35433000D01*
X170795000Y-35433000D01*
X170795000Y-35179000D01*
X170815000Y-35179000D01*
X170815000Y-33985186D01*
X171069000Y-33985186D01*
X171069000Y-35179000D01*
X172262155Y-35179000D01*
X172383476Y-34949110D01*
X172338825Y-34801901D01*
X172213641Y-34539080D01*
X172039588Y-34305731D01*
X171823355Y-34110822D01*
X171573252Y-33961843D01*
X171298891Y-33864519D01*
X171069000Y-33985186D01*
X170815000Y-33985186D01*
X170585109Y-33864519D01*
X170310748Y-33961843D01*
X170060645Y-34110822D01*
X170057999Y-34113207D01*
X170057999Y-32337476D01*
X170236589Y-32373000D01*
X170509411Y-32373000D01*
X170776989Y-32319775D01*
X171029043Y-32215371D01*
X171255886Y-32063799D01*
X171448799Y-31870886D01*
X171600371Y-31644043D01*
X171704775Y-31391989D01*
X171758000Y-31124411D01*
X171758000Y-30851589D01*
X171704775Y-30584011D01*
X171600371Y-30331957D01*
X171448799Y-30105114D01*
X171255886Y-29912201D01*
X171029043Y-29760629D01*
X170776989Y-29656225D01*
X170509411Y-29603000D01*
X170236589Y-29603000D01*
X170057999Y-29638524D01*
X170057999Y-28571800D01*
X172722001Y-25907799D01*
X172722000Y-31204677D01*
G37*
X172722000Y-31204677D02*
X172718324Y-31242000D01*
X172722000Y-31279322D01*
X172722000Y-31279332D01*
X172732997Y-31390985D01*
X172776454Y-31534246D01*
X172847026Y-31666276D01*
X172886871Y-31714826D01*
X172941999Y-31782001D01*
X172971003Y-31805804D01*
X177703628Y-36538431D01*
X177673000Y-36692408D01*
X177673000Y-36967592D01*
X177726686Y-37237490D01*
X177831995Y-37491727D01*
X177984880Y-37720535D01*
X178179465Y-37915120D01*
X178408273Y-38068005D01*
X178662510Y-38173314D01*
X178806724Y-38202000D01*
X172430072Y-38202000D01*
X172430072Y-36996000D01*
X172417812Y-36871518D01*
X172381502Y-36751820D01*
X172322537Y-36641506D01*
X172243185Y-36544815D01*
X172146494Y-36465463D01*
X172036180Y-36406498D01*
X171955534Y-36382034D01*
X172039588Y-36306269D01*
X172213641Y-36072920D01*
X172338825Y-35810099D01*
X172383476Y-35662890D01*
X172262155Y-35433000D01*
X171069000Y-35433000D01*
X171069000Y-35453000D01*
X170815000Y-35453000D01*
X170815000Y-35433000D01*
X170795000Y-35433000D01*
X170795000Y-35179000D01*
X170815000Y-35179000D01*
X170815000Y-33985186D01*
X171069000Y-33985186D01*
X171069000Y-35179000D01*
X172262155Y-35179000D01*
X172383476Y-34949110D01*
X172338825Y-34801901D01*
X172213641Y-34539080D01*
X172039588Y-34305731D01*
X171823355Y-34110822D01*
X171573252Y-33961843D01*
X171298891Y-33864519D01*
X171069000Y-33985186D01*
X170815000Y-33985186D01*
X170585109Y-33864519D01*
X170310748Y-33961843D01*
X170060645Y-34110822D01*
X170057999Y-34113207D01*
X170057999Y-32337476D01*
X170236589Y-32373000D01*
X170509411Y-32373000D01*
X170776989Y-32319775D01*
X171029043Y-32215371D01*
X171255886Y-32063799D01*
X171448799Y-31870886D01*
X171600371Y-31644043D01*
X171704775Y-31391989D01*
X171758000Y-31124411D01*
X171758000Y-30851589D01*
X171704775Y-30584011D01*
X171600371Y-30331957D01*
X171448799Y-30105114D01*
X171255886Y-29912201D01*
X171029043Y-29760629D01*
X170776989Y-29656225D01*
X170509411Y-29603000D01*
X170236589Y-29603000D01*
X170057999Y-29638524D01*
X170057999Y-28571800D01*
X172722001Y-25907799D01*
X172722000Y-31204677D01*
G36*
X177703628Y-26378430D02*
G01*
X177673000Y-26532408D01*
X177673000Y-26807592D01*
X177726686Y-27077490D01*
X177831995Y-27331727D01*
X177984880Y-27560535D01*
X178179465Y-27755120D01*
X178408273Y-27908005D01*
X178485515Y-27940000D01*
X178408273Y-27971995D01*
X178179465Y-28124880D01*
X177984880Y-28319465D01*
X177831995Y-28548273D01*
X177726686Y-28802510D01*
X177673000Y-29072408D01*
X177673000Y-29347592D01*
X177726686Y-29617490D01*
X177831995Y-29871727D01*
X177984880Y-30100535D01*
X178179465Y-30295120D01*
X178408273Y-30448005D01*
X178485515Y-30480000D01*
X178408273Y-30511995D01*
X178179465Y-30664880D01*
X177984880Y-30859465D01*
X177831995Y-31088273D01*
X177726686Y-31342510D01*
X177673000Y-31612408D01*
X177673000Y-31887592D01*
X177726686Y-32157490D01*
X177831995Y-32411727D01*
X177984880Y-32640535D01*
X178179465Y-32835120D01*
X178408273Y-32988005D01*
X178479943Y-33017692D01*
X178466977Y-33022364D01*
X178351020Y-33084344D01*
X178284040Y-33324435D01*
X179070000Y-34110395D01*
X179855960Y-33324435D01*
X179788980Y-33084344D01*
X179653240Y-33020515D01*
X179731727Y-32988005D01*
X179960535Y-32835120D01*
X180155120Y-32640535D01*
X180308005Y-32411727D01*
X180413314Y-32157490D01*
X180442000Y-32013274D01*
X180442000Y-34019415D01*
X180430922Y-33945867D01*
X180337636Y-33686977D01*
X180275656Y-33571020D01*
X180035565Y-33504040D01*
X179249605Y-34290000D01*
X180035565Y-35075960D01*
X180275656Y-35008980D01*
X180392756Y-34759952D01*
X180442000Y-34561475D01*
X180442000Y-36566725D01*
X180413314Y-36422510D01*
X180308005Y-36168273D01*
X180155120Y-35939465D01*
X179960535Y-35744880D01*
X179731727Y-35591995D01*
X179660057Y-35562308D01*
X179673023Y-35557636D01*
X179788980Y-35495656D01*
X179855960Y-35255565D01*
X179070000Y-34469605D01*
X179055858Y-34483748D01*
X178876253Y-34304143D01*
X178890395Y-34290000D01*
X178104435Y-33504040D01*
X177864344Y-33571020D01*
X177747244Y-33820048D01*
X177680977Y-34087135D01*
X177668481Y-34353679D01*
X174242000Y-30927199D01*
X174242000Y-25849711D01*
X174285937Y-25805774D01*
X174399205Y-25636256D01*
X174477226Y-25447898D01*
X174517000Y-25247939D01*
X174517000Y-25180999D01*
X176506198Y-25180999D01*
X177703628Y-26378430D01*
G37*
X177703628Y-26378430D02*
X177673000Y-26532408D01*
X177673000Y-26807592D01*
X177726686Y-27077490D01*
X177831995Y-27331727D01*
X177984880Y-27560535D01*
X178179465Y-27755120D01*
X178408273Y-27908005D01*
X178485515Y-27940000D01*
X178408273Y-27971995D01*
X178179465Y-28124880D01*
X177984880Y-28319465D01*
X177831995Y-28548273D01*
X177726686Y-28802510D01*
X177673000Y-29072408D01*
X177673000Y-29347592D01*
X177726686Y-29617490D01*
X177831995Y-29871727D01*
X177984880Y-30100535D01*
X178179465Y-30295120D01*
X178408273Y-30448005D01*
X178485515Y-30480000D01*
X178408273Y-30511995D01*
X178179465Y-30664880D01*
X177984880Y-30859465D01*
X177831995Y-31088273D01*
X177726686Y-31342510D01*
X177673000Y-31612408D01*
X177673000Y-31887592D01*
X177726686Y-32157490D01*
X177831995Y-32411727D01*
X177984880Y-32640535D01*
X178179465Y-32835120D01*
X178408273Y-32988005D01*
X178479943Y-33017692D01*
X178466977Y-33022364D01*
X178351020Y-33084344D01*
X178284040Y-33324435D01*
X179070000Y-34110395D01*
X179855960Y-33324435D01*
X179788980Y-33084344D01*
X179653240Y-33020515D01*
X179731727Y-32988005D01*
X179960535Y-32835120D01*
X180155120Y-32640535D01*
X180308005Y-32411727D01*
X180413314Y-32157490D01*
X180442000Y-32013274D01*
X180442000Y-34019415D01*
X180430922Y-33945867D01*
X180337636Y-33686977D01*
X180275656Y-33571020D01*
X180035565Y-33504040D01*
X179249605Y-34290000D01*
X180035565Y-35075960D01*
X180275656Y-35008980D01*
X180392756Y-34759952D01*
X180442000Y-34561475D01*
X180442000Y-36566725D01*
X180413314Y-36422510D01*
X180308005Y-36168273D01*
X180155120Y-35939465D01*
X179960535Y-35744880D01*
X179731727Y-35591995D01*
X179660057Y-35562308D01*
X179673023Y-35557636D01*
X179788980Y-35495656D01*
X179855960Y-35255565D01*
X179070000Y-34469605D01*
X179055858Y-34483748D01*
X178876253Y-34304143D01*
X178890395Y-34290000D01*
X178104435Y-33504040D01*
X177864344Y-33571020D01*
X177747244Y-33820048D01*
X177680977Y-34087135D01*
X177668481Y-34353679D01*
X174242000Y-30927199D01*
X174242000Y-25849711D01*
X174285937Y-25805774D01*
X174399205Y-25636256D01*
X174477226Y-25447898D01*
X174517000Y-25247939D01*
X174517000Y-25180999D01*
X176506198Y-25180999D01*
X177703628Y-26378430D01*
M02*
