G04 #@! TF.GenerationSoftware,KiCad,Pcbnew,(5.1.5)-3*
G04 #@! TF.CreationDate,2020-12-21T12:28:59+01:00*
G04 #@! TF.ProjectId,epimetheus_bme680,6570696d-6574-4686-9575-735f626d6536,rev?*
G04 #@! TF.SameCoordinates,Original*
G04 #@! TF.FileFunction,Legend,Bot*
G04 #@! TF.FilePolarity,Positive*
%FSLAX46Y46*%
G04 Gerber Fmt 4.6, Leading zero omitted, Abs format (unit mm)*
G04 Created by KiCad (PCBNEW (5.1.5)-3) date 2020-12-21 12:28:59*
%MOMM*%
%LPD*%
G04 APERTURE LIST*
%ADD10C,0.150000*%
%ADD11C,0.010000*%
G04 APERTURE END LIST*
D10*
X164980761Y-37552380D02*
X164885523Y-37552380D01*
X164790285Y-37600000D01*
X164742666Y-37647619D01*
X164695047Y-37742857D01*
X164647428Y-37933333D01*
X164647428Y-38171428D01*
X164695047Y-38361904D01*
X164742666Y-38457142D01*
X164790285Y-38504761D01*
X164885523Y-38552380D01*
X164980761Y-38552380D01*
X165076000Y-38504761D01*
X165123619Y-38457142D01*
X165171238Y-38361904D01*
X165218857Y-38171428D01*
X165218857Y-37933333D01*
X165171238Y-37742857D01*
X165123619Y-37647619D01*
X165076000Y-37600000D01*
X164980761Y-37552380D01*
X164314095Y-38552380D02*
X163790285Y-37885714D01*
X164314095Y-37885714D02*
X163790285Y-38552380D01*
X163504571Y-37552380D02*
X162837904Y-37552380D01*
X163266476Y-38552380D01*
X162028380Y-37552380D02*
X162218857Y-37552380D01*
X162314095Y-37600000D01*
X162361714Y-37647619D01*
X162456952Y-37790476D01*
X162504571Y-37980952D01*
X162504571Y-38361904D01*
X162456952Y-38457142D01*
X162409333Y-38504761D01*
X162314095Y-38552380D01*
X162123619Y-38552380D01*
X162028380Y-38504761D01*
X161980761Y-38457142D01*
X161933142Y-38361904D01*
X161933142Y-38123809D01*
X161980761Y-38028571D01*
X162028380Y-37980952D01*
X162123619Y-37933333D01*
X162314095Y-37933333D01*
X162409333Y-37980952D01*
X162456952Y-38028571D01*
X162504571Y-38123809D01*
X174632761Y-21804380D02*
X174537523Y-21804380D01*
X174442285Y-21852000D01*
X174394666Y-21899619D01*
X174347047Y-21994857D01*
X174299428Y-22185333D01*
X174299428Y-22423428D01*
X174347047Y-22613904D01*
X174394666Y-22709142D01*
X174442285Y-22756761D01*
X174537523Y-22804380D01*
X174632761Y-22804380D01*
X174728000Y-22756761D01*
X174775619Y-22709142D01*
X174823238Y-22613904D01*
X174870857Y-22423428D01*
X174870857Y-22185333D01*
X174823238Y-21994857D01*
X174775619Y-21899619D01*
X174728000Y-21852000D01*
X174632761Y-21804380D01*
X173966095Y-22804380D02*
X173442285Y-22137714D01*
X173966095Y-22137714D02*
X173442285Y-22804380D01*
X173156571Y-21804380D02*
X172489904Y-21804380D01*
X172918476Y-22804380D01*
X172204190Y-21804380D02*
X171537523Y-21804380D01*
X171966095Y-22804380D01*
X180688952Y-22280571D02*
X180546095Y-22328190D01*
X180498476Y-22375809D01*
X180450857Y-22471047D01*
X180450857Y-22613904D01*
X180498476Y-22709142D01*
X180546095Y-22756761D01*
X180641333Y-22804380D01*
X181022285Y-22804380D01*
X181022285Y-21804380D01*
X180688952Y-21804380D01*
X180593714Y-21852000D01*
X180546095Y-21899619D01*
X180498476Y-21994857D01*
X180498476Y-22090095D01*
X180546095Y-22185333D01*
X180593714Y-22232952D01*
X180688952Y-22280571D01*
X181022285Y-22280571D01*
X180022285Y-22804380D02*
X180022285Y-21804380D01*
X179688952Y-22518666D01*
X179355619Y-21804380D01*
X179355619Y-22804380D01*
X178879428Y-22280571D02*
X178546095Y-22280571D01*
X178403238Y-22804380D02*
X178879428Y-22804380D01*
X178879428Y-21804380D01*
X178403238Y-21804380D01*
X177546095Y-21804380D02*
X177736571Y-21804380D01*
X177831809Y-21852000D01*
X177879428Y-21899619D01*
X177974666Y-22042476D01*
X178022285Y-22232952D01*
X178022285Y-22613904D01*
X177974666Y-22709142D01*
X177927047Y-22756761D01*
X177831809Y-22804380D01*
X177641333Y-22804380D01*
X177546095Y-22756761D01*
X177498476Y-22709142D01*
X177450857Y-22613904D01*
X177450857Y-22375809D01*
X177498476Y-22280571D01*
X177546095Y-22232952D01*
X177641333Y-22185333D01*
X177831809Y-22185333D01*
X177927047Y-22232952D01*
X177974666Y-22280571D01*
X178022285Y-22375809D01*
X176879428Y-22232952D02*
X176974666Y-22185333D01*
X177022285Y-22137714D01*
X177069904Y-22042476D01*
X177069904Y-21994857D01*
X177022285Y-21899619D01*
X176974666Y-21852000D01*
X176879428Y-21804380D01*
X176688952Y-21804380D01*
X176593714Y-21852000D01*
X176546095Y-21899619D01*
X176498476Y-21994857D01*
X176498476Y-22042476D01*
X176546095Y-22137714D01*
X176593714Y-22185333D01*
X176688952Y-22232952D01*
X176879428Y-22232952D01*
X176974666Y-22280571D01*
X177022285Y-22328190D01*
X177069904Y-22423428D01*
X177069904Y-22613904D01*
X177022285Y-22709142D01*
X176974666Y-22756761D01*
X176879428Y-22804380D01*
X176688952Y-22804380D01*
X176593714Y-22756761D01*
X176546095Y-22709142D01*
X176498476Y-22613904D01*
X176498476Y-22423428D01*
X176546095Y-22328190D01*
X176593714Y-22280571D01*
X176688952Y-22232952D01*
X175879428Y-21804380D02*
X175784190Y-21804380D01*
X175688952Y-21852000D01*
X175641333Y-21899619D01*
X175593714Y-21994857D01*
X175546095Y-22185333D01*
X175546095Y-22423428D01*
X175593714Y-22613904D01*
X175641333Y-22709142D01*
X175688952Y-22756761D01*
X175784190Y-22804380D01*
X175879428Y-22804380D01*
X175974666Y-22756761D01*
X176022285Y-22709142D01*
X176069904Y-22613904D01*
X176117523Y-22423428D01*
X176117523Y-22185333D01*
X176069904Y-21994857D01*
X176022285Y-21899619D01*
X175974666Y-21852000D01*
X175879428Y-21804380D01*
D11*
G36*
X164059659Y-25522464D02*
G01*
X164052573Y-25677281D01*
X164048933Y-25797180D01*
X164048743Y-25883367D01*
X164052007Y-25937048D01*
X164058731Y-25959425D01*
X164061321Y-25960233D01*
X164081250Y-25952996D01*
X164129934Y-25933846D01*
X164202586Y-25904710D01*
X164294418Y-25867517D01*
X164400643Y-25824192D01*
X164478170Y-25792412D01*
X164881413Y-25626785D01*
X164881849Y-25458964D01*
X164882285Y-25291142D01*
X164071456Y-25291142D01*
X164059659Y-25522464D01*
G37*
X164059659Y-25522464D02*
X164052573Y-25677281D01*
X164048933Y-25797180D01*
X164048743Y-25883367D01*
X164052007Y-25937048D01*
X164058731Y-25959425D01*
X164061321Y-25960233D01*
X164081250Y-25952996D01*
X164129934Y-25933846D01*
X164202586Y-25904710D01*
X164294418Y-25867517D01*
X164400643Y-25824192D01*
X164478170Y-25792412D01*
X164881413Y-25626785D01*
X164881849Y-25458964D01*
X164882285Y-25291142D01*
X164071456Y-25291142D01*
X164059659Y-25522464D01*
G36*
X166624934Y-25272972D02*
G01*
X166550648Y-25276217D01*
X166499654Y-25284549D01*
X166467630Y-25300155D01*
X166450257Y-25325221D01*
X166443212Y-25361934D01*
X166442174Y-25412479D01*
X166442822Y-25479042D01*
X166442819Y-25484403D01*
X166443464Y-25552079D01*
X166447731Y-25592459D01*
X166458633Y-25614526D01*
X166479186Y-25627267D01*
X166492464Y-25632379D01*
X166523499Y-25644464D01*
X166582456Y-25668099D01*
X166663714Y-25701006D01*
X166761650Y-25740903D01*
X166870639Y-25785510D01*
X166917951Y-25804933D01*
X167293546Y-25959272D01*
X167284589Y-25711386D01*
X167280475Y-25610347D01*
X167275703Y-25513274D01*
X167270836Y-25430562D01*
X167266435Y-25372601D01*
X167266011Y-25368250D01*
X167256389Y-25273000D01*
X166860667Y-25273000D01*
X166726833Y-25272628D01*
X166624934Y-25272972D01*
G37*
X166624934Y-25272972D02*
X166550648Y-25276217D01*
X166499654Y-25284549D01*
X166467630Y-25300155D01*
X166450257Y-25325221D01*
X166443212Y-25361934D01*
X166442174Y-25412479D01*
X166442822Y-25479042D01*
X166442819Y-25484403D01*
X166443464Y-25552079D01*
X166447731Y-25592459D01*
X166458633Y-25614526D01*
X166479186Y-25627267D01*
X166492464Y-25632379D01*
X166523499Y-25644464D01*
X166582456Y-25668099D01*
X166663714Y-25701006D01*
X166761650Y-25740903D01*
X166870639Y-25785510D01*
X166917951Y-25804933D01*
X167293546Y-25959272D01*
X167284589Y-25711386D01*
X167280475Y-25610347D01*
X167275703Y-25513274D01*
X167270836Y-25430562D01*
X167266435Y-25372601D01*
X167266011Y-25368250D01*
X167256389Y-25273000D01*
X166860667Y-25273000D01*
X166726833Y-25272628D01*
X166624934Y-25272972D01*
G36*
X164851963Y-27571829D02*
G01*
X164846000Y-27595285D01*
X164858829Y-27625608D01*
X164882285Y-27631571D01*
X164912608Y-27618742D01*
X164918571Y-27595285D01*
X164905742Y-27564963D01*
X164882285Y-27559000D01*
X164851963Y-27571829D01*
G37*
X164851963Y-27571829D02*
X164846000Y-27595285D01*
X164858829Y-27625608D01*
X164882285Y-27631571D01*
X164912608Y-27618742D01*
X164918571Y-27595285D01*
X164905742Y-27564963D01*
X164882285Y-27559000D01*
X164851963Y-27571829D01*
G36*
X164960820Y-27571829D02*
G01*
X164954857Y-27595285D01*
X164967686Y-27625608D01*
X164991143Y-27631571D01*
X165021465Y-27618742D01*
X165027428Y-27595285D01*
X165014599Y-27564963D01*
X164991143Y-27559000D01*
X164960820Y-27571829D01*
G37*
X164960820Y-27571829D02*
X164954857Y-27595285D01*
X164967686Y-27625608D01*
X164991143Y-27631571D01*
X165021465Y-27618742D01*
X165027428Y-27595285D01*
X165014599Y-27564963D01*
X164991143Y-27559000D01*
X164960820Y-27571829D01*
G36*
X165069677Y-27571829D02*
G01*
X165063714Y-27595285D01*
X165076543Y-27625608D01*
X165100000Y-27631571D01*
X165130322Y-27618742D01*
X165136285Y-27595285D01*
X165123456Y-27564963D01*
X165100000Y-27559000D01*
X165069677Y-27571829D01*
G37*
X165069677Y-27571829D02*
X165063714Y-27595285D01*
X165076543Y-27625608D01*
X165100000Y-27631571D01*
X165130322Y-27618742D01*
X165136285Y-27595285D01*
X165123456Y-27564963D01*
X165100000Y-27559000D01*
X165069677Y-27571829D01*
G36*
X165505106Y-27571829D02*
G01*
X165499143Y-27595285D01*
X165511971Y-27625608D01*
X165535428Y-27631571D01*
X165565751Y-27618742D01*
X165571714Y-27595285D01*
X165558885Y-27564963D01*
X165535428Y-27559000D01*
X165505106Y-27571829D01*
G37*
X165505106Y-27571829D02*
X165499143Y-27595285D01*
X165511971Y-27625608D01*
X165535428Y-27631571D01*
X165565751Y-27618742D01*
X165571714Y-27595285D01*
X165558885Y-27564963D01*
X165535428Y-27559000D01*
X165505106Y-27571829D01*
G36*
X165613963Y-27571829D02*
G01*
X165608000Y-27595285D01*
X165620829Y-27625608D01*
X165644285Y-27631571D01*
X165674608Y-27618742D01*
X165680571Y-27595285D01*
X165667742Y-27564963D01*
X165644285Y-27559000D01*
X165613963Y-27571829D01*
G37*
X165613963Y-27571829D02*
X165608000Y-27595285D01*
X165620829Y-27625608D01*
X165644285Y-27631571D01*
X165674608Y-27618742D01*
X165680571Y-27595285D01*
X165667742Y-27564963D01*
X165644285Y-27559000D01*
X165613963Y-27571829D01*
G36*
X165722820Y-27571829D02*
G01*
X165716857Y-27595285D01*
X165729686Y-27625608D01*
X165753143Y-27631571D01*
X165783465Y-27618742D01*
X165789428Y-27595285D01*
X165776599Y-27564963D01*
X165753143Y-27559000D01*
X165722820Y-27571829D01*
G37*
X165722820Y-27571829D02*
X165716857Y-27595285D01*
X165729686Y-27625608D01*
X165753143Y-27631571D01*
X165783465Y-27618742D01*
X165789428Y-27595285D01*
X165776599Y-27564963D01*
X165753143Y-27559000D01*
X165722820Y-27571829D01*
G36*
X166049392Y-27571829D02*
G01*
X166043428Y-27595285D01*
X166056257Y-27625608D01*
X166079714Y-27631571D01*
X166110036Y-27618742D01*
X166116000Y-27595285D01*
X166103171Y-27564963D01*
X166079714Y-27559000D01*
X166049392Y-27571829D01*
G37*
X166049392Y-27571829D02*
X166043428Y-27595285D01*
X166056257Y-27625608D01*
X166079714Y-27631571D01*
X166110036Y-27618742D01*
X166116000Y-27595285D01*
X166103171Y-27564963D01*
X166079714Y-27559000D01*
X166049392Y-27571829D01*
G36*
X166484820Y-27571829D02*
G01*
X166478857Y-27595285D01*
X166491686Y-27625608D01*
X166515142Y-27631571D01*
X166545465Y-27618742D01*
X166551428Y-27595285D01*
X166538599Y-27564963D01*
X166515142Y-27559000D01*
X166484820Y-27571829D01*
G37*
X166484820Y-27571829D02*
X166478857Y-27595285D01*
X166491686Y-27625608D01*
X166515142Y-27631571D01*
X166545465Y-27618742D01*
X166551428Y-27595285D01*
X166538599Y-27564963D01*
X166515142Y-27559000D01*
X166484820Y-27571829D01*
G36*
X164743106Y-27680686D02*
G01*
X164737143Y-27704143D01*
X164749971Y-27734465D01*
X164773428Y-27740428D01*
X164803751Y-27727599D01*
X164809714Y-27704143D01*
X164796885Y-27673820D01*
X164773428Y-27667857D01*
X164743106Y-27680686D01*
G37*
X164743106Y-27680686D02*
X164737143Y-27704143D01*
X164749971Y-27734465D01*
X164773428Y-27740428D01*
X164803751Y-27727599D01*
X164809714Y-27704143D01*
X164796885Y-27673820D01*
X164773428Y-27667857D01*
X164743106Y-27680686D01*
G36*
X165178534Y-27680686D02*
G01*
X165172571Y-27704143D01*
X165185400Y-27734465D01*
X165208857Y-27740428D01*
X165239179Y-27727599D01*
X165245143Y-27704143D01*
X165232314Y-27673820D01*
X165208857Y-27667857D01*
X165178534Y-27680686D01*
G37*
X165178534Y-27680686D02*
X165172571Y-27704143D01*
X165185400Y-27734465D01*
X165208857Y-27740428D01*
X165239179Y-27727599D01*
X165245143Y-27704143D01*
X165232314Y-27673820D01*
X165208857Y-27667857D01*
X165178534Y-27680686D01*
G36*
X165396249Y-27680686D02*
G01*
X165390285Y-27704143D01*
X165403114Y-27734465D01*
X165426571Y-27740428D01*
X165456893Y-27727599D01*
X165462857Y-27704143D01*
X165450028Y-27673820D01*
X165426571Y-27667857D01*
X165396249Y-27680686D01*
G37*
X165396249Y-27680686D02*
X165390285Y-27704143D01*
X165403114Y-27734465D01*
X165426571Y-27740428D01*
X165456893Y-27727599D01*
X165462857Y-27704143D01*
X165450028Y-27673820D01*
X165426571Y-27667857D01*
X165396249Y-27680686D01*
G36*
X165831677Y-27680686D02*
G01*
X165825714Y-27704143D01*
X165838543Y-27734465D01*
X165862000Y-27740428D01*
X165892322Y-27727599D01*
X165898285Y-27704143D01*
X165885456Y-27673820D01*
X165862000Y-27667857D01*
X165831677Y-27680686D01*
G37*
X165831677Y-27680686D02*
X165825714Y-27704143D01*
X165838543Y-27734465D01*
X165862000Y-27740428D01*
X165892322Y-27727599D01*
X165898285Y-27704143D01*
X165885456Y-27673820D01*
X165862000Y-27667857D01*
X165831677Y-27680686D01*
G36*
X166049392Y-27680686D02*
G01*
X166043428Y-27704143D01*
X166056257Y-27734465D01*
X166079714Y-27740428D01*
X166110036Y-27727599D01*
X166116000Y-27704143D01*
X166103171Y-27673820D01*
X166079714Y-27667857D01*
X166049392Y-27680686D01*
G37*
X166049392Y-27680686D02*
X166043428Y-27704143D01*
X166056257Y-27734465D01*
X166079714Y-27740428D01*
X166110036Y-27727599D01*
X166116000Y-27704143D01*
X166103171Y-27673820D01*
X166079714Y-27667857D01*
X166049392Y-27680686D01*
G36*
X166484820Y-27680686D02*
G01*
X166478857Y-27704143D01*
X166491686Y-27734465D01*
X166515142Y-27740428D01*
X166545465Y-27727599D01*
X166551428Y-27704143D01*
X166538599Y-27673820D01*
X166515142Y-27667857D01*
X166484820Y-27680686D01*
G37*
X166484820Y-27680686D02*
X166478857Y-27704143D01*
X166491686Y-27734465D01*
X166515142Y-27740428D01*
X166545465Y-27727599D01*
X166551428Y-27704143D01*
X166538599Y-27673820D01*
X166515142Y-27667857D01*
X166484820Y-27680686D01*
G36*
X165178534Y-27789543D02*
G01*
X165172571Y-27813000D01*
X165185400Y-27843322D01*
X165208857Y-27849285D01*
X165239179Y-27836456D01*
X165245143Y-27813000D01*
X165232314Y-27782677D01*
X165208857Y-27776714D01*
X165178534Y-27789543D01*
G37*
X165178534Y-27789543D02*
X165172571Y-27813000D01*
X165185400Y-27843322D01*
X165208857Y-27849285D01*
X165239179Y-27836456D01*
X165245143Y-27813000D01*
X165232314Y-27782677D01*
X165208857Y-27776714D01*
X165178534Y-27789543D01*
G36*
X165396249Y-27789543D02*
G01*
X165390285Y-27813000D01*
X165403114Y-27843322D01*
X165426571Y-27849285D01*
X165456893Y-27836456D01*
X165462857Y-27813000D01*
X165450028Y-27782677D01*
X165426571Y-27776714D01*
X165396249Y-27789543D01*
G37*
X165396249Y-27789543D02*
X165390285Y-27813000D01*
X165403114Y-27843322D01*
X165426571Y-27849285D01*
X165456893Y-27836456D01*
X165462857Y-27813000D01*
X165450028Y-27782677D01*
X165426571Y-27776714D01*
X165396249Y-27789543D01*
G36*
X165831677Y-27789543D02*
G01*
X165825714Y-27813000D01*
X165838543Y-27843322D01*
X165862000Y-27849285D01*
X165892322Y-27836456D01*
X165898285Y-27813000D01*
X165885456Y-27782677D01*
X165862000Y-27776714D01*
X165831677Y-27789543D01*
G37*
X165831677Y-27789543D02*
X165825714Y-27813000D01*
X165838543Y-27843322D01*
X165862000Y-27849285D01*
X165892322Y-27836456D01*
X165898285Y-27813000D01*
X165885456Y-27782677D01*
X165862000Y-27776714D01*
X165831677Y-27789543D01*
G36*
X166049392Y-27789543D02*
G01*
X166043428Y-27813000D01*
X166056257Y-27843322D01*
X166079714Y-27849285D01*
X166110036Y-27836456D01*
X166116000Y-27813000D01*
X166103171Y-27782677D01*
X166079714Y-27776714D01*
X166049392Y-27789543D01*
G37*
X166049392Y-27789543D02*
X166043428Y-27813000D01*
X166056257Y-27843322D01*
X166079714Y-27849285D01*
X166110036Y-27836456D01*
X166116000Y-27813000D01*
X166103171Y-27782677D01*
X166079714Y-27776714D01*
X166049392Y-27789543D01*
G36*
X166484820Y-27789543D02*
G01*
X166478857Y-27813000D01*
X166491686Y-27843322D01*
X166515142Y-27849285D01*
X166545465Y-27836456D01*
X166551428Y-27813000D01*
X166538599Y-27782677D01*
X166515142Y-27776714D01*
X166484820Y-27789543D01*
G37*
X166484820Y-27789543D02*
X166478857Y-27813000D01*
X166491686Y-27843322D01*
X166515142Y-27849285D01*
X166545465Y-27836456D01*
X166551428Y-27813000D01*
X166538599Y-27782677D01*
X166515142Y-27776714D01*
X166484820Y-27789543D01*
G36*
X165178534Y-27898400D02*
G01*
X165172571Y-27921857D01*
X165185400Y-27952179D01*
X165208857Y-27958143D01*
X165239179Y-27945314D01*
X165245143Y-27921857D01*
X165232314Y-27891534D01*
X165208857Y-27885571D01*
X165178534Y-27898400D01*
G37*
X165178534Y-27898400D02*
X165172571Y-27921857D01*
X165185400Y-27952179D01*
X165208857Y-27958143D01*
X165239179Y-27945314D01*
X165245143Y-27921857D01*
X165232314Y-27891534D01*
X165208857Y-27885571D01*
X165178534Y-27898400D01*
G36*
X165396249Y-27898400D02*
G01*
X165390285Y-27921857D01*
X165403114Y-27952179D01*
X165426571Y-27958143D01*
X165456893Y-27945314D01*
X165462857Y-27921857D01*
X165450028Y-27891534D01*
X165426571Y-27885571D01*
X165396249Y-27898400D01*
G37*
X165396249Y-27898400D02*
X165390285Y-27921857D01*
X165403114Y-27952179D01*
X165426571Y-27958143D01*
X165456893Y-27945314D01*
X165462857Y-27921857D01*
X165450028Y-27891534D01*
X165426571Y-27885571D01*
X165396249Y-27898400D01*
G36*
X165831677Y-27898400D02*
G01*
X165825714Y-27921857D01*
X165838543Y-27952179D01*
X165862000Y-27958143D01*
X165892322Y-27945314D01*
X165898285Y-27921857D01*
X165885456Y-27891534D01*
X165862000Y-27885571D01*
X165831677Y-27898400D01*
G37*
X165831677Y-27898400D02*
X165825714Y-27921857D01*
X165838543Y-27952179D01*
X165862000Y-27958143D01*
X165892322Y-27945314D01*
X165898285Y-27921857D01*
X165885456Y-27891534D01*
X165862000Y-27885571D01*
X165831677Y-27898400D01*
G36*
X166049392Y-27898400D02*
G01*
X166043428Y-27921857D01*
X166056257Y-27952179D01*
X166079714Y-27958143D01*
X166110036Y-27945314D01*
X166116000Y-27921857D01*
X166103171Y-27891534D01*
X166079714Y-27885571D01*
X166049392Y-27898400D01*
G37*
X166049392Y-27898400D02*
X166043428Y-27921857D01*
X166056257Y-27952179D01*
X166079714Y-27958143D01*
X166110036Y-27945314D01*
X166116000Y-27921857D01*
X166103171Y-27891534D01*
X166079714Y-27885571D01*
X166049392Y-27898400D01*
G36*
X166484820Y-27898400D02*
G01*
X166478857Y-27921857D01*
X166491686Y-27952179D01*
X166515142Y-27958143D01*
X166545465Y-27945314D01*
X166551428Y-27921857D01*
X166538599Y-27891534D01*
X166515142Y-27885571D01*
X166484820Y-27898400D01*
G37*
X166484820Y-27898400D02*
X166478857Y-27921857D01*
X166491686Y-27952179D01*
X166515142Y-27958143D01*
X166545465Y-27945314D01*
X166551428Y-27921857D01*
X166538599Y-27891534D01*
X166515142Y-27885571D01*
X166484820Y-27898400D01*
G36*
X165178534Y-28007257D02*
G01*
X165172571Y-28030714D01*
X165185400Y-28061036D01*
X165208857Y-28067000D01*
X165239179Y-28054171D01*
X165245143Y-28030714D01*
X165232314Y-28000392D01*
X165208857Y-27994428D01*
X165178534Y-28007257D01*
G37*
X165178534Y-28007257D02*
X165172571Y-28030714D01*
X165185400Y-28061036D01*
X165208857Y-28067000D01*
X165239179Y-28054171D01*
X165245143Y-28030714D01*
X165232314Y-28000392D01*
X165208857Y-27994428D01*
X165178534Y-28007257D01*
G36*
X165396249Y-28007257D02*
G01*
X165390285Y-28030714D01*
X165403114Y-28061036D01*
X165426571Y-28067000D01*
X165456893Y-28054171D01*
X165462857Y-28030714D01*
X165450028Y-28000392D01*
X165426571Y-27994428D01*
X165396249Y-28007257D01*
G37*
X165396249Y-28007257D02*
X165390285Y-28030714D01*
X165403114Y-28061036D01*
X165426571Y-28067000D01*
X165456893Y-28054171D01*
X165462857Y-28030714D01*
X165450028Y-28000392D01*
X165426571Y-27994428D01*
X165396249Y-28007257D01*
G36*
X165831677Y-28007257D02*
G01*
X165825714Y-28030714D01*
X165838543Y-28061036D01*
X165862000Y-28067000D01*
X165892322Y-28054171D01*
X165898285Y-28030714D01*
X165885456Y-28000392D01*
X165862000Y-27994428D01*
X165831677Y-28007257D01*
G37*
X165831677Y-28007257D02*
X165825714Y-28030714D01*
X165838543Y-28061036D01*
X165862000Y-28067000D01*
X165892322Y-28054171D01*
X165898285Y-28030714D01*
X165885456Y-28000392D01*
X165862000Y-27994428D01*
X165831677Y-28007257D01*
G36*
X166049392Y-28007257D02*
G01*
X166043428Y-28030714D01*
X166056257Y-28061036D01*
X166079714Y-28067000D01*
X166110036Y-28054171D01*
X166116000Y-28030714D01*
X166103171Y-28000392D01*
X166079714Y-27994428D01*
X166049392Y-28007257D01*
G37*
X166049392Y-28007257D02*
X166043428Y-28030714D01*
X166056257Y-28061036D01*
X166079714Y-28067000D01*
X166110036Y-28054171D01*
X166116000Y-28030714D01*
X166103171Y-28000392D01*
X166079714Y-27994428D01*
X166049392Y-28007257D01*
G36*
X166484820Y-28007257D02*
G01*
X166478857Y-28030714D01*
X166491686Y-28061036D01*
X166515142Y-28067000D01*
X166545465Y-28054171D01*
X166551428Y-28030714D01*
X166538599Y-28000392D01*
X166515142Y-27994428D01*
X166484820Y-28007257D01*
G37*
X166484820Y-28007257D02*
X166478857Y-28030714D01*
X166491686Y-28061036D01*
X166515142Y-28067000D01*
X166545465Y-28054171D01*
X166551428Y-28030714D01*
X166538599Y-28000392D01*
X166515142Y-27994428D01*
X166484820Y-28007257D01*
G36*
X164743106Y-28116114D02*
G01*
X164737143Y-28139571D01*
X164749971Y-28169893D01*
X164773428Y-28175857D01*
X164803751Y-28163028D01*
X164809714Y-28139571D01*
X164796885Y-28109249D01*
X164773428Y-28103285D01*
X164743106Y-28116114D01*
G37*
X164743106Y-28116114D02*
X164737143Y-28139571D01*
X164749971Y-28169893D01*
X164773428Y-28175857D01*
X164803751Y-28163028D01*
X164809714Y-28139571D01*
X164796885Y-28109249D01*
X164773428Y-28103285D01*
X164743106Y-28116114D01*
G36*
X165178534Y-28116114D02*
G01*
X165172571Y-28139571D01*
X165185400Y-28169893D01*
X165208857Y-28175857D01*
X165239179Y-28163028D01*
X165245143Y-28139571D01*
X165232314Y-28109249D01*
X165208857Y-28103285D01*
X165178534Y-28116114D01*
G37*
X165178534Y-28116114D02*
X165172571Y-28139571D01*
X165185400Y-28169893D01*
X165208857Y-28175857D01*
X165239179Y-28163028D01*
X165245143Y-28139571D01*
X165232314Y-28109249D01*
X165208857Y-28103285D01*
X165178534Y-28116114D01*
G36*
X165396249Y-28116114D02*
G01*
X165390285Y-28139571D01*
X165403114Y-28169893D01*
X165426571Y-28175857D01*
X165456893Y-28163028D01*
X165462857Y-28139571D01*
X165450028Y-28109249D01*
X165426571Y-28103285D01*
X165396249Y-28116114D01*
G37*
X165396249Y-28116114D02*
X165390285Y-28139571D01*
X165403114Y-28169893D01*
X165426571Y-28175857D01*
X165456893Y-28163028D01*
X165462857Y-28139571D01*
X165450028Y-28109249D01*
X165426571Y-28103285D01*
X165396249Y-28116114D01*
G36*
X165831677Y-28116114D02*
G01*
X165825714Y-28139571D01*
X165838543Y-28169893D01*
X165862000Y-28175857D01*
X165892322Y-28163028D01*
X165898285Y-28139571D01*
X165885456Y-28109249D01*
X165862000Y-28103285D01*
X165831677Y-28116114D01*
G37*
X165831677Y-28116114D02*
X165825714Y-28139571D01*
X165838543Y-28169893D01*
X165862000Y-28175857D01*
X165892322Y-28163028D01*
X165898285Y-28139571D01*
X165885456Y-28109249D01*
X165862000Y-28103285D01*
X165831677Y-28116114D01*
G36*
X166158249Y-28116114D02*
G01*
X166152285Y-28139571D01*
X166165114Y-28169893D01*
X166188571Y-28175857D01*
X166218893Y-28163028D01*
X166224857Y-28139571D01*
X166212028Y-28109249D01*
X166188571Y-28103285D01*
X166158249Y-28116114D01*
G37*
X166158249Y-28116114D02*
X166152285Y-28139571D01*
X166165114Y-28169893D01*
X166188571Y-28175857D01*
X166218893Y-28163028D01*
X166224857Y-28139571D01*
X166212028Y-28109249D01*
X166188571Y-28103285D01*
X166158249Y-28116114D01*
G36*
X166375963Y-28116114D02*
G01*
X166370000Y-28139571D01*
X166382829Y-28169893D01*
X166406285Y-28175857D01*
X166436608Y-28163028D01*
X166442571Y-28139571D01*
X166429742Y-28109249D01*
X166406285Y-28103285D01*
X166375963Y-28116114D01*
G37*
X166375963Y-28116114D02*
X166370000Y-28139571D01*
X166382829Y-28169893D01*
X166406285Y-28175857D01*
X166436608Y-28163028D01*
X166442571Y-28139571D01*
X166429742Y-28109249D01*
X166406285Y-28103285D01*
X166375963Y-28116114D01*
G36*
X164853831Y-28204630D02*
G01*
X164846000Y-28239357D01*
X164854504Y-28274924D01*
X164882285Y-28284714D01*
X164910739Y-28274083D01*
X164918571Y-28239357D01*
X164910067Y-28203789D01*
X164882285Y-28194000D01*
X164853831Y-28204630D01*
G37*
X164853831Y-28204630D02*
X164846000Y-28239357D01*
X164854504Y-28274924D01*
X164882285Y-28284714D01*
X164910739Y-28274083D01*
X164918571Y-28239357D01*
X164910067Y-28203789D01*
X164882285Y-28194000D01*
X164853831Y-28204630D01*
G36*
X164962689Y-28204630D02*
G01*
X164954857Y-28239357D01*
X164963361Y-28274924D01*
X164991143Y-28284714D01*
X165019596Y-28274083D01*
X165027428Y-28239357D01*
X165018924Y-28203789D01*
X164991143Y-28194000D01*
X164962689Y-28204630D01*
G37*
X164962689Y-28204630D02*
X164954857Y-28239357D01*
X164963361Y-28274924D01*
X164991143Y-28284714D01*
X165019596Y-28274083D01*
X165027428Y-28239357D01*
X165018924Y-28203789D01*
X164991143Y-28194000D01*
X164962689Y-28204630D01*
G36*
X165071546Y-28204630D02*
G01*
X165063714Y-28239357D01*
X165072218Y-28274924D01*
X165100000Y-28284714D01*
X165128454Y-28274083D01*
X165136285Y-28239357D01*
X165127781Y-28203789D01*
X165100000Y-28194000D01*
X165071546Y-28204630D01*
G37*
X165071546Y-28204630D02*
X165063714Y-28239357D01*
X165072218Y-28274924D01*
X165100000Y-28284714D01*
X165128454Y-28274083D01*
X165136285Y-28239357D01*
X165127781Y-28203789D01*
X165100000Y-28194000D01*
X165071546Y-28204630D01*
G36*
X165506974Y-28204630D02*
G01*
X165499143Y-28239357D01*
X165507647Y-28274924D01*
X165535428Y-28284714D01*
X165563882Y-28274083D01*
X165571714Y-28239357D01*
X165563210Y-28203789D01*
X165535428Y-28194000D01*
X165506974Y-28204630D01*
G37*
X165506974Y-28204630D02*
X165499143Y-28239357D01*
X165507647Y-28274924D01*
X165535428Y-28284714D01*
X165563882Y-28274083D01*
X165571714Y-28239357D01*
X165563210Y-28203789D01*
X165535428Y-28194000D01*
X165506974Y-28204630D01*
G36*
X165615831Y-28204630D02*
G01*
X165608000Y-28239357D01*
X165616504Y-28274924D01*
X165644285Y-28284714D01*
X165672739Y-28274083D01*
X165680571Y-28239357D01*
X165672067Y-28203789D01*
X165644285Y-28194000D01*
X165615831Y-28204630D01*
G37*
X165615831Y-28204630D02*
X165608000Y-28239357D01*
X165616504Y-28274924D01*
X165644285Y-28284714D01*
X165672739Y-28274083D01*
X165680571Y-28239357D01*
X165672067Y-28203789D01*
X165644285Y-28194000D01*
X165615831Y-28204630D01*
G36*
X165724689Y-28204630D02*
G01*
X165716857Y-28239357D01*
X165725361Y-28274924D01*
X165753143Y-28284714D01*
X165781596Y-28274083D01*
X165789428Y-28239357D01*
X165780924Y-28203789D01*
X165753143Y-28194000D01*
X165724689Y-28204630D01*
G37*
X165724689Y-28204630D02*
X165716857Y-28239357D01*
X165725361Y-28274924D01*
X165753143Y-28284714D01*
X165781596Y-28274083D01*
X165789428Y-28239357D01*
X165780924Y-28203789D01*
X165753143Y-28194000D01*
X165724689Y-28204630D01*
G36*
X166268974Y-28204630D02*
G01*
X166261142Y-28239357D01*
X166269647Y-28274924D01*
X166297428Y-28284714D01*
X166325882Y-28274083D01*
X166333714Y-28239357D01*
X166325210Y-28203789D01*
X166297428Y-28194000D01*
X166268974Y-28204630D01*
G37*
X166268974Y-28204630D02*
X166261142Y-28239357D01*
X166269647Y-28274924D01*
X166297428Y-28284714D01*
X166325882Y-28274083D01*
X166333714Y-28239357D01*
X166325210Y-28203789D01*
X166297428Y-28194000D01*
X166268974Y-28204630D01*
G36*
X165208857Y-23767142D02*
G01*
X165952714Y-23767142D01*
X165952714Y-23476857D01*
X165208857Y-23476857D01*
X165208857Y-23767142D01*
G37*
X165208857Y-23767142D02*
X165952714Y-23767142D01*
X165952714Y-23476857D01*
X165208857Y-23476857D01*
X165208857Y-23767142D01*
G36*
X165976853Y-23722479D02*
G01*
X165971157Y-23740076D01*
X165970857Y-23749000D01*
X165969528Y-23760824D01*
X165962570Y-23769755D01*
X165945521Y-23776198D01*
X165913924Y-23780558D01*
X165863317Y-23783242D01*
X165789242Y-23784654D01*
X165687239Y-23785200D01*
X165571714Y-23785285D01*
X165441648Y-23785165D01*
X165343409Y-23784532D01*
X165272536Y-23782982D01*
X165224569Y-23780110D01*
X165195050Y-23775509D01*
X165179518Y-23768775D01*
X165173514Y-23759502D01*
X165172571Y-23749000D01*
X165168662Y-23726228D01*
X165152917Y-23715774D01*
X165119312Y-23717642D01*
X165061822Y-23731835D01*
X165004145Y-23749105D01*
X164771461Y-23838570D01*
X164552184Y-23957793D01*
X164351647Y-24103182D01*
X164175184Y-24271145D01*
X164102824Y-24355929D01*
X164058963Y-24414353D01*
X164010933Y-24483594D01*
X163963324Y-24556333D01*
X163920727Y-24625253D01*
X163887732Y-24683037D01*
X163868930Y-24722367D01*
X163866285Y-24732962D01*
X163884010Y-24734966D01*
X163935507Y-24736884D01*
X164018267Y-24738694D01*
X164129776Y-24740377D01*
X164267523Y-24741911D01*
X164428996Y-24743276D01*
X164611682Y-24744452D01*
X164813070Y-24745418D01*
X165030648Y-24746153D01*
X165261904Y-24746637D01*
X165504325Y-24746849D01*
X165562643Y-24746857D01*
X165807323Y-24746756D01*
X166041429Y-24746462D01*
X166262447Y-24745990D01*
X166467865Y-24745354D01*
X166655173Y-24744568D01*
X166821856Y-24743648D01*
X166965404Y-24742606D01*
X167083305Y-24741457D01*
X167173047Y-24740216D01*
X167232117Y-24738897D01*
X167258003Y-24737515D01*
X167259000Y-24737182D01*
X167249546Y-24707876D01*
X167224306Y-24656742D01*
X167187961Y-24591915D01*
X167145193Y-24521529D01*
X167100684Y-24453719D01*
X167075103Y-24417671D01*
X166910585Y-24224683D01*
X166720661Y-24056594D01*
X166508040Y-23915361D01*
X166275431Y-23802942D01*
X166171561Y-23764496D01*
X166085858Y-23736263D01*
X166028585Y-23720138D01*
X165994123Y-23715688D01*
X165976853Y-23722479D01*
G37*
X165976853Y-23722479D02*
X165971157Y-23740076D01*
X165970857Y-23749000D01*
X165969528Y-23760824D01*
X165962570Y-23769755D01*
X165945521Y-23776198D01*
X165913924Y-23780558D01*
X165863317Y-23783242D01*
X165789242Y-23784654D01*
X165687239Y-23785200D01*
X165571714Y-23785285D01*
X165441648Y-23785165D01*
X165343409Y-23784532D01*
X165272536Y-23782982D01*
X165224569Y-23780110D01*
X165195050Y-23775509D01*
X165179518Y-23768775D01*
X165173514Y-23759502D01*
X165172571Y-23749000D01*
X165168662Y-23726228D01*
X165152917Y-23715774D01*
X165119312Y-23717642D01*
X165061822Y-23731835D01*
X165004145Y-23749105D01*
X164771461Y-23838570D01*
X164552184Y-23957793D01*
X164351647Y-24103182D01*
X164175184Y-24271145D01*
X164102824Y-24355929D01*
X164058963Y-24414353D01*
X164010933Y-24483594D01*
X163963324Y-24556333D01*
X163920727Y-24625253D01*
X163887732Y-24683037D01*
X163868930Y-24722367D01*
X163866285Y-24732962D01*
X163884010Y-24734966D01*
X163935507Y-24736884D01*
X164018267Y-24738694D01*
X164129776Y-24740377D01*
X164267523Y-24741911D01*
X164428996Y-24743276D01*
X164611682Y-24744452D01*
X164813070Y-24745418D01*
X165030648Y-24746153D01*
X165261904Y-24746637D01*
X165504325Y-24746849D01*
X165562643Y-24746857D01*
X165807323Y-24746756D01*
X166041429Y-24746462D01*
X166262447Y-24745990D01*
X166467865Y-24745354D01*
X166655173Y-24744568D01*
X166821856Y-24743648D01*
X166965404Y-24742606D01*
X167083305Y-24741457D01*
X167173047Y-24740216D01*
X167232117Y-24738897D01*
X167258003Y-24737515D01*
X167259000Y-24737182D01*
X167249546Y-24707876D01*
X167224306Y-24656742D01*
X167187961Y-24591915D01*
X167145193Y-24521529D01*
X167100684Y-24453719D01*
X167075103Y-24417671D01*
X166910585Y-24224683D01*
X166720661Y-24056594D01*
X166508040Y-23915361D01*
X166275431Y-23802942D01*
X166171561Y-23764496D01*
X166085858Y-23736263D01*
X166028585Y-23720138D01*
X165994123Y-23715688D01*
X165976853Y-23722479D01*
G36*
X167948428Y-26307142D02*
G01*
X168293143Y-26307142D01*
X168293143Y-25545143D01*
X167948428Y-25545143D01*
X167948428Y-26307142D01*
G37*
X167948428Y-26307142D02*
X168293143Y-26307142D01*
X168293143Y-25545143D01*
X167948428Y-25545143D01*
X167948428Y-26307142D01*
G36*
X162922857Y-26343428D02*
G01*
X163267571Y-26343428D01*
X163267571Y-25581428D01*
X162922857Y-25581428D01*
X162922857Y-26343428D01*
G37*
X162922857Y-26343428D02*
X163267571Y-26343428D01*
X163267571Y-25581428D01*
X162922857Y-25581428D01*
X162922857Y-26343428D01*
G36*
X166423706Y-24785318D02*
G01*
X166178454Y-24785777D01*
X165901263Y-24786475D01*
X165590022Y-24787299D01*
X165570474Y-24787349D01*
X163675785Y-24792214D01*
X163576000Y-24848498D01*
X163465842Y-24930378D01*
X163382531Y-25035232D01*
X163330058Y-25155870D01*
X163320923Y-25207037D01*
X163313750Y-25287057D01*
X163308483Y-25390304D01*
X163305063Y-25511152D01*
X163303435Y-25643973D01*
X163303539Y-25783142D01*
X163305320Y-25923033D01*
X163308719Y-26058018D01*
X163313680Y-26182472D01*
X163320145Y-26290768D01*
X163328056Y-26377280D01*
X163337358Y-26436381D01*
X163343295Y-26455725D01*
X163393729Y-26537932D01*
X163466274Y-26620357D01*
X163548968Y-26690749D01*
X163608577Y-26727355D01*
X163693928Y-26769785D01*
X165571714Y-26773305D01*
X165892059Y-26773808D01*
X166177845Y-26774035D01*
X166430800Y-26773971D01*
X166652649Y-26773599D01*
X166845120Y-26772902D01*
X167009940Y-26771864D01*
X167148833Y-26770468D01*
X167263528Y-26768696D01*
X167355750Y-26766533D01*
X167427227Y-26763962D01*
X167479685Y-26760966D01*
X167514850Y-26757528D01*
X167532039Y-26754356D01*
X167659473Y-26702266D01*
X167765212Y-26621989D01*
X167803376Y-26579170D01*
X167831846Y-26541844D01*
X167854958Y-26506215D01*
X167873229Y-26468176D01*
X167887175Y-26423619D01*
X167897312Y-26368436D01*
X167904157Y-26298519D01*
X167908226Y-26209760D01*
X167909722Y-26117345D01*
X167562660Y-26117345D01*
X167562300Y-26199617D01*
X167560474Y-26257800D01*
X167557069Y-26286736D01*
X167555452Y-26289000D01*
X167535604Y-26282319D01*
X167485732Y-26263220D01*
X167409361Y-26233113D01*
X167310012Y-26193411D01*
X167191208Y-26145526D01*
X167056473Y-26090871D01*
X166909330Y-26030856D01*
X166813664Y-25991677D01*
X166088785Y-25694355D01*
X166088785Y-25136928D01*
X165199785Y-25136928D01*
X165199785Y-25693508D01*
X164483143Y-25989457D01*
X164330691Y-26052220D01*
X164188153Y-26110527D01*
X164059120Y-26162936D01*
X163947184Y-26208006D01*
X163855936Y-26244295D01*
X163788966Y-26270362D01*
X163749866Y-26284765D01*
X163741429Y-26287203D01*
X163733308Y-26282784D01*
X163727613Y-26265468D01*
X163724228Y-26231177D01*
X163723038Y-26175836D01*
X163723925Y-26095367D01*
X163726775Y-25985695D01*
X163730012Y-25885321D01*
X163734686Y-25754927D01*
X163739821Y-25624857D01*
X163745046Y-25503636D01*
X163749989Y-25399794D01*
X163754280Y-25321856D01*
X163755083Y-25309285D01*
X163766500Y-25136928D01*
X165199785Y-25136928D01*
X166088785Y-25136928D01*
X167522071Y-25136928D01*
X167533677Y-25300214D01*
X167540397Y-25406686D01*
X167546447Y-25525175D01*
X167551713Y-25650523D01*
X167556081Y-25777572D01*
X167559437Y-25901164D01*
X167561668Y-26016141D01*
X167562660Y-26117345D01*
X167909722Y-26117345D01*
X167910035Y-26098051D01*
X167910100Y-25959283D01*
X167908938Y-25789349D01*
X167908525Y-25742488D01*
X167903071Y-25136928D01*
X167853306Y-25052273D01*
X167808039Y-24988309D01*
X167751292Y-24924721D01*
X167726793Y-24901924D01*
X167705443Y-24883314D01*
X167685933Y-24866736D01*
X167666150Y-24852080D01*
X167643986Y-24839232D01*
X167617327Y-24828081D01*
X167584063Y-24818515D01*
X167542083Y-24810421D01*
X167489276Y-24803687D01*
X167423531Y-24798201D01*
X167342736Y-24793850D01*
X167244781Y-24790524D01*
X167127554Y-24788108D01*
X166988944Y-24786492D01*
X166826840Y-24785563D01*
X166639131Y-24785209D01*
X166423706Y-24785318D01*
G37*
X166423706Y-24785318D02*
X166178454Y-24785777D01*
X165901263Y-24786475D01*
X165590022Y-24787299D01*
X165570474Y-24787349D01*
X163675785Y-24792214D01*
X163576000Y-24848498D01*
X163465842Y-24930378D01*
X163382531Y-25035232D01*
X163330058Y-25155870D01*
X163320923Y-25207037D01*
X163313750Y-25287057D01*
X163308483Y-25390304D01*
X163305063Y-25511152D01*
X163303435Y-25643973D01*
X163303539Y-25783142D01*
X163305320Y-25923033D01*
X163308719Y-26058018D01*
X163313680Y-26182472D01*
X163320145Y-26290768D01*
X163328056Y-26377280D01*
X163337358Y-26436381D01*
X163343295Y-26455725D01*
X163393729Y-26537932D01*
X163466274Y-26620357D01*
X163548968Y-26690749D01*
X163608577Y-26727355D01*
X163693928Y-26769785D01*
X165571714Y-26773305D01*
X165892059Y-26773808D01*
X166177845Y-26774035D01*
X166430800Y-26773971D01*
X166652649Y-26773599D01*
X166845120Y-26772902D01*
X167009940Y-26771864D01*
X167148833Y-26770468D01*
X167263528Y-26768696D01*
X167355750Y-26766533D01*
X167427227Y-26763962D01*
X167479685Y-26760966D01*
X167514850Y-26757528D01*
X167532039Y-26754356D01*
X167659473Y-26702266D01*
X167765212Y-26621989D01*
X167803376Y-26579170D01*
X167831846Y-26541844D01*
X167854958Y-26506215D01*
X167873229Y-26468176D01*
X167887175Y-26423619D01*
X167897312Y-26368436D01*
X167904157Y-26298519D01*
X167908226Y-26209760D01*
X167909722Y-26117345D01*
X167562660Y-26117345D01*
X167562300Y-26199617D01*
X167560474Y-26257800D01*
X167557069Y-26286736D01*
X167555452Y-26289000D01*
X167535604Y-26282319D01*
X167485732Y-26263220D01*
X167409361Y-26233113D01*
X167310012Y-26193411D01*
X167191208Y-26145526D01*
X167056473Y-26090871D01*
X166909330Y-26030856D01*
X166813664Y-25991677D01*
X166088785Y-25694355D01*
X166088785Y-25136928D01*
X165199785Y-25136928D01*
X165199785Y-25693508D01*
X164483143Y-25989457D01*
X164330691Y-26052220D01*
X164188153Y-26110527D01*
X164059120Y-26162936D01*
X163947184Y-26208006D01*
X163855936Y-26244295D01*
X163788966Y-26270362D01*
X163749866Y-26284765D01*
X163741429Y-26287203D01*
X163733308Y-26282784D01*
X163727613Y-26265468D01*
X163724228Y-26231177D01*
X163723038Y-26175836D01*
X163723925Y-26095367D01*
X163726775Y-25985695D01*
X163730012Y-25885321D01*
X163734686Y-25754927D01*
X163739821Y-25624857D01*
X163745046Y-25503636D01*
X163749989Y-25399794D01*
X163754280Y-25321856D01*
X163755083Y-25309285D01*
X163766500Y-25136928D01*
X165199785Y-25136928D01*
X166088785Y-25136928D01*
X167522071Y-25136928D01*
X167533677Y-25300214D01*
X167540397Y-25406686D01*
X167546447Y-25525175D01*
X167551713Y-25650523D01*
X167556081Y-25777572D01*
X167559437Y-25901164D01*
X167561668Y-26016141D01*
X167562660Y-26117345D01*
X167909722Y-26117345D01*
X167910035Y-26098051D01*
X167910100Y-25959283D01*
X167908938Y-25789349D01*
X167908525Y-25742488D01*
X167903071Y-25136928D01*
X167853306Y-25052273D01*
X167808039Y-24988309D01*
X167751292Y-24924721D01*
X167726793Y-24901924D01*
X167705443Y-24883314D01*
X167685933Y-24866736D01*
X167666150Y-24852080D01*
X167643986Y-24839232D01*
X167617327Y-24828081D01*
X167584063Y-24818515D01*
X167542083Y-24810421D01*
X167489276Y-24803687D01*
X167423531Y-24798201D01*
X167342736Y-24793850D01*
X167244781Y-24790524D01*
X167127554Y-24788108D01*
X166988944Y-24786492D01*
X166826840Y-24785563D01*
X166639131Y-24785209D01*
X166423706Y-24785318D01*
G36*
X166304517Y-26797999D02*
G01*
X165816643Y-26798998D01*
X165944976Y-26832652D01*
X166054600Y-26867139D01*
X166170770Y-26913201D01*
X166279180Y-26964653D01*
X166362018Y-27012936D01*
X166417536Y-27050199D01*
X166526257Y-26985882D01*
X166597118Y-26941482D01*
X166668747Y-26892683D01*
X166713685Y-26859283D01*
X166792392Y-26797000D01*
X166304517Y-26797999D01*
G37*
X166304517Y-26797999D02*
X165816643Y-26798998D01*
X165944976Y-26832652D01*
X166054600Y-26867139D01*
X166170770Y-26913201D01*
X166279180Y-26964653D01*
X166362018Y-27012936D01*
X166417536Y-27050199D01*
X166526257Y-26985882D01*
X166597118Y-26941482D01*
X166668747Y-26892683D01*
X166713685Y-26859283D01*
X166792392Y-26797000D01*
X166304517Y-26797999D01*
G36*
X164609475Y-26797876D02*
G01*
X164518256Y-26798571D01*
X164452534Y-26800096D01*
X164408713Y-26802699D01*
X164383197Y-26806626D01*
X164372390Y-26812122D01*
X164372695Y-26819433D01*
X164380516Y-26828805D01*
X164383861Y-26832125D01*
X164419006Y-26860858D01*
X164473654Y-26899147D01*
X164539988Y-26942232D01*
X164610193Y-26985353D01*
X164676451Y-27023751D01*
X164730947Y-27052668D01*
X164765865Y-27067343D01*
X164771661Y-27068253D01*
X164803689Y-27057507D01*
X164848708Y-27031708D01*
X164864143Y-27020983D01*
X164950380Y-26967664D01*
X165059613Y-26914426D01*
X165178989Y-26866964D01*
X165289167Y-26832652D01*
X165417500Y-26798998D01*
X164882789Y-26797999D01*
X164729788Y-26797768D01*
X164609475Y-26797876D01*
G37*
X164609475Y-26797876D02*
X164518256Y-26798571D01*
X164452534Y-26800096D01*
X164408713Y-26802699D01*
X164383197Y-26806626D01*
X164372390Y-26812122D01*
X164372695Y-26819433D01*
X164380516Y-26828805D01*
X164383861Y-26832125D01*
X164419006Y-26860858D01*
X164473654Y-26899147D01*
X164539988Y-26942232D01*
X164610193Y-26985353D01*
X164676451Y-27023751D01*
X164730947Y-27052668D01*
X164765865Y-27067343D01*
X164771661Y-27068253D01*
X164803689Y-27057507D01*
X164848708Y-27031708D01*
X164864143Y-27020983D01*
X164950380Y-26967664D01*
X165059613Y-26914426D01*
X165178989Y-26866964D01*
X165289167Y-26832652D01*
X165417500Y-26798998D01*
X164882789Y-26797999D01*
X164729788Y-26797768D01*
X164609475Y-26797876D01*
G36*
X165355124Y-26848724D02*
G01*
X165156604Y-26903988D01*
X165154666Y-26904693D01*
X164971938Y-26988477D01*
X164808491Y-27097955D01*
X164668022Y-27229585D01*
X164554227Y-27379826D01*
X164470804Y-27545136D01*
X164462194Y-27568071D01*
X164435774Y-27669068D01*
X164418973Y-27790964D01*
X164412695Y-27919437D01*
X164417844Y-28040160D01*
X164428036Y-28109093D01*
X164480405Y-28274367D01*
X164565157Y-28430393D01*
X164678854Y-28573721D01*
X164818060Y-28700903D01*
X164979338Y-28808493D01*
X165159252Y-28893041D01*
X165236071Y-28919764D01*
X165324041Y-28940350D01*
X165434535Y-28955903D01*
X165555788Y-28965751D01*
X165676032Y-28969217D01*
X165783499Y-28965626D01*
X165860636Y-28955582D01*
X166057550Y-28898888D01*
X166239248Y-28816519D01*
X166402399Y-28711458D01*
X166543669Y-28586688D01*
X166659727Y-28445194D01*
X166747241Y-28289958D01*
X166802879Y-28123963D01*
X166806106Y-28109093D01*
X166819353Y-28001448D01*
X166820361Y-27898120D01*
X166682876Y-27898120D01*
X166666847Y-28073295D01*
X166618966Y-28236758D01*
X166542394Y-28386327D01*
X166440288Y-28519820D01*
X166315811Y-28635054D01*
X166172121Y-28729848D01*
X166012378Y-28802020D01*
X165839743Y-28849387D01*
X165657374Y-28869768D01*
X165468433Y-28860981D01*
X165326785Y-28834552D01*
X165147721Y-28773158D01*
X164985377Y-28683577D01*
X164843370Y-28569222D01*
X164725320Y-28433506D01*
X164634844Y-28279840D01*
X164580376Y-28130500D01*
X164563593Y-28033665D01*
X164557149Y-27918449D01*
X164561045Y-27801219D01*
X164575278Y-27698342D01*
X164580413Y-27676928D01*
X164643187Y-27510747D01*
X164736940Y-27359239D01*
X164858212Y-27225657D01*
X165003541Y-27113256D01*
X165169464Y-27025286D01*
X165332855Y-26969868D01*
X165437667Y-26951443D01*
X165562467Y-26942452D01*
X165693135Y-26942900D01*
X165815553Y-26952792D01*
X165906730Y-26969699D01*
X166087393Y-27033596D01*
X166249264Y-27123682D01*
X166389621Y-27236702D01*
X166505742Y-27369400D01*
X166594906Y-27518522D01*
X166654393Y-27680813D01*
X166681480Y-27853016D01*
X166682876Y-27898120D01*
X166820361Y-27898120D01*
X166820572Y-27876531D01*
X166810666Y-27748667D01*
X166790540Y-27632179D01*
X166771948Y-27568071D01*
X166692226Y-27398378D01*
X166584363Y-27247551D01*
X166452092Y-27117123D01*
X166299151Y-27008625D01*
X166129274Y-26923590D01*
X165946197Y-26863550D01*
X165753656Y-26830038D01*
X165555387Y-26824585D01*
X165355124Y-26848724D01*
G37*
X165355124Y-26848724D02*
X165156604Y-26903988D01*
X165154666Y-26904693D01*
X164971938Y-26988477D01*
X164808491Y-27097955D01*
X164668022Y-27229585D01*
X164554227Y-27379826D01*
X164470804Y-27545136D01*
X164462194Y-27568071D01*
X164435774Y-27669068D01*
X164418973Y-27790964D01*
X164412695Y-27919437D01*
X164417844Y-28040160D01*
X164428036Y-28109093D01*
X164480405Y-28274367D01*
X164565157Y-28430393D01*
X164678854Y-28573721D01*
X164818060Y-28700903D01*
X164979338Y-28808493D01*
X165159252Y-28893041D01*
X165236071Y-28919764D01*
X165324041Y-28940350D01*
X165434535Y-28955903D01*
X165555788Y-28965751D01*
X165676032Y-28969217D01*
X165783499Y-28965626D01*
X165860636Y-28955582D01*
X166057550Y-28898888D01*
X166239248Y-28816519D01*
X166402399Y-28711458D01*
X166543669Y-28586688D01*
X166659727Y-28445194D01*
X166747241Y-28289958D01*
X166802879Y-28123963D01*
X166806106Y-28109093D01*
X166819353Y-28001448D01*
X166820361Y-27898120D01*
X166682876Y-27898120D01*
X166666847Y-28073295D01*
X166618966Y-28236758D01*
X166542394Y-28386327D01*
X166440288Y-28519820D01*
X166315811Y-28635054D01*
X166172121Y-28729848D01*
X166012378Y-28802020D01*
X165839743Y-28849387D01*
X165657374Y-28869768D01*
X165468433Y-28860981D01*
X165326785Y-28834552D01*
X165147721Y-28773158D01*
X164985377Y-28683577D01*
X164843370Y-28569222D01*
X164725320Y-28433506D01*
X164634844Y-28279840D01*
X164580376Y-28130500D01*
X164563593Y-28033665D01*
X164557149Y-27918449D01*
X164561045Y-27801219D01*
X164575278Y-27698342D01*
X164580413Y-27676928D01*
X164643187Y-27510747D01*
X164736940Y-27359239D01*
X164858212Y-27225657D01*
X165003541Y-27113256D01*
X165169464Y-27025286D01*
X165332855Y-26969868D01*
X165437667Y-26951443D01*
X165562467Y-26942452D01*
X165693135Y-26942900D01*
X165815553Y-26952792D01*
X165906730Y-26969699D01*
X166087393Y-27033596D01*
X166249264Y-27123682D01*
X166389621Y-27236702D01*
X166505742Y-27369400D01*
X166594906Y-27518522D01*
X166654393Y-27680813D01*
X166681480Y-27853016D01*
X166682876Y-27898120D01*
X166820361Y-27898120D01*
X166820572Y-27876531D01*
X166810666Y-27748667D01*
X166790540Y-27632179D01*
X166771948Y-27568071D01*
X166692226Y-27398378D01*
X166584363Y-27247551D01*
X166452092Y-27117123D01*
X166299151Y-27008625D01*
X166129274Y-26923590D01*
X165946197Y-26863550D01*
X165753656Y-26830038D01*
X165555387Y-26824585D01*
X165355124Y-26848724D01*
G36*
X163929202Y-27544467D02*
G01*
X163882379Y-27556864D01*
X163822210Y-27580400D01*
X163742688Y-27617425D01*
X163637808Y-27670290D01*
X163637312Y-27670545D01*
X163524560Y-27729558D01*
X163439682Y-27776746D01*
X163377682Y-27815650D01*
X163333565Y-27849809D01*
X163302332Y-27882766D01*
X163278987Y-27918061D01*
X163273407Y-27928415D01*
X163257509Y-27964904D01*
X163248744Y-28003606D01*
X163248089Y-28048763D01*
X163256520Y-28104615D01*
X163275017Y-28175402D01*
X163304555Y-28265366D01*
X163346113Y-28378748D01*
X163400668Y-28519787D01*
X163422432Y-28575000D01*
X163470972Y-28696867D01*
X163516612Y-28809809D01*
X163557241Y-28908733D01*
X163590752Y-28988547D01*
X163615033Y-29044159D01*
X163627130Y-29069099D01*
X163675568Y-29121129D01*
X163744733Y-29158393D01*
X163819727Y-29173015D01*
X163823670Y-29173006D01*
X163857223Y-29164692D01*
X163915931Y-29142218D01*
X163992940Y-29108517D01*
X164081398Y-29066521D01*
X164133626Y-29040348D01*
X164225875Y-28991995D01*
X164309978Y-28945656D01*
X164379028Y-28905304D01*
X164426119Y-28874913D01*
X164439857Y-28864163D01*
X164498122Y-28788705D01*
X164531878Y-28698339D01*
X164537571Y-28645061D01*
X164531037Y-28613163D01*
X164512613Y-28552674D01*
X164484061Y-28468622D01*
X164447148Y-28366035D01*
X164403636Y-28249938D01*
X164355291Y-28125361D01*
X164354308Y-28122871D01*
X164291772Y-27966102D01*
X164239533Y-27840089D01*
X164195395Y-27741520D01*
X164157163Y-27667082D01*
X164122644Y-27613463D01*
X164089643Y-27577351D01*
X164055964Y-27555433D01*
X164019414Y-27544398D01*
X163977798Y-27540933D01*
X163968686Y-27540857D01*
X163929202Y-27544467D01*
G37*
X163929202Y-27544467D02*
X163882379Y-27556864D01*
X163822210Y-27580400D01*
X163742688Y-27617425D01*
X163637808Y-27670290D01*
X163637312Y-27670545D01*
X163524560Y-27729558D01*
X163439682Y-27776746D01*
X163377682Y-27815650D01*
X163333565Y-27849809D01*
X163302332Y-27882766D01*
X163278987Y-27918061D01*
X163273407Y-27928415D01*
X163257509Y-27964904D01*
X163248744Y-28003606D01*
X163248089Y-28048763D01*
X163256520Y-28104615D01*
X163275017Y-28175402D01*
X163304555Y-28265366D01*
X163346113Y-28378748D01*
X163400668Y-28519787D01*
X163422432Y-28575000D01*
X163470972Y-28696867D01*
X163516612Y-28809809D01*
X163557241Y-28908733D01*
X163590752Y-28988547D01*
X163615033Y-29044159D01*
X163627130Y-29069099D01*
X163675568Y-29121129D01*
X163744733Y-29158393D01*
X163819727Y-29173015D01*
X163823670Y-29173006D01*
X163857223Y-29164692D01*
X163915931Y-29142218D01*
X163992940Y-29108517D01*
X164081398Y-29066521D01*
X164133626Y-29040348D01*
X164225875Y-28991995D01*
X164309978Y-28945656D01*
X164379028Y-28905304D01*
X164426119Y-28874913D01*
X164439857Y-28864163D01*
X164498122Y-28788705D01*
X164531878Y-28698339D01*
X164537571Y-28645061D01*
X164531037Y-28613163D01*
X164512613Y-28552674D01*
X164484061Y-28468622D01*
X164447148Y-28366035D01*
X164403636Y-28249938D01*
X164355291Y-28125361D01*
X164354308Y-28122871D01*
X164291772Y-27966102D01*
X164239533Y-27840089D01*
X164195395Y-27741520D01*
X164157163Y-27667082D01*
X164122644Y-27613463D01*
X164089643Y-27577351D01*
X164055964Y-27555433D01*
X164019414Y-27544398D01*
X163977798Y-27540933D01*
X163968686Y-27540857D01*
X163929202Y-27544467D01*
G36*
X167211727Y-27542772D02*
G01*
X167174885Y-27550367D01*
X167141925Y-27567269D01*
X167110547Y-27596884D01*
X167078452Y-27642618D01*
X167043339Y-27707877D01*
X167002909Y-27796068D01*
X166954862Y-27910596D01*
X166896899Y-28054867D01*
X166881290Y-28094214D01*
X166832873Y-28217160D01*
X166788483Y-28331265D01*
X166750029Y-28431514D01*
X166719418Y-28512891D01*
X166698559Y-28570380D01*
X166689500Y-28598358D01*
X166687393Y-28671004D01*
X166708341Y-28751580D01*
X166747619Y-28824672D01*
X166765497Y-28846355D01*
X166798223Y-28872499D01*
X166856648Y-28910657D01*
X166933966Y-28956712D01*
X167023373Y-29006548D01*
X167079207Y-29036145D01*
X167195436Y-29095053D01*
X167286020Y-29136517D01*
X167356461Y-29161705D01*
X167412263Y-29171787D01*
X167458927Y-29167933D01*
X167501956Y-29151312D01*
X167532995Y-29132618D01*
X167552386Y-29117694D01*
X167570936Y-29097534D01*
X167590596Y-29068134D01*
X167613317Y-29025492D01*
X167641048Y-28965603D01*
X167675742Y-28884465D01*
X167719348Y-28778075D01*
X167773817Y-28642429D01*
X167782738Y-28620082D01*
X167832482Y-28493560D01*
X167877881Y-28374571D01*
X167917074Y-28268273D01*
X167948201Y-28179825D01*
X167969402Y-28114383D01*
X167978816Y-28077108D01*
X167978945Y-28076071D01*
X167976086Y-28003998D01*
X167948160Y-27927967D01*
X167945064Y-27921857D01*
X167927770Y-27891126D01*
X167907585Y-27864797D01*
X167879334Y-27839170D01*
X167837845Y-27810548D01*
X167777943Y-27775229D01*
X167694455Y-27729515D01*
X167621857Y-27690756D01*
X167515042Y-27634727D01*
X167433903Y-27594306D01*
X167372604Y-27567113D01*
X167325307Y-27550768D01*
X167286175Y-27542892D01*
X167254750Y-27541077D01*
X167211727Y-27542772D01*
G37*
X167211727Y-27542772D02*
X167174885Y-27550367D01*
X167141925Y-27567269D01*
X167110547Y-27596884D01*
X167078452Y-27642618D01*
X167043339Y-27707877D01*
X167002909Y-27796068D01*
X166954862Y-27910596D01*
X166896899Y-28054867D01*
X166881290Y-28094214D01*
X166832873Y-28217160D01*
X166788483Y-28331265D01*
X166750029Y-28431514D01*
X166719418Y-28512891D01*
X166698559Y-28570380D01*
X166689500Y-28598358D01*
X166687393Y-28671004D01*
X166708341Y-28751580D01*
X166747619Y-28824672D01*
X166765497Y-28846355D01*
X166798223Y-28872499D01*
X166856648Y-28910657D01*
X166933966Y-28956712D01*
X167023373Y-29006548D01*
X167079207Y-29036145D01*
X167195436Y-29095053D01*
X167286020Y-29136517D01*
X167356461Y-29161705D01*
X167412263Y-29171787D01*
X167458927Y-29167933D01*
X167501956Y-29151312D01*
X167532995Y-29132618D01*
X167552386Y-29117694D01*
X167570936Y-29097534D01*
X167590596Y-29068134D01*
X167613317Y-29025492D01*
X167641048Y-28965603D01*
X167675742Y-28884465D01*
X167719348Y-28778075D01*
X167773817Y-28642429D01*
X167782738Y-28620082D01*
X167832482Y-28493560D01*
X167877881Y-28374571D01*
X167917074Y-28268273D01*
X167948201Y-28179825D01*
X167969402Y-28114383D01*
X167978816Y-28077108D01*
X167978945Y-28076071D01*
X167976086Y-28003998D01*
X167948160Y-27927967D01*
X167945064Y-27921857D01*
X167927770Y-27891126D01*
X167907585Y-27864797D01*
X167879334Y-27839170D01*
X167837845Y-27810548D01*
X167777943Y-27775229D01*
X167694455Y-27729515D01*
X167621857Y-27690756D01*
X167515042Y-27634727D01*
X167433903Y-27594306D01*
X167372604Y-27567113D01*
X167325307Y-27550768D01*
X167286175Y-27542892D01*
X167254750Y-27541077D01*
X167211727Y-27542772D01*
G36*
X176625278Y-25815198D02*
G01*
X176606200Y-25831799D01*
X176590297Y-25850269D01*
X176578104Y-25874136D01*
X176569132Y-25909851D01*
X176562888Y-25963867D01*
X176558884Y-26042635D01*
X176556629Y-26152607D01*
X176555631Y-26300237D01*
X176555401Y-26491974D01*
X176555400Y-26500010D01*
X176555400Y-27117420D01*
X176444925Y-27195291D01*
X176332498Y-27301343D01*
X176260829Y-27425894D01*
X176227801Y-27560851D01*
X176231301Y-27698125D01*
X176269212Y-27829623D01*
X176339421Y-27947255D01*
X176439812Y-28042930D01*
X176568270Y-28108557D01*
X176690301Y-28134030D01*
X176786653Y-28131142D01*
X176883008Y-28111409D01*
X176894359Y-28107500D01*
X177024676Y-28035094D01*
X177122212Y-27932390D01*
X177186428Y-27808347D01*
X177216782Y-27671925D01*
X177212735Y-27532084D01*
X177173746Y-27397783D01*
X177099274Y-27277984D01*
X176988781Y-27181645D01*
X176951488Y-27160185D01*
X176877676Y-27121797D01*
X176894614Y-26518675D01*
X176899804Y-26328163D01*
X176903067Y-26181716D01*
X176904043Y-26072624D01*
X176902373Y-25994176D01*
X176897697Y-25939663D01*
X176889653Y-25902373D01*
X176877883Y-25875596D01*
X176862026Y-25852622D01*
X176858633Y-25848276D01*
X176787967Y-25793999D01*
X176704981Y-25782634D01*
X176625278Y-25815198D01*
G37*
X176625278Y-25815198D02*
X176606200Y-25831799D01*
X176590297Y-25850269D01*
X176578104Y-25874136D01*
X176569132Y-25909851D01*
X176562888Y-25963867D01*
X176558884Y-26042635D01*
X176556629Y-26152607D01*
X176555631Y-26300237D01*
X176555401Y-26491974D01*
X176555400Y-26500010D01*
X176555400Y-27117420D01*
X176444925Y-27195291D01*
X176332498Y-27301343D01*
X176260829Y-27425894D01*
X176227801Y-27560851D01*
X176231301Y-27698125D01*
X176269212Y-27829623D01*
X176339421Y-27947255D01*
X176439812Y-28042930D01*
X176568270Y-28108557D01*
X176690301Y-28134030D01*
X176786653Y-28131142D01*
X176883008Y-28111409D01*
X176894359Y-28107500D01*
X177024676Y-28035094D01*
X177122212Y-27932390D01*
X177186428Y-27808347D01*
X177216782Y-27671925D01*
X177212735Y-27532084D01*
X177173746Y-27397783D01*
X177099274Y-27277984D01*
X176988781Y-27181645D01*
X176951488Y-27160185D01*
X176877676Y-27121797D01*
X176894614Y-26518675D01*
X176899804Y-26328163D01*
X176903067Y-26181716D01*
X176904043Y-26072624D01*
X176902373Y-25994176D01*
X176897697Y-25939663D01*
X176889653Y-25902373D01*
X176877883Y-25875596D01*
X176862026Y-25852622D01*
X176858633Y-25848276D01*
X176787967Y-25793999D01*
X176704981Y-25782634D01*
X176625278Y-25815198D01*
G36*
X175145637Y-27191873D02*
G01*
X175105696Y-27237651D01*
X175085912Y-27321571D01*
X175082200Y-27406600D01*
X175087212Y-27492274D01*
X175099948Y-27562990D01*
X175108494Y-27586069D01*
X175154619Y-27625499D01*
X175220054Y-27632430D01*
X175284248Y-27605852D01*
X175296286Y-27595285D01*
X175325658Y-27532917D01*
X175336170Y-27423465D01*
X175336200Y-27415815D01*
X175329213Y-27299127D01*
X175305910Y-27225029D01*
X175262785Y-27186952D01*
X175209200Y-27178000D01*
X175145637Y-27191873D01*
G37*
X175145637Y-27191873D02*
X175105696Y-27237651D01*
X175085912Y-27321571D01*
X175082200Y-27406600D01*
X175087212Y-27492274D01*
X175099948Y-27562990D01*
X175108494Y-27586069D01*
X175154619Y-27625499D01*
X175220054Y-27632430D01*
X175284248Y-27605852D01*
X175296286Y-27595285D01*
X175325658Y-27532917D01*
X175336170Y-27423465D01*
X175336200Y-27415815D01*
X175329213Y-27299127D01*
X175305910Y-27225029D01*
X175262785Y-27186952D01*
X175209200Y-27178000D01*
X175145637Y-27191873D01*
G36*
X174273334Y-27904773D02*
G01*
X174235237Y-27935650D01*
X174209430Y-27991779D01*
X174195270Y-28077612D01*
X174193624Y-28173206D01*
X174205361Y-28258623D01*
X174219494Y-28297269D01*
X174264322Y-28334251D01*
X174330879Y-28346367D01*
X174395405Y-28331373D01*
X174416721Y-28315920D01*
X174436965Y-28268537D01*
X174446811Y-28189671D01*
X174446701Y-28097468D01*
X174437077Y-28010072D01*
X174418383Y-27945632D01*
X174407286Y-27929114D01*
X174341542Y-27892549D01*
X174273334Y-27904773D01*
G37*
X174273334Y-27904773D02*
X174235237Y-27935650D01*
X174209430Y-27991779D01*
X174195270Y-28077612D01*
X174193624Y-28173206D01*
X174205361Y-28258623D01*
X174219494Y-28297269D01*
X174264322Y-28334251D01*
X174330879Y-28346367D01*
X174395405Y-28331373D01*
X174416721Y-28315920D01*
X174436965Y-28268537D01*
X174446811Y-28189671D01*
X174446701Y-28097468D01*
X174437077Y-28010072D01*
X174418383Y-27945632D01*
X174407286Y-27929114D01*
X174341542Y-27892549D01*
X174273334Y-27904773D01*
G36*
X175726186Y-24173571D02*
G01*
X175636361Y-24226908D01*
X175579388Y-24307980D01*
X175557980Y-24403727D01*
X175574854Y-24501089D01*
X175632722Y-24587005D01*
X175639047Y-24592854D01*
X175733515Y-24650321D01*
X175833585Y-24657552D01*
X175926112Y-24623806D01*
X176003629Y-24558742D01*
X176042190Y-24476941D01*
X176045816Y-24395694D01*
X175963403Y-24395694D01*
X175951816Y-24468191D01*
X175904339Y-24531711D01*
X175869179Y-24554535D01*
X175813889Y-24579869D01*
X175776575Y-24580785D01*
X175733323Y-24554320D01*
X175707926Y-24534556D01*
X175653618Y-24466512D01*
X175641782Y-24392088D01*
X175667789Y-24323937D01*
X175727011Y-24274711D01*
X175809452Y-24257000D01*
X175889558Y-24276832D01*
X175941762Y-24327486D01*
X175963403Y-24395694D01*
X176045816Y-24395694D01*
X176046151Y-24388211D01*
X176019868Y-24302362D01*
X175967697Y-24229203D01*
X175893992Y-24178544D01*
X175803111Y-24160193D01*
X175726186Y-24173571D01*
G37*
X175726186Y-24173571D02*
X175636361Y-24226908D01*
X175579388Y-24307980D01*
X175557980Y-24403727D01*
X175574854Y-24501089D01*
X175632722Y-24587005D01*
X175639047Y-24592854D01*
X175733515Y-24650321D01*
X175833585Y-24657552D01*
X175926112Y-24623806D01*
X176003629Y-24558742D01*
X176042190Y-24476941D01*
X176045816Y-24395694D01*
X175963403Y-24395694D01*
X175951816Y-24468191D01*
X175904339Y-24531711D01*
X175869179Y-24554535D01*
X175813889Y-24579869D01*
X175776575Y-24580785D01*
X175733323Y-24554320D01*
X175707926Y-24534556D01*
X175653618Y-24466512D01*
X175641782Y-24392088D01*
X175667789Y-24323937D01*
X175727011Y-24274711D01*
X175809452Y-24257000D01*
X175889558Y-24276832D01*
X175941762Y-24327486D01*
X175963403Y-24395694D01*
X176045816Y-24395694D01*
X176046151Y-24388211D01*
X176019868Y-24302362D01*
X175967697Y-24229203D01*
X175893992Y-24178544D01*
X175803111Y-24160193D01*
X175726186Y-24173571D01*
G36*
X169676088Y-24454129D02*
G01*
X169621903Y-24604512D01*
X169574147Y-24738688D01*
X169535377Y-24849341D01*
X169508146Y-24929156D01*
X169495011Y-24970820D01*
X169494200Y-24974829D01*
X169515818Y-24989364D01*
X169552776Y-24993600D01*
X169589238Y-24985209D01*
X169618685Y-24952969D01*
X169649151Y-24886279D01*
X169663433Y-24847550D01*
X169715515Y-24701500D01*
X170172535Y-24686992D01*
X170228432Y-24840296D01*
X170262425Y-24925553D01*
X170291010Y-24972363D01*
X170322226Y-24991267D01*
X170345338Y-24993600D01*
X170383366Y-24990762D01*
X170394377Y-24973106D01*
X170382224Y-24926918D01*
X170372087Y-24898350D01*
X170347839Y-24831532D01*
X170312056Y-24733681D01*
X170268330Y-24614538D01*
X170254346Y-24576523D01*
X170129200Y-24576523D01*
X170105874Y-24581631D01*
X170044179Y-24585408D01*
X169956543Y-24587154D01*
X169939071Y-24587200D01*
X169748942Y-24587200D01*
X169795846Y-24466550D01*
X169832718Y-24367448D01*
X169871882Y-24255939D01*
X169887175Y-24210268D01*
X169914252Y-24140725D01*
X169938654Y-24100209D01*
X169951848Y-24095968D01*
X169966596Y-24125499D01*
X169992967Y-24189893D01*
X170026096Y-24275963D01*
X170061115Y-24370524D01*
X170093159Y-24460390D01*
X170117361Y-24532374D01*
X170128855Y-24573290D01*
X170129200Y-24576523D01*
X170254346Y-24576523D01*
X170220252Y-24483847D01*
X170171414Y-24351350D01*
X170125407Y-24226789D01*
X170085823Y-24119907D01*
X170056252Y-24040447D01*
X170040286Y-23998151D01*
X170039698Y-23996650D01*
X169998867Y-23960511D01*
X169940070Y-23952200D01*
X169857975Y-23952200D01*
X169676088Y-24454129D01*
G37*
X169676088Y-24454129D02*
X169621903Y-24604512D01*
X169574147Y-24738688D01*
X169535377Y-24849341D01*
X169508146Y-24929156D01*
X169495011Y-24970820D01*
X169494200Y-24974829D01*
X169515818Y-24989364D01*
X169552776Y-24993600D01*
X169589238Y-24985209D01*
X169618685Y-24952969D01*
X169649151Y-24886279D01*
X169663433Y-24847550D01*
X169715515Y-24701500D01*
X170172535Y-24686992D01*
X170228432Y-24840296D01*
X170262425Y-24925553D01*
X170291010Y-24972363D01*
X170322226Y-24991267D01*
X170345338Y-24993600D01*
X170383366Y-24990762D01*
X170394377Y-24973106D01*
X170382224Y-24926918D01*
X170372087Y-24898350D01*
X170347839Y-24831532D01*
X170312056Y-24733681D01*
X170268330Y-24614538D01*
X170254346Y-24576523D01*
X170129200Y-24576523D01*
X170105874Y-24581631D01*
X170044179Y-24585408D01*
X169956543Y-24587154D01*
X169939071Y-24587200D01*
X169748942Y-24587200D01*
X169795846Y-24466550D01*
X169832718Y-24367448D01*
X169871882Y-24255939D01*
X169887175Y-24210268D01*
X169914252Y-24140725D01*
X169938654Y-24100209D01*
X169951848Y-24095968D01*
X169966596Y-24125499D01*
X169992967Y-24189893D01*
X170026096Y-24275963D01*
X170061115Y-24370524D01*
X170093159Y-24460390D01*
X170117361Y-24532374D01*
X170128855Y-24573290D01*
X170129200Y-24576523D01*
X170254346Y-24576523D01*
X170220252Y-24483847D01*
X170171414Y-24351350D01*
X170125407Y-24226789D01*
X170085823Y-24119907D01*
X170056252Y-24040447D01*
X170040286Y-23998151D01*
X170039698Y-23996650D01*
X169998867Y-23960511D01*
X169940070Y-23952200D01*
X169857975Y-23952200D01*
X169676088Y-24454129D01*
G36*
X170896001Y-23957914D02*
G01*
X170730162Y-23975249D01*
X170608743Y-24007898D01*
X170526779Y-24059274D01*
X170479302Y-24132790D01*
X170461348Y-24231860D01*
X170460865Y-24257000D01*
X170479493Y-24389417D01*
X170534988Y-24487532D01*
X170628084Y-24551997D01*
X170759519Y-24583460D01*
X170834050Y-24587032D01*
X170992800Y-24587200D01*
X170992800Y-24790400D01*
X170993477Y-24891178D01*
X170997667Y-24951523D01*
X171008608Y-24981797D01*
X171029539Y-24992367D01*
X171056300Y-24993600D01*
X171119800Y-24993600D01*
X171119800Y-24485600D01*
X170992800Y-24485600D01*
X170856526Y-24485600D01*
X170750716Y-24477079D01*
X170675531Y-24448451D01*
X170653326Y-24432956D01*
X170602299Y-24363281D01*
X170584257Y-24271533D01*
X170601982Y-24176490D01*
X170612099Y-24154841D01*
X170658104Y-24113477D01*
X170739403Y-24079592D01*
X170840540Y-24058415D01*
X170910250Y-24053941D01*
X170992800Y-24053800D01*
X170992800Y-24485600D01*
X171119800Y-24485600D01*
X171119800Y-23945153D01*
X170896001Y-23957914D01*
G37*
X170896001Y-23957914D02*
X170730162Y-23975249D01*
X170608743Y-24007898D01*
X170526779Y-24059274D01*
X170479302Y-24132790D01*
X170461348Y-24231860D01*
X170460865Y-24257000D01*
X170479493Y-24389417D01*
X170534988Y-24487532D01*
X170628084Y-24551997D01*
X170759519Y-24583460D01*
X170834050Y-24587032D01*
X170992800Y-24587200D01*
X170992800Y-24790400D01*
X170993477Y-24891178D01*
X170997667Y-24951523D01*
X171008608Y-24981797D01*
X171029539Y-24992367D01*
X171056300Y-24993600D01*
X171119800Y-24993600D01*
X171119800Y-24485600D01*
X170992800Y-24485600D01*
X170856526Y-24485600D01*
X170750716Y-24477079D01*
X170675531Y-24448451D01*
X170653326Y-24432956D01*
X170602299Y-24363281D01*
X170584257Y-24271533D01*
X170601982Y-24176490D01*
X170612099Y-24154841D01*
X170658104Y-24113477D01*
X170739403Y-24079592D01*
X170840540Y-24058415D01*
X170910250Y-24053941D01*
X170992800Y-24053800D01*
X170992800Y-24485600D01*
X171119800Y-24485600D01*
X171119800Y-23945153D01*
X170896001Y-23957914D01*
G36*
X171938377Y-23929180D02*
G01*
X171919442Y-23943463D01*
X171910319Y-23980358D01*
X171907430Y-24050578D01*
X171907200Y-24116926D01*
X171907200Y-24307053D01*
X171824650Y-24256721D01*
X171739118Y-24222284D01*
X171641338Y-24208287D01*
X171551640Y-24215851D01*
X171498599Y-24238757D01*
X171458112Y-24278386D01*
X171429946Y-24330657D01*
X171412091Y-24404636D01*
X171402537Y-24509391D01*
X171399275Y-24653985D01*
X171399200Y-24687130D01*
X171399694Y-24816205D01*
X171402102Y-24902879D01*
X171407817Y-24955548D01*
X171418230Y-24982607D01*
X171434732Y-24992453D01*
X171450000Y-24993600D01*
X171473862Y-24989873D01*
X171488811Y-24972332D01*
X171496908Y-24931436D01*
X171500216Y-24857645D01*
X171500800Y-24758482D01*
X171506860Y-24579918D01*
X171526484Y-24448082D01*
X171561843Y-24360195D01*
X171615106Y-24313479D01*
X171688445Y-24305157D01*
X171784028Y-24332450D01*
X171820812Y-24348794D01*
X171907200Y-24389788D01*
X171907200Y-24993600D01*
X172034200Y-24993600D01*
X172034200Y-23926800D01*
X171970700Y-23926800D01*
X171938377Y-23929180D01*
G37*
X171938377Y-23929180D02*
X171919442Y-23943463D01*
X171910319Y-23980358D01*
X171907430Y-24050578D01*
X171907200Y-24116926D01*
X171907200Y-24307053D01*
X171824650Y-24256721D01*
X171739118Y-24222284D01*
X171641338Y-24208287D01*
X171551640Y-24215851D01*
X171498599Y-24238757D01*
X171458112Y-24278386D01*
X171429946Y-24330657D01*
X171412091Y-24404636D01*
X171402537Y-24509391D01*
X171399275Y-24653985D01*
X171399200Y-24687130D01*
X171399694Y-24816205D01*
X171402102Y-24902879D01*
X171407817Y-24955548D01*
X171418230Y-24982607D01*
X171434732Y-24992453D01*
X171450000Y-24993600D01*
X171473862Y-24989873D01*
X171488811Y-24972332D01*
X171496908Y-24931436D01*
X171500216Y-24857645D01*
X171500800Y-24758482D01*
X171506860Y-24579918D01*
X171526484Y-24448082D01*
X171561843Y-24360195D01*
X171615106Y-24313479D01*
X171688445Y-24305157D01*
X171784028Y-24332450D01*
X171820812Y-24348794D01*
X171907200Y-24389788D01*
X171907200Y-24993600D01*
X172034200Y-24993600D01*
X172034200Y-23926800D01*
X171970700Y-23926800D01*
X171938377Y-23929180D01*
G36*
X174510700Y-24183435D02*
G01*
X174369654Y-24245679D01*
X174254612Y-24344118D01*
X174193155Y-24434889D01*
X174162855Y-24501029D01*
X174163389Y-24537395D01*
X174200536Y-24558403D01*
X174247646Y-24570793D01*
X174299333Y-24574898D01*
X174323963Y-24546923D01*
X174329263Y-24529151D01*
X174356528Y-24475201D01*
X174406469Y-24412276D01*
X174422535Y-24395996D01*
X174468580Y-24356155D01*
X174513303Y-24333468D01*
X174573163Y-24323178D01*
X174664615Y-24320532D01*
X174683818Y-24320500D01*
X174827793Y-24331913D01*
X174935189Y-24369614D01*
X175015641Y-24438797D01*
X175071659Y-24529549D01*
X175103571Y-24628498D01*
X175123252Y-24757481D01*
X175129450Y-24896931D01*
X175120911Y-25027282D01*
X175107817Y-25094395D01*
X175050398Y-25218844D01*
X174957658Y-25319343D01*
X174840593Y-25388756D01*
X174710195Y-25419949D01*
X174614208Y-25414733D01*
X174512012Y-25374185D01*
X174414676Y-25299767D01*
X174339903Y-25206761D01*
X174316377Y-25157690D01*
X174290394Y-25100717D01*
X174259786Y-25081834D01*
X174220112Y-25086742D01*
X174155623Y-25105829D01*
X174132078Y-25131820D01*
X174141895Y-25180305D01*
X174156675Y-25217208D01*
X174240940Y-25357973D01*
X174358691Y-25462127D01*
X174505565Y-25526943D01*
X174677198Y-25549694D01*
X174688500Y-25549658D01*
X174784835Y-25545151D01*
X174871122Y-25535274D01*
X174912402Y-25526571D01*
X175036464Y-25464081D01*
X175141290Y-25361893D01*
X175223512Y-25228569D01*
X175279762Y-25072670D01*
X175306673Y-24902755D01*
X175300877Y-24727387D01*
X175275131Y-24604500D01*
X175204916Y-24447452D01*
X175098619Y-24320393D01*
X174963953Y-24227572D01*
X174808631Y-24173238D01*
X174640366Y-24161639D01*
X174510700Y-24183435D01*
G37*
X174510700Y-24183435D02*
X174369654Y-24245679D01*
X174254612Y-24344118D01*
X174193155Y-24434889D01*
X174162855Y-24501029D01*
X174163389Y-24537395D01*
X174200536Y-24558403D01*
X174247646Y-24570793D01*
X174299333Y-24574898D01*
X174323963Y-24546923D01*
X174329263Y-24529151D01*
X174356528Y-24475201D01*
X174406469Y-24412276D01*
X174422535Y-24395996D01*
X174468580Y-24356155D01*
X174513303Y-24333468D01*
X174573163Y-24323178D01*
X174664615Y-24320532D01*
X174683818Y-24320500D01*
X174827793Y-24331913D01*
X174935189Y-24369614D01*
X175015641Y-24438797D01*
X175071659Y-24529549D01*
X175103571Y-24628498D01*
X175123252Y-24757481D01*
X175129450Y-24896931D01*
X175120911Y-25027282D01*
X175107817Y-25094395D01*
X175050398Y-25218844D01*
X174957658Y-25319343D01*
X174840593Y-25388756D01*
X174710195Y-25419949D01*
X174614208Y-25414733D01*
X174512012Y-25374185D01*
X174414676Y-25299767D01*
X174339903Y-25206761D01*
X174316377Y-25157690D01*
X174290394Y-25100717D01*
X174259786Y-25081834D01*
X174220112Y-25086742D01*
X174155623Y-25105829D01*
X174132078Y-25131820D01*
X174141895Y-25180305D01*
X174156675Y-25217208D01*
X174240940Y-25357973D01*
X174358691Y-25462127D01*
X174505565Y-25526943D01*
X174677198Y-25549694D01*
X174688500Y-25549658D01*
X174784835Y-25545151D01*
X174871122Y-25535274D01*
X174912402Y-25526571D01*
X175036464Y-25464081D01*
X175141290Y-25361893D01*
X175223512Y-25228569D01*
X175279762Y-25072670D01*
X175306673Y-24902755D01*
X175300877Y-24727387D01*
X175275131Y-24604500D01*
X175204916Y-24447452D01*
X175098619Y-24320393D01*
X174963953Y-24227572D01*
X174808631Y-24173238D01*
X174640366Y-24161639D01*
X174510700Y-24183435D01*
G36*
X176605449Y-24148036D02*
G01*
X176467617Y-24202958D01*
X176354754Y-24287631D01*
X176316562Y-24324956D01*
X176284728Y-24358821D01*
X176258592Y-24394050D01*
X176237497Y-24435466D01*
X176220785Y-24487892D01*
X176207797Y-24556151D01*
X176197874Y-24645066D01*
X176190360Y-24759460D01*
X176184594Y-24904156D01*
X176179920Y-25083977D01*
X176175678Y-25303747D01*
X176171210Y-25568287D01*
X176169992Y-25641300D01*
X176165754Y-25877479D01*
X176161212Y-26100111D01*
X176156523Y-26303594D01*
X176151838Y-26482326D01*
X176147311Y-26630704D01*
X176143098Y-26743128D01*
X176139350Y-26813993D01*
X176137240Y-26835100D01*
X176120083Y-26888939D01*
X176084742Y-26974603D01*
X176036851Y-27079045D01*
X175996399Y-27161237D01*
X175938798Y-27278005D01*
X175901673Y-27364543D01*
X175880672Y-27434940D01*
X175871442Y-27503285D01*
X175869600Y-27571724D01*
X175891179Y-27785624D01*
X175952713Y-27988916D01*
X176049398Y-28173521D01*
X176176429Y-28331361D01*
X176329001Y-28454356D01*
X176424882Y-28505478D01*
X176550002Y-28543975D01*
X176697016Y-28563989D01*
X176844038Y-28564129D01*
X176969182Y-28543009D01*
X176977134Y-28540510D01*
X177152046Y-28457373D01*
X177303756Y-28333583D01*
X177428142Y-28175570D01*
X177521078Y-27989763D01*
X177578440Y-27782593D01*
X177595786Y-27580684D01*
X177342800Y-27580684D01*
X177342800Y-27581842D01*
X177322551Y-27773394D01*
X177264671Y-27947546D01*
X177173464Y-28096329D01*
X177053231Y-28211776D01*
X176978049Y-28257303D01*
X176837408Y-28309016D01*
X176700640Y-28316931D01*
X176577205Y-28291521D01*
X176440132Y-28225069D01*
X176321195Y-28117706D01*
X176226119Y-27977781D01*
X176160629Y-27813643D01*
X176130874Y-27640566D01*
X176127082Y-27563025D01*
X176130115Y-27501820D01*
X176143790Y-27443235D01*
X176171921Y-27373555D01*
X176218325Y-27279065D01*
X176246951Y-27223310D01*
X176301734Y-27109763D01*
X176347930Y-27000444D01*
X176379525Y-26910340D01*
X176389599Y-26867710D01*
X176393270Y-26819554D01*
X176397470Y-26726472D01*
X176402038Y-26594331D01*
X176406810Y-26429001D01*
X176411624Y-26236349D01*
X176416319Y-26022245D01*
X176420731Y-25792557D01*
X176423034Y-25658375D01*
X176441100Y-24557851D01*
X176535977Y-24470925D01*
X176637937Y-24402992D01*
X176740100Y-24383515D01*
X176837969Y-24413129D01*
X176857232Y-24425419D01*
X176887062Y-24447880D01*
X176911944Y-24472829D01*
X176932325Y-24504809D01*
X176948654Y-24548363D01*
X176961379Y-24608036D01*
X176970948Y-24688370D01*
X176977810Y-24793910D01*
X176982412Y-24929199D01*
X176985203Y-25098780D01*
X176986631Y-25307198D01*
X176987145Y-25558994D01*
X176987200Y-25742899D01*
X176987174Y-26019188D01*
X176987537Y-26249754D01*
X176988955Y-26439671D01*
X176992092Y-26594015D01*
X176997612Y-26717861D01*
X177006182Y-26816286D01*
X177018465Y-26894365D01*
X177035127Y-26957173D01*
X177056831Y-27009785D01*
X177084243Y-27057278D01*
X177118027Y-27104726D01*
X177158849Y-27157205D01*
X177175155Y-27178000D01*
X177251267Y-27278493D01*
X177300165Y-27354743D01*
X177327773Y-27421016D01*
X177340011Y-27491575D01*
X177342800Y-27580684D01*
X177595786Y-27580684D01*
X177596243Y-27575374D01*
X177587824Y-27441350D01*
X177559677Y-27323878D01*
X177506104Y-27208673D01*
X177421409Y-27081450D01*
X177375205Y-27021019D01*
X177253900Y-26866662D01*
X177228500Y-24523700D01*
X177165000Y-24411670D01*
X177105205Y-24325800D01*
X177031759Y-24245377D01*
X177007250Y-24223888D01*
X176886282Y-24157424D01*
X176748676Y-24132499D01*
X176605449Y-24148036D01*
G37*
X176605449Y-24148036D02*
X176467617Y-24202958D01*
X176354754Y-24287631D01*
X176316562Y-24324956D01*
X176284728Y-24358821D01*
X176258592Y-24394050D01*
X176237497Y-24435466D01*
X176220785Y-24487892D01*
X176207797Y-24556151D01*
X176197874Y-24645066D01*
X176190360Y-24759460D01*
X176184594Y-24904156D01*
X176179920Y-25083977D01*
X176175678Y-25303747D01*
X176171210Y-25568287D01*
X176169992Y-25641300D01*
X176165754Y-25877479D01*
X176161212Y-26100111D01*
X176156523Y-26303594D01*
X176151838Y-26482326D01*
X176147311Y-26630704D01*
X176143098Y-26743128D01*
X176139350Y-26813993D01*
X176137240Y-26835100D01*
X176120083Y-26888939D01*
X176084742Y-26974603D01*
X176036851Y-27079045D01*
X175996399Y-27161237D01*
X175938798Y-27278005D01*
X175901673Y-27364543D01*
X175880672Y-27434940D01*
X175871442Y-27503285D01*
X175869600Y-27571724D01*
X175891179Y-27785624D01*
X175952713Y-27988916D01*
X176049398Y-28173521D01*
X176176429Y-28331361D01*
X176329001Y-28454356D01*
X176424882Y-28505478D01*
X176550002Y-28543975D01*
X176697016Y-28563989D01*
X176844038Y-28564129D01*
X176969182Y-28543009D01*
X176977134Y-28540510D01*
X177152046Y-28457373D01*
X177303756Y-28333583D01*
X177428142Y-28175570D01*
X177521078Y-27989763D01*
X177578440Y-27782593D01*
X177595786Y-27580684D01*
X177342800Y-27580684D01*
X177342800Y-27581842D01*
X177322551Y-27773394D01*
X177264671Y-27947546D01*
X177173464Y-28096329D01*
X177053231Y-28211776D01*
X176978049Y-28257303D01*
X176837408Y-28309016D01*
X176700640Y-28316931D01*
X176577205Y-28291521D01*
X176440132Y-28225069D01*
X176321195Y-28117706D01*
X176226119Y-27977781D01*
X176160629Y-27813643D01*
X176130874Y-27640566D01*
X176127082Y-27563025D01*
X176130115Y-27501820D01*
X176143790Y-27443235D01*
X176171921Y-27373555D01*
X176218325Y-27279065D01*
X176246951Y-27223310D01*
X176301734Y-27109763D01*
X176347930Y-27000444D01*
X176379525Y-26910340D01*
X176389599Y-26867710D01*
X176393270Y-26819554D01*
X176397470Y-26726472D01*
X176402038Y-26594331D01*
X176406810Y-26429001D01*
X176411624Y-26236349D01*
X176416319Y-26022245D01*
X176420731Y-25792557D01*
X176423034Y-25658375D01*
X176441100Y-24557851D01*
X176535977Y-24470925D01*
X176637937Y-24402992D01*
X176740100Y-24383515D01*
X176837969Y-24413129D01*
X176857232Y-24425419D01*
X176887062Y-24447880D01*
X176911944Y-24472829D01*
X176932325Y-24504809D01*
X176948654Y-24548363D01*
X176961379Y-24608036D01*
X176970948Y-24688370D01*
X176977810Y-24793910D01*
X176982412Y-24929199D01*
X176985203Y-25098780D01*
X176986631Y-25307198D01*
X176987145Y-25558994D01*
X176987200Y-25742899D01*
X176987174Y-26019188D01*
X176987537Y-26249754D01*
X176988955Y-26439671D01*
X176992092Y-26594015D01*
X176997612Y-26717861D01*
X177006182Y-26816286D01*
X177018465Y-26894365D01*
X177035127Y-26957173D01*
X177056831Y-27009785D01*
X177084243Y-27057278D01*
X177118027Y-27104726D01*
X177158849Y-27157205D01*
X177175155Y-27178000D01*
X177251267Y-27278493D01*
X177300165Y-27354743D01*
X177327773Y-27421016D01*
X177340011Y-27491575D01*
X177342800Y-27580684D01*
X177595786Y-27580684D01*
X177596243Y-27575374D01*
X177587824Y-27441350D01*
X177559677Y-27323878D01*
X177506104Y-27208673D01*
X177421409Y-27081450D01*
X177375205Y-27021019D01*
X177253900Y-26866662D01*
X177228500Y-24523700D01*
X177165000Y-24411670D01*
X177105205Y-24325800D01*
X177031759Y-24245377D01*
X177007250Y-24223888D01*
X176886282Y-24157424D01*
X176748676Y-24132499D01*
X176605449Y-24148036D01*
G36*
X170797542Y-26473017D02*
G01*
X170766080Y-26492997D01*
X170764200Y-26502708D01*
X170761067Y-26535117D01*
X170752130Y-26612273D01*
X170738085Y-26728540D01*
X170719629Y-26878284D01*
X170697457Y-27055869D01*
X170672266Y-27255658D01*
X170644751Y-27472018D01*
X170637200Y-27531084D01*
X170609143Y-27751609D01*
X170583235Y-27957687D01*
X170560174Y-28143568D01*
X170540661Y-28303506D01*
X170525396Y-28431753D01*
X170515077Y-28522559D01*
X170510404Y-28570178D01*
X170510200Y-28574676D01*
X170512616Y-28594249D01*
X170524875Y-28608066D01*
X170554493Y-28617124D01*
X170608988Y-28622425D01*
X170695876Y-28624968D01*
X170822674Y-28625753D01*
X170894524Y-28625800D01*
X171278847Y-28625800D01*
X171266321Y-28543250D01*
X171260165Y-28500278D01*
X171247951Y-28412935D01*
X171241449Y-28366074D01*
X171034602Y-28366074D01*
X171024431Y-28386940D01*
X170987986Y-28395471D01*
X170914286Y-28397188D01*
X170890566Y-28397200D01*
X170810376Y-28393921D01*
X170755372Y-28385403D01*
X170738800Y-28375633D01*
X170741991Y-28344773D01*
X170750873Y-28271748D01*
X170764409Y-28164746D01*
X170781562Y-28031954D01*
X170801298Y-27881562D01*
X170802300Y-27873983D01*
X170822196Y-27721739D01*
X170839540Y-27585543D01*
X170853287Y-27473902D01*
X170862387Y-27395323D01*
X170865796Y-27358314D01*
X170865800Y-27357916D01*
X170872788Y-27333093D01*
X170878885Y-27335018D01*
X170886363Y-27363214D01*
X170899137Y-27433535D01*
X170915878Y-27537739D01*
X170935258Y-27667583D01*
X170954302Y-27802801D01*
X170975206Y-27953991D01*
X170994613Y-28091971D01*
X171011144Y-28207103D01*
X171023416Y-28289753D01*
X171029483Y-28327350D01*
X171034602Y-28366074D01*
X171241449Y-28366074D01*
X171230501Y-28287179D01*
X171208640Y-28128973D01*
X171183191Y-27944274D01*
X171154976Y-27739044D01*
X171124819Y-27519243D01*
X171117214Y-27463750D01*
X170980634Y-26466800D01*
X170872417Y-26466800D01*
X170797542Y-26473017D01*
G37*
X170797542Y-26473017D02*
X170766080Y-26492997D01*
X170764200Y-26502708D01*
X170761067Y-26535117D01*
X170752130Y-26612273D01*
X170738085Y-26728540D01*
X170719629Y-26878284D01*
X170697457Y-27055869D01*
X170672266Y-27255658D01*
X170644751Y-27472018D01*
X170637200Y-27531084D01*
X170609143Y-27751609D01*
X170583235Y-27957687D01*
X170560174Y-28143568D01*
X170540661Y-28303506D01*
X170525396Y-28431753D01*
X170515077Y-28522559D01*
X170510404Y-28570178D01*
X170510200Y-28574676D01*
X170512616Y-28594249D01*
X170524875Y-28608066D01*
X170554493Y-28617124D01*
X170608988Y-28622425D01*
X170695876Y-28624968D01*
X170822674Y-28625753D01*
X170894524Y-28625800D01*
X171278847Y-28625800D01*
X171266321Y-28543250D01*
X171260165Y-28500278D01*
X171247951Y-28412935D01*
X171241449Y-28366074D01*
X171034602Y-28366074D01*
X171024431Y-28386940D01*
X170987986Y-28395471D01*
X170914286Y-28397188D01*
X170890566Y-28397200D01*
X170810376Y-28393921D01*
X170755372Y-28385403D01*
X170738800Y-28375633D01*
X170741991Y-28344773D01*
X170750873Y-28271748D01*
X170764409Y-28164746D01*
X170781562Y-28031954D01*
X170801298Y-27881562D01*
X170802300Y-27873983D01*
X170822196Y-27721739D01*
X170839540Y-27585543D01*
X170853287Y-27473902D01*
X170862387Y-27395323D01*
X170865796Y-27358314D01*
X170865800Y-27357916D01*
X170872788Y-27333093D01*
X170878885Y-27335018D01*
X170886363Y-27363214D01*
X170899137Y-27433535D01*
X170915878Y-27537739D01*
X170935258Y-27667583D01*
X170954302Y-27802801D01*
X170975206Y-27953991D01*
X170994613Y-28091971D01*
X171011144Y-28207103D01*
X171023416Y-28289753D01*
X171029483Y-28327350D01*
X171034602Y-28366074D01*
X171241449Y-28366074D01*
X171230501Y-28287179D01*
X171208640Y-28128973D01*
X171183191Y-27944274D01*
X171154976Y-27739044D01*
X171124819Y-27519243D01*
X171117214Y-27463750D01*
X170980634Y-26466800D01*
X170872417Y-26466800D01*
X170797542Y-26473017D01*
G36*
X170662112Y-25508112D02*
G01*
X170500642Y-25535888D01*
X170186108Y-25637883D01*
X169897418Y-25783096D01*
X169636639Y-25969854D01*
X169405838Y-26196484D01*
X169207081Y-26461311D01*
X169078655Y-26687246D01*
X168961825Y-26976078D01*
X168889547Y-27281941D01*
X168862360Y-27596499D01*
X168880802Y-27911416D01*
X168945413Y-28218355D01*
X168973903Y-28307704D01*
X169032316Y-28444873D01*
X169100103Y-28538121D01*
X169183421Y-28594227D01*
X169252834Y-28614763D01*
X169371507Y-28619859D01*
X169474158Y-28583076D01*
X169561738Y-28512542D01*
X169618291Y-28437114D01*
X169644777Y-28348560D01*
X169641772Y-28238130D01*
X169609855Y-28097078D01*
X169592844Y-28041600D01*
X169556013Y-27876894D01*
X169538856Y-27686345D01*
X169541668Y-27490925D01*
X169564746Y-27311608D01*
X169581579Y-27242584D01*
X169679634Y-26988222D01*
X169815186Y-26761177D01*
X169983600Y-26565096D01*
X170180238Y-26403630D01*
X170400466Y-26280425D01*
X170639647Y-26199129D01*
X170893146Y-26163392D01*
X170954701Y-26162000D01*
X171207990Y-26186157D01*
X171445166Y-26256274D01*
X171661571Y-26368818D01*
X171852544Y-26520258D01*
X172013424Y-26707059D01*
X172139553Y-26925690D01*
X172210108Y-27113674D01*
X172247208Y-27293620D01*
X172261118Y-27492499D01*
X172252211Y-27692210D01*
X172220860Y-27874655D01*
X172192551Y-27965400D01*
X172138503Y-28106385D01*
X172100129Y-28208258D01*
X172075550Y-28279580D01*
X172062885Y-28328910D01*
X172060254Y-28364805D01*
X172065777Y-28395826D01*
X172077573Y-28430532D01*
X172085498Y-28452694D01*
X172147113Y-28559537D01*
X172239613Y-28634407D01*
X172351410Y-28673197D01*
X172470912Y-28671798D01*
X172582226Y-28628768D01*
X172647451Y-28568272D01*
X172710439Y-28473089D01*
X172727039Y-28440283D01*
X172847216Y-28130443D01*
X172918575Y-27814979D01*
X172941463Y-27498138D01*
X172916226Y-27184164D01*
X172843209Y-26877301D01*
X172722760Y-26581795D01*
X172555223Y-26301890D01*
X172552313Y-26297775D01*
X172379417Y-26093105D01*
X172167990Y-25907202D01*
X171929046Y-25747608D01*
X171673598Y-25621863D01*
X171458895Y-25549126D01*
X171281861Y-25514990D01*
X171077241Y-25496598D01*
X170864252Y-25494217D01*
X170662112Y-25508112D01*
G37*
X170662112Y-25508112D02*
X170500642Y-25535888D01*
X170186108Y-25637883D01*
X169897418Y-25783096D01*
X169636639Y-25969854D01*
X169405838Y-26196484D01*
X169207081Y-26461311D01*
X169078655Y-26687246D01*
X168961825Y-26976078D01*
X168889547Y-27281941D01*
X168862360Y-27596499D01*
X168880802Y-27911416D01*
X168945413Y-28218355D01*
X168973903Y-28307704D01*
X169032316Y-28444873D01*
X169100103Y-28538121D01*
X169183421Y-28594227D01*
X169252834Y-28614763D01*
X169371507Y-28619859D01*
X169474158Y-28583076D01*
X169561738Y-28512542D01*
X169618291Y-28437114D01*
X169644777Y-28348560D01*
X169641772Y-28238130D01*
X169609855Y-28097078D01*
X169592844Y-28041600D01*
X169556013Y-27876894D01*
X169538856Y-27686345D01*
X169541668Y-27490925D01*
X169564746Y-27311608D01*
X169581579Y-27242584D01*
X169679634Y-26988222D01*
X169815186Y-26761177D01*
X169983600Y-26565096D01*
X170180238Y-26403630D01*
X170400466Y-26280425D01*
X170639647Y-26199129D01*
X170893146Y-26163392D01*
X170954701Y-26162000D01*
X171207990Y-26186157D01*
X171445166Y-26256274D01*
X171661571Y-26368818D01*
X171852544Y-26520258D01*
X172013424Y-26707059D01*
X172139553Y-26925690D01*
X172210108Y-27113674D01*
X172247208Y-27293620D01*
X172261118Y-27492499D01*
X172252211Y-27692210D01*
X172220860Y-27874655D01*
X172192551Y-27965400D01*
X172138503Y-28106385D01*
X172100129Y-28208258D01*
X172075550Y-28279580D01*
X172062885Y-28328910D01*
X172060254Y-28364805D01*
X172065777Y-28395826D01*
X172077573Y-28430532D01*
X172085498Y-28452694D01*
X172147113Y-28559537D01*
X172239613Y-28634407D01*
X172351410Y-28673197D01*
X172470912Y-28671798D01*
X172582226Y-28628768D01*
X172647451Y-28568272D01*
X172710439Y-28473089D01*
X172727039Y-28440283D01*
X172847216Y-28130443D01*
X172918575Y-27814979D01*
X172941463Y-27498138D01*
X172916226Y-27184164D01*
X172843209Y-26877301D01*
X172722760Y-26581795D01*
X172555223Y-26301890D01*
X172552313Y-26297775D01*
X172379417Y-26093105D01*
X172167990Y-25907202D01*
X171929046Y-25747608D01*
X171673598Y-25621863D01*
X171458895Y-25549126D01*
X171281861Y-25514990D01*
X171077241Y-25496598D01*
X170864252Y-25494217D01*
X170662112Y-25508112D01*
G36*
X170929300Y-25033226D02*
G01*
X170765442Y-25034430D01*
X170640728Y-25037581D01*
X170543507Y-25043929D01*
X170462127Y-25054723D01*
X170384938Y-25071213D01*
X170300288Y-25094649D01*
X170268900Y-25104068D01*
X169952080Y-25217770D01*
X169669775Y-25358375D01*
X169409761Y-25532888D01*
X169183272Y-25726074D01*
X168939009Y-25988665D01*
X168733214Y-26279056D01*
X168567834Y-26591842D01*
X168444816Y-26921616D01*
X168366107Y-27262972D01*
X168333654Y-27610503D01*
X168349404Y-27958803D01*
X168357296Y-28019675D01*
X168389964Y-28214858D01*
X168428483Y-28388366D01*
X168470719Y-28532850D01*
X168514538Y-28640962D01*
X168555877Y-28703476D01*
X168604836Y-28743609D01*
X168646841Y-28746170D01*
X168701504Y-28711328D01*
X168709667Y-28704786D01*
X168768962Y-28656772D01*
X168712219Y-28495236D01*
X168640671Y-28238591D01*
X168595082Y-27958886D01*
X168576981Y-27673907D01*
X168587897Y-27401445D01*
X168606495Y-27265214D01*
X168684481Y-26956064D01*
X168805477Y-26651816D01*
X168963752Y-26362982D01*
X169153576Y-26100076D01*
X169360897Y-25881173D01*
X169627688Y-25668441D01*
X169910464Y-25500249D01*
X170204998Y-25375886D01*
X170507062Y-25294642D01*
X170812430Y-25255803D01*
X171116875Y-25258660D01*
X171416168Y-25302500D01*
X171706084Y-25386612D01*
X171982394Y-25510285D01*
X172240872Y-25672808D01*
X172477291Y-25873468D01*
X172687423Y-26111556D01*
X172867042Y-26386358D01*
X172916171Y-26479500D01*
X173023259Y-26724831D01*
X173095716Y-26968153D01*
X173136306Y-27223151D01*
X173147791Y-27503512D01*
X173145287Y-27614545D01*
X173126624Y-27874585D01*
X173089036Y-28102640D01*
X173028920Y-28315158D01*
X172947427Y-28518159D01*
X172899996Y-28630811D01*
X172877819Y-28708451D01*
X172880110Y-28759687D01*
X172906087Y-28793127D01*
X172921531Y-28802706D01*
X172997442Y-28827254D01*
X173056603Y-28806344D01*
X173087413Y-28771850D01*
X173126239Y-28701646D01*
X173172928Y-28594397D01*
X173222989Y-28462333D01*
X173271932Y-28317683D01*
X173315266Y-28172678D01*
X173334968Y-28097667D01*
X173373749Y-27878234D01*
X173391655Y-27630377D01*
X173388904Y-27371886D01*
X173365715Y-27120552D01*
X173322303Y-26894163D01*
X173320155Y-26885900D01*
X173204259Y-26539274D01*
X173047513Y-26221150D01*
X172852215Y-25933856D01*
X172620661Y-25679721D01*
X172355146Y-25461072D01*
X172057967Y-25280239D01*
X171731421Y-25139549D01*
X171538900Y-25079791D01*
X171457166Y-25060613D01*
X171369969Y-25047183D01*
X171266516Y-25038677D01*
X171136016Y-25034269D01*
X170967677Y-25033135D01*
X170929300Y-25033226D01*
G37*
X170929300Y-25033226D02*
X170765442Y-25034430D01*
X170640728Y-25037581D01*
X170543507Y-25043929D01*
X170462127Y-25054723D01*
X170384938Y-25071213D01*
X170300288Y-25094649D01*
X170268900Y-25104068D01*
X169952080Y-25217770D01*
X169669775Y-25358375D01*
X169409761Y-25532888D01*
X169183272Y-25726074D01*
X168939009Y-25988665D01*
X168733214Y-26279056D01*
X168567834Y-26591842D01*
X168444816Y-26921616D01*
X168366107Y-27262972D01*
X168333654Y-27610503D01*
X168349404Y-27958803D01*
X168357296Y-28019675D01*
X168389964Y-28214858D01*
X168428483Y-28388366D01*
X168470719Y-28532850D01*
X168514538Y-28640962D01*
X168555877Y-28703476D01*
X168604836Y-28743609D01*
X168646841Y-28746170D01*
X168701504Y-28711328D01*
X168709667Y-28704786D01*
X168768962Y-28656772D01*
X168712219Y-28495236D01*
X168640671Y-28238591D01*
X168595082Y-27958886D01*
X168576981Y-27673907D01*
X168587897Y-27401445D01*
X168606495Y-27265214D01*
X168684481Y-26956064D01*
X168805477Y-26651816D01*
X168963752Y-26362982D01*
X169153576Y-26100076D01*
X169360897Y-25881173D01*
X169627688Y-25668441D01*
X169910464Y-25500249D01*
X170204998Y-25375886D01*
X170507062Y-25294642D01*
X170812430Y-25255803D01*
X171116875Y-25258660D01*
X171416168Y-25302500D01*
X171706084Y-25386612D01*
X171982394Y-25510285D01*
X172240872Y-25672808D01*
X172477291Y-25873468D01*
X172687423Y-26111556D01*
X172867042Y-26386358D01*
X172916171Y-26479500D01*
X173023259Y-26724831D01*
X173095716Y-26968153D01*
X173136306Y-27223151D01*
X173147791Y-27503512D01*
X173145287Y-27614545D01*
X173126624Y-27874585D01*
X173089036Y-28102640D01*
X173028920Y-28315158D01*
X172947427Y-28518159D01*
X172899996Y-28630811D01*
X172877819Y-28708451D01*
X172880110Y-28759687D01*
X172906087Y-28793127D01*
X172921531Y-28802706D01*
X172997442Y-28827254D01*
X173056603Y-28806344D01*
X173087413Y-28771850D01*
X173126239Y-28701646D01*
X173172928Y-28594397D01*
X173222989Y-28462333D01*
X173271932Y-28317683D01*
X173315266Y-28172678D01*
X173334968Y-28097667D01*
X173373749Y-27878234D01*
X173391655Y-27630377D01*
X173388904Y-27371886D01*
X173365715Y-27120552D01*
X173322303Y-26894163D01*
X173320155Y-26885900D01*
X173204259Y-26539274D01*
X173047513Y-26221150D01*
X172852215Y-25933856D01*
X172620661Y-25679721D01*
X172355146Y-25461072D01*
X172057967Y-25280239D01*
X171731421Y-25139549D01*
X171538900Y-25079791D01*
X171457166Y-25060613D01*
X171369969Y-25047183D01*
X171266516Y-25038677D01*
X171136016Y-25034269D01*
X170967677Y-25033135D01*
X170929300Y-25033226D01*
G36*
X174719905Y-25957509D02*
G01*
X174675028Y-25971772D01*
X174580474Y-26010551D01*
X174515669Y-26055552D01*
X174460497Y-26122699D01*
X174435177Y-26161627D01*
X174381371Y-26261679D01*
X174318582Y-26401507D01*
X174250087Y-26571590D01*
X174179165Y-26762408D01*
X174109094Y-26964437D01*
X174043152Y-27168156D01*
X173984616Y-27364045D01*
X173936766Y-27542581D01*
X173902878Y-27694244D01*
X173897632Y-27722995D01*
X173877869Y-27854478D01*
X173870928Y-27958533D01*
X173876214Y-28056728D01*
X173886382Y-28130500D01*
X173942373Y-28348665D01*
X174033560Y-28541640D01*
X174155101Y-28705389D01*
X174302154Y-28835876D01*
X174469875Y-28929066D01*
X174653422Y-28980926D01*
X174847952Y-28987419D01*
X174906137Y-28980175D01*
X175089721Y-28925866D01*
X175257975Y-28827997D01*
X175405268Y-28692876D01*
X175525968Y-28526809D01*
X175545402Y-28484919D01*
X175209200Y-28484919D01*
X175187193Y-28494903D01*
X175137519Y-28498800D01*
X175116646Y-28496815D01*
X175096172Y-28487793D01*
X175073256Y-28467128D01*
X175045060Y-28430215D01*
X175008743Y-28372450D01*
X174961465Y-28289229D01*
X174910024Y-28193819D01*
X174617406Y-28193819D01*
X174581620Y-28315171D01*
X174510989Y-28412327D01*
X174475194Y-28440770D01*
X174393746Y-28485263D01*
X174320115Y-28495498D01*
X174232977Y-28473117D01*
X174204271Y-28461656D01*
X174127821Y-28411469D01*
X174071331Y-28327135D01*
X174065945Y-28315606D01*
X174025784Y-28181978D01*
X174023984Y-28053838D01*
X174056653Y-27939489D01*
X174119901Y-27847233D01*
X174209836Y-27785372D01*
X174322567Y-27762211D01*
X174325296Y-27762200D01*
X174432194Y-27774351D01*
X174507124Y-27816866D01*
X174564249Y-27898837D01*
X174575802Y-27922999D01*
X174616187Y-28059388D01*
X174617406Y-28193819D01*
X174910024Y-28193819D01*
X174900387Y-28175946D01*
X174822668Y-28027997D01*
X174725469Y-27840778D01*
X174693019Y-27778068D01*
X174602234Y-27602085D01*
X174519437Y-27440663D01*
X174447407Y-27299296D01*
X174388924Y-27183477D01*
X174346770Y-27098700D01*
X174323724Y-27050457D01*
X174320200Y-27041468D01*
X174342151Y-27030066D01*
X174390050Y-27025985D01*
X174410574Y-27028384D01*
X174431133Y-27038405D01*
X174454551Y-27060638D01*
X174483652Y-27099674D01*
X174521258Y-27160104D01*
X174570194Y-27246518D01*
X174633283Y-27363507D01*
X174713347Y-27515662D01*
X174813212Y-27707574D01*
X174834550Y-27748705D01*
X174925637Y-27924740D01*
X175008728Y-28086126D01*
X175081044Y-28227399D01*
X175139804Y-28343098D01*
X175182227Y-28427757D01*
X175205534Y-28475913D01*
X175209200Y-28484919D01*
X175545402Y-28484919D01*
X175614445Y-28336102D01*
X175664543Y-28130822D01*
X175675216Y-28010371D01*
X175673038Y-27880928D01*
X175656812Y-27736538D01*
X175625345Y-27571248D01*
X175586766Y-27416497D01*
X175510597Y-27416497D01*
X175489535Y-27531579D01*
X175486404Y-27543066D01*
X175434643Y-27657141D01*
X175353942Y-27729535D01*
X175243654Y-27760760D01*
X175209200Y-27762200D01*
X175115881Y-27753338D01*
X175048563Y-27721855D01*
X175024324Y-27701687D01*
X174957621Y-27608314D01*
X174919592Y-27488565D01*
X174911436Y-27358795D01*
X174934355Y-27235361D01*
X174983251Y-27142298D01*
X175069116Y-27068987D01*
X175170017Y-27037219D01*
X175274216Y-27045370D01*
X175369972Y-27091814D01*
X175445546Y-27174925D01*
X175463456Y-27208793D01*
X175502473Y-27317199D01*
X175510597Y-27416497D01*
X175586766Y-27416497D01*
X175577443Y-27379103D01*
X175511912Y-27154149D01*
X175427557Y-26890433D01*
X175397907Y-26801395D01*
X175320818Y-26578069D01*
X175253251Y-26398756D01*
X175192065Y-26258269D01*
X175134119Y-26151426D01*
X175076273Y-26073041D01*
X175015384Y-26017931D01*
X174948312Y-25980909D01*
X174888735Y-25961003D01*
X174801413Y-25946429D01*
X174719905Y-25957509D01*
G37*
X174719905Y-25957509D02*
X174675028Y-25971772D01*
X174580474Y-26010551D01*
X174515669Y-26055552D01*
X174460497Y-26122699D01*
X174435177Y-26161627D01*
X174381371Y-26261679D01*
X174318582Y-26401507D01*
X174250087Y-26571590D01*
X174179165Y-26762408D01*
X174109094Y-26964437D01*
X174043152Y-27168156D01*
X173984616Y-27364045D01*
X173936766Y-27542581D01*
X173902878Y-27694244D01*
X173897632Y-27722995D01*
X173877869Y-27854478D01*
X173870928Y-27958533D01*
X173876214Y-28056728D01*
X173886382Y-28130500D01*
X173942373Y-28348665D01*
X174033560Y-28541640D01*
X174155101Y-28705389D01*
X174302154Y-28835876D01*
X174469875Y-28929066D01*
X174653422Y-28980926D01*
X174847952Y-28987419D01*
X174906137Y-28980175D01*
X175089721Y-28925866D01*
X175257975Y-28827997D01*
X175405268Y-28692876D01*
X175525968Y-28526809D01*
X175545402Y-28484919D01*
X175209200Y-28484919D01*
X175187193Y-28494903D01*
X175137519Y-28498800D01*
X175116646Y-28496815D01*
X175096172Y-28487793D01*
X175073256Y-28467128D01*
X175045060Y-28430215D01*
X175008743Y-28372450D01*
X174961465Y-28289229D01*
X174910024Y-28193819D01*
X174617406Y-28193819D01*
X174581620Y-28315171D01*
X174510989Y-28412327D01*
X174475194Y-28440770D01*
X174393746Y-28485263D01*
X174320115Y-28495498D01*
X174232977Y-28473117D01*
X174204271Y-28461656D01*
X174127821Y-28411469D01*
X174071331Y-28327135D01*
X174065945Y-28315606D01*
X174025784Y-28181978D01*
X174023984Y-28053838D01*
X174056653Y-27939489D01*
X174119901Y-27847233D01*
X174209836Y-27785372D01*
X174322567Y-27762211D01*
X174325296Y-27762200D01*
X174432194Y-27774351D01*
X174507124Y-27816866D01*
X174564249Y-27898837D01*
X174575802Y-27922999D01*
X174616187Y-28059388D01*
X174617406Y-28193819D01*
X174910024Y-28193819D01*
X174900387Y-28175946D01*
X174822668Y-28027997D01*
X174725469Y-27840778D01*
X174693019Y-27778068D01*
X174602234Y-27602085D01*
X174519437Y-27440663D01*
X174447407Y-27299296D01*
X174388924Y-27183477D01*
X174346770Y-27098700D01*
X174323724Y-27050457D01*
X174320200Y-27041468D01*
X174342151Y-27030066D01*
X174390050Y-27025985D01*
X174410574Y-27028384D01*
X174431133Y-27038405D01*
X174454551Y-27060638D01*
X174483652Y-27099674D01*
X174521258Y-27160104D01*
X174570194Y-27246518D01*
X174633283Y-27363507D01*
X174713347Y-27515662D01*
X174813212Y-27707574D01*
X174834550Y-27748705D01*
X174925637Y-27924740D01*
X175008728Y-28086126D01*
X175081044Y-28227399D01*
X175139804Y-28343098D01*
X175182227Y-28427757D01*
X175205534Y-28475913D01*
X175209200Y-28484919D01*
X175545402Y-28484919D01*
X175614445Y-28336102D01*
X175664543Y-28130822D01*
X175675216Y-28010371D01*
X175673038Y-27880928D01*
X175656812Y-27736538D01*
X175625345Y-27571248D01*
X175586766Y-27416497D01*
X175510597Y-27416497D01*
X175489535Y-27531579D01*
X175486404Y-27543066D01*
X175434643Y-27657141D01*
X175353942Y-27729535D01*
X175243654Y-27760760D01*
X175209200Y-27762200D01*
X175115881Y-27753338D01*
X175048563Y-27721855D01*
X175024324Y-27701687D01*
X174957621Y-27608314D01*
X174919592Y-27488565D01*
X174911436Y-27358795D01*
X174934355Y-27235361D01*
X174983251Y-27142298D01*
X175069116Y-27068987D01*
X175170017Y-27037219D01*
X175274216Y-27045370D01*
X175369972Y-27091814D01*
X175445546Y-27174925D01*
X175463456Y-27208793D01*
X175502473Y-27317199D01*
X175510597Y-27416497D01*
X175586766Y-27416497D01*
X175577443Y-27379103D01*
X175511912Y-27154149D01*
X175427557Y-26890433D01*
X175397907Y-26801395D01*
X175320818Y-26578069D01*
X175253251Y-26398756D01*
X175192065Y-26258269D01*
X175134119Y-26151426D01*
X175076273Y-26073041D01*
X175015384Y-26017931D01*
X174948312Y-25980909D01*
X174888735Y-25961003D01*
X174801413Y-25946429D01*
X174719905Y-25957509D01*
M02*
