G04 #@! TF.GenerationSoftware,KiCad,Pcbnew,(5.1.5)-3*
G04 #@! TF.CreationDate,2020-12-21T12:28:59+01:00*
G04 #@! TF.ProjectId,epimetheus_bme680,6570696d-6574-4686-9575-735f626d6536,rev?*
G04 #@! TF.SameCoordinates,Original*
G04 #@! TF.FileFunction,Copper,L1,Top*
G04 #@! TF.FilePolarity,Positive*
%FSLAX46Y46*%
G04 Gerber Fmt 4.6, Leading zero omitted, Abs format (unit mm)*
G04 Created by KiCad (PCBNEW (5.1.5)-3) date 2020-12-21 12:28:59*
%MOMM*%
%LPD*%
G04 APERTURE LIST*
%ADD10C,1.524000*%
%ADD11O,1.700000X1.700000*%
%ADD12R,1.700000X1.700000*%
%ADD13C,0.100000*%
%ADD14C,0.800000*%
%ADD15C,0.250000*%
%ADD16C,0.254000*%
G04 APERTURE END LIST*
D10*
X179070000Y-24130000D03*
X179070000Y-26670000D03*
X179070000Y-29210000D03*
X179070000Y-31750000D03*
X179070000Y-34290000D03*
X179070000Y-36830000D03*
D11*
X170942000Y-35306000D03*
D12*
X170942000Y-37846000D03*
G04 #@! TA.AperFunction,SMDPad,CuDef*
D13*
G36*
X165302405Y-24817445D02*
G01*
X165331527Y-24821764D01*
X165360085Y-24828918D01*
X165387805Y-24838836D01*
X165414419Y-24851424D01*
X165439671Y-24866559D01*
X165463318Y-24884097D01*
X165485132Y-24903868D01*
X165504903Y-24925682D01*
X165522441Y-24949329D01*
X165537576Y-24974581D01*
X165550164Y-25001195D01*
X165560082Y-25028915D01*
X165567236Y-25057473D01*
X165571555Y-25086595D01*
X165573000Y-25116000D01*
X165573000Y-27716000D01*
X165571555Y-27745405D01*
X165567236Y-27774527D01*
X165560082Y-27803085D01*
X165550164Y-27830805D01*
X165537576Y-27857419D01*
X165522441Y-27882671D01*
X165504903Y-27906318D01*
X165485132Y-27928132D01*
X165463318Y-27947903D01*
X165439671Y-27965441D01*
X165414419Y-27980576D01*
X165387805Y-27993164D01*
X165360085Y-28003082D01*
X165331527Y-28010236D01*
X165302405Y-28014555D01*
X165273000Y-28016000D01*
X164673000Y-28016000D01*
X164643595Y-28014555D01*
X164614473Y-28010236D01*
X164585915Y-28003082D01*
X164558195Y-27993164D01*
X164531581Y-27980576D01*
X164506329Y-27965441D01*
X164482682Y-27947903D01*
X164460868Y-27928132D01*
X164441097Y-27906318D01*
X164423559Y-27882671D01*
X164408424Y-27857419D01*
X164395836Y-27830805D01*
X164385918Y-27803085D01*
X164378764Y-27774527D01*
X164374445Y-27745405D01*
X164373000Y-27716000D01*
X164373000Y-25116000D01*
X164374445Y-25086595D01*
X164378764Y-25057473D01*
X164385918Y-25028915D01*
X164395836Y-25001195D01*
X164408424Y-24974581D01*
X164423559Y-24949329D01*
X164441097Y-24925682D01*
X164460868Y-24903868D01*
X164482682Y-24884097D01*
X164506329Y-24866559D01*
X164531581Y-24851424D01*
X164558195Y-24838836D01*
X164585915Y-24828918D01*
X164614473Y-24821764D01*
X164643595Y-24817445D01*
X164673000Y-24816000D01*
X165273000Y-24816000D01*
X165302405Y-24817445D01*
G37*
G04 #@! TD.AperFunction*
G04 #@! TA.AperFunction,SMDPad,CuDef*
G36*
X168302405Y-24817445D02*
G01*
X168331527Y-24821764D01*
X168360085Y-24828918D01*
X168387805Y-24838836D01*
X168414419Y-24851424D01*
X168439671Y-24866559D01*
X168463318Y-24884097D01*
X168485132Y-24903868D01*
X168504903Y-24925682D01*
X168522441Y-24949329D01*
X168537576Y-24974581D01*
X168550164Y-25001195D01*
X168560082Y-25028915D01*
X168567236Y-25057473D01*
X168571555Y-25086595D01*
X168573000Y-25116000D01*
X168573000Y-27716000D01*
X168571555Y-27745405D01*
X168567236Y-27774527D01*
X168560082Y-27803085D01*
X168550164Y-27830805D01*
X168537576Y-27857419D01*
X168522441Y-27882671D01*
X168504903Y-27906318D01*
X168485132Y-27928132D01*
X168463318Y-27947903D01*
X168439671Y-27965441D01*
X168414419Y-27980576D01*
X168387805Y-27993164D01*
X168360085Y-28003082D01*
X168331527Y-28010236D01*
X168302405Y-28014555D01*
X168273000Y-28016000D01*
X167673000Y-28016000D01*
X167643595Y-28014555D01*
X167614473Y-28010236D01*
X167585915Y-28003082D01*
X167558195Y-27993164D01*
X167531581Y-27980576D01*
X167506329Y-27965441D01*
X167482682Y-27947903D01*
X167460868Y-27928132D01*
X167441097Y-27906318D01*
X167423559Y-27882671D01*
X167408424Y-27857419D01*
X167395836Y-27830805D01*
X167385918Y-27803085D01*
X167378764Y-27774527D01*
X167374445Y-27745405D01*
X167373000Y-27716000D01*
X167373000Y-25116000D01*
X167374445Y-25086595D01*
X167378764Y-25057473D01*
X167385918Y-25028915D01*
X167395836Y-25001195D01*
X167408424Y-24974581D01*
X167423559Y-24949329D01*
X167441097Y-24925682D01*
X167460868Y-24903868D01*
X167482682Y-24884097D01*
X167506329Y-24866559D01*
X167531581Y-24851424D01*
X167558195Y-24838836D01*
X167585915Y-24828918D01*
X167614473Y-24821764D01*
X167643595Y-24817445D01*
X167673000Y-24816000D01*
X168273000Y-24816000D01*
X168302405Y-24817445D01*
G37*
G04 #@! TD.AperFunction*
G04 #@! TA.AperFunction,SMDPad,CuDef*
G36*
X172287405Y-24817445D02*
G01*
X172316527Y-24821764D01*
X172345085Y-24828918D01*
X172372805Y-24838836D01*
X172399419Y-24851424D01*
X172424671Y-24866559D01*
X172448318Y-24884097D01*
X172470132Y-24903868D01*
X172489903Y-24925682D01*
X172507441Y-24949329D01*
X172522576Y-24974581D01*
X172535164Y-25001195D01*
X172545082Y-25028915D01*
X172552236Y-25057473D01*
X172556555Y-25086595D01*
X172558000Y-25116000D01*
X172558000Y-27716000D01*
X172556555Y-27745405D01*
X172552236Y-27774527D01*
X172545082Y-27803085D01*
X172535164Y-27830805D01*
X172522576Y-27857419D01*
X172507441Y-27882671D01*
X172489903Y-27906318D01*
X172470132Y-27928132D01*
X172448318Y-27947903D01*
X172424671Y-27965441D01*
X172399419Y-27980576D01*
X172372805Y-27993164D01*
X172345085Y-28003082D01*
X172316527Y-28010236D01*
X172287405Y-28014555D01*
X172258000Y-28016000D01*
X171658000Y-28016000D01*
X171628595Y-28014555D01*
X171599473Y-28010236D01*
X171570915Y-28003082D01*
X171543195Y-27993164D01*
X171516581Y-27980576D01*
X171491329Y-27965441D01*
X171467682Y-27947903D01*
X171445868Y-27928132D01*
X171426097Y-27906318D01*
X171408559Y-27882671D01*
X171393424Y-27857419D01*
X171380836Y-27830805D01*
X171370918Y-27803085D01*
X171363764Y-27774527D01*
X171359445Y-27745405D01*
X171358000Y-27716000D01*
X171358000Y-25116000D01*
X171359445Y-25086595D01*
X171363764Y-25057473D01*
X171370918Y-25028915D01*
X171380836Y-25001195D01*
X171393424Y-24974581D01*
X171408559Y-24949329D01*
X171426097Y-24925682D01*
X171445868Y-24903868D01*
X171467682Y-24884097D01*
X171491329Y-24866559D01*
X171516581Y-24851424D01*
X171543195Y-24838836D01*
X171570915Y-24828918D01*
X171599473Y-24821764D01*
X171628595Y-24817445D01*
X171658000Y-24816000D01*
X172258000Y-24816000D01*
X172287405Y-24817445D01*
G37*
G04 #@! TD.AperFunction*
G04 #@! TA.AperFunction,SMDPad,CuDef*
G36*
X173402405Y-33961445D02*
G01*
X173431527Y-33965764D01*
X173460085Y-33972918D01*
X173487805Y-33982836D01*
X173514419Y-33995424D01*
X173539671Y-34010559D01*
X173563318Y-34028097D01*
X173585132Y-34047868D01*
X173604903Y-34069682D01*
X173622441Y-34093329D01*
X173637576Y-34118581D01*
X173650164Y-34145195D01*
X173660082Y-34172915D01*
X173667236Y-34201473D01*
X173671555Y-34230595D01*
X173673000Y-34260000D01*
X173673000Y-36860000D01*
X173671555Y-36889405D01*
X173667236Y-36918527D01*
X173660082Y-36947085D01*
X173650164Y-36974805D01*
X173637576Y-37001419D01*
X173622441Y-37026671D01*
X173604903Y-37050318D01*
X173585132Y-37072132D01*
X173563318Y-37091903D01*
X173539671Y-37109441D01*
X173514419Y-37124576D01*
X173487805Y-37137164D01*
X173460085Y-37147082D01*
X173431527Y-37154236D01*
X173402405Y-37158555D01*
X173373000Y-37160000D01*
X172773000Y-37160000D01*
X172743595Y-37158555D01*
X172714473Y-37154236D01*
X172685915Y-37147082D01*
X172658195Y-37137164D01*
X172631581Y-37124576D01*
X172606329Y-37109441D01*
X172582682Y-37091903D01*
X172560868Y-37072132D01*
X172541097Y-37050318D01*
X172523559Y-37026671D01*
X172508424Y-37001419D01*
X172495836Y-36974805D01*
X172485918Y-36947085D01*
X172478764Y-36918527D01*
X172474445Y-36889405D01*
X172473000Y-36860000D01*
X172473000Y-34260000D01*
X172474445Y-34230595D01*
X172478764Y-34201473D01*
X172485918Y-34172915D01*
X172495836Y-34145195D01*
X172508424Y-34118581D01*
X172523559Y-34093329D01*
X172541097Y-34069682D01*
X172560868Y-34047868D01*
X172582682Y-34028097D01*
X172606329Y-34010559D01*
X172631581Y-33995424D01*
X172658195Y-33982836D01*
X172685915Y-33972918D01*
X172714473Y-33965764D01*
X172743595Y-33961445D01*
X172773000Y-33960000D01*
X173373000Y-33960000D01*
X173402405Y-33961445D01*
G37*
G04 #@! TD.AperFunction*
D14*
X173482000Y-25146000D03*
D15*
X166370000Y-28956000D02*
X166624000Y-29210000D01*
X164973000Y-26416000D02*
X165573000Y-26416000D01*
X166624000Y-29210000D02*
X179070000Y-29210000D01*
X166370000Y-27213000D02*
X166370000Y-28956000D01*
X165573000Y-26416000D02*
X166370000Y-27213000D01*
X180340000Y-30480000D02*
X179070000Y-31750000D01*
X180340000Y-28448000D02*
X180340000Y-30480000D01*
X169898010Y-28341010D02*
X177398990Y-28341010D01*
X167973000Y-26416000D02*
X169898010Y-28341010D01*
X177398990Y-28341010D02*
X177800000Y-27940000D01*
X177800000Y-27940000D02*
X179832000Y-27940000D01*
X179832000Y-27940000D02*
X180340000Y-28448000D01*
X173228000Y-25146000D02*
X171958000Y-26416000D01*
X173482000Y-25146000D02*
X173228000Y-25146000D01*
D16*
G36*
X180442001Y-23866729D02*
G01*
X180413314Y-23722510D01*
X180308005Y-23468273D01*
X180155120Y-23239465D01*
X179960535Y-23044880D01*
X179731727Y-22891995D01*
X179477490Y-22786686D01*
X179207592Y-22733000D01*
X178932408Y-22733000D01*
X178662510Y-22786686D01*
X178408273Y-22891995D01*
X178179465Y-23044880D01*
X177984880Y-23239465D01*
X177831995Y-23468273D01*
X177726686Y-23722510D01*
X177673000Y-23992408D01*
X177673000Y-24267592D01*
X177726686Y-24537490D01*
X177831995Y-24791727D01*
X177984880Y-25020535D01*
X178179465Y-25215120D01*
X178408273Y-25368005D01*
X178485515Y-25400000D01*
X178408273Y-25431995D01*
X178179465Y-25584880D01*
X177984880Y-25779465D01*
X177831995Y-26008273D01*
X177726686Y-26262510D01*
X177673000Y-26532408D01*
X177673000Y-26807592D01*
X177726686Y-27077490D01*
X177768894Y-27179388D01*
X177762675Y-27180000D01*
X177762667Y-27180000D01*
X177651014Y-27190997D01*
X177507753Y-27234454D01*
X177375724Y-27305026D01*
X177259999Y-27399999D01*
X177236196Y-27429003D01*
X177084189Y-27581010D01*
X173196072Y-27581010D01*
X173196072Y-26252730D01*
X173286427Y-26162375D01*
X173380061Y-26181000D01*
X173583939Y-26181000D01*
X173783898Y-26141226D01*
X173972256Y-26063205D01*
X174141774Y-25949937D01*
X174285937Y-25805774D01*
X174399205Y-25636256D01*
X174477226Y-25447898D01*
X174517000Y-25247939D01*
X174517000Y-25044061D01*
X174477226Y-24844102D01*
X174399205Y-24655744D01*
X174285937Y-24486226D01*
X174141774Y-24342063D01*
X173972256Y-24228795D01*
X173783898Y-24150774D01*
X173583939Y-24111000D01*
X173380061Y-24111000D01*
X173180102Y-24150774D01*
X172991744Y-24228795D01*
X172822226Y-24342063D01*
X172806134Y-24358155D01*
X172779165Y-24336022D01*
X172616985Y-24249334D01*
X172441009Y-24195953D01*
X172258000Y-24177928D01*
X171658000Y-24177928D01*
X171474991Y-24195953D01*
X171299015Y-24249334D01*
X171136835Y-24336022D01*
X170994683Y-24452683D01*
X170878022Y-24594835D01*
X170791334Y-24757015D01*
X170737953Y-24932991D01*
X170719928Y-25116000D01*
X170719928Y-27581010D01*
X170212812Y-27581010D01*
X169211072Y-26579271D01*
X169211072Y-25116000D01*
X169193047Y-24932991D01*
X169139666Y-24757015D01*
X169052978Y-24594835D01*
X168936317Y-24452683D01*
X168794165Y-24336022D01*
X168631985Y-24249334D01*
X168456009Y-24195953D01*
X168273000Y-24177928D01*
X167673000Y-24177928D01*
X167489991Y-24195953D01*
X167314015Y-24249334D01*
X167151835Y-24336022D01*
X167009683Y-24452683D01*
X166893022Y-24594835D01*
X166806334Y-24757015D01*
X166752953Y-24932991D01*
X166734928Y-25116000D01*
X166734928Y-26503126D01*
X166211072Y-25979271D01*
X166211072Y-25116000D01*
X166193047Y-24932991D01*
X166139666Y-24757015D01*
X166052978Y-24594835D01*
X165936317Y-24452683D01*
X165794165Y-24336022D01*
X165631985Y-24249334D01*
X165456009Y-24195953D01*
X165273000Y-24177928D01*
X164673000Y-24177928D01*
X164489991Y-24195953D01*
X164314015Y-24249334D01*
X164151835Y-24336022D01*
X164009683Y-24452683D01*
X163893022Y-24594835D01*
X163806334Y-24757015D01*
X163752953Y-24932991D01*
X163734928Y-25116000D01*
X163734928Y-27716000D01*
X163752953Y-27899009D01*
X163806334Y-28074985D01*
X163893022Y-28237165D01*
X164009683Y-28379317D01*
X164151835Y-28495978D01*
X164314015Y-28582666D01*
X164489991Y-28636047D01*
X164673000Y-28654072D01*
X165273000Y-28654072D01*
X165456009Y-28636047D01*
X165610001Y-28589335D01*
X165610001Y-28918668D01*
X165606324Y-28956000D01*
X165610001Y-28993333D01*
X165620969Y-29104686D01*
X165620998Y-29104985D01*
X165664454Y-29248246D01*
X165735026Y-29380276D01*
X165806201Y-29467002D01*
X165830000Y-29496001D01*
X165858998Y-29519799D01*
X166060196Y-29720997D01*
X166083999Y-29750001D01*
X166199724Y-29844974D01*
X166331753Y-29915546D01*
X166475014Y-29959003D01*
X166586667Y-29970000D01*
X166586676Y-29970000D01*
X166623999Y-29973676D01*
X166661322Y-29970000D01*
X169432315Y-29970000D01*
X169297201Y-30105114D01*
X169145629Y-30331957D01*
X169041225Y-30584011D01*
X168988000Y-30851589D01*
X168988000Y-31124411D01*
X169041225Y-31391989D01*
X169145629Y-31644043D01*
X169297201Y-31870886D01*
X169490114Y-32063799D01*
X169716957Y-32215371D01*
X169969011Y-32319775D01*
X170236589Y-32373000D01*
X170509411Y-32373000D01*
X170776989Y-32319775D01*
X171029043Y-32215371D01*
X171255886Y-32063799D01*
X171448799Y-31870886D01*
X171600371Y-31644043D01*
X171704775Y-31391989D01*
X171758000Y-31124411D01*
X171758000Y-30851589D01*
X171704775Y-30584011D01*
X171600371Y-30331957D01*
X171448799Y-30105114D01*
X171313685Y-29970000D01*
X177897659Y-29970000D01*
X177984880Y-30100535D01*
X178179465Y-30295120D01*
X178408273Y-30448005D01*
X178485515Y-30480000D01*
X178408273Y-30511995D01*
X178179465Y-30664880D01*
X177984880Y-30859465D01*
X177831995Y-31088273D01*
X177726686Y-31342510D01*
X177673000Y-31612408D01*
X177673000Y-31887592D01*
X177726686Y-32157490D01*
X177831995Y-32411727D01*
X177984880Y-32640535D01*
X178179465Y-32835120D01*
X178408273Y-32988005D01*
X178479943Y-33017692D01*
X178466977Y-33022364D01*
X178351020Y-33084344D01*
X178284040Y-33324435D01*
X179070000Y-34110395D01*
X179855960Y-33324435D01*
X179788980Y-33084344D01*
X179653240Y-33020515D01*
X179731727Y-32988005D01*
X179960535Y-32835120D01*
X180155120Y-32640535D01*
X180308005Y-32411727D01*
X180413314Y-32157490D01*
X180442000Y-32013274D01*
X180442000Y-34019415D01*
X180430922Y-33945867D01*
X180337636Y-33686977D01*
X180275656Y-33571020D01*
X180035565Y-33504040D01*
X179249605Y-34290000D01*
X180035565Y-35075960D01*
X180275656Y-35008980D01*
X180392756Y-34759952D01*
X180442000Y-34561475D01*
X180442000Y-36566725D01*
X180413314Y-36422510D01*
X180308005Y-36168273D01*
X180155120Y-35939465D01*
X179960535Y-35744880D01*
X179731727Y-35591995D01*
X179660057Y-35562308D01*
X179673023Y-35557636D01*
X179788980Y-35495656D01*
X179855960Y-35255565D01*
X179070000Y-34469605D01*
X178284040Y-35255565D01*
X178351020Y-35495656D01*
X178486760Y-35559485D01*
X178408273Y-35591995D01*
X178179465Y-35744880D01*
X177984880Y-35939465D01*
X177831995Y-36168273D01*
X177726686Y-36422510D01*
X177673000Y-36692408D01*
X177673000Y-36967592D01*
X177726686Y-37237490D01*
X177831995Y-37491727D01*
X177984880Y-37720535D01*
X178179465Y-37915120D01*
X178408273Y-38068005D01*
X178662510Y-38173314D01*
X178806724Y-38202000D01*
X172430072Y-38202000D01*
X172430072Y-37793844D01*
X172473000Y-37798072D01*
X172787250Y-37795000D01*
X172946000Y-37636250D01*
X172946000Y-35687000D01*
X173200000Y-35687000D01*
X173200000Y-37636250D01*
X173358750Y-37795000D01*
X173673000Y-37798072D01*
X173797482Y-37785812D01*
X173917180Y-37749502D01*
X174027494Y-37690537D01*
X174124185Y-37611185D01*
X174203537Y-37514494D01*
X174262502Y-37404180D01*
X174298812Y-37284482D01*
X174311072Y-37160000D01*
X174308000Y-35845750D01*
X174149250Y-35687000D01*
X173200000Y-35687000D01*
X172946000Y-35687000D01*
X172926000Y-35687000D01*
X172926000Y-35433000D01*
X172946000Y-35433000D01*
X172946000Y-33483750D01*
X173200000Y-33483750D01*
X173200000Y-35433000D01*
X174149250Y-35433000D01*
X174308000Y-35274250D01*
X174310132Y-34362017D01*
X177668090Y-34362017D01*
X177709078Y-34634133D01*
X177802364Y-34893023D01*
X177864344Y-35008980D01*
X178104435Y-35075960D01*
X178890395Y-34290000D01*
X178104435Y-33504040D01*
X177864344Y-33571020D01*
X177747244Y-33820048D01*
X177680977Y-34087135D01*
X177668090Y-34362017D01*
X174310132Y-34362017D01*
X174311072Y-33960000D01*
X174298812Y-33835518D01*
X174262502Y-33715820D01*
X174203537Y-33605506D01*
X174124185Y-33508815D01*
X174027494Y-33429463D01*
X173917180Y-33370498D01*
X173797482Y-33334188D01*
X173673000Y-33321928D01*
X173358750Y-33325000D01*
X173200000Y-33483750D01*
X172946000Y-33483750D01*
X172787250Y-33325000D01*
X172473000Y-33321928D01*
X172348518Y-33334188D01*
X172228820Y-33370498D01*
X172118506Y-33429463D01*
X172021815Y-33508815D01*
X171942463Y-33605506D01*
X171883498Y-33715820D01*
X171847188Y-33835518D01*
X171834928Y-33960000D01*
X171835306Y-34121594D01*
X171823355Y-34110822D01*
X171573252Y-33961843D01*
X171298891Y-33864519D01*
X171069000Y-33985186D01*
X171069000Y-35179000D01*
X171089000Y-35179000D01*
X171089000Y-35433000D01*
X171069000Y-35433000D01*
X171069000Y-35453000D01*
X170815000Y-35453000D01*
X170815000Y-35433000D01*
X169621845Y-35433000D01*
X169500524Y-35662890D01*
X169545175Y-35810099D01*
X169670359Y-36072920D01*
X169844412Y-36306269D01*
X169928466Y-36382034D01*
X169847820Y-36406498D01*
X169737506Y-36465463D01*
X169640815Y-36544815D01*
X169561463Y-36641506D01*
X169502498Y-36751820D01*
X169466188Y-36871518D01*
X169453928Y-36996000D01*
X169453928Y-38202000D01*
X162458000Y-38202000D01*
X162458000Y-34949110D01*
X169500524Y-34949110D01*
X169621845Y-35179000D01*
X170815000Y-35179000D01*
X170815000Y-33985186D01*
X170585109Y-33864519D01*
X170310748Y-33961843D01*
X170060645Y-34110822D01*
X169844412Y-34305731D01*
X169670359Y-34539080D01*
X169545175Y-34801901D01*
X169500524Y-34949110D01*
X162458000Y-34949110D01*
X162458000Y-32031685D01*
X162490114Y-32063799D01*
X162716957Y-32215371D01*
X162969011Y-32319775D01*
X163236589Y-32373000D01*
X163509411Y-32373000D01*
X163776989Y-32319775D01*
X164029043Y-32215371D01*
X164255886Y-32063799D01*
X164448799Y-31870886D01*
X164600371Y-31644043D01*
X164704775Y-31391989D01*
X164758000Y-31124411D01*
X164758000Y-30851589D01*
X164704775Y-30584011D01*
X164600371Y-30331957D01*
X164448799Y-30105114D01*
X164255886Y-29912201D01*
X164029043Y-29760629D01*
X163776989Y-29656225D01*
X163509411Y-29603000D01*
X163236589Y-29603000D01*
X162969011Y-29656225D01*
X162716957Y-29760629D01*
X162490114Y-29912201D01*
X162458000Y-29944315D01*
X162458000Y-22250000D01*
X180442001Y-22250000D01*
X180442001Y-23866729D01*
G37*
X180442001Y-23866729D02*
X180413314Y-23722510D01*
X180308005Y-23468273D01*
X180155120Y-23239465D01*
X179960535Y-23044880D01*
X179731727Y-22891995D01*
X179477490Y-22786686D01*
X179207592Y-22733000D01*
X178932408Y-22733000D01*
X178662510Y-22786686D01*
X178408273Y-22891995D01*
X178179465Y-23044880D01*
X177984880Y-23239465D01*
X177831995Y-23468273D01*
X177726686Y-23722510D01*
X177673000Y-23992408D01*
X177673000Y-24267592D01*
X177726686Y-24537490D01*
X177831995Y-24791727D01*
X177984880Y-25020535D01*
X178179465Y-25215120D01*
X178408273Y-25368005D01*
X178485515Y-25400000D01*
X178408273Y-25431995D01*
X178179465Y-25584880D01*
X177984880Y-25779465D01*
X177831995Y-26008273D01*
X177726686Y-26262510D01*
X177673000Y-26532408D01*
X177673000Y-26807592D01*
X177726686Y-27077490D01*
X177768894Y-27179388D01*
X177762675Y-27180000D01*
X177762667Y-27180000D01*
X177651014Y-27190997D01*
X177507753Y-27234454D01*
X177375724Y-27305026D01*
X177259999Y-27399999D01*
X177236196Y-27429003D01*
X177084189Y-27581010D01*
X173196072Y-27581010D01*
X173196072Y-26252730D01*
X173286427Y-26162375D01*
X173380061Y-26181000D01*
X173583939Y-26181000D01*
X173783898Y-26141226D01*
X173972256Y-26063205D01*
X174141774Y-25949937D01*
X174285937Y-25805774D01*
X174399205Y-25636256D01*
X174477226Y-25447898D01*
X174517000Y-25247939D01*
X174517000Y-25044061D01*
X174477226Y-24844102D01*
X174399205Y-24655744D01*
X174285937Y-24486226D01*
X174141774Y-24342063D01*
X173972256Y-24228795D01*
X173783898Y-24150774D01*
X173583939Y-24111000D01*
X173380061Y-24111000D01*
X173180102Y-24150774D01*
X172991744Y-24228795D01*
X172822226Y-24342063D01*
X172806134Y-24358155D01*
X172779165Y-24336022D01*
X172616985Y-24249334D01*
X172441009Y-24195953D01*
X172258000Y-24177928D01*
X171658000Y-24177928D01*
X171474991Y-24195953D01*
X171299015Y-24249334D01*
X171136835Y-24336022D01*
X170994683Y-24452683D01*
X170878022Y-24594835D01*
X170791334Y-24757015D01*
X170737953Y-24932991D01*
X170719928Y-25116000D01*
X170719928Y-27581010D01*
X170212812Y-27581010D01*
X169211072Y-26579271D01*
X169211072Y-25116000D01*
X169193047Y-24932991D01*
X169139666Y-24757015D01*
X169052978Y-24594835D01*
X168936317Y-24452683D01*
X168794165Y-24336022D01*
X168631985Y-24249334D01*
X168456009Y-24195953D01*
X168273000Y-24177928D01*
X167673000Y-24177928D01*
X167489991Y-24195953D01*
X167314015Y-24249334D01*
X167151835Y-24336022D01*
X167009683Y-24452683D01*
X166893022Y-24594835D01*
X166806334Y-24757015D01*
X166752953Y-24932991D01*
X166734928Y-25116000D01*
X166734928Y-26503126D01*
X166211072Y-25979271D01*
X166211072Y-25116000D01*
X166193047Y-24932991D01*
X166139666Y-24757015D01*
X166052978Y-24594835D01*
X165936317Y-24452683D01*
X165794165Y-24336022D01*
X165631985Y-24249334D01*
X165456009Y-24195953D01*
X165273000Y-24177928D01*
X164673000Y-24177928D01*
X164489991Y-24195953D01*
X164314015Y-24249334D01*
X164151835Y-24336022D01*
X164009683Y-24452683D01*
X163893022Y-24594835D01*
X163806334Y-24757015D01*
X163752953Y-24932991D01*
X163734928Y-25116000D01*
X163734928Y-27716000D01*
X163752953Y-27899009D01*
X163806334Y-28074985D01*
X163893022Y-28237165D01*
X164009683Y-28379317D01*
X164151835Y-28495978D01*
X164314015Y-28582666D01*
X164489991Y-28636047D01*
X164673000Y-28654072D01*
X165273000Y-28654072D01*
X165456009Y-28636047D01*
X165610001Y-28589335D01*
X165610001Y-28918668D01*
X165606324Y-28956000D01*
X165610001Y-28993333D01*
X165620969Y-29104686D01*
X165620998Y-29104985D01*
X165664454Y-29248246D01*
X165735026Y-29380276D01*
X165806201Y-29467002D01*
X165830000Y-29496001D01*
X165858998Y-29519799D01*
X166060196Y-29720997D01*
X166083999Y-29750001D01*
X166199724Y-29844974D01*
X166331753Y-29915546D01*
X166475014Y-29959003D01*
X166586667Y-29970000D01*
X166586676Y-29970000D01*
X166623999Y-29973676D01*
X166661322Y-29970000D01*
X169432315Y-29970000D01*
X169297201Y-30105114D01*
X169145629Y-30331957D01*
X169041225Y-30584011D01*
X168988000Y-30851589D01*
X168988000Y-31124411D01*
X169041225Y-31391989D01*
X169145629Y-31644043D01*
X169297201Y-31870886D01*
X169490114Y-32063799D01*
X169716957Y-32215371D01*
X169969011Y-32319775D01*
X170236589Y-32373000D01*
X170509411Y-32373000D01*
X170776989Y-32319775D01*
X171029043Y-32215371D01*
X171255886Y-32063799D01*
X171448799Y-31870886D01*
X171600371Y-31644043D01*
X171704775Y-31391989D01*
X171758000Y-31124411D01*
X171758000Y-30851589D01*
X171704775Y-30584011D01*
X171600371Y-30331957D01*
X171448799Y-30105114D01*
X171313685Y-29970000D01*
X177897659Y-29970000D01*
X177984880Y-30100535D01*
X178179465Y-30295120D01*
X178408273Y-30448005D01*
X178485515Y-30480000D01*
X178408273Y-30511995D01*
X178179465Y-30664880D01*
X177984880Y-30859465D01*
X177831995Y-31088273D01*
X177726686Y-31342510D01*
X177673000Y-31612408D01*
X177673000Y-31887592D01*
X177726686Y-32157490D01*
X177831995Y-32411727D01*
X177984880Y-32640535D01*
X178179465Y-32835120D01*
X178408273Y-32988005D01*
X178479943Y-33017692D01*
X178466977Y-33022364D01*
X178351020Y-33084344D01*
X178284040Y-33324435D01*
X179070000Y-34110395D01*
X179855960Y-33324435D01*
X179788980Y-33084344D01*
X179653240Y-33020515D01*
X179731727Y-32988005D01*
X179960535Y-32835120D01*
X180155120Y-32640535D01*
X180308005Y-32411727D01*
X180413314Y-32157490D01*
X180442000Y-32013274D01*
X180442000Y-34019415D01*
X180430922Y-33945867D01*
X180337636Y-33686977D01*
X180275656Y-33571020D01*
X180035565Y-33504040D01*
X179249605Y-34290000D01*
X180035565Y-35075960D01*
X180275656Y-35008980D01*
X180392756Y-34759952D01*
X180442000Y-34561475D01*
X180442000Y-36566725D01*
X180413314Y-36422510D01*
X180308005Y-36168273D01*
X180155120Y-35939465D01*
X179960535Y-35744880D01*
X179731727Y-35591995D01*
X179660057Y-35562308D01*
X179673023Y-35557636D01*
X179788980Y-35495656D01*
X179855960Y-35255565D01*
X179070000Y-34469605D01*
X178284040Y-35255565D01*
X178351020Y-35495656D01*
X178486760Y-35559485D01*
X178408273Y-35591995D01*
X178179465Y-35744880D01*
X177984880Y-35939465D01*
X177831995Y-36168273D01*
X177726686Y-36422510D01*
X177673000Y-36692408D01*
X177673000Y-36967592D01*
X177726686Y-37237490D01*
X177831995Y-37491727D01*
X177984880Y-37720535D01*
X178179465Y-37915120D01*
X178408273Y-38068005D01*
X178662510Y-38173314D01*
X178806724Y-38202000D01*
X172430072Y-38202000D01*
X172430072Y-37793844D01*
X172473000Y-37798072D01*
X172787250Y-37795000D01*
X172946000Y-37636250D01*
X172946000Y-35687000D01*
X173200000Y-35687000D01*
X173200000Y-37636250D01*
X173358750Y-37795000D01*
X173673000Y-37798072D01*
X173797482Y-37785812D01*
X173917180Y-37749502D01*
X174027494Y-37690537D01*
X174124185Y-37611185D01*
X174203537Y-37514494D01*
X174262502Y-37404180D01*
X174298812Y-37284482D01*
X174311072Y-37160000D01*
X174308000Y-35845750D01*
X174149250Y-35687000D01*
X173200000Y-35687000D01*
X172946000Y-35687000D01*
X172926000Y-35687000D01*
X172926000Y-35433000D01*
X172946000Y-35433000D01*
X172946000Y-33483750D01*
X173200000Y-33483750D01*
X173200000Y-35433000D01*
X174149250Y-35433000D01*
X174308000Y-35274250D01*
X174310132Y-34362017D01*
X177668090Y-34362017D01*
X177709078Y-34634133D01*
X177802364Y-34893023D01*
X177864344Y-35008980D01*
X178104435Y-35075960D01*
X178890395Y-34290000D01*
X178104435Y-33504040D01*
X177864344Y-33571020D01*
X177747244Y-33820048D01*
X177680977Y-34087135D01*
X177668090Y-34362017D01*
X174310132Y-34362017D01*
X174311072Y-33960000D01*
X174298812Y-33835518D01*
X174262502Y-33715820D01*
X174203537Y-33605506D01*
X174124185Y-33508815D01*
X174027494Y-33429463D01*
X173917180Y-33370498D01*
X173797482Y-33334188D01*
X173673000Y-33321928D01*
X173358750Y-33325000D01*
X173200000Y-33483750D01*
X172946000Y-33483750D01*
X172787250Y-33325000D01*
X172473000Y-33321928D01*
X172348518Y-33334188D01*
X172228820Y-33370498D01*
X172118506Y-33429463D01*
X172021815Y-33508815D01*
X171942463Y-33605506D01*
X171883498Y-33715820D01*
X171847188Y-33835518D01*
X171834928Y-33960000D01*
X171835306Y-34121594D01*
X171823355Y-34110822D01*
X171573252Y-33961843D01*
X171298891Y-33864519D01*
X171069000Y-33985186D01*
X171069000Y-35179000D01*
X171089000Y-35179000D01*
X171089000Y-35433000D01*
X171069000Y-35433000D01*
X171069000Y-35453000D01*
X170815000Y-35453000D01*
X170815000Y-35433000D01*
X169621845Y-35433000D01*
X169500524Y-35662890D01*
X169545175Y-35810099D01*
X169670359Y-36072920D01*
X169844412Y-36306269D01*
X169928466Y-36382034D01*
X169847820Y-36406498D01*
X169737506Y-36465463D01*
X169640815Y-36544815D01*
X169561463Y-36641506D01*
X169502498Y-36751820D01*
X169466188Y-36871518D01*
X169453928Y-36996000D01*
X169453928Y-38202000D01*
X162458000Y-38202000D01*
X162458000Y-34949110D01*
X169500524Y-34949110D01*
X169621845Y-35179000D01*
X170815000Y-35179000D01*
X170815000Y-33985186D01*
X170585109Y-33864519D01*
X170310748Y-33961843D01*
X170060645Y-34110822D01*
X169844412Y-34305731D01*
X169670359Y-34539080D01*
X169545175Y-34801901D01*
X169500524Y-34949110D01*
X162458000Y-34949110D01*
X162458000Y-32031685D01*
X162490114Y-32063799D01*
X162716957Y-32215371D01*
X162969011Y-32319775D01*
X163236589Y-32373000D01*
X163509411Y-32373000D01*
X163776989Y-32319775D01*
X164029043Y-32215371D01*
X164255886Y-32063799D01*
X164448799Y-31870886D01*
X164600371Y-31644043D01*
X164704775Y-31391989D01*
X164758000Y-31124411D01*
X164758000Y-30851589D01*
X164704775Y-30584011D01*
X164600371Y-30331957D01*
X164448799Y-30105114D01*
X164255886Y-29912201D01*
X164029043Y-29760629D01*
X163776989Y-29656225D01*
X163509411Y-29603000D01*
X163236589Y-29603000D01*
X162969011Y-29656225D01*
X162716957Y-29760629D01*
X162490114Y-29912201D01*
X162458000Y-29944315D01*
X162458000Y-22250000D01*
X180442001Y-22250000D01*
X180442001Y-23866729D01*
M02*
