G04 #@! TF.GenerationSoftware,KiCad,Pcbnew,(5.1.5)-3*
G04 #@! TF.CreationDate,2020-12-21T12:30:09+01:00*
G04 #@! TF.ProjectId,epimetheus_bmp180,6570696d-6574-4686-9575-735f626d7031,rev?*
G04 #@! TF.SameCoordinates,Original*
G04 #@! TF.FileFunction,Legend,Bot*
G04 #@! TF.FilePolarity,Positive*
%FSLAX46Y46*%
G04 Gerber Fmt 4.6, Leading zero omitted, Abs format (unit mm)*
G04 Created by KiCad (PCBNEW (5.1.5)-3) date 2020-12-21 12:30:09*
%MOMM*%
%LPD*%
G04 APERTURE LIST*
%ADD10C,0.150000*%
%ADD11C,0.010000*%
G04 APERTURE END LIST*
D10*
X174124761Y-23328380D02*
X174029523Y-23328380D01*
X173934285Y-23376000D01*
X173886666Y-23423619D01*
X173839047Y-23518857D01*
X173791428Y-23709333D01*
X173791428Y-23947428D01*
X173839047Y-24137904D01*
X173886666Y-24233142D01*
X173934285Y-24280761D01*
X174029523Y-24328380D01*
X174124761Y-24328380D01*
X174220000Y-24280761D01*
X174267619Y-24233142D01*
X174315238Y-24137904D01*
X174362857Y-23947428D01*
X174362857Y-23709333D01*
X174315238Y-23518857D01*
X174267619Y-23423619D01*
X174220000Y-23376000D01*
X174124761Y-23328380D01*
X173458095Y-24328380D02*
X172934285Y-23661714D01*
X173458095Y-23661714D02*
X172934285Y-24328380D01*
X172648571Y-23328380D02*
X171981904Y-23328380D01*
X172410476Y-24328380D01*
X171696190Y-23328380D02*
X171029523Y-23328380D01*
X171458095Y-24328380D01*
X180228571Y-23804571D02*
X180085714Y-23852190D01*
X180038095Y-23899809D01*
X179990476Y-23995047D01*
X179990476Y-24137904D01*
X180038095Y-24233142D01*
X180085714Y-24280761D01*
X180180952Y-24328380D01*
X180561904Y-24328380D01*
X180561904Y-23328380D01*
X180228571Y-23328380D01*
X180133333Y-23376000D01*
X180085714Y-23423619D01*
X180038095Y-23518857D01*
X180038095Y-23614095D01*
X180085714Y-23709333D01*
X180133333Y-23756952D01*
X180228571Y-23804571D01*
X180561904Y-23804571D01*
X179561904Y-24328380D02*
X179561904Y-23328380D01*
X179228571Y-24042666D01*
X178895238Y-23328380D01*
X178895238Y-24328380D01*
X178419047Y-24328380D02*
X178419047Y-23328380D01*
X178038095Y-23328380D01*
X177942857Y-23376000D01*
X177895238Y-23423619D01*
X177847619Y-23518857D01*
X177847619Y-23661714D01*
X177895238Y-23756952D01*
X177942857Y-23804571D01*
X178038095Y-23852190D01*
X178419047Y-23852190D01*
X176895238Y-24328380D02*
X177466666Y-24328380D01*
X177180952Y-24328380D02*
X177180952Y-23328380D01*
X177276190Y-23471238D01*
X177371428Y-23566476D01*
X177466666Y-23614095D01*
X176323809Y-23756952D02*
X176419047Y-23709333D01*
X176466666Y-23661714D01*
X176514285Y-23566476D01*
X176514285Y-23518857D01*
X176466666Y-23423619D01*
X176419047Y-23376000D01*
X176323809Y-23328380D01*
X176133333Y-23328380D01*
X176038095Y-23376000D01*
X175990476Y-23423619D01*
X175942857Y-23518857D01*
X175942857Y-23566476D01*
X175990476Y-23661714D01*
X176038095Y-23709333D01*
X176133333Y-23756952D01*
X176323809Y-23756952D01*
X176419047Y-23804571D01*
X176466666Y-23852190D01*
X176514285Y-23947428D01*
X176514285Y-24137904D01*
X176466666Y-24233142D01*
X176419047Y-24280761D01*
X176323809Y-24328380D01*
X176133333Y-24328380D01*
X176038095Y-24280761D01*
X175990476Y-24233142D01*
X175942857Y-24137904D01*
X175942857Y-23947428D01*
X175990476Y-23852190D01*
X176038095Y-23804571D01*
X176133333Y-23756952D01*
X175323809Y-23328380D02*
X175228571Y-23328380D01*
X175133333Y-23376000D01*
X175085714Y-23423619D01*
X175038095Y-23518857D01*
X174990476Y-23709333D01*
X174990476Y-23947428D01*
X175038095Y-24137904D01*
X175085714Y-24233142D01*
X175133333Y-24280761D01*
X175228571Y-24328380D01*
X175323809Y-24328380D01*
X175419047Y-24280761D01*
X175466666Y-24233142D01*
X175514285Y-24137904D01*
X175561904Y-23947428D01*
X175561904Y-23709333D01*
X175514285Y-23518857D01*
X175466666Y-23423619D01*
X175419047Y-23376000D01*
X175323809Y-23328380D01*
D11*
G36*
X176117278Y-26577198D02*
G01*
X176098200Y-26593799D01*
X176082297Y-26612269D01*
X176070104Y-26636136D01*
X176061132Y-26671851D01*
X176054888Y-26725867D01*
X176050884Y-26804635D01*
X176048629Y-26914607D01*
X176047631Y-27062237D01*
X176047401Y-27253974D01*
X176047400Y-27262010D01*
X176047400Y-27879420D01*
X175936925Y-27957291D01*
X175824498Y-28063343D01*
X175752829Y-28187894D01*
X175719801Y-28322851D01*
X175723301Y-28460125D01*
X175761212Y-28591623D01*
X175831421Y-28709255D01*
X175931812Y-28804930D01*
X176060270Y-28870557D01*
X176182301Y-28896030D01*
X176278653Y-28893142D01*
X176375008Y-28873409D01*
X176386359Y-28869500D01*
X176516676Y-28797094D01*
X176614212Y-28694390D01*
X176678428Y-28570347D01*
X176708782Y-28433925D01*
X176704735Y-28294084D01*
X176665746Y-28159783D01*
X176591274Y-28039984D01*
X176480781Y-27943645D01*
X176443488Y-27922185D01*
X176369676Y-27883797D01*
X176386614Y-27280675D01*
X176391804Y-27090163D01*
X176395067Y-26943716D01*
X176396043Y-26834624D01*
X176394373Y-26756176D01*
X176389697Y-26701663D01*
X176381653Y-26664373D01*
X176369883Y-26637596D01*
X176354026Y-26614622D01*
X176350633Y-26610276D01*
X176279967Y-26555999D01*
X176196981Y-26544634D01*
X176117278Y-26577198D01*
G37*
X176117278Y-26577198D02*
X176098200Y-26593799D01*
X176082297Y-26612269D01*
X176070104Y-26636136D01*
X176061132Y-26671851D01*
X176054888Y-26725867D01*
X176050884Y-26804635D01*
X176048629Y-26914607D01*
X176047631Y-27062237D01*
X176047401Y-27253974D01*
X176047400Y-27262010D01*
X176047400Y-27879420D01*
X175936925Y-27957291D01*
X175824498Y-28063343D01*
X175752829Y-28187894D01*
X175719801Y-28322851D01*
X175723301Y-28460125D01*
X175761212Y-28591623D01*
X175831421Y-28709255D01*
X175931812Y-28804930D01*
X176060270Y-28870557D01*
X176182301Y-28896030D01*
X176278653Y-28893142D01*
X176375008Y-28873409D01*
X176386359Y-28869500D01*
X176516676Y-28797094D01*
X176614212Y-28694390D01*
X176678428Y-28570347D01*
X176708782Y-28433925D01*
X176704735Y-28294084D01*
X176665746Y-28159783D01*
X176591274Y-28039984D01*
X176480781Y-27943645D01*
X176443488Y-27922185D01*
X176369676Y-27883797D01*
X176386614Y-27280675D01*
X176391804Y-27090163D01*
X176395067Y-26943716D01*
X176396043Y-26834624D01*
X176394373Y-26756176D01*
X176389697Y-26701663D01*
X176381653Y-26664373D01*
X176369883Y-26637596D01*
X176354026Y-26614622D01*
X176350633Y-26610276D01*
X176279967Y-26555999D01*
X176196981Y-26544634D01*
X176117278Y-26577198D01*
G36*
X175218186Y-24935571D02*
G01*
X175128361Y-24988908D01*
X175071388Y-25069980D01*
X175049980Y-25165727D01*
X175066854Y-25263089D01*
X175124722Y-25349005D01*
X175131047Y-25354854D01*
X175225515Y-25412321D01*
X175325585Y-25419552D01*
X175418112Y-25385806D01*
X175495629Y-25320742D01*
X175534190Y-25238941D01*
X175537816Y-25157694D01*
X175455403Y-25157694D01*
X175443816Y-25230191D01*
X175396339Y-25293711D01*
X175361179Y-25316535D01*
X175305889Y-25341869D01*
X175268575Y-25342785D01*
X175225323Y-25316320D01*
X175199926Y-25296556D01*
X175145618Y-25228512D01*
X175133782Y-25154088D01*
X175159789Y-25085937D01*
X175219011Y-25036711D01*
X175301452Y-25019000D01*
X175381558Y-25038832D01*
X175433762Y-25089486D01*
X175455403Y-25157694D01*
X175537816Y-25157694D01*
X175538151Y-25150211D01*
X175511868Y-25064362D01*
X175459697Y-24991203D01*
X175385992Y-24940544D01*
X175295111Y-24922193D01*
X175218186Y-24935571D01*
G37*
X175218186Y-24935571D02*
X175128361Y-24988908D01*
X175071388Y-25069980D01*
X175049980Y-25165727D01*
X175066854Y-25263089D01*
X175124722Y-25349005D01*
X175131047Y-25354854D01*
X175225515Y-25412321D01*
X175325585Y-25419552D01*
X175418112Y-25385806D01*
X175495629Y-25320742D01*
X175534190Y-25238941D01*
X175537816Y-25157694D01*
X175455403Y-25157694D01*
X175443816Y-25230191D01*
X175396339Y-25293711D01*
X175361179Y-25316535D01*
X175305889Y-25341869D01*
X175268575Y-25342785D01*
X175225323Y-25316320D01*
X175199926Y-25296556D01*
X175145618Y-25228512D01*
X175133782Y-25154088D01*
X175159789Y-25085937D01*
X175219011Y-25036711D01*
X175301452Y-25019000D01*
X175381558Y-25038832D01*
X175433762Y-25089486D01*
X175455403Y-25157694D01*
X175537816Y-25157694D01*
X175538151Y-25150211D01*
X175511868Y-25064362D01*
X175459697Y-24991203D01*
X175385992Y-24940544D01*
X175295111Y-24922193D01*
X175218186Y-24935571D01*
G36*
X170184088Y-25216129D02*
G01*
X170129903Y-25366512D01*
X170082147Y-25500688D01*
X170043377Y-25611341D01*
X170016146Y-25691156D01*
X170003011Y-25732820D01*
X170002200Y-25736829D01*
X170023818Y-25751364D01*
X170060776Y-25755600D01*
X170097238Y-25747209D01*
X170126685Y-25714969D01*
X170157151Y-25648279D01*
X170171433Y-25609550D01*
X170223515Y-25463500D01*
X170680535Y-25448992D01*
X170736432Y-25602296D01*
X170770425Y-25687553D01*
X170799010Y-25734363D01*
X170830226Y-25753267D01*
X170853338Y-25755600D01*
X170891366Y-25752762D01*
X170902377Y-25735106D01*
X170890224Y-25688918D01*
X170880087Y-25660350D01*
X170855839Y-25593532D01*
X170820056Y-25495681D01*
X170776330Y-25376538D01*
X170762346Y-25338523D01*
X170637200Y-25338523D01*
X170613874Y-25343631D01*
X170552179Y-25347408D01*
X170464543Y-25349154D01*
X170447071Y-25349200D01*
X170256942Y-25349200D01*
X170303846Y-25228550D01*
X170340718Y-25129448D01*
X170379882Y-25017939D01*
X170395175Y-24972268D01*
X170422252Y-24902725D01*
X170446654Y-24862209D01*
X170459848Y-24857968D01*
X170474596Y-24887499D01*
X170500967Y-24951893D01*
X170534096Y-25037963D01*
X170569115Y-25132524D01*
X170601159Y-25222390D01*
X170625361Y-25294374D01*
X170636855Y-25335290D01*
X170637200Y-25338523D01*
X170762346Y-25338523D01*
X170728252Y-25245847D01*
X170679414Y-25113350D01*
X170633407Y-24988789D01*
X170593823Y-24881907D01*
X170564252Y-24802447D01*
X170548286Y-24760151D01*
X170547698Y-24758650D01*
X170506867Y-24722511D01*
X170448070Y-24714200D01*
X170365975Y-24714200D01*
X170184088Y-25216129D01*
G37*
X170184088Y-25216129D02*
X170129903Y-25366512D01*
X170082147Y-25500688D01*
X170043377Y-25611341D01*
X170016146Y-25691156D01*
X170003011Y-25732820D01*
X170002200Y-25736829D01*
X170023818Y-25751364D01*
X170060776Y-25755600D01*
X170097238Y-25747209D01*
X170126685Y-25714969D01*
X170157151Y-25648279D01*
X170171433Y-25609550D01*
X170223515Y-25463500D01*
X170680535Y-25448992D01*
X170736432Y-25602296D01*
X170770425Y-25687553D01*
X170799010Y-25734363D01*
X170830226Y-25753267D01*
X170853338Y-25755600D01*
X170891366Y-25752762D01*
X170902377Y-25735106D01*
X170890224Y-25688918D01*
X170880087Y-25660350D01*
X170855839Y-25593532D01*
X170820056Y-25495681D01*
X170776330Y-25376538D01*
X170762346Y-25338523D01*
X170637200Y-25338523D01*
X170613874Y-25343631D01*
X170552179Y-25347408D01*
X170464543Y-25349154D01*
X170447071Y-25349200D01*
X170256942Y-25349200D01*
X170303846Y-25228550D01*
X170340718Y-25129448D01*
X170379882Y-25017939D01*
X170395175Y-24972268D01*
X170422252Y-24902725D01*
X170446654Y-24862209D01*
X170459848Y-24857968D01*
X170474596Y-24887499D01*
X170500967Y-24951893D01*
X170534096Y-25037963D01*
X170569115Y-25132524D01*
X170601159Y-25222390D01*
X170625361Y-25294374D01*
X170636855Y-25335290D01*
X170637200Y-25338523D01*
X170762346Y-25338523D01*
X170728252Y-25245847D01*
X170679414Y-25113350D01*
X170633407Y-24988789D01*
X170593823Y-24881907D01*
X170564252Y-24802447D01*
X170548286Y-24760151D01*
X170547698Y-24758650D01*
X170506867Y-24722511D01*
X170448070Y-24714200D01*
X170365975Y-24714200D01*
X170184088Y-25216129D01*
G36*
X171404001Y-24719914D02*
G01*
X171238162Y-24737249D01*
X171116743Y-24769898D01*
X171034779Y-24821274D01*
X170987302Y-24894790D01*
X170969348Y-24993860D01*
X170968865Y-25019000D01*
X170987493Y-25151417D01*
X171042988Y-25249532D01*
X171136084Y-25313997D01*
X171267519Y-25345460D01*
X171342050Y-25349032D01*
X171500800Y-25349200D01*
X171500800Y-25552400D01*
X171501477Y-25653178D01*
X171505667Y-25713523D01*
X171516608Y-25743797D01*
X171537539Y-25754367D01*
X171564300Y-25755600D01*
X171627800Y-25755600D01*
X171627800Y-25247600D01*
X171500800Y-25247600D01*
X171364526Y-25247600D01*
X171258716Y-25239079D01*
X171183531Y-25210451D01*
X171161326Y-25194956D01*
X171110299Y-25125281D01*
X171092257Y-25033533D01*
X171109982Y-24938490D01*
X171120099Y-24916841D01*
X171166104Y-24875477D01*
X171247403Y-24841592D01*
X171348540Y-24820415D01*
X171418250Y-24815941D01*
X171500800Y-24815800D01*
X171500800Y-25247600D01*
X171627800Y-25247600D01*
X171627800Y-24707153D01*
X171404001Y-24719914D01*
G37*
X171404001Y-24719914D02*
X171238162Y-24737249D01*
X171116743Y-24769898D01*
X171034779Y-24821274D01*
X170987302Y-24894790D01*
X170969348Y-24993860D01*
X170968865Y-25019000D01*
X170987493Y-25151417D01*
X171042988Y-25249532D01*
X171136084Y-25313997D01*
X171267519Y-25345460D01*
X171342050Y-25349032D01*
X171500800Y-25349200D01*
X171500800Y-25552400D01*
X171501477Y-25653178D01*
X171505667Y-25713523D01*
X171516608Y-25743797D01*
X171537539Y-25754367D01*
X171564300Y-25755600D01*
X171627800Y-25755600D01*
X171627800Y-25247600D01*
X171500800Y-25247600D01*
X171364526Y-25247600D01*
X171258716Y-25239079D01*
X171183531Y-25210451D01*
X171161326Y-25194956D01*
X171110299Y-25125281D01*
X171092257Y-25033533D01*
X171109982Y-24938490D01*
X171120099Y-24916841D01*
X171166104Y-24875477D01*
X171247403Y-24841592D01*
X171348540Y-24820415D01*
X171418250Y-24815941D01*
X171500800Y-24815800D01*
X171500800Y-25247600D01*
X171627800Y-25247600D01*
X171627800Y-24707153D01*
X171404001Y-24719914D01*
G36*
X172446377Y-24691180D02*
G01*
X172427442Y-24705463D01*
X172418319Y-24742358D01*
X172415430Y-24812578D01*
X172415200Y-24878926D01*
X172415200Y-25069053D01*
X172332650Y-25018721D01*
X172247118Y-24984284D01*
X172149338Y-24970287D01*
X172059640Y-24977851D01*
X172006599Y-25000757D01*
X171966112Y-25040386D01*
X171937946Y-25092657D01*
X171920091Y-25166636D01*
X171910537Y-25271391D01*
X171907275Y-25415985D01*
X171907200Y-25449130D01*
X171907694Y-25578205D01*
X171910102Y-25664879D01*
X171915817Y-25717548D01*
X171926230Y-25744607D01*
X171942732Y-25754453D01*
X171958000Y-25755600D01*
X171981862Y-25751873D01*
X171996811Y-25734332D01*
X172004908Y-25693436D01*
X172008216Y-25619645D01*
X172008800Y-25520482D01*
X172014860Y-25341918D01*
X172034484Y-25210082D01*
X172069843Y-25122195D01*
X172123106Y-25075479D01*
X172196445Y-25067157D01*
X172292028Y-25094450D01*
X172328812Y-25110794D01*
X172415200Y-25151788D01*
X172415200Y-25755600D01*
X172542200Y-25755600D01*
X172542200Y-24688800D01*
X172478700Y-24688800D01*
X172446377Y-24691180D01*
G37*
X172446377Y-24691180D02*
X172427442Y-24705463D01*
X172418319Y-24742358D01*
X172415430Y-24812578D01*
X172415200Y-24878926D01*
X172415200Y-25069053D01*
X172332650Y-25018721D01*
X172247118Y-24984284D01*
X172149338Y-24970287D01*
X172059640Y-24977851D01*
X172006599Y-25000757D01*
X171966112Y-25040386D01*
X171937946Y-25092657D01*
X171920091Y-25166636D01*
X171910537Y-25271391D01*
X171907275Y-25415985D01*
X171907200Y-25449130D01*
X171907694Y-25578205D01*
X171910102Y-25664879D01*
X171915817Y-25717548D01*
X171926230Y-25744607D01*
X171942732Y-25754453D01*
X171958000Y-25755600D01*
X171981862Y-25751873D01*
X171996811Y-25734332D01*
X172004908Y-25693436D01*
X172008216Y-25619645D01*
X172008800Y-25520482D01*
X172014860Y-25341918D01*
X172034484Y-25210082D01*
X172069843Y-25122195D01*
X172123106Y-25075479D01*
X172196445Y-25067157D01*
X172292028Y-25094450D01*
X172328812Y-25110794D01*
X172415200Y-25151788D01*
X172415200Y-25755600D01*
X172542200Y-25755600D01*
X172542200Y-24688800D01*
X172478700Y-24688800D01*
X172446377Y-24691180D01*
G36*
X174002700Y-24945435D02*
G01*
X173861654Y-25007679D01*
X173746612Y-25106118D01*
X173685155Y-25196889D01*
X173654855Y-25263029D01*
X173655389Y-25299395D01*
X173692536Y-25320403D01*
X173739646Y-25332793D01*
X173791333Y-25336898D01*
X173815963Y-25308923D01*
X173821263Y-25291151D01*
X173848528Y-25237201D01*
X173898469Y-25174276D01*
X173914535Y-25157996D01*
X173960580Y-25118155D01*
X174005303Y-25095468D01*
X174065163Y-25085178D01*
X174156615Y-25082532D01*
X174175818Y-25082500D01*
X174319793Y-25093913D01*
X174427189Y-25131614D01*
X174507641Y-25200797D01*
X174563659Y-25291549D01*
X174595571Y-25390498D01*
X174615252Y-25519481D01*
X174621450Y-25658931D01*
X174612911Y-25789282D01*
X174599817Y-25856395D01*
X174542398Y-25980844D01*
X174449658Y-26081343D01*
X174332593Y-26150756D01*
X174202195Y-26181949D01*
X174106208Y-26176733D01*
X174004012Y-26136185D01*
X173906676Y-26061767D01*
X173831903Y-25968761D01*
X173808377Y-25919690D01*
X173782394Y-25862717D01*
X173751786Y-25843834D01*
X173712112Y-25848742D01*
X173647623Y-25867829D01*
X173624078Y-25893820D01*
X173633895Y-25942305D01*
X173648675Y-25979208D01*
X173732940Y-26119973D01*
X173850691Y-26224127D01*
X173997565Y-26288943D01*
X174169198Y-26311694D01*
X174180500Y-26311658D01*
X174276835Y-26307151D01*
X174363122Y-26297274D01*
X174404402Y-26288571D01*
X174528464Y-26226081D01*
X174633290Y-26123893D01*
X174715512Y-25990569D01*
X174771762Y-25834670D01*
X174798673Y-25664755D01*
X174792877Y-25489387D01*
X174767131Y-25366500D01*
X174696916Y-25209452D01*
X174590619Y-25082393D01*
X174455953Y-24989572D01*
X174300631Y-24935238D01*
X174132366Y-24923639D01*
X174002700Y-24945435D01*
G37*
X174002700Y-24945435D02*
X173861654Y-25007679D01*
X173746612Y-25106118D01*
X173685155Y-25196889D01*
X173654855Y-25263029D01*
X173655389Y-25299395D01*
X173692536Y-25320403D01*
X173739646Y-25332793D01*
X173791333Y-25336898D01*
X173815963Y-25308923D01*
X173821263Y-25291151D01*
X173848528Y-25237201D01*
X173898469Y-25174276D01*
X173914535Y-25157996D01*
X173960580Y-25118155D01*
X174005303Y-25095468D01*
X174065163Y-25085178D01*
X174156615Y-25082532D01*
X174175818Y-25082500D01*
X174319793Y-25093913D01*
X174427189Y-25131614D01*
X174507641Y-25200797D01*
X174563659Y-25291549D01*
X174595571Y-25390498D01*
X174615252Y-25519481D01*
X174621450Y-25658931D01*
X174612911Y-25789282D01*
X174599817Y-25856395D01*
X174542398Y-25980844D01*
X174449658Y-26081343D01*
X174332593Y-26150756D01*
X174202195Y-26181949D01*
X174106208Y-26176733D01*
X174004012Y-26136185D01*
X173906676Y-26061767D01*
X173831903Y-25968761D01*
X173808377Y-25919690D01*
X173782394Y-25862717D01*
X173751786Y-25843834D01*
X173712112Y-25848742D01*
X173647623Y-25867829D01*
X173624078Y-25893820D01*
X173633895Y-25942305D01*
X173648675Y-25979208D01*
X173732940Y-26119973D01*
X173850691Y-26224127D01*
X173997565Y-26288943D01*
X174169198Y-26311694D01*
X174180500Y-26311658D01*
X174276835Y-26307151D01*
X174363122Y-26297274D01*
X174404402Y-26288571D01*
X174528464Y-26226081D01*
X174633290Y-26123893D01*
X174715512Y-25990569D01*
X174771762Y-25834670D01*
X174798673Y-25664755D01*
X174792877Y-25489387D01*
X174767131Y-25366500D01*
X174696916Y-25209452D01*
X174590619Y-25082393D01*
X174455953Y-24989572D01*
X174300631Y-24935238D01*
X174132366Y-24923639D01*
X174002700Y-24945435D01*
G36*
X176097449Y-24910036D02*
G01*
X175959617Y-24964958D01*
X175846754Y-25049631D01*
X175808562Y-25086956D01*
X175776728Y-25120821D01*
X175750592Y-25156050D01*
X175729497Y-25197466D01*
X175712785Y-25249892D01*
X175699797Y-25318151D01*
X175689874Y-25407066D01*
X175682360Y-25521460D01*
X175676594Y-25666156D01*
X175671920Y-25845977D01*
X175667678Y-26065747D01*
X175663210Y-26330287D01*
X175661992Y-26403300D01*
X175657754Y-26639479D01*
X175653212Y-26862111D01*
X175648523Y-27065594D01*
X175643838Y-27244326D01*
X175639311Y-27392704D01*
X175635098Y-27505128D01*
X175631350Y-27575993D01*
X175629240Y-27597100D01*
X175612083Y-27650939D01*
X175576742Y-27736603D01*
X175528851Y-27841045D01*
X175488399Y-27923237D01*
X175430798Y-28040005D01*
X175393673Y-28126543D01*
X175372672Y-28196940D01*
X175363442Y-28265285D01*
X175361600Y-28333724D01*
X175383179Y-28547624D01*
X175444713Y-28750916D01*
X175541398Y-28935521D01*
X175668429Y-29093361D01*
X175821001Y-29216356D01*
X175916882Y-29267478D01*
X176042002Y-29305975D01*
X176189016Y-29325989D01*
X176336038Y-29326129D01*
X176461182Y-29305009D01*
X176469134Y-29302510D01*
X176644046Y-29219373D01*
X176795756Y-29095583D01*
X176920142Y-28937570D01*
X177013078Y-28751763D01*
X177070440Y-28544593D01*
X177087786Y-28342684D01*
X176834800Y-28342684D01*
X176834800Y-28343842D01*
X176814551Y-28535394D01*
X176756671Y-28709546D01*
X176665464Y-28858329D01*
X176545231Y-28973776D01*
X176470049Y-29019303D01*
X176329408Y-29071016D01*
X176192640Y-29078931D01*
X176069205Y-29053521D01*
X175932132Y-28987069D01*
X175813195Y-28879706D01*
X175718119Y-28739781D01*
X175652629Y-28575643D01*
X175622874Y-28402566D01*
X175619082Y-28325025D01*
X175622115Y-28263820D01*
X175635790Y-28205235D01*
X175663921Y-28135555D01*
X175710325Y-28041065D01*
X175738951Y-27985310D01*
X175793734Y-27871763D01*
X175839930Y-27762444D01*
X175871525Y-27672340D01*
X175881599Y-27629710D01*
X175885270Y-27581554D01*
X175889470Y-27488472D01*
X175894038Y-27356331D01*
X175898810Y-27191001D01*
X175903624Y-26998349D01*
X175908319Y-26784245D01*
X175912731Y-26554557D01*
X175915034Y-26420375D01*
X175933100Y-25319851D01*
X176027977Y-25232925D01*
X176129937Y-25164992D01*
X176232100Y-25145515D01*
X176329969Y-25175129D01*
X176349232Y-25187419D01*
X176379062Y-25209880D01*
X176403944Y-25234829D01*
X176424325Y-25266809D01*
X176440654Y-25310363D01*
X176453379Y-25370036D01*
X176462948Y-25450370D01*
X176469810Y-25555910D01*
X176474412Y-25691199D01*
X176477203Y-25860780D01*
X176478631Y-26069198D01*
X176479145Y-26320994D01*
X176479200Y-26504899D01*
X176479174Y-26781188D01*
X176479537Y-27011754D01*
X176480955Y-27201671D01*
X176484092Y-27356015D01*
X176489612Y-27479861D01*
X176498182Y-27578286D01*
X176510465Y-27656365D01*
X176527127Y-27719173D01*
X176548831Y-27771785D01*
X176576243Y-27819278D01*
X176610027Y-27866726D01*
X176650849Y-27919205D01*
X176667155Y-27940000D01*
X176743267Y-28040493D01*
X176792165Y-28116743D01*
X176819773Y-28183016D01*
X176832011Y-28253575D01*
X176834800Y-28342684D01*
X177087786Y-28342684D01*
X177088243Y-28337374D01*
X177079824Y-28203350D01*
X177051677Y-28085878D01*
X176998104Y-27970673D01*
X176913409Y-27843450D01*
X176867205Y-27783019D01*
X176745900Y-27628662D01*
X176720500Y-25285700D01*
X176657000Y-25173670D01*
X176597205Y-25087800D01*
X176523759Y-25007377D01*
X176499250Y-24985888D01*
X176378282Y-24919424D01*
X176240676Y-24894499D01*
X176097449Y-24910036D01*
G37*
X176097449Y-24910036D02*
X175959617Y-24964958D01*
X175846754Y-25049631D01*
X175808562Y-25086956D01*
X175776728Y-25120821D01*
X175750592Y-25156050D01*
X175729497Y-25197466D01*
X175712785Y-25249892D01*
X175699797Y-25318151D01*
X175689874Y-25407066D01*
X175682360Y-25521460D01*
X175676594Y-25666156D01*
X175671920Y-25845977D01*
X175667678Y-26065747D01*
X175663210Y-26330287D01*
X175661992Y-26403300D01*
X175657754Y-26639479D01*
X175653212Y-26862111D01*
X175648523Y-27065594D01*
X175643838Y-27244326D01*
X175639311Y-27392704D01*
X175635098Y-27505128D01*
X175631350Y-27575993D01*
X175629240Y-27597100D01*
X175612083Y-27650939D01*
X175576742Y-27736603D01*
X175528851Y-27841045D01*
X175488399Y-27923237D01*
X175430798Y-28040005D01*
X175393673Y-28126543D01*
X175372672Y-28196940D01*
X175363442Y-28265285D01*
X175361600Y-28333724D01*
X175383179Y-28547624D01*
X175444713Y-28750916D01*
X175541398Y-28935521D01*
X175668429Y-29093361D01*
X175821001Y-29216356D01*
X175916882Y-29267478D01*
X176042002Y-29305975D01*
X176189016Y-29325989D01*
X176336038Y-29326129D01*
X176461182Y-29305009D01*
X176469134Y-29302510D01*
X176644046Y-29219373D01*
X176795756Y-29095583D01*
X176920142Y-28937570D01*
X177013078Y-28751763D01*
X177070440Y-28544593D01*
X177087786Y-28342684D01*
X176834800Y-28342684D01*
X176834800Y-28343842D01*
X176814551Y-28535394D01*
X176756671Y-28709546D01*
X176665464Y-28858329D01*
X176545231Y-28973776D01*
X176470049Y-29019303D01*
X176329408Y-29071016D01*
X176192640Y-29078931D01*
X176069205Y-29053521D01*
X175932132Y-28987069D01*
X175813195Y-28879706D01*
X175718119Y-28739781D01*
X175652629Y-28575643D01*
X175622874Y-28402566D01*
X175619082Y-28325025D01*
X175622115Y-28263820D01*
X175635790Y-28205235D01*
X175663921Y-28135555D01*
X175710325Y-28041065D01*
X175738951Y-27985310D01*
X175793734Y-27871763D01*
X175839930Y-27762444D01*
X175871525Y-27672340D01*
X175881599Y-27629710D01*
X175885270Y-27581554D01*
X175889470Y-27488472D01*
X175894038Y-27356331D01*
X175898810Y-27191001D01*
X175903624Y-26998349D01*
X175908319Y-26784245D01*
X175912731Y-26554557D01*
X175915034Y-26420375D01*
X175933100Y-25319851D01*
X176027977Y-25232925D01*
X176129937Y-25164992D01*
X176232100Y-25145515D01*
X176329969Y-25175129D01*
X176349232Y-25187419D01*
X176379062Y-25209880D01*
X176403944Y-25234829D01*
X176424325Y-25266809D01*
X176440654Y-25310363D01*
X176453379Y-25370036D01*
X176462948Y-25450370D01*
X176469810Y-25555910D01*
X176474412Y-25691199D01*
X176477203Y-25860780D01*
X176478631Y-26069198D01*
X176479145Y-26320994D01*
X176479200Y-26504899D01*
X176479174Y-26781188D01*
X176479537Y-27011754D01*
X176480955Y-27201671D01*
X176484092Y-27356015D01*
X176489612Y-27479861D01*
X176498182Y-27578286D01*
X176510465Y-27656365D01*
X176527127Y-27719173D01*
X176548831Y-27771785D01*
X176576243Y-27819278D01*
X176610027Y-27866726D01*
X176650849Y-27919205D01*
X176667155Y-27940000D01*
X176743267Y-28040493D01*
X176792165Y-28116743D01*
X176819773Y-28183016D01*
X176832011Y-28253575D01*
X176834800Y-28342684D01*
X177087786Y-28342684D01*
X177088243Y-28337374D01*
X177079824Y-28203350D01*
X177051677Y-28085878D01*
X176998104Y-27970673D01*
X176913409Y-27843450D01*
X176867205Y-27783019D01*
X176745900Y-27628662D01*
X176720500Y-25285700D01*
X176657000Y-25173670D01*
X176597205Y-25087800D01*
X176523759Y-25007377D01*
X176499250Y-24985888D01*
X176378282Y-24919424D01*
X176240676Y-24894499D01*
X176097449Y-24910036D01*
G36*
X171305542Y-27235017D02*
G01*
X171274080Y-27254997D01*
X171272200Y-27264708D01*
X171269067Y-27297117D01*
X171260130Y-27374273D01*
X171246085Y-27490540D01*
X171227629Y-27640284D01*
X171205457Y-27817869D01*
X171180266Y-28017658D01*
X171152751Y-28234018D01*
X171145200Y-28293084D01*
X171117143Y-28513609D01*
X171091235Y-28719687D01*
X171068174Y-28905568D01*
X171048661Y-29065506D01*
X171033396Y-29193753D01*
X171023077Y-29284559D01*
X171018404Y-29332178D01*
X171018200Y-29336676D01*
X171020616Y-29356249D01*
X171032875Y-29370066D01*
X171062493Y-29379124D01*
X171116988Y-29384425D01*
X171203876Y-29386968D01*
X171330674Y-29387753D01*
X171402524Y-29387800D01*
X171786847Y-29387800D01*
X171774321Y-29305250D01*
X171768165Y-29262278D01*
X171755951Y-29174935D01*
X171749449Y-29128074D01*
X171542602Y-29128074D01*
X171532431Y-29148940D01*
X171495986Y-29157471D01*
X171422286Y-29159188D01*
X171398566Y-29159200D01*
X171318376Y-29155921D01*
X171263372Y-29147403D01*
X171246800Y-29137633D01*
X171249991Y-29106773D01*
X171258873Y-29033748D01*
X171272409Y-28926746D01*
X171289562Y-28793954D01*
X171309298Y-28643562D01*
X171310300Y-28635983D01*
X171330196Y-28483739D01*
X171347540Y-28347543D01*
X171361287Y-28235902D01*
X171370387Y-28157323D01*
X171373796Y-28120314D01*
X171373800Y-28119916D01*
X171380788Y-28095093D01*
X171386885Y-28097018D01*
X171394363Y-28125214D01*
X171407137Y-28195535D01*
X171423878Y-28299739D01*
X171443258Y-28429583D01*
X171462302Y-28564801D01*
X171483206Y-28715991D01*
X171502613Y-28853971D01*
X171519144Y-28969103D01*
X171531416Y-29051753D01*
X171537483Y-29089350D01*
X171542602Y-29128074D01*
X171749449Y-29128074D01*
X171738501Y-29049179D01*
X171716640Y-28890973D01*
X171691191Y-28706274D01*
X171662976Y-28501044D01*
X171632819Y-28281243D01*
X171625214Y-28225750D01*
X171488634Y-27228800D01*
X171380417Y-27228800D01*
X171305542Y-27235017D01*
G37*
X171305542Y-27235017D02*
X171274080Y-27254997D01*
X171272200Y-27264708D01*
X171269067Y-27297117D01*
X171260130Y-27374273D01*
X171246085Y-27490540D01*
X171227629Y-27640284D01*
X171205457Y-27817869D01*
X171180266Y-28017658D01*
X171152751Y-28234018D01*
X171145200Y-28293084D01*
X171117143Y-28513609D01*
X171091235Y-28719687D01*
X171068174Y-28905568D01*
X171048661Y-29065506D01*
X171033396Y-29193753D01*
X171023077Y-29284559D01*
X171018404Y-29332178D01*
X171018200Y-29336676D01*
X171020616Y-29356249D01*
X171032875Y-29370066D01*
X171062493Y-29379124D01*
X171116988Y-29384425D01*
X171203876Y-29386968D01*
X171330674Y-29387753D01*
X171402524Y-29387800D01*
X171786847Y-29387800D01*
X171774321Y-29305250D01*
X171768165Y-29262278D01*
X171755951Y-29174935D01*
X171749449Y-29128074D01*
X171542602Y-29128074D01*
X171532431Y-29148940D01*
X171495986Y-29157471D01*
X171422286Y-29159188D01*
X171398566Y-29159200D01*
X171318376Y-29155921D01*
X171263372Y-29147403D01*
X171246800Y-29137633D01*
X171249991Y-29106773D01*
X171258873Y-29033748D01*
X171272409Y-28926746D01*
X171289562Y-28793954D01*
X171309298Y-28643562D01*
X171310300Y-28635983D01*
X171330196Y-28483739D01*
X171347540Y-28347543D01*
X171361287Y-28235902D01*
X171370387Y-28157323D01*
X171373796Y-28120314D01*
X171373800Y-28119916D01*
X171380788Y-28095093D01*
X171386885Y-28097018D01*
X171394363Y-28125214D01*
X171407137Y-28195535D01*
X171423878Y-28299739D01*
X171443258Y-28429583D01*
X171462302Y-28564801D01*
X171483206Y-28715991D01*
X171502613Y-28853971D01*
X171519144Y-28969103D01*
X171531416Y-29051753D01*
X171537483Y-29089350D01*
X171542602Y-29128074D01*
X171749449Y-29128074D01*
X171738501Y-29049179D01*
X171716640Y-28890973D01*
X171691191Y-28706274D01*
X171662976Y-28501044D01*
X171632819Y-28281243D01*
X171625214Y-28225750D01*
X171488634Y-27228800D01*
X171380417Y-27228800D01*
X171305542Y-27235017D01*
G36*
X171170112Y-26270112D02*
G01*
X171008642Y-26297888D01*
X170694108Y-26399883D01*
X170405418Y-26545096D01*
X170144639Y-26731854D01*
X169913838Y-26958484D01*
X169715081Y-27223311D01*
X169586655Y-27449246D01*
X169469825Y-27738078D01*
X169397547Y-28043941D01*
X169370360Y-28358499D01*
X169388802Y-28673416D01*
X169453413Y-28980355D01*
X169481903Y-29069704D01*
X169540316Y-29206873D01*
X169608103Y-29300121D01*
X169691421Y-29356227D01*
X169760834Y-29376763D01*
X169879507Y-29381859D01*
X169982158Y-29345076D01*
X170069738Y-29274542D01*
X170126291Y-29199114D01*
X170152777Y-29110560D01*
X170149772Y-29000130D01*
X170117855Y-28859078D01*
X170100844Y-28803600D01*
X170064013Y-28638894D01*
X170046856Y-28448345D01*
X170049668Y-28252925D01*
X170072746Y-28073608D01*
X170089579Y-28004584D01*
X170187634Y-27750222D01*
X170323186Y-27523177D01*
X170491600Y-27327096D01*
X170688238Y-27165630D01*
X170908466Y-27042425D01*
X171147647Y-26961129D01*
X171401146Y-26925392D01*
X171462701Y-26924000D01*
X171715990Y-26948157D01*
X171953166Y-27018274D01*
X172169571Y-27130818D01*
X172360544Y-27282258D01*
X172521424Y-27469059D01*
X172647553Y-27687690D01*
X172718108Y-27875674D01*
X172755208Y-28055620D01*
X172769118Y-28254499D01*
X172760211Y-28454210D01*
X172728860Y-28636655D01*
X172700551Y-28727400D01*
X172646503Y-28868385D01*
X172608129Y-28970258D01*
X172583550Y-29041580D01*
X172570885Y-29090910D01*
X172568254Y-29126805D01*
X172573777Y-29157826D01*
X172585573Y-29192532D01*
X172593498Y-29214694D01*
X172655113Y-29321537D01*
X172747613Y-29396407D01*
X172859410Y-29435197D01*
X172978912Y-29433798D01*
X173090226Y-29390768D01*
X173155451Y-29330272D01*
X173218439Y-29235089D01*
X173235039Y-29202283D01*
X173355216Y-28892443D01*
X173426575Y-28576979D01*
X173449463Y-28260138D01*
X173424226Y-27946164D01*
X173351209Y-27639301D01*
X173230760Y-27343795D01*
X173063223Y-27063890D01*
X173060313Y-27059775D01*
X172887417Y-26855105D01*
X172675990Y-26669202D01*
X172437046Y-26509608D01*
X172181598Y-26383863D01*
X171966895Y-26311126D01*
X171789861Y-26276990D01*
X171585241Y-26258598D01*
X171372252Y-26256217D01*
X171170112Y-26270112D01*
G37*
X171170112Y-26270112D02*
X171008642Y-26297888D01*
X170694108Y-26399883D01*
X170405418Y-26545096D01*
X170144639Y-26731854D01*
X169913838Y-26958484D01*
X169715081Y-27223311D01*
X169586655Y-27449246D01*
X169469825Y-27738078D01*
X169397547Y-28043941D01*
X169370360Y-28358499D01*
X169388802Y-28673416D01*
X169453413Y-28980355D01*
X169481903Y-29069704D01*
X169540316Y-29206873D01*
X169608103Y-29300121D01*
X169691421Y-29356227D01*
X169760834Y-29376763D01*
X169879507Y-29381859D01*
X169982158Y-29345076D01*
X170069738Y-29274542D01*
X170126291Y-29199114D01*
X170152777Y-29110560D01*
X170149772Y-29000130D01*
X170117855Y-28859078D01*
X170100844Y-28803600D01*
X170064013Y-28638894D01*
X170046856Y-28448345D01*
X170049668Y-28252925D01*
X170072746Y-28073608D01*
X170089579Y-28004584D01*
X170187634Y-27750222D01*
X170323186Y-27523177D01*
X170491600Y-27327096D01*
X170688238Y-27165630D01*
X170908466Y-27042425D01*
X171147647Y-26961129D01*
X171401146Y-26925392D01*
X171462701Y-26924000D01*
X171715990Y-26948157D01*
X171953166Y-27018274D01*
X172169571Y-27130818D01*
X172360544Y-27282258D01*
X172521424Y-27469059D01*
X172647553Y-27687690D01*
X172718108Y-27875674D01*
X172755208Y-28055620D01*
X172769118Y-28254499D01*
X172760211Y-28454210D01*
X172728860Y-28636655D01*
X172700551Y-28727400D01*
X172646503Y-28868385D01*
X172608129Y-28970258D01*
X172583550Y-29041580D01*
X172570885Y-29090910D01*
X172568254Y-29126805D01*
X172573777Y-29157826D01*
X172585573Y-29192532D01*
X172593498Y-29214694D01*
X172655113Y-29321537D01*
X172747613Y-29396407D01*
X172859410Y-29435197D01*
X172978912Y-29433798D01*
X173090226Y-29390768D01*
X173155451Y-29330272D01*
X173218439Y-29235089D01*
X173235039Y-29202283D01*
X173355216Y-28892443D01*
X173426575Y-28576979D01*
X173449463Y-28260138D01*
X173424226Y-27946164D01*
X173351209Y-27639301D01*
X173230760Y-27343795D01*
X173063223Y-27063890D01*
X173060313Y-27059775D01*
X172887417Y-26855105D01*
X172675990Y-26669202D01*
X172437046Y-26509608D01*
X172181598Y-26383863D01*
X171966895Y-26311126D01*
X171789861Y-26276990D01*
X171585241Y-26258598D01*
X171372252Y-26256217D01*
X171170112Y-26270112D01*
G36*
X171437300Y-25795226D02*
G01*
X171273442Y-25796430D01*
X171148728Y-25799581D01*
X171051507Y-25805929D01*
X170970127Y-25816723D01*
X170892938Y-25833213D01*
X170808288Y-25856649D01*
X170776900Y-25866068D01*
X170460080Y-25979770D01*
X170177775Y-26120375D01*
X169917761Y-26294888D01*
X169691272Y-26488074D01*
X169447009Y-26750665D01*
X169241214Y-27041056D01*
X169075834Y-27353842D01*
X168952816Y-27683616D01*
X168874107Y-28024972D01*
X168841654Y-28372503D01*
X168857404Y-28720803D01*
X168865296Y-28781675D01*
X168897964Y-28976858D01*
X168936483Y-29150366D01*
X168978719Y-29294850D01*
X169022538Y-29402962D01*
X169063877Y-29465476D01*
X169112836Y-29505609D01*
X169154841Y-29508170D01*
X169209504Y-29473328D01*
X169217667Y-29466786D01*
X169276962Y-29418772D01*
X169220219Y-29257236D01*
X169148671Y-29000591D01*
X169103082Y-28720886D01*
X169084981Y-28435907D01*
X169095897Y-28163445D01*
X169114495Y-28027214D01*
X169192481Y-27718064D01*
X169313477Y-27413816D01*
X169471752Y-27124982D01*
X169661576Y-26862076D01*
X169868897Y-26643173D01*
X170135688Y-26430441D01*
X170418464Y-26262249D01*
X170712998Y-26137886D01*
X171015062Y-26056642D01*
X171320430Y-26017803D01*
X171624875Y-26020660D01*
X171924168Y-26064500D01*
X172214084Y-26148612D01*
X172490394Y-26272285D01*
X172748872Y-26434808D01*
X172985291Y-26635468D01*
X173195423Y-26873556D01*
X173375042Y-27148358D01*
X173424171Y-27241500D01*
X173531259Y-27486831D01*
X173603716Y-27730153D01*
X173644306Y-27985151D01*
X173655791Y-28265512D01*
X173653287Y-28376545D01*
X173634624Y-28636585D01*
X173597036Y-28864640D01*
X173536920Y-29077158D01*
X173455427Y-29280159D01*
X173407996Y-29392811D01*
X173385819Y-29470451D01*
X173388110Y-29521687D01*
X173414087Y-29555127D01*
X173429531Y-29564706D01*
X173505442Y-29589254D01*
X173564603Y-29568344D01*
X173595413Y-29533850D01*
X173634239Y-29463646D01*
X173680928Y-29356397D01*
X173730989Y-29224333D01*
X173779932Y-29079683D01*
X173823266Y-28934678D01*
X173842968Y-28859667D01*
X173881749Y-28640234D01*
X173899655Y-28392377D01*
X173896904Y-28133886D01*
X173873715Y-27882552D01*
X173830303Y-27656163D01*
X173828155Y-27647900D01*
X173712259Y-27301274D01*
X173555513Y-26983150D01*
X173360215Y-26695856D01*
X173128661Y-26441721D01*
X172863146Y-26223072D01*
X172565967Y-26042239D01*
X172239421Y-25901549D01*
X172046900Y-25841791D01*
X171965166Y-25822613D01*
X171877969Y-25809183D01*
X171774516Y-25800677D01*
X171644016Y-25796269D01*
X171475677Y-25795135D01*
X171437300Y-25795226D01*
G37*
X171437300Y-25795226D02*
X171273442Y-25796430D01*
X171148728Y-25799581D01*
X171051507Y-25805929D01*
X170970127Y-25816723D01*
X170892938Y-25833213D01*
X170808288Y-25856649D01*
X170776900Y-25866068D01*
X170460080Y-25979770D01*
X170177775Y-26120375D01*
X169917761Y-26294888D01*
X169691272Y-26488074D01*
X169447009Y-26750665D01*
X169241214Y-27041056D01*
X169075834Y-27353842D01*
X168952816Y-27683616D01*
X168874107Y-28024972D01*
X168841654Y-28372503D01*
X168857404Y-28720803D01*
X168865296Y-28781675D01*
X168897964Y-28976858D01*
X168936483Y-29150366D01*
X168978719Y-29294850D01*
X169022538Y-29402962D01*
X169063877Y-29465476D01*
X169112836Y-29505609D01*
X169154841Y-29508170D01*
X169209504Y-29473328D01*
X169217667Y-29466786D01*
X169276962Y-29418772D01*
X169220219Y-29257236D01*
X169148671Y-29000591D01*
X169103082Y-28720886D01*
X169084981Y-28435907D01*
X169095897Y-28163445D01*
X169114495Y-28027214D01*
X169192481Y-27718064D01*
X169313477Y-27413816D01*
X169471752Y-27124982D01*
X169661576Y-26862076D01*
X169868897Y-26643173D01*
X170135688Y-26430441D01*
X170418464Y-26262249D01*
X170712998Y-26137886D01*
X171015062Y-26056642D01*
X171320430Y-26017803D01*
X171624875Y-26020660D01*
X171924168Y-26064500D01*
X172214084Y-26148612D01*
X172490394Y-26272285D01*
X172748872Y-26434808D01*
X172985291Y-26635468D01*
X173195423Y-26873556D01*
X173375042Y-27148358D01*
X173424171Y-27241500D01*
X173531259Y-27486831D01*
X173603716Y-27730153D01*
X173644306Y-27985151D01*
X173655791Y-28265512D01*
X173653287Y-28376545D01*
X173634624Y-28636585D01*
X173597036Y-28864640D01*
X173536920Y-29077158D01*
X173455427Y-29280159D01*
X173407996Y-29392811D01*
X173385819Y-29470451D01*
X173388110Y-29521687D01*
X173414087Y-29555127D01*
X173429531Y-29564706D01*
X173505442Y-29589254D01*
X173564603Y-29568344D01*
X173595413Y-29533850D01*
X173634239Y-29463646D01*
X173680928Y-29356397D01*
X173730989Y-29224333D01*
X173779932Y-29079683D01*
X173823266Y-28934678D01*
X173842968Y-28859667D01*
X173881749Y-28640234D01*
X173899655Y-28392377D01*
X173896904Y-28133886D01*
X173873715Y-27882552D01*
X173830303Y-27656163D01*
X173828155Y-27647900D01*
X173712259Y-27301274D01*
X173555513Y-26983150D01*
X173360215Y-26695856D01*
X173128661Y-26441721D01*
X172863146Y-26223072D01*
X172565967Y-26042239D01*
X172239421Y-25901549D01*
X172046900Y-25841791D01*
X171965166Y-25822613D01*
X171877969Y-25809183D01*
X171774516Y-25800677D01*
X171644016Y-25796269D01*
X171475677Y-25795135D01*
X171437300Y-25795226D01*
M02*
