G04 #@! TF.GenerationSoftware,KiCad,Pcbnew,(5.1.5)-3*
G04 #@! TF.CreationDate,2020-12-21T12:30:09+01:00*
G04 #@! TF.ProjectId,epimetheus_bmp180,6570696d-6574-4686-9575-735f626d7031,rev?*
G04 #@! TF.SameCoordinates,Original*
G04 #@! TF.FileFunction,Copper,L2,Bot*
G04 #@! TF.FilePolarity,Positive*
%FSLAX46Y46*%
G04 Gerber Fmt 4.6, Leading zero omitted, Abs format (unit mm)*
G04 Created by KiCad (PCBNEW (5.1.5)-3) date 2020-12-21 12:30:09*
%MOMM*%
%LPD*%
G04 APERTURE LIST*
%ADD10C,1.524000*%
%ADD11C,0.800000*%
%ADD12C,0.250000*%
%ADD13C,0.254000*%
G04 APERTURE END LIST*
D10*
X178308000Y-25908000D03*
X178308000Y-28448000D03*
X178308000Y-30988000D03*
X178308000Y-33528000D03*
X178308000Y-36068000D03*
D11*
X169164000Y-27432000D03*
D12*
X177230370Y-30988000D02*
X175452370Y-29210000D01*
X178308000Y-30988000D02*
X177230370Y-30988000D01*
X175452370Y-29210000D02*
X170942000Y-29210000D01*
X170942000Y-29210000D02*
X169164000Y-27432000D01*
D13*
G36*
X180442000Y-38202000D02*
G01*
X162458000Y-38202000D01*
X162458000Y-35930408D01*
X176911000Y-35930408D01*
X176911000Y-36205592D01*
X176964686Y-36475490D01*
X177069995Y-36729727D01*
X177222880Y-36958535D01*
X177417465Y-37153120D01*
X177646273Y-37306005D01*
X177900510Y-37411314D01*
X178170408Y-37465000D01*
X178445592Y-37465000D01*
X178715490Y-37411314D01*
X178969727Y-37306005D01*
X179198535Y-37153120D01*
X179393120Y-36958535D01*
X179546005Y-36729727D01*
X179651314Y-36475490D01*
X179705000Y-36205592D01*
X179705000Y-35930408D01*
X179651314Y-35660510D01*
X179546005Y-35406273D01*
X179393120Y-35177465D01*
X179198535Y-34982880D01*
X178969727Y-34829995D01*
X178898057Y-34800308D01*
X178911023Y-34795636D01*
X179026980Y-34733656D01*
X179093960Y-34493565D01*
X178308000Y-33707605D01*
X177522040Y-34493565D01*
X177589020Y-34733656D01*
X177724760Y-34797485D01*
X177646273Y-34829995D01*
X177417465Y-34982880D01*
X177222880Y-35177465D01*
X177069995Y-35406273D01*
X176964686Y-35660510D01*
X176911000Y-35930408D01*
X162458000Y-35930408D01*
X162458000Y-33600017D01*
X176906090Y-33600017D01*
X176947078Y-33872133D01*
X177040364Y-34131023D01*
X177102344Y-34246980D01*
X177342435Y-34313960D01*
X178128395Y-33528000D01*
X178487605Y-33528000D01*
X179273565Y-34313960D01*
X179513656Y-34246980D01*
X179630756Y-33997952D01*
X179697023Y-33730865D01*
X179709910Y-33455983D01*
X179668922Y-33183867D01*
X179575636Y-32924977D01*
X179513656Y-32809020D01*
X179273565Y-32742040D01*
X178487605Y-33528000D01*
X178128395Y-33528000D01*
X177342435Y-32742040D01*
X177102344Y-32809020D01*
X176985244Y-33058048D01*
X176918977Y-33325135D01*
X176906090Y-33600017D01*
X162458000Y-33600017D01*
X162458000Y-32031685D01*
X162490114Y-32063799D01*
X162716957Y-32215371D01*
X162969011Y-32319775D01*
X163236589Y-32373000D01*
X163509411Y-32373000D01*
X163776989Y-32319775D01*
X164029043Y-32215371D01*
X164255886Y-32063799D01*
X164448799Y-31870886D01*
X164600371Y-31644043D01*
X164704775Y-31391989D01*
X164758000Y-31124411D01*
X164758000Y-30851589D01*
X164704775Y-30584011D01*
X164600371Y-30331957D01*
X164448799Y-30105114D01*
X164255886Y-29912201D01*
X164029043Y-29760629D01*
X163776989Y-29656225D01*
X163509411Y-29603000D01*
X163236589Y-29603000D01*
X162969011Y-29656225D01*
X162716957Y-29760629D01*
X162490114Y-29912201D01*
X162458000Y-29944315D01*
X162458000Y-27330061D01*
X168129000Y-27330061D01*
X168129000Y-27533939D01*
X168168774Y-27733898D01*
X168246795Y-27922256D01*
X168360063Y-28091774D01*
X168504226Y-28235937D01*
X168673744Y-28349205D01*
X168862102Y-28427226D01*
X169062061Y-28467000D01*
X169124199Y-28467000D01*
X170260198Y-29603000D01*
X170236589Y-29603000D01*
X169969011Y-29656225D01*
X169716957Y-29760629D01*
X169490114Y-29912201D01*
X169297201Y-30105114D01*
X169145629Y-30331957D01*
X169041225Y-30584011D01*
X168988000Y-30851589D01*
X168988000Y-31124411D01*
X169041225Y-31391989D01*
X169145629Y-31644043D01*
X169297201Y-31870886D01*
X169490114Y-32063799D01*
X169716957Y-32215371D01*
X169969011Y-32319775D01*
X170236589Y-32373000D01*
X170509411Y-32373000D01*
X170776989Y-32319775D01*
X171029043Y-32215371D01*
X171255886Y-32063799D01*
X171448799Y-31870886D01*
X171600371Y-31644043D01*
X171704775Y-31391989D01*
X171758000Y-31124411D01*
X171758000Y-30851589D01*
X171704775Y-30584011D01*
X171600371Y-30331957D01*
X171448799Y-30105114D01*
X171313685Y-29970000D01*
X175137569Y-29970000D01*
X176666571Y-31499003D01*
X176690369Y-31528001D01*
X176806094Y-31622974D01*
X176938123Y-31693546D01*
X177081384Y-31737003D01*
X177131617Y-31741951D01*
X177222880Y-31878535D01*
X177417465Y-32073120D01*
X177646273Y-32226005D01*
X177717943Y-32255692D01*
X177704977Y-32260364D01*
X177589020Y-32322344D01*
X177522040Y-32562435D01*
X178308000Y-33348395D01*
X179093960Y-32562435D01*
X179026980Y-32322344D01*
X178891240Y-32258515D01*
X178969727Y-32226005D01*
X179198535Y-32073120D01*
X179393120Y-31878535D01*
X179546005Y-31649727D01*
X179651314Y-31395490D01*
X179705000Y-31125592D01*
X179705000Y-30850408D01*
X179651314Y-30580510D01*
X179546005Y-30326273D01*
X179393120Y-30097465D01*
X179198535Y-29902880D01*
X178969727Y-29749995D01*
X178892485Y-29718000D01*
X178969727Y-29686005D01*
X179198535Y-29533120D01*
X179393120Y-29338535D01*
X179546005Y-29109727D01*
X179651314Y-28855490D01*
X179705000Y-28585592D01*
X179705000Y-28310408D01*
X179651314Y-28040510D01*
X179546005Y-27786273D01*
X179393120Y-27557465D01*
X179198535Y-27362880D01*
X178969727Y-27209995D01*
X178892485Y-27178000D01*
X178969727Y-27146005D01*
X179198535Y-26993120D01*
X179393120Y-26798535D01*
X179546005Y-26569727D01*
X179651314Y-26315490D01*
X179705000Y-26045592D01*
X179705000Y-25770408D01*
X179651314Y-25500510D01*
X179546005Y-25246273D01*
X179393120Y-25017465D01*
X179198535Y-24822880D01*
X178969727Y-24669995D01*
X178715490Y-24564686D01*
X178445592Y-24511000D01*
X178170408Y-24511000D01*
X177900510Y-24564686D01*
X177646273Y-24669995D01*
X177417465Y-24822880D01*
X177222880Y-25017465D01*
X177069995Y-25246273D01*
X176964686Y-25500510D01*
X176911000Y-25770408D01*
X176911000Y-26045592D01*
X176964686Y-26315490D01*
X177069995Y-26569727D01*
X177222880Y-26798535D01*
X177417465Y-26993120D01*
X177646273Y-27146005D01*
X177723515Y-27178000D01*
X177646273Y-27209995D01*
X177417465Y-27362880D01*
X177222880Y-27557465D01*
X177069995Y-27786273D01*
X176964686Y-28040510D01*
X176911000Y-28310408D01*
X176911000Y-28585592D01*
X176964686Y-28855490D01*
X177069995Y-29109727D01*
X177222880Y-29338535D01*
X177417465Y-29533120D01*
X177646273Y-29686005D01*
X177723515Y-29718000D01*
X177646273Y-29749995D01*
X177417465Y-29902880D01*
X177318758Y-30001587D01*
X176016174Y-28699003D01*
X175992371Y-28669999D01*
X175876646Y-28575026D01*
X175744617Y-28504454D01*
X175601356Y-28460997D01*
X175489703Y-28450000D01*
X175489692Y-28450000D01*
X175452370Y-28446324D01*
X175415048Y-28450000D01*
X171256802Y-28450000D01*
X170199000Y-27392199D01*
X170199000Y-27330061D01*
X170159226Y-27130102D01*
X170081205Y-26941744D01*
X169967937Y-26772226D01*
X169823774Y-26628063D01*
X169654256Y-26514795D01*
X169465898Y-26436774D01*
X169265939Y-26397000D01*
X169062061Y-26397000D01*
X168862102Y-26436774D01*
X168673744Y-26514795D01*
X168504226Y-26628063D01*
X168360063Y-26772226D01*
X168246795Y-26941744D01*
X168168774Y-27130102D01*
X168129000Y-27330061D01*
X162458000Y-27330061D01*
X162458000Y-23520000D01*
X180442001Y-23520000D01*
X180442000Y-38202000D01*
G37*
X180442000Y-38202000D02*
X162458000Y-38202000D01*
X162458000Y-35930408D01*
X176911000Y-35930408D01*
X176911000Y-36205592D01*
X176964686Y-36475490D01*
X177069995Y-36729727D01*
X177222880Y-36958535D01*
X177417465Y-37153120D01*
X177646273Y-37306005D01*
X177900510Y-37411314D01*
X178170408Y-37465000D01*
X178445592Y-37465000D01*
X178715490Y-37411314D01*
X178969727Y-37306005D01*
X179198535Y-37153120D01*
X179393120Y-36958535D01*
X179546005Y-36729727D01*
X179651314Y-36475490D01*
X179705000Y-36205592D01*
X179705000Y-35930408D01*
X179651314Y-35660510D01*
X179546005Y-35406273D01*
X179393120Y-35177465D01*
X179198535Y-34982880D01*
X178969727Y-34829995D01*
X178898057Y-34800308D01*
X178911023Y-34795636D01*
X179026980Y-34733656D01*
X179093960Y-34493565D01*
X178308000Y-33707605D01*
X177522040Y-34493565D01*
X177589020Y-34733656D01*
X177724760Y-34797485D01*
X177646273Y-34829995D01*
X177417465Y-34982880D01*
X177222880Y-35177465D01*
X177069995Y-35406273D01*
X176964686Y-35660510D01*
X176911000Y-35930408D01*
X162458000Y-35930408D01*
X162458000Y-33600017D01*
X176906090Y-33600017D01*
X176947078Y-33872133D01*
X177040364Y-34131023D01*
X177102344Y-34246980D01*
X177342435Y-34313960D01*
X178128395Y-33528000D01*
X178487605Y-33528000D01*
X179273565Y-34313960D01*
X179513656Y-34246980D01*
X179630756Y-33997952D01*
X179697023Y-33730865D01*
X179709910Y-33455983D01*
X179668922Y-33183867D01*
X179575636Y-32924977D01*
X179513656Y-32809020D01*
X179273565Y-32742040D01*
X178487605Y-33528000D01*
X178128395Y-33528000D01*
X177342435Y-32742040D01*
X177102344Y-32809020D01*
X176985244Y-33058048D01*
X176918977Y-33325135D01*
X176906090Y-33600017D01*
X162458000Y-33600017D01*
X162458000Y-32031685D01*
X162490114Y-32063799D01*
X162716957Y-32215371D01*
X162969011Y-32319775D01*
X163236589Y-32373000D01*
X163509411Y-32373000D01*
X163776989Y-32319775D01*
X164029043Y-32215371D01*
X164255886Y-32063799D01*
X164448799Y-31870886D01*
X164600371Y-31644043D01*
X164704775Y-31391989D01*
X164758000Y-31124411D01*
X164758000Y-30851589D01*
X164704775Y-30584011D01*
X164600371Y-30331957D01*
X164448799Y-30105114D01*
X164255886Y-29912201D01*
X164029043Y-29760629D01*
X163776989Y-29656225D01*
X163509411Y-29603000D01*
X163236589Y-29603000D01*
X162969011Y-29656225D01*
X162716957Y-29760629D01*
X162490114Y-29912201D01*
X162458000Y-29944315D01*
X162458000Y-27330061D01*
X168129000Y-27330061D01*
X168129000Y-27533939D01*
X168168774Y-27733898D01*
X168246795Y-27922256D01*
X168360063Y-28091774D01*
X168504226Y-28235937D01*
X168673744Y-28349205D01*
X168862102Y-28427226D01*
X169062061Y-28467000D01*
X169124199Y-28467000D01*
X170260198Y-29603000D01*
X170236589Y-29603000D01*
X169969011Y-29656225D01*
X169716957Y-29760629D01*
X169490114Y-29912201D01*
X169297201Y-30105114D01*
X169145629Y-30331957D01*
X169041225Y-30584011D01*
X168988000Y-30851589D01*
X168988000Y-31124411D01*
X169041225Y-31391989D01*
X169145629Y-31644043D01*
X169297201Y-31870886D01*
X169490114Y-32063799D01*
X169716957Y-32215371D01*
X169969011Y-32319775D01*
X170236589Y-32373000D01*
X170509411Y-32373000D01*
X170776989Y-32319775D01*
X171029043Y-32215371D01*
X171255886Y-32063799D01*
X171448799Y-31870886D01*
X171600371Y-31644043D01*
X171704775Y-31391989D01*
X171758000Y-31124411D01*
X171758000Y-30851589D01*
X171704775Y-30584011D01*
X171600371Y-30331957D01*
X171448799Y-30105114D01*
X171313685Y-29970000D01*
X175137569Y-29970000D01*
X176666571Y-31499003D01*
X176690369Y-31528001D01*
X176806094Y-31622974D01*
X176938123Y-31693546D01*
X177081384Y-31737003D01*
X177131617Y-31741951D01*
X177222880Y-31878535D01*
X177417465Y-32073120D01*
X177646273Y-32226005D01*
X177717943Y-32255692D01*
X177704977Y-32260364D01*
X177589020Y-32322344D01*
X177522040Y-32562435D01*
X178308000Y-33348395D01*
X179093960Y-32562435D01*
X179026980Y-32322344D01*
X178891240Y-32258515D01*
X178969727Y-32226005D01*
X179198535Y-32073120D01*
X179393120Y-31878535D01*
X179546005Y-31649727D01*
X179651314Y-31395490D01*
X179705000Y-31125592D01*
X179705000Y-30850408D01*
X179651314Y-30580510D01*
X179546005Y-30326273D01*
X179393120Y-30097465D01*
X179198535Y-29902880D01*
X178969727Y-29749995D01*
X178892485Y-29718000D01*
X178969727Y-29686005D01*
X179198535Y-29533120D01*
X179393120Y-29338535D01*
X179546005Y-29109727D01*
X179651314Y-28855490D01*
X179705000Y-28585592D01*
X179705000Y-28310408D01*
X179651314Y-28040510D01*
X179546005Y-27786273D01*
X179393120Y-27557465D01*
X179198535Y-27362880D01*
X178969727Y-27209995D01*
X178892485Y-27178000D01*
X178969727Y-27146005D01*
X179198535Y-26993120D01*
X179393120Y-26798535D01*
X179546005Y-26569727D01*
X179651314Y-26315490D01*
X179705000Y-26045592D01*
X179705000Y-25770408D01*
X179651314Y-25500510D01*
X179546005Y-25246273D01*
X179393120Y-25017465D01*
X179198535Y-24822880D01*
X178969727Y-24669995D01*
X178715490Y-24564686D01*
X178445592Y-24511000D01*
X178170408Y-24511000D01*
X177900510Y-24564686D01*
X177646273Y-24669995D01*
X177417465Y-24822880D01*
X177222880Y-25017465D01*
X177069995Y-25246273D01*
X176964686Y-25500510D01*
X176911000Y-25770408D01*
X176911000Y-26045592D01*
X176964686Y-26315490D01*
X177069995Y-26569727D01*
X177222880Y-26798535D01*
X177417465Y-26993120D01*
X177646273Y-27146005D01*
X177723515Y-27178000D01*
X177646273Y-27209995D01*
X177417465Y-27362880D01*
X177222880Y-27557465D01*
X177069995Y-27786273D01*
X176964686Y-28040510D01*
X176911000Y-28310408D01*
X176911000Y-28585592D01*
X176964686Y-28855490D01*
X177069995Y-29109727D01*
X177222880Y-29338535D01*
X177417465Y-29533120D01*
X177646273Y-29686005D01*
X177723515Y-29718000D01*
X177646273Y-29749995D01*
X177417465Y-29902880D01*
X177318758Y-30001587D01*
X176016174Y-28699003D01*
X175992371Y-28669999D01*
X175876646Y-28575026D01*
X175744617Y-28504454D01*
X175601356Y-28460997D01*
X175489703Y-28450000D01*
X175489692Y-28450000D01*
X175452370Y-28446324D01*
X175415048Y-28450000D01*
X171256802Y-28450000D01*
X170199000Y-27392199D01*
X170199000Y-27330061D01*
X170159226Y-27130102D01*
X170081205Y-26941744D01*
X169967937Y-26772226D01*
X169823774Y-26628063D01*
X169654256Y-26514795D01*
X169465898Y-26436774D01*
X169265939Y-26397000D01*
X169062061Y-26397000D01*
X168862102Y-26436774D01*
X168673744Y-26514795D01*
X168504226Y-26628063D01*
X168360063Y-26772226D01*
X168246795Y-26941744D01*
X168168774Y-27130102D01*
X168129000Y-27330061D01*
X162458000Y-27330061D01*
X162458000Y-23520000D01*
X180442001Y-23520000D01*
X180442000Y-38202000D01*
M02*
