G04 #@! TF.GenerationSoftware,KiCad,Pcbnew,(5.1.5)-3*
G04 #@! TF.CreationDate,2020-12-21T12:30:09+01:00*
G04 #@! TF.ProjectId,epimetheus_bmp180,6570696d-6574-4686-9575-735f626d7031,rev?*
G04 #@! TF.SameCoordinates,Original*
G04 #@! TF.FileFunction,Legend,Top*
G04 #@! TF.FilePolarity,Positive*
%FSLAX46Y46*%
G04 Gerber Fmt 4.6, Leading zero omitted, Abs format (unit mm)*
G04 Created by KiCad (PCBNEW (5.1.5)-3) date 2020-12-21 12:30:09*
%MOMM*%
%LPD*%
G04 APERTURE LIST*
%ADD10C,0.150000*%
%ADD11C,0.120000*%
G04 APERTURE END LIST*
D10*
X162417428Y-23550571D02*
X162560285Y-23598190D01*
X162607904Y-23645809D01*
X162655523Y-23741047D01*
X162655523Y-23883904D01*
X162607904Y-23979142D01*
X162560285Y-24026761D01*
X162465047Y-24074380D01*
X162084095Y-24074380D01*
X162084095Y-23074380D01*
X162417428Y-23074380D01*
X162512666Y-23122000D01*
X162560285Y-23169619D01*
X162607904Y-23264857D01*
X162607904Y-23360095D01*
X162560285Y-23455333D01*
X162512666Y-23502952D01*
X162417428Y-23550571D01*
X162084095Y-23550571D01*
X163084095Y-24074380D02*
X163084095Y-23074380D01*
X163417428Y-23788666D01*
X163750761Y-23074380D01*
X163750761Y-24074380D01*
X164226952Y-24074380D02*
X164226952Y-23074380D01*
X164607904Y-23074380D01*
X164703142Y-23122000D01*
X164750761Y-23169619D01*
X164798380Y-23264857D01*
X164798380Y-23407714D01*
X164750761Y-23502952D01*
X164703142Y-23550571D01*
X164607904Y-23598190D01*
X164226952Y-23598190D01*
X165750761Y-24074380D02*
X165179333Y-24074380D01*
X165465047Y-24074380D02*
X165465047Y-23074380D01*
X165369809Y-23217238D01*
X165274571Y-23312476D01*
X165179333Y-23360095D01*
X166322190Y-23502952D02*
X166226952Y-23455333D01*
X166179333Y-23407714D01*
X166131714Y-23312476D01*
X166131714Y-23264857D01*
X166179333Y-23169619D01*
X166226952Y-23122000D01*
X166322190Y-23074380D01*
X166512666Y-23074380D01*
X166607904Y-23122000D01*
X166655523Y-23169619D01*
X166703142Y-23264857D01*
X166703142Y-23312476D01*
X166655523Y-23407714D01*
X166607904Y-23455333D01*
X166512666Y-23502952D01*
X166322190Y-23502952D01*
X166226952Y-23550571D01*
X166179333Y-23598190D01*
X166131714Y-23693428D01*
X166131714Y-23883904D01*
X166179333Y-23979142D01*
X166226952Y-24026761D01*
X166322190Y-24074380D01*
X166512666Y-24074380D01*
X166607904Y-24026761D01*
X166655523Y-23979142D01*
X166703142Y-23883904D01*
X166703142Y-23693428D01*
X166655523Y-23598190D01*
X166607904Y-23550571D01*
X166512666Y-23502952D01*
X167322190Y-23074380D02*
X167417428Y-23074380D01*
X167512666Y-23122000D01*
X167560285Y-23169619D01*
X167607904Y-23264857D01*
X167655523Y-23455333D01*
X167655523Y-23693428D01*
X167607904Y-23883904D01*
X167560285Y-23979142D01*
X167512666Y-24026761D01*
X167417428Y-24074380D01*
X167322190Y-24074380D01*
X167226952Y-24026761D01*
X167179333Y-23979142D01*
X167131714Y-23883904D01*
X167084095Y-23693428D01*
X167084095Y-23455333D01*
X167131714Y-23264857D01*
X167179333Y-23169619D01*
X167226952Y-23122000D01*
X167322190Y-23074380D01*
D11*
X179832000Y-24384000D02*
X179832000Y-37846000D01*
X164338000Y-24384000D02*
X179832000Y-24384000D01*
X164338000Y-37846000D02*
X164338000Y-24384000D01*
X179832000Y-37846000D02*
X164338000Y-37846000D01*
X162052000Y-27888000D02*
X162052000Y-34088000D01*
X173873000Y-34088000D02*
X173873000Y-27888000D01*
X162052000Y-27888000D02*
X164148000Y-27888000D01*
X165798000Y-27888000D02*
X167148000Y-27888000D01*
X168798000Y-27888000D02*
X171198000Y-27888000D01*
X172748000Y-27888000D02*
X173873000Y-27888000D01*
X172298000Y-34088000D02*
X162052000Y-34088000D01*
D10*
X174466380Y-25360380D02*
X175085428Y-25360380D01*
X174752095Y-25741333D01*
X174894952Y-25741333D01*
X174990190Y-25788952D01*
X175037809Y-25836571D01*
X175085428Y-25931809D01*
X175085428Y-26169904D01*
X175037809Y-26265142D01*
X174990190Y-26312761D01*
X174894952Y-26360380D01*
X174609238Y-26360380D01*
X174514000Y-26312761D01*
X174466380Y-26265142D01*
X175514000Y-26265142D02*
X175561619Y-26312761D01*
X175514000Y-26360380D01*
X175466380Y-26312761D01*
X175514000Y-26265142D01*
X175514000Y-26360380D01*
X175894952Y-25360380D02*
X176514000Y-25360380D01*
X176180666Y-25741333D01*
X176323523Y-25741333D01*
X176418761Y-25788952D01*
X176466380Y-25836571D01*
X176514000Y-25931809D01*
X176514000Y-26169904D01*
X176466380Y-26265142D01*
X176418761Y-26312761D01*
X176323523Y-26360380D01*
X176037809Y-26360380D01*
X175942571Y-26312761D01*
X175894952Y-26265142D01*
X174299714Y-28852761D02*
X174442571Y-28900380D01*
X174680666Y-28900380D01*
X174775904Y-28852761D01*
X174823523Y-28805142D01*
X174871142Y-28709904D01*
X174871142Y-28614666D01*
X174823523Y-28519428D01*
X174775904Y-28471809D01*
X174680666Y-28424190D01*
X174490190Y-28376571D01*
X174394952Y-28328952D01*
X174347333Y-28281333D01*
X174299714Y-28186095D01*
X174299714Y-28090857D01*
X174347333Y-27995619D01*
X174394952Y-27948000D01*
X174490190Y-27900380D01*
X174728285Y-27900380D01*
X174871142Y-27948000D01*
X175299714Y-28900380D02*
X175299714Y-27900380D01*
X175537809Y-27900380D01*
X175680666Y-27948000D01*
X175775904Y-28043238D01*
X175823523Y-28138476D01*
X175871142Y-28328952D01*
X175871142Y-28471809D01*
X175823523Y-28662285D01*
X175775904Y-28757523D01*
X175680666Y-28852761D01*
X175537809Y-28900380D01*
X175299714Y-28900380D01*
X176252095Y-28614666D02*
X176728285Y-28614666D01*
X176156857Y-28900380D02*
X176490190Y-27900380D01*
X176823523Y-28900380D01*
X174323523Y-31392761D02*
X174466380Y-31440380D01*
X174704476Y-31440380D01*
X174799714Y-31392761D01*
X174847333Y-31345142D01*
X174894952Y-31249904D01*
X174894952Y-31154666D01*
X174847333Y-31059428D01*
X174799714Y-31011809D01*
X174704476Y-30964190D01*
X174514000Y-30916571D01*
X174418761Y-30868952D01*
X174371142Y-30821333D01*
X174323523Y-30726095D01*
X174323523Y-30630857D01*
X174371142Y-30535619D01*
X174418761Y-30488000D01*
X174514000Y-30440380D01*
X174752095Y-30440380D01*
X174894952Y-30488000D01*
X175894952Y-31345142D02*
X175847333Y-31392761D01*
X175704476Y-31440380D01*
X175609238Y-31440380D01*
X175466380Y-31392761D01*
X175371142Y-31297523D01*
X175323523Y-31202285D01*
X175275904Y-31011809D01*
X175275904Y-30868952D01*
X175323523Y-30678476D01*
X175371142Y-30583238D01*
X175466380Y-30488000D01*
X175609238Y-30440380D01*
X175704476Y-30440380D01*
X175847333Y-30488000D01*
X175894952Y-30535619D01*
X176799714Y-31440380D02*
X176323523Y-31440380D01*
X176323523Y-30440380D01*
X174752095Y-33028000D02*
X174656857Y-32980380D01*
X174514000Y-32980380D01*
X174371142Y-33028000D01*
X174275904Y-33123238D01*
X174228285Y-33218476D01*
X174180666Y-33408952D01*
X174180666Y-33551809D01*
X174228285Y-33742285D01*
X174275904Y-33837523D01*
X174371142Y-33932761D01*
X174514000Y-33980380D01*
X174609238Y-33980380D01*
X174752095Y-33932761D01*
X174799714Y-33885142D01*
X174799714Y-33551809D01*
X174609238Y-33551809D01*
X175228285Y-33980380D02*
X175228285Y-32980380D01*
X175799714Y-33980380D01*
X175799714Y-32980380D01*
X176275904Y-33980380D02*
X176275904Y-32980380D01*
X176514000Y-32980380D01*
X176656857Y-33028000D01*
X176752095Y-33123238D01*
X176799714Y-33218476D01*
X176847333Y-33408952D01*
X176847333Y-33551809D01*
X176799714Y-33742285D01*
X176752095Y-33837523D01*
X176656857Y-33932761D01*
X176514000Y-33980380D01*
X176275904Y-33980380D01*
X174180666Y-35520380D02*
X174514000Y-36520380D01*
X174847333Y-35520380D01*
X175752095Y-36425142D02*
X175704476Y-36472761D01*
X175561619Y-36520380D01*
X175466380Y-36520380D01*
X175323523Y-36472761D01*
X175228285Y-36377523D01*
X175180666Y-36282285D01*
X175133047Y-36091809D01*
X175133047Y-35948952D01*
X175180666Y-35758476D01*
X175228285Y-35663238D01*
X175323523Y-35568000D01*
X175466380Y-35520380D01*
X175561619Y-35520380D01*
X175704476Y-35568000D01*
X175752095Y-35615619D01*
X176752095Y-36425142D02*
X176704476Y-36472761D01*
X176561619Y-36520380D01*
X176466380Y-36520380D01*
X176323523Y-36472761D01*
X176228285Y-36377523D01*
X176180666Y-36282285D01*
X176133047Y-36091809D01*
X176133047Y-35948952D01*
X176180666Y-35758476D01*
X176228285Y-35663238D01*
X176323523Y-35568000D01*
X176466380Y-35520380D01*
X176561619Y-35520380D01*
X176704476Y-35568000D01*
X176752095Y-35615619D01*
M02*
