G04 #@! TF.GenerationSoftware,KiCad,Pcbnew,(5.1.5)-3*
G04 #@! TF.CreationDate,2020-12-21T12:30:09+01:00*
G04 #@! TF.ProjectId,epimetheus_bmp180,6570696d-6574-4686-9575-735f626d7031,rev?*
G04 #@! TF.SameCoordinates,Original*
G04 #@! TF.FileFunction,Copper,L1,Top*
G04 #@! TF.FilePolarity,Positive*
%FSLAX46Y46*%
G04 Gerber Fmt 4.6, Leading zero omitted, Abs format (unit mm)*
G04 Created by KiCad (PCBNEW (5.1.5)-3) date 2020-12-21 12:30:09*
%MOMM*%
%LPD*%
G04 APERTURE LIST*
%ADD10C,1.524000*%
%ADD11C,0.100000*%
%ADD12C,0.800000*%
%ADD13C,0.250000*%
%ADD14C,0.254000*%
G04 APERTURE END LIST*
D10*
X178308000Y-25908000D03*
X178308000Y-28448000D03*
X178308000Y-30988000D03*
X178308000Y-33528000D03*
X178308000Y-36068000D03*
G04 #@! TA.AperFunction,SMDPad,CuDef*
D11*
G36*
X165302405Y-24817445D02*
G01*
X165331527Y-24821764D01*
X165360085Y-24828918D01*
X165387805Y-24838836D01*
X165414419Y-24851424D01*
X165439671Y-24866559D01*
X165463318Y-24884097D01*
X165485132Y-24903868D01*
X165504903Y-24925682D01*
X165522441Y-24949329D01*
X165537576Y-24974581D01*
X165550164Y-25001195D01*
X165560082Y-25028915D01*
X165567236Y-25057473D01*
X165571555Y-25086595D01*
X165573000Y-25116000D01*
X165573000Y-27716000D01*
X165571555Y-27745405D01*
X165567236Y-27774527D01*
X165560082Y-27803085D01*
X165550164Y-27830805D01*
X165537576Y-27857419D01*
X165522441Y-27882671D01*
X165504903Y-27906318D01*
X165485132Y-27928132D01*
X165463318Y-27947903D01*
X165439671Y-27965441D01*
X165414419Y-27980576D01*
X165387805Y-27993164D01*
X165360085Y-28003082D01*
X165331527Y-28010236D01*
X165302405Y-28014555D01*
X165273000Y-28016000D01*
X164673000Y-28016000D01*
X164643595Y-28014555D01*
X164614473Y-28010236D01*
X164585915Y-28003082D01*
X164558195Y-27993164D01*
X164531581Y-27980576D01*
X164506329Y-27965441D01*
X164482682Y-27947903D01*
X164460868Y-27928132D01*
X164441097Y-27906318D01*
X164423559Y-27882671D01*
X164408424Y-27857419D01*
X164395836Y-27830805D01*
X164385918Y-27803085D01*
X164378764Y-27774527D01*
X164374445Y-27745405D01*
X164373000Y-27716000D01*
X164373000Y-25116000D01*
X164374445Y-25086595D01*
X164378764Y-25057473D01*
X164385918Y-25028915D01*
X164395836Y-25001195D01*
X164408424Y-24974581D01*
X164423559Y-24949329D01*
X164441097Y-24925682D01*
X164460868Y-24903868D01*
X164482682Y-24884097D01*
X164506329Y-24866559D01*
X164531581Y-24851424D01*
X164558195Y-24838836D01*
X164585915Y-24828918D01*
X164614473Y-24821764D01*
X164643595Y-24817445D01*
X164673000Y-24816000D01*
X165273000Y-24816000D01*
X165302405Y-24817445D01*
G37*
G04 #@! TD.AperFunction*
G04 #@! TA.AperFunction,SMDPad,CuDef*
G36*
X168302405Y-24817445D02*
G01*
X168331527Y-24821764D01*
X168360085Y-24828918D01*
X168387805Y-24838836D01*
X168414419Y-24851424D01*
X168439671Y-24866559D01*
X168463318Y-24884097D01*
X168485132Y-24903868D01*
X168504903Y-24925682D01*
X168522441Y-24949329D01*
X168537576Y-24974581D01*
X168550164Y-25001195D01*
X168560082Y-25028915D01*
X168567236Y-25057473D01*
X168571555Y-25086595D01*
X168573000Y-25116000D01*
X168573000Y-27716000D01*
X168571555Y-27745405D01*
X168567236Y-27774527D01*
X168560082Y-27803085D01*
X168550164Y-27830805D01*
X168537576Y-27857419D01*
X168522441Y-27882671D01*
X168504903Y-27906318D01*
X168485132Y-27928132D01*
X168463318Y-27947903D01*
X168439671Y-27965441D01*
X168414419Y-27980576D01*
X168387805Y-27993164D01*
X168360085Y-28003082D01*
X168331527Y-28010236D01*
X168302405Y-28014555D01*
X168273000Y-28016000D01*
X167673000Y-28016000D01*
X167643595Y-28014555D01*
X167614473Y-28010236D01*
X167585915Y-28003082D01*
X167558195Y-27993164D01*
X167531581Y-27980576D01*
X167506329Y-27965441D01*
X167482682Y-27947903D01*
X167460868Y-27928132D01*
X167441097Y-27906318D01*
X167423559Y-27882671D01*
X167408424Y-27857419D01*
X167395836Y-27830805D01*
X167385918Y-27803085D01*
X167378764Y-27774527D01*
X167374445Y-27745405D01*
X167373000Y-27716000D01*
X167373000Y-25116000D01*
X167374445Y-25086595D01*
X167378764Y-25057473D01*
X167385918Y-25028915D01*
X167395836Y-25001195D01*
X167408424Y-24974581D01*
X167423559Y-24949329D01*
X167441097Y-24925682D01*
X167460868Y-24903868D01*
X167482682Y-24884097D01*
X167506329Y-24866559D01*
X167531581Y-24851424D01*
X167558195Y-24838836D01*
X167585915Y-24828918D01*
X167614473Y-24821764D01*
X167643595Y-24817445D01*
X167673000Y-24816000D01*
X168273000Y-24816000D01*
X168302405Y-24817445D01*
G37*
G04 #@! TD.AperFunction*
G04 #@! TA.AperFunction,SMDPad,CuDef*
G36*
X172287405Y-24817445D02*
G01*
X172316527Y-24821764D01*
X172345085Y-24828918D01*
X172372805Y-24838836D01*
X172399419Y-24851424D01*
X172424671Y-24866559D01*
X172448318Y-24884097D01*
X172470132Y-24903868D01*
X172489903Y-24925682D01*
X172507441Y-24949329D01*
X172522576Y-24974581D01*
X172535164Y-25001195D01*
X172545082Y-25028915D01*
X172552236Y-25057473D01*
X172556555Y-25086595D01*
X172558000Y-25116000D01*
X172558000Y-27716000D01*
X172556555Y-27745405D01*
X172552236Y-27774527D01*
X172545082Y-27803085D01*
X172535164Y-27830805D01*
X172522576Y-27857419D01*
X172507441Y-27882671D01*
X172489903Y-27906318D01*
X172470132Y-27928132D01*
X172448318Y-27947903D01*
X172424671Y-27965441D01*
X172399419Y-27980576D01*
X172372805Y-27993164D01*
X172345085Y-28003082D01*
X172316527Y-28010236D01*
X172287405Y-28014555D01*
X172258000Y-28016000D01*
X171658000Y-28016000D01*
X171628595Y-28014555D01*
X171599473Y-28010236D01*
X171570915Y-28003082D01*
X171543195Y-27993164D01*
X171516581Y-27980576D01*
X171491329Y-27965441D01*
X171467682Y-27947903D01*
X171445868Y-27928132D01*
X171426097Y-27906318D01*
X171408559Y-27882671D01*
X171393424Y-27857419D01*
X171380836Y-27830805D01*
X171370918Y-27803085D01*
X171363764Y-27774527D01*
X171359445Y-27745405D01*
X171358000Y-27716000D01*
X171358000Y-25116000D01*
X171359445Y-25086595D01*
X171363764Y-25057473D01*
X171370918Y-25028915D01*
X171380836Y-25001195D01*
X171393424Y-24974581D01*
X171408559Y-24949329D01*
X171426097Y-24925682D01*
X171445868Y-24903868D01*
X171467682Y-24884097D01*
X171491329Y-24866559D01*
X171516581Y-24851424D01*
X171543195Y-24838836D01*
X171570915Y-24828918D01*
X171599473Y-24821764D01*
X171628595Y-24817445D01*
X171658000Y-24816000D01*
X172258000Y-24816000D01*
X172287405Y-24817445D01*
G37*
G04 #@! TD.AperFunction*
G04 #@! TA.AperFunction,SMDPad,CuDef*
G36*
X173402405Y-33961445D02*
G01*
X173431527Y-33965764D01*
X173460085Y-33972918D01*
X173487805Y-33982836D01*
X173514419Y-33995424D01*
X173539671Y-34010559D01*
X173563318Y-34028097D01*
X173585132Y-34047868D01*
X173604903Y-34069682D01*
X173622441Y-34093329D01*
X173637576Y-34118581D01*
X173650164Y-34145195D01*
X173660082Y-34172915D01*
X173667236Y-34201473D01*
X173671555Y-34230595D01*
X173673000Y-34260000D01*
X173673000Y-36860000D01*
X173671555Y-36889405D01*
X173667236Y-36918527D01*
X173660082Y-36947085D01*
X173650164Y-36974805D01*
X173637576Y-37001419D01*
X173622441Y-37026671D01*
X173604903Y-37050318D01*
X173585132Y-37072132D01*
X173563318Y-37091903D01*
X173539671Y-37109441D01*
X173514419Y-37124576D01*
X173487805Y-37137164D01*
X173460085Y-37147082D01*
X173431527Y-37154236D01*
X173402405Y-37158555D01*
X173373000Y-37160000D01*
X172773000Y-37160000D01*
X172743595Y-37158555D01*
X172714473Y-37154236D01*
X172685915Y-37147082D01*
X172658195Y-37137164D01*
X172631581Y-37124576D01*
X172606329Y-37109441D01*
X172582682Y-37091903D01*
X172560868Y-37072132D01*
X172541097Y-37050318D01*
X172523559Y-37026671D01*
X172508424Y-37001419D01*
X172495836Y-36974805D01*
X172485918Y-36947085D01*
X172478764Y-36918527D01*
X172474445Y-36889405D01*
X172473000Y-36860000D01*
X172473000Y-34260000D01*
X172474445Y-34230595D01*
X172478764Y-34201473D01*
X172485918Y-34172915D01*
X172495836Y-34145195D01*
X172508424Y-34118581D01*
X172523559Y-34093329D01*
X172541097Y-34069682D01*
X172560868Y-34047868D01*
X172582682Y-34028097D01*
X172606329Y-34010559D01*
X172631581Y-33995424D01*
X172658195Y-33982836D01*
X172685915Y-33972918D01*
X172714473Y-33965764D01*
X172743595Y-33961445D01*
X172773000Y-33960000D01*
X173373000Y-33960000D01*
X173402405Y-33961445D01*
G37*
G04 #@! TD.AperFunction*
D12*
X169164000Y-27432000D03*
D13*
X176276000Y-35560000D02*
X173073000Y-35560000D01*
X178308000Y-33528000D02*
X176276000Y-35560000D01*
X177546001Y-29209999D02*
X165607999Y-29209999D01*
X178308000Y-28448000D02*
X177546001Y-29209999D01*
X164973000Y-28575000D02*
X164973000Y-26416000D01*
X165607999Y-29209999D02*
X164973000Y-28575000D01*
X168989000Y-27432000D02*
X167973000Y-26416000D01*
X169164000Y-27432000D02*
X168989000Y-27432000D01*
X177800000Y-26416000D02*
X178308000Y-25908000D01*
X171958000Y-26416000D02*
X177800000Y-26416000D01*
D14*
G36*
X180442000Y-38202000D02*
G01*
X162458000Y-38202000D01*
X162458000Y-37160000D01*
X171834928Y-37160000D01*
X171847188Y-37284482D01*
X171883498Y-37404180D01*
X171942463Y-37514494D01*
X172021815Y-37611185D01*
X172118506Y-37690537D01*
X172228820Y-37749502D01*
X172348518Y-37785812D01*
X172473000Y-37798072D01*
X172787250Y-37795000D01*
X172946000Y-37636250D01*
X172946000Y-35687000D01*
X173200000Y-35687000D01*
X173200000Y-37636250D01*
X173358750Y-37795000D01*
X173673000Y-37798072D01*
X173797482Y-37785812D01*
X173917180Y-37749502D01*
X174027494Y-37690537D01*
X174124185Y-37611185D01*
X174203537Y-37514494D01*
X174262502Y-37404180D01*
X174298812Y-37284482D01*
X174311072Y-37160000D01*
X174308198Y-35930408D01*
X176911000Y-35930408D01*
X176911000Y-36205592D01*
X176964686Y-36475490D01*
X177069995Y-36729727D01*
X177222880Y-36958535D01*
X177417465Y-37153120D01*
X177646273Y-37306005D01*
X177900510Y-37411314D01*
X178170408Y-37465000D01*
X178445592Y-37465000D01*
X178715490Y-37411314D01*
X178969727Y-37306005D01*
X179198535Y-37153120D01*
X179393120Y-36958535D01*
X179546005Y-36729727D01*
X179651314Y-36475490D01*
X179705000Y-36205592D01*
X179705000Y-35930408D01*
X179651314Y-35660510D01*
X179546005Y-35406273D01*
X179393120Y-35177465D01*
X179198535Y-34982880D01*
X178969727Y-34829995D01*
X178898057Y-34800308D01*
X178911023Y-34795636D01*
X179026980Y-34733656D01*
X179093960Y-34493565D01*
X178308000Y-33707605D01*
X177522040Y-34493565D01*
X177589020Y-34733656D01*
X177724760Y-34797485D01*
X177646273Y-34829995D01*
X177417465Y-34982880D01*
X177222880Y-35177465D01*
X177069995Y-35406273D01*
X176964686Y-35660510D01*
X176911000Y-35930408D01*
X174308198Y-35930408D01*
X174308000Y-35845750D01*
X174149250Y-35687000D01*
X173200000Y-35687000D01*
X172946000Y-35687000D01*
X171996750Y-35687000D01*
X171838000Y-35845750D01*
X171834928Y-37160000D01*
X162458000Y-37160000D01*
X162458000Y-33960000D01*
X171834928Y-33960000D01*
X171838000Y-35274250D01*
X171996750Y-35433000D01*
X172946000Y-35433000D01*
X172946000Y-33483750D01*
X173200000Y-33483750D01*
X173200000Y-35433000D01*
X174149250Y-35433000D01*
X174308000Y-35274250D01*
X174311072Y-33960000D01*
X174298812Y-33835518D01*
X174262502Y-33715820D01*
X174203537Y-33605506D01*
X174199033Y-33600017D01*
X176906090Y-33600017D01*
X176947078Y-33872133D01*
X177040364Y-34131023D01*
X177102344Y-34246980D01*
X177342435Y-34313960D01*
X178128395Y-33528000D01*
X178487605Y-33528000D01*
X179273565Y-34313960D01*
X179513656Y-34246980D01*
X179630756Y-33997952D01*
X179697023Y-33730865D01*
X179709910Y-33455983D01*
X179668922Y-33183867D01*
X179575636Y-32924977D01*
X179513656Y-32809020D01*
X179273565Y-32742040D01*
X178487605Y-33528000D01*
X178128395Y-33528000D01*
X177342435Y-32742040D01*
X177102344Y-32809020D01*
X176985244Y-33058048D01*
X176918977Y-33325135D01*
X176906090Y-33600017D01*
X174199033Y-33600017D01*
X174124185Y-33508815D01*
X174027494Y-33429463D01*
X173917180Y-33370498D01*
X173797482Y-33334188D01*
X173673000Y-33321928D01*
X173358750Y-33325000D01*
X173200000Y-33483750D01*
X172946000Y-33483750D01*
X172787250Y-33325000D01*
X172473000Y-33321928D01*
X172348518Y-33334188D01*
X172228820Y-33370498D01*
X172118506Y-33429463D01*
X172021815Y-33508815D01*
X171942463Y-33605506D01*
X171883498Y-33715820D01*
X171847188Y-33835518D01*
X171834928Y-33960000D01*
X162458000Y-33960000D01*
X162458000Y-32031685D01*
X162490114Y-32063799D01*
X162716957Y-32215371D01*
X162969011Y-32319775D01*
X163236589Y-32373000D01*
X163509411Y-32373000D01*
X163776989Y-32319775D01*
X164029043Y-32215371D01*
X164255886Y-32063799D01*
X164448799Y-31870886D01*
X164600371Y-31644043D01*
X164704775Y-31391989D01*
X164758000Y-31124411D01*
X164758000Y-30851589D01*
X164704775Y-30584011D01*
X164600371Y-30331957D01*
X164448799Y-30105114D01*
X164255886Y-29912201D01*
X164029043Y-29760629D01*
X163776989Y-29656225D01*
X163509411Y-29603000D01*
X163236589Y-29603000D01*
X162969011Y-29656225D01*
X162716957Y-29760629D01*
X162490114Y-29912201D01*
X162458000Y-29944315D01*
X162458000Y-25116000D01*
X163734928Y-25116000D01*
X163734928Y-27716000D01*
X163752953Y-27899009D01*
X163806334Y-28074985D01*
X163893022Y-28237165D01*
X164009683Y-28379317D01*
X164151835Y-28495978D01*
X164213000Y-28528672D01*
X164213000Y-28537677D01*
X164209324Y-28575000D01*
X164213000Y-28612322D01*
X164213000Y-28612332D01*
X164223997Y-28723985D01*
X164242725Y-28785723D01*
X164267454Y-28867246D01*
X164338026Y-28999276D01*
X164377871Y-29047826D01*
X164432999Y-29115001D01*
X164462002Y-29138803D01*
X165044199Y-29721001D01*
X165067998Y-29750000D01*
X165183723Y-29844973D01*
X165315752Y-29915545D01*
X165459013Y-29959002D01*
X165570666Y-29969999D01*
X165570675Y-29969999D01*
X165607998Y-29973675D01*
X165645321Y-29969999D01*
X169432316Y-29969999D01*
X169297201Y-30105114D01*
X169145629Y-30331957D01*
X169041225Y-30584011D01*
X168988000Y-30851589D01*
X168988000Y-31124411D01*
X169041225Y-31391989D01*
X169145629Y-31644043D01*
X169297201Y-31870886D01*
X169490114Y-32063799D01*
X169716957Y-32215371D01*
X169969011Y-32319775D01*
X170236589Y-32373000D01*
X170509411Y-32373000D01*
X170776989Y-32319775D01*
X171029043Y-32215371D01*
X171255886Y-32063799D01*
X171448799Y-31870886D01*
X171600371Y-31644043D01*
X171704775Y-31391989D01*
X171758000Y-31124411D01*
X171758000Y-30851589D01*
X171704775Y-30584011D01*
X171600371Y-30331957D01*
X171448799Y-30105114D01*
X171313684Y-29969999D01*
X177350346Y-29969999D01*
X177222880Y-30097465D01*
X177069995Y-30326273D01*
X176964686Y-30580510D01*
X176911000Y-30850408D01*
X176911000Y-31125592D01*
X176964686Y-31395490D01*
X177069995Y-31649727D01*
X177222880Y-31878535D01*
X177417465Y-32073120D01*
X177646273Y-32226005D01*
X177717943Y-32255692D01*
X177704977Y-32260364D01*
X177589020Y-32322344D01*
X177522040Y-32562435D01*
X178308000Y-33348395D01*
X179093960Y-32562435D01*
X179026980Y-32322344D01*
X178891240Y-32258515D01*
X178969727Y-32226005D01*
X179198535Y-32073120D01*
X179393120Y-31878535D01*
X179546005Y-31649727D01*
X179651314Y-31395490D01*
X179705000Y-31125592D01*
X179705000Y-30850408D01*
X179651314Y-30580510D01*
X179546005Y-30326273D01*
X179393120Y-30097465D01*
X179198535Y-29902880D01*
X178969727Y-29749995D01*
X178892485Y-29718000D01*
X178969727Y-29686005D01*
X179198535Y-29533120D01*
X179393120Y-29338535D01*
X179546005Y-29109727D01*
X179651314Y-28855490D01*
X179705000Y-28585592D01*
X179705000Y-28310408D01*
X179651314Y-28040510D01*
X179546005Y-27786273D01*
X179393120Y-27557465D01*
X179198535Y-27362880D01*
X178969727Y-27209995D01*
X178892485Y-27178000D01*
X178969727Y-27146005D01*
X179198535Y-26993120D01*
X179393120Y-26798535D01*
X179546005Y-26569727D01*
X179651314Y-26315490D01*
X179705000Y-26045592D01*
X179705000Y-25770408D01*
X179651314Y-25500510D01*
X179546005Y-25246273D01*
X179393120Y-25017465D01*
X179198535Y-24822880D01*
X178969727Y-24669995D01*
X178715490Y-24564686D01*
X178445592Y-24511000D01*
X178170408Y-24511000D01*
X177900510Y-24564686D01*
X177646273Y-24669995D01*
X177417465Y-24822880D01*
X177222880Y-25017465D01*
X177069995Y-25246273D01*
X176964686Y-25500510D01*
X176933757Y-25656000D01*
X173196072Y-25656000D01*
X173196072Y-25116000D01*
X173178047Y-24932991D01*
X173124666Y-24757015D01*
X173037978Y-24594835D01*
X172921317Y-24452683D01*
X172779165Y-24336022D01*
X172616985Y-24249334D01*
X172441009Y-24195953D01*
X172258000Y-24177928D01*
X171658000Y-24177928D01*
X171474991Y-24195953D01*
X171299015Y-24249334D01*
X171136835Y-24336022D01*
X170994683Y-24452683D01*
X170878022Y-24594835D01*
X170791334Y-24757015D01*
X170737953Y-24932991D01*
X170719928Y-25116000D01*
X170719928Y-27716000D01*
X170737953Y-27899009D01*
X170791334Y-28074985D01*
X170878022Y-28237165D01*
X170994683Y-28379317D01*
X171080809Y-28449999D01*
X169351409Y-28449999D01*
X169465898Y-28427226D01*
X169654256Y-28349205D01*
X169823774Y-28235937D01*
X169967937Y-28091774D01*
X170081205Y-27922256D01*
X170159226Y-27733898D01*
X170199000Y-27533939D01*
X170199000Y-27330061D01*
X170159226Y-27130102D01*
X170081205Y-26941744D01*
X169967937Y-26772226D01*
X169823774Y-26628063D01*
X169654256Y-26514795D01*
X169465898Y-26436774D01*
X169265939Y-26397000D01*
X169211072Y-26397000D01*
X169211072Y-25116000D01*
X169193047Y-24932991D01*
X169139666Y-24757015D01*
X169052978Y-24594835D01*
X168936317Y-24452683D01*
X168794165Y-24336022D01*
X168631985Y-24249334D01*
X168456009Y-24195953D01*
X168273000Y-24177928D01*
X167673000Y-24177928D01*
X167489991Y-24195953D01*
X167314015Y-24249334D01*
X167151835Y-24336022D01*
X167009683Y-24452683D01*
X166893022Y-24594835D01*
X166806334Y-24757015D01*
X166752953Y-24932991D01*
X166734928Y-25116000D01*
X166734928Y-27716000D01*
X166752953Y-27899009D01*
X166806334Y-28074985D01*
X166893022Y-28237165D01*
X167009683Y-28379317D01*
X167095809Y-28449999D01*
X165922801Y-28449999D01*
X165890071Y-28417270D01*
X165936317Y-28379317D01*
X166052978Y-28237165D01*
X166139666Y-28074985D01*
X166193047Y-27899009D01*
X166211072Y-27716000D01*
X166211072Y-25116000D01*
X166193047Y-24932991D01*
X166139666Y-24757015D01*
X166052978Y-24594835D01*
X165936317Y-24452683D01*
X165794165Y-24336022D01*
X165631985Y-24249334D01*
X165456009Y-24195953D01*
X165273000Y-24177928D01*
X164673000Y-24177928D01*
X164489991Y-24195953D01*
X164314015Y-24249334D01*
X164151835Y-24336022D01*
X164009683Y-24452683D01*
X163893022Y-24594835D01*
X163806334Y-24757015D01*
X163752953Y-24932991D01*
X163734928Y-25116000D01*
X162458000Y-25116000D01*
X162458000Y-23520000D01*
X180442001Y-23520000D01*
X180442000Y-38202000D01*
G37*
X180442000Y-38202000D02*
X162458000Y-38202000D01*
X162458000Y-37160000D01*
X171834928Y-37160000D01*
X171847188Y-37284482D01*
X171883498Y-37404180D01*
X171942463Y-37514494D01*
X172021815Y-37611185D01*
X172118506Y-37690537D01*
X172228820Y-37749502D01*
X172348518Y-37785812D01*
X172473000Y-37798072D01*
X172787250Y-37795000D01*
X172946000Y-37636250D01*
X172946000Y-35687000D01*
X173200000Y-35687000D01*
X173200000Y-37636250D01*
X173358750Y-37795000D01*
X173673000Y-37798072D01*
X173797482Y-37785812D01*
X173917180Y-37749502D01*
X174027494Y-37690537D01*
X174124185Y-37611185D01*
X174203537Y-37514494D01*
X174262502Y-37404180D01*
X174298812Y-37284482D01*
X174311072Y-37160000D01*
X174308198Y-35930408D01*
X176911000Y-35930408D01*
X176911000Y-36205592D01*
X176964686Y-36475490D01*
X177069995Y-36729727D01*
X177222880Y-36958535D01*
X177417465Y-37153120D01*
X177646273Y-37306005D01*
X177900510Y-37411314D01*
X178170408Y-37465000D01*
X178445592Y-37465000D01*
X178715490Y-37411314D01*
X178969727Y-37306005D01*
X179198535Y-37153120D01*
X179393120Y-36958535D01*
X179546005Y-36729727D01*
X179651314Y-36475490D01*
X179705000Y-36205592D01*
X179705000Y-35930408D01*
X179651314Y-35660510D01*
X179546005Y-35406273D01*
X179393120Y-35177465D01*
X179198535Y-34982880D01*
X178969727Y-34829995D01*
X178898057Y-34800308D01*
X178911023Y-34795636D01*
X179026980Y-34733656D01*
X179093960Y-34493565D01*
X178308000Y-33707605D01*
X177522040Y-34493565D01*
X177589020Y-34733656D01*
X177724760Y-34797485D01*
X177646273Y-34829995D01*
X177417465Y-34982880D01*
X177222880Y-35177465D01*
X177069995Y-35406273D01*
X176964686Y-35660510D01*
X176911000Y-35930408D01*
X174308198Y-35930408D01*
X174308000Y-35845750D01*
X174149250Y-35687000D01*
X173200000Y-35687000D01*
X172946000Y-35687000D01*
X171996750Y-35687000D01*
X171838000Y-35845750D01*
X171834928Y-37160000D01*
X162458000Y-37160000D01*
X162458000Y-33960000D01*
X171834928Y-33960000D01*
X171838000Y-35274250D01*
X171996750Y-35433000D01*
X172946000Y-35433000D01*
X172946000Y-33483750D01*
X173200000Y-33483750D01*
X173200000Y-35433000D01*
X174149250Y-35433000D01*
X174308000Y-35274250D01*
X174311072Y-33960000D01*
X174298812Y-33835518D01*
X174262502Y-33715820D01*
X174203537Y-33605506D01*
X174199033Y-33600017D01*
X176906090Y-33600017D01*
X176947078Y-33872133D01*
X177040364Y-34131023D01*
X177102344Y-34246980D01*
X177342435Y-34313960D01*
X178128395Y-33528000D01*
X178487605Y-33528000D01*
X179273565Y-34313960D01*
X179513656Y-34246980D01*
X179630756Y-33997952D01*
X179697023Y-33730865D01*
X179709910Y-33455983D01*
X179668922Y-33183867D01*
X179575636Y-32924977D01*
X179513656Y-32809020D01*
X179273565Y-32742040D01*
X178487605Y-33528000D01*
X178128395Y-33528000D01*
X177342435Y-32742040D01*
X177102344Y-32809020D01*
X176985244Y-33058048D01*
X176918977Y-33325135D01*
X176906090Y-33600017D01*
X174199033Y-33600017D01*
X174124185Y-33508815D01*
X174027494Y-33429463D01*
X173917180Y-33370498D01*
X173797482Y-33334188D01*
X173673000Y-33321928D01*
X173358750Y-33325000D01*
X173200000Y-33483750D01*
X172946000Y-33483750D01*
X172787250Y-33325000D01*
X172473000Y-33321928D01*
X172348518Y-33334188D01*
X172228820Y-33370498D01*
X172118506Y-33429463D01*
X172021815Y-33508815D01*
X171942463Y-33605506D01*
X171883498Y-33715820D01*
X171847188Y-33835518D01*
X171834928Y-33960000D01*
X162458000Y-33960000D01*
X162458000Y-32031685D01*
X162490114Y-32063799D01*
X162716957Y-32215371D01*
X162969011Y-32319775D01*
X163236589Y-32373000D01*
X163509411Y-32373000D01*
X163776989Y-32319775D01*
X164029043Y-32215371D01*
X164255886Y-32063799D01*
X164448799Y-31870886D01*
X164600371Y-31644043D01*
X164704775Y-31391989D01*
X164758000Y-31124411D01*
X164758000Y-30851589D01*
X164704775Y-30584011D01*
X164600371Y-30331957D01*
X164448799Y-30105114D01*
X164255886Y-29912201D01*
X164029043Y-29760629D01*
X163776989Y-29656225D01*
X163509411Y-29603000D01*
X163236589Y-29603000D01*
X162969011Y-29656225D01*
X162716957Y-29760629D01*
X162490114Y-29912201D01*
X162458000Y-29944315D01*
X162458000Y-25116000D01*
X163734928Y-25116000D01*
X163734928Y-27716000D01*
X163752953Y-27899009D01*
X163806334Y-28074985D01*
X163893022Y-28237165D01*
X164009683Y-28379317D01*
X164151835Y-28495978D01*
X164213000Y-28528672D01*
X164213000Y-28537677D01*
X164209324Y-28575000D01*
X164213000Y-28612322D01*
X164213000Y-28612332D01*
X164223997Y-28723985D01*
X164242725Y-28785723D01*
X164267454Y-28867246D01*
X164338026Y-28999276D01*
X164377871Y-29047826D01*
X164432999Y-29115001D01*
X164462002Y-29138803D01*
X165044199Y-29721001D01*
X165067998Y-29750000D01*
X165183723Y-29844973D01*
X165315752Y-29915545D01*
X165459013Y-29959002D01*
X165570666Y-29969999D01*
X165570675Y-29969999D01*
X165607998Y-29973675D01*
X165645321Y-29969999D01*
X169432316Y-29969999D01*
X169297201Y-30105114D01*
X169145629Y-30331957D01*
X169041225Y-30584011D01*
X168988000Y-30851589D01*
X168988000Y-31124411D01*
X169041225Y-31391989D01*
X169145629Y-31644043D01*
X169297201Y-31870886D01*
X169490114Y-32063799D01*
X169716957Y-32215371D01*
X169969011Y-32319775D01*
X170236589Y-32373000D01*
X170509411Y-32373000D01*
X170776989Y-32319775D01*
X171029043Y-32215371D01*
X171255886Y-32063799D01*
X171448799Y-31870886D01*
X171600371Y-31644043D01*
X171704775Y-31391989D01*
X171758000Y-31124411D01*
X171758000Y-30851589D01*
X171704775Y-30584011D01*
X171600371Y-30331957D01*
X171448799Y-30105114D01*
X171313684Y-29969999D01*
X177350346Y-29969999D01*
X177222880Y-30097465D01*
X177069995Y-30326273D01*
X176964686Y-30580510D01*
X176911000Y-30850408D01*
X176911000Y-31125592D01*
X176964686Y-31395490D01*
X177069995Y-31649727D01*
X177222880Y-31878535D01*
X177417465Y-32073120D01*
X177646273Y-32226005D01*
X177717943Y-32255692D01*
X177704977Y-32260364D01*
X177589020Y-32322344D01*
X177522040Y-32562435D01*
X178308000Y-33348395D01*
X179093960Y-32562435D01*
X179026980Y-32322344D01*
X178891240Y-32258515D01*
X178969727Y-32226005D01*
X179198535Y-32073120D01*
X179393120Y-31878535D01*
X179546005Y-31649727D01*
X179651314Y-31395490D01*
X179705000Y-31125592D01*
X179705000Y-30850408D01*
X179651314Y-30580510D01*
X179546005Y-30326273D01*
X179393120Y-30097465D01*
X179198535Y-29902880D01*
X178969727Y-29749995D01*
X178892485Y-29718000D01*
X178969727Y-29686005D01*
X179198535Y-29533120D01*
X179393120Y-29338535D01*
X179546005Y-29109727D01*
X179651314Y-28855490D01*
X179705000Y-28585592D01*
X179705000Y-28310408D01*
X179651314Y-28040510D01*
X179546005Y-27786273D01*
X179393120Y-27557465D01*
X179198535Y-27362880D01*
X178969727Y-27209995D01*
X178892485Y-27178000D01*
X178969727Y-27146005D01*
X179198535Y-26993120D01*
X179393120Y-26798535D01*
X179546005Y-26569727D01*
X179651314Y-26315490D01*
X179705000Y-26045592D01*
X179705000Y-25770408D01*
X179651314Y-25500510D01*
X179546005Y-25246273D01*
X179393120Y-25017465D01*
X179198535Y-24822880D01*
X178969727Y-24669995D01*
X178715490Y-24564686D01*
X178445592Y-24511000D01*
X178170408Y-24511000D01*
X177900510Y-24564686D01*
X177646273Y-24669995D01*
X177417465Y-24822880D01*
X177222880Y-25017465D01*
X177069995Y-25246273D01*
X176964686Y-25500510D01*
X176933757Y-25656000D01*
X173196072Y-25656000D01*
X173196072Y-25116000D01*
X173178047Y-24932991D01*
X173124666Y-24757015D01*
X173037978Y-24594835D01*
X172921317Y-24452683D01*
X172779165Y-24336022D01*
X172616985Y-24249334D01*
X172441009Y-24195953D01*
X172258000Y-24177928D01*
X171658000Y-24177928D01*
X171474991Y-24195953D01*
X171299015Y-24249334D01*
X171136835Y-24336022D01*
X170994683Y-24452683D01*
X170878022Y-24594835D01*
X170791334Y-24757015D01*
X170737953Y-24932991D01*
X170719928Y-25116000D01*
X170719928Y-27716000D01*
X170737953Y-27899009D01*
X170791334Y-28074985D01*
X170878022Y-28237165D01*
X170994683Y-28379317D01*
X171080809Y-28449999D01*
X169351409Y-28449999D01*
X169465898Y-28427226D01*
X169654256Y-28349205D01*
X169823774Y-28235937D01*
X169967937Y-28091774D01*
X170081205Y-27922256D01*
X170159226Y-27733898D01*
X170199000Y-27533939D01*
X170199000Y-27330061D01*
X170159226Y-27130102D01*
X170081205Y-26941744D01*
X169967937Y-26772226D01*
X169823774Y-26628063D01*
X169654256Y-26514795D01*
X169465898Y-26436774D01*
X169265939Y-26397000D01*
X169211072Y-26397000D01*
X169211072Y-25116000D01*
X169193047Y-24932991D01*
X169139666Y-24757015D01*
X169052978Y-24594835D01*
X168936317Y-24452683D01*
X168794165Y-24336022D01*
X168631985Y-24249334D01*
X168456009Y-24195953D01*
X168273000Y-24177928D01*
X167673000Y-24177928D01*
X167489991Y-24195953D01*
X167314015Y-24249334D01*
X167151835Y-24336022D01*
X167009683Y-24452683D01*
X166893022Y-24594835D01*
X166806334Y-24757015D01*
X166752953Y-24932991D01*
X166734928Y-25116000D01*
X166734928Y-27716000D01*
X166752953Y-27899009D01*
X166806334Y-28074985D01*
X166893022Y-28237165D01*
X167009683Y-28379317D01*
X167095809Y-28449999D01*
X165922801Y-28449999D01*
X165890071Y-28417270D01*
X165936317Y-28379317D01*
X166052978Y-28237165D01*
X166139666Y-28074985D01*
X166193047Y-27899009D01*
X166211072Y-27716000D01*
X166211072Y-25116000D01*
X166193047Y-24932991D01*
X166139666Y-24757015D01*
X166052978Y-24594835D01*
X165936317Y-24452683D01*
X165794165Y-24336022D01*
X165631985Y-24249334D01*
X165456009Y-24195953D01*
X165273000Y-24177928D01*
X164673000Y-24177928D01*
X164489991Y-24195953D01*
X164314015Y-24249334D01*
X164151835Y-24336022D01*
X164009683Y-24452683D01*
X163893022Y-24594835D01*
X163806334Y-24757015D01*
X163752953Y-24932991D01*
X163734928Y-25116000D01*
X162458000Y-25116000D01*
X162458000Y-23520000D01*
X180442001Y-23520000D01*
X180442000Y-38202000D01*
M02*
