G04 #@! TF.GenerationSoftware,KiCad,Pcbnew,(5.1.5)-3*
G04 #@! TF.CreationDate,2020-12-21T12:35:23+01:00*
G04 #@! TF.ProjectId,epimetheus_mpu6050,6570696d-6574-4686-9575-735f6d707536,rev?*
G04 #@! TF.SameCoordinates,Original*
G04 #@! TF.FileFunction,Legend,Bot*
G04 #@! TF.FilePolarity,Positive*
%FSLAX46Y46*%
G04 Gerber Fmt 4.6, Leading zero omitted, Abs format (unit mm)*
G04 Created by KiCad (PCBNEW (5.1.5)-3) date 2020-12-21 12:35:23*
%MOMM*%
%LPD*%
G04 APERTURE LIST*
%ADD10C,0.150000*%
%ADD11C,0.010000*%
G04 APERTURE END LIST*
D10*
X165091904Y-22820380D02*
X165282380Y-22820380D01*
X165377619Y-22868000D01*
X165425238Y-22915619D01*
X165520476Y-23058476D01*
X165568095Y-23248952D01*
X165568095Y-23629904D01*
X165520476Y-23725142D01*
X165472857Y-23772761D01*
X165377619Y-23820380D01*
X165187142Y-23820380D01*
X165091904Y-23772761D01*
X165044285Y-23725142D01*
X164996666Y-23629904D01*
X164996666Y-23391809D01*
X165044285Y-23296571D01*
X165091904Y-23248952D01*
X165187142Y-23201333D01*
X165377619Y-23201333D01*
X165472857Y-23248952D01*
X165520476Y-23296571D01*
X165568095Y-23391809D01*
X164568095Y-23820380D02*
X164568095Y-22820380D01*
X164330000Y-22820380D01*
X164187142Y-22868000D01*
X164091904Y-22963238D01*
X164044285Y-23058476D01*
X163996666Y-23248952D01*
X163996666Y-23391809D01*
X164044285Y-23582285D01*
X164091904Y-23677523D01*
X164187142Y-23772761D01*
X164330000Y-23820380D01*
X164568095Y-23820380D01*
X163377619Y-22820380D02*
X163187142Y-22820380D01*
X163091904Y-22868000D01*
X162996666Y-22963238D01*
X162949047Y-23153714D01*
X162949047Y-23487047D01*
X162996666Y-23677523D01*
X163091904Y-23772761D01*
X163187142Y-23820380D01*
X163377619Y-23820380D01*
X163472857Y-23772761D01*
X163568095Y-23677523D01*
X163615714Y-23487047D01*
X163615714Y-23153714D01*
X163568095Y-22963238D01*
X163472857Y-22868000D01*
X163377619Y-22820380D01*
X162187142Y-23296571D02*
X162520476Y-23296571D01*
X162520476Y-23820380D02*
X162520476Y-22820380D01*
X162044285Y-22820380D01*
X165234761Y-40346380D02*
X165139523Y-40346380D01*
X165044285Y-40394000D01*
X164996666Y-40441619D01*
X164949047Y-40536857D01*
X164901428Y-40727333D01*
X164901428Y-40965428D01*
X164949047Y-41155904D01*
X164996666Y-41251142D01*
X165044285Y-41298761D01*
X165139523Y-41346380D01*
X165234761Y-41346380D01*
X165330000Y-41298761D01*
X165377619Y-41251142D01*
X165425238Y-41155904D01*
X165472857Y-40965428D01*
X165472857Y-40727333D01*
X165425238Y-40536857D01*
X165377619Y-40441619D01*
X165330000Y-40394000D01*
X165234761Y-40346380D01*
X164568095Y-41346380D02*
X164044285Y-40679714D01*
X164568095Y-40679714D02*
X164044285Y-41346380D01*
X163234761Y-40346380D02*
X163425238Y-40346380D01*
X163520476Y-40394000D01*
X163568095Y-40441619D01*
X163663333Y-40584476D01*
X163710952Y-40774952D01*
X163710952Y-41155904D01*
X163663333Y-41251142D01*
X163615714Y-41298761D01*
X163520476Y-41346380D01*
X163330000Y-41346380D01*
X163234761Y-41298761D01*
X163187142Y-41251142D01*
X163139523Y-41155904D01*
X163139523Y-40917809D01*
X163187142Y-40822571D01*
X163234761Y-40774952D01*
X163330000Y-40727333D01*
X163520476Y-40727333D01*
X163615714Y-40774952D01*
X163663333Y-40822571D01*
X163710952Y-40917809D01*
X162663333Y-41346380D02*
X162472857Y-41346380D01*
X162377619Y-41298761D01*
X162330000Y-41251142D01*
X162234761Y-41108285D01*
X162187142Y-40917809D01*
X162187142Y-40536857D01*
X162234761Y-40441619D01*
X162282380Y-40394000D01*
X162377619Y-40346380D01*
X162568095Y-40346380D01*
X162663333Y-40394000D01*
X162710952Y-40441619D01*
X162758571Y-40536857D01*
X162758571Y-40774952D01*
X162710952Y-40870190D01*
X162663333Y-40917809D01*
X162568095Y-40965428D01*
X162377619Y-40965428D01*
X162282380Y-40917809D01*
X162234761Y-40870190D01*
X162187142Y-40774952D01*
X174378761Y-22312380D02*
X174283523Y-22312380D01*
X174188285Y-22360000D01*
X174140666Y-22407619D01*
X174093047Y-22502857D01*
X174045428Y-22693333D01*
X174045428Y-22931428D01*
X174093047Y-23121904D01*
X174140666Y-23217142D01*
X174188285Y-23264761D01*
X174283523Y-23312380D01*
X174378761Y-23312380D01*
X174474000Y-23264761D01*
X174521619Y-23217142D01*
X174569238Y-23121904D01*
X174616857Y-22931428D01*
X174616857Y-22693333D01*
X174569238Y-22502857D01*
X174521619Y-22407619D01*
X174474000Y-22360000D01*
X174378761Y-22312380D01*
X173712095Y-23312380D02*
X173188285Y-22645714D01*
X173712095Y-22645714D02*
X173188285Y-23312380D01*
X172378761Y-22312380D02*
X172569238Y-22312380D01*
X172664476Y-22360000D01*
X172712095Y-22407619D01*
X172807333Y-22550476D01*
X172854952Y-22740952D01*
X172854952Y-23121904D01*
X172807333Y-23217142D01*
X172759714Y-23264761D01*
X172664476Y-23312380D01*
X172474000Y-23312380D01*
X172378761Y-23264761D01*
X172331142Y-23217142D01*
X172283523Y-23121904D01*
X172283523Y-22883809D01*
X172331142Y-22788571D01*
X172378761Y-22740952D01*
X172474000Y-22693333D01*
X172664476Y-22693333D01*
X172759714Y-22740952D01*
X172807333Y-22788571D01*
X172854952Y-22883809D01*
X171712095Y-22740952D02*
X171807333Y-22693333D01*
X171854952Y-22645714D01*
X171902571Y-22550476D01*
X171902571Y-22502857D01*
X171854952Y-22407619D01*
X171807333Y-22360000D01*
X171712095Y-22312380D01*
X171521619Y-22312380D01*
X171426380Y-22360000D01*
X171378761Y-22407619D01*
X171331142Y-22502857D01*
X171331142Y-22550476D01*
X171378761Y-22645714D01*
X171426380Y-22693333D01*
X171521619Y-22740952D01*
X171712095Y-22740952D01*
X171807333Y-22788571D01*
X171854952Y-22836190D01*
X171902571Y-22931428D01*
X171902571Y-23121904D01*
X171854952Y-23217142D01*
X171807333Y-23264761D01*
X171712095Y-23312380D01*
X171521619Y-23312380D01*
X171426380Y-23264761D01*
X171378761Y-23217142D01*
X171331142Y-23121904D01*
X171331142Y-22931428D01*
X171378761Y-22836190D01*
X171426380Y-22788571D01*
X171521619Y-22740952D01*
X178013904Y-22042380D02*
X178013904Y-21042380D01*
X177680571Y-21756666D01*
X177347238Y-21042380D01*
X177347238Y-22042380D01*
X176871047Y-22042380D02*
X176871047Y-21042380D01*
X176490095Y-21042380D01*
X176394857Y-21090000D01*
X176347238Y-21137619D01*
X176299619Y-21232857D01*
X176299619Y-21375714D01*
X176347238Y-21470952D01*
X176394857Y-21518571D01*
X176490095Y-21566190D01*
X176871047Y-21566190D01*
X175871047Y-21042380D02*
X175871047Y-21851904D01*
X175823428Y-21947142D01*
X175775809Y-21994761D01*
X175680571Y-22042380D01*
X175490095Y-22042380D01*
X175394857Y-21994761D01*
X175347238Y-21947142D01*
X175299619Y-21851904D01*
X175299619Y-21042380D01*
X174394857Y-21042380D02*
X174585333Y-21042380D01*
X174680571Y-21090000D01*
X174728190Y-21137619D01*
X174823428Y-21280476D01*
X174871047Y-21470952D01*
X174871047Y-21851904D01*
X174823428Y-21947142D01*
X174775809Y-21994761D01*
X174680571Y-22042380D01*
X174490095Y-22042380D01*
X174394857Y-21994761D01*
X174347238Y-21947142D01*
X174299619Y-21851904D01*
X174299619Y-21613809D01*
X174347238Y-21518571D01*
X174394857Y-21470952D01*
X174490095Y-21423333D01*
X174680571Y-21423333D01*
X174775809Y-21470952D01*
X174823428Y-21518571D01*
X174871047Y-21613809D01*
X173680571Y-21042380D02*
X173585333Y-21042380D01*
X173490095Y-21090000D01*
X173442476Y-21137619D01*
X173394857Y-21232857D01*
X173347238Y-21423333D01*
X173347238Y-21661428D01*
X173394857Y-21851904D01*
X173442476Y-21947142D01*
X173490095Y-21994761D01*
X173585333Y-22042380D01*
X173680571Y-22042380D01*
X173775809Y-21994761D01*
X173823428Y-21947142D01*
X173871047Y-21851904D01*
X173918666Y-21661428D01*
X173918666Y-21423333D01*
X173871047Y-21232857D01*
X173823428Y-21137619D01*
X173775809Y-21090000D01*
X173680571Y-21042380D01*
X172442476Y-21042380D02*
X172918666Y-21042380D01*
X172966285Y-21518571D01*
X172918666Y-21470952D01*
X172823428Y-21423333D01*
X172585333Y-21423333D01*
X172490095Y-21470952D01*
X172442476Y-21518571D01*
X172394857Y-21613809D01*
X172394857Y-21851904D01*
X172442476Y-21947142D01*
X172490095Y-21994761D01*
X172585333Y-22042380D01*
X172823428Y-22042380D01*
X172918666Y-21994761D01*
X172966285Y-21947142D01*
X171775809Y-21042380D02*
X171680571Y-21042380D01*
X171585333Y-21090000D01*
X171537714Y-21137619D01*
X171490095Y-21232857D01*
X171442476Y-21423333D01*
X171442476Y-21661428D01*
X171490095Y-21851904D01*
X171537714Y-21947142D01*
X171585333Y-21994761D01*
X171680571Y-22042380D01*
X171775809Y-22042380D01*
X171871047Y-21994761D01*
X171918666Y-21947142D01*
X171966285Y-21851904D01*
X172013904Y-21661428D01*
X172013904Y-21423333D01*
X171966285Y-21232857D01*
X171918666Y-21137619D01*
X171871047Y-21090000D01*
X171775809Y-21042380D01*
D11*
G36*
X167331561Y-21238883D02*
G01*
X167295321Y-21291895D01*
X167264673Y-21334055D01*
X167243563Y-21360085D01*
X167236588Y-21365883D01*
X167224462Y-21354219D01*
X167200046Y-21322746D01*
X167167287Y-21276741D01*
X167141616Y-21238883D01*
X167057099Y-21111883D01*
X166847138Y-21111883D01*
X166753538Y-21112917D01*
X166688868Y-21116002D01*
X166653440Y-21121117D01*
X166646598Y-21127125D01*
X166657529Y-21143546D01*
X166682709Y-21180747D01*
X166719500Y-21234854D01*
X166765267Y-21301991D01*
X166817373Y-21378283D01*
X166834244Y-21402958D01*
X166887157Y-21480746D01*
X166933824Y-21550161D01*
X166971768Y-21607451D01*
X166998512Y-21648865D01*
X167011581Y-21670653D01*
X167012470Y-21672887D01*
X167004261Y-21687328D01*
X166981287Y-21722511D01*
X166946028Y-21774775D01*
X166900965Y-21840457D01*
X166848579Y-21915897D01*
X166825706Y-21948589D01*
X166771049Y-22026943D01*
X166722705Y-22097021D01*
X166683153Y-22155164D01*
X166654873Y-22197711D01*
X166640346Y-22221004D01*
X166638941Y-22224133D01*
X166652977Y-22227176D01*
X166691491Y-22229186D01*
X166749092Y-22230031D01*
X166820389Y-22229580D01*
X166844382Y-22229157D01*
X167049823Y-22225000D01*
X167132000Y-22102250D01*
X167167888Y-22050168D01*
X167198237Y-22008942D01*
X167218969Y-21983960D01*
X167225285Y-21978986D01*
X167237682Y-21990433D01*
X167262313Y-22021732D01*
X167295202Y-22067627D01*
X167320910Y-22105471D01*
X167405427Y-22232471D01*
X167613242Y-22232471D01*
X167698448Y-22231899D01*
X167757237Y-22229966D01*
X167793053Y-22226344D01*
X167809343Y-22220708D01*
X167810247Y-22213794D01*
X167798948Y-22196284D01*
X167773522Y-22157977D01*
X167736609Y-22102813D01*
X167690846Y-22034731D01*
X167638871Y-21957672D01*
X167621670Y-21932220D01*
X167443904Y-21669322D01*
X167638389Y-21390602D01*
X167832875Y-21111883D01*
X167416077Y-21111883D01*
X167331561Y-21238883D01*
G37*
X167331561Y-21238883D02*
X167295321Y-21291895D01*
X167264673Y-21334055D01*
X167243563Y-21360085D01*
X167236588Y-21365883D01*
X167224462Y-21354219D01*
X167200046Y-21322746D01*
X167167287Y-21276741D01*
X167141616Y-21238883D01*
X167057099Y-21111883D01*
X166847138Y-21111883D01*
X166753538Y-21112917D01*
X166688868Y-21116002D01*
X166653440Y-21121117D01*
X166646598Y-21127125D01*
X166657529Y-21143546D01*
X166682709Y-21180747D01*
X166719500Y-21234854D01*
X166765267Y-21301991D01*
X166817373Y-21378283D01*
X166834244Y-21402958D01*
X166887157Y-21480746D01*
X166933824Y-21550161D01*
X166971768Y-21607451D01*
X166998512Y-21648865D01*
X167011581Y-21670653D01*
X167012470Y-21672887D01*
X167004261Y-21687328D01*
X166981287Y-21722511D01*
X166946028Y-21774775D01*
X166900965Y-21840457D01*
X166848579Y-21915897D01*
X166825706Y-21948589D01*
X166771049Y-22026943D01*
X166722705Y-22097021D01*
X166683153Y-22155164D01*
X166654873Y-22197711D01*
X166640346Y-22221004D01*
X166638941Y-22224133D01*
X166652977Y-22227176D01*
X166691491Y-22229186D01*
X166749092Y-22230031D01*
X166820389Y-22229580D01*
X166844382Y-22229157D01*
X167049823Y-22225000D01*
X167132000Y-22102250D01*
X167167888Y-22050168D01*
X167198237Y-22008942D01*
X167218969Y-21983960D01*
X167225285Y-21978986D01*
X167237682Y-21990433D01*
X167262313Y-22021732D01*
X167295202Y-22067627D01*
X167320910Y-22105471D01*
X167405427Y-22232471D01*
X167613242Y-22232471D01*
X167698448Y-22231899D01*
X167757237Y-22229966D01*
X167793053Y-22226344D01*
X167809343Y-22220708D01*
X167810247Y-22213794D01*
X167798948Y-22196284D01*
X167773522Y-22157977D01*
X167736609Y-22102813D01*
X167690846Y-22034731D01*
X167638871Y-21957672D01*
X167621670Y-21932220D01*
X167443904Y-21669322D01*
X167638389Y-21390602D01*
X167832875Y-21111883D01*
X167416077Y-21111883D01*
X167331561Y-21238883D01*
G36*
X163478350Y-25221545D02*
G01*
X163417637Y-25223845D01*
X163374778Y-25227283D01*
X163355031Y-25231534D01*
X163354372Y-25232858D01*
X163363270Y-25248425D01*
X163385697Y-25285867D01*
X163419493Y-25341626D01*
X163462495Y-25412145D01*
X163512541Y-25493869D01*
X163557323Y-25566754D01*
X163755294Y-25888500D01*
X163755294Y-26341294D01*
X164098941Y-26341294D01*
X164098941Y-25877733D01*
X164300647Y-25555516D01*
X164355404Y-25467807D01*
X164404512Y-25388691D01*
X164445857Y-25321611D01*
X164477326Y-25270010D01*
X164496804Y-25237332D01*
X164502353Y-25227003D01*
X164488328Y-25224687D01*
X164449917Y-25222766D01*
X164392614Y-25221413D01*
X164321915Y-25220802D01*
X164304382Y-25220784D01*
X164106412Y-25220861D01*
X164019268Y-25362725D01*
X163984038Y-25419476D01*
X163954813Y-25465422D01*
X163934902Y-25495433D01*
X163927727Y-25504589D01*
X163918798Y-25492584D01*
X163897943Y-25460029D01*
X163868420Y-25412112D01*
X163838625Y-25362647D01*
X163753921Y-25220706D01*
X163551657Y-25220706D01*
X163478350Y-25221545D01*
G37*
X163478350Y-25221545D02*
X163417637Y-25223845D01*
X163374778Y-25227283D01*
X163355031Y-25231534D01*
X163354372Y-25232858D01*
X163363270Y-25248425D01*
X163385697Y-25285867D01*
X163419493Y-25341626D01*
X163462495Y-25412145D01*
X163512541Y-25493869D01*
X163557323Y-25566754D01*
X163755294Y-25888500D01*
X163755294Y-26341294D01*
X164098941Y-26341294D01*
X164098941Y-25877733D01*
X164300647Y-25555516D01*
X164355404Y-25467807D01*
X164404512Y-25388691D01*
X164445857Y-25321611D01*
X164477326Y-25270010D01*
X164496804Y-25237332D01*
X164502353Y-25227003D01*
X164488328Y-25224687D01*
X164449917Y-25222766D01*
X164392614Y-25221413D01*
X164321915Y-25220802D01*
X164304382Y-25220784D01*
X164106412Y-25220861D01*
X164019268Y-25362725D01*
X163984038Y-25419476D01*
X163954813Y-25465422D01*
X163934902Y-25495433D01*
X163927727Y-25504589D01*
X163918798Y-25492584D01*
X163897943Y-25460029D01*
X163868420Y-25412112D01*
X163838625Y-25362647D01*
X163753921Y-25220706D01*
X163551657Y-25220706D01*
X163478350Y-25221545D01*
G36*
X167160132Y-22212302D02*
G01*
X167130002Y-22242769D01*
X167084274Y-22290694D01*
X167025158Y-22353714D01*
X166954868Y-22429467D01*
X166875615Y-22515591D01*
X166789610Y-22609723D01*
X166762943Y-22639039D01*
X166669270Y-22742095D01*
X166576622Y-22843974D01*
X166488154Y-22941213D01*
X166407018Y-23030347D01*
X166336369Y-23107911D01*
X166279360Y-23170440D01*
X166239146Y-23214470D01*
X166237776Y-23215967D01*
X166110275Y-23355287D01*
X166236402Y-23472984D01*
X166287552Y-23519615D01*
X166331504Y-23557643D01*
X166363328Y-23582933D01*
X166377651Y-23591399D01*
X166391087Y-23580904D01*
X166421889Y-23550845D01*
X166467489Y-23503919D01*
X166525316Y-23442823D01*
X166592802Y-23370253D01*
X166667378Y-23288908D01*
X166698886Y-23254219D01*
X167005000Y-22916320D01*
X167014242Y-23272896D01*
X167016052Y-23351608D01*
X167018104Y-23456458D01*
X167020343Y-23583701D01*
X167022713Y-23729594D01*
X167025155Y-23890392D01*
X167027614Y-24062352D01*
X167030033Y-24241730D01*
X167032356Y-24424783D01*
X167034525Y-24607766D01*
X167034806Y-24632510D01*
X167046127Y-25635550D01*
X166622152Y-25644450D01*
X166505401Y-25646778D01*
X166365660Y-25649362D01*
X166209817Y-25652086D01*
X166044764Y-25654837D01*
X165877389Y-25657497D01*
X165714582Y-25659952D01*
X165593059Y-25661680D01*
X164987941Y-25670011D01*
X165051778Y-25613447D01*
X165147590Y-25528137D01*
X165243633Y-25441862D01*
X165337322Y-25357012D01*
X165426069Y-25275978D01*
X165507291Y-25201151D01*
X165578400Y-25134923D01*
X165636811Y-25079682D01*
X165679939Y-25037821D01*
X165705197Y-25011730D01*
X165710867Y-25004059D01*
X165701409Y-24987777D01*
X165675401Y-24954808D01*
X165636922Y-24910085D01*
X165594209Y-24863010D01*
X165477129Y-24736903D01*
X165433628Y-24773507D01*
X165414063Y-24790706D01*
X165374746Y-24825899D01*
X165318023Y-24876965D01*
X165246240Y-24941784D01*
X165161744Y-25018235D01*
X165066879Y-25104197D01*
X164963992Y-25197549D01*
X164855430Y-25296171D01*
X164848911Y-25302097D01*
X164307695Y-25794083D01*
X164350923Y-25839836D01*
X164369549Y-25859986D01*
X164406062Y-25899884D01*
X164458284Y-25957134D01*
X164524035Y-26029343D01*
X164601136Y-26114116D01*
X164687409Y-26209057D01*
X164780673Y-26311773D01*
X164875242Y-26416000D01*
X164971713Y-26522211D01*
X165062140Y-26621475D01*
X165144531Y-26711629D01*
X165216897Y-26790508D01*
X165277247Y-26855949D01*
X165323590Y-26905786D01*
X165353937Y-26937856D01*
X165366296Y-26949995D01*
X165366372Y-26950030D01*
X165380799Y-26942094D01*
X165412514Y-26917812D01*
X165456756Y-26881006D01*
X165505995Y-26837971D01*
X165556971Y-26791905D01*
X165598621Y-26753201D01*
X165626502Y-26726061D01*
X165636188Y-26714824D01*
X165626661Y-26702339D01*
X165599398Y-26670567D01*
X165556844Y-26622260D01*
X165501445Y-26560166D01*
X165435647Y-26487038D01*
X165361897Y-26405624D01*
X165330556Y-26371177D01*
X165024314Y-26035000D01*
X165588833Y-26025901D01*
X165745955Y-26023563D01*
X165919841Y-26021309D01*
X166101831Y-26019230D01*
X166283268Y-26017417D01*
X166455491Y-26015959D01*
X166609842Y-26014948D01*
X166662834Y-26014696D01*
X166789117Y-26013905D01*
X166910845Y-26012642D01*
X167023509Y-26010989D01*
X167122600Y-26009031D01*
X167203606Y-26006853D01*
X167262020Y-26004538D01*
X167284807Y-26003079D01*
X167397300Y-25993570D01*
X167404967Y-25775227D01*
X167406175Y-25725379D01*
X167406953Y-25656167D01*
X167407295Y-25566755D01*
X167407193Y-25456307D01*
X167406639Y-25323987D01*
X167405627Y-25168959D01*
X167404149Y-24990387D01*
X167402199Y-24787435D01*
X167399768Y-24559267D01*
X167396849Y-24305047D01*
X167393435Y-24023939D01*
X167389520Y-23715107D01*
X167385095Y-23377715D01*
X167382311Y-23170015D01*
X167381581Y-23082236D01*
X167381815Y-23005716D01*
X167382926Y-22945072D01*
X167384829Y-22904922D01*
X167387437Y-22889882D01*
X167387530Y-22889867D01*
X167400384Y-22899555D01*
X167432562Y-22927003D01*
X167481343Y-22969795D01*
X167544006Y-23025521D01*
X167617829Y-23091765D01*
X167700090Y-23166114D01*
X167743661Y-23205690D01*
X167840378Y-23293569D01*
X167917490Y-23363166D01*
X167977446Y-23416363D01*
X168022691Y-23455046D01*
X168055673Y-23481097D01*
X168078838Y-23496401D01*
X168094633Y-23502842D01*
X168105506Y-23502304D01*
X168113903Y-23496671D01*
X168117216Y-23493307D01*
X168186962Y-23418079D01*
X168245174Y-23353636D01*
X168289519Y-23302655D01*
X168317668Y-23267816D01*
X168327294Y-23251916D01*
X168316588Y-23239774D01*
X168286153Y-23209980D01*
X168238509Y-23164827D01*
X168176179Y-23106610D01*
X168101684Y-23037620D01*
X168017546Y-22960152D01*
X167926287Y-22876500D01*
X167830429Y-22788955D01*
X167732493Y-22699813D01*
X167635001Y-22611365D01*
X167540475Y-22525907D01*
X167451436Y-22445730D01*
X167370407Y-22373128D01*
X167299909Y-22310396D01*
X167242464Y-22259825D01*
X167200594Y-22223710D01*
X167176820Y-22204344D01*
X167172452Y-22201655D01*
X167160132Y-22212302D01*
G37*
X167160132Y-22212302D02*
X167130002Y-22242769D01*
X167084274Y-22290694D01*
X167025158Y-22353714D01*
X166954868Y-22429467D01*
X166875615Y-22515591D01*
X166789610Y-22609723D01*
X166762943Y-22639039D01*
X166669270Y-22742095D01*
X166576622Y-22843974D01*
X166488154Y-22941213D01*
X166407018Y-23030347D01*
X166336369Y-23107911D01*
X166279360Y-23170440D01*
X166239146Y-23214470D01*
X166237776Y-23215967D01*
X166110275Y-23355287D01*
X166236402Y-23472984D01*
X166287552Y-23519615D01*
X166331504Y-23557643D01*
X166363328Y-23582933D01*
X166377651Y-23591399D01*
X166391087Y-23580904D01*
X166421889Y-23550845D01*
X166467489Y-23503919D01*
X166525316Y-23442823D01*
X166592802Y-23370253D01*
X166667378Y-23288908D01*
X166698886Y-23254219D01*
X167005000Y-22916320D01*
X167014242Y-23272896D01*
X167016052Y-23351608D01*
X167018104Y-23456458D01*
X167020343Y-23583701D01*
X167022713Y-23729594D01*
X167025155Y-23890392D01*
X167027614Y-24062352D01*
X167030033Y-24241730D01*
X167032356Y-24424783D01*
X167034525Y-24607766D01*
X167034806Y-24632510D01*
X167046127Y-25635550D01*
X166622152Y-25644450D01*
X166505401Y-25646778D01*
X166365660Y-25649362D01*
X166209817Y-25652086D01*
X166044764Y-25654837D01*
X165877389Y-25657497D01*
X165714582Y-25659952D01*
X165593059Y-25661680D01*
X164987941Y-25670011D01*
X165051778Y-25613447D01*
X165147590Y-25528137D01*
X165243633Y-25441862D01*
X165337322Y-25357012D01*
X165426069Y-25275978D01*
X165507291Y-25201151D01*
X165578400Y-25134923D01*
X165636811Y-25079682D01*
X165679939Y-25037821D01*
X165705197Y-25011730D01*
X165710867Y-25004059D01*
X165701409Y-24987777D01*
X165675401Y-24954808D01*
X165636922Y-24910085D01*
X165594209Y-24863010D01*
X165477129Y-24736903D01*
X165433628Y-24773507D01*
X165414063Y-24790706D01*
X165374746Y-24825899D01*
X165318023Y-24876965D01*
X165246240Y-24941784D01*
X165161744Y-25018235D01*
X165066879Y-25104197D01*
X164963992Y-25197549D01*
X164855430Y-25296171D01*
X164848911Y-25302097D01*
X164307695Y-25794083D01*
X164350923Y-25839836D01*
X164369549Y-25859986D01*
X164406062Y-25899884D01*
X164458284Y-25957134D01*
X164524035Y-26029343D01*
X164601136Y-26114116D01*
X164687409Y-26209057D01*
X164780673Y-26311773D01*
X164875242Y-26416000D01*
X164971713Y-26522211D01*
X165062140Y-26621475D01*
X165144531Y-26711629D01*
X165216897Y-26790508D01*
X165277247Y-26855949D01*
X165323590Y-26905786D01*
X165353937Y-26937856D01*
X165366296Y-26949995D01*
X165366372Y-26950030D01*
X165380799Y-26942094D01*
X165412514Y-26917812D01*
X165456756Y-26881006D01*
X165505995Y-26837971D01*
X165556971Y-26791905D01*
X165598621Y-26753201D01*
X165626502Y-26726061D01*
X165636188Y-26714824D01*
X165626661Y-26702339D01*
X165599398Y-26670567D01*
X165556844Y-26622260D01*
X165501445Y-26560166D01*
X165435647Y-26487038D01*
X165361897Y-26405624D01*
X165330556Y-26371177D01*
X165024314Y-26035000D01*
X165588833Y-26025901D01*
X165745955Y-26023563D01*
X165919841Y-26021309D01*
X166101831Y-26019230D01*
X166283268Y-26017417D01*
X166455491Y-26015959D01*
X166609842Y-26014948D01*
X166662834Y-26014696D01*
X166789117Y-26013905D01*
X166910845Y-26012642D01*
X167023509Y-26010989D01*
X167122600Y-26009031D01*
X167203606Y-26006853D01*
X167262020Y-26004538D01*
X167284807Y-26003079D01*
X167397300Y-25993570D01*
X167404967Y-25775227D01*
X167406175Y-25725379D01*
X167406953Y-25656167D01*
X167407295Y-25566755D01*
X167407193Y-25456307D01*
X167406639Y-25323987D01*
X167405627Y-25168959D01*
X167404149Y-24990387D01*
X167402199Y-24787435D01*
X167399768Y-24559267D01*
X167396849Y-24305047D01*
X167393435Y-24023939D01*
X167389520Y-23715107D01*
X167385095Y-23377715D01*
X167382311Y-23170015D01*
X167381581Y-23082236D01*
X167381815Y-23005716D01*
X167382926Y-22945072D01*
X167384829Y-22904922D01*
X167387437Y-22889882D01*
X167387530Y-22889867D01*
X167400384Y-22899555D01*
X167432562Y-22927003D01*
X167481343Y-22969795D01*
X167544006Y-23025521D01*
X167617829Y-23091765D01*
X167700090Y-23166114D01*
X167743661Y-23205690D01*
X167840378Y-23293569D01*
X167917490Y-23363166D01*
X167977446Y-23416363D01*
X168022691Y-23455046D01*
X168055673Y-23481097D01*
X168078838Y-23496401D01*
X168094633Y-23502842D01*
X168105506Y-23502304D01*
X168113903Y-23496671D01*
X168117216Y-23493307D01*
X168186962Y-23418079D01*
X168245174Y-23353636D01*
X168289519Y-23302655D01*
X168317668Y-23267816D01*
X168327294Y-23251916D01*
X168316588Y-23239774D01*
X168286153Y-23209980D01*
X168238509Y-23164827D01*
X168176179Y-23106610D01*
X168101684Y-23037620D01*
X168017546Y-22960152D01*
X167926287Y-22876500D01*
X167830429Y-22788955D01*
X167732493Y-22699813D01*
X167635001Y-22611365D01*
X167540475Y-22525907D01*
X167451436Y-22445730D01*
X167370407Y-22373128D01*
X167299909Y-22310396D01*
X167242464Y-22259825D01*
X167200594Y-22223710D01*
X167176820Y-22204344D01*
X167172452Y-22201655D01*
X167160132Y-22212302D01*
G36*
X166519412Y-26477458D02*
G01*
X166721533Y-26726876D01*
X166923655Y-26976294D01*
X166714063Y-26980440D01*
X166504470Y-26984585D01*
X166504470Y-27327412D01*
X167430823Y-27327412D01*
X167430823Y-27061584D01*
X167023379Y-26557942D01*
X167219631Y-26553773D01*
X167415882Y-26549604D01*
X167415882Y-26206824D01*
X166519412Y-26206824D01*
X166519412Y-26477458D01*
G37*
X166519412Y-26477458D02*
X166721533Y-26726876D01*
X166923655Y-26976294D01*
X166714063Y-26980440D01*
X166504470Y-26984585D01*
X166504470Y-27327412D01*
X167430823Y-27327412D01*
X167430823Y-27061584D01*
X167023379Y-26557942D01*
X167219631Y-26553773D01*
X167415882Y-26549604D01*
X167415882Y-26206824D01*
X166519412Y-26206824D01*
X166519412Y-26477458D01*
M02*
