G04 #@! TF.GenerationSoftware,KiCad,Pcbnew,(5.1.5)-3*
G04 #@! TF.CreationDate,2020-12-21T12:35:23+01:00*
G04 #@! TF.ProjectId,epimetheus_mpu6050,6570696d-6574-4686-9575-735f6d707536,rev?*
G04 #@! TF.SameCoordinates,Original*
G04 #@! TF.FileFunction,Copper,L1,Top*
G04 #@! TF.FilePolarity,Positive*
%FSLAX46Y46*%
G04 Gerber Fmt 4.6, Leading zero omitted, Abs format (unit mm)*
G04 Created by KiCad (PCBNEW (5.1.5)-3) date 2020-12-21 12:35:23*
%MOMM*%
%LPD*%
G04 APERTURE LIST*
%ADD10C,1.524000*%
%ADD11O,1.700000X1.700000*%
%ADD12R,1.700000X1.700000*%
%ADD13C,0.100000*%
%ADD14C,0.800000*%
%ADD15C,0.250000*%
%ADD16C,0.254000*%
G04 APERTURE END LIST*
D10*
X179324000Y-22098000D03*
X179324000Y-24638000D03*
X179324000Y-27178000D03*
X179324000Y-29718000D03*
X179324000Y-32258000D03*
X179324000Y-34798000D03*
X179324000Y-37338000D03*
X179324000Y-39878000D03*
D11*
X170688000Y-37338000D03*
D12*
X170688000Y-39878000D03*
G04 #@! TA.AperFunction,SMDPad,CuDef*
D13*
G36*
X165302405Y-24817445D02*
G01*
X165331527Y-24821764D01*
X165360085Y-24828918D01*
X165387805Y-24838836D01*
X165414419Y-24851424D01*
X165439671Y-24866559D01*
X165463318Y-24884097D01*
X165485132Y-24903868D01*
X165504903Y-24925682D01*
X165522441Y-24949329D01*
X165537576Y-24974581D01*
X165550164Y-25001195D01*
X165560082Y-25028915D01*
X165567236Y-25057473D01*
X165571555Y-25086595D01*
X165573000Y-25116000D01*
X165573000Y-27716000D01*
X165571555Y-27745405D01*
X165567236Y-27774527D01*
X165560082Y-27803085D01*
X165550164Y-27830805D01*
X165537576Y-27857419D01*
X165522441Y-27882671D01*
X165504903Y-27906318D01*
X165485132Y-27928132D01*
X165463318Y-27947903D01*
X165439671Y-27965441D01*
X165414419Y-27980576D01*
X165387805Y-27993164D01*
X165360085Y-28003082D01*
X165331527Y-28010236D01*
X165302405Y-28014555D01*
X165273000Y-28016000D01*
X164673000Y-28016000D01*
X164643595Y-28014555D01*
X164614473Y-28010236D01*
X164585915Y-28003082D01*
X164558195Y-27993164D01*
X164531581Y-27980576D01*
X164506329Y-27965441D01*
X164482682Y-27947903D01*
X164460868Y-27928132D01*
X164441097Y-27906318D01*
X164423559Y-27882671D01*
X164408424Y-27857419D01*
X164395836Y-27830805D01*
X164385918Y-27803085D01*
X164378764Y-27774527D01*
X164374445Y-27745405D01*
X164373000Y-27716000D01*
X164373000Y-25116000D01*
X164374445Y-25086595D01*
X164378764Y-25057473D01*
X164385918Y-25028915D01*
X164395836Y-25001195D01*
X164408424Y-24974581D01*
X164423559Y-24949329D01*
X164441097Y-24925682D01*
X164460868Y-24903868D01*
X164482682Y-24884097D01*
X164506329Y-24866559D01*
X164531581Y-24851424D01*
X164558195Y-24838836D01*
X164585915Y-24828918D01*
X164614473Y-24821764D01*
X164643595Y-24817445D01*
X164673000Y-24816000D01*
X165273000Y-24816000D01*
X165302405Y-24817445D01*
G37*
G04 #@! TD.AperFunction*
G04 #@! TA.AperFunction,SMDPad,CuDef*
G36*
X168302405Y-24817445D02*
G01*
X168331527Y-24821764D01*
X168360085Y-24828918D01*
X168387805Y-24838836D01*
X168414419Y-24851424D01*
X168439671Y-24866559D01*
X168463318Y-24884097D01*
X168485132Y-24903868D01*
X168504903Y-24925682D01*
X168522441Y-24949329D01*
X168537576Y-24974581D01*
X168550164Y-25001195D01*
X168560082Y-25028915D01*
X168567236Y-25057473D01*
X168571555Y-25086595D01*
X168573000Y-25116000D01*
X168573000Y-27716000D01*
X168571555Y-27745405D01*
X168567236Y-27774527D01*
X168560082Y-27803085D01*
X168550164Y-27830805D01*
X168537576Y-27857419D01*
X168522441Y-27882671D01*
X168504903Y-27906318D01*
X168485132Y-27928132D01*
X168463318Y-27947903D01*
X168439671Y-27965441D01*
X168414419Y-27980576D01*
X168387805Y-27993164D01*
X168360085Y-28003082D01*
X168331527Y-28010236D01*
X168302405Y-28014555D01*
X168273000Y-28016000D01*
X167673000Y-28016000D01*
X167643595Y-28014555D01*
X167614473Y-28010236D01*
X167585915Y-28003082D01*
X167558195Y-27993164D01*
X167531581Y-27980576D01*
X167506329Y-27965441D01*
X167482682Y-27947903D01*
X167460868Y-27928132D01*
X167441097Y-27906318D01*
X167423559Y-27882671D01*
X167408424Y-27857419D01*
X167395836Y-27830805D01*
X167385918Y-27803085D01*
X167378764Y-27774527D01*
X167374445Y-27745405D01*
X167373000Y-27716000D01*
X167373000Y-25116000D01*
X167374445Y-25086595D01*
X167378764Y-25057473D01*
X167385918Y-25028915D01*
X167395836Y-25001195D01*
X167408424Y-24974581D01*
X167423559Y-24949329D01*
X167441097Y-24925682D01*
X167460868Y-24903868D01*
X167482682Y-24884097D01*
X167506329Y-24866559D01*
X167531581Y-24851424D01*
X167558195Y-24838836D01*
X167585915Y-24828918D01*
X167614473Y-24821764D01*
X167643595Y-24817445D01*
X167673000Y-24816000D01*
X168273000Y-24816000D01*
X168302405Y-24817445D01*
G37*
G04 #@! TD.AperFunction*
G04 #@! TA.AperFunction,SMDPad,CuDef*
G36*
X172287405Y-24817445D02*
G01*
X172316527Y-24821764D01*
X172345085Y-24828918D01*
X172372805Y-24838836D01*
X172399419Y-24851424D01*
X172424671Y-24866559D01*
X172448318Y-24884097D01*
X172470132Y-24903868D01*
X172489903Y-24925682D01*
X172507441Y-24949329D01*
X172522576Y-24974581D01*
X172535164Y-25001195D01*
X172545082Y-25028915D01*
X172552236Y-25057473D01*
X172556555Y-25086595D01*
X172558000Y-25116000D01*
X172558000Y-27716000D01*
X172556555Y-27745405D01*
X172552236Y-27774527D01*
X172545082Y-27803085D01*
X172535164Y-27830805D01*
X172522576Y-27857419D01*
X172507441Y-27882671D01*
X172489903Y-27906318D01*
X172470132Y-27928132D01*
X172448318Y-27947903D01*
X172424671Y-27965441D01*
X172399419Y-27980576D01*
X172372805Y-27993164D01*
X172345085Y-28003082D01*
X172316527Y-28010236D01*
X172287405Y-28014555D01*
X172258000Y-28016000D01*
X171658000Y-28016000D01*
X171628595Y-28014555D01*
X171599473Y-28010236D01*
X171570915Y-28003082D01*
X171543195Y-27993164D01*
X171516581Y-27980576D01*
X171491329Y-27965441D01*
X171467682Y-27947903D01*
X171445868Y-27928132D01*
X171426097Y-27906318D01*
X171408559Y-27882671D01*
X171393424Y-27857419D01*
X171380836Y-27830805D01*
X171370918Y-27803085D01*
X171363764Y-27774527D01*
X171359445Y-27745405D01*
X171358000Y-27716000D01*
X171358000Y-25116000D01*
X171359445Y-25086595D01*
X171363764Y-25057473D01*
X171370918Y-25028915D01*
X171380836Y-25001195D01*
X171393424Y-24974581D01*
X171408559Y-24949329D01*
X171426097Y-24925682D01*
X171445868Y-24903868D01*
X171467682Y-24884097D01*
X171491329Y-24866559D01*
X171516581Y-24851424D01*
X171543195Y-24838836D01*
X171570915Y-24828918D01*
X171599473Y-24821764D01*
X171628595Y-24817445D01*
X171658000Y-24816000D01*
X172258000Y-24816000D01*
X172287405Y-24817445D01*
G37*
G04 #@! TD.AperFunction*
G04 #@! TA.AperFunction,SMDPad,CuDef*
G36*
X173402405Y-33961445D02*
G01*
X173431527Y-33965764D01*
X173460085Y-33972918D01*
X173487805Y-33982836D01*
X173514419Y-33995424D01*
X173539671Y-34010559D01*
X173563318Y-34028097D01*
X173585132Y-34047868D01*
X173604903Y-34069682D01*
X173622441Y-34093329D01*
X173637576Y-34118581D01*
X173650164Y-34145195D01*
X173660082Y-34172915D01*
X173667236Y-34201473D01*
X173671555Y-34230595D01*
X173673000Y-34260000D01*
X173673000Y-36860000D01*
X173671555Y-36889405D01*
X173667236Y-36918527D01*
X173660082Y-36947085D01*
X173650164Y-36974805D01*
X173637576Y-37001419D01*
X173622441Y-37026671D01*
X173604903Y-37050318D01*
X173585132Y-37072132D01*
X173563318Y-37091903D01*
X173539671Y-37109441D01*
X173514419Y-37124576D01*
X173487805Y-37137164D01*
X173460085Y-37147082D01*
X173431527Y-37154236D01*
X173402405Y-37158555D01*
X173373000Y-37160000D01*
X172773000Y-37160000D01*
X172743595Y-37158555D01*
X172714473Y-37154236D01*
X172685915Y-37147082D01*
X172658195Y-37137164D01*
X172631581Y-37124576D01*
X172606329Y-37109441D01*
X172582682Y-37091903D01*
X172560868Y-37072132D01*
X172541097Y-37050318D01*
X172523559Y-37026671D01*
X172508424Y-37001419D01*
X172495836Y-36974805D01*
X172485918Y-36947085D01*
X172478764Y-36918527D01*
X172474445Y-36889405D01*
X172473000Y-36860000D01*
X172473000Y-34260000D01*
X172474445Y-34230595D01*
X172478764Y-34201473D01*
X172485918Y-34172915D01*
X172495836Y-34145195D01*
X172508424Y-34118581D01*
X172523559Y-34093329D01*
X172541097Y-34069682D01*
X172560868Y-34047868D01*
X172582682Y-34028097D01*
X172606329Y-34010559D01*
X172631581Y-33995424D01*
X172658195Y-33982836D01*
X172685915Y-33972918D01*
X172714473Y-33965764D01*
X172743595Y-33961445D01*
X172773000Y-33960000D01*
X173373000Y-33960000D01*
X173402405Y-33961445D01*
G37*
G04 #@! TD.AperFunction*
D14*
X177800000Y-27940000D03*
D15*
X169215000Y-32258000D02*
X164973000Y-28016000D01*
X164973000Y-28016000D02*
X164973000Y-26416000D01*
X179324000Y-32258000D02*
X169215000Y-32258000D01*
X180522999Y-31170999D02*
X180751990Y-31399990D01*
X167973000Y-26416000D02*
X172727999Y-31170999D01*
X172727999Y-31170999D02*
X180522999Y-31170999D01*
X180751990Y-33370010D02*
X179324000Y-34798000D01*
X180751990Y-31399990D02*
X180751990Y-33370010D01*
X171958000Y-26416000D02*
X176276000Y-26416000D01*
X176276000Y-26416000D02*
X177800000Y-27940000D01*
X174430081Y-39878000D02*
X179324000Y-39878000D01*
X171890081Y-37338000D02*
X174430081Y-39878000D01*
X170688000Y-37338000D02*
X171890081Y-37338000D01*
D16*
G36*
X178085995Y-21436273D02*
G01*
X177980686Y-21690510D01*
X177927000Y-21960408D01*
X177927000Y-22235592D01*
X177980686Y-22505490D01*
X178085995Y-22759727D01*
X178238880Y-22988535D01*
X178433465Y-23183120D01*
X178662273Y-23336005D01*
X178739515Y-23368000D01*
X178662273Y-23399995D01*
X178433465Y-23552880D01*
X178238880Y-23747465D01*
X178085995Y-23976273D01*
X177980686Y-24230510D01*
X177927000Y-24500408D01*
X177927000Y-24775592D01*
X177980686Y-25045490D01*
X178085995Y-25299727D01*
X178238880Y-25528535D01*
X178433465Y-25723120D01*
X178662273Y-25876005D01*
X178739515Y-25908000D01*
X178662273Y-25939995D01*
X178433465Y-26092880D01*
X178238880Y-26287465D01*
X178085995Y-26516273D01*
X177980686Y-26770510D01*
X177951955Y-26914949D01*
X177901939Y-26905000D01*
X177839802Y-26905000D01*
X176839803Y-25905002D01*
X176816001Y-25875999D01*
X176700276Y-25781026D01*
X176568247Y-25710454D01*
X176424986Y-25666997D01*
X176313333Y-25656000D01*
X176313322Y-25656000D01*
X176276000Y-25652324D01*
X176238678Y-25656000D01*
X173196072Y-25656000D01*
X173196072Y-25116000D01*
X173178047Y-24932991D01*
X173124666Y-24757015D01*
X173037978Y-24594835D01*
X172921317Y-24452683D01*
X172779165Y-24336022D01*
X172616985Y-24249334D01*
X172441009Y-24195953D01*
X172258000Y-24177928D01*
X171658000Y-24177928D01*
X171474991Y-24195953D01*
X171299015Y-24249334D01*
X171136835Y-24336022D01*
X170994683Y-24452683D01*
X170878022Y-24594835D01*
X170791334Y-24757015D01*
X170737953Y-24932991D01*
X170719928Y-25116000D01*
X170719928Y-27716000D01*
X170737953Y-27899009D01*
X170791334Y-28074985D01*
X170878022Y-28237165D01*
X170919465Y-28287663D01*
X169211072Y-26579271D01*
X169211072Y-25116000D01*
X169193047Y-24932991D01*
X169139666Y-24757015D01*
X169052978Y-24594835D01*
X168936317Y-24452683D01*
X168794165Y-24336022D01*
X168631985Y-24249334D01*
X168456009Y-24195953D01*
X168273000Y-24177928D01*
X167673000Y-24177928D01*
X167489991Y-24195953D01*
X167314015Y-24249334D01*
X167151835Y-24336022D01*
X167009683Y-24452683D01*
X166893022Y-24594835D01*
X166806334Y-24757015D01*
X166752953Y-24932991D01*
X166734928Y-25116000D01*
X166734928Y-27716000D01*
X166752953Y-27899009D01*
X166806334Y-28074985D01*
X166893022Y-28237165D01*
X167009683Y-28379317D01*
X167151835Y-28495978D01*
X167314015Y-28582666D01*
X167489991Y-28636047D01*
X167673000Y-28654072D01*
X168273000Y-28654072D01*
X168456009Y-28636047D01*
X168631985Y-28582666D01*
X168794165Y-28495978D01*
X168895233Y-28413034D01*
X170110316Y-29628117D01*
X169969011Y-29656225D01*
X169716957Y-29760629D01*
X169490114Y-29912201D01*
X169297201Y-30105114D01*
X169145629Y-30331957D01*
X169041225Y-30584011D01*
X168988000Y-30851589D01*
X168988000Y-30956198D01*
X166128213Y-28096412D01*
X166139666Y-28074985D01*
X166193047Y-27899009D01*
X166211072Y-27716000D01*
X166211072Y-25116000D01*
X166193047Y-24932991D01*
X166139666Y-24757015D01*
X166052978Y-24594835D01*
X165936317Y-24452683D01*
X165794165Y-24336022D01*
X165631985Y-24249334D01*
X165456009Y-24195953D01*
X165273000Y-24177928D01*
X164673000Y-24177928D01*
X164489991Y-24195953D01*
X164314015Y-24249334D01*
X164151835Y-24336022D01*
X164009683Y-24452683D01*
X163893022Y-24594835D01*
X163806334Y-24757015D01*
X163752953Y-24932991D01*
X163734928Y-25116000D01*
X163734928Y-27716000D01*
X163752953Y-27899009D01*
X163806334Y-28074985D01*
X163893022Y-28237165D01*
X164009683Y-28379317D01*
X164151835Y-28495978D01*
X164314015Y-28582666D01*
X164489991Y-28636047D01*
X164521333Y-28639134D01*
X168651201Y-32769003D01*
X168674999Y-32798001D01*
X168703997Y-32821799D01*
X168790723Y-32892974D01*
X168922753Y-32963546D01*
X169066014Y-33007003D01*
X169177667Y-33018000D01*
X169177677Y-33018000D01*
X169215000Y-33021676D01*
X169252323Y-33018000D01*
X178151659Y-33018000D01*
X178238880Y-33148535D01*
X178433465Y-33343120D01*
X178662273Y-33496005D01*
X178739515Y-33528000D01*
X178662273Y-33559995D01*
X178433465Y-33712880D01*
X178238880Y-33907465D01*
X178085995Y-34136273D01*
X177980686Y-34390510D01*
X177927000Y-34660408D01*
X177927000Y-34935592D01*
X177980686Y-35205490D01*
X178085995Y-35459727D01*
X178238880Y-35688535D01*
X178433465Y-35883120D01*
X178662273Y-36036005D01*
X178733943Y-36065692D01*
X178720977Y-36070364D01*
X178605020Y-36132344D01*
X178538040Y-36372435D01*
X179324000Y-37158395D01*
X180109960Y-36372435D01*
X180042980Y-36132344D01*
X179907240Y-36068515D01*
X179985727Y-36036005D01*
X180214535Y-35883120D01*
X180409120Y-35688535D01*
X180442000Y-35639326D01*
X180442000Y-36594566D01*
X180289565Y-36552040D01*
X179503605Y-37338000D01*
X180289565Y-38123960D01*
X180442000Y-38081434D01*
X180442000Y-39036673D01*
X180409120Y-38987465D01*
X180214535Y-38792880D01*
X179985727Y-38639995D01*
X179914057Y-38610308D01*
X179927023Y-38605636D01*
X180042980Y-38543656D01*
X180109960Y-38303565D01*
X179324000Y-37517605D01*
X178538040Y-38303565D01*
X178605020Y-38543656D01*
X178740760Y-38607485D01*
X178662273Y-38639995D01*
X178433465Y-38792880D01*
X178238880Y-38987465D01*
X178151659Y-39118000D01*
X174744884Y-39118000D01*
X173422506Y-37795623D01*
X173673000Y-37798072D01*
X173797482Y-37785812D01*
X173917180Y-37749502D01*
X174027494Y-37690537D01*
X174124185Y-37611185D01*
X174203537Y-37514494D01*
X174259382Y-37410017D01*
X177922090Y-37410017D01*
X177963078Y-37682133D01*
X178056364Y-37941023D01*
X178118344Y-38056980D01*
X178358435Y-38123960D01*
X179144395Y-37338000D01*
X178358435Y-36552040D01*
X178118344Y-36619020D01*
X178001244Y-36868048D01*
X177934977Y-37135135D01*
X177922090Y-37410017D01*
X174259382Y-37410017D01*
X174262502Y-37404180D01*
X174298812Y-37284482D01*
X174311072Y-37160000D01*
X174308000Y-35845750D01*
X174149250Y-35687000D01*
X173200000Y-35687000D01*
X173200000Y-35707000D01*
X172946000Y-35707000D01*
X172946000Y-35687000D01*
X171996750Y-35687000D01*
X171838000Y-35845750D01*
X171836736Y-36386629D01*
X171634632Y-36184525D01*
X171391411Y-36022010D01*
X171121158Y-35910068D01*
X170834260Y-35853000D01*
X170541740Y-35853000D01*
X170254842Y-35910068D01*
X169984589Y-36022010D01*
X169741368Y-36184525D01*
X169534525Y-36391368D01*
X169372010Y-36634589D01*
X169260068Y-36904842D01*
X169203000Y-37191740D01*
X169203000Y-37484260D01*
X169260068Y-37771158D01*
X169372010Y-38041411D01*
X169534525Y-38284632D01*
X169666380Y-38416487D01*
X169593820Y-38438498D01*
X169483506Y-38497463D01*
X169386815Y-38576815D01*
X169307463Y-38673506D01*
X169248498Y-38783820D01*
X169212188Y-38903518D01*
X169199928Y-39028000D01*
X169199928Y-40728000D01*
X169212188Y-40852482D01*
X169248498Y-40972180D01*
X169261230Y-40996000D01*
X162458000Y-40996000D01*
X162458000Y-33960000D01*
X171834928Y-33960000D01*
X171838000Y-35274250D01*
X171996750Y-35433000D01*
X172946000Y-35433000D01*
X172946000Y-33483750D01*
X173200000Y-33483750D01*
X173200000Y-35433000D01*
X174149250Y-35433000D01*
X174308000Y-35274250D01*
X174311072Y-33960000D01*
X174298812Y-33835518D01*
X174262502Y-33715820D01*
X174203537Y-33605506D01*
X174124185Y-33508815D01*
X174027494Y-33429463D01*
X173917180Y-33370498D01*
X173797482Y-33334188D01*
X173673000Y-33321928D01*
X173358750Y-33325000D01*
X173200000Y-33483750D01*
X172946000Y-33483750D01*
X172787250Y-33325000D01*
X172473000Y-33321928D01*
X172348518Y-33334188D01*
X172228820Y-33370498D01*
X172118506Y-33429463D01*
X172021815Y-33508815D01*
X171942463Y-33605506D01*
X171883498Y-33715820D01*
X171847188Y-33835518D01*
X171834928Y-33960000D01*
X162458000Y-33960000D01*
X162458000Y-32031685D01*
X162490114Y-32063799D01*
X162716957Y-32215371D01*
X162969011Y-32319775D01*
X163236589Y-32373000D01*
X163509411Y-32373000D01*
X163776989Y-32319775D01*
X164029043Y-32215371D01*
X164255886Y-32063799D01*
X164448799Y-31870886D01*
X164600371Y-31644043D01*
X164704775Y-31391989D01*
X164758000Y-31124411D01*
X164758000Y-30851589D01*
X164704775Y-30584011D01*
X164600371Y-30331957D01*
X164448799Y-30105114D01*
X164255886Y-29912201D01*
X164029043Y-29760629D01*
X163776989Y-29656225D01*
X163509411Y-29603000D01*
X163236589Y-29603000D01*
X162969011Y-29656225D01*
X162716957Y-29760629D01*
X162490114Y-29912201D01*
X162458000Y-29944315D01*
X162458000Y-21234000D01*
X178221150Y-21234000D01*
X178085995Y-21436273D01*
G37*
X178085995Y-21436273D02*
X177980686Y-21690510D01*
X177927000Y-21960408D01*
X177927000Y-22235592D01*
X177980686Y-22505490D01*
X178085995Y-22759727D01*
X178238880Y-22988535D01*
X178433465Y-23183120D01*
X178662273Y-23336005D01*
X178739515Y-23368000D01*
X178662273Y-23399995D01*
X178433465Y-23552880D01*
X178238880Y-23747465D01*
X178085995Y-23976273D01*
X177980686Y-24230510D01*
X177927000Y-24500408D01*
X177927000Y-24775592D01*
X177980686Y-25045490D01*
X178085995Y-25299727D01*
X178238880Y-25528535D01*
X178433465Y-25723120D01*
X178662273Y-25876005D01*
X178739515Y-25908000D01*
X178662273Y-25939995D01*
X178433465Y-26092880D01*
X178238880Y-26287465D01*
X178085995Y-26516273D01*
X177980686Y-26770510D01*
X177951955Y-26914949D01*
X177901939Y-26905000D01*
X177839802Y-26905000D01*
X176839803Y-25905002D01*
X176816001Y-25875999D01*
X176700276Y-25781026D01*
X176568247Y-25710454D01*
X176424986Y-25666997D01*
X176313333Y-25656000D01*
X176313322Y-25656000D01*
X176276000Y-25652324D01*
X176238678Y-25656000D01*
X173196072Y-25656000D01*
X173196072Y-25116000D01*
X173178047Y-24932991D01*
X173124666Y-24757015D01*
X173037978Y-24594835D01*
X172921317Y-24452683D01*
X172779165Y-24336022D01*
X172616985Y-24249334D01*
X172441009Y-24195953D01*
X172258000Y-24177928D01*
X171658000Y-24177928D01*
X171474991Y-24195953D01*
X171299015Y-24249334D01*
X171136835Y-24336022D01*
X170994683Y-24452683D01*
X170878022Y-24594835D01*
X170791334Y-24757015D01*
X170737953Y-24932991D01*
X170719928Y-25116000D01*
X170719928Y-27716000D01*
X170737953Y-27899009D01*
X170791334Y-28074985D01*
X170878022Y-28237165D01*
X170919465Y-28287663D01*
X169211072Y-26579271D01*
X169211072Y-25116000D01*
X169193047Y-24932991D01*
X169139666Y-24757015D01*
X169052978Y-24594835D01*
X168936317Y-24452683D01*
X168794165Y-24336022D01*
X168631985Y-24249334D01*
X168456009Y-24195953D01*
X168273000Y-24177928D01*
X167673000Y-24177928D01*
X167489991Y-24195953D01*
X167314015Y-24249334D01*
X167151835Y-24336022D01*
X167009683Y-24452683D01*
X166893022Y-24594835D01*
X166806334Y-24757015D01*
X166752953Y-24932991D01*
X166734928Y-25116000D01*
X166734928Y-27716000D01*
X166752953Y-27899009D01*
X166806334Y-28074985D01*
X166893022Y-28237165D01*
X167009683Y-28379317D01*
X167151835Y-28495978D01*
X167314015Y-28582666D01*
X167489991Y-28636047D01*
X167673000Y-28654072D01*
X168273000Y-28654072D01*
X168456009Y-28636047D01*
X168631985Y-28582666D01*
X168794165Y-28495978D01*
X168895233Y-28413034D01*
X170110316Y-29628117D01*
X169969011Y-29656225D01*
X169716957Y-29760629D01*
X169490114Y-29912201D01*
X169297201Y-30105114D01*
X169145629Y-30331957D01*
X169041225Y-30584011D01*
X168988000Y-30851589D01*
X168988000Y-30956198D01*
X166128213Y-28096412D01*
X166139666Y-28074985D01*
X166193047Y-27899009D01*
X166211072Y-27716000D01*
X166211072Y-25116000D01*
X166193047Y-24932991D01*
X166139666Y-24757015D01*
X166052978Y-24594835D01*
X165936317Y-24452683D01*
X165794165Y-24336022D01*
X165631985Y-24249334D01*
X165456009Y-24195953D01*
X165273000Y-24177928D01*
X164673000Y-24177928D01*
X164489991Y-24195953D01*
X164314015Y-24249334D01*
X164151835Y-24336022D01*
X164009683Y-24452683D01*
X163893022Y-24594835D01*
X163806334Y-24757015D01*
X163752953Y-24932991D01*
X163734928Y-25116000D01*
X163734928Y-27716000D01*
X163752953Y-27899009D01*
X163806334Y-28074985D01*
X163893022Y-28237165D01*
X164009683Y-28379317D01*
X164151835Y-28495978D01*
X164314015Y-28582666D01*
X164489991Y-28636047D01*
X164521333Y-28639134D01*
X168651201Y-32769003D01*
X168674999Y-32798001D01*
X168703997Y-32821799D01*
X168790723Y-32892974D01*
X168922753Y-32963546D01*
X169066014Y-33007003D01*
X169177667Y-33018000D01*
X169177677Y-33018000D01*
X169215000Y-33021676D01*
X169252323Y-33018000D01*
X178151659Y-33018000D01*
X178238880Y-33148535D01*
X178433465Y-33343120D01*
X178662273Y-33496005D01*
X178739515Y-33528000D01*
X178662273Y-33559995D01*
X178433465Y-33712880D01*
X178238880Y-33907465D01*
X178085995Y-34136273D01*
X177980686Y-34390510D01*
X177927000Y-34660408D01*
X177927000Y-34935592D01*
X177980686Y-35205490D01*
X178085995Y-35459727D01*
X178238880Y-35688535D01*
X178433465Y-35883120D01*
X178662273Y-36036005D01*
X178733943Y-36065692D01*
X178720977Y-36070364D01*
X178605020Y-36132344D01*
X178538040Y-36372435D01*
X179324000Y-37158395D01*
X180109960Y-36372435D01*
X180042980Y-36132344D01*
X179907240Y-36068515D01*
X179985727Y-36036005D01*
X180214535Y-35883120D01*
X180409120Y-35688535D01*
X180442000Y-35639326D01*
X180442000Y-36594566D01*
X180289565Y-36552040D01*
X179503605Y-37338000D01*
X180289565Y-38123960D01*
X180442000Y-38081434D01*
X180442000Y-39036673D01*
X180409120Y-38987465D01*
X180214535Y-38792880D01*
X179985727Y-38639995D01*
X179914057Y-38610308D01*
X179927023Y-38605636D01*
X180042980Y-38543656D01*
X180109960Y-38303565D01*
X179324000Y-37517605D01*
X178538040Y-38303565D01*
X178605020Y-38543656D01*
X178740760Y-38607485D01*
X178662273Y-38639995D01*
X178433465Y-38792880D01*
X178238880Y-38987465D01*
X178151659Y-39118000D01*
X174744884Y-39118000D01*
X173422506Y-37795623D01*
X173673000Y-37798072D01*
X173797482Y-37785812D01*
X173917180Y-37749502D01*
X174027494Y-37690537D01*
X174124185Y-37611185D01*
X174203537Y-37514494D01*
X174259382Y-37410017D01*
X177922090Y-37410017D01*
X177963078Y-37682133D01*
X178056364Y-37941023D01*
X178118344Y-38056980D01*
X178358435Y-38123960D01*
X179144395Y-37338000D01*
X178358435Y-36552040D01*
X178118344Y-36619020D01*
X178001244Y-36868048D01*
X177934977Y-37135135D01*
X177922090Y-37410017D01*
X174259382Y-37410017D01*
X174262502Y-37404180D01*
X174298812Y-37284482D01*
X174311072Y-37160000D01*
X174308000Y-35845750D01*
X174149250Y-35687000D01*
X173200000Y-35687000D01*
X173200000Y-35707000D01*
X172946000Y-35707000D01*
X172946000Y-35687000D01*
X171996750Y-35687000D01*
X171838000Y-35845750D01*
X171836736Y-36386629D01*
X171634632Y-36184525D01*
X171391411Y-36022010D01*
X171121158Y-35910068D01*
X170834260Y-35853000D01*
X170541740Y-35853000D01*
X170254842Y-35910068D01*
X169984589Y-36022010D01*
X169741368Y-36184525D01*
X169534525Y-36391368D01*
X169372010Y-36634589D01*
X169260068Y-36904842D01*
X169203000Y-37191740D01*
X169203000Y-37484260D01*
X169260068Y-37771158D01*
X169372010Y-38041411D01*
X169534525Y-38284632D01*
X169666380Y-38416487D01*
X169593820Y-38438498D01*
X169483506Y-38497463D01*
X169386815Y-38576815D01*
X169307463Y-38673506D01*
X169248498Y-38783820D01*
X169212188Y-38903518D01*
X169199928Y-39028000D01*
X169199928Y-40728000D01*
X169212188Y-40852482D01*
X169248498Y-40972180D01*
X169261230Y-40996000D01*
X162458000Y-40996000D01*
X162458000Y-33960000D01*
X171834928Y-33960000D01*
X171838000Y-35274250D01*
X171996750Y-35433000D01*
X172946000Y-35433000D01*
X172946000Y-33483750D01*
X173200000Y-33483750D01*
X173200000Y-35433000D01*
X174149250Y-35433000D01*
X174308000Y-35274250D01*
X174311072Y-33960000D01*
X174298812Y-33835518D01*
X174262502Y-33715820D01*
X174203537Y-33605506D01*
X174124185Y-33508815D01*
X174027494Y-33429463D01*
X173917180Y-33370498D01*
X173797482Y-33334188D01*
X173673000Y-33321928D01*
X173358750Y-33325000D01*
X173200000Y-33483750D01*
X172946000Y-33483750D01*
X172787250Y-33325000D01*
X172473000Y-33321928D01*
X172348518Y-33334188D01*
X172228820Y-33370498D01*
X172118506Y-33429463D01*
X172021815Y-33508815D01*
X171942463Y-33605506D01*
X171883498Y-33715820D01*
X171847188Y-33835518D01*
X171834928Y-33960000D01*
X162458000Y-33960000D01*
X162458000Y-32031685D01*
X162490114Y-32063799D01*
X162716957Y-32215371D01*
X162969011Y-32319775D01*
X163236589Y-32373000D01*
X163509411Y-32373000D01*
X163776989Y-32319775D01*
X164029043Y-32215371D01*
X164255886Y-32063799D01*
X164448799Y-31870886D01*
X164600371Y-31644043D01*
X164704775Y-31391989D01*
X164758000Y-31124411D01*
X164758000Y-30851589D01*
X164704775Y-30584011D01*
X164600371Y-30331957D01*
X164448799Y-30105114D01*
X164255886Y-29912201D01*
X164029043Y-29760629D01*
X163776989Y-29656225D01*
X163509411Y-29603000D01*
X163236589Y-29603000D01*
X162969011Y-29656225D01*
X162716957Y-29760629D01*
X162490114Y-29912201D01*
X162458000Y-29944315D01*
X162458000Y-21234000D01*
X178221150Y-21234000D01*
X178085995Y-21436273D01*
M02*
