G04 #@! TF.GenerationSoftware,KiCad,Pcbnew,(5.1.5)-3*
G04 #@! TF.CreationDate,2020-12-21T12:35:23+01:00*
G04 #@! TF.ProjectId,epimetheus_mpu6050,6570696d-6574-4686-9575-735f6d707536,rev?*
G04 #@! TF.SameCoordinates,Original*
G04 #@! TF.FileFunction,Legend,Top*
G04 #@! TF.FilePolarity,Positive*
%FSLAX46Y46*%
G04 Gerber Fmt 4.6, Leading zero omitted, Abs format (unit mm)*
G04 Created by KiCad (PCBNEW (5.1.5)-3) date 2020-12-21 12:35:23*
%MOMM*%
%LPD*%
G04 APERTURE LIST*
%ADD10C,0.150000*%
%ADD11C,0.120000*%
G04 APERTURE END LIST*
D10*
X164378095Y-22042380D02*
X164378095Y-21042380D01*
X164711428Y-21756666D01*
X165044761Y-21042380D01*
X165044761Y-22042380D01*
X165520952Y-22042380D02*
X165520952Y-21042380D01*
X165901904Y-21042380D01*
X165997142Y-21090000D01*
X166044761Y-21137619D01*
X166092380Y-21232857D01*
X166092380Y-21375714D01*
X166044761Y-21470952D01*
X165997142Y-21518571D01*
X165901904Y-21566190D01*
X165520952Y-21566190D01*
X166520952Y-21042380D02*
X166520952Y-21851904D01*
X166568571Y-21947142D01*
X166616190Y-21994761D01*
X166711428Y-22042380D01*
X166901904Y-22042380D01*
X166997142Y-21994761D01*
X167044761Y-21947142D01*
X167092380Y-21851904D01*
X167092380Y-21042380D01*
X167997142Y-21042380D02*
X167806666Y-21042380D01*
X167711428Y-21090000D01*
X167663809Y-21137619D01*
X167568571Y-21280476D01*
X167520952Y-21470952D01*
X167520952Y-21851904D01*
X167568571Y-21947142D01*
X167616190Y-21994761D01*
X167711428Y-22042380D01*
X167901904Y-22042380D01*
X167997142Y-21994761D01*
X168044761Y-21947142D01*
X168092380Y-21851904D01*
X168092380Y-21613809D01*
X168044761Y-21518571D01*
X167997142Y-21470952D01*
X167901904Y-21423333D01*
X167711428Y-21423333D01*
X167616190Y-21470952D01*
X167568571Y-21518571D01*
X167520952Y-21613809D01*
X168711428Y-21042380D02*
X168806666Y-21042380D01*
X168901904Y-21090000D01*
X168949523Y-21137619D01*
X168997142Y-21232857D01*
X169044761Y-21423333D01*
X169044761Y-21661428D01*
X168997142Y-21851904D01*
X168949523Y-21947142D01*
X168901904Y-21994761D01*
X168806666Y-22042380D01*
X168711428Y-22042380D01*
X168616190Y-21994761D01*
X168568571Y-21947142D01*
X168520952Y-21851904D01*
X168473333Y-21661428D01*
X168473333Y-21423333D01*
X168520952Y-21232857D01*
X168568571Y-21137619D01*
X168616190Y-21090000D01*
X168711428Y-21042380D01*
X169949523Y-21042380D02*
X169473333Y-21042380D01*
X169425714Y-21518571D01*
X169473333Y-21470952D01*
X169568571Y-21423333D01*
X169806666Y-21423333D01*
X169901904Y-21470952D01*
X169949523Y-21518571D01*
X169997142Y-21613809D01*
X169997142Y-21851904D01*
X169949523Y-21947142D01*
X169901904Y-21994761D01*
X169806666Y-22042380D01*
X169568571Y-22042380D01*
X169473333Y-21994761D01*
X169425714Y-21947142D01*
X170616190Y-21042380D02*
X170711428Y-21042380D01*
X170806666Y-21090000D01*
X170854285Y-21137619D01*
X170901904Y-21232857D01*
X170949523Y-21423333D01*
X170949523Y-21661428D01*
X170901904Y-21851904D01*
X170854285Y-21947142D01*
X170806666Y-21994761D01*
X170711428Y-22042380D01*
X170616190Y-22042380D01*
X170520952Y-21994761D01*
X170473333Y-21947142D01*
X170425714Y-21851904D01*
X170378095Y-21661428D01*
X170378095Y-21423333D01*
X170425714Y-21232857D01*
X170473333Y-21137619D01*
X170520952Y-21090000D01*
X170616190Y-21042380D01*
D11*
X180594000Y-20828000D02*
X180594000Y-41402000D01*
X164084000Y-20828000D02*
X180594000Y-20828000D01*
X164084000Y-41402000D02*
X164084000Y-20828000D01*
X180594000Y-41402000D02*
X164084000Y-41402000D01*
X172018000Y-41208000D02*
X170688000Y-41208000D01*
X172018000Y-39878000D02*
X172018000Y-41208000D01*
X172018000Y-38608000D02*
X169358000Y-38608000D01*
X169358000Y-38608000D02*
X169358000Y-36008000D01*
X172018000Y-38608000D02*
X172018000Y-36008000D01*
X172018000Y-36008000D02*
X169358000Y-36008000D01*
X162052000Y-27888000D02*
X162052000Y-34088000D01*
X173873000Y-34088000D02*
X173873000Y-27888000D01*
X162052000Y-27888000D02*
X164148000Y-27888000D01*
X165798000Y-27888000D02*
X167148000Y-27888000D01*
X168798000Y-27888000D02*
X171198000Y-27888000D01*
X172748000Y-27888000D02*
X173873000Y-27888000D01*
X172298000Y-34088000D02*
X162052000Y-34088000D01*
D10*
X174609238Y-22550380D02*
X174609238Y-21550380D01*
X175085428Y-22550380D02*
X175085428Y-21550380D01*
X175656857Y-22550380D01*
X175656857Y-21550380D01*
X175990190Y-21550380D02*
X176561619Y-21550380D01*
X176275904Y-22550380D02*
X176275904Y-21550380D01*
X174275904Y-24804666D02*
X174752095Y-24804666D01*
X174180666Y-25090380D02*
X174514000Y-24090380D01*
X174847333Y-25090380D01*
X175180666Y-25090380D02*
X175180666Y-24090380D01*
X175418761Y-24090380D01*
X175561619Y-24138000D01*
X175656857Y-24233238D01*
X175704476Y-24328476D01*
X175752095Y-24518952D01*
X175752095Y-24661809D01*
X175704476Y-24852285D01*
X175656857Y-24947523D01*
X175561619Y-25042761D01*
X175418761Y-25090380D01*
X175180666Y-25090380D01*
X176180666Y-25090380D02*
X176180666Y-24090380D01*
X176418761Y-24090380D01*
X176561619Y-24138000D01*
X176656857Y-24233238D01*
X176704476Y-24328476D01*
X176752095Y-24518952D01*
X176752095Y-24661809D01*
X176704476Y-24852285D01*
X176656857Y-24947523D01*
X176561619Y-25042761D01*
X176418761Y-25090380D01*
X176180666Y-25090380D01*
X174275904Y-26630380D02*
X174942571Y-27630380D01*
X174942571Y-26630380D02*
X174275904Y-27630380D01*
X175894952Y-27535142D02*
X175847333Y-27582761D01*
X175704476Y-27630380D01*
X175609238Y-27630380D01*
X175466380Y-27582761D01*
X175371142Y-27487523D01*
X175323523Y-27392285D01*
X175275904Y-27201809D01*
X175275904Y-27058952D01*
X175323523Y-26868476D01*
X175371142Y-26773238D01*
X175466380Y-26678000D01*
X175609238Y-26630380D01*
X175704476Y-26630380D01*
X175847333Y-26678000D01*
X175894952Y-26725619D01*
X176799714Y-27630380D02*
X176323523Y-27630380D01*
X176323523Y-26630380D01*
X174252095Y-29170380D02*
X174918761Y-30170380D01*
X174918761Y-29170380D02*
X174252095Y-30170380D01*
X175299714Y-30170380D02*
X175299714Y-29170380D01*
X175537809Y-29170380D01*
X175680666Y-29218000D01*
X175775904Y-29313238D01*
X175823523Y-29408476D01*
X175871142Y-29598952D01*
X175871142Y-29741809D01*
X175823523Y-29932285D01*
X175775904Y-30027523D01*
X175680666Y-30122761D01*
X175537809Y-30170380D01*
X175299714Y-30170380D01*
X176252095Y-29884666D02*
X176728285Y-29884666D01*
X176156857Y-30170380D02*
X176490190Y-29170380D01*
X176823523Y-30170380D01*
X174299714Y-32662761D02*
X174442571Y-32710380D01*
X174680666Y-32710380D01*
X174775904Y-32662761D01*
X174823523Y-32615142D01*
X174871142Y-32519904D01*
X174871142Y-32424666D01*
X174823523Y-32329428D01*
X174775904Y-32281809D01*
X174680666Y-32234190D01*
X174490190Y-32186571D01*
X174394952Y-32138952D01*
X174347333Y-32091333D01*
X174299714Y-31996095D01*
X174299714Y-31900857D01*
X174347333Y-31805619D01*
X174394952Y-31758000D01*
X174490190Y-31710380D01*
X174728285Y-31710380D01*
X174871142Y-31758000D01*
X175299714Y-32710380D02*
X175299714Y-31710380D01*
X175537809Y-31710380D01*
X175680666Y-31758000D01*
X175775904Y-31853238D01*
X175823523Y-31948476D01*
X175871142Y-32138952D01*
X175871142Y-32281809D01*
X175823523Y-32472285D01*
X175775904Y-32567523D01*
X175680666Y-32662761D01*
X175537809Y-32710380D01*
X175299714Y-32710380D01*
X176252095Y-32424666D02*
X176728285Y-32424666D01*
X176156857Y-32710380D02*
X176490190Y-31710380D01*
X176823523Y-32710380D01*
X174323523Y-35202761D02*
X174466380Y-35250380D01*
X174704476Y-35250380D01*
X174799714Y-35202761D01*
X174847333Y-35155142D01*
X174894952Y-35059904D01*
X174894952Y-34964666D01*
X174847333Y-34869428D01*
X174799714Y-34821809D01*
X174704476Y-34774190D01*
X174514000Y-34726571D01*
X174418761Y-34678952D01*
X174371142Y-34631333D01*
X174323523Y-34536095D01*
X174323523Y-34440857D01*
X174371142Y-34345619D01*
X174418761Y-34298000D01*
X174514000Y-34250380D01*
X174752095Y-34250380D01*
X174894952Y-34298000D01*
X175894952Y-35155142D02*
X175847333Y-35202761D01*
X175704476Y-35250380D01*
X175609238Y-35250380D01*
X175466380Y-35202761D01*
X175371142Y-35107523D01*
X175323523Y-35012285D01*
X175275904Y-34821809D01*
X175275904Y-34678952D01*
X175323523Y-34488476D01*
X175371142Y-34393238D01*
X175466380Y-34298000D01*
X175609238Y-34250380D01*
X175704476Y-34250380D01*
X175847333Y-34298000D01*
X175894952Y-34345619D01*
X176799714Y-35250380D02*
X176323523Y-35250380D01*
X176323523Y-34250380D01*
X174752095Y-36838000D02*
X174656857Y-36790380D01*
X174514000Y-36790380D01*
X174371142Y-36838000D01*
X174275904Y-36933238D01*
X174228285Y-37028476D01*
X174180666Y-37218952D01*
X174180666Y-37361809D01*
X174228285Y-37552285D01*
X174275904Y-37647523D01*
X174371142Y-37742761D01*
X174514000Y-37790380D01*
X174609238Y-37790380D01*
X174752095Y-37742761D01*
X174799714Y-37695142D01*
X174799714Y-37361809D01*
X174609238Y-37361809D01*
X175228285Y-37790380D02*
X175228285Y-36790380D01*
X175799714Y-37790380D01*
X175799714Y-36790380D01*
X176275904Y-37790380D02*
X176275904Y-36790380D01*
X176514000Y-36790380D01*
X176656857Y-36838000D01*
X176752095Y-36933238D01*
X176799714Y-37028476D01*
X176847333Y-37218952D01*
X176847333Y-37361809D01*
X176799714Y-37552285D01*
X176752095Y-37647523D01*
X176656857Y-37742761D01*
X176514000Y-37790380D01*
X176275904Y-37790380D01*
X174180666Y-39330380D02*
X174514000Y-40330380D01*
X174847333Y-39330380D01*
X175752095Y-40235142D02*
X175704476Y-40282761D01*
X175561619Y-40330380D01*
X175466380Y-40330380D01*
X175323523Y-40282761D01*
X175228285Y-40187523D01*
X175180666Y-40092285D01*
X175133047Y-39901809D01*
X175133047Y-39758952D01*
X175180666Y-39568476D01*
X175228285Y-39473238D01*
X175323523Y-39378000D01*
X175466380Y-39330380D01*
X175561619Y-39330380D01*
X175704476Y-39378000D01*
X175752095Y-39425619D01*
X176752095Y-40235142D02*
X176704476Y-40282761D01*
X176561619Y-40330380D01*
X176466380Y-40330380D01*
X176323523Y-40282761D01*
X176228285Y-40187523D01*
X176180666Y-40092285D01*
X176133047Y-39901809D01*
X176133047Y-39758952D01*
X176180666Y-39568476D01*
X176228285Y-39473238D01*
X176323523Y-39378000D01*
X176466380Y-39330380D01*
X176561619Y-39330380D01*
X176704476Y-39378000D01*
X176752095Y-39425619D01*
M02*
