G04 #@! TF.GenerationSoftware,KiCad,Pcbnew,(5.1.5)-3*
G04 #@! TF.CreationDate,2020-12-21T12:35:23+01:00*
G04 #@! TF.ProjectId,epimetheus_mpu6050,6570696d-6574-4686-9575-735f6d707536,rev?*
G04 #@! TF.SameCoordinates,Original*
G04 #@! TF.FileFunction,Copper,L2,Bot*
G04 #@! TF.FilePolarity,Positive*
%FSLAX46Y46*%
G04 Gerber Fmt 4.6, Leading zero omitted, Abs format (unit mm)*
G04 Created by KiCad (PCBNEW (5.1.5)-3) date 2020-12-21 12:35:23*
%MOMM*%
%LPD*%
G04 APERTURE LIST*
%ADD10C,1.524000*%
%ADD11O,1.700000X1.700000*%
%ADD12R,1.700000X1.700000*%
%ADD13C,0.800000*%
%ADD14C,0.250000*%
%ADD15C,0.254000*%
G04 APERTURE END LIST*
D10*
X179324000Y-22098000D03*
X179324000Y-24638000D03*
X179324000Y-27178000D03*
X179324000Y-29718000D03*
X179324000Y-32258000D03*
X179324000Y-34798000D03*
X179324000Y-37338000D03*
X179324000Y-39878000D03*
D11*
X170688000Y-37338000D03*
D12*
X170688000Y-39878000D03*
D13*
X177800000Y-27940000D03*
D14*
X177800000Y-38354000D02*
X179324000Y-39878000D01*
X177800000Y-27940000D02*
X177800000Y-38354000D01*
X177074999Y-34591001D02*
X177074999Y-26887001D01*
X177074999Y-26887001D02*
X179324000Y-24638000D01*
X171788000Y-39878000D02*
X177074999Y-34591001D01*
X170688000Y-39878000D02*
X171788000Y-39878000D01*
D15*
G36*
X180442000Y-36594566D02*
G01*
X180289565Y-36552040D01*
X179503605Y-37338000D01*
X180289565Y-38123960D01*
X180442000Y-38081434D01*
X180442000Y-39036673D01*
X180409120Y-38987465D01*
X180214535Y-38792880D01*
X179985727Y-38639995D01*
X179914057Y-38610308D01*
X179927023Y-38605636D01*
X180042980Y-38543656D01*
X180109960Y-38303565D01*
X179324000Y-37517605D01*
X179309858Y-37531748D01*
X179130253Y-37352143D01*
X179144395Y-37338000D01*
X179130253Y-37323858D01*
X179309858Y-37144253D01*
X179324000Y-37158395D01*
X180109960Y-36372435D01*
X180042980Y-36132344D01*
X179907240Y-36068515D01*
X179985727Y-36036005D01*
X180214535Y-35883120D01*
X180409120Y-35688535D01*
X180442000Y-35639326D01*
X180442000Y-36594566D01*
G37*
X180442000Y-36594566D02*
X180289565Y-36552040D01*
X179503605Y-37338000D01*
X180289565Y-38123960D01*
X180442000Y-38081434D01*
X180442000Y-39036673D01*
X180409120Y-38987465D01*
X180214535Y-38792880D01*
X179985727Y-38639995D01*
X179914057Y-38610308D01*
X179927023Y-38605636D01*
X180042980Y-38543656D01*
X180109960Y-38303565D01*
X179324000Y-37517605D01*
X179309858Y-37531748D01*
X179130253Y-37352143D01*
X179144395Y-37338000D01*
X179130253Y-37323858D01*
X179309858Y-37144253D01*
X179324000Y-37158395D01*
X180109960Y-36372435D01*
X180042980Y-36132344D01*
X179907240Y-36068515D01*
X179985727Y-36036005D01*
X180214535Y-35883120D01*
X180409120Y-35688535D01*
X180442000Y-35639326D01*
X180442000Y-36594566D01*
M02*
