G04 #@! TF.GenerationSoftware,KiCad,Pcbnew,(5.1.5)-3*
G04 #@! TF.CreationDate,2020-12-21T13:11:51+01:00*
G04 #@! TF.ProjectId,epimetheus_bh1750,6570696d-6574-4686-9575-735f62683137,rev?*
G04 #@! TF.SameCoordinates,Original*
G04 #@! TF.FileFunction,Copper,L2,Bot*
G04 #@! TF.FilePolarity,Positive*
%FSLAX46Y46*%
G04 Gerber Fmt 4.6, Leading zero omitted, Abs format (unit mm)*
G04 Created by KiCad (PCBNEW (5.1.5)-3) date 2020-12-21 13:11:51*
%MOMM*%
%LPD*%
G04 APERTURE LIST*
%ADD10C,1.524000*%
%ADD11O,1.700000X1.700000*%
%ADD12R,1.700000X1.700000*%
%ADD13C,0.800000*%
%ADD14C,0.250000*%
%ADD15C,0.254000*%
G04 APERTURE END LIST*
D10*
X179070000Y-25908000D03*
X179070000Y-28448000D03*
X179070000Y-30988000D03*
X179070000Y-33528000D03*
X179070000Y-36068000D03*
D11*
X171196000Y-35306000D03*
D12*
X171196000Y-37846000D03*
D13*
X172974000Y-34798000D03*
X173228000Y-24892000D03*
D14*
X179070000Y-25908000D02*
X174244000Y-25908000D01*
X174244000Y-25908000D02*
X173228000Y-24892000D01*
X169297999Y-33407999D02*
X171196000Y-35306000D01*
X169297999Y-30471999D02*
X169297999Y-33407999D01*
X173861998Y-25908000D02*
X169297999Y-30471999D01*
X179070000Y-25908000D02*
X173861998Y-25908000D01*
D15*
G36*
X180442001Y-28177417D02*
G01*
X180430922Y-28103867D01*
X180337636Y-27844977D01*
X180275656Y-27729020D01*
X180035565Y-27662040D01*
X179249605Y-28448000D01*
X180035565Y-29233960D01*
X180275656Y-29166980D01*
X180392756Y-28917952D01*
X180442001Y-28719473D01*
X180442001Y-30724727D01*
X180413314Y-30580510D01*
X180308005Y-30326273D01*
X180155120Y-30097465D01*
X179960535Y-29902880D01*
X179731727Y-29749995D01*
X179660057Y-29720308D01*
X179673023Y-29715636D01*
X179788980Y-29653656D01*
X179855960Y-29413565D01*
X179070000Y-28627605D01*
X178284040Y-29413565D01*
X178351020Y-29653656D01*
X178486760Y-29717485D01*
X178408273Y-29749995D01*
X178179465Y-29902880D01*
X177984880Y-30097465D01*
X177831995Y-30326273D01*
X177726686Y-30580510D01*
X177673000Y-30850408D01*
X177673000Y-31125592D01*
X177726686Y-31395490D01*
X177831995Y-31649727D01*
X177984880Y-31878535D01*
X178179465Y-32073120D01*
X178408273Y-32226005D01*
X178485515Y-32258000D01*
X178408273Y-32289995D01*
X178179465Y-32442880D01*
X177984880Y-32637465D01*
X177831995Y-32866273D01*
X177726686Y-33120510D01*
X177673000Y-33390408D01*
X177673000Y-33665592D01*
X177726686Y-33935490D01*
X177831995Y-34189727D01*
X177984880Y-34418535D01*
X178179465Y-34613120D01*
X178408273Y-34766005D01*
X178485515Y-34798000D01*
X178408273Y-34829995D01*
X178179465Y-34982880D01*
X177984880Y-35177465D01*
X177831995Y-35406273D01*
X177726686Y-35660510D01*
X177673000Y-35930408D01*
X177673000Y-36205592D01*
X177726686Y-36475490D01*
X177831995Y-36729727D01*
X177984880Y-36958535D01*
X178179465Y-37153120D01*
X178408273Y-37306005D01*
X178662510Y-37411314D01*
X178932408Y-37465000D01*
X179207592Y-37465000D01*
X179477490Y-37411314D01*
X179731727Y-37306005D01*
X179960535Y-37153120D01*
X180155120Y-36958535D01*
X180308005Y-36729727D01*
X180413314Y-36475490D01*
X180442000Y-36331275D01*
X180442000Y-38202000D01*
X172684072Y-38202000D01*
X172684072Y-36996000D01*
X172671812Y-36871518D01*
X172635502Y-36751820D01*
X172576537Y-36641506D01*
X172497185Y-36544815D01*
X172400494Y-36465463D01*
X172290180Y-36406498D01*
X172217620Y-36384487D01*
X172349475Y-36252632D01*
X172511990Y-36009411D01*
X172623932Y-35739158D01*
X172681000Y-35452260D01*
X172681000Y-35159740D01*
X172623932Y-34872842D01*
X172511990Y-34602589D01*
X172349475Y-34359368D01*
X172142632Y-34152525D01*
X171899411Y-33990010D01*
X171629158Y-33878068D01*
X171342260Y-33821000D01*
X171049740Y-33821000D01*
X170829592Y-33864790D01*
X170057999Y-33093198D01*
X170057999Y-32337476D01*
X170236589Y-32373000D01*
X170509411Y-32373000D01*
X170776989Y-32319775D01*
X171029043Y-32215371D01*
X171255886Y-32063799D01*
X171448799Y-31870886D01*
X171600371Y-31644043D01*
X171704775Y-31391989D01*
X171758000Y-31124411D01*
X171758000Y-30851589D01*
X171704775Y-30584011D01*
X171600371Y-30331957D01*
X171448799Y-30105114D01*
X171255886Y-29912201D01*
X171062089Y-29782710D01*
X172324782Y-28520017D01*
X177668090Y-28520017D01*
X177709078Y-28792133D01*
X177802364Y-29051023D01*
X177864344Y-29166980D01*
X178104435Y-29233960D01*
X178890395Y-28448000D01*
X178104435Y-27662040D01*
X177864344Y-27729020D01*
X177747244Y-27978048D01*
X177680977Y-28245135D01*
X177668090Y-28520017D01*
X172324782Y-28520017D01*
X174176800Y-26668000D01*
X174206677Y-26668000D01*
X174244000Y-26671676D01*
X174281322Y-26668000D01*
X177897659Y-26668000D01*
X177984880Y-26798535D01*
X178179465Y-26993120D01*
X178408273Y-27146005D01*
X178479943Y-27175692D01*
X178466977Y-27180364D01*
X178351020Y-27242344D01*
X178284040Y-27482435D01*
X179070000Y-28268395D01*
X179855960Y-27482435D01*
X179788980Y-27242344D01*
X179653240Y-27178515D01*
X179731727Y-27146005D01*
X179960535Y-26993120D01*
X180155120Y-26798535D01*
X180308005Y-26569727D01*
X180413314Y-26315490D01*
X180442001Y-26171272D01*
X180442001Y-28177417D01*
G37*
X180442001Y-28177417D02*
X180430922Y-28103867D01*
X180337636Y-27844977D01*
X180275656Y-27729020D01*
X180035565Y-27662040D01*
X179249605Y-28448000D01*
X180035565Y-29233960D01*
X180275656Y-29166980D01*
X180392756Y-28917952D01*
X180442001Y-28719473D01*
X180442001Y-30724727D01*
X180413314Y-30580510D01*
X180308005Y-30326273D01*
X180155120Y-30097465D01*
X179960535Y-29902880D01*
X179731727Y-29749995D01*
X179660057Y-29720308D01*
X179673023Y-29715636D01*
X179788980Y-29653656D01*
X179855960Y-29413565D01*
X179070000Y-28627605D01*
X178284040Y-29413565D01*
X178351020Y-29653656D01*
X178486760Y-29717485D01*
X178408273Y-29749995D01*
X178179465Y-29902880D01*
X177984880Y-30097465D01*
X177831995Y-30326273D01*
X177726686Y-30580510D01*
X177673000Y-30850408D01*
X177673000Y-31125592D01*
X177726686Y-31395490D01*
X177831995Y-31649727D01*
X177984880Y-31878535D01*
X178179465Y-32073120D01*
X178408273Y-32226005D01*
X178485515Y-32258000D01*
X178408273Y-32289995D01*
X178179465Y-32442880D01*
X177984880Y-32637465D01*
X177831995Y-32866273D01*
X177726686Y-33120510D01*
X177673000Y-33390408D01*
X177673000Y-33665592D01*
X177726686Y-33935490D01*
X177831995Y-34189727D01*
X177984880Y-34418535D01*
X178179465Y-34613120D01*
X178408273Y-34766005D01*
X178485515Y-34798000D01*
X178408273Y-34829995D01*
X178179465Y-34982880D01*
X177984880Y-35177465D01*
X177831995Y-35406273D01*
X177726686Y-35660510D01*
X177673000Y-35930408D01*
X177673000Y-36205592D01*
X177726686Y-36475490D01*
X177831995Y-36729727D01*
X177984880Y-36958535D01*
X178179465Y-37153120D01*
X178408273Y-37306005D01*
X178662510Y-37411314D01*
X178932408Y-37465000D01*
X179207592Y-37465000D01*
X179477490Y-37411314D01*
X179731727Y-37306005D01*
X179960535Y-37153120D01*
X180155120Y-36958535D01*
X180308005Y-36729727D01*
X180413314Y-36475490D01*
X180442000Y-36331275D01*
X180442000Y-38202000D01*
X172684072Y-38202000D01*
X172684072Y-36996000D01*
X172671812Y-36871518D01*
X172635502Y-36751820D01*
X172576537Y-36641506D01*
X172497185Y-36544815D01*
X172400494Y-36465463D01*
X172290180Y-36406498D01*
X172217620Y-36384487D01*
X172349475Y-36252632D01*
X172511990Y-36009411D01*
X172623932Y-35739158D01*
X172681000Y-35452260D01*
X172681000Y-35159740D01*
X172623932Y-34872842D01*
X172511990Y-34602589D01*
X172349475Y-34359368D01*
X172142632Y-34152525D01*
X171899411Y-33990010D01*
X171629158Y-33878068D01*
X171342260Y-33821000D01*
X171049740Y-33821000D01*
X170829592Y-33864790D01*
X170057999Y-33093198D01*
X170057999Y-32337476D01*
X170236589Y-32373000D01*
X170509411Y-32373000D01*
X170776989Y-32319775D01*
X171029043Y-32215371D01*
X171255886Y-32063799D01*
X171448799Y-31870886D01*
X171600371Y-31644043D01*
X171704775Y-31391989D01*
X171758000Y-31124411D01*
X171758000Y-30851589D01*
X171704775Y-30584011D01*
X171600371Y-30331957D01*
X171448799Y-30105114D01*
X171255886Y-29912201D01*
X171062089Y-29782710D01*
X172324782Y-28520017D01*
X177668090Y-28520017D01*
X177709078Y-28792133D01*
X177802364Y-29051023D01*
X177864344Y-29166980D01*
X178104435Y-29233960D01*
X178890395Y-28448000D01*
X178104435Y-27662040D01*
X177864344Y-27729020D01*
X177747244Y-27978048D01*
X177680977Y-28245135D01*
X177668090Y-28520017D01*
X172324782Y-28520017D01*
X174176800Y-26668000D01*
X174206677Y-26668000D01*
X174244000Y-26671676D01*
X174281322Y-26668000D01*
X177897659Y-26668000D01*
X177984880Y-26798535D01*
X178179465Y-26993120D01*
X178408273Y-27146005D01*
X178479943Y-27175692D01*
X178466977Y-27180364D01*
X178351020Y-27242344D01*
X178284040Y-27482435D01*
X179070000Y-28268395D01*
X179855960Y-27482435D01*
X179788980Y-27242344D01*
X179653240Y-27178515D01*
X179731727Y-27146005D01*
X179960535Y-26993120D01*
X180155120Y-26798535D01*
X180308005Y-26569727D01*
X180413314Y-26315490D01*
X180442001Y-26171272D01*
X180442001Y-28177417D01*
M02*
