G04 #@! TF.GenerationSoftware,KiCad,Pcbnew,(5.1.5)-3*
G04 #@! TF.CreationDate,2020-12-21T13:11:51+01:00*
G04 #@! TF.ProjectId,epimetheus_bh1750,6570696d-6574-4686-9575-735f62683137,rev?*
G04 #@! TF.SameCoordinates,Original*
G04 #@! TF.FileFunction,Legend,Bot*
G04 #@! TF.FilePolarity,Positive*
%FSLAX46Y46*%
G04 Gerber Fmt 4.6, Leading zero omitted, Abs format (unit mm)*
G04 Created by KiCad (PCBNEW (5.1.5)-3) date 2020-12-21 13:11:51*
%MOMM*%
%LPD*%
G04 APERTURE LIST*
%ADD10C,0.150000*%
%ADD11C,0.010000*%
G04 APERTURE END LIST*
D10*
X165258571Y-37552380D02*
X165163333Y-37552380D01*
X165068095Y-37600000D01*
X165020476Y-37647619D01*
X164972857Y-37742857D01*
X164925238Y-37933333D01*
X164925238Y-38171428D01*
X164972857Y-38361904D01*
X165020476Y-38457142D01*
X165068095Y-38504761D01*
X165163333Y-38552380D01*
X165258571Y-38552380D01*
X165353809Y-38504761D01*
X165401428Y-38457142D01*
X165449047Y-38361904D01*
X165496666Y-38171428D01*
X165496666Y-37933333D01*
X165449047Y-37742857D01*
X165401428Y-37647619D01*
X165353809Y-37600000D01*
X165258571Y-37552380D01*
X164591904Y-38552380D02*
X164068095Y-37885714D01*
X164591904Y-37885714D02*
X164068095Y-38552380D01*
X163210952Y-37552380D02*
X163687142Y-37552380D01*
X163734761Y-38028571D01*
X163687142Y-37980952D01*
X163591904Y-37933333D01*
X163353809Y-37933333D01*
X163258571Y-37980952D01*
X163210952Y-38028571D01*
X163163333Y-38123809D01*
X163163333Y-38361904D01*
X163210952Y-38457142D01*
X163258571Y-38504761D01*
X163353809Y-38552380D01*
X163591904Y-38552380D01*
X163687142Y-38504761D01*
X163734761Y-38457142D01*
X162163333Y-38457142D02*
X162210952Y-38504761D01*
X162353809Y-38552380D01*
X162449047Y-38552380D01*
X162591904Y-38504761D01*
X162687142Y-38409523D01*
X162734761Y-38314285D01*
X162782380Y-38123809D01*
X162782380Y-37980952D01*
X162734761Y-37790476D01*
X162687142Y-37695238D01*
X162591904Y-37600000D01*
X162449047Y-37552380D01*
X162353809Y-37552380D01*
X162210952Y-37600000D01*
X162163333Y-37647619D01*
X171838761Y-23328380D02*
X171743523Y-23328380D01*
X171648285Y-23376000D01*
X171600666Y-23423619D01*
X171553047Y-23518857D01*
X171505428Y-23709333D01*
X171505428Y-23947428D01*
X171553047Y-24137904D01*
X171600666Y-24233142D01*
X171648285Y-24280761D01*
X171743523Y-24328380D01*
X171838761Y-24328380D01*
X171934000Y-24280761D01*
X171981619Y-24233142D01*
X172029238Y-24137904D01*
X172076857Y-23947428D01*
X172076857Y-23709333D01*
X172029238Y-23518857D01*
X171981619Y-23423619D01*
X171934000Y-23376000D01*
X171838761Y-23328380D01*
X171172095Y-24328380D02*
X170648285Y-23661714D01*
X171172095Y-23661714D02*
X170648285Y-24328380D01*
X170314952Y-23423619D02*
X170267333Y-23376000D01*
X170172095Y-23328380D01*
X169934000Y-23328380D01*
X169838761Y-23376000D01*
X169791142Y-23423619D01*
X169743523Y-23518857D01*
X169743523Y-23614095D01*
X169791142Y-23756952D01*
X170362571Y-24328380D01*
X169743523Y-24328380D01*
X169410190Y-23328380D02*
X168791142Y-23328380D01*
X169124476Y-23709333D01*
X168981619Y-23709333D01*
X168886380Y-23756952D01*
X168838761Y-23804571D01*
X168791142Y-23899809D01*
X168791142Y-24137904D01*
X168838761Y-24233142D01*
X168886380Y-24280761D01*
X168981619Y-24328380D01*
X169267333Y-24328380D01*
X169362571Y-24280761D01*
X169410190Y-24233142D01*
X177871142Y-23804571D02*
X177728285Y-23852190D01*
X177680666Y-23899809D01*
X177633047Y-23995047D01*
X177633047Y-24137904D01*
X177680666Y-24233142D01*
X177728285Y-24280761D01*
X177823523Y-24328380D01*
X178204476Y-24328380D01*
X178204476Y-23328380D01*
X177871142Y-23328380D01*
X177775904Y-23376000D01*
X177728285Y-23423619D01*
X177680666Y-23518857D01*
X177680666Y-23614095D01*
X177728285Y-23709333D01*
X177775904Y-23756952D01*
X177871142Y-23804571D01*
X178204476Y-23804571D01*
X177204476Y-24328380D02*
X177204476Y-23328380D01*
X177204476Y-23804571D02*
X176633047Y-23804571D01*
X176633047Y-24328380D02*
X176633047Y-23328380D01*
X175633047Y-24328380D02*
X176204476Y-24328380D01*
X175918761Y-24328380D02*
X175918761Y-23328380D01*
X176014000Y-23471238D01*
X176109238Y-23566476D01*
X176204476Y-23614095D01*
X175299714Y-23328380D02*
X174633047Y-23328380D01*
X175061619Y-24328380D01*
X173775904Y-23328380D02*
X174252095Y-23328380D01*
X174299714Y-23804571D01*
X174252095Y-23756952D01*
X174156857Y-23709333D01*
X173918761Y-23709333D01*
X173823523Y-23756952D01*
X173775904Y-23804571D01*
X173728285Y-23899809D01*
X173728285Y-24137904D01*
X173775904Y-24233142D01*
X173823523Y-24280761D01*
X173918761Y-24328380D01*
X174156857Y-24328380D01*
X174252095Y-24280761D01*
X174299714Y-24233142D01*
X173109238Y-23328380D02*
X173014000Y-23328380D01*
X172918761Y-23376000D01*
X172871142Y-23423619D01*
X172823523Y-23518857D01*
X172775904Y-23709333D01*
X172775904Y-23947428D01*
X172823523Y-24137904D01*
X172871142Y-24233142D01*
X172918761Y-24280761D01*
X173014000Y-24328380D01*
X173109238Y-24328380D01*
X173204476Y-24280761D01*
X173252095Y-24233142D01*
X173299714Y-24137904D01*
X173347333Y-23947428D01*
X173347333Y-23709333D01*
X173299714Y-23518857D01*
X173252095Y-23423619D01*
X173204476Y-23376000D01*
X173109238Y-23328380D01*
D11*
G36*
X174123040Y-31569544D02*
G01*
X174135931Y-31521294D01*
X174154660Y-31446004D01*
X174178216Y-31347865D01*
X174205585Y-31231070D01*
X174235756Y-31099809D01*
X174253923Y-31019664D01*
X174381774Y-30452785D01*
X174308351Y-30440523D01*
X174260486Y-30435472D01*
X174186985Y-30431176D01*
X174098498Y-30428135D01*
X174019809Y-30426916D01*
X173924633Y-30427221D01*
X173861315Y-30429844D01*
X173825473Y-30435238D01*
X173812728Y-30443855D01*
X173813094Y-30448250D01*
X173819525Y-30470836D01*
X173833794Y-30524169D01*
X173854751Y-30603844D01*
X173881243Y-30705454D01*
X173912120Y-30824591D01*
X173946231Y-30956849D01*
X173964714Y-31028755D01*
X173999919Y-31164811D01*
X174032548Y-31288867D01*
X174061459Y-31396743D01*
X174085511Y-31484259D01*
X174103563Y-31547232D01*
X174114472Y-31581482D01*
X174117000Y-31586562D01*
X174123040Y-31569544D01*
G37*
X174123040Y-31569544D02*
X174135931Y-31521294D01*
X174154660Y-31446004D01*
X174178216Y-31347865D01*
X174205585Y-31231070D01*
X174235756Y-31099809D01*
X174253923Y-31019664D01*
X174381774Y-30452785D01*
X174308351Y-30440523D01*
X174260486Y-30435472D01*
X174186985Y-30431176D01*
X174098498Y-30428135D01*
X174019809Y-30426916D01*
X173924633Y-30427221D01*
X173861315Y-30429844D01*
X173825473Y-30435238D01*
X173812728Y-30443855D01*
X173813094Y-30448250D01*
X173819525Y-30470836D01*
X173833794Y-30524169D01*
X173854751Y-30603844D01*
X173881243Y-30705454D01*
X173912120Y-30824591D01*
X173946231Y-30956849D01*
X173964714Y-31028755D01*
X173999919Y-31164811D01*
X174032548Y-31288867D01*
X174061459Y-31396743D01*
X174085511Y-31484259D01*
X174103563Y-31547232D01*
X174114472Y-31581482D01*
X174117000Y-31586562D01*
X174123040Y-31569544D01*
G36*
X176515882Y-30656514D02*
G01*
X176511151Y-30634471D01*
X176493452Y-30589706D01*
X176461947Y-30520379D01*
X176415799Y-30424650D01*
X176354172Y-30300679D01*
X176276229Y-30146627D01*
X176274213Y-30142668D01*
X176208549Y-30013699D01*
X176148361Y-29895502D01*
X176095569Y-29791842D01*
X176052089Y-29706485D01*
X176019842Y-29643196D01*
X176000744Y-29605743D01*
X175996209Y-29596882D01*
X175982954Y-29607284D01*
X175947543Y-29638075D01*
X175894602Y-29685154D01*
X175828756Y-29744425D01*
X175788649Y-29780796D01*
X175717339Y-29846155D01*
X175656392Y-29903022D01*
X175610509Y-29946931D01*
X175584393Y-29973414D01*
X175580172Y-29978866D01*
X175593688Y-29991062D01*
X175632459Y-30021330D01*
X175692263Y-30066582D01*
X175768878Y-30123729D01*
X175858082Y-30189686D01*
X175955650Y-30261363D01*
X176057362Y-30335674D01*
X176158995Y-30409531D01*
X176256326Y-30479846D01*
X176345133Y-30543531D01*
X176421194Y-30597500D01*
X176480285Y-30638664D01*
X176508481Y-30657675D01*
X176515882Y-30656514D01*
G37*
X176515882Y-30656514D02*
X176511151Y-30634471D01*
X176493452Y-30589706D01*
X176461947Y-30520379D01*
X176415799Y-30424650D01*
X176354172Y-30300679D01*
X176276229Y-30146627D01*
X176274213Y-30142668D01*
X176208549Y-30013699D01*
X176148361Y-29895502D01*
X176095569Y-29791842D01*
X176052089Y-29706485D01*
X176019842Y-29643196D01*
X176000744Y-29605743D01*
X175996209Y-29596882D01*
X175982954Y-29607284D01*
X175947543Y-29638075D01*
X175894602Y-29685154D01*
X175828756Y-29744425D01*
X175788649Y-29780796D01*
X175717339Y-29846155D01*
X175656392Y-29903022D01*
X175610509Y-29946931D01*
X175584393Y-29973414D01*
X175580172Y-29978866D01*
X175593688Y-29991062D01*
X175632459Y-30021330D01*
X175692263Y-30066582D01*
X175768878Y-30123729D01*
X175858082Y-30189686D01*
X175955650Y-30261363D01*
X176057362Y-30335674D01*
X176158995Y-30409531D01*
X176256326Y-30479846D01*
X176345133Y-30543531D01*
X176421194Y-30597500D01*
X176480285Y-30638664D01*
X176508481Y-30657675D01*
X176515882Y-30656514D01*
G36*
X172069595Y-30315599D02*
G01*
X172184552Y-30232960D01*
X172290983Y-30155997D01*
X172385023Y-30087543D01*
X172462802Y-30030428D01*
X172520455Y-29987485D01*
X172554112Y-29961546D01*
X172560282Y-29956289D01*
X172570473Y-29943319D01*
X172571114Y-29928273D01*
X172558833Y-29906952D01*
X172530257Y-29875160D01*
X172482014Y-29828699D01*
X172410732Y-29763373D01*
X172390698Y-29745214D01*
X172319675Y-29681315D01*
X172258094Y-29626686D01*
X172210968Y-29585713D01*
X172183308Y-29562783D01*
X172178487Y-29559497D01*
X172167740Y-29574025D01*
X172142615Y-29617242D01*
X172105098Y-29685451D01*
X172057175Y-29774953D01*
X172000831Y-29882050D01*
X171938050Y-30003045D01*
X171888167Y-30100235D01*
X171609691Y-30645261D01*
X172069595Y-30315599D01*
G37*
X172069595Y-30315599D02*
X172184552Y-30232960D01*
X172290983Y-30155997D01*
X172385023Y-30087543D01*
X172462802Y-30030428D01*
X172520455Y-29987485D01*
X172554112Y-29961546D01*
X172560282Y-29956289D01*
X172570473Y-29943319D01*
X172571114Y-29928273D01*
X172558833Y-29906952D01*
X172530257Y-29875160D01*
X172482014Y-29828699D01*
X172410732Y-29763373D01*
X172390698Y-29745214D01*
X172319675Y-29681315D01*
X172258094Y-29626686D01*
X172210968Y-29585713D01*
X172183308Y-29562783D01*
X172178487Y-29559497D01*
X172167740Y-29574025D01*
X172142615Y-29617242D01*
X172105098Y-29685451D01*
X172057175Y-29774953D01*
X172000831Y-29882050D01*
X171938050Y-30003045D01*
X171888167Y-30100235D01*
X171609691Y-30645261D01*
X172069595Y-30315599D01*
G36*
X176480107Y-28388902D02*
G01*
X176502892Y-28382903D01*
X176556568Y-28370007D01*
X176636619Y-28351260D01*
X176738531Y-28327708D01*
X176857788Y-28300399D01*
X176989876Y-28270379D01*
X177047071Y-28257445D01*
X177182584Y-28226586D01*
X177306607Y-28197848D01*
X177414726Y-28172292D01*
X177502533Y-28150980D01*
X177565614Y-28134973D01*
X177599559Y-28125332D01*
X177604081Y-28123424D01*
X177590368Y-28116383D01*
X177545530Y-28101626D01*
X177473625Y-28080306D01*
X177378713Y-28053577D01*
X177264853Y-28022594D01*
X177136104Y-27988511D01*
X177059795Y-27968701D01*
X176922614Y-27933267D01*
X176796278Y-27900510D01*
X176685197Y-27871582D01*
X176593777Y-27847635D01*
X176526427Y-27829823D01*
X176487556Y-27819299D01*
X176480107Y-27817105D01*
X176471294Y-27822109D01*
X176464933Y-27846891D01*
X176460714Y-27895390D01*
X176458323Y-27971544D01*
X176457449Y-28079290D01*
X176457428Y-28103286D01*
X176458048Y-28217266D01*
X176460117Y-28298921D01*
X176463948Y-28352191D01*
X176469854Y-28381018D01*
X176478148Y-28389344D01*
X176480107Y-28388902D01*
G37*
X176480107Y-28388902D02*
X176502892Y-28382903D01*
X176556568Y-28370007D01*
X176636619Y-28351260D01*
X176738531Y-28327708D01*
X176857788Y-28300399D01*
X176989876Y-28270379D01*
X177047071Y-28257445D01*
X177182584Y-28226586D01*
X177306607Y-28197848D01*
X177414726Y-28172292D01*
X177502533Y-28150980D01*
X177565614Y-28134973D01*
X177599559Y-28125332D01*
X177604081Y-28123424D01*
X177590368Y-28116383D01*
X177545530Y-28101626D01*
X177473625Y-28080306D01*
X177378713Y-28053577D01*
X177264853Y-28022594D01*
X177136104Y-27988511D01*
X177059795Y-27968701D01*
X176922614Y-27933267D01*
X176796278Y-27900510D01*
X176685197Y-27871582D01*
X176593777Y-27847635D01*
X176526427Y-27829823D01*
X176487556Y-27819299D01*
X176480107Y-27817105D01*
X176471294Y-27822109D01*
X176464933Y-27846891D01*
X176460714Y-27895390D01*
X176458323Y-27971544D01*
X176457449Y-28079290D01*
X176457428Y-28103286D01*
X176458048Y-28217266D01*
X176460117Y-28298921D01*
X176463948Y-28352191D01*
X176469854Y-28381018D01*
X176478148Y-28389344D01*
X176480107Y-28388902D01*
G36*
X171676912Y-28321694D02*
G01*
X171680886Y-28274636D01*
X171683873Y-28203601D01*
X171685576Y-28114745D01*
X171685857Y-28057928D01*
X171685129Y-27945188D01*
X171682733Y-27864780D01*
X171678350Y-27812773D01*
X171671662Y-27785238D01*
X171663178Y-27778144D01*
X171640661Y-27782889D01*
X171587381Y-27795677D01*
X171507689Y-27815417D01*
X171405939Y-27841017D01*
X171286484Y-27871384D01*
X171153678Y-27905425D01*
X171071788Y-27926541D01*
X170503077Y-28073509D01*
X171080860Y-28205805D01*
X171220528Y-28237709D01*
X171348862Y-28266876D01*
X171461589Y-28292348D01*
X171554438Y-28313165D01*
X171623136Y-28328367D01*
X171663411Y-28336995D01*
X171672250Y-28338622D01*
X171676912Y-28321694D01*
G37*
X171676912Y-28321694D02*
X171680886Y-28274636D01*
X171683873Y-28203601D01*
X171685576Y-28114745D01*
X171685857Y-28057928D01*
X171685129Y-27945188D01*
X171682733Y-27864780D01*
X171678350Y-27812773D01*
X171671662Y-27785238D01*
X171663178Y-27778144D01*
X171640661Y-27782889D01*
X171587381Y-27795677D01*
X171507689Y-27815417D01*
X171405939Y-27841017D01*
X171286484Y-27871384D01*
X171153678Y-27905425D01*
X171071788Y-27926541D01*
X170503077Y-28073509D01*
X171080860Y-28205805D01*
X171220528Y-28237709D01*
X171348862Y-28266876D01*
X171461589Y-28292348D01*
X171554438Y-28313165D01*
X171623136Y-28328367D01*
X171663411Y-28336995D01*
X171672250Y-28338622D01*
X171676912Y-28321694D01*
G36*
X174425383Y-30330966D02*
G01*
X174624359Y-30294191D01*
X174817702Y-30236208D01*
X175014381Y-30155298D01*
X175039019Y-30143784D01*
X175287114Y-30007388D01*
X175511492Y-29845614D01*
X175711231Y-29661184D01*
X175885409Y-29456821D01*
X176033102Y-29235247D01*
X176153388Y-28999185D01*
X176245344Y-28751357D01*
X176308048Y-28494487D01*
X176340578Y-28231296D01*
X176342010Y-27964507D01*
X176311422Y-27696843D01*
X176247892Y-27431026D01*
X176150496Y-27169778D01*
X176089670Y-27043373D01*
X175944648Y-26802704D01*
X175771670Y-26583521D01*
X175573371Y-26387790D01*
X175352385Y-26217480D01*
X175111346Y-26074558D01*
X174852890Y-25960992D01*
X174579649Y-25878750D01*
X174510200Y-25863490D01*
X174402996Y-25846792D01*
X174273754Y-25834579D01*
X174134608Y-25827312D01*
X173997694Y-25825447D01*
X173875147Y-25829445D01*
X173799500Y-25836630D01*
X173517295Y-25892653D01*
X173248397Y-25980827D01*
X172995135Y-26099247D01*
X172759835Y-26246006D01*
X172544827Y-26419198D01*
X172352439Y-26616917D01*
X172184999Y-26837257D01*
X172044834Y-27078310D01*
X171934274Y-27338172D01*
X171922004Y-27373814D01*
X171857868Y-27616406D01*
X171821193Y-27873849D01*
X171811981Y-28137877D01*
X171830234Y-28400225D01*
X171875956Y-28652628D01*
X171921553Y-28810857D01*
X172028481Y-29072405D01*
X172166419Y-29317383D01*
X172332850Y-29543098D01*
X172525256Y-29746855D01*
X172741119Y-29925961D01*
X172977922Y-30077722D01*
X173210767Y-30190318D01*
X173376391Y-30252335D01*
X173535547Y-30296877D01*
X173700291Y-30326431D01*
X173882681Y-30343481D01*
X173974649Y-30347769D01*
X174211802Y-30348252D01*
X174425383Y-30330966D01*
G37*
X174425383Y-30330966D02*
X174624359Y-30294191D01*
X174817702Y-30236208D01*
X175014381Y-30155298D01*
X175039019Y-30143784D01*
X175287114Y-30007388D01*
X175511492Y-29845614D01*
X175711231Y-29661184D01*
X175885409Y-29456821D01*
X176033102Y-29235247D01*
X176153388Y-28999185D01*
X176245344Y-28751357D01*
X176308048Y-28494487D01*
X176340578Y-28231296D01*
X176342010Y-27964507D01*
X176311422Y-27696843D01*
X176247892Y-27431026D01*
X176150496Y-27169778D01*
X176089670Y-27043373D01*
X175944648Y-26802704D01*
X175771670Y-26583521D01*
X175573371Y-26387790D01*
X175352385Y-26217480D01*
X175111346Y-26074558D01*
X174852890Y-25960992D01*
X174579649Y-25878750D01*
X174510200Y-25863490D01*
X174402996Y-25846792D01*
X174273754Y-25834579D01*
X174134608Y-25827312D01*
X173997694Y-25825447D01*
X173875147Y-25829445D01*
X173799500Y-25836630D01*
X173517295Y-25892653D01*
X173248397Y-25980827D01*
X172995135Y-26099247D01*
X172759835Y-26246006D01*
X172544827Y-26419198D01*
X172352439Y-26616917D01*
X172184999Y-26837257D01*
X172044834Y-27078310D01*
X171934274Y-27338172D01*
X171922004Y-27373814D01*
X171857868Y-27616406D01*
X171821193Y-27873849D01*
X171811981Y-28137877D01*
X171830234Y-28400225D01*
X171875956Y-28652628D01*
X171921553Y-28810857D01*
X172028481Y-29072405D01*
X172166419Y-29317383D01*
X172332850Y-29543098D01*
X172525256Y-29746855D01*
X172741119Y-29925961D01*
X172977922Y-30077722D01*
X173210767Y-30190318D01*
X173376391Y-30252335D01*
X173535547Y-30296877D01*
X173700291Y-30326431D01*
X173882681Y-30343481D01*
X173974649Y-30347769D01*
X174211802Y-30348252D01*
X174425383Y-30330966D01*
G36*
X176024473Y-26545175D02*
G01*
X176049867Y-26502245D01*
X176086716Y-26436217D01*
X176132628Y-26351692D01*
X176185208Y-26253272D01*
X176242063Y-26145558D01*
X176300801Y-26033151D01*
X176359027Y-25920653D01*
X176414349Y-25812665D01*
X176464372Y-25713788D01*
X176506705Y-25628623D01*
X176538953Y-25561772D01*
X176558723Y-25517836D01*
X176563726Y-25501474D01*
X176548003Y-25510402D01*
X176506413Y-25538182D01*
X176442463Y-25582360D01*
X176359657Y-25640481D01*
X176261499Y-25710092D01*
X176151496Y-25788737D01*
X176078163Y-25841477D01*
X175599112Y-26186768D01*
X175796948Y-26373226D01*
X175867347Y-26438534D01*
X175929191Y-26493953D01*
X175977410Y-26535090D01*
X176006935Y-26557550D01*
X176012928Y-26560406D01*
X176024473Y-26545175D01*
G37*
X176024473Y-26545175D02*
X176049867Y-26502245D01*
X176086716Y-26436217D01*
X176132628Y-26351692D01*
X176185208Y-26253272D01*
X176242063Y-26145558D01*
X176300801Y-26033151D01*
X176359027Y-25920653D01*
X176414349Y-25812665D01*
X176464372Y-25713788D01*
X176506705Y-25628623D01*
X176538953Y-25561772D01*
X176558723Y-25517836D01*
X176563726Y-25501474D01*
X176548003Y-25510402D01*
X176506413Y-25538182D01*
X176442463Y-25582360D01*
X176359657Y-25640481D01*
X176261499Y-25710092D01*
X176151496Y-25788737D01*
X176078163Y-25841477D01*
X175599112Y-26186768D01*
X175796948Y-26373226D01*
X175867347Y-26438534D01*
X175929191Y-26493953D01*
X175977410Y-26535090D01*
X176006935Y-26557550D01*
X176012928Y-26560406D01*
X176024473Y-26545175D01*
G36*
X172262888Y-26471412D02*
G01*
X172304258Y-26435805D01*
X172362975Y-26383066D01*
X172430214Y-26321197D01*
X172478790Y-26275640D01*
X172627652Y-26134786D01*
X171648998Y-25436448D01*
X171922423Y-25981388D01*
X172195848Y-26526329D01*
X172262888Y-26471412D01*
G37*
X172262888Y-26471412D02*
X172304258Y-26435805D01*
X172362975Y-26383066D01*
X172430214Y-26321197D01*
X172478790Y-26275640D01*
X172627652Y-26134786D01*
X171648998Y-25436448D01*
X171922423Y-25981388D01*
X172195848Y-26526329D01*
X172262888Y-26471412D01*
G36*
X173956769Y-25688004D02*
G01*
X174046590Y-25687094D01*
X174101200Y-25686223D01*
X174380787Y-25681214D01*
X174235008Y-25115484D01*
X174199354Y-24977931D01*
X174166277Y-24851874D01*
X174136922Y-24741557D01*
X174112435Y-24651219D01*
X174093959Y-24585104D01*
X174082639Y-24547452D01*
X174079807Y-24540331D01*
X174073703Y-24555020D01*
X174060751Y-24601062D01*
X174041954Y-24674383D01*
X174018318Y-24770912D01*
X173990846Y-24886574D01*
X173960543Y-25017298D01*
X173940456Y-25105527D01*
X173909263Y-25244372D01*
X173881095Y-25371474D01*
X173856854Y-25482625D01*
X173837443Y-25573618D01*
X173823764Y-25640245D01*
X173816718Y-25678298D01*
X173816071Y-25685690D01*
X173835160Y-25687290D01*
X173884176Y-25688066D01*
X173956769Y-25688004D01*
G37*
X173956769Y-25688004D02*
X174046590Y-25687094D01*
X174101200Y-25686223D01*
X174380787Y-25681214D01*
X174235008Y-25115484D01*
X174199354Y-24977931D01*
X174166277Y-24851874D01*
X174136922Y-24741557D01*
X174112435Y-24651219D01*
X174093959Y-24585104D01*
X174082639Y-24547452D01*
X174079807Y-24540331D01*
X174073703Y-24555020D01*
X174060751Y-24601062D01*
X174041954Y-24674383D01*
X174018318Y-24770912D01*
X173990846Y-24886574D01*
X173960543Y-25017298D01*
X173940456Y-25105527D01*
X173909263Y-25244372D01*
X173881095Y-25371474D01*
X173856854Y-25482625D01*
X173837443Y-25573618D01*
X173823764Y-25640245D01*
X173816718Y-25678298D01*
X173816071Y-25685690D01*
X173835160Y-25687290D01*
X173884176Y-25688066D01*
X173956769Y-25688004D01*
M02*
