G04 #@! TF.GenerationSoftware,KiCad,Pcbnew,(5.1.5)-3*
G04 #@! TF.CreationDate,2020-12-21T13:11:51+01:00*
G04 #@! TF.ProjectId,epimetheus_bh1750,6570696d-6574-4686-9575-735f62683137,rev?*
G04 #@! TF.SameCoordinates,Original*
G04 #@! TF.FileFunction,Copper,L1,Top*
G04 #@! TF.FilePolarity,Positive*
%FSLAX46Y46*%
G04 Gerber Fmt 4.6, Leading zero omitted, Abs format (unit mm)*
G04 Created by KiCad (PCBNEW (5.1.5)-3) date 2020-12-21 13:11:51*
%MOMM*%
%LPD*%
G04 APERTURE LIST*
%ADD10C,1.524000*%
%ADD11O,1.700000X1.700000*%
%ADD12R,1.700000X1.700000*%
%ADD13C,0.100000*%
%ADD14C,0.800000*%
%ADD15C,0.250000*%
%ADD16C,0.254000*%
G04 APERTURE END LIST*
D10*
X179070000Y-25908000D03*
X179070000Y-28448000D03*
X179070000Y-30988000D03*
X179070000Y-33528000D03*
X179070000Y-36068000D03*
D11*
X171196000Y-35306000D03*
D12*
X171196000Y-37846000D03*
G04 #@! TA.AperFunction,SMDPad,CuDef*
D13*
G36*
X165302405Y-24817445D02*
G01*
X165331527Y-24821764D01*
X165360085Y-24828918D01*
X165387805Y-24838836D01*
X165414419Y-24851424D01*
X165439671Y-24866559D01*
X165463318Y-24884097D01*
X165485132Y-24903868D01*
X165504903Y-24925682D01*
X165522441Y-24949329D01*
X165537576Y-24974581D01*
X165550164Y-25001195D01*
X165560082Y-25028915D01*
X165567236Y-25057473D01*
X165571555Y-25086595D01*
X165573000Y-25116000D01*
X165573000Y-27716000D01*
X165571555Y-27745405D01*
X165567236Y-27774527D01*
X165560082Y-27803085D01*
X165550164Y-27830805D01*
X165537576Y-27857419D01*
X165522441Y-27882671D01*
X165504903Y-27906318D01*
X165485132Y-27928132D01*
X165463318Y-27947903D01*
X165439671Y-27965441D01*
X165414419Y-27980576D01*
X165387805Y-27993164D01*
X165360085Y-28003082D01*
X165331527Y-28010236D01*
X165302405Y-28014555D01*
X165273000Y-28016000D01*
X164673000Y-28016000D01*
X164643595Y-28014555D01*
X164614473Y-28010236D01*
X164585915Y-28003082D01*
X164558195Y-27993164D01*
X164531581Y-27980576D01*
X164506329Y-27965441D01*
X164482682Y-27947903D01*
X164460868Y-27928132D01*
X164441097Y-27906318D01*
X164423559Y-27882671D01*
X164408424Y-27857419D01*
X164395836Y-27830805D01*
X164385918Y-27803085D01*
X164378764Y-27774527D01*
X164374445Y-27745405D01*
X164373000Y-27716000D01*
X164373000Y-25116000D01*
X164374445Y-25086595D01*
X164378764Y-25057473D01*
X164385918Y-25028915D01*
X164395836Y-25001195D01*
X164408424Y-24974581D01*
X164423559Y-24949329D01*
X164441097Y-24925682D01*
X164460868Y-24903868D01*
X164482682Y-24884097D01*
X164506329Y-24866559D01*
X164531581Y-24851424D01*
X164558195Y-24838836D01*
X164585915Y-24828918D01*
X164614473Y-24821764D01*
X164643595Y-24817445D01*
X164673000Y-24816000D01*
X165273000Y-24816000D01*
X165302405Y-24817445D01*
G37*
G04 #@! TD.AperFunction*
G04 #@! TA.AperFunction,SMDPad,CuDef*
G36*
X168302405Y-24817445D02*
G01*
X168331527Y-24821764D01*
X168360085Y-24828918D01*
X168387805Y-24838836D01*
X168414419Y-24851424D01*
X168439671Y-24866559D01*
X168463318Y-24884097D01*
X168485132Y-24903868D01*
X168504903Y-24925682D01*
X168522441Y-24949329D01*
X168537576Y-24974581D01*
X168550164Y-25001195D01*
X168560082Y-25028915D01*
X168567236Y-25057473D01*
X168571555Y-25086595D01*
X168573000Y-25116000D01*
X168573000Y-27716000D01*
X168571555Y-27745405D01*
X168567236Y-27774527D01*
X168560082Y-27803085D01*
X168550164Y-27830805D01*
X168537576Y-27857419D01*
X168522441Y-27882671D01*
X168504903Y-27906318D01*
X168485132Y-27928132D01*
X168463318Y-27947903D01*
X168439671Y-27965441D01*
X168414419Y-27980576D01*
X168387805Y-27993164D01*
X168360085Y-28003082D01*
X168331527Y-28010236D01*
X168302405Y-28014555D01*
X168273000Y-28016000D01*
X167673000Y-28016000D01*
X167643595Y-28014555D01*
X167614473Y-28010236D01*
X167585915Y-28003082D01*
X167558195Y-27993164D01*
X167531581Y-27980576D01*
X167506329Y-27965441D01*
X167482682Y-27947903D01*
X167460868Y-27928132D01*
X167441097Y-27906318D01*
X167423559Y-27882671D01*
X167408424Y-27857419D01*
X167395836Y-27830805D01*
X167385918Y-27803085D01*
X167378764Y-27774527D01*
X167374445Y-27745405D01*
X167373000Y-27716000D01*
X167373000Y-25116000D01*
X167374445Y-25086595D01*
X167378764Y-25057473D01*
X167385918Y-25028915D01*
X167395836Y-25001195D01*
X167408424Y-24974581D01*
X167423559Y-24949329D01*
X167441097Y-24925682D01*
X167460868Y-24903868D01*
X167482682Y-24884097D01*
X167506329Y-24866559D01*
X167531581Y-24851424D01*
X167558195Y-24838836D01*
X167585915Y-24828918D01*
X167614473Y-24821764D01*
X167643595Y-24817445D01*
X167673000Y-24816000D01*
X168273000Y-24816000D01*
X168302405Y-24817445D01*
G37*
G04 #@! TD.AperFunction*
G04 #@! TA.AperFunction,SMDPad,CuDef*
G36*
X172287405Y-24817445D02*
G01*
X172316527Y-24821764D01*
X172345085Y-24828918D01*
X172372805Y-24838836D01*
X172399419Y-24851424D01*
X172424671Y-24866559D01*
X172448318Y-24884097D01*
X172470132Y-24903868D01*
X172489903Y-24925682D01*
X172507441Y-24949329D01*
X172522576Y-24974581D01*
X172535164Y-25001195D01*
X172545082Y-25028915D01*
X172552236Y-25057473D01*
X172556555Y-25086595D01*
X172558000Y-25116000D01*
X172558000Y-27716000D01*
X172556555Y-27745405D01*
X172552236Y-27774527D01*
X172545082Y-27803085D01*
X172535164Y-27830805D01*
X172522576Y-27857419D01*
X172507441Y-27882671D01*
X172489903Y-27906318D01*
X172470132Y-27928132D01*
X172448318Y-27947903D01*
X172424671Y-27965441D01*
X172399419Y-27980576D01*
X172372805Y-27993164D01*
X172345085Y-28003082D01*
X172316527Y-28010236D01*
X172287405Y-28014555D01*
X172258000Y-28016000D01*
X171658000Y-28016000D01*
X171628595Y-28014555D01*
X171599473Y-28010236D01*
X171570915Y-28003082D01*
X171543195Y-27993164D01*
X171516581Y-27980576D01*
X171491329Y-27965441D01*
X171467682Y-27947903D01*
X171445868Y-27928132D01*
X171426097Y-27906318D01*
X171408559Y-27882671D01*
X171393424Y-27857419D01*
X171380836Y-27830805D01*
X171370918Y-27803085D01*
X171363764Y-27774527D01*
X171359445Y-27745405D01*
X171358000Y-27716000D01*
X171358000Y-25116000D01*
X171359445Y-25086595D01*
X171363764Y-25057473D01*
X171370918Y-25028915D01*
X171380836Y-25001195D01*
X171393424Y-24974581D01*
X171408559Y-24949329D01*
X171426097Y-24925682D01*
X171445868Y-24903868D01*
X171467682Y-24884097D01*
X171491329Y-24866559D01*
X171516581Y-24851424D01*
X171543195Y-24838836D01*
X171570915Y-24828918D01*
X171599473Y-24821764D01*
X171628595Y-24817445D01*
X171658000Y-24816000D01*
X172258000Y-24816000D01*
X172287405Y-24817445D01*
G37*
G04 #@! TD.AperFunction*
G04 #@! TA.AperFunction,SMDPad,CuDef*
G36*
X173402405Y-33961445D02*
G01*
X173431527Y-33965764D01*
X173460085Y-33972918D01*
X173487805Y-33982836D01*
X173514419Y-33995424D01*
X173539671Y-34010559D01*
X173563318Y-34028097D01*
X173585132Y-34047868D01*
X173604903Y-34069682D01*
X173622441Y-34093329D01*
X173637576Y-34118581D01*
X173650164Y-34145195D01*
X173660082Y-34172915D01*
X173667236Y-34201473D01*
X173671555Y-34230595D01*
X173673000Y-34260000D01*
X173673000Y-36860000D01*
X173671555Y-36889405D01*
X173667236Y-36918527D01*
X173660082Y-36947085D01*
X173650164Y-36974805D01*
X173637576Y-37001419D01*
X173622441Y-37026671D01*
X173604903Y-37050318D01*
X173585132Y-37072132D01*
X173563318Y-37091903D01*
X173539671Y-37109441D01*
X173514419Y-37124576D01*
X173487805Y-37137164D01*
X173460085Y-37147082D01*
X173431527Y-37154236D01*
X173402405Y-37158555D01*
X173373000Y-37160000D01*
X172773000Y-37160000D01*
X172743595Y-37158555D01*
X172714473Y-37154236D01*
X172685915Y-37147082D01*
X172658195Y-37137164D01*
X172631581Y-37124576D01*
X172606329Y-37109441D01*
X172582682Y-37091903D01*
X172560868Y-37072132D01*
X172541097Y-37050318D01*
X172523559Y-37026671D01*
X172508424Y-37001419D01*
X172495836Y-36974805D01*
X172485918Y-36947085D01*
X172478764Y-36918527D01*
X172474445Y-36889405D01*
X172473000Y-36860000D01*
X172473000Y-34260000D01*
X172474445Y-34230595D01*
X172478764Y-34201473D01*
X172485918Y-34172915D01*
X172495836Y-34145195D01*
X172508424Y-34118581D01*
X172523559Y-34093329D01*
X172541097Y-34069682D01*
X172560868Y-34047868D01*
X172582682Y-34028097D01*
X172606329Y-34010559D01*
X172631581Y-33995424D01*
X172658195Y-33982836D01*
X172685915Y-33972918D01*
X172714473Y-33965764D01*
X172743595Y-33961445D01*
X172773000Y-33960000D01*
X173373000Y-33960000D01*
X173402405Y-33961445D01*
G37*
G04 #@! TD.AperFunction*
D14*
X172974000Y-34798000D03*
X173228000Y-24892000D03*
D15*
X169723001Y-32766001D02*
X164973000Y-28016000D01*
X164973000Y-28016000D02*
X164973000Y-26416000D01*
X178308001Y-32766001D02*
X169723001Y-32766001D01*
X179070000Y-33528000D02*
X178308001Y-32766001D01*
X177992370Y-30988000D02*
X175960370Y-28956000D01*
X179070000Y-30988000D02*
X177992370Y-30988000D01*
X170513000Y-28956000D02*
X167973000Y-26416000D01*
X175960370Y-28956000D02*
X170513000Y-28956000D01*
X172466000Y-25908000D02*
X171958000Y-26416000D01*
X173228000Y-25146000D02*
X171958000Y-26416000D01*
X173228000Y-24892000D02*
X173228000Y-25146000D01*
X179070000Y-36576000D02*
X179070000Y-36068000D01*
X171196000Y-37846000D02*
X177800000Y-37846000D01*
X177800000Y-37846000D02*
X179070000Y-36576000D01*
D16*
G36*
X180442001Y-25644729D02*
G01*
X180413314Y-25500510D01*
X180308005Y-25246273D01*
X180155120Y-25017465D01*
X179960535Y-24822880D01*
X179731727Y-24669995D01*
X179477490Y-24564686D01*
X179207592Y-24511000D01*
X178932408Y-24511000D01*
X178662510Y-24564686D01*
X178408273Y-24669995D01*
X178179465Y-24822880D01*
X177984880Y-25017465D01*
X177831995Y-25246273D01*
X177726686Y-25500510D01*
X177673000Y-25770408D01*
X177673000Y-26045592D01*
X177726686Y-26315490D01*
X177831995Y-26569727D01*
X177984880Y-26798535D01*
X178179465Y-26993120D01*
X178408273Y-27146005D01*
X178479943Y-27175692D01*
X178466977Y-27180364D01*
X178351020Y-27242344D01*
X178284040Y-27482435D01*
X179070000Y-28268395D01*
X179855960Y-27482435D01*
X179788980Y-27242344D01*
X179653240Y-27178515D01*
X179731727Y-27146005D01*
X179960535Y-26993120D01*
X180155120Y-26798535D01*
X180308005Y-26569727D01*
X180413314Y-26315490D01*
X180442001Y-26171272D01*
X180442001Y-28177417D01*
X180430922Y-28103867D01*
X180337636Y-27844977D01*
X180275656Y-27729020D01*
X180035565Y-27662040D01*
X179249605Y-28448000D01*
X180035565Y-29233960D01*
X180275656Y-29166980D01*
X180392756Y-28917952D01*
X180442001Y-28719473D01*
X180442001Y-30724727D01*
X180413314Y-30580510D01*
X180308005Y-30326273D01*
X180155120Y-30097465D01*
X179960535Y-29902880D01*
X179731727Y-29749995D01*
X179660057Y-29720308D01*
X179673023Y-29715636D01*
X179788980Y-29653656D01*
X179855960Y-29413565D01*
X179070000Y-28627605D01*
X178284040Y-29413565D01*
X178351020Y-29653656D01*
X178486760Y-29717485D01*
X178408273Y-29749995D01*
X178179465Y-29902880D01*
X178080758Y-30001587D01*
X176599188Y-28520017D01*
X177668090Y-28520017D01*
X177709078Y-28792133D01*
X177802364Y-29051023D01*
X177864344Y-29166980D01*
X178104435Y-29233960D01*
X178890395Y-28448000D01*
X178104435Y-27662040D01*
X177864344Y-27729020D01*
X177747244Y-27978048D01*
X177680977Y-28245135D01*
X177668090Y-28520017D01*
X176599188Y-28520017D01*
X176524174Y-28445003D01*
X176500371Y-28415999D01*
X176384646Y-28321026D01*
X176252617Y-28250454D01*
X176109356Y-28206997D01*
X175997703Y-28196000D01*
X175997692Y-28196000D01*
X175960370Y-28192324D01*
X175923048Y-28196000D01*
X173059981Y-28196000D01*
X173124666Y-28074985D01*
X173178047Y-27899009D01*
X173196072Y-27716000D01*
X173196072Y-26252730D01*
X173583976Y-25864826D01*
X173718256Y-25809205D01*
X173887774Y-25695937D01*
X174031937Y-25551774D01*
X174145205Y-25382256D01*
X174223226Y-25193898D01*
X174263000Y-24993939D01*
X174263000Y-24790061D01*
X174223226Y-24590102D01*
X174145205Y-24401744D01*
X174031937Y-24232226D01*
X173887774Y-24088063D01*
X173718256Y-23974795D01*
X173529898Y-23896774D01*
X173329939Y-23857000D01*
X173126061Y-23857000D01*
X172926102Y-23896774D01*
X172737744Y-23974795D01*
X172568226Y-24088063D01*
X172455838Y-24200451D01*
X172441009Y-24195953D01*
X172258000Y-24177928D01*
X171658000Y-24177928D01*
X171474991Y-24195953D01*
X171299015Y-24249334D01*
X171136835Y-24336022D01*
X170994683Y-24452683D01*
X170878022Y-24594835D01*
X170791334Y-24757015D01*
X170737953Y-24932991D01*
X170719928Y-25116000D01*
X170719928Y-27716000D01*
X170737953Y-27899009D01*
X170791334Y-28074985D01*
X170856019Y-28196000D01*
X170827803Y-28196000D01*
X169211072Y-26579270D01*
X169211072Y-25116000D01*
X169193047Y-24932991D01*
X169139666Y-24757015D01*
X169052978Y-24594835D01*
X168936317Y-24452683D01*
X168794165Y-24336022D01*
X168631985Y-24249334D01*
X168456009Y-24195953D01*
X168273000Y-24177928D01*
X167673000Y-24177928D01*
X167489991Y-24195953D01*
X167314015Y-24249334D01*
X167151835Y-24336022D01*
X167009683Y-24452683D01*
X166893022Y-24594835D01*
X166806334Y-24757015D01*
X166752953Y-24932991D01*
X166734928Y-25116000D01*
X166734928Y-27716000D01*
X166752953Y-27899009D01*
X166806334Y-28074985D01*
X166893022Y-28237165D01*
X167009683Y-28379317D01*
X167151835Y-28495978D01*
X167314015Y-28582666D01*
X167489991Y-28636047D01*
X167673000Y-28654072D01*
X168273000Y-28654072D01*
X168456009Y-28636047D01*
X168631985Y-28582666D01*
X168794165Y-28495978D01*
X168895232Y-28413034D01*
X169949205Y-29467008D01*
X169972999Y-29496001D01*
X170001992Y-29519795D01*
X170001996Y-29519799D01*
X170072685Y-29577811D01*
X170088724Y-29590974D01*
X170145223Y-29621174D01*
X169969011Y-29656225D01*
X169716957Y-29760629D01*
X169490114Y-29912201D01*
X169297201Y-30105114D01*
X169145629Y-30331957D01*
X169041225Y-30584011D01*
X168988000Y-30851589D01*
X168988000Y-30956198D01*
X166128213Y-28096412D01*
X166139666Y-28074985D01*
X166193047Y-27899009D01*
X166211072Y-27716000D01*
X166211072Y-25116000D01*
X166193047Y-24932991D01*
X166139666Y-24757015D01*
X166052978Y-24594835D01*
X165936317Y-24452683D01*
X165794165Y-24336022D01*
X165631985Y-24249334D01*
X165456009Y-24195953D01*
X165273000Y-24177928D01*
X164673000Y-24177928D01*
X164489991Y-24195953D01*
X164314015Y-24249334D01*
X164151835Y-24336022D01*
X164009683Y-24452683D01*
X163893022Y-24594835D01*
X163806334Y-24757015D01*
X163752953Y-24932991D01*
X163734928Y-25116000D01*
X163734928Y-27716000D01*
X163752953Y-27899009D01*
X163806334Y-28074985D01*
X163893022Y-28237165D01*
X164009683Y-28379317D01*
X164151835Y-28495978D01*
X164314015Y-28582666D01*
X164489991Y-28636047D01*
X164521333Y-28639134D01*
X169159201Y-33277003D01*
X169183000Y-33306002D01*
X169298725Y-33400975D01*
X169430754Y-33471547D01*
X169574015Y-33515004D01*
X169685668Y-33526001D01*
X169685678Y-33526001D01*
X169723001Y-33529677D01*
X169760324Y-33526001D01*
X172007711Y-33526001D01*
X171942463Y-33605506D01*
X171883498Y-33715820D01*
X171847188Y-33835518D01*
X171834928Y-33960000D01*
X171834936Y-33963304D01*
X171629158Y-33878068D01*
X171342260Y-33821000D01*
X171049740Y-33821000D01*
X170762842Y-33878068D01*
X170492589Y-33990010D01*
X170249368Y-34152525D01*
X170042525Y-34359368D01*
X169880010Y-34602589D01*
X169768068Y-34872842D01*
X169711000Y-35159740D01*
X169711000Y-35452260D01*
X169768068Y-35739158D01*
X169880010Y-36009411D01*
X170042525Y-36252632D01*
X170174380Y-36384487D01*
X170101820Y-36406498D01*
X169991506Y-36465463D01*
X169894815Y-36544815D01*
X169815463Y-36641506D01*
X169756498Y-36751820D01*
X169720188Y-36871518D01*
X169707928Y-36996000D01*
X169707928Y-38202000D01*
X162458000Y-38202000D01*
X162458000Y-32031685D01*
X162490114Y-32063799D01*
X162716957Y-32215371D01*
X162969011Y-32319775D01*
X163236589Y-32373000D01*
X163509411Y-32373000D01*
X163776989Y-32319775D01*
X164029043Y-32215371D01*
X164255886Y-32063799D01*
X164448799Y-31870886D01*
X164600371Y-31644043D01*
X164704775Y-31391989D01*
X164758000Y-31124411D01*
X164758000Y-30851589D01*
X164704775Y-30584011D01*
X164600371Y-30331957D01*
X164448799Y-30105114D01*
X164255886Y-29912201D01*
X164029043Y-29760629D01*
X163776989Y-29656225D01*
X163509411Y-29603000D01*
X163236589Y-29603000D01*
X162969011Y-29656225D01*
X162716957Y-29760629D01*
X162490114Y-29912201D01*
X162458000Y-29944315D01*
X162458000Y-23520000D01*
X180442001Y-23520000D01*
X180442001Y-25644729D01*
G37*
X180442001Y-25644729D02*
X180413314Y-25500510D01*
X180308005Y-25246273D01*
X180155120Y-25017465D01*
X179960535Y-24822880D01*
X179731727Y-24669995D01*
X179477490Y-24564686D01*
X179207592Y-24511000D01*
X178932408Y-24511000D01*
X178662510Y-24564686D01*
X178408273Y-24669995D01*
X178179465Y-24822880D01*
X177984880Y-25017465D01*
X177831995Y-25246273D01*
X177726686Y-25500510D01*
X177673000Y-25770408D01*
X177673000Y-26045592D01*
X177726686Y-26315490D01*
X177831995Y-26569727D01*
X177984880Y-26798535D01*
X178179465Y-26993120D01*
X178408273Y-27146005D01*
X178479943Y-27175692D01*
X178466977Y-27180364D01*
X178351020Y-27242344D01*
X178284040Y-27482435D01*
X179070000Y-28268395D01*
X179855960Y-27482435D01*
X179788980Y-27242344D01*
X179653240Y-27178515D01*
X179731727Y-27146005D01*
X179960535Y-26993120D01*
X180155120Y-26798535D01*
X180308005Y-26569727D01*
X180413314Y-26315490D01*
X180442001Y-26171272D01*
X180442001Y-28177417D01*
X180430922Y-28103867D01*
X180337636Y-27844977D01*
X180275656Y-27729020D01*
X180035565Y-27662040D01*
X179249605Y-28448000D01*
X180035565Y-29233960D01*
X180275656Y-29166980D01*
X180392756Y-28917952D01*
X180442001Y-28719473D01*
X180442001Y-30724727D01*
X180413314Y-30580510D01*
X180308005Y-30326273D01*
X180155120Y-30097465D01*
X179960535Y-29902880D01*
X179731727Y-29749995D01*
X179660057Y-29720308D01*
X179673023Y-29715636D01*
X179788980Y-29653656D01*
X179855960Y-29413565D01*
X179070000Y-28627605D01*
X178284040Y-29413565D01*
X178351020Y-29653656D01*
X178486760Y-29717485D01*
X178408273Y-29749995D01*
X178179465Y-29902880D01*
X178080758Y-30001587D01*
X176599188Y-28520017D01*
X177668090Y-28520017D01*
X177709078Y-28792133D01*
X177802364Y-29051023D01*
X177864344Y-29166980D01*
X178104435Y-29233960D01*
X178890395Y-28448000D01*
X178104435Y-27662040D01*
X177864344Y-27729020D01*
X177747244Y-27978048D01*
X177680977Y-28245135D01*
X177668090Y-28520017D01*
X176599188Y-28520017D01*
X176524174Y-28445003D01*
X176500371Y-28415999D01*
X176384646Y-28321026D01*
X176252617Y-28250454D01*
X176109356Y-28206997D01*
X175997703Y-28196000D01*
X175997692Y-28196000D01*
X175960370Y-28192324D01*
X175923048Y-28196000D01*
X173059981Y-28196000D01*
X173124666Y-28074985D01*
X173178047Y-27899009D01*
X173196072Y-27716000D01*
X173196072Y-26252730D01*
X173583976Y-25864826D01*
X173718256Y-25809205D01*
X173887774Y-25695937D01*
X174031937Y-25551774D01*
X174145205Y-25382256D01*
X174223226Y-25193898D01*
X174263000Y-24993939D01*
X174263000Y-24790061D01*
X174223226Y-24590102D01*
X174145205Y-24401744D01*
X174031937Y-24232226D01*
X173887774Y-24088063D01*
X173718256Y-23974795D01*
X173529898Y-23896774D01*
X173329939Y-23857000D01*
X173126061Y-23857000D01*
X172926102Y-23896774D01*
X172737744Y-23974795D01*
X172568226Y-24088063D01*
X172455838Y-24200451D01*
X172441009Y-24195953D01*
X172258000Y-24177928D01*
X171658000Y-24177928D01*
X171474991Y-24195953D01*
X171299015Y-24249334D01*
X171136835Y-24336022D01*
X170994683Y-24452683D01*
X170878022Y-24594835D01*
X170791334Y-24757015D01*
X170737953Y-24932991D01*
X170719928Y-25116000D01*
X170719928Y-27716000D01*
X170737953Y-27899009D01*
X170791334Y-28074985D01*
X170856019Y-28196000D01*
X170827803Y-28196000D01*
X169211072Y-26579270D01*
X169211072Y-25116000D01*
X169193047Y-24932991D01*
X169139666Y-24757015D01*
X169052978Y-24594835D01*
X168936317Y-24452683D01*
X168794165Y-24336022D01*
X168631985Y-24249334D01*
X168456009Y-24195953D01*
X168273000Y-24177928D01*
X167673000Y-24177928D01*
X167489991Y-24195953D01*
X167314015Y-24249334D01*
X167151835Y-24336022D01*
X167009683Y-24452683D01*
X166893022Y-24594835D01*
X166806334Y-24757015D01*
X166752953Y-24932991D01*
X166734928Y-25116000D01*
X166734928Y-27716000D01*
X166752953Y-27899009D01*
X166806334Y-28074985D01*
X166893022Y-28237165D01*
X167009683Y-28379317D01*
X167151835Y-28495978D01*
X167314015Y-28582666D01*
X167489991Y-28636047D01*
X167673000Y-28654072D01*
X168273000Y-28654072D01*
X168456009Y-28636047D01*
X168631985Y-28582666D01*
X168794165Y-28495978D01*
X168895232Y-28413034D01*
X169949205Y-29467008D01*
X169972999Y-29496001D01*
X170001992Y-29519795D01*
X170001996Y-29519799D01*
X170072685Y-29577811D01*
X170088724Y-29590974D01*
X170145223Y-29621174D01*
X169969011Y-29656225D01*
X169716957Y-29760629D01*
X169490114Y-29912201D01*
X169297201Y-30105114D01*
X169145629Y-30331957D01*
X169041225Y-30584011D01*
X168988000Y-30851589D01*
X168988000Y-30956198D01*
X166128213Y-28096412D01*
X166139666Y-28074985D01*
X166193047Y-27899009D01*
X166211072Y-27716000D01*
X166211072Y-25116000D01*
X166193047Y-24932991D01*
X166139666Y-24757015D01*
X166052978Y-24594835D01*
X165936317Y-24452683D01*
X165794165Y-24336022D01*
X165631985Y-24249334D01*
X165456009Y-24195953D01*
X165273000Y-24177928D01*
X164673000Y-24177928D01*
X164489991Y-24195953D01*
X164314015Y-24249334D01*
X164151835Y-24336022D01*
X164009683Y-24452683D01*
X163893022Y-24594835D01*
X163806334Y-24757015D01*
X163752953Y-24932991D01*
X163734928Y-25116000D01*
X163734928Y-27716000D01*
X163752953Y-27899009D01*
X163806334Y-28074985D01*
X163893022Y-28237165D01*
X164009683Y-28379317D01*
X164151835Y-28495978D01*
X164314015Y-28582666D01*
X164489991Y-28636047D01*
X164521333Y-28639134D01*
X169159201Y-33277003D01*
X169183000Y-33306002D01*
X169298725Y-33400975D01*
X169430754Y-33471547D01*
X169574015Y-33515004D01*
X169685668Y-33526001D01*
X169685678Y-33526001D01*
X169723001Y-33529677D01*
X169760324Y-33526001D01*
X172007711Y-33526001D01*
X171942463Y-33605506D01*
X171883498Y-33715820D01*
X171847188Y-33835518D01*
X171834928Y-33960000D01*
X171834936Y-33963304D01*
X171629158Y-33878068D01*
X171342260Y-33821000D01*
X171049740Y-33821000D01*
X170762842Y-33878068D01*
X170492589Y-33990010D01*
X170249368Y-34152525D01*
X170042525Y-34359368D01*
X169880010Y-34602589D01*
X169768068Y-34872842D01*
X169711000Y-35159740D01*
X169711000Y-35452260D01*
X169768068Y-35739158D01*
X169880010Y-36009411D01*
X170042525Y-36252632D01*
X170174380Y-36384487D01*
X170101820Y-36406498D01*
X169991506Y-36465463D01*
X169894815Y-36544815D01*
X169815463Y-36641506D01*
X169756498Y-36751820D01*
X169720188Y-36871518D01*
X169707928Y-36996000D01*
X169707928Y-38202000D01*
X162458000Y-38202000D01*
X162458000Y-32031685D01*
X162490114Y-32063799D01*
X162716957Y-32215371D01*
X162969011Y-32319775D01*
X163236589Y-32373000D01*
X163509411Y-32373000D01*
X163776989Y-32319775D01*
X164029043Y-32215371D01*
X164255886Y-32063799D01*
X164448799Y-31870886D01*
X164600371Y-31644043D01*
X164704775Y-31391989D01*
X164758000Y-31124411D01*
X164758000Y-30851589D01*
X164704775Y-30584011D01*
X164600371Y-30331957D01*
X164448799Y-30105114D01*
X164255886Y-29912201D01*
X164029043Y-29760629D01*
X163776989Y-29656225D01*
X163509411Y-29603000D01*
X163236589Y-29603000D01*
X162969011Y-29656225D01*
X162716957Y-29760629D01*
X162490114Y-29912201D01*
X162458000Y-29944315D01*
X162458000Y-23520000D01*
X180442001Y-23520000D01*
X180442001Y-25644729D01*
G36*
X177673000Y-33665592D02*
G01*
X177726686Y-33935490D01*
X177831995Y-34189727D01*
X177984880Y-34418535D01*
X178179465Y-34613120D01*
X178408273Y-34766005D01*
X178485515Y-34798000D01*
X178408273Y-34829995D01*
X178179465Y-34982880D01*
X177984880Y-35177465D01*
X177831995Y-35406273D01*
X177726686Y-35660510D01*
X177673000Y-35930408D01*
X177673000Y-36205592D01*
X177726686Y-36475490D01*
X177831995Y-36729727D01*
X177835791Y-36735408D01*
X177485199Y-37086000D01*
X174310899Y-37086000D01*
X174308000Y-35845750D01*
X174149250Y-35687000D01*
X173200000Y-35687000D01*
X173200000Y-35707000D01*
X172946000Y-35707000D01*
X172946000Y-35687000D01*
X172926000Y-35687000D01*
X172926000Y-35433000D01*
X172946000Y-35433000D01*
X172946000Y-35413000D01*
X173200000Y-35413000D01*
X173200000Y-35433000D01*
X174149250Y-35433000D01*
X174308000Y-35274250D01*
X174311072Y-33960000D01*
X174298812Y-33835518D01*
X174262502Y-33715820D01*
X174203537Y-33605506D01*
X174138289Y-33526001D01*
X177673000Y-33526001D01*
X177673000Y-33665592D01*
G37*
X177673000Y-33665592D02*
X177726686Y-33935490D01*
X177831995Y-34189727D01*
X177984880Y-34418535D01*
X178179465Y-34613120D01*
X178408273Y-34766005D01*
X178485515Y-34798000D01*
X178408273Y-34829995D01*
X178179465Y-34982880D01*
X177984880Y-35177465D01*
X177831995Y-35406273D01*
X177726686Y-35660510D01*
X177673000Y-35930408D01*
X177673000Y-36205592D01*
X177726686Y-36475490D01*
X177831995Y-36729727D01*
X177835791Y-36735408D01*
X177485199Y-37086000D01*
X174310899Y-37086000D01*
X174308000Y-35845750D01*
X174149250Y-35687000D01*
X173200000Y-35687000D01*
X173200000Y-35707000D01*
X172946000Y-35707000D01*
X172946000Y-35687000D01*
X172926000Y-35687000D01*
X172926000Y-35433000D01*
X172946000Y-35433000D01*
X172946000Y-35413000D01*
X173200000Y-35413000D01*
X173200000Y-35433000D01*
X174149250Y-35433000D01*
X174308000Y-35274250D01*
X174311072Y-33960000D01*
X174298812Y-33835518D01*
X174262502Y-33715820D01*
X174203537Y-33605506D01*
X174138289Y-33526001D01*
X177673000Y-33526001D01*
X177673000Y-33665592D01*
M02*
