G04 #@! TF.GenerationSoftware,KiCad,Pcbnew,(5.1.5)-3*
G04 #@! TF.CreationDate,2020-12-21T13:11:51+01:00*
G04 #@! TF.ProjectId,epimetheus_bh1750,6570696d-6574-4686-9575-735f62683137,rev?*
G04 #@! TF.SameCoordinates,Original*
G04 #@! TF.FileFunction,Soldermask,Bot*
G04 #@! TF.FilePolarity,Negative*
%FSLAX46Y46*%
G04 Gerber Fmt 4.6, Leading zero omitted, Abs format (unit mm)*
G04 Created by KiCad (PCBNEW (5.1.5)-3) date 2020-12-21 13:11:51*
%MOMM*%
%LPD*%
G04 APERTURE LIST*
%ADD10C,0.100000*%
G04 APERTURE END LIST*
D10*
G36*
X172097000Y-38747000D02*
G01*
X170295000Y-38747000D01*
X170295000Y-36945000D01*
X172097000Y-36945000D01*
X172097000Y-38747000D01*
G37*
G36*
X179307142Y-35286242D02*
G01*
X179455101Y-35347529D01*
X179588255Y-35436499D01*
X179701501Y-35549745D01*
X179790471Y-35682899D01*
X179851758Y-35830858D01*
X179883000Y-35987925D01*
X179883000Y-36148075D01*
X179851758Y-36305142D01*
X179790471Y-36453101D01*
X179701501Y-36586255D01*
X179588255Y-36699501D01*
X179455101Y-36788471D01*
X179307142Y-36849758D01*
X179150075Y-36881000D01*
X178989925Y-36881000D01*
X178832858Y-36849758D01*
X178684899Y-36788471D01*
X178551745Y-36699501D01*
X178438499Y-36586255D01*
X178349529Y-36453101D01*
X178288242Y-36305142D01*
X178257000Y-36148075D01*
X178257000Y-35987925D01*
X178288242Y-35830858D01*
X178349529Y-35682899D01*
X178438499Y-35549745D01*
X178551745Y-35436499D01*
X178684899Y-35347529D01*
X178832858Y-35286242D01*
X178989925Y-35255000D01*
X179150075Y-35255000D01*
X179307142Y-35286242D01*
G37*
G36*
X171309512Y-34409927D02*
G01*
X171458812Y-34439624D01*
X171622784Y-34507544D01*
X171770354Y-34606147D01*
X171895853Y-34731646D01*
X171994456Y-34879216D01*
X172062376Y-35043188D01*
X172097000Y-35217259D01*
X172097000Y-35394741D01*
X172062376Y-35568812D01*
X171994456Y-35732784D01*
X171895853Y-35880354D01*
X171770354Y-36005853D01*
X171622784Y-36104456D01*
X171458812Y-36172376D01*
X171309512Y-36202073D01*
X171284742Y-36207000D01*
X171107258Y-36207000D01*
X171082488Y-36202073D01*
X170933188Y-36172376D01*
X170769216Y-36104456D01*
X170621646Y-36005853D01*
X170496147Y-35880354D01*
X170397544Y-35732784D01*
X170329624Y-35568812D01*
X170295000Y-35394741D01*
X170295000Y-35217259D01*
X170329624Y-35043188D01*
X170397544Y-34879216D01*
X170496147Y-34731646D01*
X170621646Y-34606147D01*
X170769216Y-34507544D01*
X170933188Y-34439624D01*
X171082488Y-34409927D01*
X171107258Y-34405000D01*
X171284742Y-34405000D01*
X171309512Y-34409927D01*
G37*
G36*
X179307142Y-32746242D02*
G01*
X179455101Y-32807529D01*
X179588255Y-32896499D01*
X179701501Y-33009745D01*
X179790471Y-33142899D01*
X179851758Y-33290858D01*
X179883000Y-33447925D01*
X179883000Y-33608075D01*
X179851758Y-33765142D01*
X179790471Y-33913101D01*
X179701501Y-34046255D01*
X179588255Y-34159501D01*
X179455101Y-34248471D01*
X179307142Y-34309758D01*
X179150075Y-34341000D01*
X178989925Y-34341000D01*
X178832858Y-34309758D01*
X178684899Y-34248471D01*
X178551745Y-34159501D01*
X178438499Y-34046255D01*
X178349529Y-33913101D01*
X178288242Y-33765142D01*
X178257000Y-33608075D01*
X178257000Y-33447925D01*
X178288242Y-33290858D01*
X178349529Y-33142899D01*
X178438499Y-33009745D01*
X178551745Y-32896499D01*
X178684899Y-32807529D01*
X178832858Y-32746242D01*
X178989925Y-32715000D01*
X179150075Y-32715000D01*
X179307142Y-32746242D01*
G37*
G36*
X179307142Y-30206242D02*
G01*
X179455101Y-30267529D01*
X179588255Y-30356499D01*
X179701501Y-30469745D01*
X179790471Y-30602899D01*
X179851758Y-30750858D01*
X179883000Y-30907925D01*
X179883000Y-31068075D01*
X179851758Y-31225142D01*
X179790471Y-31373101D01*
X179701501Y-31506255D01*
X179588255Y-31619501D01*
X179455101Y-31708471D01*
X179307142Y-31769758D01*
X179150075Y-31801000D01*
X178989925Y-31801000D01*
X178832858Y-31769758D01*
X178684899Y-31708471D01*
X178551745Y-31619501D01*
X178438499Y-31506255D01*
X178349529Y-31373101D01*
X178288242Y-31225142D01*
X178257000Y-31068075D01*
X178257000Y-30907925D01*
X178288242Y-30750858D01*
X178349529Y-30602899D01*
X178438499Y-30469745D01*
X178551745Y-30356499D01*
X178684899Y-30267529D01*
X178832858Y-30206242D01*
X178989925Y-30175000D01*
X179150075Y-30175000D01*
X179307142Y-30206242D01*
G37*
G36*
X163606642Y-30217781D02*
G01*
X163752414Y-30278162D01*
X163752416Y-30278163D01*
X163883608Y-30365822D01*
X163995178Y-30477392D01*
X164079038Y-30602899D01*
X164082838Y-30608586D01*
X164143219Y-30754358D01*
X164174000Y-30909107D01*
X164174000Y-31066893D01*
X164143219Y-31221642D01*
X164082838Y-31367414D01*
X164082837Y-31367416D01*
X163995178Y-31498608D01*
X163883608Y-31610178D01*
X163752416Y-31697837D01*
X163752415Y-31697838D01*
X163752414Y-31697838D01*
X163606642Y-31758219D01*
X163451893Y-31789000D01*
X163294107Y-31789000D01*
X163139358Y-31758219D01*
X162993586Y-31697838D01*
X162993585Y-31697838D01*
X162993584Y-31697837D01*
X162862392Y-31610178D01*
X162750822Y-31498608D01*
X162663163Y-31367416D01*
X162663162Y-31367414D01*
X162602781Y-31221642D01*
X162572000Y-31066893D01*
X162572000Y-30909107D01*
X162602781Y-30754358D01*
X162663162Y-30608586D01*
X162666962Y-30602899D01*
X162750822Y-30477392D01*
X162862392Y-30365822D01*
X162993584Y-30278163D01*
X162993586Y-30278162D01*
X163139358Y-30217781D01*
X163294107Y-30187000D01*
X163451893Y-30187000D01*
X163606642Y-30217781D01*
G37*
G36*
X170606642Y-30217781D02*
G01*
X170752414Y-30278162D01*
X170752416Y-30278163D01*
X170883608Y-30365822D01*
X170995178Y-30477392D01*
X171079038Y-30602899D01*
X171082838Y-30608586D01*
X171143219Y-30754358D01*
X171174000Y-30909107D01*
X171174000Y-31066893D01*
X171143219Y-31221642D01*
X171082838Y-31367414D01*
X171082837Y-31367416D01*
X170995178Y-31498608D01*
X170883608Y-31610178D01*
X170752416Y-31697837D01*
X170752415Y-31697838D01*
X170752414Y-31697838D01*
X170606642Y-31758219D01*
X170451893Y-31789000D01*
X170294107Y-31789000D01*
X170139358Y-31758219D01*
X169993586Y-31697838D01*
X169993585Y-31697838D01*
X169993584Y-31697837D01*
X169862392Y-31610178D01*
X169750822Y-31498608D01*
X169663163Y-31367416D01*
X169663162Y-31367414D01*
X169602781Y-31221642D01*
X169572000Y-31066893D01*
X169572000Y-30909107D01*
X169602781Y-30754358D01*
X169663162Y-30608586D01*
X169666962Y-30602899D01*
X169750822Y-30477392D01*
X169862392Y-30365822D01*
X169993584Y-30278163D01*
X169993586Y-30278162D01*
X170139358Y-30217781D01*
X170294107Y-30187000D01*
X170451893Y-30187000D01*
X170606642Y-30217781D01*
G37*
G36*
X179307142Y-27666242D02*
G01*
X179455101Y-27727529D01*
X179588255Y-27816499D01*
X179701501Y-27929745D01*
X179790471Y-28062899D01*
X179851758Y-28210858D01*
X179883000Y-28367925D01*
X179883000Y-28528075D01*
X179851758Y-28685142D01*
X179790471Y-28833101D01*
X179701501Y-28966255D01*
X179588255Y-29079501D01*
X179455101Y-29168471D01*
X179307142Y-29229758D01*
X179150075Y-29261000D01*
X178989925Y-29261000D01*
X178832858Y-29229758D01*
X178684899Y-29168471D01*
X178551745Y-29079501D01*
X178438499Y-28966255D01*
X178349529Y-28833101D01*
X178288242Y-28685142D01*
X178257000Y-28528075D01*
X178257000Y-28367925D01*
X178288242Y-28210858D01*
X178349529Y-28062899D01*
X178438499Y-27929745D01*
X178551745Y-27816499D01*
X178684899Y-27727529D01*
X178832858Y-27666242D01*
X178989925Y-27635000D01*
X179150075Y-27635000D01*
X179307142Y-27666242D01*
G37*
G36*
X179307142Y-25126242D02*
G01*
X179455101Y-25187529D01*
X179588255Y-25276499D01*
X179701501Y-25389745D01*
X179790471Y-25522899D01*
X179851758Y-25670858D01*
X179883000Y-25827925D01*
X179883000Y-25988075D01*
X179851758Y-26145142D01*
X179790471Y-26293101D01*
X179701501Y-26426255D01*
X179588255Y-26539501D01*
X179455101Y-26628471D01*
X179307142Y-26689758D01*
X179150075Y-26721000D01*
X178989925Y-26721000D01*
X178832858Y-26689758D01*
X178684899Y-26628471D01*
X178551745Y-26539501D01*
X178438499Y-26426255D01*
X178349529Y-26293101D01*
X178288242Y-26145142D01*
X178257000Y-25988075D01*
X178257000Y-25827925D01*
X178288242Y-25670858D01*
X178349529Y-25522899D01*
X178438499Y-25389745D01*
X178551745Y-25276499D01*
X178684899Y-25187529D01*
X178832858Y-25126242D01*
X178989925Y-25095000D01*
X179150075Y-25095000D01*
X179307142Y-25126242D01*
G37*
M02*
