G04 #@! TF.GenerationSoftware,KiCad,Pcbnew,(5.1.5)-3*
G04 #@! TF.CreationDate,2020-12-21T13:11:51+01:00*
G04 #@! TF.ProjectId,epimetheus_bh1750,6570696d-6574-4686-9575-735f62683137,rev?*
G04 #@! TF.SameCoordinates,Original*
G04 #@! TF.FileFunction,Legend,Top*
G04 #@! TF.FilePolarity,Positive*
%FSLAX46Y46*%
G04 Gerber Fmt 4.6, Leading zero omitted, Abs format (unit mm)*
G04 Created by KiCad (PCBNEW (5.1.5)-3) date 2020-12-21 13:11:51*
%MOMM*%
%LPD*%
G04 APERTURE LIST*
%ADD10C,0.150000*%
%ADD11C,0.120000*%
G04 APERTURE END LIST*
D10*
X162488857Y-23550571D02*
X162631714Y-23598190D01*
X162679333Y-23645809D01*
X162726952Y-23741047D01*
X162726952Y-23883904D01*
X162679333Y-23979142D01*
X162631714Y-24026761D01*
X162536476Y-24074380D01*
X162155523Y-24074380D01*
X162155523Y-23074380D01*
X162488857Y-23074380D01*
X162584095Y-23122000D01*
X162631714Y-23169619D01*
X162679333Y-23264857D01*
X162679333Y-23360095D01*
X162631714Y-23455333D01*
X162584095Y-23502952D01*
X162488857Y-23550571D01*
X162155523Y-23550571D01*
X163155523Y-24074380D02*
X163155523Y-23074380D01*
X163155523Y-23550571D02*
X163726952Y-23550571D01*
X163726952Y-24074380D02*
X163726952Y-23074380D01*
X164726952Y-24074380D02*
X164155523Y-24074380D01*
X164441238Y-24074380D02*
X164441238Y-23074380D01*
X164346000Y-23217238D01*
X164250761Y-23312476D01*
X164155523Y-23360095D01*
X165060285Y-23074380D02*
X165726952Y-23074380D01*
X165298380Y-24074380D01*
X166584095Y-23074380D02*
X166107904Y-23074380D01*
X166060285Y-23550571D01*
X166107904Y-23502952D01*
X166203142Y-23455333D01*
X166441238Y-23455333D01*
X166536476Y-23502952D01*
X166584095Y-23550571D01*
X166631714Y-23645809D01*
X166631714Y-23883904D01*
X166584095Y-23979142D01*
X166536476Y-24026761D01*
X166441238Y-24074380D01*
X166203142Y-24074380D01*
X166107904Y-24026761D01*
X166060285Y-23979142D01*
X167250761Y-23074380D02*
X167346000Y-23074380D01*
X167441238Y-23122000D01*
X167488857Y-23169619D01*
X167536476Y-23264857D01*
X167584095Y-23455333D01*
X167584095Y-23693428D01*
X167536476Y-23883904D01*
X167488857Y-23979142D01*
X167441238Y-24026761D01*
X167346000Y-24074380D01*
X167250761Y-24074380D01*
X167155523Y-24026761D01*
X167107904Y-23979142D01*
X167060285Y-23883904D01*
X167012666Y-23693428D01*
X167012666Y-23455333D01*
X167060285Y-23264857D01*
X167107904Y-23169619D01*
X167155523Y-23122000D01*
X167250761Y-23074380D01*
D11*
X162052000Y-27888000D02*
X162052000Y-34088000D01*
X173873000Y-34088000D02*
X173873000Y-27888000D01*
X162052000Y-27888000D02*
X164148000Y-27888000D01*
X165798000Y-27888000D02*
X167148000Y-27888000D01*
X168798000Y-27888000D02*
X171198000Y-27888000D01*
X172748000Y-27888000D02*
X173873000Y-27888000D01*
X172298000Y-34088000D02*
X162052000Y-34088000D01*
D10*
X174561666Y-25360380D02*
X174895000Y-26360380D01*
X175228333Y-25360380D01*
X176133095Y-26265142D02*
X176085476Y-26312761D01*
X175942619Y-26360380D01*
X175847380Y-26360380D01*
X175704523Y-26312761D01*
X175609285Y-26217523D01*
X175561666Y-26122285D01*
X175514047Y-25931809D01*
X175514047Y-25788952D01*
X175561666Y-25598476D01*
X175609285Y-25503238D01*
X175704523Y-25408000D01*
X175847380Y-25360380D01*
X175942619Y-25360380D01*
X176085476Y-25408000D01*
X176133095Y-25455619D01*
X177133095Y-26265142D02*
X177085476Y-26312761D01*
X176942619Y-26360380D01*
X176847380Y-26360380D01*
X176704523Y-26312761D01*
X176609285Y-26217523D01*
X176561666Y-26122285D01*
X176514047Y-25931809D01*
X176514047Y-25788952D01*
X176561666Y-25598476D01*
X176609285Y-25503238D01*
X176704523Y-25408000D01*
X176847380Y-25360380D01*
X176942619Y-25360380D01*
X177085476Y-25408000D01*
X177133095Y-25455619D01*
X175133095Y-27948000D02*
X175037857Y-27900380D01*
X174895000Y-27900380D01*
X174752142Y-27948000D01*
X174656904Y-28043238D01*
X174609285Y-28138476D01*
X174561666Y-28328952D01*
X174561666Y-28471809D01*
X174609285Y-28662285D01*
X174656904Y-28757523D01*
X174752142Y-28852761D01*
X174895000Y-28900380D01*
X174990238Y-28900380D01*
X175133095Y-28852761D01*
X175180714Y-28805142D01*
X175180714Y-28471809D01*
X174990238Y-28471809D01*
X175609285Y-28900380D02*
X175609285Y-27900380D01*
X176180714Y-28900380D01*
X176180714Y-27900380D01*
X176656904Y-28900380D02*
X176656904Y-27900380D01*
X176895000Y-27900380D01*
X177037857Y-27948000D01*
X177133095Y-28043238D01*
X177180714Y-28138476D01*
X177228333Y-28328952D01*
X177228333Y-28471809D01*
X177180714Y-28662285D01*
X177133095Y-28757523D01*
X177037857Y-28852761D01*
X176895000Y-28900380D01*
X176656904Y-28900380D01*
X174704523Y-31392761D02*
X174847380Y-31440380D01*
X175085476Y-31440380D01*
X175180714Y-31392761D01*
X175228333Y-31345142D01*
X175275952Y-31249904D01*
X175275952Y-31154666D01*
X175228333Y-31059428D01*
X175180714Y-31011809D01*
X175085476Y-30964190D01*
X174895000Y-30916571D01*
X174799761Y-30868952D01*
X174752142Y-30821333D01*
X174704523Y-30726095D01*
X174704523Y-30630857D01*
X174752142Y-30535619D01*
X174799761Y-30488000D01*
X174895000Y-30440380D01*
X175133095Y-30440380D01*
X175275952Y-30488000D01*
X176275952Y-31345142D02*
X176228333Y-31392761D01*
X176085476Y-31440380D01*
X175990238Y-31440380D01*
X175847380Y-31392761D01*
X175752142Y-31297523D01*
X175704523Y-31202285D01*
X175656904Y-31011809D01*
X175656904Y-30868952D01*
X175704523Y-30678476D01*
X175752142Y-30583238D01*
X175847380Y-30488000D01*
X175990238Y-30440380D01*
X176085476Y-30440380D01*
X176228333Y-30488000D01*
X176275952Y-30535619D01*
X177180714Y-31440380D02*
X176704523Y-31440380D01*
X176704523Y-30440380D01*
X174680714Y-33932761D02*
X174823571Y-33980380D01*
X175061666Y-33980380D01*
X175156904Y-33932761D01*
X175204523Y-33885142D01*
X175252142Y-33789904D01*
X175252142Y-33694666D01*
X175204523Y-33599428D01*
X175156904Y-33551809D01*
X175061666Y-33504190D01*
X174871190Y-33456571D01*
X174775952Y-33408952D01*
X174728333Y-33361333D01*
X174680714Y-33266095D01*
X174680714Y-33170857D01*
X174728333Y-33075619D01*
X174775952Y-33028000D01*
X174871190Y-32980380D01*
X175109285Y-32980380D01*
X175252142Y-33028000D01*
X175680714Y-33980380D02*
X175680714Y-32980380D01*
X175918809Y-32980380D01*
X176061666Y-33028000D01*
X176156904Y-33123238D01*
X176204523Y-33218476D01*
X176252142Y-33408952D01*
X176252142Y-33551809D01*
X176204523Y-33742285D01*
X176156904Y-33837523D01*
X176061666Y-33932761D01*
X175918809Y-33980380D01*
X175680714Y-33980380D01*
X176633095Y-33694666D02*
X177109285Y-33694666D01*
X176537857Y-33980380D02*
X176871190Y-32980380D01*
X177204523Y-33980380D01*
X174029904Y-36234666D02*
X174506095Y-36234666D01*
X173934666Y-36520380D02*
X174268000Y-35520380D01*
X174601333Y-36520380D01*
X174934666Y-36520380D02*
X174934666Y-35520380D01*
X175172761Y-35520380D01*
X175315619Y-35568000D01*
X175410857Y-35663238D01*
X175458476Y-35758476D01*
X175506095Y-35948952D01*
X175506095Y-36091809D01*
X175458476Y-36282285D01*
X175410857Y-36377523D01*
X175315619Y-36472761D01*
X175172761Y-36520380D01*
X174934666Y-36520380D01*
X175934666Y-36520380D02*
X175934666Y-35520380D01*
X176172761Y-35520380D01*
X176315619Y-35568000D01*
X176410857Y-35663238D01*
X176458476Y-35758476D01*
X176506095Y-35948952D01*
X176506095Y-36091809D01*
X176458476Y-36282285D01*
X176410857Y-36377523D01*
X176315619Y-36472761D01*
X176172761Y-36520380D01*
X175934666Y-36520380D01*
X177506095Y-36520380D02*
X177172761Y-36044190D01*
X176934666Y-36520380D02*
X176934666Y-35520380D01*
X177315619Y-35520380D01*
X177410857Y-35568000D01*
X177458476Y-35615619D01*
X177506095Y-35710857D01*
X177506095Y-35853714D01*
X177458476Y-35948952D01*
X177410857Y-35996571D01*
X177315619Y-36044190D01*
X176934666Y-36044190D01*
M02*
