G04 #@! TF.GenerationSoftware,KiCad,Pcbnew,(5.1.5)-3*
G04 #@! TF.CreationDate,2020-12-21T13:14:33+01:00*
G04 #@! TF.ProjectId,epimetheus_mpl3115a2,6570696d-6574-4686-9575-735f6d706c33,rev?*
G04 #@! TF.SameCoordinates,Original*
G04 #@! TF.FileFunction,Legend,Top*
G04 #@! TF.FilePolarity,Positive*
%FSLAX46Y46*%
G04 Gerber Fmt 4.6, Leading zero omitted, Abs format (unit mm)*
G04 Created by KiCad (PCBNEW (5.1.5)-3) date 2020-12-21 13:14:33*
%MOMM*%
%LPD*%
G04 APERTURE LIST*
%ADD10C,0.150000*%
%ADD11C,0.120000*%
G04 APERTURE END LIST*
D10*
X166132380Y-39822380D02*
X166132380Y-38822380D01*
X166465714Y-39536666D01*
X166799047Y-38822380D01*
X166799047Y-39822380D01*
X167275238Y-39822380D02*
X167275238Y-38822380D01*
X167656190Y-38822380D01*
X167751428Y-38870000D01*
X167799047Y-38917619D01*
X167846666Y-39012857D01*
X167846666Y-39155714D01*
X167799047Y-39250952D01*
X167751428Y-39298571D01*
X167656190Y-39346190D01*
X167275238Y-39346190D01*
X168751428Y-39822380D02*
X168275238Y-39822380D01*
X168275238Y-38822380D01*
X168989523Y-38822380D02*
X169608571Y-38822380D01*
X169275238Y-39203333D01*
X169418095Y-39203333D01*
X169513333Y-39250952D01*
X169560952Y-39298571D01*
X169608571Y-39393809D01*
X169608571Y-39631904D01*
X169560952Y-39727142D01*
X169513333Y-39774761D01*
X169418095Y-39822380D01*
X169132380Y-39822380D01*
X169037142Y-39774761D01*
X168989523Y-39727142D01*
X170560952Y-39822380D02*
X169989523Y-39822380D01*
X170275238Y-39822380D02*
X170275238Y-38822380D01*
X170180000Y-38965238D01*
X170084761Y-39060476D01*
X169989523Y-39108095D01*
X171513333Y-39822380D02*
X170941904Y-39822380D01*
X171227619Y-39822380D02*
X171227619Y-38822380D01*
X171132380Y-38965238D01*
X171037142Y-39060476D01*
X170941904Y-39108095D01*
X172418095Y-38822380D02*
X171941904Y-38822380D01*
X171894285Y-39298571D01*
X171941904Y-39250952D01*
X172037142Y-39203333D01*
X172275238Y-39203333D01*
X172370476Y-39250952D01*
X172418095Y-39298571D01*
X172465714Y-39393809D01*
X172465714Y-39631904D01*
X172418095Y-39727142D01*
X172370476Y-39774761D01*
X172275238Y-39822380D01*
X172037142Y-39822380D01*
X171941904Y-39774761D01*
X171894285Y-39727142D01*
X172846666Y-39536666D02*
X173322857Y-39536666D01*
X172751428Y-39822380D02*
X173084761Y-38822380D01*
X173418095Y-39822380D01*
X173703809Y-38917619D02*
X173751428Y-38870000D01*
X173846666Y-38822380D01*
X174084761Y-38822380D01*
X174180000Y-38870000D01*
X174227619Y-38917619D01*
X174275238Y-39012857D01*
X174275238Y-39108095D01*
X174227619Y-39250952D01*
X173656190Y-39822380D01*
X174275238Y-39822380D01*
D11*
X162052000Y-27888000D02*
X162052000Y-34088000D01*
X173873000Y-34088000D02*
X173873000Y-27888000D01*
X162052000Y-27888000D02*
X164148000Y-27888000D01*
X165798000Y-27888000D02*
X167148000Y-27888000D01*
X168798000Y-27888000D02*
X171198000Y-27888000D01*
X172748000Y-27888000D02*
X173873000Y-27888000D01*
X172298000Y-34088000D02*
X162052000Y-34088000D01*
D10*
X174807714Y-23772761D02*
X174950571Y-23820380D01*
X175188666Y-23820380D01*
X175283904Y-23772761D01*
X175331523Y-23725142D01*
X175379142Y-23629904D01*
X175379142Y-23534666D01*
X175331523Y-23439428D01*
X175283904Y-23391809D01*
X175188666Y-23344190D01*
X174998190Y-23296571D01*
X174902952Y-23248952D01*
X174855333Y-23201333D01*
X174807714Y-23106095D01*
X174807714Y-23010857D01*
X174855333Y-22915619D01*
X174902952Y-22868000D01*
X174998190Y-22820380D01*
X175236285Y-22820380D01*
X175379142Y-22868000D01*
X175807714Y-23820380D02*
X175807714Y-22820380D01*
X176045809Y-22820380D01*
X176188666Y-22868000D01*
X176283904Y-22963238D01*
X176331523Y-23058476D01*
X176379142Y-23248952D01*
X176379142Y-23391809D01*
X176331523Y-23582285D01*
X176283904Y-23677523D01*
X176188666Y-23772761D01*
X176045809Y-23820380D01*
X175807714Y-23820380D01*
X176760095Y-23534666D02*
X177236285Y-23534666D01*
X176664857Y-23820380D02*
X176998190Y-22820380D01*
X177331523Y-23820380D01*
X175252190Y-26312761D02*
X175395047Y-26360380D01*
X175633142Y-26360380D01*
X175728380Y-26312761D01*
X175776000Y-26265142D01*
X175823619Y-26169904D01*
X175823619Y-26074666D01*
X175776000Y-25979428D01*
X175728380Y-25931809D01*
X175633142Y-25884190D01*
X175442666Y-25836571D01*
X175347428Y-25788952D01*
X175299809Y-25741333D01*
X175252190Y-25646095D01*
X175252190Y-25550857D01*
X175299809Y-25455619D01*
X175347428Y-25408000D01*
X175442666Y-25360380D01*
X175680761Y-25360380D01*
X175823619Y-25408000D01*
X176823619Y-26265142D02*
X176776000Y-26312761D01*
X176633142Y-26360380D01*
X176537904Y-26360380D01*
X176395047Y-26312761D01*
X176299809Y-26217523D01*
X176252190Y-26122285D01*
X176204571Y-25931809D01*
X176204571Y-25788952D01*
X176252190Y-25598476D01*
X176299809Y-25503238D01*
X176395047Y-25408000D01*
X176537904Y-25360380D01*
X176633142Y-25360380D01*
X176776000Y-25408000D01*
X176823619Y-25455619D01*
X177252190Y-26360380D02*
X177252190Y-25360380D01*
X174387047Y-28900380D02*
X174387047Y-27900380D01*
X174863238Y-28900380D02*
X174863238Y-27900380D01*
X175434666Y-28900380D01*
X175434666Y-27900380D01*
X175768000Y-27900380D02*
X176339428Y-27900380D01*
X176053714Y-28900380D02*
X176053714Y-27900380D01*
X177196571Y-28900380D02*
X176625142Y-28900380D01*
X176910857Y-28900380D02*
X176910857Y-27900380D01*
X176815619Y-28043238D01*
X176720380Y-28138476D01*
X176625142Y-28186095D01*
X174387047Y-31440380D02*
X174387047Y-30440380D01*
X174863238Y-31440380D02*
X174863238Y-30440380D01*
X175434666Y-31440380D01*
X175434666Y-30440380D01*
X175768000Y-30440380D02*
X176339428Y-30440380D01*
X176053714Y-31440380D02*
X176053714Y-30440380D01*
X176625142Y-30535619D02*
X176672761Y-30488000D01*
X176768000Y-30440380D01*
X177006095Y-30440380D01*
X177101333Y-30488000D01*
X177148952Y-30535619D01*
X177196571Y-30630857D01*
X177196571Y-30726095D01*
X177148952Y-30868952D01*
X176577523Y-31440380D01*
X177196571Y-31440380D01*
X174855333Y-32980380D02*
X175474380Y-32980380D01*
X175141047Y-33361333D01*
X175283904Y-33361333D01*
X175379142Y-33408952D01*
X175426761Y-33456571D01*
X175474380Y-33551809D01*
X175474380Y-33789904D01*
X175426761Y-33885142D01*
X175379142Y-33932761D01*
X175283904Y-33980380D01*
X174998190Y-33980380D01*
X174902952Y-33932761D01*
X174855333Y-33885142D01*
X175807714Y-33313714D02*
X176045809Y-33980380D01*
X176283904Y-33313714D01*
X176807714Y-33980380D02*
X176712476Y-33932761D01*
X176664857Y-33885142D01*
X176617238Y-33789904D01*
X176617238Y-33504190D01*
X176664857Y-33408952D01*
X176712476Y-33361333D01*
X176807714Y-33313714D01*
X176950571Y-33313714D01*
X177045809Y-33361333D01*
X177093428Y-33408952D01*
X177141047Y-33504190D01*
X177141047Y-33789904D01*
X177093428Y-33885142D01*
X177045809Y-33932761D01*
X176950571Y-33980380D01*
X176807714Y-33980380D01*
X175006095Y-35568000D02*
X174910857Y-35520380D01*
X174768000Y-35520380D01*
X174625142Y-35568000D01*
X174529904Y-35663238D01*
X174482285Y-35758476D01*
X174434666Y-35948952D01*
X174434666Y-36091809D01*
X174482285Y-36282285D01*
X174529904Y-36377523D01*
X174625142Y-36472761D01*
X174768000Y-36520380D01*
X174863238Y-36520380D01*
X175006095Y-36472761D01*
X175053714Y-36425142D01*
X175053714Y-36091809D01*
X174863238Y-36091809D01*
X175482285Y-36520380D02*
X175482285Y-35520380D01*
X176053714Y-36520380D01*
X176053714Y-35520380D01*
X176529904Y-36520380D02*
X176529904Y-35520380D01*
X176768000Y-35520380D01*
X176910857Y-35568000D01*
X177006095Y-35663238D01*
X177053714Y-35758476D01*
X177101333Y-35948952D01*
X177101333Y-36091809D01*
X177053714Y-36282285D01*
X177006095Y-36377523D01*
X176910857Y-36472761D01*
X176768000Y-36520380D01*
X176529904Y-36520380D01*
X174926761Y-38060380D02*
X175260095Y-39060380D01*
X175593428Y-38060380D01*
X175926761Y-39060380D02*
X175926761Y-38060380D01*
X176402952Y-39060380D02*
X176402952Y-38060380D01*
X176974380Y-39060380D01*
X176974380Y-38060380D01*
M02*
