G04 #@! TF.GenerationSoftware,KiCad,Pcbnew,(5.1.5)-3*
G04 #@! TF.CreationDate,2020-12-21T12:30:48+01:00*
G04 #@! TF.ProjectId,epimetheus_ina219,6570696d-6574-4686-9575-735f696e6132,rev?*
G04 #@! TF.SameCoordinates,Original*
G04 #@! TF.FileFunction,Copper,L1,Top*
G04 #@! TF.FilePolarity,Positive*
%FSLAX46Y46*%
G04 Gerber Fmt 4.6, Leading zero omitted, Abs format (unit mm)*
G04 Created by KiCad (PCBNEW (5.1.5)-3) date 2020-12-21 12:30:48*
%MOMM*%
%LPD*%
G04 APERTURE LIST*
%ADD10C,1.524000*%
%ADD11C,0.100000*%
%ADD12C,0.250000*%
%ADD13C,0.254000*%
G04 APERTURE END LIST*
D10*
X179324000Y-24638000D03*
X179324000Y-27178000D03*
X179324000Y-29718000D03*
X179324000Y-32258000D03*
X179324000Y-34798000D03*
X179324000Y-37338000D03*
G04 #@! TA.AperFunction,SMDPad,CuDef*
D11*
G36*
X165302405Y-24817445D02*
G01*
X165331527Y-24821764D01*
X165360085Y-24828918D01*
X165387805Y-24838836D01*
X165414419Y-24851424D01*
X165439671Y-24866559D01*
X165463318Y-24884097D01*
X165485132Y-24903868D01*
X165504903Y-24925682D01*
X165522441Y-24949329D01*
X165537576Y-24974581D01*
X165550164Y-25001195D01*
X165560082Y-25028915D01*
X165567236Y-25057473D01*
X165571555Y-25086595D01*
X165573000Y-25116000D01*
X165573000Y-27716000D01*
X165571555Y-27745405D01*
X165567236Y-27774527D01*
X165560082Y-27803085D01*
X165550164Y-27830805D01*
X165537576Y-27857419D01*
X165522441Y-27882671D01*
X165504903Y-27906318D01*
X165485132Y-27928132D01*
X165463318Y-27947903D01*
X165439671Y-27965441D01*
X165414419Y-27980576D01*
X165387805Y-27993164D01*
X165360085Y-28003082D01*
X165331527Y-28010236D01*
X165302405Y-28014555D01*
X165273000Y-28016000D01*
X164673000Y-28016000D01*
X164643595Y-28014555D01*
X164614473Y-28010236D01*
X164585915Y-28003082D01*
X164558195Y-27993164D01*
X164531581Y-27980576D01*
X164506329Y-27965441D01*
X164482682Y-27947903D01*
X164460868Y-27928132D01*
X164441097Y-27906318D01*
X164423559Y-27882671D01*
X164408424Y-27857419D01*
X164395836Y-27830805D01*
X164385918Y-27803085D01*
X164378764Y-27774527D01*
X164374445Y-27745405D01*
X164373000Y-27716000D01*
X164373000Y-25116000D01*
X164374445Y-25086595D01*
X164378764Y-25057473D01*
X164385918Y-25028915D01*
X164395836Y-25001195D01*
X164408424Y-24974581D01*
X164423559Y-24949329D01*
X164441097Y-24925682D01*
X164460868Y-24903868D01*
X164482682Y-24884097D01*
X164506329Y-24866559D01*
X164531581Y-24851424D01*
X164558195Y-24838836D01*
X164585915Y-24828918D01*
X164614473Y-24821764D01*
X164643595Y-24817445D01*
X164673000Y-24816000D01*
X165273000Y-24816000D01*
X165302405Y-24817445D01*
G37*
G04 #@! TD.AperFunction*
G04 #@! TA.AperFunction,SMDPad,CuDef*
G36*
X168302405Y-24817445D02*
G01*
X168331527Y-24821764D01*
X168360085Y-24828918D01*
X168387805Y-24838836D01*
X168414419Y-24851424D01*
X168439671Y-24866559D01*
X168463318Y-24884097D01*
X168485132Y-24903868D01*
X168504903Y-24925682D01*
X168522441Y-24949329D01*
X168537576Y-24974581D01*
X168550164Y-25001195D01*
X168560082Y-25028915D01*
X168567236Y-25057473D01*
X168571555Y-25086595D01*
X168573000Y-25116000D01*
X168573000Y-27716000D01*
X168571555Y-27745405D01*
X168567236Y-27774527D01*
X168560082Y-27803085D01*
X168550164Y-27830805D01*
X168537576Y-27857419D01*
X168522441Y-27882671D01*
X168504903Y-27906318D01*
X168485132Y-27928132D01*
X168463318Y-27947903D01*
X168439671Y-27965441D01*
X168414419Y-27980576D01*
X168387805Y-27993164D01*
X168360085Y-28003082D01*
X168331527Y-28010236D01*
X168302405Y-28014555D01*
X168273000Y-28016000D01*
X167673000Y-28016000D01*
X167643595Y-28014555D01*
X167614473Y-28010236D01*
X167585915Y-28003082D01*
X167558195Y-27993164D01*
X167531581Y-27980576D01*
X167506329Y-27965441D01*
X167482682Y-27947903D01*
X167460868Y-27928132D01*
X167441097Y-27906318D01*
X167423559Y-27882671D01*
X167408424Y-27857419D01*
X167395836Y-27830805D01*
X167385918Y-27803085D01*
X167378764Y-27774527D01*
X167374445Y-27745405D01*
X167373000Y-27716000D01*
X167373000Y-25116000D01*
X167374445Y-25086595D01*
X167378764Y-25057473D01*
X167385918Y-25028915D01*
X167395836Y-25001195D01*
X167408424Y-24974581D01*
X167423559Y-24949329D01*
X167441097Y-24925682D01*
X167460868Y-24903868D01*
X167482682Y-24884097D01*
X167506329Y-24866559D01*
X167531581Y-24851424D01*
X167558195Y-24838836D01*
X167585915Y-24828918D01*
X167614473Y-24821764D01*
X167643595Y-24817445D01*
X167673000Y-24816000D01*
X168273000Y-24816000D01*
X168302405Y-24817445D01*
G37*
G04 #@! TD.AperFunction*
G04 #@! TA.AperFunction,SMDPad,CuDef*
G36*
X172287405Y-24817445D02*
G01*
X172316527Y-24821764D01*
X172345085Y-24828918D01*
X172372805Y-24838836D01*
X172399419Y-24851424D01*
X172424671Y-24866559D01*
X172448318Y-24884097D01*
X172470132Y-24903868D01*
X172489903Y-24925682D01*
X172507441Y-24949329D01*
X172522576Y-24974581D01*
X172535164Y-25001195D01*
X172545082Y-25028915D01*
X172552236Y-25057473D01*
X172556555Y-25086595D01*
X172558000Y-25116000D01*
X172558000Y-27716000D01*
X172556555Y-27745405D01*
X172552236Y-27774527D01*
X172545082Y-27803085D01*
X172535164Y-27830805D01*
X172522576Y-27857419D01*
X172507441Y-27882671D01*
X172489903Y-27906318D01*
X172470132Y-27928132D01*
X172448318Y-27947903D01*
X172424671Y-27965441D01*
X172399419Y-27980576D01*
X172372805Y-27993164D01*
X172345085Y-28003082D01*
X172316527Y-28010236D01*
X172287405Y-28014555D01*
X172258000Y-28016000D01*
X171658000Y-28016000D01*
X171628595Y-28014555D01*
X171599473Y-28010236D01*
X171570915Y-28003082D01*
X171543195Y-27993164D01*
X171516581Y-27980576D01*
X171491329Y-27965441D01*
X171467682Y-27947903D01*
X171445868Y-27928132D01*
X171426097Y-27906318D01*
X171408559Y-27882671D01*
X171393424Y-27857419D01*
X171380836Y-27830805D01*
X171370918Y-27803085D01*
X171363764Y-27774527D01*
X171359445Y-27745405D01*
X171358000Y-27716000D01*
X171358000Y-25116000D01*
X171359445Y-25086595D01*
X171363764Y-25057473D01*
X171370918Y-25028915D01*
X171380836Y-25001195D01*
X171393424Y-24974581D01*
X171408559Y-24949329D01*
X171426097Y-24925682D01*
X171445868Y-24903868D01*
X171467682Y-24884097D01*
X171491329Y-24866559D01*
X171516581Y-24851424D01*
X171543195Y-24838836D01*
X171570915Y-24828918D01*
X171599473Y-24821764D01*
X171628595Y-24817445D01*
X171658000Y-24816000D01*
X172258000Y-24816000D01*
X172287405Y-24817445D01*
G37*
G04 #@! TD.AperFunction*
G04 #@! TA.AperFunction,SMDPad,CuDef*
G36*
X173402405Y-33961445D02*
G01*
X173431527Y-33965764D01*
X173460085Y-33972918D01*
X173487805Y-33982836D01*
X173514419Y-33995424D01*
X173539671Y-34010559D01*
X173563318Y-34028097D01*
X173585132Y-34047868D01*
X173604903Y-34069682D01*
X173622441Y-34093329D01*
X173637576Y-34118581D01*
X173650164Y-34145195D01*
X173660082Y-34172915D01*
X173667236Y-34201473D01*
X173671555Y-34230595D01*
X173673000Y-34260000D01*
X173673000Y-36860000D01*
X173671555Y-36889405D01*
X173667236Y-36918527D01*
X173660082Y-36947085D01*
X173650164Y-36974805D01*
X173637576Y-37001419D01*
X173622441Y-37026671D01*
X173604903Y-37050318D01*
X173585132Y-37072132D01*
X173563318Y-37091903D01*
X173539671Y-37109441D01*
X173514419Y-37124576D01*
X173487805Y-37137164D01*
X173460085Y-37147082D01*
X173431527Y-37154236D01*
X173402405Y-37158555D01*
X173373000Y-37160000D01*
X172773000Y-37160000D01*
X172743595Y-37158555D01*
X172714473Y-37154236D01*
X172685915Y-37147082D01*
X172658195Y-37137164D01*
X172631581Y-37124576D01*
X172606329Y-37109441D01*
X172582682Y-37091903D01*
X172560868Y-37072132D01*
X172541097Y-37050318D01*
X172523559Y-37026671D01*
X172508424Y-37001419D01*
X172495836Y-36974805D01*
X172485918Y-36947085D01*
X172478764Y-36918527D01*
X172474445Y-36889405D01*
X172473000Y-36860000D01*
X172473000Y-34260000D01*
X172474445Y-34230595D01*
X172478764Y-34201473D01*
X172485918Y-34172915D01*
X172495836Y-34145195D01*
X172508424Y-34118581D01*
X172523559Y-34093329D01*
X172541097Y-34069682D01*
X172560868Y-34047868D01*
X172582682Y-34028097D01*
X172606329Y-34010559D01*
X172631581Y-33995424D01*
X172658195Y-33982836D01*
X172685915Y-33972918D01*
X172714473Y-33965764D01*
X172743595Y-33961445D01*
X172773000Y-33960000D01*
X173373000Y-33960000D01*
X173402405Y-33961445D01*
G37*
G04 #@! TD.AperFunction*
D12*
X164973000Y-28829000D02*
X164973000Y-26416000D01*
X179324000Y-29718000D02*
X165862000Y-29718000D01*
X165862000Y-29718000D02*
X164973000Y-28829000D01*
X164925000Y-23368000D02*
X167973000Y-26416000D01*
X161798000Y-32258000D02*
X161036000Y-31496000D01*
X179324000Y-32258000D02*
X161798000Y-32258000D01*
X161036000Y-24638000D02*
X162306000Y-23368000D01*
X161036000Y-31496000D02*
X161036000Y-24638000D01*
X162306000Y-23368000D02*
X164925000Y-23368000D01*
X179324000Y-37338000D02*
X181864000Y-34798000D01*
X181864000Y-34798000D02*
X181864000Y-24638000D01*
X181864000Y-24638000D02*
X180340000Y-23114000D01*
X175260000Y-23114000D02*
X171958000Y-26416000D01*
X180340000Y-23114000D02*
X175260000Y-23114000D01*
D13*
G36*
X182220001Y-23919198D02*
G01*
X180903803Y-22603002D01*
X180880001Y-22573999D01*
X180764276Y-22479026D01*
X180632247Y-22408454D01*
X180488986Y-22364997D01*
X180377333Y-22354000D01*
X180377322Y-22354000D01*
X180340000Y-22350324D01*
X180302678Y-22354000D01*
X175297322Y-22354000D01*
X175259999Y-22350324D01*
X175222676Y-22354000D01*
X175222667Y-22354000D01*
X175111014Y-22364997D01*
X174967753Y-22408454D01*
X174835724Y-22479026D01*
X174719999Y-22573999D01*
X174696201Y-22602997D01*
X172880233Y-24418966D01*
X172779165Y-24336022D01*
X172616985Y-24249334D01*
X172441009Y-24195953D01*
X172258000Y-24177928D01*
X171658000Y-24177928D01*
X171474991Y-24195953D01*
X171299015Y-24249334D01*
X171136835Y-24336022D01*
X170994683Y-24452683D01*
X170878022Y-24594835D01*
X170791334Y-24757015D01*
X170737953Y-24932991D01*
X170719928Y-25116000D01*
X170719928Y-27716000D01*
X170737953Y-27899009D01*
X170791334Y-28074985D01*
X170878022Y-28237165D01*
X170994683Y-28379317D01*
X171136835Y-28495978D01*
X171299015Y-28582666D01*
X171474991Y-28636047D01*
X171658000Y-28654072D01*
X172258000Y-28654072D01*
X172441009Y-28636047D01*
X172616985Y-28582666D01*
X172779165Y-28495978D01*
X172921317Y-28379317D01*
X173037978Y-28237165D01*
X173124666Y-28074985D01*
X173178047Y-27899009D01*
X173196072Y-27716000D01*
X173196072Y-26252729D01*
X175574802Y-23874000D01*
X178154332Y-23874000D01*
X178085995Y-23976273D01*
X177980686Y-24230510D01*
X177927000Y-24500408D01*
X177927000Y-24775592D01*
X177980686Y-25045490D01*
X178085995Y-25299727D01*
X178238880Y-25528535D01*
X178433465Y-25723120D01*
X178662273Y-25876005D01*
X178739515Y-25908000D01*
X178662273Y-25939995D01*
X178433465Y-26092880D01*
X178238880Y-26287465D01*
X178085995Y-26516273D01*
X177980686Y-26770510D01*
X177927000Y-27040408D01*
X177927000Y-27315592D01*
X177980686Y-27585490D01*
X178085995Y-27839727D01*
X178238880Y-28068535D01*
X178433465Y-28263120D01*
X178662273Y-28416005D01*
X178739515Y-28448000D01*
X178662273Y-28479995D01*
X178433465Y-28632880D01*
X178238880Y-28827465D01*
X178151659Y-28958000D01*
X166176802Y-28958000D01*
X165742432Y-28523630D01*
X165794165Y-28495978D01*
X165936317Y-28379317D01*
X166052978Y-28237165D01*
X166139666Y-28074985D01*
X166193047Y-27899009D01*
X166211072Y-27716000D01*
X166211072Y-25728874D01*
X166734928Y-26252730D01*
X166734928Y-27716000D01*
X166752953Y-27899009D01*
X166806334Y-28074985D01*
X166893022Y-28237165D01*
X167009683Y-28379317D01*
X167151835Y-28495978D01*
X167314015Y-28582666D01*
X167489991Y-28636047D01*
X167673000Y-28654072D01*
X168273000Y-28654072D01*
X168456009Y-28636047D01*
X168631985Y-28582666D01*
X168794165Y-28495978D01*
X168936317Y-28379317D01*
X169052978Y-28237165D01*
X169139666Y-28074985D01*
X169193047Y-27899009D01*
X169211072Y-27716000D01*
X169211072Y-25116000D01*
X169193047Y-24932991D01*
X169139666Y-24757015D01*
X169052978Y-24594835D01*
X168936317Y-24452683D01*
X168794165Y-24336022D01*
X168631985Y-24249334D01*
X168456009Y-24195953D01*
X168273000Y-24177928D01*
X167673000Y-24177928D01*
X167489991Y-24195953D01*
X167314015Y-24249334D01*
X167151835Y-24336022D01*
X167050767Y-24418966D01*
X165488804Y-22857003D01*
X165465001Y-22827999D01*
X165349276Y-22733026D01*
X165217247Y-22662454D01*
X165073986Y-22618997D01*
X164962333Y-22608000D01*
X164962322Y-22608000D01*
X164925000Y-22604324D01*
X164887678Y-22608000D01*
X162343322Y-22608000D01*
X162305999Y-22604324D01*
X162268676Y-22608000D01*
X162268667Y-22608000D01*
X162157014Y-22618997D01*
X162013753Y-22662454D01*
X161881724Y-22733026D01*
X161765999Y-22827999D01*
X161742201Y-22856997D01*
X160524998Y-24074201D01*
X160496000Y-24097999D01*
X160472203Y-24126996D01*
X160472201Y-24126998D01*
X160401026Y-24213724D01*
X160330454Y-24345754D01*
X160300180Y-24445558D01*
X160286999Y-24489013D01*
X160286998Y-24489015D01*
X160272324Y-24638000D01*
X160276001Y-24675332D01*
X160276000Y-31458677D01*
X160272324Y-31496000D01*
X160276000Y-31533322D01*
X160276000Y-31533332D01*
X160286997Y-31644985D01*
X160330454Y-31788246D01*
X160401026Y-31920276D01*
X160438348Y-31965753D01*
X160495999Y-32036001D01*
X160525002Y-32059803D01*
X161234201Y-32769002D01*
X161257999Y-32798001D01*
X161373724Y-32892974D01*
X161505753Y-32963546D01*
X161649014Y-33007003D01*
X161760667Y-33018000D01*
X161760675Y-33018000D01*
X161798000Y-33021676D01*
X161835325Y-33018000D01*
X178151659Y-33018000D01*
X178238880Y-33148535D01*
X178433465Y-33343120D01*
X178662273Y-33496005D01*
X178733943Y-33525692D01*
X178720977Y-33530364D01*
X178605020Y-33592344D01*
X178538040Y-33832435D01*
X179324000Y-34618395D01*
X180109960Y-33832435D01*
X180042980Y-33592344D01*
X179907240Y-33528515D01*
X179985727Y-33496005D01*
X180214535Y-33343120D01*
X180409120Y-33148535D01*
X180562005Y-32919727D01*
X180667314Y-32665490D01*
X180721000Y-32395592D01*
X180721000Y-32120408D01*
X180667314Y-31850510D01*
X180562005Y-31596273D01*
X180409120Y-31367465D01*
X180214535Y-31172880D01*
X179985727Y-31019995D01*
X179908485Y-30988000D01*
X179985727Y-30956005D01*
X180214535Y-30803120D01*
X180409120Y-30608535D01*
X180562005Y-30379727D01*
X180667314Y-30125490D01*
X180721000Y-29855592D01*
X180721000Y-29580408D01*
X180667314Y-29310510D01*
X180562005Y-29056273D01*
X180409120Y-28827465D01*
X180214535Y-28632880D01*
X179985727Y-28479995D01*
X179908485Y-28448000D01*
X179985727Y-28416005D01*
X180214535Y-28263120D01*
X180409120Y-28068535D01*
X180562005Y-27839727D01*
X180667314Y-27585490D01*
X180721000Y-27315592D01*
X180721000Y-27040408D01*
X180667314Y-26770510D01*
X180562005Y-26516273D01*
X180409120Y-26287465D01*
X180214535Y-26092880D01*
X179985727Y-25939995D01*
X179908485Y-25908000D01*
X179985727Y-25876005D01*
X180214535Y-25723120D01*
X180409120Y-25528535D01*
X180562005Y-25299727D01*
X180667314Y-25045490D01*
X180721000Y-24775592D01*
X180721000Y-24569802D01*
X181104001Y-24952804D01*
X181104000Y-34483197D01*
X180719255Y-34867943D01*
X180725910Y-34725983D01*
X180684922Y-34453867D01*
X180591636Y-34194977D01*
X180529656Y-34079020D01*
X180289565Y-34012040D01*
X179503605Y-34798000D01*
X179517748Y-34812143D01*
X179338143Y-34991748D01*
X179324000Y-34977605D01*
X178538040Y-35763565D01*
X178605020Y-36003656D01*
X178740760Y-36067485D01*
X178662273Y-36099995D01*
X178433465Y-36252880D01*
X178238880Y-36447465D01*
X178085995Y-36676273D01*
X177980686Y-36930510D01*
X177927000Y-37200408D01*
X177927000Y-37475592D01*
X177980686Y-37745490D01*
X178085995Y-37999727D01*
X178238880Y-38228535D01*
X178433465Y-38423120D01*
X178662273Y-38576005D01*
X178916510Y-38681314D01*
X179186408Y-38735000D01*
X179461592Y-38735000D01*
X179731490Y-38681314D01*
X179985727Y-38576005D01*
X180214535Y-38423120D01*
X180409120Y-38228535D01*
X180562005Y-37999727D01*
X180667314Y-37745490D01*
X180721000Y-37475592D01*
X180721000Y-37200408D01*
X180690372Y-37046430D01*
X182220000Y-35516802D01*
X182220000Y-44044000D01*
X160172000Y-44044000D01*
X160172000Y-37160000D01*
X171834928Y-37160000D01*
X171847188Y-37284482D01*
X171883498Y-37404180D01*
X171942463Y-37514494D01*
X172021815Y-37611185D01*
X172118506Y-37690537D01*
X172228820Y-37749502D01*
X172348518Y-37785812D01*
X172473000Y-37798072D01*
X172787250Y-37795000D01*
X172946000Y-37636250D01*
X172946000Y-35687000D01*
X173200000Y-35687000D01*
X173200000Y-37636250D01*
X173358750Y-37795000D01*
X173673000Y-37798072D01*
X173797482Y-37785812D01*
X173917180Y-37749502D01*
X174027494Y-37690537D01*
X174124185Y-37611185D01*
X174203537Y-37514494D01*
X174262502Y-37404180D01*
X174298812Y-37284482D01*
X174311072Y-37160000D01*
X174308000Y-35845750D01*
X174149250Y-35687000D01*
X173200000Y-35687000D01*
X172946000Y-35687000D01*
X171996750Y-35687000D01*
X171838000Y-35845750D01*
X171834928Y-37160000D01*
X160172000Y-37160000D01*
X160172000Y-33960000D01*
X171834928Y-33960000D01*
X171838000Y-35274250D01*
X171996750Y-35433000D01*
X172946000Y-35433000D01*
X172946000Y-33483750D01*
X173200000Y-33483750D01*
X173200000Y-35433000D01*
X174149250Y-35433000D01*
X174308000Y-35274250D01*
X174308944Y-34870017D01*
X177922090Y-34870017D01*
X177963078Y-35142133D01*
X178056364Y-35401023D01*
X178118344Y-35516980D01*
X178358435Y-35583960D01*
X179144395Y-34798000D01*
X178358435Y-34012040D01*
X178118344Y-34079020D01*
X178001244Y-34328048D01*
X177934977Y-34595135D01*
X177922090Y-34870017D01*
X174308944Y-34870017D01*
X174311072Y-33960000D01*
X174298812Y-33835518D01*
X174262502Y-33715820D01*
X174203537Y-33605506D01*
X174124185Y-33508815D01*
X174027494Y-33429463D01*
X173917180Y-33370498D01*
X173797482Y-33334188D01*
X173673000Y-33321928D01*
X173358750Y-33325000D01*
X173200000Y-33483750D01*
X172946000Y-33483750D01*
X172787250Y-33325000D01*
X172473000Y-33321928D01*
X172348518Y-33334188D01*
X172228820Y-33370498D01*
X172118506Y-33429463D01*
X172021815Y-33508815D01*
X171942463Y-33605506D01*
X171883498Y-33715820D01*
X171847188Y-33835518D01*
X171834928Y-33960000D01*
X160172000Y-33960000D01*
X160172000Y-19202000D01*
X182220001Y-19202000D01*
X182220001Y-23919198D01*
G37*
X182220001Y-23919198D02*
X180903803Y-22603002D01*
X180880001Y-22573999D01*
X180764276Y-22479026D01*
X180632247Y-22408454D01*
X180488986Y-22364997D01*
X180377333Y-22354000D01*
X180377322Y-22354000D01*
X180340000Y-22350324D01*
X180302678Y-22354000D01*
X175297322Y-22354000D01*
X175259999Y-22350324D01*
X175222676Y-22354000D01*
X175222667Y-22354000D01*
X175111014Y-22364997D01*
X174967753Y-22408454D01*
X174835724Y-22479026D01*
X174719999Y-22573999D01*
X174696201Y-22602997D01*
X172880233Y-24418966D01*
X172779165Y-24336022D01*
X172616985Y-24249334D01*
X172441009Y-24195953D01*
X172258000Y-24177928D01*
X171658000Y-24177928D01*
X171474991Y-24195953D01*
X171299015Y-24249334D01*
X171136835Y-24336022D01*
X170994683Y-24452683D01*
X170878022Y-24594835D01*
X170791334Y-24757015D01*
X170737953Y-24932991D01*
X170719928Y-25116000D01*
X170719928Y-27716000D01*
X170737953Y-27899009D01*
X170791334Y-28074985D01*
X170878022Y-28237165D01*
X170994683Y-28379317D01*
X171136835Y-28495978D01*
X171299015Y-28582666D01*
X171474991Y-28636047D01*
X171658000Y-28654072D01*
X172258000Y-28654072D01*
X172441009Y-28636047D01*
X172616985Y-28582666D01*
X172779165Y-28495978D01*
X172921317Y-28379317D01*
X173037978Y-28237165D01*
X173124666Y-28074985D01*
X173178047Y-27899009D01*
X173196072Y-27716000D01*
X173196072Y-26252729D01*
X175574802Y-23874000D01*
X178154332Y-23874000D01*
X178085995Y-23976273D01*
X177980686Y-24230510D01*
X177927000Y-24500408D01*
X177927000Y-24775592D01*
X177980686Y-25045490D01*
X178085995Y-25299727D01*
X178238880Y-25528535D01*
X178433465Y-25723120D01*
X178662273Y-25876005D01*
X178739515Y-25908000D01*
X178662273Y-25939995D01*
X178433465Y-26092880D01*
X178238880Y-26287465D01*
X178085995Y-26516273D01*
X177980686Y-26770510D01*
X177927000Y-27040408D01*
X177927000Y-27315592D01*
X177980686Y-27585490D01*
X178085995Y-27839727D01*
X178238880Y-28068535D01*
X178433465Y-28263120D01*
X178662273Y-28416005D01*
X178739515Y-28448000D01*
X178662273Y-28479995D01*
X178433465Y-28632880D01*
X178238880Y-28827465D01*
X178151659Y-28958000D01*
X166176802Y-28958000D01*
X165742432Y-28523630D01*
X165794165Y-28495978D01*
X165936317Y-28379317D01*
X166052978Y-28237165D01*
X166139666Y-28074985D01*
X166193047Y-27899009D01*
X166211072Y-27716000D01*
X166211072Y-25728874D01*
X166734928Y-26252730D01*
X166734928Y-27716000D01*
X166752953Y-27899009D01*
X166806334Y-28074985D01*
X166893022Y-28237165D01*
X167009683Y-28379317D01*
X167151835Y-28495978D01*
X167314015Y-28582666D01*
X167489991Y-28636047D01*
X167673000Y-28654072D01*
X168273000Y-28654072D01*
X168456009Y-28636047D01*
X168631985Y-28582666D01*
X168794165Y-28495978D01*
X168936317Y-28379317D01*
X169052978Y-28237165D01*
X169139666Y-28074985D01*
X169193047Y-27899009D01*
X169211072Y-27716000D01*
X169211072Y-25116000D01*
X169193047Y-24932991D01*
X169139666Y-24757015D01*
X169052978Y-24594835D01*
X168936317Y-24452683D01*
X168794165Y-24336022D01*
X168631985Y-24249334D01*
X168456009Y-24195953D01*
X168273000Y-24177928D01*
X167673000Y-24177928D01*
X167489991Y-24195953D01*
X167314015Y-24249334D01*
X167151835Y-24336022D01*
X167050767Y-24418966D01*
X165488804Y-22857003D01*
X165465001Y-22827999D01*
X165349276Y-22733026D01*
X165217247Y-22662454D01*
X165073986Y-22618997D01*
X164962333Y-22608000D01*
X164962322Y-22608000D01*
X164925000Y-22604324D01*
X164887678Y-22608000D01*
X162343322Y-22608000D01*
X162305999Y-22604324D01*
X162268676Y-22608000D01*
X162268667Y-22608000D01*
X162157014Y-22618997D01*
X162013753Y-22662454D01*
X161881724Y-22733026D01*
X161765999Y-22827999D01*
X161742201Y-22856997D01*
X160524998Y-24074201D01*
X160496000Y-24097999D01*
X160472203Y-24126996D01*
X160472201Y-24126998D01*
X160401026Y-24213724D01*
X160330454Y-24345754D01*
X160300180Y-24445558D01*
X160286999Y-24489013D01*
X160286998Y-24489015D01*
X160272324Y-24638000D01*
X160276001Y-24675332D01*
X160276000Y-31458677D01*
X160272324Y-31496000D01*
X160276000Y-31533322D01*
X160276000Y-31533332D01*
X160286997Y-31644985D01*
X160330454Y-31788246D01*
X160401026Y-31920276D01*
X160438348Y-31965753D01*
X160495999Y-32036001D01*
X160525002Y-32059803D01*
X161234201Y-32769002D01*
X161257999Y-32798001D01*
X161373724Y-32892974D01*
X161505753Y-32963546D01*
X161649014Y-33007003D01*
X161760667Y-33018000D01*
X161760675Y-33018000D01*
X161798000Y-33021676D01*
X161835325Y-33018000D01*
X178151659Y-33018000D01*
X178238880Y-33148535D01*
X178433465Y-33343120D01*
X178662273Y-33496005D01*
X178733943Y-33525692D01*
X178720977Y-33530364D01*
X178605020Y-33592344D01*
X178538040Y-33832435D01*
X179324000Y-34618395D01*
X180109960Y-33832435D01*
X180042980Y-33592344D01*
X179907240Y-33528515D01*
X179985727Y-33496005D01*
X180214535Y-33343120D01*
X180409120Y-33148535D01*
X180562005Y-32919727D01*
X180667314Y-32665490D01*
X180721000Y-32395592D01*
X180721000Y-32120408D01*
X180667314Y-31850510D01*
X180562005Y-31596273D01*
X180409120Y-31367465D01*
X180214535Y-31172880D01*
X179985727Y-31019995D01*
X179908485Y-30988000D01*
X179985727Y-30956005D01*
X180214535Y-30803120D01*
X180409120Y-30608535D01*
X180562005Y-30379727D01*
X180667314Y-30125490D01*
X180721000Y-29855592D01*
X180721000Y-29580408D01*
X180667314Y-29310510D01*
X180562005Y-29056273D01*
X180409120Y-28827465D01*
X180214535Y-28632880D01*
X179985727Y-28479995D01*
X179908485Y-28448000D01*
X179985727Y-28416005D01*
X180214535Y-28263120D01*
X180409120Y-28068535D01*
X180562005Y-27839727D01*
X180667314Y-27585490D01*
X180721000Y-27315592D01*
X180721000Y-27040408D01*
X180667314Y-26770510D01*
X180562005Y-26516273D01*
X180409120Y-26287465D01*
X180214535Y-26092880D01*
X179985727Y-25939995D01*
X179908485Y-25908000D01*
X179985727Y-25876005D01*
X180214535Y-25723120D01*
X180409120Y-25528535D01*
X180562005Y-25299727D01*
X180667314Y-25045490D01*
X180721000Y-24775592D01*
X180721000Y-24569802D01*
X181104001Y-24952804D01*
X181104000Y-34483197D01*
X180719255Y-34867943D01*
X180725910Y-34725983D01*
X180684922Y-34453867D01*
X180591636Y-34194977D01*
X180529656Y-34079020D01*
X180289565Y-34012040D01*
X179503605Y-34798000D01*
X179517748Y-34812143D01*
X179338143Y-34991748D01*
X179324000Y-34977605D01*
X178538040Y-35763565D01*
X178605020Y-36003656D01*
X178740760Y-36067485D01*
X178662273Y-36099995D01*
X178433465Y-36252880D01*
X178238880Y-36447465D01*
X178085995Y-36676273D01*
X177980686Y-36930510D01*
X177927000Y-37200408D01*
X177927000Y-37475592D01*
X177980686Y-37745490D01*
X178085995Y-37999727D01*
X178238880Y-38228535D01*
X178433465Y-38423120D01*
X178662273Y-38576005D01*
X178916510Y-38681314D01*
X179186408Y-38735000D01*
X179461592Y-38735000D01*
X179731490Y-38681314D01*
X179985727Y-38576005D01*
X180214535Y-38423120D01*
X180409120Y-38228535D01*
X180562005Y-37999727D01*
X180667314Y-37745490D01*
X180721000Y-37475592D01*
X180721000Y-37200408D01*
X180690372Y-37046430D01*
X182220000Y-35516802D01*
X182220000Y-44044000D01*
X160172000Y-44044000D01*
X160172000Y-37160000D01*
X171834928Y-37160000D01*
X171847188Y-37284482D01*
X171883498Y-37404180D01*
X171942463Y-37514494D01*
X172021815Y-37611185D01*
X172118506Y-37690537D01*
X172228820Y-37749502D01*
X172348518Y-37785812D01*
X172473000Y-37798072D01*
X172787250Y-37795000D01*
X172946000Y-37636250D01*
X172946000Y-35687000D01*
X173200000Y-35687000D01*
X173200000Y-37636250D01*
X173358750Y-37795000D01*
X173673000Y-37798072D01*
X173797482Y-37785812D01*
X173917180Y-37749502D01*
X174027494Y-37690537D01*
X174124185Y-37611185D01*
X174203537Y-37514494D01*
X174262502Y-37404180D01*
X174298812Y-37284482D01*
X174311072Y-37160000D01*
X174308000Y-35845750D01*
X174149250Y-35687000D01*
X173200000Y-35687000D01*
X172946000Y-35687000D01*
X171996750Y-35687000D01*
X171838000Y-35845750D01*
X171834928Y-37160000D01*
X160172000Y-37160000D01*
X160172000Y-33960000D01*
X171834928Y-33960000D01*
X171838000Y-35274250D01*
X171996750Y-35433000D01*
X172946000Y-35433000D01*
X172946000Y-33483750D01*
X173200000Y-33483750D01*
X173200000Y-35433000D01*
X174149250Y-35433000D01*
X174308000Y-35274250D01*
X174308944Y-34870017D01*
X177922090Y-34870017D01*
X177963078Y-35142133D01*
X178056364Y-35401023D01*
X178118344Y-35516980D01*
X178358435Y-35583960D01*
X179144395Y-34798000D01*
X178358435Y-34012040D01*
X178118344Y-34079020D01*
X178001244Y-34328048D01*
X177934977Y-34595135D01*
X177922090Y-34870017D01*
X174308944Y-34870017D01*
X174311072Y-33960000D01*
X174298812Y-33835518D01*
X174262502Y-33715820D01*
X174203537Y-33605506D01*
X174124185Y-33508815D01*
X174027494Y-33429463D01*
X173917180Y-33370498D01*
X173797482Y-33334188D01*
X173673000Y-33321928D01*
X173358750Y-33325000D01*
X173200000Y-33483750D01*
X172946000Y-33483750D01*
X172787250Y-33325000D01*
X172473000Y-33321928D01*
X172348518Y-33334188D01*
X172228820Y-33370498D01*
X172118506Y-33429463D01*
X172021815Y-33508815D01*
X171942463Y-33605506D01*
X171883498Y-33715820D01*
X171847188Y-33835518D01*
X171834928Y-33960000D01*
X160172000Y-33960000D01*
X160172000Y-19202000D01*
X182220001Y-19202000D01*
X182220001Y-23919198D01*
M02*
