G04 #@! TF.GenerationSoftware,KiCad,Pcbnew,(5.1.5)-3*
G04 #@! TF.CreationDate,2020-12-21T12:30:49+01:00*
G04 #@! TF.ProjectId,epimetheus_ina219,6570696d-6574-4686-9575-735f696e6132,rev?*
G04 #@! TF.SameCoordinates,Original*
G04 #@! TF.FileFunction,Legend,Top*
G04 #@! TF.FilePolarity,Positive*
%FSLAX46Y46*%
G04 Gerber Fmt 4.6, Leading zero omitted, Abs format (unit mm)*
G04 Created by KiCad (PCBNEW (5.1.5)-3) date 2020-12-21 12:30:49*
%MOMM*%
%LPD*%
G04 APERTURE LIST*
%ADD10C,0.150000*%
%ADD11C,0.120000*%
G04 APERTURE END LIST*
D10*
X160250809Y-42457666D02*
X160727000Y-42457666D01*
X160155571Y-42743380D02*
X160488904Y-41743380D01*
X160822238Y-42743380D01*
X161346047Y-41743380D02*
X161441285Y-41743380D01*
X161536523Y-41791000D01*
X161584142Y-41838619D01*
X161631761Y-41933857D01*
X161679380Y-42124333D01*
X161679380Y-42362428D01*
X161631761Y-42552904D01*
X161584142Y-42648142D01*
X161536523Y-42695761D01*
X161441285Y-42743380D01*
X161346047Y-42743380D01*
X161250809Y-42695761D01*
X161203190Y-42648142D01*
X161155571Y-42552904D01*
X161107952Y-42362428D01*
X161107952Y-42124333D01*
X161155571Y-41933857D01*
X161203190Y-41838619D01*
X161250809Y-41791000D01*
X161346047Y-41743380D01*
X162822238Y-41695761D02*
X161965095Y-42981476D01*
X163107952Y-42457666D02*
X163584142Y-42457666D01*
X163012714Y-42743380D02*
X163346047Y-41743380D01*
X163679380Y-42743380D01*
X164536523Y-42743380D02*
X163965095Y-42743380D01*
X164250809Y-42743380D02*
X164250809Y-41743380D01*
X164155571Y-41886238D01*
X164060333Y-41981476D01*
X163965095Y-42029095D01*
X165727000Y-42648142D02*
X165774619Y-42695761D01*
X165727000Y-42743380D01*
X165679380Y-42695761D01*
X165727000Y-42648142D01*
X165727000Y-42743380D01*
X165727000Y-42124333D02*
X165774619Y-42171952D01*
X165727000Y-42219571D01*
X165679380Y-42171952D01*
X165727000Y-42124333D01*
X165727000Y-42219571D01*
X167155571Y-41743380D02*
X167250809Y-41743380D01*
X167346047Y-41791000D01*
X167393666Y-41838619D01*
X167441285Y-41933857D01*
X167488904Y-42124333D01*
X167488904Y-42362428D01*
X167441285Y-42552904D01*
X167393666Y-42648142D01*
X167346047Y-42695761D01*
X167250809Y-42743380D01*
X167155571Y-42743380D01*
X167060333Y-42695761D01*
X167012714Y-42648142D01*
X166965095Y-42552904D01*
X166917476Y-42362428D01*
X166917476Y-42124333D01*
X166965095Y-41933857D01*
X167012714Y-41838619D01*
X167060333Y-41791000D01*
X167155571Y-41743380D01*
X167822238Y-42743380D02*
X168346047Y-42076714D01*
X167822238Y-42076714D02*
X168346047Y-42743380D01*
X169155571Y-42076714D02*
X169155571Y-42743380D01*
X168917476Y-41695761D02*
X168679380Y-42410047D01*
X169298428Y-42410047D01*
X170155571Y-41743380D02*
X169679380Y-41743380D01*
X169631761Y-42219571D01*
X169679380Y-42171952D01*
X169774619Y-42124333D01*
X170012714Y-42124333D01*
X170107952Y-42171952D01*
X170155571Y-42219571D01*
X170203190Y-42314809D01*
X170203190Y-42552904D01*
X170155571Y-42648142D01*
X170107952Y-42695761D01*
X170012714Y-42743380D01*
X169774619Y-42743380D01*
X169679380Y-42695761D01*
X169631761Y-42648142D01*
X163076380Y-41060666D02*
X163552571Y-41060666D01*
X162981142Y-41346380D02*
X163314476Y-40346380D01*
X163647809Y-41346380D01*
X164504952Y-41346380D02*
X163933523Y-41346380D01*
X164219238Y-41346380D02*
X164219238Y-40346380D01*
X164124000Y-40489238D01*
X164028761Y-40584476D01*
X163933523Y-40632095D01*
X165695428Y-41251142D02*
X165743047Y-41298761D01*
X165695428Y-41346380D01*
X165647809Y-41298761D01*
X165695428Y-41251142D01*
X165695428Y-41346380D01*
X165695428Y-40727333D02*
X165743047Y-40774952D01*
X165695428Y-40822571D01*
X165647809Y-40774952D01*
X165695428Y-40727333D01*
X165695428Y-40822571D01*
X167124000Y-40346380D02*
X167219238Y-40346380D01*
X167314476Y-40394000D01*
X167362095Y-40441619D01*
X167409714Y-40536857D01*
X167457333Y-40727333D01*
X167457333Y-40965428D01*
X167409714Y-41155904D01*
X167362095Y-41251142D01*
X167314476Y-41298761D01*
X167219238Y-41346380D01*
X167124000Y-41346380D01*
X167028761Y-41298761D01*
X166981142Y-41251142D01*
X166933523Y-41155904D01*
X166885904Y-40965428D01*
X166885904Y-40727333D01*
X166933523Y-40536857D01*
X166981142Y-40441619D01*
X167028761Y-40394000D01*
X167124000Y-40346380D01*
X167790666Y-41346380D02*
X168314476Y-40679714D01*
X167790666Y-40679714D02*
X168314476Y-41346380D01*
X169124000Y-40679714D02*
X169124000Y-41346380D01*
X168885904Y-40298761D02*
X168647809Y-41013047D01*
X169266857Y-41013047D01*
X170076380Y-40679714D02*
X170076380Y-41346380D01*
X169838285Y-40298761D02*
X169600190Y-41013047D01*
X170219238Y-41013047D01*
X163068452Y-39536666D02*
X163544642Y-39536666D01*
X162973214Y-39822380D02*
X163306547Y-38822380D01*
X163639880Y-39822380D01*
X164163690Y-38822380D02*
X164258928Y-38822380D01*
X164354166Y-38870000D01*
X164401785Y-38917619D01*
X164449404Y-39012857D01*
X164497023Y-39203333D01*
X164497023Y-39441428D01*
X164449404Y-39631904D01*
X164401785Y-39727142D01*
X164354166Y-39774761D01*
X164258928Y-39822380D01*
X164163690Y-39822380D01*
X164068452Y-39774761D01*
X164020833Y-39727142D01*
X163973214Y-39631904D01*
X163925595Y-39441428D01*
X163925595Y-39203333D01*
X163973214Y-39012857D01*
X164020833Y-38917619D01*
X164068452Y-38870000D01*
X164163690Y-38822380D01*
X165687500Y-39727142D02*
X165735119Y-39774761D01*
X165687500Y-39822380D01*
X165639880Y-39774761D01*
X165687500Y-39727142D01*
X165687500Y-39822380D01*
X165687500Y-39203333D02*
X165735119Y-39250952D01*
X165687500Y-39298571D01*
X165639880Y-39250952D01*
X165687500Y-39203333D01*
X165687500Y-39298571D01*
X167116071Y-38822380D02*
X167211309Y-38822380D01*
X167306547Y-38870000D01*
X167354166Y-38917619D01*
X167401785Y-39012857D01*
X167449404Y-39203333D01*
X167449404Y-39441428D01*
X167401785Y-39631904D01*
X167354166Y-39727142D01*
X167306547Y-39774761D01*
X167211309Y-39822380D01*
X167116071Y-39822380D01*
X167020833Y-39774761D01*
X166973214Y-39727142D01*
X166925595Y-39631904D01*
X166877976Y-39441428D01*
X166877976Y-39203333D01*
X166925595Y-39012857D01*
X166973214Y-38917619D01*
X167020833Y-38870000D01*
X167116071Y-38822380D01*
X167782738Y-38822380D02*
X168449404Y-39822380D01*
X168449404Y-38822380D02*
X167782738Y-39822380D01*
X169258928Y-39155714D02*
X169258928Y-39822380D01*
X169020833Y-38774761D02*
X168782738Y-39489047D01*
X169401785Y-39489047D01*
X170306547Y-39822380D02*
X169735119Y-39822380D01*
X170020833Y-39822380D02*
X170020833Y-38822380D01*
X169925595Y-38965238D01*
X169830357Y-39060476D01*
X169735119Y-39108095D01*
X162195619Y-20883619D02*
X162243238Y-20836000D01*
X162338476Y-20788380D01*
X162576571Y-20788380D01*
X162671809Y-20836000D01*
X162719428Y-20883619D01*
X162767047Y-20978857D01*
X162767047Y-21074095D01*
X162719428Y-21216952D01*
X162148000Y-21788380D01*
X162767047Y-21788380D01*
X163624190Y-20788380D02*
X163433714Y-20788380D01*
X163338476Y-20836000D01*
X163290857Y-20883619D01*
X163195619Y-21026476D01*
X163148000Y-21216952D01*
X163148000Y-21597904D01*
X163195619Y-21693142D01*
X163243238Y-21740761D01*
X163338476Y-21788380D01*
X163528952Y-21788380D01*
X163624190Y-21740761D01*
X163671809Y-21693142D01*
X163719428Y-21597904D01*
X163719428Y-21359809D01*
X163671809Y-21264571D01*
X163624190Y-21216952D01*
X163528952Y-21169333D01*
X163338476Y-21169333D01*
X163243238Y-21216952D01*
X163195619Y-21264571D01*
X163148000Y-21359809D01*
X164005142Y-20788380D02*
X164338476Y-21788380D01*
X164671809Y-20788380D01*
X166481333Y-20740761D02*
X165624190Y-22026476D01*
X167481333Y-20788380D02*
X168100380Y-20788380D01*
X167767047Y-21169333D01*
X167909904Y-21169333D01*
X168005142Y-21216952D01*
X168052761Y-21264571D01*
X168100380Y-21359809D01*
X168100380Y-21597904D01*
X168052761Y-21693142D01*
X168005142Y-21740761D01*
X167909904Y-21788380D01*
X167624190Y-21788380D01*
X167528952Y-21740761D01*
X167481333Y-21693142D01*
X168528952Y-21693142D02*
X168576571Y-21740761D01*
X168528952Y-21788380D01*
X168481333Y-21740761D01*
X168528952Y-21693142D01*
X168528952Y-21788380D01*
X168957523Y-20883619D02*
X169005142Y-20836000D01*
X169100380Y-20788380D01*
X169338476Y-20788380D01*
X169433714Y-20836000D01*
X169481333Y-20883619D01*
X169528952Y-20978857D01*
X169528952Y-21074095D01*
X169481333Y-21216952D01*
X168909904Y-21788380D01*
X169528952Y-21788380D01*
X169909904Y-21502666D02*
X170386095Y-21502666D01*
X169814666Y-21788380D02*
X170148000Y-20788380D01*
X170481333Y-21788380D01*
X171576571Y-21788380D02*
X171576571Y-20788380D01*
X171909904Y-21502666D01*
X172243238Y-20788380D01*
X172243238Y-21788380D01*
X172671809Y-21502666D02*
X173148000Y-21502666D01*
X172576571Y-21788380D02*
X172909904Y-20788380D01*
X173243238Y-21788380D01*
X173481333Y-20788380D02*
X174148000Y-21788380D01*
X174148000Y-20788380D02*
X173481333Y-21788380D01*
X161449047Y-20264380D02*
X161449047Y-19264380D01*
X161925238Y-20264380D02*
X161925238Y-19264380D01*
X162496666Y-20264380D01*
X162496666Y-19264380D01*
X162925238Y-19978666D02*
X163401428Y-19978666D01*
X162830000Y-20264380D02*
X163163333Y-19264380D01*
X163496666Y-20264380D01*
X163782380Y-19359619D02*
X163830000Y-19312000D01*
X163925238Y-19264380D01*
X164163333Y-19264380D01*
X164258571Y-19312000D01*
X164306190Y-19359619D01*
X164353809Y-19454857D01*
X164353809Y-19550095D01*
X164306190Y-19692952D01*
X163734761Y-20264380D01*
X164353809Y-20264380D01*
X165306190Y-20264380D02*
X164734761Y-20264380D01*
X165020476Y-20264380D02*
X165020476Y-19264380D01*
X164925238Y-19407238D01*
X164830000Y-19502476D01*
X164734761Y-19550095D01*
X165782380Y-20264380D02*
X165972857Y-20264380D01*
X166068095Y-20216761D01*
X166115714Y-20169142D01*
X166210952Y-20026285D01*
X166258571Y-19835809D01*
X166258571Y-19454857D01*
X166210952Y-19359619D01*
X166163333Y-19312000D01*
X166068095Y-19264380D01*
X165877619Y-19264380D01*
X165782380Y-19312000D01*
X165734761Y-19359619D01*
X165687142Y-19454857D01*
X165687142Y-19692952D01*
X165734761Y-19788190D01*
X165782380Y-19835809D01*
X165877619Y-19883428D01*
X166068095Y-19883428D01*
X166163333Y-19835809D01*
X166210952Y-19788190D01*
X166258571Y-19692952D01*
D11*
X162179000Y-44323000D02*
G75*
G02X159639000Y-41783000I0J2540000D01*
G01*
X159639000Y-21463000D02*
G75*
G02X162179000Y-18923000I2540000J0D01*
G01*
X179959000Y-18923000D02*
G75*
G02X182499000Y-21463000I0J-2540000D01*
G01*
X182499000Y-41783000D02*
G75*
G02X179959000Y-44323000I-2540000J0D01*
G01*
X182499000Y-21463000D02*
X182499000Y-41783000D01*
X162179000Y-18923000D02*
X179959000Y-18923000D01*
X159639000Y-41783000D02*
X159639000Y-21463000D01*
X179959000Y-44323000D02*
X162179000Y-44323000D01*
X162052000Y-27888000D02*
X162052000Y-34088000D01*
X173873000Y-34088000D02*
X173873000Y-27888000D01*
X162052000Y-27888000D02*
X164148000Y-27888000D01*
X165798000Y-27888000D02*
X167148000Y-27888000D01*
X168798000Y-27888000D02*
X171198000Y-27888000D01*
X172748000Y-27888000D02*
X173873000Y-27888000D01*
X172298000Y-34088000D02*
X162052000Y-34088000D01*
D10*
X174561714Y-24090380D02*
X174895047Y-25090380D01*
X175228380Y-24090380D01*
X175561714Y-25090380D02*
X175561714Y-24090380D01*
X176037904Y-25090380D02*
X176037904Y-24090380D01*
X176609333Y-25090380D01*
X176609333Y-24090380D01*
X177085523Y-24709428D02*
X177847428Y-24709428D01*
X177466476Y-25090380D02*
X177466476Y-24328476D01*
X174561714Y-26630380D02*
X174895047Y-27630380D01*
X175228380Y-26630380D01*
X175561714Y-27630380D02*
X175561714Y-26630380D01*
X176037904Y-27630380D02*
X176037904Y-26630380D01*
X176609333Y-27630380D01*
X176609333Y-26630380D01*
X177085523Y-27249428D02*
X177847428Y-27249428D01*
X174299714Y-30122761D02*
X174442571Y-30170380D01*
X174680666Y-30170380D01*
X174775904Y-30122761D01*
X174823523Y-30075142D01*
X174871142Y-29979904D01*
X174871142Y-29884666D01*
X174823523Y-29789428D01*
X174775904Y-29741809D01*
X174680666Y-29694190D01*
X174490190Y-29646571D01*
X174394952Y-29598952D01*
X174347333Y-29551333D01*
X174299714Y-29456095D01*
X174299714Y-29360857D01*
X174347333Y-29265619D01*
X174394952Y-29218000D01*
X174490190Y-29170380D01*
X174728285Y-29170380D01*
X174871142Y-29218000D01*
X175299714Y-30170380D02*
X175299714Y-29170380D01*
X175537809Y-29170380D01*
X175680666Y-29218000D01*
X175775904Y-29313238D01*
X175823523Y-29408476D01*
X175871142Y-29598952D01*
X175871142Y-29741809D01*
X175823523Y-29932285D01*
X175775904Y-30027523D01*
X175680666Y-30122761D01*
X175537809Y-30170380D01*
X175299714Y-30170380D01*
X176252095Y-29884666D02*
X176728285Y-29884666D01*
X176156857Y-30170380D02*
X176490190Y-29170380D01*
X176823523Y-30170380D01*
X174323523Y-32662761D02*
X174466380Y-32710380D01*
X174704476Y-32710380D01*
X174799714Y-32662761D01*
X174847333Y-32615142D01*
X174894952Y-32519904D01*
X174894952Y-32424666D01*
X174847333Y-32329428D01*
X174799714Y-32281809D01*
X174704476Y-32234190D01*
X174514000Y-32186571D01*
X174418761Y-32138952D01*
X174371142Y-32091333D01*
X174323523Y-31996095D01*
X174323523Y-31900857D01*
X174371142Y-31805619D01*
X174418761Y-31758000D01*
X174514000Y-31710380D01*
X174752095Y-31710380D01*
X174894952Y-31758000D01*
X175894952Y-32615142D02*
X175847333Y-32662761D01*
X175704476Y-32710380D01*
X175609238Y-32710380D01*
X175466380Y-32662761D01*
X175371142Y-32567523D01*
X175323523Y-32472285D01*
X175275904Y-32281809D01*
X175275904Y-32138952D01*
X175323523Y-31948476D01*
X175371142Y-31853238D01*
X175466380Y-31758000D01*
X175609238Y-31710380D01*
X175704476Y-31710380D01*
X175847333Y-31758000D01*
X175894952Y-31805619D01*
X176799714Y-32710380D02*
X176323523Y-32710380D01*
X176323523Y-31710380D01*
X174752095Y-34298000D02*
X174656857Y-34250380D01*
X174514000Y-34250380D01*
X174371142Y-34298000D01*
X174275904Y-34393238D01*
X174228285Y-34488476D01*
X174180666Y-34678952D01*
X174180666Y-34821809D01*
X174228285Y-35012285D01*
X174275904Y-35107523D01*
X174371142Y-35202761D01*
X174514000Y-35250380D01*
X174609238Y-35250380D01*
X174752095Y-35202761D01*
X174799714Y-35155142D01*
X174799714Y-34821809D01*
X174609238Y-34821809D01*
X175228285Y-35250380D02*
X175228285Y-34250380D01*
X175799714Y-35250380D01*
X175799714Y-34250380D01*
X176275904Y-35250380D02*
X176275904Y-34250380D01*
X176514000Y-34250380D01*
X176656857Y-34298000D01*
X176752095Y-34393238D01*
X176799714Y-34488476D01*
X176847333Y-34678952D01*
X176847333Y-34821809D01*
X176799714Y-35012285D01*
X176752095Y-35107523D01*
X176656857Y-35202761D01*
X176514000Y-35250380D01*
X176275904Y-35250380D01*
X174180666Y-36790380D02*
X174514000Y-37790380D01*
X174847333Y-36790380D01*
X175752095Y-37695142D02*
X175704476Y-37742761D01*
X175561619Y-37790380D01*
X175466380Y-37790380D01*
X175323523Y-37742761D01*
X175228285Y-37647523D01*
X175180666Y-37552285D01*
X175133047Y-37361809D01*
X175133047Y-37218952D01*
X175180666Y-37028476D01*
X175228285Y-36933238D01*
X175323523Y-36838000D01*
X175466380Y-36790380D01*
X175561619Y-36790380D01*
X175704476Y-36838000D01*
X175752095Y-36885619D01*
X176752095Y-37695142D02*
X176704476Y-37742761D01*
X176561619Y-37790380D01*
X176466380Y-37790380D01*
X176323523Y-37742761D01*
X176228285Y-37647523D01*
X176180666Y-37552285D01*
X176133047Y-37361809D01*
X176133047Y-37218952D01*
X176180666Y-37028476D01*
X176228285Y-36933238D01*
X176323523Y-36838000D01*
X176466380Y-36790380D01*
X176561619Y-36790380D01*
X176704476Y-36838000D01*
X176752095Y-36885619D01*
M02*
