G04 #@! TF.GenerationSoftware,KiCad,Pcbnew,(5.1.5)-3*
G04 #@! TF.CreationDate,2020-12-21T12:30:48+01:00*
G04 #@! TF.ProjectId,epimetheus_ina219,6570696d-6574-4686-9575-735f696e6132,rev?*
G04 #@! TF.SameCoordinates,Original*
G04 #@! TF.FileFunction,Copper,L2,Bot*
G04 #@! TF.FilePolarity,Positive*
%FSLAX46Y46*%
G04 Gerber Fmt 4.6, Leading zero omitted, Abs format (unit mm)*
G04 Created by KiCad (PCBNEW (5.1.5)-3) date 2020-12-21 12:30:48*
%MOMM*%
%LPD*%
G04 APERTURE LIST*
%ADD10C,1.524000*%
%ADD11C,0.254000*%
G04 APERTURE END LIST*
D10*
X179324000Y-24638000D03*
X179324000Y-27178000D03*
X179324000Y-29718000D03*
X179324000Y-32258000D03*
X179324000Y-34798000D03*
X179324000Y-37338000D03*
D11*
G36*
X182220000Y-44044000D02*
G01*
X160172000Y-44044000D01*
X160172000Y-37200408D01*
X177927000Y-37200408D01*
X177927000Y-37475592D01*
X177980686Y-37745490D01*
X178085995Y-37999727D01*
X178238880Y-38228535D01*
X178433465Y-38423120D01*
X178662273Y-38576005D01*
X178916510Y-38681314D01*
X179186408Y-38735000D01*
X179461592Y-38735000D01*
X179731490Y-38681314D01*
X179985727Y-38576005D01*
X180214535Y-38423120D01*
X180409120Y-38228535D01*
X180562005Y-37999727D01*
X180667314Y-37745490D01*
X180721000Y-37475592D01*
X180721000Y-37200408D01*
X180667314Y-36930510D01*
X180562005Y-36676273D01*
X180409120Y-36447465D01*
X180214535Y-36252880D01*
X179985727Y-36099995D01*
X179914057Y-36070308D01*
X179927023Y-36065636D01*
X180042980Y-36003656D01*
X180109960Y-35763565D01*
X179324000Y-34977605D01*
X178538040Y-35763565D01*
X178605020Y-36003656D01*
X178740760Y-36067485D01*
X178662273Y-36099995D01*
X178433465Y-36252880D01*
X178238880Y-36447465D01*
X178085995Y-36676273D01*
X177980686Y-36930510D01*
X177927000Y-37200408D01*
X160172000Y-37200408D01*
X160172000Y-34870017D01*
X177922090Y-34870017D01*
X177963078Y-35142133D01*
X178056364Y-35401023D01*
X178118344Y-35516980D01*
X178358435Y-35583960D01*
X179144395Y-34798000D01*
X179503605Y-34798000D01*
X180289565Y-35583960D01*
X180529656Y-35516980D01*
X180646756Y-35267952D01*
X180713023Y-35000865D01*
X180725910Y-34725983D01*
X180684922Y-34453867D01*
X180591636Y-34194977D01*
X180529656Y-34079020D01*
X180289565Y-34012040D01*
X179503605Y-34798000D01*
X179144395Y-34798000D01*
X178358435Y-34012040D01*
X178118344Y-34079020D01*
X178001244Y-34328048D01*
X177934977Y-34595135D01*
X177922090Y-34870017D01*
X160172000Y-34870017D01*
X160172000Y-30851589D01*
X161988000Y-30851589D01*
X161988000Y-31124411D01*
X162041225Y-31391989D01*
X162145629Y-31644043D01*
X162297201Y-31870886D01*
X162490114Y-32063799D01*
X162716957Y-32215371D01*
X162969011Y-32319775D01*
X163236589Y-32373000D01*
X163509411Y-32373000D01*
X163776989Y-32319775D01*
X164029043Y-32215371D01*
X164255886Y-32063799D01*
X164448799Y-31870886D01*
X164600371Y-31644043D01*
X164704775Y-31391989D01*
X164758000Y-31124411D01*
X164758000Y-30851589D01*
X168988000Y-30851589D01*
X168988000Y-31124411D01*
X169041225Y-31391989D01*
X169145629Y-31644043D01*
X169297201Y-31870886D01*
X169490114Y-32063799D01*
X169716957Y-32215371D01*
X169969011Y-32319775D01*
X170236589Y-32373000D01*
X170509411Y-32373000D01*
X170776989Y-32319775D01*
X171029043Y-32215371D01*
X171255886Y-32063799D01*
X171448799Y-31870886D01*
X171600371Y-31644043D01*
X171704775Y-31391989D01*
X171758000Y-31124411D01*
X171758000Y-30851589D01*
X171704775Y-30584011D01*
X171600371Y-30331957D01*
X171448799Y-30105114D01*
X171255886Y-29912201D01*
X171029043Y-29760629D01*
X170776989Y-29656225D01*
X170509411Y-29603000D01*
X170236589Y-29603000D01*
X169969011Y-29656225D01*
X169716957Y-29760629D01*
X169490114Y-29912201D01*
X169297201Y-30105114D01*
X169145629Y-30331957D01*
X169041225Y-30584011D01*
X168988000Y-30851589D01*
X164758000Y-30851589D01*
X164704775Y-30584011D01*
X164600371Y-30331957D01*
X164448799Y-30105114D01*
X164255886Y-29912201D01*
X164029043Y-29760629D01*
X163776989Y-29656225D01*
X163509411Y-29603000D01*
X163236589Y-29603000D01*
X162969011Y-29656225D01*
X162716957Y-29760629D01*
X162490114Y-29912201D01*
X162297201Y-30105114D01*
X162145629Y-30331957D01*
X162041225Y-30584011D01*
X161988000Y-30851589D01*
X160172000Y-30851589D01*
X160172000Y-24500408D01*
X177927000Y-24500408D01*
X177927000Y-24775592D01*
X177980686Y-25045490D01*
X178085995Y-25299727D01*
X178238880Y-25528535D01*
X178433465Y-25723120D01*
X178662273Y-25876005D01*
X178739515Y-25908000D01*
X178662273Y-25939995D01*
X178433465Y-26092880D01*
X178238880Y-26287465D01*
X178085995Y-26516273D01*
X177980686Y-26770510D01*
X177927000Y-27040408D01*
X177927000Y-27315592D01*
X177980686Y-27585490D01*
X178085995Y-27839727D01*
X178238880Y-28068535D01*
X178433465Y-28263120D01*
X178662273Y-28416005D01*
X178739515Y-28448000D01*
X178662273Y-28479995D01*
X178433465Y-28632880D01*
X178238880Y-28827465D01*
X178085995Y-29056273D01*
X177980686Y-29310510D01*
X177927000Y-29580408D01*
X177927000Y-29855592D01*
X177980686Y-30125490D01*
X178085995Y-30379727D01*
X178238880Y-30608535D01*
X178433465Y-30803120D01*
X178662273Y-30956005D01*
X178739515Y-30988000D01*
X178662273Y-31019995D01*
X178433465Y-31172880D01*
X178238880Y-31367465D01*
X178085995Y-31596273D01*
X177980686Y-31850510D01*
X177927000Y-32120408D01*
X177927000Y-32395592D01*
X177980686Y-32665490D01*
X178085995Y-32919727D01*
X178238880Y-33148535D01*
X178433465Y-33343120D01*
X178662273Y-33496005D01*
X178733943Y-33525692D01*
X178720977Y-33530364D01*
X178605020Y-33592344D01*
X178538040Y-33832435D01*
X179324000Y-34618395D01*
X180109960Y-33832435D01*
X180042980Y-33592344D01*
X179907240Y-33528515D01*
X179985727Y-33496005D01*
X180214535Y-33343120D01*
X180409120Y-33148535D01*
X180562005Y-32919727D01*
X180667314Y-32665490D01*
X180721000Y-32395592D01*
X180721000Y-32120408D01*
X180667314Y-31850510D01*
X180562005Y-31596273D01*
X180409120Y-31367465D01*
X180214535Y-31172880D01*
X179985727Y-31019995D01*
X179908485Y-30988000D01*
X179985727Y-30956005D01*
X180214535Y-30803120D01*
X180409120Y-30608535D01*
X180562005Y-30379727D01*
X180667314Y-30125490D01*
X180721000Y-29855592D01*
X180721000Y-29580408D01*
X180667314Y-29310510D01*
X180562005Y-29056273D01*
X180409120Y-28827465D01*
X180214535Y-28632880D01*
X179985727Y-28479995D01*
X179908485Y-28448000D01*
X179985727Y-28416005D01*
X180214535Y-28263120D01*
X180409120Y-28068535D01*
X180562005Y-27839727D01*
X180667314Y-27585490D01*
X180721000Y-27315592D01*
X180721000Y-27040408D01*
X180667314Y-26770510D01*
X180562005Y-26516273D01*
X180409120Y-26287465D01*
X180214535Y-26092880D01*
X179985727Y-25939995D01*
X179908485Y-25908000D01*
X179985727Y-25876005D01*
X180214535Y-25723120D01*
X180409120Y-25528535D01*
X180562005Y-25299727D01*
X180667314Y-25045490D01*
X180721000Y-24775592D01*
X180721000Y-24500408D01*
X180667314Y-24230510D01*
X180562005Y-23976273D01*
X180409120Y-23747465D01*
X180214535Y-23552880D01*
X179985727Y-23399995D01*
X179731490Y-23294686D01*
X179461592Y-23241000D01*
X179186408Y-23241000D01*
X178916510Y-23294686D01*
X178662273Y-23399995D01*
X178433465Y-23552880D01*
X178238880Y-23747465D01*
X178085995Y-23976273D01*
X177980686Y-24230510D01*
X177927000Y-24500408D01*
X160172000Y-24500408D01*
X160172000Y-19202000D01*
X182220001Y-19202000D01*
X182220000Y-44044000D01*
G37*
X182220000Y-44044000D02*
X160172000Y-44044000D01*
X160172000Y-37200408D01*
X177927000Y-37200408D01*
X177927000Y-37475592D01*
X177980686Y-37745490D01*
X178085995Y-37999727D01*
X178238880Y-38228535D01*
X178433465Y-38423120D01*
X178662273Y-38576005D01*
X178916510Y-38681314D01*
X179186408Y-38735000D01*
X179461592Y-38735000D01*
X179731490Y-38681314D01*
X179985727Y-38576005D01*
X180214535Y-38423120D01*
X180409120Y-38228535D01*
X180562005Y-37999727D01*
X180667314Y-37745490D01*
X180721000Y-37475592D01*
X180721000Y-37200408D01*
X180667314Y-36930510D01*
X180562005Y-36676273D01*
X180409120Y-36447465D01*
X180214535Y-36252880D01*
X179985727Y-36099995D01*
X179914057Y-36070308D01*
X179927023Y-36065636D01*
X180042980Y-36003656D01*
X180109960Y-35763565D01*
X179324000Y-34977605D01*
X178538040Y-35763565D01*
X178605020Y-36003656D01*
X178740760Y-36067485D01*
X178662273Y-36099995D01*
X178433465Y-36252880D01*
X178238880Y-36447465D01*
X178085995Y-36676273D01*
X177980686Y-36930510D01*
X177927000Y-37200408D01*
X160172000Y-37200408D01*
X160172000Y-34870017D01*
X177922090Y-34870017D01*
X177963078Y-35142133D01*
X178056364Y-35401023D01*
X178118344Y-35516980D01*
X178358435Y-35583960D01*
X179144395Y-34798000D01*
X179503605Y-34798000D01*
X180289565Y-35583960D01*
X180529656Y-35516980D01*
X180646756Y-35267952D01*
X180713023Y-35000865D01*
X180725910Y-34725983D01*
X180684922Y-34453867D01*
X180591636Y-34194977D01*
X180529656Y-34079020D01*
X180289565Y-34012040D01*
X179503605Y-34798000D01*
X179144395Y-34798000D01*
X178358435Y-34012040D01*
X178118344Y-34079020D01*
X178001244Y-34328048D01*
X177934977Y-34595135D01*
X177922090Y-34870017D01*
X160172000Y-34870017D01*
X160172000Y-30851589D01*
X161988000Y-30851589D01*
X161988000Y-31124411D01*
X162041225Y-31391989D01*
X162145629Y-31644043D01*
X162297201Y-31870886D01*
X162490114Y-32063799D01*
X162716957Y-32215371D01*
X162969011Y-32319775D01*
X163236589Y-32373000D01*
X163509411Y-32373000D01*
X163776989Y-32319775D01*
X164029043Y-32215371D01*
X164255886Y-32063799D01*
X164448799Y-31870886D01*
X164600371Y-31644043D01*
X164704775Y-31391989D01*
X164758000Y-31124411D01*
X164758000Y-30851589D01*
X168988000Y-30851589D01*
X168988000Y-31124411D01*
X169041225Y-31391989D01*
X169145629Y-31644043D01*
X169297201Y-31870886D01*
X169490114Y-32063799D01*
X169716957Y-32215371D01*
X169969011Y-32319775D01*
X170236589Y-32373000D01*
X170509411Y-32373000D01*
X170776989Y-32319775D01*
X171029043Y-32215371D01*
X171255886Y-32063799D01*
X171448799Y-31870886D01*
X171600371Y-31644043D01*
X171704775Y-31391989D01*
X171758000Y-31124411D01*
X171758000Y-30851589D01*
X171704775Y-30584011D01*
X171600371Y-30331957D01*
X171448799Y-30105114D01*
X171255886Y-29912201D01*
X171029043Y-29760629D01*
X170776989Y-29656225D01*
X170509411Y-29603000D01*
X170236589Y-29603000D01*
X169969011Y-29656225D01*
X169716957Y-29760629D01*
X169490114Y-29912201D01*
X169297201Y-30105114D01*
X169145629Y-30331957D01*
X169041225Y-30584011D01*
X168988000Y-30851589D01*
X164758000Y-30851589D01*
X164704775Y-30584011D01*
X164600371Y-30331957D01*
X164448799Y-30105114D01*
X164255886Y-29912201D01*
X164029043Y-29760629D01*
X163776989Y-29656225D01*
X163509411Y-29603000D01*
X163236589Y-29603000D01*
X162969011Y-29656225D01*
X162716957Y-29760629D01*
X162490114Y-29912201D01*
X162297201Y-30105114D01*
X162145629Y-30331957D01*
X162041225Y-30584011D01*
X161988000Y-30851589D01*
X160172000Y-30851589D01*
X160172000Y-24500408D01*
X177927000Y-24500408D01*
X177927000Y-24775592D01*
X177980686Y-25045490D01*
X178085995Y-25299727D01*
X178238880Y-25528535D01*
X178433465Y-25723120D01*
X178662273Y-25876005D01*
X178739515Y-25908000D01*
X178662273Y-25939995D01*
X178433465Y-26092880D01*
X178238880Y-26287465D01*
X178085995Y-26516273D01*
X177980686Y-26770510D01*
X177927000Y-27040408D01*
X177927000Y-27315592D01*
X177980686Y-27585490D01*
X178085995Y-27839727D01*
X178238880Y-28068535D01*
X178433465Y-28263120D01*
X178662273Y-28416005D01*
X178739515Y-28448000D01*
X178662273Y-28479995D01*
X178433465Y-28632880D01*
X178238880Y-28827465D01*
X178085995Y-29056273D01*
X177980686Y-29310510D01*
X177927000Y-29580408D01*
X177927000Y-29855592D01*
X177980686Y-30125490D01*
X178085995Y-30379727D01*
X178238880Y-30608535D01*
X178433465Y-30803120D01*
X178662273Y-30956005D01*
X178739515Y-30988000D01*
X178662273Y-31019995D01*
X178433465Y-31172880D01*
X178238880Y-31367465D01*
X178085995Y-31596273D01*
X177980686Y-31850510D01*
X177927000Y-32120408D01*
X177927000Y-32395592D01*
X177980686Y-32665490D01*
X178085995Y-32919727D01*
X178238880Y-33148535D01*
X178433465Y-33343120D01*
X178662273Y-33496005D01*
X178733943Y-33525692D01*
X178720977Y-33530364D01*
X178605020Y-33592344D01*
X178538040Y-33832435D01*
X179324000Y-34618395D01*
X180109960Y-33832435D01*
X180042980Y-33592344D01*
X179907240Y-33528515D01*
X179985727Y-33496005D01*
X180214535Y-33343120D01*
X180409120Y-33148535D01*
X180562005Y-32919727D01*
X180667314Y-32665490D01*
X180721000Y-32395592D01*
X180721000Y-32120408D01*
X180667314Y-31850510D01*
X180562005Y-31596273D01*
X180409120Y-31367465D01*
X180214535Y-31172880D01*
X179985727Y-31019995D01*
X179908485Y-30988000D01*
X179985727Y-30956005D01*
X180214535Y-30803120D01*
X180409120Y-30608535D01*
X180562005Y-30379727D01*
X180667314Y-30125490D01*
X180721000Y-29855592D01*
X180721000Y-29580408D01*
X180667314Y-29310510D01*
X180562005Y-29056273D01*
X180409120Y-28827465D01*
X180214535Y-28632880D01*
X179985727Y-28479995D01*
X179908485Y-28448000D01*
X179985727Y-28416005D01*
X180214535Y-28263120D01*
X180409120Y-28068535D01*
X180562005Y-27839727D01*
X180667314Y-27585490D01*
X180721000Y-27315592D01*
X180721000Y-27040408D01*
X180667314Y-26770510D01*
X180562005Y-26516273D01*
X180409120Y-26287465D01*
X180214535Y-26092880D01*
X179985727Y-25939995D01*
X179908485Y-25908000D01*
X179985727Y-25876005D01*
X180214535Y-25723120D01*
X180409120Y-25528535D01*
X180562005Y-25299727D01*
X180667314Y-25045490D01*
X180721000Y-24775592D01*
X180721000Y-24500408D01*
X180667314Y-24230510D01*
X180562005Y-23976273D01*
X180409120Y-23747465D01*
X180214535Y-23552880D01*
X179985727Y-23399995D01*
X179731490Y-23294686D01*
X179461592Y-23241000D01*
X179186408Y-23241000D01*
X178916510Y-23294686D01*
X178662273Y-23399995D01*
X178433465Y-23552880D01*
X178238880Y-23747465D01*
X178085995Y-23976273D01*
X177980686Y-24230510D01*
X177927000Y-24500408D01*
X160172000Y-24500408D01*
X160172000Y-19202000D01*
X182220001Y-19202000D01*
X182220000Y-44044000D01*
M02*
