G04 #@! TF.GenerationSoftware,KiCad,Pcbnew,(5.1.5)-3*
G04 #@! TF.CreationDate,2020-12-21T12:30:49+01:00*
G04 #@! TF.ProjectId,epimetheus_ina219,6570696d-6574-4686-9575-735f696e6132,rev?*
G04 #@! TF.SameCoordinates,Original*
G04 #@! TF.FileFunction,Legend,Bot*
G04 #@! TF.FilePolarity,Positive*
%FSLAX46Y46*%
G04 Gerber Fmt 4.6, Leading zero omitted, Abs format (unit mm)*
G04 Created by KiCad (PCBNEW (5.1.5)-3) date 2020-12-21 12:30:49*
%MOMM*%
%LPD*%
G04 APERTURE LIST*
%ADD10C,0.150000*%
%ADD11C,0.010000*%
G04 APERTURE END LIST*
D10*
X181744761Y-20280380D02*
X181649523Y-20280380D01*
X181554285Y-20328000D01*
X181506666Y-20375619D01*
X181459047Y-20470857D01*
X181411428Y-20661333D01*
X181411428Y-20899428D01*
X181459047Y-21089904D01*
X181506666Y-21185142D01*
X181554285Y-21232761D01*
X181649523Y-21280380D01*
X181744761Y-21280380D01*
X181840000Y-21232761D01*
X181887619Y-21185142D01*
X181935238Y-21089904D01*
X181982857Y-20899428D01*
X181982857Y-20661333D01*
X181935238Y-20470857D01*
X181887619Y-20375619D01*
X181840000Y-20328000D01*
X181744761Y-20280380D01*
X181078095Y-21280380D02*
X180554285Y-20613714D01*
X181078095Y-20613714D02*
X180554285Y-21280380D01*
X179744761Y-20613714D02*
X179744761Y-21280380D01*
X179982857Y-20232761D02*
X180220952Y-20947047D01*
X179601904Y-20947047D01*
X179030476Y-20280380D02*
X178935238Y-20280380D01*
X178840000Y-20328000D01*
X178792380Y-20375619D01*
X178744761Y-20470857D01*
X178697142Y-20661333D01*
X178697142Y-20899428D01*
X178744761Y-21089904D01*
X178792380Y-21185142D01*
X178840000Y-21232761D01*
X178935238Y-21280380D01*
X179030476Y-21280380D01*
X179125714Y-21232761D01*
X179173333Y-21185142D01*
X179220952Y-21089904D01*
X179268571Y-20899428D01*
X179268571Y-20661333D01*
X179220952Y-20470857D01*
X179173333Y-20375619D01*
X179125714Y-20328000D01*
X179030476Y-20280380D01*
X182212952Y-19756380D02*
X182212952Y-18756380D01*
X181736761Y-19756380D02*
X181736761Y-18756380D01*
X181165333Y-19756380D01*
X181165333Y-18756380D01*
X180736761Y-19470666D02*
X180260571Y-19470666D01*
X180832000Y-19756380D02*
X180498666Y-18756380D01*
X180165333Y-19756380D01*
X179879619Y-18851619D02*
X179832000Y-18804000D01*
X179736761Y-18756380D01*
X179498666Y-18756380D01*
X179403428Y-18804000D01*
X179355809Y-18851619D01*
X179308190Y-18946857D01*
X179308190Y-19042095D01*
X179355809Y-19184952D01*
X179927238Y-19756380D01*
X179308190Y-19756380D01*
X178355809Y-19756380D02*
X178927238Y-19756380D01*
X178641523Y-19756380D02*
X178641523Y-18756380D01*
X178736761Y-18899238D01*
X178832000Y-18994476D01*
X178927238Y-19042095D01*
X177879619Y-19756380D02*
X177689142Y-19756380D01*
X177593904Y-19708761D01*
X177546285Y-19661142D01*
X177451047Y-19518285D01*
X177403428Y-19327809D01*
X177403428Y-18946857D01*
X177451047Y-18851619D01*
X177498666Y-18804000D01*
X177593904Y-18756380D01*
X177784380Y-18756380D01*
X177879619Y-18804000D01*
X177927238Y-18851619D01*
X177974857Y-18946857D01*
X177974857Y-19184952D01*
X177927238Y-19280190D01*
X177879619Y-19327809D01*
X177784380Y-19375428D01*
X177593904Y-19375428D01*
X177498666Y-19327809D01*
X177451047Y-19280190D01*
X177403428Y-19184952D01*
D11*
G36*
X174995764Y-20838490D02*
G01*
X174980869Y-20879797D01*
X174980600Y-20891500D01*
X174991091Y-20939836D01*
X175032398Y-20954731D01*
X175044100Y-20955000D01*
X175092437Y-20944509D01*
X175107332Y-20903202D01*
X175107600Y-20891500D01*
X175097110Y-20843163D01*
X175055803Y-20828268D01*
X175044100Y-20828000D01*
X174995764Y-20838490D01*
G37*
X174995764Y-20838490D02*
X174980869Y-20879797D01*
X174980600Y-20891500D01*
X174991091Y-20939836D01*
X175032398Y-20954731D01*
X175044100Y-20955000D01*
X175092437Y-20944509D01*
X175107332Y-20903202D01*
X175107600Y-20891500D01*
X175097110Y-20843163D01*
X175055803Y-20828268D01*
X175044100Y-20828000D01*
X174995764Y-20838490D01*
G36*
X174817964Y-21016290D02*
G01*
X174803069Y-21057597D01*
X174802800Y-21069300D01*
X174813291Y-21117636D01*
X174854598Y-21132531D01*
X174866300Y-21132800D01*
X174914637Y-21122309D01*
X174929532Y-21081002D01*
X174929800Y-21069300D01*
X174919310Y-21020963D01*
X174878003Y-21006068D01*
X174866300Y-21005800D01*
X174817964Y-21016290D01*
G37*
X174817964Y-21016290D02*
X174803069Y-21057597D01*
X174802800Y-21069300D01*
X174813291Y-21117636D01*
X174854598Y-21132531D01*
X174866300Y-21132800D01*
X174914637Y-21122309D01*
X174929532Y-21081002D01*
X174929800Y-21069300D01*
X174919310Y-21020963D01*
X174878003Y-21006068D01*
X174866300Y-21005800D01*
X174817964Y-21016290D01*
G36*
X175173564Y-21016290D02*
G01*
X175158669Y-21057597D01*
X175158400Y-21069300D01*
X175168891Y-21117636D01*
X175210198Y-21132531D01*
X175221900Y-21132800D01*
X175270237Y-21122309D01*
X175285132Y-21081002D01*
X175285400Y-21069300D01*
X175274910Y-21020963D01*
X175233603Y-21006068D01*
X175221900Y-21005800D01*
X175173564Y-21016290D01*
G37*
X175173564Y-21016290D02*
X175158669Y-21057597D01*
X175158400Y-21069300D01*
X175168891Y-21117636D01*
X175210198Y-21132531D01*
X175221900Y-21132800D01*
X175270237Y-21122309D01*
X175285132Y-21081002D01*
X175285400Y-21069300D01*
X175274910Y-21020963D01*
X175233603Y-21006068D01*
X175221900Y-21005800D01*
X175173564Y-21016290D01*
G36*
X174640164Y-21194090D02*
G01*
X174625269Y-21235397D01*
X174625000Y-21247100D01*
X174635491Y-21295436D01*
X174676798Y-21310331D01*
X174688500Y-21310600D01*
X174736837Y-21300109D01*
X174751732Y-21258802D01*
X174752000Y-21247100D01*
X174741510Y-21198763D01*
X174700203Y-21183868D01*
X174688500Y-21183600D01*
X174640164Y-21194090D01*
G37*
X174640164Y-21194090D02*
X174625269Y-21235397D01*
X174625000Y-21247100D01*
X174635491Y-21295436D01*
X174676798Y-21310331D01*
X174688500Y-21310600D01*
X174736837Y-21300109D01*
X174751732Y-21258802D01*
X174752000Y-21247100D01*
X174741510Y-21198763D01*
X174700203Y-21183868D01*
X174688500Y-21183600D01*
X174640164Y-21194090D01*
G36*
X175351364Y-21194090D02*
G01*
X175336469Y-21235397D01*
X175336200Y-21247100D01*
X175346691Y-21295436D01*
X175387998Y-21310331D01*
X175399700Y-21310600D01*
X175448037Y-21300109D01*
X175462932Y-21258802D01*
X175463200Y-21247100D01*
X175452710Y-21198763D01*
X175411403Y-21183868D01*
X175399700Y-21183600D01*
X175351364Y-21194090D01*
G37*
X175351364Y-21194090D02*
X175336469Y-21235397D01*
X175336200Y-21247100D01*
X175346691Y-21295436D01*
X175387998Y-21310331D01*
X175399700Y-21310600D01*
X175448037Y-21300109D01*
X175462932Y-21258802D01*
X175463200Y-21247100D01*
X175452710Y-21198763D01*
X175411403Y-21183868D01*
X175399700Y-21183600D01*
X175351364Y-21194090D01*
G36*
X175859364Y-21194090D02*
G01*
X175844469Y-21235397D01*
X175844200Y-21247100D01*
X175854691Y-21295436D01*
X175895998Y-21310331D01*
X175907700Y-21310600D01*
X175956037Y-21300109D01*
X175970932Y-21258802D01*
X175971200Y-21247100D01*
X175960710Y-21198763D01*
X175919403Y-21183868D01*
X175907700Y-21183600D01*
X175859364Y-21194090D01*
G37*
X175859364Y-21194090D02*
X175844469Y-21235397D01*
X175844200Y-21247100D01*
X175854691Y-21295436D01*
X175895998Y-21310331D01*
X175907700Y-21310600D01*
X175956037Y-21300109D01*
X175970932Y-21258802D01*
X175971200Y-21247100D01*
X175960710Y-21198763D01*
X175919403Y-21183868D01*
X175907700Y-21183600D01*
X175859364Y-21194090D01*
G36*
X176037164Y-21194090D02*
G01*
X176022269Y-21235397D01*
X176022000Y-21247100D01*
X176032491Y-21295436D01*
X176073798Y-21310331D01*
X176085500Y-21310600D01*
X176133837Y-21300109D01*
X176148732Y-21258802D01*
X176149000Y-21247100D01*
X176138510Y-21198763D01*
X176097203Y-21183868D01*
X176085500Y-21183600D01*
X176037164Y-21194090D01*
G37*
X176037164Y-21194090D02*
X176022269Y-21235397D01*
X176022000Y-21247100D01*
X176032491Y-21295436D01*
X176073798Y-21310331D01*
X176085500Y-21310600D01*
X176133837Y-21300109D01*
X176148732Y-21258802D01*
X176149000Y-21247100D01*
X176138510Y-21198763D01*
X176097203Y-21183868D01*
X176085500Y-21183600D01*
X176037164Y-21194090D01*
G36*
X176392764Y-21194090D02*
G01*
X176377869Y-21235397D01*
X176377600Y-21247100D01*
X176388091Y-21295436D01*
X176429398Y-21310331D01*
X176441100Y-21310600D01*
X176489437Y-21300109D01*
X176504332Y-21258802D01*
X176504600Y-21247100D01*
X176494110Y-21198763D01*
X176452803Y-21183868D01*
X176441100Y-21183600D01*
X176392764Y-21194090D01*
G37*
X176392764Y-21194090D02*
X176377869Y-21235397D01*
X176377600Y-21247100D01*
X176388091Y-21295436D01*
X176429398Y-21310331D01*
X176441100Y-21310600D01*
X176489437Y-21300109D01*
X176504332Y-21258802D01*
X176504600Y-21247100D01*
X176494110Y-21198763D01*
X176452803Y-21183868D01*
X176441100Y-21183600D01*
X176392764Y-21194090D01*
G36*
X176570564Y-21194090D02*
G01*
X176555669Y-21235397D01*
X176555400Y-21247100D01*
X176565891Y-21295436D01*
X176607198Y-21310331D01*
X176618900Y-21310600D01*
X176667237Y-21300109D01*
X176682132Y-21258802D01*
X176682400Y-21247100D01*
X176671910Y-21198763D01*
X176630603Y-21183868D01*
X176618900Y-21183600D01*
X176570564Y-21194090D01*
G37*
X176570564Y-21194090D02*
X176555669Y-21235397D01*
X176555400Y-21247100D01*
X176565891Y-21295436D01*
X176607198Y-21310331D01*
X176618900Y-21310600D01*
X176667237Y-21300109D01*
X176682132Y-21258802D01*
X176682400Y-21247100D01*
X176671910Y-21198763D01*
X176630603Y-21183868D01*
X176618900Y-21183600D01*
X176570564Y-21194090D01*
G36*
X176744165Y-21198482D02*
G01*
X176733200Y-21247100D01*
X176745107Y-21296894D01*
X176784000Y-21310600D01*
X176823836Y-21295717D01*
X176834800Y-21247100D01*
X176822894Y-21197305D01*
X176784000Y-21183600D01*
X176744165Y-21198482D01*
G37*
X176744165Y-21198482D02*
X176733200Y-21247100D01*
X176745107Y-21296894D01*
X176784000Y-21310600D01*
X176823836Y-21295717D01*
X176834800Y-21247100D01*
X176822894Y-21197305D01*
X176784000Y-21183600D01*
X176744165Y-21198482D01*
G36*
X174640164Y-21371890D02*
G01*
X174625269Y-21413197D01*
X174625000Y-21424900D01*
X174635491Y-21473236D01*
X174676798Y-21488131D01*
X174688500Y-21488400D01*
X174736837Y-21477909D01*
X174751732Y-21436602D01*
X174752000Y-21424900D01*
X174741510Y-21376563D01*
X174700203Y-21361668D01*
X174688500Y-21361400D01*
X174640164Y-21371890D01*
G37*
X174640164Y-21371890D02*
X174625269Y-21413197D01*
X174625000Y-21424900D01*
X174635491Y-21473236D01*
X174676798Y-21488131D01*
X174688500Y-21488400D01*
X174736837Y-21477909D01*
X174751732Y-21436602D01*
X174752000Y-21424900D01*
X174741510Y-21376563D01*
X174700203Y-21361668D01*
X174688500Y-21361400D01*
X174640164Y-21371890D01*
G36*
X175351364Y-21371890D02*
G01*
X175336469Y-21413197D01*
X175336200Y-21424900D01*
X175346691Y-21473236D01*
X175387998Y-21488131D01*
X175399700Y-21488400D01*
X175448037Y-21477909D01*
X175462932Y-21436602D01*
X175463200Y-21424900D01*
X175452710Y-21376563D01*
X175411403Y-21361668D01*
X175399700Y-21361400D01*
X175351364Y-21371890D01*
G37*
X175351364Y-21371890D02*
X175336469Y-21413197D01*
X175336200Y-21424900D01*
X175346691Y-21473236D01*
X175387998Y-21488131D01*
X175399700Y-21488400D01*
X175448037Y-21477909D01*
X175462932Y-21436602D01*
X175463200Y-21424900D01*
X175452710Y-21376563D01*
X175411403Y-21361668D01*
X175399700Y-21361400D01*
X175351364Y-21371890D01*
G36*
X175680561Y-21369691D02*
G01*
X175669384Y-21403165D01*
X175670984Y-21418550D01*
X175699908Y-21469899D01*
X175736250Y-21483816D01*
X175778938Y-21480409D01*
X175792888Y-21444163D01*
X175793400Y-21426666D01*
X175783666Y-21377551D01*
X175744277Y-21361881D01*
X175728134Y-21361400D01*
X175680561Y-21369691D01*
G37*
X175680561Y-21369691D02*
X175669384Y-21403165D01*
X175670984Y-21418550D01*
X175699908Y-21469899D01*
X175736250Y-21483816D01*
X175778938Y-21480409D01*
X175792888Y-21444163D01*
X175793400Y-21426666D01*
X175783666Y-21377551D01*
X175744277Y-21361881D01*
X175728134Y-21361400D01*
X175680561Y-21369691D01*
G36*
X176214964Y-21371890D02*
G01*
X176200069Y-21413197D01*
X176199800Y-21424900D01*
X176210291Y-21473236D01*
X176251598Y-21488131D01*
X176263300Y-21488400D01*
X176311637Y-21477909D01*
X176326532Y-21436602D01*
X176326800Y-21424900D01*
X176316310Y-21376563D01*
X176275003Y-21361668D01*
X176263300Y-21361400D01*
X176214964Y-21371890D01*
G37*
X176214964Y-21371890D02*
X176200069Y-21413197D01*
X176199800Y-21424900D01*
X176210291Y-21473236D01*
X176251598Y-21488131D01*
X176263300Y-21488400D01*
X176311637Y-21477909D01*
X176326532Y-21436602D01*
X176326800Y-21424900D01*
X176316310Y-21376563D01*
X176275003Y-21361668D01*
X176263300Y-21361400D01*
X176214964Y-21371890D01*
G36*
X176744165Y-21376282D02*
G01*
X176733200Y-21424900D01*
X176745107Y-21474694D01*
X176784000Y-21488400D01*
X176823836Y-21473517D01*
X176834800Y-21424900D01*
X176822894Y-21375105D01*
X176784000Y-21361400D01*
X176744165Y-21376282D01*
G37*
X176744165Y-21376282D02*
X176733200Y-21424900D01*
X176745107Y-21474694D01*
X176784000Y-21488400D01*
X176823836Y-21473517D01*
X176834800Y-21424900D01*
X176822894Y-21375105D01*
X176784000Y-21361400D01*
X176744165Y-21376282D01*
G36*
X174638706Y-21551106D02*
G01*
X174625000Y-21590000D01*
X174639883Y-21629835D01*
X174688500Y-21640800D01*
X174738295Y-21628893D01*
X174752000Y-21590000D01*
X174737118Y-21550164D01*
X174688500Y-21539200D01*
X174638706Y-21551106D01*
G37*
X174638706Y-21551106D02*
X174625000Y-21590000D01*
X174639883Y-21629835D01*
X174688500Y-21640800D01*
X174738295Y-21628893D01*
X174752000Y-21590000D01*
X174737118Y-21550164D01*
X174688500Y-21539200D01*
X174638706Y-21551106D01*
G36*
X174816506Y-21551106D02*
G01*
X174802800Y-21590000D01*
X174817683Y-21629835D01*
X174866300Y-21640800D01*
X174916095Y-21628893D01*
X174929800Y-21590000D01*
X174914918Y-21550164D01*
X174866300Y-21539200D01*
X174816506Y-21551106D01*
G37*
X174816506Y-21551106D02*
X174802800Y-21590000D01*
X174817683Y-21629835D01*
X174866300Y-21640800D01*
X174916095Y-21628893D01*
X174929800Y-21590000D01*
X174914918Y-21550164D01*
X174866300Y-21539200D01*
X174816506Y-21551106D01*
G36*
X174994306Y-21551106D02*
G01*
X174980600Y-21590000D01*
X174995483Y-21629835D01*
X175044100Y-21640800D01*
X175093895Y-21628893D01*
X175107600Y-21590000D01*
X175092718Y-21550164D01*
X175044100Y-21539200D01*
X174994306Y-21551106D01*
G37*
X174994306Y-21551106D02*
X174980600Y-21590000D01*
X174995483Y-21629835D01*
X175044100Y-21640800D01*
X175093895Y-21628893D01*
X175107600Y-21590000D01*
X175092718Y-21550164D01*
X175044100Y-21539200D01*
X174994306Y-21551106D01*
G36*
X175172106Y-21551106D02*
G01*
X175158400Y-21590000D01*
X175173283Y-21629835D01*
X175221900Y-21640800D01*
X175271695Y-21628893D01*
X175285400Y-21590000D01*
X175270518Y-21550164D01*
X175221900Y-21539200D01*
X175172106Y-21551106D01*
G37*
X175172106Y-21551106D02*
X175158400Y-21590000D01*
X175173283Y-21629835D01*
X175221900Y-21640800D01*
X175271695Y-21628893D01*
X175285400Y-21590000D01*
X175270518Y-21550164D01*
X175221900Y-21539200D01*
X175172106Y-21551106D01*
G36*
X175349906Y-21551106D02*
G01*
X175336200Y-21590000D01*
X175351083Y-21629835D01*
X175399700Y-21640800D01*
X175449495Y-21628893D01*
X175463200Y-21590000D01*
X175448318Y-21550164D01*
X175399700Y-21539200D01*
X175349906Y-21551106D01*
G37*
X175349906Y-21551106D02*
X175336200Y-21590000D01*
X175351083Y-21629835D01*
X175399700Y-21640800D01*
X175449495Y-21628893D01*
X175463200Y-21590000D01*
X175448318Y-21550164D01*
X175399700Y-21539200D01*
X175349906Y-21551106D01*
G36*
X175680106Y-21551106D02*
G01*
X175666400Y-21590000D01*
X175681283Y-21629835D01*
X175729900Y-21640800D01*
X175779695Y-21628893D01*
X175793400Y-21590000D01*
X175778518Y-21550164D01*
X175729900Y-21539200D01*
X175680106Y-21551106D01*
G37*
X175680106Y-21551106D02*
X175666400Y-21590000D01*
X175681283Y-21629835D01*
X175729900Y-21640800D01*
X175779695Y-21628893D01*
X175793400Y-21590000D01*
X175778518Y-21550164D01*
X175729900Y-21539200D01*
X175680106Y-21551106D01*
G36*
X176213506Y-21551106D02*
G01*
X176199800Y-21590000D01*
X176214683Y-21629835D01*
X176263300Y-21640800D01*
X176313095Y-21628893D01*
X176326800Y-21590000D01*
X176311918Y-21550164D01*
X176263300Y-21539200D01*
X176213506Y-21551106D01*
G37*
X176213506Y-21551106D02*
X176199800Y-21590000D01*
X176214683Y-21629835D01*
X176263300Y-21640800D01*
X176313095Y-21628893D01*
X176326800Y-21590000D01*
X176311918Y-21550164D01*
X176263300Y-21539200D01*
X176213506Y-21551106D01*
G36*
X176741549Y-21557160D02*
G01*
X176733200Y-21590000D01*
X176751161Y-21632451D01*
X176784000Y-21640800D01*
X176826452Y-21622839D01*
X176834800Y-21590000D01*
X176816840Y-21547548D01*
X176784000Y-21539200D01*
X176741549Y-21557160D01*
G37*
X176741549Y-21557160D02*
X176733200Y-21590000D01*
X176751161Y-21632451D01*
X176784000Y-21640800D01*
X176826452Y-21622839D01*
X176834800Y-21590000D01*
X176816840Y-21547548D01*
X176784000Y-21539200D01*
X176741549Y-21557160D01*
G36*
X174640164Y-21702090D02*
G01*
X174625269Y-21743397D01*
X174625000Y-21755100D01*
X174635491Y-21803436D01*
X174676798Y-21818331D01*
X174688500Y-21818600D01*
X174736837Y-21808109D01*
X174751732Y-21766802D01*
X174752000Y-21755100D01*
X174741510Y-21706763D01*
X174700203Y-21691868D01*
X174688500Y-21691600D01*
X174640164Y-21702090D01*
G37*
X174640164Y-21702090D02*
X174625269Y-21743397D01*
X174625000Y-21755100D01*
X174635491Y-21803436D01*
X174676798Y-21818331D01*
X174688500Y-21818600D01*
X174736837Y-21808109D01*
X174751732Y-21766802D01*
X174752000Y-21755100D01*
X174741510Y-21706763D01*
X174700203Y-21691868D01*
X174688500Y-21691600D01*
X174640164Y-21702090D01*
G36*
X175350663Y-21699590D02*
G01*
X175336713Y-21735836D01*
X175336200Y-21753333D01*
X175345935Y-21802448D01*
X175385324Y-21818118D01*
X175401467Y-21818600D01*
X175449040Y-21810308D01*
X175460217Y-21776834D01*
X175458617Y-21761450D01*
X175429693Y-21710100D01*
X175393350Y-21696183D01*
X175350663Y-21699590D01*
G37*
X175350663Y-21699590D02*
X175336713Y-21735836D01*
X175336200Y-21753333D01*
X175345935Y-21802448D01*
X175385324Y-21818118D01*
X175401467Y-21818600D01*
X175449040Y-21810308D01*
X175460217Y-21776834D01*
X175458617Y-21761450D01*
X175429693Y-21710100D01*
X175393350Y-21696183D01*
X175350663Y-21699590D01*
G36*
X175736250Y-21696183D02*
G01*
X175684901Y-21725107D01*
X175670984Y-21761450D01*
X175674391Y-21804137D01*
X175710637Y-21818087D01*
X175728134Y-21818600D01*
X175777249Y-21808865D01*
X175792919Y-21769476D01*
X175793400Y-21753333D01*
X175785109Y-21705760D01*
X175751635Y-21694583D01*
X175736250Y-21696183D01*
G37*
X175736250Y-21696183D02*
X175684901Y-21725107D01*
X175670984Y-21761450D01*
X175674391Y-21804137D01*
X175710637Y-21818087D01*
X175728134Y-21818600D01*
X175777249Y-21808865D01*
X175792919Y-21769476D01*
X175793400Y-21753333D01*
X175785109Y-21705760D01*
X175751635Y-21694583D01*
X175736250Y-21696183D01*
G36*
X176214964Y-21702090D02*
G01*
X176200069Y-21743397D01*
X176199800Y-21755100D01*
X176210291Y-21803436D01*
X176251598Y-21818331D01*
X176263300Y-21818600D01*
X176311637Y-21808109D01*
X176326532Y-21766802D01*
X176326800Y-21755100D01*
X176316310Y-21706763D01*
X176275003Y-21691868D01*
X176263300Y-21691600D01*
X176214964Y-21702090D01*
G37*
X176214964Y-21702090D02*
X176200069Y-21743397D01*
X176199800Y-21755100D01*
X176210291Y-21803436D01*
X176251598Y-21818331D01*
X176263300Y-21818600D01*
X176311637Y-21808109D01*
X176326532Y-21766802D01*
X176326800Y-21755100D01*
X176316310Y-21706763D01*
X176275003Y-21691868D01*
X176263300Y-21691600D01*
X176214964Y-21702090D01*
G36*
X176744165Y-21706482D02*
G01*
X176733200Y-21755100D01*
X176745107Y-21804894D01*
X176784000Y-21818600D01*
X176823836Y-21803717D01*
X176834800Y-21755100D01*
X176822894Y-21705305D01*
X176784000Y-21691600D01*
X176744165Y-21706482D01*
G37*
X176744165Y-21706482D02*
X176733200Y-21755100D01*
X176745107Y-21804894D01*
X176784000Y-21818600D01*
X176823836Y-21803717D01*
X176834800Y-21755100D01*
X176822894Y-21705305D01*
X176784000Y-21691600D01*
X176744165Y-21706482D01*
G36*
X174640164Y-21879890D02*
G01*
X174625269Y-21921197D01*
X174625000Y-21932900D01*
X174635491Y-21981236D01*
X174676798Y-21996131D01*
X174688500Y-21996400D01*
X174736837Y-21985909D01*
X174751732Y-21944602D01*
X174752000Y-21932900D01*
X174741510Y-21884563D01*
X174700203Y-21869668D01*
X174688500Y-21869400D01*
X174640164Y-21879890D01*
G37*
X174640164Y-21879890D02*
X174625269Y-21921197D01*
X174625000Y-21932900D01*
X174635491Y-21981236D01*
X174676798Y-21996131D01*
X174688500Y-21996400D01*
X174736837Y-21985909D01*
X174751732Y-21944602D01*
X174752000Y-21932900D01*
X174741510Y-21884563D01*
X174700203Y-21869668D01*
X174688500Y-21869400D01*
X174640164Y-21879890D01*
G36*
X175351364Y-21879890D02*
G01*
X175336469Y-21921197D01*
X175336200Y-21932900D01*
X175346691Y-21981236D01*
X175387998Y-21996131D01*
X175399700Y-21996400D01*
X175448037Y-21985909D01*
X175462932Y-21944602D01*
X175463200Y-21932900D01*
X175452710Y-21884563D01*
X175411403Y-21869668D01*
X175399700Y-21869400D01*
X175351364Y-21879890D01*
G37*
X175351364Y-21879890D02*
X175336469Y-21921197D01*
X175336200Y-21932900D01*
X175346691Y-21981236D01*
X175387998Y-21996131D01*
X175399700Y-21996400D01*
X175448037Y-21985909D01*
X175462932Y-21944602D01*
X175463200Y-21932900D01*
X175452710Y-21884563D01*
X175411403Y-21869668D01*
X175399700Y-21869400D01*
X175351364Y-21879890D01*
G36*
X175681564Y-21879890D02*
G01*
X175666669Y-21921197D01*
X175666400Y-21932900D01*
X175676891Y-21981236D01*
X175718198Y-21996131D01*
X175729900Y-21996400D01*
X175778237Y-21985909D01*
X175793132Y-21944602D01*
X175793400Y-21932900D01*
X175782910Y-21884563D01*
X175741603Y-21869668D01*
X175729900Y-21869400D01*
X175681564Y-21879890D01*
G37*
X175681564Y-21879890D02*
X175666669Y-21921197D01*
X175666400Y-21932900D01*
X175676891Y-21981236D01*
X175718198Y-21996131D01*
X175729900Y-21996400D01*
X175778237Y-21985909D01*
X175793132Y-21944602D01*
X175793400Y-21932900D01*
X175782910Y-21884563D01*
X175741603Y-21869668D01*
X175729900Y-21869400D01*
X175681564Y-21879890D01*
G36*
X176214964Y-21879890D02*
G01*
X176200069Y-21921197D01*
X176199800Y-21932900D01*
X176210291Y-21981236D01*
X176251598Y-21996131D01*
X176263300Y-21996400D01*
X176311637Y-21985909D01*
X176326532Y-21944602D01*
X176326800Y-21932900D01*
X176316310Y-21884563D01*
X176275003Y-21869668D01*
X176263300Y-21869400D01*
X176214964Y-21879890D01*
G37*
X176214964Y-21879890D02*
X176200069Y-21921197D01*
X176199800Y-21932900D01*
X176210291Y-21981236D01*
X176251598Y-21996131D01*
X176263300Y-21996400D01*
X176311637Y-21985909D01*
X176326532Y-21944602D01*
X176326800Y-21932900D01*
X176316310Y-21884563D01*
X176275003Y-21869668D01*
X176263300Y-21869400D01*
X176214964Y-21879890D01*
G36*
X176744165Y-21884282D02*
G01*
X176733200Y-21932900D01*
X176745107Y-21982694D01*
X176784000Y-21996400D01*
X176823836Y-21981517D01*
X176834800Y-21932900D01*
X176822894Y-21883105D01*
X176784000Y-21869400D01*
X176744165Y-21884282D01*
G37*
X176744165Y-21884282D02*
X176733200Y-21932900D01*
X176745107Y-21982694D01*
X176784000Y-21996400D01*
X176823836Y-21981517D01*
X176834800Y-21932900D01*
X176822894Y-21883105D01*
X176784000Y-21869400D01*
X176744165Y-21884282D01*
G36*
X175235388Y-22530546D02*
G01*
X175175019Y-22534851D01*
X175144738Y-22545811D01*
X175134190Y-22566525D01*
X175133000Y-22590582D01*
X175147986Y-22643594D01*
X175173178Y-22666782D01*
X175224264Y-22675620D01*
X175304648Y-22679587D01*
X175393380Y-22678772D01*
X175469508Y-22673262D01*
X175507650Y-22665378D01*
X175532201Y-22632900D01*
X175539400Y-22591183D01*
X175536982Y-22560732D01*
X175522820Y-22542497D01*
X175486557Y-22533351D01*
X175417836Y-22530162D01*
X175336200Y-22529800D01*
X175235388Y-22530546D01*
G37*
X175235388Y-22530546D02*
X175175019Y-22534851D01*
X175144738Y-22545811D01*
X175134190Y-22566525D01*
X175133000Y-22590582D01*
X175147986Y-22643594D01*
X175173178Y-22666782D01*
X175224264Y-22675620D01*
X175304648Y-22679587D01*
X175393380Y-22678772D01*
X175469508Y-22673262D01*
X175507650Y-22665378D01*
X175532201Y-22632900D01*
X175539400Y-22591183D01*
X175536982Y-22560732D01*
X175522820Y-22542497D01*
X175486557Y-22533351D01*
X175417836Y-22530162D01*
X175336200Y-22529800D01*
X175235388Y-22530546D01*
G36*
X175056986Y-23586738D02*
G01*
X175027603Y-23615981D01*
X175001152Y-23658641D01*
X174973013Y-23713488D01*
X174968825Y-23721775D01*
X174918401Y-23844637D01*
X174907206Y-23936511D01*
X174935297Y-23996847D01*
X174938906Y-24000016D01*
X174976435Y-24025098D01*
X175050790Y-24069769D01*
X175155771Y-24130617D01*
X175285180Y-24204230D01*
X175432816Y-24287197D01*
X175592482Y-24376107D01*
X175757977Y-24467548D01*
X175923104Y-24558108D01*
X176081662Y-24644376D01*
X176227454Y-24722941D01*
X176354279Y-24790390D01*
X176455940Y-24843313D01*
X176526236Y-24878298D01*
X176558969Y-24891933D01*
X176559722Y-24892000D01*
X176609582Y-24874447D01*
X176651791Y-24840940D01*
X176690057Y-24788366D01*
X176734871Y-24710935D01*
X176758130Y-24664404D01*
X176790978Y-24589579D01*
X176802190Y-24542758D01*
X176793578Y-24506883D01*
X176777645Y-24480514D01*
X176746723Y-24454688D01*
X176676520Y-24407664D01*
X176572323Y-24342627D01*
X176439418Y-24262762D01*
X176283091Y-24171253D01*
X176108628Y-24071284D01*
X175952071Y-23983181D01*
X175732891Y-23860872D01*
X175553608Y-23761807D01*
X175409601Y-23684757D01*
X175296250Y-23628494D01*
X175208933Y-23591788D01*
X175143030Y-23573413D01*
X175093921Y-23572139D01*
X175056986Y-23586738D01*
G37*
X175056986Y-23586738D02*
X175027603Y-23615981D01*
X175001152Y-23658641D01*
X174973013Y-23713488D01*
X174968825Y-23721775D01*
X174918401Y-23844637D01*
X174907206Y-23936511D01*
X174935297Y-23996847D01*
X174938906Y-24000016D01*
X174976435Y-24025098D01*
X175050790Y-24069769D01*
X175155771Y-24130617D01*
X175285180Y-24204230D01*
X175432816Y-24287197D01*
X175592482Y-24376107D01*
X175757977Y-24467548D01*
X175923104Y-24558108D01*
X176081662Y-24644376D01*
X176227454Y-24722941D01*
X176354279Y-24790390D01*
X176455940Y-24843313D01*
X176526236Y-24878298D01*
X176558969Y-24891933D01*
X176559722Y-24892000D01*
X176609582Y-24874447D01*
X176651791Y-24840940D01*
X176690057Y-24788366D01*
X176734871Y-24710935D01*
X176758130Y-24664404D01*
X176790978Y-24589579D01*
X176802190Y-24542758D01*
X176793578Y-24506883D01*
X176777645Y-24480514D01*
X176746723Y-24454688D01*
X176676520Y-24407664D01*
X176572323Y-24342627D01*
X176439418Y-24262762D01*
X176283091Y-24171253D01*
X176108628Y-24071284D01*
X175952071Y-23983181D01*
X175732891Y-23860872D01*
X175553608Y-23761807D01*
X175409601Y-23684757D01*
X175296250Y-23628494D01*
X175208933Y-23591788D01*
X175143030Y-23573413D01*
X175093921Y-23572139D01*
X175056986Y-23586738D01*
G36*
X175436701Y-20256546D02*
G01*
X175139838Y-20256751D01*
X174886447Y-20257209D01*
X174672863Y-20258016D01*
X174495424Y-20259267D01*
X174350465Y-20261059D01*
X174234322Y-20263487D01*
X174143331Y-20266646D01*
X174073828Y-20270633D01*
X174022149Y-20275542D01*
X173984631Y-20281470D01*
X173957608Y-20288513D01*
X173937418Y-20296765D01*
X173922545Y-20305012D01*
X173856927Y-20360098D01*
X173797880Y-20433736D01*
X173789195Y-20448170D01*
X173780727Y-20463775D01*
X173773210Y-20480672D01*
X173766586Y-20501813D01*
X173760799Y-20530153D01*
X173755792Y-20568644D01*
X173751509Y-20620239D01*
X173747893Y-20687893D01*
X173744888Y-20774558D01*
X173742438Y-20883187D01*
X173740485Y-21016735D01*
X173738973Y-21178153D01*
X173737846Y-21370396D01*
X173737048Y-21596416D01*
X173736521Y-21859167D01*
X173736209Y-22161603D01*
X173736056Y-22506676D01*
X173736005Y-22897340D01*
X173736000Y-23228300D01*
X173736011Y-23655778D01*
X173736081Y-24035410D01*
X173736266Y-24370148D01*
X173736624Y-24662947D01*
X173737210Y-24916758D01*
X173738081Y-25134536D01*
X173739293Y-25319234D01*
X173740904Y-25473804D01*
X173742969Y-25601201D01*
X173745546Y-25704377D01*
X173748690Y-25786287D01*
X173752458Y-25849882D01*
X173756907Y-25898117D01*
X173762093Y-25933944D01*
X173768073Y-25960318D01*
X173774903Y-25980190D01*
X173782639Y-25996516D01*
X173789195Y-26008429D01*
X173843782Y-26082389D01*
X173910189Y-26143432D01*
X173922545Y-26151587D01*
X173940087Y-26161105D01*
X173961449Y-26169308D01*
X173990352Y-26176303D01*
X174030518Y-26182199D01*
X174085669Y-26187106D01*
X174159526Y-26191131D01*
X174255810Y-26194382D01*
X174378245Y-26196969D01*
X174530550Y-26199000D01*
X174716448Y-26200583D01*
X174939661Y-26201827D01*
X175203909Y-26202840D01*
X175512915Y-26203731D01*
X175729900Y-26204273D01*
X176023704Y-26204693D01*
X176304145Y-26204532D01*
X176566835Y-26203828D01*
X176807385Y-26202620D01*
X177021407Y-26200946D01*
X177204513Y-26198844D01*
X177352313Y-26196352D01*
X177460420Y-26193509D01*
X177524445Y-26190351D01*
X177539014Y-26188561D01*
X177663530Y-26138680D01*
X177751352Y-26056422D01*
X177783504Y-26001313D01*
X177790215Y-25983888D01*
X177796175Y-25959601D01*
X177801429Y-25925542D01*
X177806020Y-25878802D01*
X177809992Y-25816470D01*
X177813390Y-25735638D01*
X177816256Y-25633395D01*
X177818635Y-25506832D01*
X177820571Y-25353040D01*
X177822108Y-25169108D01*
X177823289Y-24952126D01*
X177824159Y-24699186D01*
X177824761Y-24407377D01*
X177825048Y-24153253D01*
X177033774Y-24153253D01*
X177033703Y-24380071D01*
X176990243Y-24597937D01*
X176942448Y-24721944D01*
X176822200Y-24922089D01*
X176664210Y-25096622D01*
X176476791Y-25238849D01*
X176268255Y-25342073D01*
X176116929Y-25386941D01*
X175955590Y-25414774D01*
X175813173Y-25420305D01*
X175663522Y-25403588D01*
X175583078Y-25388024D01*
X175356704Y-25316505D01*
X175156695Y-25206809D01*
X174985929Y-25064551D01*
X174847284Y-24895343D01*
X174743637Y-24704800D01*
X174677866Y-24498535D01*
X174652848Y-24282162D01*
X174671462Y-24061294D01*
X174736584Y-23841546D01*
X174761505Y-23785254D01*
X174886820Y-23577338D01*
X175046266Y-23405104D01*
X175235575Y-23270970D01*
X175450482Y-23177356D01*
X175686722Y-23126681D01*
X175933100Y-23120896D01*
X176171355Y-23159718D01*
X176391847Y-23241459D01*
X176588980Y-23361838D01*
X176757161Y-23516575D01*
X176890795Y-23701389D01*
X176984287Y-23911997D01*
X176989743Y-23929431D01*
X177033774Y-24153253D01*
X177825048Y-24153253D01*
X177825139Y-24073790D01*
X177825338Y-23695515D01*
X177825400Y-23269642D01*
X177825400Y-23224065D01*
X177825371Y-22795522D01*
X177825308Y-22596939D01*
X175666400Y-22596939D01*
X175659509Y-22657884D01*
X175634349Y-22701707D01*
X175584191Y-22731036D01*
X175502306Y-22748497D01*
X175381963Y-22756715D01*
X175252679Y-22758400D01*
X175130188Y-22756381D01*
X175023311Y-22750894D01*
X174944053Y-22742796D01*
X174905652Y-22733669D01*
X174857076Y-22681955D01*
X174839568Y-22607442D01*
X174856760Y-22530084D01*
X174865727Y-22514410D01*
X174883602Y-22490178D01*
X174905862Y-22473424D01*
X174941338Y-22462767D01*
X174998862Y-22456832D01*
X175087268Y-22454239D01*
X175215387Y-22453611D01*
X175255506Y-22453600D01*
X175408655Y-22454672D01*
X175518253Y-22459573D01*
X175591531Y-22470825D01*
X175635722Y-22490949D01*
X175658057Y-22522471D01*
X175665769Y-22567911D01*
X175666400Y-22596939D01*
X177825308Y-22596939D01*
X177825250Y-22414837D01*
X177824987Y-22079068D01*
X177824533Y-21785274D01*
X177823835Y-21530513D01*
X177823191Y-21387954D01*
X177266600Y-21387954D01*
X177266600Y-21998709D01*
X177204255Y-22061054D01*
X177141910Y-22123400D01*
X175797980Y-22123400D01*
X175502475Y-22123356D01*
X175253534Y-22123119D01*
X175046919Y-22122531D01*
X174878395Y-22121434D01*
X174743725Y-22119670D01*
X174638672Y-22117080D01*
X174559000Y-22113507D01*
X174500473Y-22108792D01*
X174458853Y-22102778D01*
X174429905Y-22095307D01*
X174409392Y-22086219D01*
X174393076Y-22075358D01*
X174387126Y-22070756D01*
X174320200Y-22018112D01*
X174320200Y-21403308D01*
X174320661Y-21204626D01*
X174322287Y-21050514D01*
X174325445Y-20934748D01*
X174330502Y-20851104D01*
X174337824Y-20793358D01*
X174347778Y-20755287D01*
X174359741Y-20732051D01*
X174399281Y-20675600D01*
X175782141Y-20675599D01*
X176082297Y-20675648D01*
X176335777Y-20675890D01*
X176546702Y-20676473D01*
X176719195Y-20677543D01*
X176857380Y-20679244D01*
X176965378Y-20681724D01*
X177047313Y-20685129D01*
X177107308Y-20689605D01*
X177149484Y-20695297D01*
X177177966Y-20702352D01*
X177196876Y-20710916D01*
X177210336Y-20721136D01*
X177215800Y-20726399D01*
X177231781Y-20744972D01*
X177244013Y-20768974D01*
X177252995Y-20804898D01*
X177259225Y-20859239D01*
X177263202Y-20938487D01*
X177265425Y-21049136D01*
X177266391Y-21197678D01*
X177266600Y-21387954D01*
X177823191Y-21387954D01*
X177822846Y-21311842D01*
X177821514Y-21126321D01*
X177819790Y-20971006D01*
X177817623Y-20842957D01*
X177814963Y-20739231D01*
X177811761Y-20656886D01*
X177807965Y-20592982D01*
X177803526Y-20544575D01*
X177798394Y-20508724D01*
X177792519Y-20482488D01*
X177785850Y-20462924D01*
X177778338Y-20447090D01*
X177778078Y-20446603D01*
X177722501Y-20372460D01*
X177650924Y-20311109D01*
X177644728Y-20307300D01*
X177626830Y-20297482D01*
X177606340Y-20289018D01*
X177579579Y-20281807D01*
X177542869Y-20275748D01*
X177492531Y-20270742D01*
X177424886Y-20266688D01*
X177336257Y-20263485D01*
X177222964Y-20261035D01*
X177081331Y-20259235D01*
X176907677Y-20257987D01*
X176698325Y-20257189D01*
X176449597Y-20256743D01*
X176157813Y-20256546D01*
X175819296Y-20256500D01*
X175780700Y-20256500D01*
X175436701Y-20256546D01*
G37*
X175436701Y-20256546D02*
X175139838Y-20256751D01*
X174886447Y-20257209D01*
X174672863Y-20258016D01*
X174495424Y-20259267D01*
X174350465Y-20261059D01*
X174234322Y-20263487D01*
X174143331Y-20266646D01*
X174073828Y-20270633D01*
X174022149Y-20275542D01*
X173984631Y-20281470D01*
X173957608Y-20288513D01*
X173937418Y-20296765D01*
X173922545Y-20305012D01*
X173856927Y-20360098D01*
X173797880Y-20433736D01*
X173789195Y-20448170D01*
X173780727Y-20463775D01*
X173773210Y-20480672D01*
X173766586Y-20501813D01*
X173760799Y-20530153D01*
X173755792Y-20568644D01*
X173751509Y-20620239D01*
X173747893Y-20687893D01*
X173744888Y-20774558D01*
X173742438Y-20883187D01*
X173740485Y-21016735D01*
X173738973Y-21178153D01*
X173737846Y-21370396D01*
X173737048Y-21596416D01*
X173736521Y-21859167D01*
X173736209Y-22161603D01*
X173736056Y-22506676D01*
X173736005Y-22897340D01*
X173736000Y-23228300D01*
X173736011Y-23655778D01*
X173736081Y-24035410D01*
X173736266Y-24370148D01*
X173736624Y-24662947D01*
X173737210Y-24916758D01*
X173738081Y-25134536D01*
X173739293Y-25319234D01*
X173740904Y-25473804D01*
X173742969Y-25601201D01*
X173745546Y-25704377D01*
X173748690Y-25786287D01*
X173752458Y-25849882D01*
X173756907Y-25898117D01*
X173762093Y-25933944D01*
X173768073Y-25960318D01*
X173774903Y-25980190D01*
X173782639Y-25996516D01*
X173789195Y-26008429D01*
X173843782Y-26082389D01*
X173910189Y-26143432D01*
X173922545Y-26151587D01*
X173940087Y-26161105D01*
X173961449Y-26169308D01*
X173990352Y-26176303D01*
X174030518Y-26182199D01*
X174085669Y-26187106D01*
X174159526Y-26191131D01*
X174255810Y-26194382D01*
X174378245Y-26196969D01*
X174530550Y-26199000D01*
X174716448Y-26200583D01*
X174939661Y-26201827D01*
X175203909Y-26202840D01*
X175512915Y-26203731D01*
X175729900Y-26204273D01*
X176023704Y-26204693D01*
X176304145Y-26204532D01*
X176566835Y-26203828D01*
X176807385Y-26202620D01*
X177021407Y-26200946D01*
X177204513Y-26198844D01*
X177352313Y-26196352D01*
X177460420Y-26193509D01*
X177524445Y-26190351D01*
X177539014Y-26188561D01*
X177663530Y-26138680D01*
X177751352Y-26056422D01*
X177783504Y-26001313D01*
X177790215Y-25983888D01*
X177796175Y-25959601D01*
X177801429Y-25925542D01*
X177806020Y-25878802D01*
X177809992Y-25816470D01*
X177813390Y-25735638D01*
X177816256Y-25633395D01*
X177818635Y-25506832D01*
X177820571Y-25353040D01*
X177822108Y-25169108D01*
X177823289Y-24952126D01*
X177824159Y-24699186D01*
X177824761Y-24407377D01*
X177825048Y-24153253D01*
X177033774Y-24153253D01*
X177033703Y-24380071D01*
X176990243Y-24597937D01*
X176942448Y-24721944D01*
X176822200Y-24922089D01*
X176664210Y-25096622D01*
X176476791Y-25238849D01*
X176268255Y-25342073D01*
X176116929Y-25386941D01*
X175955590Y-25414774D01*
X175813173Y-25420305D01*
X175663522Y-25403588D01*
X175583078Y-25388024D01*
X175356704Y-25316505D01*
X175156695Y-25206809D01*
X174985929Y-25064551D01*
X174847284Y-24895343D01*
X174743637Y-24704800D01*
X174677866Y-24498535D01*
X174652848Y-24282162D01*
X174671462Y-24061294D01*
X174736584Y-23841546D01*
X174761505Y-23785254D01*
X174886820Y-23577338D01*
X175046266Y-23405104D01*
X175235575Y-23270970D01*
X175450482Y-23177356D01*
X175686722Y-23126681D01*
X175933100Y-23120896D01*
X176171355Y-23159718D01*
X176391847Y-23241459D01*
X176588980Y-23361838D01*
X176757161Y-23516575D01*
X176890795Y-23701389D01*
X176984287Y-23911997D01*
X176989743Y-23929431D01*
X177033774Y-24153253D01*
X177825048Y-24153253D01*
X177825139Y-24073790D01*
X177825338Y-23695515D01*
X177825400Y-23269642D01*
X177825400Y-23224065D01*
X177825371Y-22795522D01*
X177825308Y-22596939D01*
X175666400Y-22596939D01*
X175659509Y-22657884D01*
X175634349Y-22701707D01*
X175584191Y-22731036D01*
X175502306Y-22748497D01*
X175381963Y-22756715D01*
X175252679Y-22758400D01*
X175130188Y-22756381D01*
X175023311Y-22750894D01*
X174944053Y-22742796D01*
X174905652Y-22733669D01*
X174857076Y-22681955D01*
X174839568Y-22607442D01*
X174856760Y-22530084D01*
X174865727Y-22514410D01*
X174883602Y-22490178D01*
X174905862Y-22473424D01*
X174941338Y-22462767D01*
X174998862Y-22456832D01*
X175087268Y-22454239D01*
X175215387Y-22453611D01*
X175255506Y-22453600D01*
X175408655Y-22454672D01*
X175518253Y-22459573D01*
X175591531Y-22470825D01*
X175635722Y-22490949D01*
X175658057Y-22522471D01*
X175665769Y-22567911D01*
X175666400Y-22596939D01*
X177825308Y-22596939D01*
X177825250Y-22414837D01*
X177824987Y-22079068D01*
X177824533Y-21785274D01*
X177823835Y-21530513D01*
X177823191Y-21387954D01*
X177266600Y-21387954D01*
X177266600Y-21998709D01*
X177204255Y-22061054D01*
X177141910Y-22123400D01*
X175797980Y-22123400D01*
X175502475Y-22123356D01*
X175253534Y-22123119D01*
X175046919Y-22122531D01*
X174878395Y-22121434D01*
X174743725Y-22119670D01*
X174638672Y-22117080D01*
X174559000Y-22113507D01*
X174500473Y-22108792D01*
X174458853Y-22102778D01*
X174429905Y-22095307D01*
X174409392Y-22086219D01*
X174393076Y-22075358D01*
X174387126Y-22070756D01*
X174320200Y-22018112D01*
X174320200Y-21403308D01*
X174320661Y-21204626D01*
X174322287Y-21050514D01*
X174325445Y-20934748D01*
X174330502Y-20851104D01*
X174337824Y-20793358D01*
X174347778Y-20755287D01*
X174359741Y-20732051D01*
X174399281Y-20675600D01*
X175782141Y-20675599D01*
X176082297Y-20675648D01*
X176335777Y-20675890D01*
X176546702Y-20676473D01*
X176719195Y-20677543D01*
X176857380Y-20679244D01*
X176965378Y-20681724D01*
X177047313Y-20685129D01*
X177107308Y-20689605D01*
X177149484Y-20695297D01*
X177177966Y-20702352D01*
X177196876Y-20710916D01*
X177210336Y-20721136D01*
X177215800Y-20726399D01*
X177231781Y-20744972D01*
X177244013Y-20768974D01*
X177252995Y-20804898D01*
X177259225Y-20859239D01*
X177263202Y-20938487D01*
X177265425Y-21049136D01*
X177266391Y-21197678D01*
X177266600Y-21387954D01*
X177823191Y-21387954D01*
X177822846Y-21311842D01*
X177821514Y-21126321D01*
X177819790Y-20971006D01*
X177817623Y-20842957D01*
X177814963Y-20739231D01*
X177811761Y-20656886D01*
X177807965Y-20592982D01*
X177803526Y-20544575D01*
X177798394Y-20508724D01*
X177792519Y-20482488D01*
X177785850Y-20462924D01*
X177778338Y-20447090D01*
X177778078Y-20446603D01*
X177722501Y-20372460D01*
X177650924Y-20311109D01*
X177644728Y-20307300D01*
X177626830Y-20297482D01*
X177606340Y-20289018D01*
X177579579Y-20281807D01*
X177542869Y-20275748D01*
X177492531Y-20270742D01*
X177424886Y-20266688D01*
X177336257Y-20263485D01*
X177222964Y-20261035D01*
X177081331Y-20259235D01*
X176907677Y-20257987D01*
X176698325Y-20257189D01*
X176449597Y-20256743D01*
X176157813Y-20256546D01*
X175819296Y-20256500D01*
X175780700Y-20256500D01*
X175436701Y-20256546D01*
M02*
