G04 #@! TF.GenerationSoftware,KiCad,Pcbnew,(5.1.5)-3*
G04 #@! TF.CreationDate,2020-12-21T12:38:01+01:00*
G04 #@! TF.ProjectId,epimetheus_tcs34725,6570696d-6574-4686-9575-735f74637333,rev?*
G04 #@! TF.SameCoordinates,Original*
G04 #@! TF.FileFunction,Copper,L2,Bot*
G04 #@! TF.FilePolarity,Positive*
%FSLAX46Y46*%
G04 Gerber Fmt 4.6, Leading zero omitted, Abs format (unit mm)*
G04 Created by KiCad (PCBNEW (5.1.5)-3) date 2020-12-21 12:38:01*
%MOMM*%
%LPD*%
G04 APERTURE LIST*
%ADD10R,1.700000X1.700000*%
%ADD11C,1.524000*%
%ADD12C,0.250000*%
%ADD13C,0.254000*%
G04 APERTURE END LIST*
D10*
X171196000Y-38862000D03*
D11*
X179832000Y-23368000D03*
X179832000Y-25908000D03*
X179832000Y-28448000D03*
X179832000Y-30988000D03*
X179832000Y-33528000D03*
X179832000Y-36068000D03*
X179832000Y-38608000D03*
D12*
X179578000Y-38862000D02*
X179832000Y-38608000D01*
X171196000Y-38862000D02*
X179578000Y-38862000D01*
D13*
G36*
X180442001Y-22108569D02*
G01*
X180239490Y-22024686D01*
X179969592Y-21971000D01*
X179694408Y-21971000D01*
X179424510Y-22024686D01*
X179170273Y-22129995D01*
X178941465Y-22282880D01*
X178746880Y-22477465D01*
X178593995Y-22706273D01*
X178488686Y-22960510D01*
X178435000Y-23230408D01*
X178435000Y-23505592D01*
X178488686Y-23775490D01*
X178593995Y-24029727D01*
X178746880Y-24258535D01*
X178941465Y-24453120D01*
X179170273Y-24606005D01*
X179241943Y-24635692D01*
X179228977Y-24640364D01*
X179113020Y-24702344D01*
X179046040Y-24942435D01*
X179832000Y-25728395D01*
X179846143Y-25714253D01*
X180025748Y-25893858D01*
X180011605Y-25908000D01*
X180025748Y-25922143D01*
X179846143Y-26101748D01*
X179832000Y-26087605D01*
X179046040Y-26873565D01*
X179113020Y-27113656D01*
X179248760Y-27177485D01*
X179170273Y-27209995D01*
X178941465Y-27362880D01*
X178746880Y-27557465D01*
X178593995Y-27786273D01*
X178488686Y-28040510D01*
X178435000Y-28310408D01*
X178435000Y-28585592D01*
X178488686Y-28855490D01*
X178593995Y-29109727D01*
X178746880Y-29338535D01*
X178941465Y-29533120D01*
X179170273Y-29686005D01*
X179247515Y-29718000D01*
X179170273Y-29749995D01*
X178941465Y-29902880D01*
X178746880Y-30097465D01*
X178593995Y-30326273D01*
X178488686Y-30580510D01*
X178435000Y-30850408D01*
X178435000Y-31125592D01*
X178488686Y-31395490D01*
X178593995Y-31649727D01*
X178746880Y-31878535D01*
X178941465Y-32073120D01*
X179170273Y-32226005D01*
X179247515Y-32258000D01*
X179170273Y-32289995D01*
X178941465Y-32442880D01*
X178746880Y-32637465D01*
X178593995Y-32866273D01*
X178488686Y-33120510D01*
X178435000Y-33390408D01*
X178435000Y-33665592D01*
X178488686Y-33935490D01*
X178593995Y-34189727D01*
X178746880Y-34418535D01*
X178941465Y-34613120D01*
X179170273Y-34766005D01*
X179247515Y-34798000D01*
X179170273Y-34829995D01*
X178941465Y-34982880D01*
X178746880Y-35177465D01*
X178593995Y-35406273D01*
X178488686Y-35660510D01*
X178435000Y-35930408D01*
X178435000Y-36205592D01*
X178488686Y-36475490D01*
X178593995Y-36729727D01*
X178746880Y-36958535D01*
X178941465Y-37153120D01*
X179170273Y-37306005D01*
X179247515Y-37338000D01*
X179170273Y-37369995D01*
X178941465Y-37522880D01*
X178746880Y-37717465D01*
X178593995Y-37946273D01*
X178529490Y-38102000D01*
X172684072Y-38102000D01*
X172684072Y-38012000D01*
X172671812Y-37887518D01*
X172635502Y-37767820D01*
X172576537Y-37657506D01*
X172497185Y-37560815D01*
X172400494Y-37481463D01*
X172290180Y-37422498D01*
X172170482Y-37386188D01*
X172046000Y-37373928D01*
X170346000Y-37373928D01*
X170221518Y-37386188D01*
X170101820Y-37422498D01*
X169991506Y-37481463D01*
X169894815Y-37560815D01*
X169815463Y-37657506D01*
X169756498Y-37767820D01*
X169720188Y-37887518D01*
X169707928Y-38012000D01*
X169707928Y-39712000D01*
X169720188Y-39836482D01*
X169756498Y-39956180D01*
X169815463Y-40066494D01*
X169894815Y-40163185D01*
X169991506Y-40242537D01*
X170101820Y-40301502D01*
X170221518Y-40337812D01*
X170346000Y-40350072D01*
X172046000Y-40350072D01*
X172170482Y-40337812D01*
X172290180Y-40301502D01*
X172400494Y-40242537D01*
X172497185Y-40163185D01*
X172576537Y-40066494D01*
X172635502Y-39956180D01*
X172671812Y-39836482D01*
X172684072Y-39712000D01*
X172684072Y-39622000D01*
X178870345Y-39622000D01*
X178941465Y-39693120D01*
X179170273Y-39846005D01*
X179424510Y-39951314D01*
X179694408Y-40005000D01*
X179969592Y-40005000D01*
X180239490Y-39951314D01*
X180442000Y-39867431D01*
X180442000Y-40742000D01*
X161442000Y-40742000D01*
X161442000Y-30851589D01*
X161988000Y-30851589D01*
X161988000Y-31124411D01*
X162041225Y-31391989D01*
X162145629Y-31644043D01*
X162297201Y-31870886D01*
X162490114Y-32063799D01*
X162716957Y-32215371D01*
X162969011Y-32319775D01*
X163236589Y-32373000D01*
X163509411Y-32373000D01*
X163776989Y-32319775D01*
X164029043Y-32215371D01*
X164255886Y-32063799D01*
X164448799Y-31870886D01*
X164600371Y-31644043D01*
X164704775Y-31391989D01*
X164758000Y-31124411D01*
X164758000Y-30851589D01*
X168988000Y-30851589D01*
X168988000Y-31124411D01*
X169041225Y-31391989D01*
X169145629Y-31644043D01*
X169297201Y-31870886D01*
X169490114Y-32063799D01*
X169716957Y-32215371D01*
X169969011Y-32319775D01*
X170236589Y-32373000D01*
X170509411Y-32373000D01*
X170776989Y-32319775D01*
X171029043Y-32215371D01*
X171255886Y-32063799D01*
X171448799Y-31870886D01*
X171600371Y-31644043D01*
X171704775Y-31391989D01*
X171758000Y-31124411D01*
X171758000Y-30851589D01*
X171704775Y-30584011D01*
X171600371Y-30331957D01*
X171448799Y-30105114D01*
X171255886Y-29912201D01*
X171029043Y-29760629D01*
X170776989Y-29656225D01*
X170509411Y-29603000D01*
X170236589Y-29603000D01*
X169969011Y-29656225D01*
X169716957Y-29760629D01*
X169490114Y-29912201D01*
X169297201Y-30105114D01*
X169145629Y-30331957D01*
X169041225Y-30584011D01*
X168988000Y-30851589D01*
X164758000Y-30851589D01*
X164704775Y-30584011D01*
X164600371Y-30331957D01*
X164448799Y-30105114D01*
X164255886Y-29912201D01*
X164029043Y-29760629D01*
X163776989Y-29656225D01*
X163509411Y-29603000D01*
X163236589Y-29603000D01*
X162969011Y-29656225D01*
X162716957Y-29760629D01*
X162490114Y-29912201D01*
X162297201Y-30105114D01*
X162145629Y-30331957D01*
X162041225Y-30584011D01*
X161988000Y-30851589D01*
X161442000Y-30851589D01*
X161442000Y-25980017D01*
X178430090Y-25980017D01*
X178471078Y-26252133D01*
X178564364Y-26511023D01*
X178626344Y-26626980D01*
X178866435Y-26693960D01*
X179652395Y-25908000D01*
X178866435Y-25122040D01*
X178626344Y-25189020D01*
X178509244Y-25438048D01*
X178442977Y-25705135D01*
X178430090Y-25980017D01*
X161442000Y-25980017D01*
X161442000Y-20980000D01*
X180442001Y-20980000D01*
X180442001Y-22108569D01*
G37*
X180442001Y-22108569D02*
X180239490Y-22024686D01*
X179969592Y-21971000D01*
X179694408Y-21971000D01*
X179424510Y-22024686D01*
X179170273Y-22129995D01*
X178941465Y-22282880D01*
X178746880Y-22477465D01*
X178593995Y-22706273D01*
X178488686Y-22960510D01*
X178435000Y-23230408D01*
X178435000Y-23505592D01*
X178488686Y-23775490D01*
X178593995Y-24029727D01*
X178746880Y-24258535D01*
X178941465Y-24453120D01*
X179170273Y-24606005D01*
X179241943Y-24635692D01*
X179228977Y-24640364D01*
X179113020Y-24702344D01*
X179046040Y-24942435D01*
X179832000Y-25728395D01*
X179846143Y-25714253D01*
X180025748Y-25893858D01*
X180011605Y-25908000D01*
X180025748Y-25922143D01*
X179846143Y-26101748D01*
X179832000Y-26087605D01*
X179046040Y-26873565D01*
X179113020Y-27113656D01*
X179248760Y-27177485D01*
X179170273Y-27209995D01*
X178941465Y-27362880D01*
X178746880Y-27557465D01*
X178593995Y-27786273D01*
X178488686Y-28040510D01*
X178435000Y-28310408D01*
X178435000Y-28585592D01*
X178488686Y-28855490D01*
X178593995Y-29109727D01*
X178746880Y-29338535D01*
X178941465Y-29533120D01*
X179170273Y-29686005D01*
X179247515Y-29718000D01*
X179170273Y-29749995D01*
X178941465Y-29902880D01*
X178746880Y-30097465D01*
X178593995Y-30326273D01*
X178488686Y-30580510D01*
X178435000Y-30850408D01*
X178435000Y-31125592D01*
X178488686Y-31395490D01*
X178593995Y-31649727D01*
X178746880Y-31878535D01*
X178941465Y-32073120D01*
X179170273Y-32226005D01*
X179247515Y-32258000D01*
X179170273Y-32289995D01*
X178941465Y-32442880D01*
X178746880Y-32637465D01*
X178593995Y-32866273D01*
X178488686Y-33120510D01*
X178435000Y-33390408D01*
X178435000Y-33665592D01*
X178488686Y-33935490D01*
X178593995Y-34189727D01*
X178746880Y-34418535D01*
X178941465Y-34613120D01*
X179170273Y-34766005D01*
X179247515Y-34798000D01*
X179170273Y-34829995D01*
X178941465Y-34982880D01*
X178746880Y-35177465D01*
X178593995Y-35406273D01*
X178488686Y-35660510D01*
X178435000Y-35930408D01*
X178435000Y-36205592D01*
X178488686Y-36475490D01*
X178593995Y-36729727D01*
X178746880Y-36958535D01*
X178941465Y-37153120D01*
X179170273Y-37306005D01*
X179247515Y-37338000D01*
X179170273Y-37369995D01*
X178941465Y-37522880D01*
X178746880Y-37717465D01*
X178593995Y-37946273D01*
X178529490Y-38102000D01*
X172684072Y-38102000D01*
X172684072Y-38012000D01*
X172671812Y-37887518D01*
X172635502Y-37767820D01*
X172576537Y-37657506D01*
X172497185Y-37560815D01*
X172400494Y-37481463D01*
X172290180Y-37422498D01*
X172170482Y-37386188D01*
X172046000Y-37373928D01*
X170346000Y-37373928D01*
X170221518Y-37386188D01*
X170101820Y-37422498D01*
X169991506Y-37481463D01*
X169894815Y-37560815D01*
X169815463Y-37657506D01*
X169756498Y-37767820D01*
X169720188Y-37887518D01*
X169707928Y-38012000D01*
X169707928Y-39712000D01*
X169720188Y-39836482D01*
X169756498Y-39956180D01*
X169815463Y-40066494D01*
X169894815Y-40163185D01*
X169991506Y-40242537D01*
X170101820Y-40301502D01*
X170221518Y-40337812D01*
X170346000Y-40350072D01*
X172046000Y-40350072D01*
X172170482Y-40337812D01*
X172290180Y-40301502D01*
X172400494Y-40242537D01*
X172497185Y-40163185D01*
X172576537Y-40066494D01*
X172635502Y-39956180D01*
X172671812Y-39836482D01*
X172684072Y-39712000D01*
X172684072Y-39622000D01*
X178870345Y-39622000D01*
X178941465Y-39693120D01*
X179170273Y-39846005D01*
X179424510Y-39951314D01*
X179694408Y-40005000D01*
X179969592Y-40005000D01*
X180239490Y-39951314D01*
X180442000Y-39867431D01*
X180442000Y-40742000D01*
X161442000Y-40742000D01*
X161442000Y-30851589D01*
X161988000Y-30851589D01*
X161988000Y-31124411D01*
X162041225Y-31391989D01*
X162145629Y-31644043D01*
X162297201Y-31870886D01*
X162490114Y-32063799D01*
X162716957Y-32215371D01*
X162969011Y-32319775D01*
X163236589Y-32373000D01*
X163509411Y-32373000D01*
X163776989Y-32319775D01*
X164029043Y-32215371D01*
X164255886Y-32063799D01*
X164448799Y-31870886D01*
X164600371Y-31644043D01*
X164704775Y-31391989D01*
X164758000Y-31124411D01*
X164758000Y-30851589D01*
X168988000Y-30851589D01*
X168988000Y-31124411D01*
X169041225Y-31391989D01*
X169145629Y-31644043D01*
X169297201Y-31870886D01*
X169490114Y-32063799D01*
X169716957Y-32215371D01*
X169969011Y-32319775D01*
X170236589Y-32373000D01*
X170509411Y-32373000D01*
X170776989Y-32319775D01*
X171029043Y-32215371D01*
X171255886Y-32063799D01*
X171448799Y-31870886D01*
X171600371Y-31644043D01*
X171704775Y-31391989D01*
X171758000Y-31124411D01*
X171758000Y-30851589D01*
X171704775Y-30584011D01*
X171600371Y-30331957D01*
X171448799Y-30105114D01*
X171255886Y-29912201D01*
X171029043Y-29760629D01*
X170776989Y-29656225D01*
X170509411Y-29603000D01*
X170236589Y-29603000D01*
X169969011Y-29656225D01*
X169716957Y-29760629D01*
X169490114Y-29912201D01*
X169297201Y-30105114D01*
X169145629Y-30331957D01*
X169041225Y-30584011D01*
X168988000Y-30851589D01*
X164758000Y-30851589D01*
X164704775Y-30584011D01*
X164600371Y-30331957D01*
X164448799Y-30105114D01*
X164255886Y-29912201D01*
X164029043Y-29760629D01*
X163776989Y-29656225D01*
X163509411Y-29603000D01*
X163236589Y-29603000D01*
X162969011Y-29656225D01*
X162716957Y-29760629D01*
X162490114Y-29912201D01*
X162297201Y-30105114D01*
X162145629Y-30331957D01*
X162041225Y-30584011D01*
X161988000Y-30851589D01*
X161442000Y-30851589D01*
X161442000Y-25980017D01*
X178430090Y-25980017D01*
X178471078Y-26252133D01*
X178564364Y-26511023D01*
X178626344Y-26626980D01*
X178866435Y-26693960D01*
X179652395Y-25908000D01*
X178866435Y-25122040D01*
X178626344Y-25189020D01*
X178509244Y-25438048D01*
X178442977Y-25705135D01*
X178430090Y-25980017D01*
X161442000Y-25980017D01*
X161442000Y-20980000D01*
X180442001Y-20980000D01*
X180442001Y-22108569D01*
M02*
