G04 #@! TF.GenerationSoftware,KiCad,Pcbnew,(5.1.5)-3*
G04 #@! TF.CreationDate,2020-12-21T12:39:58+01:00*
G04 #@! TF.ProjectId,epimetheus_tsl2561,6570696d-6574-4686-9575-735f74736c32,rev?*
G04 #@! TF.SameCoordinates,Original*
G04 #@! TF.FileFunction,Legend,Top*
G04 #@! TF.FilePolarity,Positive*
%FSLAX46Y46*%
G04 Gerber Fmt 4.6, Leading zero omitted, Abs format (unit mm)*
G04 Created by KiCad (PCBNEW (5.1.5)-3) date 2020-12-21 12:39:58*
%MOMM*%
%LPD*%
G04 APERTURE LIST*
%ADD10C,0.150000*%
%ADD11C,0.120000*%
G04 APERTURE END LIST*
D10*
X161774571Y-23074380D02*
X162346000Y-23074380D01*
X162060285Y-24074380D02*
X162060285Y-23074380D01*
X162631714Y-24026761D02*
X162774571Y-24074380D01*
X163012666Y-24074380D01*
X163107904Y-24026761D01*
X163155523Y-23979142D01*
X163203142Y-23883904D01*
X163203142Y-23788666D01*
X163155523Y-23693428D01*
X163107904Y-23645809D01*
X163012666Y-23598190D01*
X162822190Y-23550571D01*
X162726952Y-23502952D01*
X162679333Y-23455333D01*
X162631714Y-23360095D01*
X162631714Y-23264857D01*
X162679333Y-23169619D01*
X162726952Y-23122000D01*
X162822190Y-23074380D01*
X163060285Y-23074380D01*
X163203142Y-23122000D01*
X164107904Y-24074380D02*
X163631714Y-24074380D01*
X163631714Y-23074380D01*
X164393619Y-23169619D02*
X164441238Y-23122000D01*
X164536476Y-23074380D01*
X164774571Y-23074380D01*
X164869809Y-23122000D01*
X164917428Y-23169619D01*
X164965047Y-23264857D01*
X164965047Y-23360095D01*
X164917428Y-23502952D01*
X164346000Y-24074380D01*
X164965047Y-24074380D01*
X165869809Y-23074380D02*
X165393619Y-23074380D01*
X165346000Y-23550571D01*
X165393619Y-23502952D01*
X165488857Y-23455333D01*
X165726952Y-23455333D01*
X165822190Y-23502952D01*
X165869809Y-23550571D01*
X165917428Y-23645809D01*
X165917428Y-23883904D01*
X165869809Y-23979142D01*
X165822190Y-24026761D01*
X165726952Y-24074380D01*
X165488857Y-24074380D01*
X165393619Y-24026761D01*
X165346000Y-23979142D01*
X166774571Y-23074380D02*
X166584095Y-23074380D01*
X166488857Y-23122000D01*
X166441238Y-23169619D01*
X166346000Y-23312476D01*
X166298380Y-23502952D01*
X166298380Y-23883904D01*
X166346000Y-23979142D01*
X166393619Y-24026761D01*
X166488857Y-24074380D01*
X166679333Y-24074380D01*
X166774571Y-24026761D01*
X166822190Y-23979142D01*
X166869809Y-23883904D01*
X166869809Y-23645809D01*
X166822190Y-23550571D01*
X166774571Y-23502952D01*
X166679333Y-23455333D01*
X166488857Y-23455333D01*
X166393619Y-23502952D01*
X166346000Y-23550571D01*
X166298380Y-23645809D01*
X167822190Y-24074380D02*
X167250761Y-24074380D01*
X167536476Y-24074380D02*
X167536476Y-23074380D01*
X167441238Y-23217238D01*
X167346000Y-23312476D01*
X167250761Y-23360095D01*
D11*
X180340000Y-24130000D02*
X180340000Y-37338000D01*
X162052000Y-24130000D02*
X180340000Y-24130000D01*
X162052000Y-37338000D02*
X162052000Y-24130000D01*
X180340000Y-37338000D02*
X162052000Y-37338000D01*
X162052000Y-27888000D02*
X162052000Y-34088000D01*
X173873000Y-34088000D02*
X173873000Y-27888000D01*
X162052000Y-27888000D02*
X164148000Y-27888000D01*
X165798000Y-27888000D02*
X167148000Y-27888000D01*
X168798000Y-27888000D02*
X171198000Y-27888000D01*
X172748000Y-27888000D02*
X173873000Y-27888000D01*
X172298000Y-34088000D02*
X162052000Y-34088000D01*
D10*
X174434666Y-25360380D02*
X174768000Y-26360380D01*
X175101333Y-25360380D01*
X176006095Y-26265142D02*
X175958476Y-26312761D01*
X175815619Y-26360380D01*
X175720380Y-26360380D01*
X175577523Y-26312761D01*
X175482285Y-26217523D01*
X175434666Y-26122285D01*
X175387047Y-25931809D01*
X175387047Y-25788952D01*
X175434666Y-25598476D01*
X175482285Y-25503238D01*
X175577523Y-25408000D01*
X175720380Y-25360380D01*
X175815619Y-25360380D01*
X175958476Y-25408000D01*
X176006095Y-25455619D01*
X177006095Y-26265142D02*
X176958476Y-26312761D01*
X176815619Y-26360380D01*
X176720380Y-26360380D01*
X176577523Y-26312761D01*
X176482285Y-26217523D01*
X176434666Y-26122285D01*
X176387047Y-25931809D01*
X176387047Y-25788952D01*
X176434666Y-25598476D01*
X176482285Y-25503238D01*
X176577523Y-25408000D01*
X176720380Y-25360380D01*
X176815619Y-25360380D01*
X176958476Y-25408000D01*
X177006095Y-25455619D01*
X175006095Y-27948000D02*
X174910857Y-27900380D01*
X174768000Y-27900380D01*
X174625142Y-27948000D01*
X174529904Y-28043238D01*
X174482285Y-28138476D01*
X174434666Y-28328952D01*
X174434666Y-28471809D01*
X174482285Y-28662285D01*
X174529904Y-28757523D01*
X174625142Y-28852761D01*
X174768000Y-28900380D01*
X174863238Y-28900380D01*
X175006095Y-28852761D01*
X175053714Y-28805142D01*
X175053714Y-28471809D01*
X174863238Y-28471809D01*
X175482285Y-28900380D02*
X175482285Y-27900380D01*
X176053714Y-28900380D01*
X176053714Y-27900380D01*
X176529904Y-28900380D02*
X176529904Y-27900380D01*
X176768000Y-27900380D01*
X176910857Y-27948000D01*
X177006095Y-28043238D01*
X177053714Y-28138476D01*
X177101333Y-28328952D01*
X177101333Y-28471809D01*
X177053714Y-28662285D01*
X177006095Y-28757523D01*
X176910857Y-28852761D01*
X176768000Y-28900380D01*
X176529904Y-28900380D01*
X174577523Y-31392761D02*
X174720380Y-31440380D01*
X174958476Y-31440380D01*
X175053714Y-31392761D01*
X175101333Y-31345142D01*
X175148952Y-31249904D01*
X175148952Y-31154666D01*
X175101333Y-31059428D01*
X175053714Y-31011809D01*
X174958476Y-30964190D01*
X174768000Y-30916571D01*
X174672761Y-30868952D01*
X174625142Y-30821333D01*
X174577523Y-30726095D01*
X174577523Y-30630857D01*
X174625142Y-30535619D01*
X174672761Y-30488000D01*
X174768000Y-30440380D01*
X175006095Y-30440380D01*
X175148952Y-30488000D01*
X176148952Y-31345142D02*
X176101333Y-31392761D01*
X175958476Y-31440380D01*
X175863238Y-31440380D01*
X175720380Y-31392761D01*
X175625142Y-31297523D01*
X175577523Y-31202285D01*
X175529904Y-31011809D01*
X175529904Y-30868952D01*
X175577523Y-30678476D01*
X175625142Y-30583238D01*
X175720380Y-30488000D01*
X175863238Y-30440380D01*
X175958476Y-30440380D01*
X176101333Y-30488000D01*
X176148952Y-30535619D01*
X177053714Y-31440380D02*
X176577523Y-31440380D01*
X176577523Y-30440380D01*
X174553714Y-33932761D02*
X174696571Y-33980380D01*
X174934666Y-33980380D01*
X175029904Y-33932761D01*
X175077523Y-33885142D01*
X175125142Y-33789904D01*
X175125142Y-33694666D01*
X175077523Y-33599428D01*
X175029904Y-33551809D01*
X174934666Y-33504190D01*
X174744190Y-33456571D01*
X174648952Y-33408952D01*
X174601333Y-33361333D01*
X174553714Y-33266095D01*
X174553714Y-33170857D01*
X174601333Y-33075619D01*
X174648952Y-33028000D01*
X174744190Y-32980380D01*
X174982285Y-32980380D01*
X175125142Y-33028000D01*
X175553714Y-33980380D02*
X175553714Y-32980380D01*
X175791809Y-32980380D01*
X175934666Y-33028000D01*
X176029904Y-33123238D01*
X176077523Y-33218476D01*
X176125142Y-33408952D01*
X176125142Y-33551809D01*
X176077523Y-33742285D01*
X176029904Y-33837523D01*
X175934666Y-33932761D01*
X175791809Y-33980380D01*
X175553714Y-33980380D01*
X176506095Y-33694666D02*
X176982285Y-33694666D01*
X176410857Y-33980380D02*
X176744190Y-32980380D01*
X177077523Y-33980380D01*
X174863238Y-36520380D02*
X174863238Y-35520380D01*
X175339428Y-36520380D02*
X175339428Y-35520380D01*
X175910857Y-36520380D01*
X175910857Y-35520380D01*
X176244190Y-35520380D02*
X176815619Y-35520380D01*
X176529904Y-36520380D02*
X176529904Y-35520380D01*
M02*
