G04 #@! TF.GenerationSoftware,KiCad,Pcbnew,(5.1.5)-3*
G04 #@! TF.CreationDate,2020-12-21T12:39:58+01:00*
G04 #@! TF.ProjectId,epimetheus_tsl2561,6570696d-6574-4686-9575-735f74736c32,rev?*
G04 #@! TF.SameCoordinates,Original*
G04 #@! TF.FileFunction,Copper,L2,Bot*
G04 #@! TF.FilePolarity,Positive*
%FSLAX46Y46*%
G04 Gerber Fmt 4.6, Leading zero omitted, Abs format (unit mm)*
G04 Created by KiCad (PCBNEW (5.1.5)-3) date 2020-12-21 12:39:58*
%MOMM*%
%LPD*%
G04 APERTURE LIST*
%ADD10C,1.524000*%
%ADD11C,0.254000*%
G04 APERTURE END LIST*
D10*
X178816000Y-25908000D03*
X178816000Y-28448000D03*
X178816000Y-30988000D03*
X178816000Y-33528000D03*
X178816000Y-36068000D03*
D11*
G36*
X180442000Y-38202000D02*
G01*
X162458000Y-38202000D01*
X162458000Y-32031685D01*
X162490114Y-32063799D01*
X162716957Y-32215371D01*
X162969011Y-32319775D01*
X163236589Y-32373000D01*
X163509411Y-32373000D01*
X163776989Y-32319775D01*
X164029043Y-32215371D01*
X164255886Y-32063799D01*
X164448799Y-31870886D01*
X164600371Y-31644043D01*
X164704775Y-31391989D01*
X164758000Y-31124411D01*
X164758000Y-30851589D01*
X168988000Y-30851589D01*
X168988000Y-31124411D01*
X169041225Y-31391989D01*
X169145629Y-31644043D01*
X169297201Y-31870886D01*
X169490114Y-32063799D01*
X169716957Y-32215371D01*
X169969011Y-32319775D01*
X170236589Y-32373000D01*
X170509411Y-32373000D01*
X170776989Y-32319775D01*
X171029043Y-32215371D01*
X171255886Y-32063799D01*
X171448799Y-31870886D01*
X171600371Y-31644043D01*
X171704775Y-31391989D01*
X171758000Y-31124411D01*
X171758000Y-30851589D01*
X171757766Y-30850408D01*
X177419000Y-30850408D01*
X177419000Y-31125592D01*
X177472686Y-31395490D01*
X177577995Y-31649727D01*
X177730880Y-31878535D01*
X177925465Y-32073120D01*
X178154273Y-32226005D01*
X178231515Y-32258000D01*
X178154273Y-32289995D01*
X177925465Y-32442880D01*
X177730880Y-32637465D01*
X177577995Y-32866273D01*
X177472686Y-33120510D01*
X177419000Y-33390408D01*
X177419000Y-33665592D01*
X177472686Y-33935490D01*
X177577995Y-34189727D01*
X177730880Y-34418535D01*
X177925465Y-34613120D01*
X178154273Y-34766005D01*
X178231515Y-34798000D01*
X178154273Y-34829995D01*
X177925465Y-34982880D01*
X177730880Y-35177465D01*
X177577995Y-35406273D01*
X177472686Y-35660510D01*
X177419000Y-35930408D01*
X177419000Y-36205592D01*
X177472686Y-36475490D01*
X177577995Y-36729727D01*
X177730880Y-36958535D01*
X177925465Y-37153120D01*
X178154273Y-37306005D01*
X178408510Y-37411314D01*
X178678408Y-37465000D01*
X178953592Y-37465000D01*
X179223490Y-37411314D01*
X179477727Y-37306005D01*
X179706535Y-37153120D01*
X179901120Y-36958535D01*
X180054005Y-36729727D01*
X180159314Y-36475490D01*
X180213000Y-36205592D01*
X180213000Y-35930408D01*
X180159314Y-35660510D01*
X180054005Y-35406273D01*
X179901120Y-35177465D01*
X179706535Y-34982880D01*
X179477727Y-34829995D01*
X179400485Y-34798000D01*
X179477727Y-34766005D01*
X179706535Y-34613120D01*
X179901120Y-34418535D01*
X180054005Y-34189727D01*
X180159314Y-33935490D01*
X180213000Y-33665592D01*
X180213000Y-33390408D01*
X180159314Y-33120510D01*
X180054005Y-32866273D01*
X179901120Y-32637465D01*
X179706535Y-32442880D01*
X179477727Y-32289995D01*
X179400485Y-32258000D01*
X179477727Y-32226005D01*
X179706535Y-32073120D01*
X179901120Y-31878535D01*
X180054005Y-31649727D01*
X180159314Y-31395490D01*
X180213000Y-31125592D01*
X180213000Y-30850408D01*
X180159314Y-30580510D01*
X180054005Y-30326273D01*
X179901120Y-30097465D01*
X179706535Y-29902880D01*
X179477727Y-29749995D01*
X179406057Y-29720308D01*
X179419023Y-29715636D01*
X179534980Y-29653656D01*
X179601960Y-29413565D01*
X178816000Y-28627605D01*
X178030040Y-29413565D01*
X178097020Y-29653656D01*
X178232760Y-29717485D01*
X178154273Y-29749995D01*
X177925465Y-29902880D01*
X177730880Y-30097465D01*
X177577995Y-30326273D01*
X177472686Y-30580510D01*
X177419000Y-30850408D01*
X171757766Y-30850408D01*
X171704775Y-30584011D01*
X171600371Y-30331957D01*
X171448799Y-30105114D01*
X171255886Y-29912201D01*
X171029043Y-29760629D01*
X170776989Y-29656225D01*
X170509411Y-29603000D01*
X170236589Y-29603000D01*
X169969011Y-29656225D01*
X169716957Y-29760629D01*
X169490114Y-29912201D01*
X169297201Y-30105114D01*
X169145629Y-30331957D01*
X169041225Y-30584011D01*
X168988000Y-30851589D01*
X164758000Y-30851589D01*
X164704775Y-30584011D01*
X164600371Y-30331957D01*
X164448799Y-30105114D01*
X164255886Y-29912201D01*
X164029043Y-29760629D01*
X163776989Y-29656225D01*
X163509411Y-29603000D01*
X163236589Y-29603000D01*
X162969011Y-29656225D01*
X162716957Y-29760629D01*
X162490114Y-29912201D01*
X162458000Y-29944315D01*
X162458000Y-28520017D01*
X177414090Y-28520017D01*
X177455078Y-28792133D01*
X177548364Y-29051023D01*
X177610344Y-29166980D01*
X177850435Y-29233960D01*
X178636395Y-28448000D01*
X178995605Y-28448000D01*
X179781565Y-29233960D01*
X180021656Y-29166980D01*
X180138756Y-28917952D01*
X180205023Y-28650865D01*
X180217910Y-28375983D01*
X180176922Y-28103867D01*
X180083636Y-27844977D01*
X180021656Y-27729020D01*
X179781565Y-27662040D01*
X178995605Y-28448000D01*
X178636395Y-28448000D01*
X177850435Y-27662040D01*
X177610344Y-27729020D01*
X177493244Y-27978048D01*
X177426977Y-28245135D01*
X177414090Y-28520017D01*
X162458000Y-28520017D01*
X162458000Y-25770408D01*
X177419000Y-25770408D01*
X177419000Y-26045592D01*
X177472686Y-26315490D01*
X177577995Y-26569727D01*
X177730880Y-26798535D01*
X177925465Y-26993120D01*
X178154273Y-27146005D01*
X178225943Y-27175692D01*
X178212977Y-27180364D01*
X178097020Y-27242344D01*
X178030040Y-27482435D01*
X178816000Y-28268395D01*
X179601960Y-27482435D01*
X179534980Y-27242344D01*
X179399240Y-27178515D01*
X179477727Y-27146005D01*
X179706535Y-26993120D01*
X179901120Y-26798535D01*
X180054005Y-26569727D01*
X180159314Y-26315490D01*
X180213000Y-26045592D01*
X180213000Y-25770408D01*
X180159314Y-25500510D01*
X180054005Y-25246273D01*
X179901120Y-25017465D01*
X179706535Y-24822880D01*
X179477727Y-24669995D01*
X179223490Y-24564686D01*
X178953592Y-24511000D01*
X178678408Y-24511000D01*
X178408510Y-24564686D01*
X178154273Y-24669995D01*
X177925465Y-24822880D01*
X177730880Y-25017465D01*
X177577995Y-25246273D01*
X177472686Y-25500510D01*
X177419000Y-25770408D01*
X162458000Y-25770408D01*
X162458000Y-23520000D01*
X180442001Y-23520000D01*
X180442000Y-38202000D01*
G37*
X180442000Y-38202000D02*
X162458000Y-38202000D01*
X162458000Y-32031685D01*
X162490114Y-32063799D01*
X162716957Y-32215371D01*
X162969011Y-32319775D01*
X163236589Y-32373000D01*
X163509411Y-32373000D01*
X163776989Y-32319775D01*
X164029043Y-32215371D01*
X164255886Y-32063799D01*
X164448799Y-31870886D01*
X164600371Y-31644043D01*
X164704775Y-31391989D01*
X164758000Y-31124411D01*
X164758000Y-30851589D01*
X168988000Y-30851589D01*
X168988000Y-31124411D01*
X169041225Y-31391989D01*
X169145629Y-31644043D01*
X169297201Y-31870886D01*
X169490114Y-32063799D01*
X169716957Y-32215371D01*
X169969011Y-32319775D01*
X170236589Y-32373000D01*
X170509411Y-32373000D01*
X170776989Y-32319775D01*
X171029043Y-32215371D01*
X171255886Y-32063799D01*
X171448799Y-31870886D01*
X171600371Y-31644043D01*
X171704775Y-31391989D01*
X171758000Y-31124411D01*
X171758000Y-30851589D01*
X171757766Y-30850408D01*
X177419000Y-30850408D01*
X177419000Y-31125592D01*
X177472686Y-31395490D01*
X177577995Y-31649727D01*
X177730880Y-31878535D01*
X177925465Y-32073120D01*
X178154273Y-32226005D01*
X178231515Y-32258000D01*
X178154273Y-32289995D01*
X177925465Y-32442880D01*
X177730880Y-32637465D01*
X177577995Y-32866273D01*
X177472686Y-33120510D01*
X177419000Y-33390408D01*
X177419000Y-33665592D01*
X177472686Y-33935490D01*
X177577995Y-34189727D01*
X177730880Y-34418535D01*
X177925465Y-34613120D01*
X178154273Y-34766005D01*
X178231515Y-34798000D01*
X178154273Y-34829995D01*
X177925465Y-34982880D01*
X177730880Y-35177465D01*
X177577995Y-35406273D01*
X177472686Y-35660510D01*
X177419000Y-35930408D01*
X177419000Y-36205592D01*
X177472686Y-36475490D01*
X177577995Y-36729727D01*
X177730880Y-36958535D01*
X177925465Y-37153120D01*
X178154273Y-37306005D01*
X178408510Y-37411314D01*
X178678408Y-37465000D01*
X178953592Y-37465000D01*
X179223490Y-37411314D01*
X179477727Y-37306005D01*
X179706535Y-37153120D01*
X179901120Y-36958535D01*
X180054005Y-36729727D01*
X180159314Y-36475490D01*
X180213000Y-36205592D01*
X180213000Y-35930408D01*
X180159314Y-35660510D01*
X180054005Y-35406273D01*
X179901120Y-35177465D01*
X179706535Y-34982880D01*
X179477727Y-34829995D01*
X179400485Y-34798000D01*
X179477727Y-34766005D01*
X179706535Y-34613120D01*
X179901120Y-34418535D01*
X180054005Y-34189727D01*
X180159314Y-33935490D01*
X180213000Y-33665592D01*
X180213000Y-33390408D01*
X180159314Y-33120510D01*
X180054005Y-32866273D01*
X179901120Y-32637465D01*
X179706535Y-32442880D01*
X179477727Y-32289995D01*
X179400485Y-32258000D01*
X179477727Y-32226005D01*
X179706535Y-32073120D01*
X179901120Y-31878535D01*
X180054005Y-31649727D01*
X180159314Y-31395490D01*
X180213000Y-31125592D01*
X180213000Y-30850408D01*
X180159314Y-30580510D01*
X180054005Y-30326273D01*
X179901120Y-30097465D01*
X179706535Y-29902880D01*
X179477727Y-29749995D01*
X179406057Y-29720308D01*
X179419023Y-29715636D01*
X179534980Y-29653656D01*
X179601960Y-29413565D01*
X178816000Y-28627605D01*
X178030040Y-29413565D01*
X178097020Y-29653656D01*
X178232760Y-29717485D01*
X178154273Y-29749995D01*
X177925465Y-29902880D01*
X177730880Y-30097465D01*
X177577995Y-30326273D01*
X177472686Y-30580510D01*
X177419000Y-30850408D01*
X171757766Y-30850408D01*
X171704775Y-30584011D01*
X171600371Y-30331957D01*
X171448799Y-30105114D01*
X171255886Y-29912201D01*
X171029043Y-29760629D01*
X170776989Y-29656225D01*
X170509411Y-29603000D01*
X170236589Y-29603000D01*
X169969011Y-29656225D01*
X169716957Y-29760629D01*
X169490114Y-29912201D01*
X169297201Y-30105114D01*
X169145629Y-30331957D01*
X169041225Y-30584011D01*
X168988000Y-30851589D01*
X164758000Y-30851589D01*
X164704775Y-30584011D01*
X164600371Y-30331957D01*
X164448799Y-30105114D01*
X164255886Y-29912201D01*
X164029043Y-29760629D01*
X163776989Y-29656225D01*
X163509411Y-29603000D01*
X163236589Y-29603000D01*
X162969011Y-29656225D01*
X162716957Y-29760629D01*
X162490114Y-29912201D01*
X162458000Y-29944315D01*
X162458000Y-28520017D01*
X177414090Y-28520017D01*
X177455078Y-28792133D01*
X177548364Y-29051023D01*
X177610344Y-29166980D01*
X177850435Y-29233960D01*
X178636395Y-28448000D01*
X178995605Y-28448000D01*
X179781565Y-29233960D01*
X180021656Y-29166980D01*
X180138756Y-28917952D01*
X180205023Y-28650865D01*
X180217910Y-28375983D01*
X180176922Y-28103867D01*
X180083636Y-27844977D01*
X180021656Y-27729020D01*
X179781565Y-27662040D01*
X178995605Y-28448000D01*
X178636395Y-28448000D01*
X177850435Y-27662040D01*
X177610344Y-27729020D01*
X177493244Y-27978048D01*
X177426977Y-28245135D01*
X177414090Y-28520017D01*
X162458000Y-28520017D01*
X162458000Y-25770408D01*
X177419000Y-25770408D01*
X177419000Y-26045592D01*
X177472686Y-26315490D01*
X177577995Y-26569727D01*
X177730880Y-26798535D01*
X177925465Y-26993120D01*
X178154273Y-27146005D01*
X178225943Y-27175692D01*
X178212977Y-27180364D01*
X178097020Y-27242344D01*
X178030040Y-27482435D01*
X178816000Y-28268395D01*
X179601960Y-27482435D01*
X179534980Y-27242344D01*
X179399240Y-27178515D01*
X179477727Y-27146005D01*
X179706535Y-26993120D01*
X179901120Y-26798535D01*
X180054005Y-26569727D01*
X180159314Y-26315490D01*
X180213000Y-26045592D01*
X180213000Y-25770408D01*
X180159314Y-25500510D01*
X180054005Y-25246273D01*
X179901120Y-25017465D01*
X179706535Y-24822880D01*
X179477727Y-24669995D01*
X179223490Y-24564686D01*
X178953592Y-24511000D01*
X178678408Y-24511000D01*
X178408510Y-24564686D01*
X178154273Y-24669995D01*
X177925465Y-24822880D01*
X177730880Y-25017465D01*
X177577995Y-25246273D01*
X177472686Y-25500510D01*
X177419000Y-25770408D01*
X162458000Y-25770408D01*
X162458000Y-23520000D01*
X180442001Y-23520000D01*
X180442000Y-38202000D01*
M02*
