G04 #@! TF.GenerationSoftware,KiCad,Pcbnew,(5.1.5)-3*
G04 #@! TF.CreationDate,2020-12-21T12:39:58+01:00*
G04 #@! TF.ProjectId,epimetheus_tsl2561,6570696d-6574-4686-9575-735f74736c32,rev?*
G04 #@! TF.SameCoordinates,Original*
G04 #@! TF.FileFunction,Legend,Bot*
G04 #@! TF.FilePolarity,Positive*
%FSLAX46Y46*%
G04 Gerber Fmt 4.6, Leading zero omitted, Abs format (unit mm)*
G04 Created by KiCad (PCBNEW (5.1.5)-3) date 2020-12-21 12:39:58*
%MOMM*%
%LPD*%
G04 APERTURE LIST*
%ADD10C,0.150000*%
%ADD11C,0.010000*%
G04 APERTURE END LIST*
D10*
X167409523Y-36790380D02*
X167314285Y-36790380D01*
X167219047Y-36838000D01*
X167171428Y-36885619D01*
X167123809Y-36980857D01*
X167076190Y-37171333D01*
X167076190Y-37409428D01*
X167123809Y-37599904D01*
X167171428Y-37695142D01*
X167219047Y-37742761D01*
X167314285Y-37790380D01*
X167409523Y-37790380D01*
X167504761Y-37742761D01*
X167552380Y-37695142D01*
X167600000Y-37599904D01*
X167647619Y-37409428D01*
X167647619Y-37171333D01*
X167600000Y-36980857D01*
X167552380Y-36885619D01*
X167504761Y-36838000D01*
X167409523Y-36790380D01*
X166742857Y-37790380D02*
X166219047Y-37123714D01*
X166742857Y-37123714D02*
X166219047Y-37790380D01*
X165409523Y-37123714D02*
X165409523Y-37790380D01*
X165647619Y-36742761D02*
X165885714Y-37457047D01*
X165266666Y-37457047D01*
X164838095Y-37790380D02*
X164647619Y-37790380D01*
X164552380Y-37742761D01*
X164504761Y-37695142D01*
X164409523Y-37552285D01*
X164361904Y-37361809D01*
X164361904Y-36980857D01*
X164409523Y-36885619D01*
X164457142Y-36838000D01*
X164552380Y-36790380D01*
X164742857Y-36790380D01*
X164838095Y-36838000D01*
X164885714Y-36885619D01*
X164933333Y-36980857D01*
X164933333Y-37218952D01*
X164885714Y-37314190D01*
X164838095Y-37361809D01*
X164742857Y-37409428D01*
X164552380Y-37409428D01*
X164457142Y-37361809D01*
X164409523Y-37314190D01*
X164361904Y-37218952D01*
X163171428Y-37790380D02*
X163171428Y-36790380D01*
X163171428Y-37266571D02*
X162600000Y-37266571D01*
X162600000Y-37790380D02*
X162600000Y-36790380D01*
X167392076Y-35520380D02*
X167296838Y-35520380D01*
X167201600Y-35568000D01*
X167153980Y-35615619D01*
X167106361Y-35710857D01*
X167058742Y-35901333D01*
X167058742Y-36139428D01*
X167106361Y-36329904D01*
X167153980Y-36425142D01*
X167201600Y-36472761D01*
X167296838Y-36520380D01*
X167392076Y-36520380D01*
X167487314Y-36472761D01*
X167534933Y-36425142D01*
X167582552Y-36329904D01*
X167630171Y-36139428D01*
X167630171Y-35901333D01*
X167582552Y-35710857D01*
X167534933Y-35615619D01*
X167487314Y-35568000D01*
X167392076Y-35520380D01*
X166725409Y-36520380D02*
X166201600Y-35853714D01*
X166725409Y-35853714D02*
X166201600Y-36520380D01*
X165868266Y-35615619D02*
X165820647Y-35568000D01*
X165725409Y-35520380D01*
X165487314Y-35520380D01*
X165392076Y-35568000D01*
X165344457Y-35615619D01*
X165296838Y-35710857D01*
X165296838Y-35806095D01*
X165344457Y-35948952D01*
X165915885Y-36520380D01*
X165296838Y-36520380D01*
X164820647Y-36520380D02*
X164630171Y-36520380D01*
X164534933Y-36472761D01*
X164487314Y-36425142D01*
X164392076Y-36282285D01*
X164344457Y-36091809D01*
X164344457Y-35710857D01*
X164392076Y-35615619D01*
X164439695Y-35568000D01*
X164534933Y-35520380D01*
X164725409Y-35520380D01*
X164820647Y-35568000D01*
X164868266Y-35615619D01*
X164915885Y-35710857D01*
X164915885Y-35948952D01*
X164868266Y-36044190D01*
X164820647Y-36091809D01*
X164725409Y-36139428D01*
X164534933Y-36139428D01*
X164439695Y-36091809D01*
X164392076Y-36044190D01*
X164344457Y-35948952D01*
X162677790Y-36520380D02*
X163153980Y-36520380D01*
X163153980Y-35520380D01*
X165488761Y-23582380D02*
X165393523Y-23582380D01*
X165298285Y-23630000D01*
X165250666Y-23677619D01*
X165203047Y-23772857D01*
X165155428Y-23963333D01*
X165155428Y-24201428D01*
X165203047Y-24391904D01*
X165250666Y-24487142D01*
X165298285Y-24534761D01*
X165393523Y-24582380D01*
X165488761Y-24582380D01*
X165584000Y-24534761D01*
X165631619Y-24487142D01*
X165679238Y-24391904D01*
X165726857Y-24201428D01*
X165726857Y-23963333D01*
X165679238Y-23772857D01*
X165631619Y-23677619D01*
X165584000Y-23630000D01*
X165488761Y-23582380D01*
X164822095Y-24582380D02*
X164298285Y-23915714D01*
X164822095Y-23915714D02*
X164298285Y-24582380D01*
X164012571Y-23582380D02*
X163393523Y-23582380D01*
X163726857Y-23963333D01*
X163584000Y-23963333D01*
X163488761Y-24010952D01*
X163441142Y-24058571D01*
X163393523Y-24153809D01*
X163393523Y-24391904D01*
X163441142Y-24487142D01*
X163488761Y-24534761D01*
X163584000Y-24582380D01*
X163869714Y-24582380D01*
X163964952Y-24534761D01*
X164012571Y-24487142D01*
X162917333Y-24582380D02*
X162726857Y-24582380D01*
X162631619Y-24534761D01*
X162584000Y-24487142D01*
X162488761Y-24344285D01*
X162441142Y-24153809D01*
X162441142Y-23772857D01*
X162488761Y-23677619D01*
X162536380Y-23630000D01*
X162631619Y-23582380D01*
X162822095Y-23582380D01*
X162917333Y-23630000D01*
X162964952Y-23677619D01*
X163012571Y-23772857D01*
X163012571Y-24010952D01*
X162964952Y-24106190D01*
X162917333Y-24153809D01*
X162822095Y-24201428D01*
X162631619Y-24201428D01*
X162536380Y-24153809D01*
X162488761Y-24106190D01*
X162441142Y-24010952D01*
X180617428Y-23582380D02*
X180046000Y-23582380D01*
X180331714Y-24582380D02*
X180331714Y-23582380D01*
X179760285Y-24534761D02*
X179617428Y-24582380D01*
X179379333Y-24582380D01*
X179284095Y-24534761D01*
X179236476Y-24487142D01*
X179188857Y-24391904D01*
X179188857Y-24296666D01*
X179236476Y-24201428D01*
X179284095Y-24153809D01*
X179379333Y-24106190D01*
X179569809Y-24058571D01*
X179665047Y-24010952D01*
X179712666Y-23963333D01*
X179760285Y-23868095D01*
X179760285Y-23772857D01*
X179712666Y-23677619D01*
X179665047Y-23630000D01*
X179569809Y-23582380D01*
X179331714Y-23582380D01*
X179188857Y-23630000D01*
X178284095Y-24582380D02*
X178760285Y-24582380D01*
X178760285Y-23582380D01*
X177998380Y-23677619D02*
X177950761Y-23630000D01*
X177855523Y-23582380D01*
X177617428Y-23582380D01*
X177522190Y-23630000D01*
X177474571Y-23677619D01*
X177426952Y-23772857D01*
X177426952Y-23868095D01*
X177474571Y-24010952D01*
X178046000Y-24582380D01*
X177426952Y-24582380D01*
X176522190Y-23582380D02*
X176998380Y-23582380D01*
X177046000Y-24058571D01*
X176998380Y-24010952D01*
X176903142Y-23963333D01*
X176665047Y-23963333D01*
X176569809Y-24010952D01*
X176522190Y-24058571D01*
X176474571Y-24153809D01*
X176474571Y-24391904D01*
X176522190Y-24487142D01*
X176569809Y-24534761D01*
X176665047Y-24582380D01*
X176903142Y-24582380D01*
X176998380Y-24534761D01*
X177046000Y-24487142D01*
X175617428Y-23582380D02*
X175807904Y-23582380D01*
X175903142Y-23630000D01*
X175950761Y-23677619D01*
X176046000Y-23820476D01*
X176093619Y-24010952D01*
X176093619Y-24391904D01*
X176046000Y-24487142D01*
X175998380Y-24534761D01*
X175903142Y-24582380D01*
X175712666Y-24582380D01*
X175617428Y-24534761D01*
X175569809Y-24487142D01*
X175522190Y-24391904D01*
X175522190Y-24153809D01*
X175569809Y-24058571D01*
X175617428Y-24010952D01*
X175712666Y-23963333D01*
X175903142Y-23963333D01*
X175998380Y-24010952D01*
X176046000Y-24058571D01*
X176093619Y-24153809D01*
X174569809Y-24582380D02*
X175141238Y-24582380D01*
X174855523Y-24582380D02*
X174855523Y-23582380D01*
X174950761Y-23725238D01*
X175046000Y-23820476D01*
X175141238Y-23868095D01*
D11*
G36*
X173615040Y-38173544D02*
G01*
X173627931Y-38125294D01*
X173646660Y-38050004D01*
X173670216Y-37951865D01*
X173697585Y-37835070D01*
X173727756Y-37703809D01*
X173745923Y-37623664D01*
X173873774Y-37056785D01*
X173800351Y-37044523D01*
X173752486Y-37039472D01*
X173678985Y-37035176D01*
X173590498Y-37032135D01*
X173511809Y-37030916D01*
X173416633Y-37031221D01*
X173353315Y-37033844D01*
X173317473Y-37039238D01*
X173304728Y-37047855D01*
X173305094Y-37052250D01*
X173311525Y-37074836D01*
X173325794Y-37128169D01*
X173346751Y-37207844D01*
X173373243Y-37309454D01*
X173404120Y-37428591D01*
X173438231Y-37560849D01*
X173456714Y-37632755D01*
X173491919Y-37768811D01*
X173524548Y-37892867D01*
X173553459Y-38000743D01*
X173577511Y-38088259D01*
X173595563Y-38151232D01*
X173606472Y-38185482D01*
X173609000Y-38190562D01*
X173615040Y-38173544D01*
G37*
X173615040Y-38173544D02*
X173627931Y-38125294D01*
X173646660Y-38050004D01*
X173670216Y-37951865D01*
X173697585Y-37835070D01*
X173727756Y-37703809D01*
X173745923Y-37623664D01*
X173873774Y-37056785D01*
X173800351Y-37044523D01*
X173752486Y-37039472D01*
X173678985Y-37035176D01*
X173590498Y-37032135D01*
X173511809Y-37030916D01*
X173416633Y-37031221D01*
X173353315Y-37033844D01*
X173317473Y-37039238D01*
X173304728Y-37047855D01*
X173305094Y-37052250D01*
X173311525Y-37074836D01*
X173325794Y-37128169D01*
X173346751Y-37207844D01*
X173373243Y-37309454D01*
X173404120Y-37428591D01*
X173438231Y-37560849D01*
X173456714Y-37632755D01*
X173491919Y-37768811D01*
X173524548Y-37892867D01*
X173553459Y-38000743D01*
X173577511Y-38088259D01*
X173595563Y-38151232D01*
X173606472Y-38185482D01*
X173609000Y-38190562D01*
X173615040Y-38173544D01*
G36*
X176007882Y-37260514D02*
G01*
X176003151Y-37238471D01*
X175985452Y-37193706D01*
X175953947Y-37124379D01*
X175907799Y-37028650D01*
X175846172Y-36904679D01*
X175768229Y-36750627D01*
X175766213Y-36746668D01*
X175700549Y-36617699D01*
X175640361Y-36499502D01*
X175587569Y-36395842D01*
X175544089Y-36310485D01*
X175511842Y-36247196D01*
X175492744Y-36209743D01*
X175488209Y-36200882D01*
X175474954Y-36211284D01*
X175439543Y-36242075D01*
X175386602Y-36289154D01*
X175320756Y-36348425D01*
X175280649Y-36384796D01*
X175209339Y-36450155D01*
X175148392Y-36507022D01*
X175102509Y-36550931D01*
X175076393Y-36577414D01*
X175072172Y-36582866D01*
X175085688Y-36595062D01*
X175124459Y-36625330D01*
X175184263Y-36670582D01*
X175260878Y-36727729D01*
X175350082Y-36793686D01*
X175447650Y-36865363D01*
X175549362Y-36939674D01*
X175650995Y-37013531D01*
X175748326Y-37083846D01*
X175837133Y-37147531D01*
X175913194Y-37201500D01*
X175972285Y-37242664D01*
X176000481Y-37261675D01*
X176007882Y-37260514D01*
G37*
X176007882Y-37260514D02*
X176003151Y-37238471D01*
X175985452Y-37193706D01*
X175953947Y-37124379D01*
X175907799Y-37028650D01*
X175846172Y-36904679D01*
X175768229Y-36750627D01*
X175766213Y-36746668D01*
X175700549Y-36617699D01*
X175640361Y-36499502D01*
X175587569Y-36395842D01*
X175544089Y-36310485D01*
X175511842Y-36247196D01*
X175492744Y-36209743D01*
X175488209Y-36200882D01*
X175474954Y-36211284D01*
X175439543Y-36242075D01*
X175386602Y-36289154D01*
X175320756Y-36348425D01*
X175280649Y-36384796D01*
X175209339Y-36450155D01*
X175148392Y-36507022D01*
X175102509Y-36550931D01*
X175076393Y-36577414D01*
X175072172Y-36582866D01*
X175085688Y-36595062D01*
X175124459Y-36625330D01*
X175184263Y-36670582D01*
X175260878Y-36727729D01*
X175350082Y-36793686D01*
X175447650Y-36865363D01*
X175549362Y-36939674D01*
X175650995Y-37013531D01*
X175748326Y-37083846D01*
X175837133Y-37147531D01*
X175913194Y-37201500D01*
X175972285Y-37242664D01*
X176000481Y-37261675D01*
X176007882Y-37260514D01*
G36*
X171561595Y-36919599D02*
G01*
X171676552Y-36836960D01*
X171782983Y-36759997D01*
X171877023Y-36691543D01*
X171954802Y-36634428D01*
X172012455Y-36591485D01*
X172046112Y-36565546D01*
X172052282Y-36560289D01*
X172062473Y-36547319D01*
X172063114Y-36532273D01*
X172050833Y-36510952D01*
X172022257Y-36479160D01*
X171974014Y-36432699D01*
X171902732Y-36367373D01*
X171882698Y-36349214D01*
X171811675Y-36285315D01*
X171750094Y-36230686D01*
X171702968Y-36189713D01*
X171675308Y-36166783D01*
X171670487Y-36163497D01*
X171659740Y-36178025D01*
X171634615Y-36221242D01*
X171597098Y-36289451D01*
X171549175Y-36378953D01*
X171492831Y-36486050D01*
X171430050Y-36607045D01*
X171380167Y-36704235D01*
X171101691Y-37249261D01*
X171561595Y-36919599D01*
G37*
X171561595Y-36919599D02*
X171676552Y-36836960D01*
X171782983Y-36759997D01*
X171877023Y-36691543D01*
X171954802Y-36634428D01*
X172012455Y-36591485D01*
X172046112Y-36565546D01*
X172052282Y-36560289D01*
X172062473Y-36547319D01*
X172063114Y-36532273D01*
X172050833Y-36510952D01*
X172022257Y-36479160D01*
X171974014Y-36432699D01*
X171902732Y-36367373D01*
X171882698Y-36349214D01*
X171811675Y-36285315D01*
X171750094Y-36230686D01*
X171702968Y-36189713D01*
X171675308Y-36166783D01*
X171670487Y-36163497D01*
X171659740Y-36178025D01*
X171634615Y-36221242D01*
X171597098Y-36289451D01*
X171549175Y-36378953D01*
X171492831Y-36486050D01*
X171430050Y-36607045D01*
X171380167Y-36704235D01*
X171101691Y-37249261D01*
X171561595Y-36919599D01*
G36*
X175972107Y-34992902D02*
G01*
X175994892Y-34986903D01*
X176048568Y-34974007D01*
X176128619Y-34955260D01*
X176230531Y-34931708D01*
X176349788Y-34904399D01*
X176481876Y-34874379D01*
X176539071Y-34861445D01*
X176674584Y-34830586D01*
X176798607Y-34801848D01*
X176906726Y-34776292D01*
X176994533Y-34754980D01*
X177057614Y-34738973D01*
X177091559Y-34729332D01*
X177096081Y-34727424D01*
X177082368Y-34720383D01*
X177037530Y-34705626D01*
X176965625Y-34684306D01*
X176870713Y-34657577D01*
X176756853Y-34626594D01*
X176628104Y-34592511D01*
X176551795Y-34572701D01*
X176414614Y-34537267D01*
X176288278Y-34504510D01*
X176177197Y-34475582D01*
X176085777Y-34451635D01*
X176018427Y-34433823D01*
X175979556Y-34423299D01*
X175972107Y-34421105D01*
X175963294Y-34426109D01*
X175956933Y-34450891D01*
X175952714Y-34499390D01*
X175950323Y-34575544D01*
X175949449Y-34683290D01*
X175949428Y-34707286D01*
X175950048Y-34821266D01*
X175952117Y-34902921D01*
X175955948Y-34956191D01*
X175961854Y-34985018D01*
X175970148Y-34993344D01*
X175972107Y-34992902D01*
G37*
X175972107Y-34992902D02*
X175994892Y-34986903D01*
X176048568Y-34974007D01*
X176128619Y-34955260D01*
X176230531Y-34931708D01*
X176349788Y-34904399D01*
X176481876Y-34874379D01*
X176539071Y-34861445D01*
X176674584Y-34830586D01*
X176798607Y-34801848D01*
X176906726Y-34776292D01*
X176994533Y-34754980D01*
X177057614Y-34738973D01*
X177091559Y-34729332D01*
X177096081Y-34727424D01*
X177082368Y-34720383D01*
X177037530Y-34705626D01*
X176965625Y-34684306D01*
X176870713Y-34657577D01*
X176756853Y-34626594D01*
X176628104Y-34592511D01*
X176551795Y-34572701D01*
X176414614Y-34537267D01*
X176288278Y-34504510D01*
X176177197Y-34475582D01*
X176085777Y-34451635D01*
X176018427Y-34433823D01*
X175979556Y-34423299D01*
X175972107Y-34421105D01*
X175963294Y-34426109D01*
X175956933Y-34450891D01*
X175952714Y-34499390D01*
X175950323Y-34575544D01*
X175949449Y-34683290D01*
X175949428Y-34707286D01*
X175950048Y-34821266D01*
X175952117Y-34902921D01*
X175955948Y-34956191D01*
X175961854Y-34985018D01*
X175970148Y-34993344D01*
X175972107Y-34992902D01*
G36*
X171168912Y-34925694D02*
G01*
X171172886Y-34878636D01*
X171175873Y-34807601D01*
X171177576Y-34718745D01*
X171177857Y-34661928D01*
X171177129Y-34549188D01*
X171174733Y-34468780D01*
X171170350Y-34416773D01*
X171163662Y-34389238D01*
X171155178Y-34382144D01*
X171132661Y-34386889D01*
X171079381Y-34399677D01*
X170999689Y-34419417D01*
X170897939Y-34445017D01*
X170778484Y-34475384D01*
X170645678Y-34509425D01*
X170563788Y-34530541D01*
X169995077Y-34677509D01*
X170572860Y-34809805D01*
X170712528Y-34841709D01*
X170840862Y-34870876D01*
X170953589Y-34896348D01*
X171046438Y-34917165D01*
X171115136Y-34932367D01*
X171155411Y-34940995D01*
X171164250Y-34942622D01*
X171168912Y-34925694D01*
G37*
X171168912Y-34925694D02*
X171172886Y-34878636D01*
X171175873Y-34807601D01*
X171177576Y-34718745D01*
X171177857Y-34661928D01*
X171177129Y-34549188D01*
X171174733Y-34468780D01*
X171170350Y-34416773D01*
X171163662Y-34389238D01*
X171155178Y-34382144D01*
X171132661Y-34386889D01*
X171079381Y-34399677D01*
X170999689Y-34419417D01*
X170897939Y-34445017D01*
X170778484Y-34475384D01*
X170645678Y-34509425D01*
X170563788Y-34530541D01*
X169995077Y-34677509D01*
X170572860Y-34809805D01*
X170712528Y-34841709D01*
X170840862Y-34870876D01*
X170953589Y-34896348D01*
X171046438Y-34917165D01*
X171115136Y-34932367D01*
X171155411Y-34940995D01*
X171164250Y-34942622D01*
X171168912Y-34925694D01*
G36*
X173917383Y-36934966D02*
G01*
X174116359Y-36898191D01*
X174309702Y-36840208D01*
X174506381Y-36759298D01*
X174531019Y-36747784D01*
X174779114Y-36611388D01*
X175003492Y-36449614D01*
X175203231Y-36265184D01*
X175377409Y-36060821D01*
X175525102Y-35839247D01*
X175645388Y-35603185D01*
X175737344Y-35355357D01*
X175800048Y-35098487D01*
X175832578Y-34835296D01*
X175834010Y-34568507D01*
X175803422Y-34300843D01*
X175739892Y-34035026D01*
X175642496Y-33773778D01*
X175581670Y-33647373D01*
X175436648Y-33406704D01*
X175263670Y-33187521D01*
X175065371Y-32991790D01*
X174844385Y-32821480D01*
X174603346Y-32678558D01*
X174344890Y-32564992D01*
X174071649Y-32482750D01*
X174002200Y-32467490D01*
X173894996Y-32450792D01*
X173765754Y-32438579D01*
X173626608Y-32431312D01*
X173489694Y-32429447D01*
X173367147Y-32433445D01*
X173291500Y-32440630D01*
X173009295Y-32496653D01*
X172740397Y-32584827D01*
X172487135Y-32703247D01*
X172251835Y-32850006D01*
X172036827Y-33023198D01*
X171844439Y-33220917D01*
X171676999Y-33441257D01*
X171536834Y-33682310D01*
X171426274Y-33942172D01*
X171414004Y-33977814D01*
X171349868Y-34220406D01*
X171313193Y-34477849D01*
X171303981Y-34741877D01*
X171322234Y-35004225D01*
X171367956Y-35256628D01*
X171413553Y-35414857D01*
X171520481Y-35676405D01*
X171658419Y-35921383D01*
X171824850Y-36147098D01*
X172017256Y-36350855D01*
X172233119Y-36529961D01*
X172469922Y-36681722D01*
X172702767Y-36794318D01*
X172868391Y-36856335D01*
X173027547Y-36900877D01*
X173192291Y-36930431D01*
X173374681Y-36947481D01*
X173466649Y-36951769D01*
X173703802Y-36952252D01*
X173917383Y-36934966D01*
G37*
X173917383Y-36934966D02*
X174116359Y-36898191D01*
X174309702Y-36840208D01*
X174506381Y-36759298D01*
X174531019Y-36747784D01*
X174779114Y-36611388D01*
X175003492Y-36449614D01*
X175203231Y-36265184D01*
X175377409Y-36060821D01*
X175525102Y-35839247D01*
X175645388Y-35603185D01*
X175737344Y-35355357D01*
X175800048Y-35098487D01*
X175832578Y-34835296D01*
X175834010Y-34568507D01*
X175803422Y-34300843D01*
X175739892Y-34035026D01*
X175642496Y-33773778D01*
X175581670Y-33647373D01*
X175436648Y-33406704D01*
X175263670Y-33187521D01*
X175065371Y-32991790D01*
X174844385Y-32821480D01*
X174603346Y-32678558D01*
X174344890Y-32564992D01*
X174071649Y-32482750D01*
X174002200Y-32467490D01*
X173894996Y-32450792D01*
X173765754Y-32438579D01*
X173626608Y-32431312D01*
X173489694Y-32429447D01*
X173367147Y-32433445D01*
X173291500Y-32440630D01*
X173009295Y-32496653D01*
X172740397Y-32584827D01*
X172487135Y-32703247D01*
X172251835Y-32850006D01*
X172036827Y-33023198D01*
X171844439Y-33220917D01*
X171676999Y-33441257D01*
X171536834Y-33682310D01*
X171426274Y-33942172D01*
X171414004Y-33977814D01*
X171349868Y-34220406D01*
X171313193Y-34477849D01*
X171303981Y-34741877D01*
X171322234Y-35004225D01*
X171367956Y-35256628D01*
X171413553Y-35414857D01*
X171520481Y-35676405D01*
X171658419Y-35921383D01*
X171824850Y-36147098D01*
X172017256Y-36350855D01*
X172233119Y-36529961D01*
X172469922Y-36681722D01*
X172702767Y-36794318D01*
X172868391Y-36856335D01*
X173027547Y-36900877D01*
X173192291Y-36930431D01*
X173374681Y-36947481D01*
X173466649Y-36951769D01*
X173703802Y-36952252D01*
X173917383Y-36934966D01*
G36*
X175516473Y-33149175D02*
G01*
X175541867Y-33106245D01*
X175578716Y-33040217D01*
X175624628Y-32955692D01*
X175677208Y-32857272D01*
X175734063Y-32749558D01*
X175792801Y-32637151D01*
X175851027Y-32524653D01*
X175906349Y-32416665D01*
X175956372Y-32317788D01*
X175998705Y-32232623D01*
X176030953Y-32165772D01*
X176050723Y-32121836D01*
X176055726Y-32105474D01*
X176040003Y-32114402D01*
X175998413Y-32142182D01*
X175934463Y-32186360D01*
X175851657Y-32244481D01*
X175753499Y-32314092D01*
X175643496Y-32392737D01*
X175570163Y-32445477D01*
X175091112Y-32790768D01*
X175288948Y-32977226D01*
X175359347Y-33042534D01*
X175421191Y-33097953D01*
X175469410Y-33139090D01*
X175498935Y-33161550D01*
X175504928Y-33164406D01*
X175516473Y-33149175D01*
G37*
X175516473Y-33149175D02*
X175541867Y-33106245D01*
X175578716Y-33040217D01*
X175624628Y-32955692D01*
X175677208Y-32857272D01*
X175734063Y-32749558D01*
X175792801Y-32637151D01*
X175851027Y-32524653D01*
X175906349Y-32416665D01*
X175956372Y-32317788D01*
X175998705Y-32232623D01*
X176030953Y-32165772D01*
X176050723Y-32121836D01*
X176055726Y-32105474D01*
X176040003Y-32114402D01*
X175998413Y-32142182D01*
X175934463Y-32186360D01*
X175851657Y-32244481D01*
X175753499Y-32314092D01*
X175643496Y-32392737D01*
X175570163Y-32445477D01*
X175091112Y-32790768D01*
X175288948Y-32977226D01*
X175359347Y-33042534D01*
X175421191Y-33097953D01*
X175469410Y-33139090D01*
X175498935Y-33161550D01*
X175504928Y-33164406D01*
X175516473Y-33149175D01*
G36*
X171754888Y-33075412D02*
G01*
X171796258Y-33039805D01*
X171854975Y-32987066D01*
X171922214Y-32925197D01*
X171970790Y-32879640D01*
X172119652Y-32738786D01*
X171140998Y-32040448D01*
X171414423Y-32585388D01*
X171687848Y-33130329D01*
X171754888Y-33075412D01*
G37*
X171754888Y-33075412D02*
X171796258Y-33039805D01*
X171854975Y-32987066D01*
X171922214Y-32925197D01*
X171970790Y-32879640D01*
X172119652Y-32738786D01*
X171140998Y-32040448D01*
X171414423Y-32585388D01*
X171687848Y-33130329D01*
X171754888Y-33075412D01*
G36*
X173448769Y-32292004D02*
G01*
X173538590Y-32291094D01*
X173593200Y-32290223D01*
X173872787Y-32285214D01*
X173727008Y-31719484D01*
X173691354Y-31581931D01*
X173658277Y-31455874D01*
X173628922Y-31345557D01*
X173604435Y-31255219D01*
X173585959Y-31189104D01*
X173574639Y-31151452D01*
X173571807Y-31144331D01*
X173565703Y-31159020D01*
X173552751Y-31205062D01*
X173533954Y-31278383D01*
X173510318Y-31374912D01*
X173482846Y-31490574D01*
X173452543Y-31621298D01*
X173432456Y-31709527D01*
X173401263Y-31848372D01*
X173373095Y-31975474D01*
X173348854Y-32086625D01*
X173329443Y-32177618D01*
X173315764Y-32244245D01*
X173308718Y-32282298D01*
X173308071Y-32289690D01*
X173327160Y-32291290D01*
X173376176Y-32292066D01*
X173448769Y-32292004D01*
G37*
X173448769Y-32292004D02*
X173538590Y-32291094D01*
X173593200Y-32290223D01*
X173872787Y-32285214D01*
X173727008Y-31719484D01*
X173691354Y-31581931D01*
X173658277Y-31455874D01*
X173628922Y-31345557D01*
X173604435Y-31255219D01*
X173585959Y-31189104D01*
X173574639Y-31151452D01*
X173571807Y-31144331D01*
X173565703Y-31159020D01*
X173552751Y-31205062D01*
X173533954Y-31278383D01*
X173510318Y-31374912D01*
X173482846Y-31490574D01*
X173452543Y-31621298D01*
X173432456Y-31709527D01*
X173401263Y-31848372D01*
X173373095Y-31975474D01*
X173348854Y-32086625D01*
X173329443Y-32177618D01*
X173315764Y-32244245D01*
X173308718Y-32282298D01*
X173308071Y-32289690D01*
X173327160Y-32291290D01*
X173376176Y-32292066D01*
X173448769Y-32292004D01*
M02*
